<?xml version="1.0" encoding="UTF-8"?><svg id="Laag_1" xmlns="http://www.w3.org/2000/svg" viewBox="0 0 12.31 31"><defs><style>.cls-1{fill:#b18968;}.cls-2{fill:#d8d9dc;}.cls-3{fill:#bd9a7f;}</style></defs><path class="cls-3" d="M1.31,1C1.31,.45,1.76,0,2.31,0h2.05c.55,0,1,.45,1,1v1.91s.09,.97,.09,.97l.39,3.99v.03c.06,.35,.1,.69,.13,1.02,.32,2.6,.31,5.22-.02,7.82-.44,3.37-1.71,5.16-1.22,8.88,.17,1.06,.5,2.1,.96,3.07-.15,.76-.6,1.44-1.25,1.87-.79,.48-1.75,.57-2.61,.25-.8-8.09-.18-9.97,.26-11.58,.33-1.13,.48-2.3,.45-3.48-.06-1.01-.21-2.01-.45-2.99-.25-1.35-.41-2.71-.47-4.08-.01-.32-.02-.66-.03-1h0s-.19-3.87-.19-3.87l-.06-1.01v-.09s-.03-1.69-.03-1.69c0,0,0-.01,0-.02Z"/><path class="cls-2" d="M.35,2.71c1.69,.19,3.4,.24,5.1,.17,2.09-.09,4.16-.39,6.19-.87,.94,2.29,.88,4.86-.17,7.1-3.52-1.1-7.2-1.57-10.88-1.41C-.1,6.13-.19,4.35,.35,2.71Z"/><path class="cls-1" d="M5.54,7.86c.1,.01,.2,.02,.3,.04,.06,.35,.1,.69,.13,1.02-.14-.03-.28-.04-.43-.06-1.3-.14-2.61-.2-3.92-.18-.01-.32-.02-.66-.03-1,1.32-.03,2.64,.03,3.95,.18Z"/></svg>