<?xml version="1.0" encoding="utf-8"?>
<!-- Generator: Adobe Illustrator 26.5.0, SVG Export Plug-In . SVG Version: 6.00 Build 0)  -->
<svg version="1.1" id="Laag_1" xmlns="http://www.w3.org/2000/svg" xmlns:xlink="http://www.w3.org/1999/xlink" x="0px" y="0px"
	 viewBox="0 0 500 500" style="enable-background:new 0 0 500 500;" xml:space="preserve">
<style type="text/css">
	.st0{fill:none;}
	.st1{fill:#95BB38;}
	.st2{fill:#94B945;}
	.st3{fill:#92B73D;}
	.st4{fill:#81A829;}
	.st5{fill:#96B748;}
	.st6{fill:#7FA433;}
	.st7{fill:#82A83A;}
	.st8{fill:#A1BF46;}
	.st9{fill:#82A92D;}
	.st10{fill:#87AB30;}
	.st11{fill:#8CB23F;}
	.st12{fill:#81A830;}
	.st13{fill:#82AB31;}
	.st14{fill:#89B03C;}
	.st15{fill:#8DB13D;}
	.st16{fill:#86AC3A;}
	.st17{fill:#8EB547;}
	.st18{fill:#99BC49;}
	.st19{fill:#93B941;}
	.st20{fill:#799F2E;}
	.st21{fill:#89AF42;}
	.st22{fill:#96BC4A;}
	.st23{fill:#94B63E;}
	.st24{fill:#9CC04E;}
	.st25{fill:#7AA029;}
	.st26{fill:#9CBE48;}
	.st27{fill:#759D2A;}
	.st28{fill:#88AD3A;}
	.st29{fill:#96BA4B;}
	.st30{fill:#7FA629;}
	.st31{fill:#90B644;}
	.st32{fill:#7BA32C;}
	.st33{fill:#9ABD4D;}
	.st34{fill:#87AD34;}
	.st35{fill:#87AD37;}
	.st36{fill:#A5C44F;}
	.st37{fill:#92B84D;}
	.st38{fill:#9BC053;}
	.st39{fill:none;stroke:#86A92C;stroke-miterlimit:10;}
	.st40{fill:#A4C45A;}
	.st41{fill:#89AF36;}
	.st42{fill:#8FB53F;}
	.st43{fill:#97BB46;}
	.st44{fill:#80A634;}
	.st45{fill:#86A92C;}
	.st46{fill:#85AC2C;}
	.st47{fill:#89AF38;}
	.st48{fill:#93B944;}
	.st49{fill:#88AE34;}
	.st50{fill:#8BB13A;}
	.st51{fill:#81A834;}
	.st52{fill:#82AA33;}
	.st53{fill:#99BB4D;}
	.st54{fill:#96BB43;}
	.st55{fill:#78A02B;}
	.st56{fill:#7CA428;}
	.st57{fill:#709624;}
	.st58{fill:#8EB43B;}
	.st59{fill:#9ABD42;}
	.st60{fill:#86AA34;}
	.st61{fill:#7FA62C;}
	.st62{fill:#80A737;}
	.st63{fill:#789F22;}
	.st64{fill:#8CB040;}
	.st65{fill:#7DA331;}
	.st66{fill:#92B743;}
	.st67{fill:#88AE3F;}
	.st68{fill:#82A72E;}
	.st69{fill:#8BB33D;}
	.st70{fill:#9FBE4C;}
	.st71{fill:#8BAF33;}
	.st72{fill:#89B137;}
	.st73{fill:#8DB234;}
</style>
<g>
	<path class="st39" d="M337.76,351.23c0.17-0.03,0.33-0.07,0.5-0.1c-0.12-0.32-0.26-0.63-0.37-0.95
		C337.84,350.54,337.81,350.88,337.76,351.23z"/>
	<path class="st39" d="M496.68,174.45c1.31,2.93,2.59,6.32,3.89,10.19c0.48-0.31,0.91-0.62,1.42-0.93
		C500.12,180.83,498.74,176.99,496.68,174.45z"/>
	<path class="st39" d="M157.09,441.97c0.21-0.46,0.4-0.91,0.62-1.37c-0.18,0.09-0.36,0.17-0.54,0.25
		C157.13,441.23,157.12,441.6,157.09,441.97z"/>
	<path class="st39" d="M501.57,291.59c-0.65-0.7-1.31-1.41-1.98-1.98c0.51,1.01,0.98,1.86,1.38,2.64
		C501.16,292.03,501.38,291.81,501.57,291.59z"/>
	<path class="st39" d="M252.68,411.26c-0.03-0.01-0.06-0.02-0.09-0.03c0.08,0.19,0.16,0.37,0.25,0.56
		c-0.01,0.03-0.02,0.06-0.03,0.09c0.13-0.05,0.26-0.07,0.39-0.11C253.03,411.61,252.85,411.43,252.68,411.26z"/>
	<path class="st39" d="M84.89,304.88c0.7,1.14,1.76,2.2,3.29,3.15c0,0,0.01-0.01,0.01-0.01C86.99,307,85.9,305.95,84.89,304.88z"/>
	<path class="st39" d="M358.82,241.77c-0.33,0.9-0.86,1.57-1.51,2.08c0.52-0.2,1.03-0.42,1.54-0.68
		C364.78,242.35,360.6,236.95,358.82,241.77z"/>
	<path class="st39" d="M29.36,216.01c0.13,0.28,0.25,0.54,0.37,0.8c0.04-0.17,0.09-0.34,0.13-0.51
		C29.69,216.21,29.53,216.11,29.36,216.01z"/>
	<path class="st39" d="M427.67,170.47c0.28-0.12,0.56-0.25,0.84-0.38c-0.28-0.13-0.57-0.26-0.84-0.39
		C427.67,169.96,427.67,170.22,427.67,170.47z"/>
	<path class="st39" d="M315.4,240.25c0.02-0.02,0.04-0.04,0.06-0.06c-0.01,0-0.03,0-0.04,0C315.41,240.21,315.4,240.24,315.4,240.25
		z"/>
	<path class="st39" d="M324.88,292.26c-1.29,1.09-2.58,2.07-3.88,2.95c0.01,0.43,0,0.86,0,1.29c1.65-1.55,3.37-3.03,5.26-4.33
		c-0.31-0.24-0.54-0.42-0.7-0.55C325.33,291.84,325.12,292.05,324.88,292.26z"/>
	<path class="st31" d="M613.09,734.65c-1.57-1.39-3.13-2.72-4.58-4.02c-21.28,12.57-23.08-21.7-44.7-19.49
		c-3.24-4.78-3.27-9.32-3.26-17.32c7.69-3.47,15.35-3.48,26.83-3.49c1.44,0.58,2.91,1.13,4.39,1.67c0.15-0.15,0.3-0.31,0.45-0.47
		c-0.98-6.54-0.98-10.96-0.97-18.15c-0.57-2.58-1.1-5.01-1.6-7.38c-26.98,1.95-34.91-25.03-43.2-40.97
		c-6.73-12.93,3.14-42.51,31.37-48.46c6.88-1.45,12.2-10.3,21.15-17.83c1.58-2.05,2.83-4.1,3.89-6.16
		c-1.08-2.75-1.15-6.59-1.23-12.23c-1.45-2.58-3.08-4.38-4.89-5.79c-3.74-0.36-8.41-2.23-14.05-5.64c0.62-0.12,1.29-0.15,1.98-0.15
		c-0.44-0.19-0.88-0.38-1.34-0.58c-2.28-9.54-2.28-17.19-2.26-28.67c1.06-0.49,2.12-0.91,3.19-1.28c-0.09-0.05-0.17-0.09-0.26-0.14
		c-7.95-14.76-12.99-27.1-20.68-41.45c-0.89-0.67-1.46-1.67-1.84-2.77c-21.16,19.17-28.88,9.14-31.96-15.91
		c-1.24-1.86-2.26-3.86-3.17-5.93c-9.96,2.37-19.99,2.46-33.3,2.52c-0.89-0.98-1.68-1.95-2.44-2.92
		c-9.39,2.95-17.17,3.01-28.83,3.15c-2.16,0.5-4.08,0.76-5.89,0.89c2.16,5.02,2.29,9.29,2.47,16.06c-1.28-0.59-2.57-1.14-3.87-1.65
		c0.59,0.68,1.18,1.33,1.77,2.07c25.12,3.23,49.06,0.9,62.77,29.97c-0.41,1.63-0.89,2.81-1.52,3.74
		c19.11,2.14,30.24,16.96,17.36,25.35c-28.07,18.27-46.22,59.01-93.61,46.31c-1.54-0.98-2.78-1.98-3.79-3.03
		c-5.82,11.36-11.72,19.59-18.9,30.49c-0.86,1.09-1.71,1.99-2.56,2.81c0.09,0.18,0.18,0.37,0.28,0.54
		c4.95,1.21,7.35,3.29,10.12,7.71c-10.9,3.46-17.14,7.49-7.49,19.5c7.47,9.29,11.26,19.06,1,32.11c-1.37-0.16-2.74-0.33-4.11-0.49
		c1.49,4.25,1.54,6.05,1.65,10.29c0.03,1.13-0.85,1.83-2.04,2.28c25.15,55.69,25.89,55.05,92.34-7.34
		c9.5,12.43-12.26,21.64-4.9,29.38c53.16,55.96-0.73,56.06-29.29,68.95H629.7C624.42,745.89,618.97,740.7,613.09,734.65z
		 M428.04,599.8c-0.55-1.46-0.52-1.49-0.51-1.51c1.27,1.49,2.53,3,3.79,4.5C430.41,602.28,429.5,601.77,428.04,599.8z
		 M462.72,622.52c-1.37-6.7-0.75-11.38-0.14-16.06c3.85,2.06,9.77,3.21,11.15,6.35C477.02,620.32,474.57,625.9,462.72,622.52z
		 M524.42,684.77C524.28,684.85,524.13,684.94,524.42,684.77c0.05-0.03,0.09-0.05,0.12-0.07c0.06-0.03,0.05-0.03,0,0
		C524.52,684.71,524.48,684.73,524.42,684.77z M539.66,552.88c-6.56-10.13,2.01-17.68,13.54-24.12
		c19.03,5.06,20.33,14.97,8.91,24.84C556.31,558.63,544.56,560.44,539.66,552.88z M560.01,688.93c0.58,1.43,0.54,1.47,0.51,1.49
		c-1.29-1.45-2.55-2.92-3.82-4.39C557.62,686.52,558.53,687.01,560.01,688.93z M548.75,721.58c1.45-0.57,1.57-0.47,1.62-0.41
		C549.38,721.53,548.34,721.84,548.75,721.58z M552.57,720.02c-1.43-2.4,0.51-5.07,5.73-8.07c1.89-0.86,2.19-1.03,2.23-1.08
		c0-0.01,0-0.01,0.01-0.02c0,0,0,0.01-0.01,0.02C559.62,714.23,557.76,716.96,552.57,720.02z"/>
	<path class="st50" d="M560.71,447.43c0.71-0.91,1.46-1.72,2.22-2.49c-4.25-0.06-6.01,0.11-7.15-0.63c-2.51-1.63-4.61-3.9-6.88-5.91
		c11.69-5.42,23.39-10.84,38.21-17.7c-41.53-10.05-16.6-48.18-34.83-66.07c21.72,19.24,32.33-34.18,57.82-8.03
		c9.95,10.21,17.81,0.49,19.17-20.61c0.92-14.25-23.07-33.95,10.49-43.81c1.13,0.24,2.17,0.55,3.16,0.9
		c1.94-7.95,2.98-15.23,6.83-17.33c6.16-3.36,10.53,2.48,12.86,11.83c-0.38,1.38-0.78,2.66-1.19,3.89c3.11-0.82,7.07-0.7,9.21-0.54
		c1.09,0.57,2.08,1.15,3.01,1.72c6.42-7.28,12.14-12.2,18.92-19.48c0.5-1.11,1.05-2.02,1.5-2.68c-0.36,0.04-0.39,0.06-0.34,0.02
		c0.04-0.29,0.08-0.57,0.12-0.86c-16.42,0.87-27-20.89-48.3-9.57c-1.73-0.86-3.12-1.8-4.26-2.85c-20.78,6.6-41.61,10.02-66.37,13.41
		c-0.34-1.41-0.8-2.82-1.34-4.22c-0.18,0.65-0.37,1.29-0.58,1.95c-3.28,5.61-5.28,8.3-10.46,11.43c-2.44,0.93-4.58,1.45-6.55,1.49
		c-14.86,10.84-28.48,26.53-52.46,29.74c-0.45-0.01-0.84-0.09-1.19-0.23c0.28,26.35-24.24,36.7-32.41,59.21
		c-1.39,1.81-2.73,3.23-4.1,4.31c5.31,8.49,16.86,18.79,3.67,23.76c-10.92,4.12-12.88-12.17-20.18-22.19
		c0.65-0.57,1.37-1.01,2.14-1.37c8.66-26.21-9.22-64.43,33.69-74.94c8.3-2.03-26.19-3.65-9.39-17.43c6.69-5.49,19.1,0.81,23.16,16
		c0.25,0.53,0.49,1.01,0.72,1.46c0.67,0.57,1.33,1.28,1.98,1.98c11.77-13.77,6.46-29.65,7.96-47.52c0.02-1.83,1.14-2.8,2.56-3.33
		c-0.18-20.69-47.24-32.85-11.5-56.1c-1.3-3.87-2.59-7.27-3.89-10.19c-0.7-0.87-1.48-1.58-2.39-2.06
		c-17.53-9.12-28.04,4.82-43.18,14.9c-1.75-0.26-3.34-0.61-4.86-1c-10.98,52.21-15.14,100.94-43.69,148.45
		c-22.37,37.22-31.63,37.26-63.52,18.36c-0.29-0.66-0.53-1.31-0.78-1.97c-0.17,0.03-0.33,0.07-0.5,0.1
		c-1.27,10.64-0.4,18.54,0.48,26.4c-33.16-7.72-46.02,22.04-74.01,36.15c-0.44-0.07-0.85-0.15-1.28-0.23
		c0.81,0.56,0.82,0.56,0.8,0.57c0.03,4.51,0.08,9.01,0.18,16.87c0.05,3.37-0.18,3.6-0.29,3.71c-0.95,0.91-1.95,1.68-3.04,2.3
		c0.07,0.43,0.13,0.86,0.18,1.3c0.06-0.06,0.12-0.11,0.19-0.17c18.8,21.31,61.8,32.64,41.42,76.72
		c-3.23,6.98,14.94,10.31,24.43,13.42c18.96,6.21,30.99,15.57,11.01,37.59c-2.22,0.55-4.18,0.91-6.07,1.17
		c-20.19,47,39.34,15.27,42,40.25c1.44,1.46,2.87,2.87,4.3,4.27c8.66-4.05,15.87-7.12,18.27-20.26c0.69-0.46,1.37-0.84,2.06-1.18
		c-44.42-5.4-21.16-37.91-31.11-58.74c23.72,2.15,42.89,3.88,66.04,5.63c0.9,0.99,1.59,1.99,2.15,3.01
		c17.19-13.53,11.55-25.72,3.49-41.09c-1.41-2.08-2.5-4.01-3.29-5.82c-14.62,2.65-34.22,4.59-30.02-15.64
		c3.61-17.36,23.89-13.63,41.22-4.44c-0.12,0.66-0.27,1.28-0.43,1.9c3.58,0.85,6.54,0.91,8.11,0.87c1.11,0.73,2.14,1.33,3.15,1.8
		c-0.01-0.01-0.01-0.01-0.02-0.01c0.76-1.94,2.89-2.05,8.21-2.12c0.17,0.77,0.23,1.55,0.17,2.26c0.4-0.14,0.79-0.27,1.21-0.46
		c1.81-1.76,6.41-1.66,8.71-1.6c1.67,0.37,3.27,0.78,4.84,1.21c3-3.68,5.74-5.12,8.39-5.17c-10.75-4.87-22.3-8.28-32.82-15.57
		c-1.13-2.25-1.91-4.26-2.43-6.2c-18.46-7.05-38.98-6-63.24-5.14c-0.48-20.73-27.98-16.28-31.04-34.22
		c22.69-10.44,45.24-20.81,70.46-32.41c14.08,15.54-0.07,42.58,24.5,55c0.3,0.55,0.54,1.08,0.79,1.6
		c8.31-8.3,15.72-10.77,27.38-12.63c0.77-0.06,1.49-0.08,2.24-0.12c-5.5-14.77,2.18-29.03,10.59-45.89
		c12.08,18.86,45.66,18.49,34.01,54.89c9.8,7.9,16.08,19.24,31.13,19.84C560.68,449.55,560.69,448.32,560.71,447.43z M383.46,444.96
		c2.92-0.36,3.13-0.16,3.23-0.05c-0.72,6.74-0.89,14.15-9.45,15.44c-1.85,0.28-4.31-3.47-6.49-5.37
		C374.01,451.76,377.27,448.54,383.46,444.96z M302.13,431.94c-0.57-2.68,7.99-10.12,12.76-10.53c12.36-1.06,9.01,9.91,10.27,20.23
		C315.5,443.84,304.58,443.54,302.13,431.94z M328.87,449.14c-0.87-0.5-1.75-1-3.16-2.92c-0.54-1.41-0.53-1.42-0.53-1.42
		C326.42,446.24,327.64,447.69,328.87,449.14z M332.15,505.56c-0.12,0.51-3.39,0.95-3.5,0.7c-1.28-3-2.24-6.14-3.23-12.32
		c4.36-22.58,13.53-29.66,32.53-14.56C348.33,487.53,335.32,492.04,332.15,505.56z"/>
	<path class="st50" d="M456.41,456.11c10.52,7.29,22.07,10.7,32.82,15.57c4.14-0.08,8.05,3.27,12.34,6.85
		c1.56,1.1,3.07,2.31,4.55,3.61c0.68,0.49,1.37,0.97,2.08,1.42c-0.07,0.1-0.15,0.19-0.22,0.28c0.61,0.6,1.2,1.24,1.79,1.89
		c2.71,0.17,5.63,0.11,7.34,0.1c0.13,0.01,0.26,0.03,0.39,0.05c0.63-0.93,1.11-2.12,1.52-3.74c-13.71-29.07-37.65-26.75-62.77-29.97
		c-0.58-0.73-1.18-1.39-1.77-2.07c-0.16-0.06-0.33-0.12-0.5-0.18C454.5,451.84,455.27,453.85,456.41,456.11z"/>
	<path class="st50" d="M482.84,422.12c-11.67,1.86-19.08,4.33-27.38,12.63c0.15,0.31,0.3,0.62,0.43,0.93
		c1.81-0.13,3.73-0.39,5.89-0.89c11.66-0.14,19.44-0.2,28.83-3.15c-2.53-3.25-4.33-6.45-5.52-9.63
		C484.33,422.04,483.61,422.06,482.84,422.12z"/>
	<path class="st51" d="M504,487.95c-5.78,4.29-10.68,0.45-16.18-4.07c-1.89-0.32-3.83-0.59-5.95-0.69
		c-5.03,0.41-7.06,0.66-12.17,1.15c-5.15,0.25-7.22,0.24-12.44-0.09c-5.26-0.72-7.38-1.11-12.51-2.15
		c-0.34-0.03-0.67-0.07-0.99-0.12c-1.4,2.78-3.09,5.58-4.88,8.9c1.28,0.79,2.62,1.67,3.95,2.72c13.22,14.77,16.44,28.09,4.75,45.36
		c-3.63,2.48-7.1,4.36-10.46,5.75c0.41,2.21,0.54,4.73,0.62,7.75c0.09-0.05,0.17-0.11,0.26-0.16
		c35.39-10.88,70.86-15.97,76.38-60.87c-0.6-0.87-1.23-1.66-1.86-2.46c-0.41,0.12-0.83,0.25-1.3,0.37
		C508.63,489,506.27,488.5,504,487.95z"/>
	<path class="st51" d="M512.52,488.98c0.62,0.8,1.26,1.59,1.86,2.46c-5.52,44.9-40.99,49.99-76.38,60.87
		c-0.09,0.05-0.17,0.11-0.26,0.16c0.01,0.47,0.03,0.92,0.04,1.41c-0.11,0.21-0.22,0.41-0.33,0.62c1.01,1.05,2.25,2.06,3.79,3.03
		c47.4,12.71,65.55-28.03,93.61-46.31c12.89-8.39,1.76-23.21-17.36-25.35C516.44,487.44,514.93,488.26,512.52,488.98z"/>
	<path class="st51" d="M444.75,482.1c5.13,1.04,7.25,1.43,12.51,2.15c5.22,0.33,7.28,0.34,12.44,0.09c5.11-0.5,7.13-0.74,12.17-1.15
		c2.12,0.11,4.07,0.37,5.95,0.69c-2.48-2.04-5.07-4.2-7.92-5.83c0.31-0.43,0.62-0.83,0.93-1.21c-1.57-0.43-3.16-0.84-4.84-1.21
		c-2.3-0.06-6.9-0.15-8.71,1.6c-0.43,0.19-0.81,0.31-1.21,0.46c-0.27,3.03-2.79,4.82-8.36-0.13c-1.01-0.46-2.04-1.07-3.15-1.8
		c-1.57,0.04-4.53-0.02-8.11-0.87c-0.64,2.56-1.57,4.83-2.7,7.08C444.09,482.03,444.42,482.07,444.75,482.1z"/>
	<path class="st51" d="M447.58,538.97c11.69-17.27,8.46-30.6-4.75-45.36c-1.33-1.05-2.67-1.93-3.95-2.72
		c-0.32,0.59-0.63,1.16-0.96,1.79c-0.73,0.14-1.47,0.28-2.23,0.41c0.79,1.81,1.87,3.75,3.29,5.82c8.06,15.37,13.7,27.56-3.49,41.09
		c0.8,1.46,1.31,3.01,1.63,4.71C440.48,543.33,443.95,541.45,447.58,538.97z"/>
	<path class="st38" d="M428.79,414.73c-20.69-24.99-32.93-15.33-38.01,14.49c-0.45,7.09,1.85,8.15,8.54,6.76
		c21.34-4.35,39.04-3.98,54.51,13.36c-1.02-4.3-0.57-8.29,1.2-13.6C439.19,436.48,436.09,423.55,428.79,414.73z"/>
	<path class="st38" d="M453.84,449.34c0.21,0.24,0.42,0.5,0.63,0.74c1.3,0.51,2.59,1.05,3.87,1.65c-0.18-6.77-0.31-11.04-2.47-16.06
		c-0.28,0.02-0.57,0.06-0.84,0.07C453.27,441.05,452.82,445.05,453.84,449.34z"/>
	<path class="st38" d="M430.16,378.14c-25.22,11.6-47.77,21.97-70.46,32.41c3.06,17.94,30.56,13.5,31.04,34.22
		c24.26-0.86,44.78-1.91,63.24,5.14c-0.05-0.19-0.09-0.37-0.14-0.56c-15.48-17.34-33.18-17.71-54.51-13.36
		c-6.69,1.39-9,0.33-8.54-6.76c5.07-29.83,17.32-39.48,38.01-14.49c7.3,8.82,10.4,21.75,26.25,21.02c0.1-0.3,0.17-0.57,0.28-0.87
		c0.05-0.05,0.09-0.08,0.14-0.13c-0.25-0.53-0.49-1.05-0.79-1.6C430.09,420.72,444.24,393.68,430.16,378.14z"/>
	<path class="st38" d="M455.32,434.87c-0.11,0.3-0.18,0.57-0.28,0.87c0.27-0.01,0.56-0.05,0.84-0.07c-0.13-0.3-0.28-0.62-0.43-0.93
		C455.41,434.79,455.36,434.83,455.32,434.87z"/>
	<path class="st38" d="M453.98,449.91c0.16,0.06,0.33,0.12,0.5,0.18c-0.21-0.24-0.42-0.5-0.63-0.74
		C453.89,449.53,453.93,449.72,453.98,449.91z"/>
	<path class="st43" d="M503.03,403.74c-7.98,0.7-7.73,9.17-9.3,18.03c8.91,0.1,16.79,1.26,26.36,3.62c1.6,0.58,3.06,1.32,4.46,2.11
		C520.12,415.21,517.97,402.44,503.03,403.74z"/>
	<path class="st43" d="M520.09,425.39c-9.56-2.35-17.45-3.52-26.36-3.62c-0.6,3.36-1.44,6.78-3.12,9.85c-0.01,0-0.01,0-0.02,0.01
		c0.75,0.97,1.55,1.94,2.44,2.92c13.31-0.05,23.34-0.15,33.3-2.52c-0.65-1.49-1.24-3-1.79-4.53
		C523.14,426.71,521.68,425.97,520.09,425.39z"/>
	<path class="st43" d="M495.67,376.11c-8.41,16.86-16.09,31.12-10.59,45.89c3.03-0.17,5.9-0.25,8.65-0.22
		c1.57-8.86,1.32-17.33,9.3-18.03c14.94-1.31,17.09,11.46,21.52,23.76c1.84,1.04,3.54,2.22,5.13,3.5
		C541.33,394.6,507.75,394.97,495.67,376.11z"/>
	<path class="st43" d="M493.73,421.77c-2.75-0.03-5.62,0.05-8.65,0.22c1.18,3.18,2.99,6.38,5.52,9.63c0.01,0,0.01,0,0.02-0.01
		C492.29,428.55,493.13,425.14,493.73,421.77z"/>
	<path class="st53" d="M185.58,660.51c12.92-7.16,26.61-16.02,36.99,7.04c0.13,1.32,0.22,2.96,0.28,4.59
		c18.95-7.86,34.61-22.17,58.14-11.55c1.64,0.99,2.95,2,3.99,3.06c5.46-4.83,10.91-6.93,17.83-11.39c-0.38-2.51-0.49-4.6-0.17-6.37
		c-28.39-15.64-54.32-34.73-37.61-73.76c11.4-26.61,24-24.22,36.49,2.47c2.87-4.03,5.94-6.83,10.96-10.2
		c5.69-1.92,9.72-2.39,14.3-1.18c2.47-5.77,4.17-10.7,2.39-11.64c-43.94-23.41-35.22-79.2-68.33-112.87
		c0.64,5.99-0.57,11.98-1.8,17.97c-3.63-2.97-7.26-5.95-13.28-10.37c-0.67-0.87-1.14-1.62-1.5-2.35c-0.9,0.86-0.95,0.86-0.94,0.88
		c-0.63,0.63-1.27,1.27-1.94,1.93c0.5,2.13-1.5,4.54-6.01,7.26c-0.18-0.3-0.3-0.62-0.38-0.93c-0.08,0.08-0.16,0.16-0.24,0.24
		c-1.66,1.75-1.67,1.71-1.65,1.72c-0.65,0.51-1.32,0.99-2,1.48c0.29,2.63-1.73,4.98-6.02,7.68c-0.65-0.48-1.24-0.94-1.75-1.36
		c-0.45,13.4-0.42,24.24-0.49,39.28c-0.83,0.43-1.66,0.8-2.48,1.2c4.46,1.28,6.03,2.1,5.23,3.15c7.12,0.34,16.78-3.41,17.25,5.63
		c0.29,5.71-10.83,2.92-18.32-3.37c-0.29-0.39-0.51-0.7-0.71-0.98c-0.17,0.09-0.33,0.18-0.52,0.28c-0.66-1.67-1.64-3.1-3.48-4.45
		c-13.6,6.52-27.34,9.67-44.35,12.81c-0.62-1.48-1.3-2.95-2-4.41c-0.57,0.38-1.14,0.77-1.71,1.17c-0.07,5.06-0.09,6.82-0.08,10.97
		c-1.11,1.38-2,2.73-2.71,4.05c3.8,9.74,27.89,15.23,5.51,29c-1.37-0.57-2.71-1.14-4.02-1.72c-6.68,13.88-15.3,8.93-26.5,2.77
		c-0.72-0.84-1.36-1.59-1.97-2.32c-0.06,0.04-0.11,0.08-0.17,0.11c-0.69,9.82-0.76,17.32-0.84,28.11c-1.01,0.98-2.03,1.8-3.05,2.54
		c12.31,2.49,25.85-1.58,28.03,9.93c3.06,16.09-23.55,9.5-24.47,29.04c-1.19,0.81-2.35,1.41-3.53,1.88
		c2.32,10.06,2.81,18.88,2.9,29.27c0.23,0.26,0.45,0.52,0.69,0.77c3.73,3.55,5.2,5.13,7.96,9.27c5.53-8.26,12.91-11.75,24.11-12.69
		c1.84,3.11,3.91,5.43,6.13,7.19c1.69-0.33,3.41-0.65,5.24-0.94C185.19,660.44,185.38,660.48,185.58,660.51z M206.81,585.99
		c13.26,9.69,27.53,17.99,29,38.64C197.37,631.43,197.37,631.43,206.81,585.99z"/>
	<path class="st53" d="M331.77,567.03c1.89-0.26,3.85-0.62,6.07-1.17c19.98-22.02,7.95-31.38-11.01-37.59
		c-9.49-3.11-27.66-6.45-24.43-13.42c20.39-44.07-22.62-55.41-41.42-76.72c-0.06,0.06-0.12,0.11-0.19,0.17
		c0.02,0.13,0.03,0.27,0.04,0.4c33.11,33.67,24.39,89.47,68.33,112.87c1.78,0.95,0.08,5.88-2.39,11.64
		c1.77,0.47,3.62,1.17,5.69,2.16C332.21,565.95,332.01,566.47,331.77,567.03z"/>
	<path class="st18" d="M88.24,308.07c-0.02-0.01-0.03-0.03-0.05-0.04c0,0-0.01,0.01-0.01,0.01
		C88.2,308.04,88.22,308.05,88.24,308.07z"/>
	<path class="st18" d="M80.61,637.81c-9.16,0.58-17.04-1.66-21.1-15.11c-1.64-2.92-2.85-5.42-3.58-7.89
		c-16.67-5.61-32.61-19.16-52.81-0.66c-4.32-16.69,5.27-27.25,9.49-40.67c14.04,7.71,27.19,14.92,43.38,23.55
		c0.7,1.39,1.23,2.7,1.65,3.99c19.73-13.69,2.87-39.03,20.7-49.4c16.11,2.34-0.66,24.31,19.16,25.95c0.81,1.45,1.73,2.8,2.74,4.09
		c0.04-0.2,0.05-0.38,0.09-0.58c10.86-0.7,21.71,1.51,35.34,5.03c-2.68-6.78-3.08-12.58-1.65-20.8c2.19-4.55,4.81-7.39,7.79-9.3
		c0.01-0.09,0.01-0.19,0.02-0.29c-2.56-3.03-4.51-5.25-8.29-7.87c-1.78-1.25-3.36-2.71-4.87-4.22c-8.06,1.19-16.45-0.37-26.61-4.19
		c-0.15-1.36-0.21-2.66-0.23-3.93c-29.02-2.71-7.8-23.44-14.61-34.1c38.15-22.27,23.89-60.16,30.47-95.1
		c0.15,1.37,0.33,2.72,0.52,4.04c0.03-0.96,0.07-1.94,0.12-2.94c2.22-8.12,2.25-12.72,2.34-20.78c1.13-1.44,2.29-2.73,3.47-3.94
		c10.32-17.48,8.08-48.68,43.87-50.48c3.67-0.07,3.68,0.02,3.72,0.03c0.31,0.53,0.6,1.06,0.86,1.66c2.91-14.23,6.1-24.92,9.33-38.68
		c-0.85-2.31-1.72-4.07-2.7-5.61c-1.89-0.25-4.04-2.33-6.49-6.24c0.39-0.08,0.84-0.02,1.35,0.16c-0.24-0.24-0.46-0.47-0.71-0.72
		c-6.24-1.74-10.74-1.74-18.61-1.72c-1.4-2.06-2.81-3.89-4.22-5.53c0.24,0.65,0.48,1.29,0.71,1.97c-21.59,7.64-28.41,38.07-58,34.33
		c-1.29-0.89-2.48-1.79-3.62-2.7c0.09,2.19,0.18,2.53,0.22,2.55c0,0,0.01,0,0.01-0.01c0,0.01-0.01,0.01-0.01,0.01
		c-0.71,0.48-1.43,0.97-2.34,1.33c0.12,2.99-1.81,5.22-6.88,0.47c-0.16-0.3-0.13-0.54,0.03-0.75c-2.68-0.94-6.34-0.98-8.37-0.98
		c-0.94-1.07-1.97-2.07-3.04-3.04c-33.92,5.8-48.49,49.86-89.13,42.82c0.21-0.95,0.31-1.87,0.38-2.77
		c-0.23,0.04-0.45,0.08-0.67,0.12c-0.17,6.52-0.02,8.04-0.72,6.63c-1.13-2.25-2.1-2.47-2.75-2.16c-1.15,2.04-0.95,0.46,0,0
		c0.07-0.12,0.14-0.24,0.22-0.39c-0.67,0.24-1.14,0.4-0.8,0.24c0.36-0.14,0.63-0.24,0.83-0.31c0.12-0.23,0.24-0.45,0.37-0.74
		c0.92-1.92,2.23-3.69,3.5-5.99c-1.65-21.13-40.56-30.82-23.52-61.25c0.37-2.05,0.8-4.07,1.29-6.07
		c-7.69-3.33-13.27-8.34-20.27-15.56c-1.73-1.97-3.03-3.82-4-5.64c-4.43-0.47-9.04-2.82-15.56-5.78c0.14-0.94,0.34-1.85,0.55-2.74
		c-0.12,0.04-0.23,0.08-0.35,0.12c-22.46,0.08-8.82-15.01-12.93-26.07c0.52-1.53,1.12-3.02,1.77-4.5
		c-10.63-2.36-18.52-5.58-29.36-9.09c-1.12-2.04-2.85-3.4-4.95-4.32c0.17,0.41,0.3,0.85,0.39,1.31
		c-20.19,18.04-40.95,37.32-68.17,12.24c-12.28-11.31,2.06-15.58,6.28-25.14c-0.93-1.7-1.84-3.49-2.73-5.41
		c-7.21,0.67-13.67,0.67-22.25,0.67c-1.83-0.67-3.18-1.34-4.26-2.15c-40.45,37.9-40.32,38.09,6.54,54.9
		c20.07,7.2,9.24,19.28,3.19,27.75c-9.79,13.71-23.49,25-22.3,51.39c-0.11,0.08-0.22,0.15-0.34,0.23c0.49,0.9,1,1.8,1.56,2.71
		c0.07,0.05,0.12,0.1,0.19,0.15c1.09-1.64,1.31-1.86,1.43-1.99c33.96-2.87,31.05,20.84,30.95,46.67c-0.66,1.64-1.34,2.65-2.18,3.29
		c7.24,19.94,5.44,37.69,0.77,58.73c-1-0.17-1.92-0.37-2.84-0.56c0.23,0.56,0.44,1.12,0.71,1.69c3.83,2.47,5.82,2.59,10.54,2.74
		c4.02-3.3,5.99-5.99,11.15-9.14c1.61-2.4,3.24-4.59,4.91-6.58c-2.14-10.67-7.8-24.93,6.22-29.88c12.91-4.56,25.1,4.37,31.4,21.81
		c-0.86,0.47-1.73,0.88-2.6,1.3c2.95,2.39,3.27,6.76,3.4,11.98c11.56,1.3,23.55,4.19,25.85,16.86c2.5,13.8-9.71,13.18-22.43,14.33
		c-1.42-0.91-2.61-1.85-3.62-2.83c0.1,3.71,0.07,8.09,0.16,10.37c-0.4,0.21-0.83,0.43-1.27,0.64c16.97,2.58,31.68,3.28,49.27,2.85
		c3.4-1.56,6.15-2.36,8.93-2.03c14.43-12.77-23.58-49.43,20.72-50.03c-0.57,1.49-1.05,3.02-1.54,4.54c0.5-0.68,0.97-1.35,1.5-2.03
		c11.83,3.37,20.15,9.27,31.23,16.55c1.85,1.4,3.07,2.5,3.83,3.7c3.26-0.38,6.38,1.17,1.21,6.78c-0.45,0.2-0.81,0.05-1.1-0.33
		c-0.7,1.23-0.71,1.38-0.78,1.41c-0.67,0.66-1.33,1.32-2.01,2.02c0.63,2.26-1.34,4.7-5.87,7.42c-0.11-0.36-0.09-0.77-0.01-1.21
		c-0.19,0.2-0.36,0.39-0.56,0.6c-9.98,7.66-18.22,13.63-29.37,20.77c-2.9,1.17-2.92,1.16-2.93,1.15c-0.44-0.99-0.86-1.97-1.26-2.95
		c-0.27,0.45-0.53,0.93-0.78,1.4c5.11,11.41,7.57,19.15,11.03,29.34c-0.13,0.1-0.25,0.17-0.38,0.26c1.71,0.87,3.04,1.79,4.5,3.14
		c1.19-0.45,2.7-0.44,4.85-0.43c0.96,0.76,1.82,1.53,2.63,2.31c-0.05-2.26-0.11-2.35-0.09-2.32c0.81-0.78,1.64-1.55,2.53-2.39
		c0.59-1.68,2.55-3.96,5.95-6.82c0.09,0.45,0.01,0.98-0.23,1.57c0.29-0.26,0.57-0.52,0.88-0.8c15.21,7.76,26.34,38.09,43.79-0.01
		c6.64-14.5,15.09,3.91,25.98,7.13c1.74-0.53,3.44-0.8,5.1-0.91c-2.39-13.19-16.29-30.07,5.32-34.48c19.62-4,22.03,14.27,23.17,33.2
		c-1,0.81-2.01,1.6-3.01,2.35c0,0,0.01,0,0.01,0c3.03,5.75,3.02,10.17,3.02,17.9c-1.2,2.24-2.49,3.89-3.93,5.1
		c-1.95,7.19-4.4,21.96-16.48,1.23c0.31-0.2,0.63-0.35,0.95-0.52c-30.95-1.46-59.05-0.27-86.89,15.26c0.35,1.21,0.7,2.42,1.1,3.67
		c-3.58,59.97,13.05,77.18,102.24,107.2c1.69,1.85,2.8,3.31,3.51,4.82c0.1-0.01,0.21-0.02,0.31-0.03
		C72.18,651.46,75.9,645.17,80.61,637.81z M-148.19,349.58c0.16,0.2,0.31,0.38,0.47,0.58c-8.11,14.78-20.87,16.81-32.13,6.62
		c-5.66-5.12,0.93-11.24,11.2-13.62c1.87-0.95,3.54-1.57,5.07-1.92c-1.4-6.19-0.92-12.57,5.56-12.03
		c8.56,0.7,10.51,9.67,12.15,20.39C-146.64,349.68-147.41,349.65-148.19,349.58z M-105.85,350.1c-20.72-3.47-27.06-15.4-23.68-31.69
		c0.51-2.47,12.58-5.73,16.89-3.64C-97.79,321.95-88.52,332.64-105.85,350.1z M48.54,367.95c-3.92,14.31-6.76,29.82-24.18,33.93
		c-3.01,0.71-10.95-5.4-10.6-6.69c4.14-14.89,14.66-24.65,31.73-31.78C48.83,364.65,48.97,366.38,48.54,367.95z M50.36,362.44
		c-1.41,0.55-1.48,0.49-1.51,0.46C49.8,362.53,50.79,362.21,50.36,362.44z"/>
	<path class="st23" d="M-159.21,155.91c5.43-2.94,22.01,6.09,15.39,11.29c-40.52,31.9,1.11,25.76,13.93,34.59
		c0.75-0.52,1.5-1.05,2.26-1.6c13.34-0.26,22.06,2.99,32.34,11.14c1.51,1.66,2.73,3.34,3.8,5.04c11.79-24.35,37.83-43.1,16.55-75.79
		c3.64-0.38,7.05-0.64,10.27-0.81c-1.76-0.58-3.57-1.14-5.46-1.68c-2.64-19.6-9.29-47.52,18.6-47.89
		c25.53-0.35,39.03,21.69,38.97,48.5c-0.09,39.2,16.09,42.93,47.83,19.89c0.39,0.81,0.72,1.64,1.02,2.47
		c0.02-0.04,0.03-0.07,0.05-0.1c2.37-2.93,2.37-7.9,2.36-10.38c1.02-1.05,2.08-1.95,3.18-2.74c-20.31-17.53-0.4-31.31,4.3-48.93
		c1.87-0.8,3.75-1.48,5.63-2.1c0.65-22.05-36.48-41.97-8.16-57.84c15.32-8.59,34.69,23.34,62.54,17.09c1.83-0.55,3.58-1.01,5.3-1.43
		c-1.33-1.59-1.39-3.42-1.47-6.62c0.66-1.49,1.35-2.89,2.06-4.24C79.01,0.25,35.54-10.11-18.26-5.18c-2.32-0.41-4.44-0.96-6.47-1.58
		c-3.38,5.33-8.07,8.33-15.4,11.45c-2,0.09-3.87,0.21-5.71,0.35c-3.59,12.11-10.13,19.37-25.93,10.85c-1.2-0.45-1.8-1.68-2.11-3.1
		c-17.93,4.43-30.15,34.81-50.61,5.81c1.08-0.53,2.17-1,3.25-1.5c-0.24-0.07-0.46-0.1-0.7-0.17
		c-11.03-23.12-32.11,15.45-41.82-10.79c-1.17-1.06-2.12-2.09-2.96-3.13c-1.43,1.69-4.99,1.68-7,1.69
		c-0.08-0.78-0.38-1.62-0.83-2.51c-0.01,0.01-0.02,0.02-0.02,0.03c-1.68,2.49-1.7,2.52-1.72,2.53c-0.91,0.88-1.86,1.61-2.88,2.22
		c1.98,8.85-0.42,15.68-15.05,8.93c-0.16-0.06-0.27-0.17-0.41-0.26c-5.23,9.31-11.48,15.02-20.08,22.17
		c-0.99,0.41-1.95,0.76-2.9,1.09c0.26,1.35,0.26,2.8,0.25,3.81c-0.76,1.39-1.5,2.57-2.25,3.69c0.32,1.62-1.49,4.47-5.56,8.44
		c-0.1-0.37-0.07-0.81,0.07-1.3c-0.2,0.25-0.39,0.48-0.6,0.74c-1.46,1.41-1.71,4.97-1.76,7.59c0.19,0.16,0.35,0.32,0.55,0.48
		c11.72,33.17-28.69,33.61-32.03,60.5c-2.37,5.43-4.16,9.15-6.57,13.45v2.92c17.11-6.91,36.48-7.08,47.79-28.51
		c1.19-1.87,2.45-3.61,3.77-5.17c-12.96-35.09,23.32-20.33,36.2-31c0.42,1.14,0.8,2.24,1.15,3.3c2.52-1.36,5.97-1.37,7.91-1.35
		c1.71-0.34,3.15-0.79,4.38-1.34c0.57-6.23,2.43-11.3,6.13-17.55c0.51,0.35,1.03,0.71,1.55,1.08c12.73-7.1,22.78-18.15,32.4,3.27
		c11.57,25.76-14.39,36.08-18,55.37c-1.26,6.71-20.79,16.3-29.54,14.24c-40.76-9.61-31.03,24.55-42.58,44.78
		c-0.79-0.09-1.54-0.22-2.27-0.36c-0.17,1.76-0.28,3.12-0.36,4.33c7.93-1.49,14.39-1.03,23.06,1.44c0.9,2.29,1.83,4.46,2.78,6.51
		c1.3-0.12,2.62-0.26,3.98-0.43C-183.78,170.13-171.13,162.36-159.21,155.91z M2.88,124.9c1.41,2.57,4.07,5.2,3.94,7.69
		c-0.19,3.63-0.05,10.99-7.77,2.35C0.07,130.05,1.48,127.47,2.88,124.9z"/>
	<path class="st60" d="M148.3,34.16c1.63,0.86,3.11,1.8,4.49,2.79c4.23-5.5,8.74-8.44,15.66-11.55c0.21,0.72,0.37,1.46,0.55,2.18
		c0.92-17.15,8.23-33.68-13.85-42.48c-1.87-0.88-3.23-1.68-4.18-2.56c-2.27,3.16-4.57,4.23-6.87,5.27
		c1.03-3.92,2.06-7.85,5.27-12.81c0.53,0.18,0.93,0.42,1.23,0.75c4.54-3.21,6.99-5.24,9.82-9.82c0.64-2.1,1.22-4.21,1.76-6.33
		c-17.63-17.93-14.13-35.69,4.6-51.77c9.91-8.5,13.65-35.85,35.25-8.73c-2.26,1.29-4.21,2.73-5.92,4.3
		c0.86-0.33,1.75-0.66,2.66-0.97c9.69-5.15,15.69-10.24,22.93-18.09c0.85-0.7,1.65-1.19,2.38-1.54c-1.13-2.85-1.15-6.5-1.16-8.51
		c-1.34-1.87-2.75-3.61-4.18-5.28c-22.73,2.89-45.94,3.01-73.21,3.41c0.69-1.17,1.49-2.35,2.35-3.53c-1.51,0.52-3.04,1.04-4.59,1.62
		c-2.3,2.27-2.29,6.63-2.25,8.8c-0.76,1.52-1.54,2.6-2.54,3.33c0.3,3.21-1.67,5.94-7.3,0.9c0.09-0.21,0.19-0.4,0.31-0.57
		c-2.75-1.09-6.28-1.05-8.2-1.01c-1.43-0.95-2.82-1.71-4.2-2.38c-2.8,2.33-7.31,2.35-15.02,2.22
		C81.12-33.77,15.54-54.94-43.99-58.48c-0.6-1.72-1.23-3.38-1.87-5c-2.64,4.51-4.99,8.5-7.45,13.95c-0.27,2.22-0.66,4.15-1.13,5.87
		c10.05,8.99,18.71,19.62,28.32,32.62c1.64-0.69,3.34-1.39,5.19-2.12c57.39-10.95,103.28,0.43,135.25,52.93
		C121.73,27.97,131.62,23.83,148.3,34.16z M100.25,2.19c3.31-11.42,11.68-15.54,22.52-12.86c1.44,0.35,3.31,6.62,2.2,8.32
		C119.57,5.87,110.88,4.76,100.25,2.19z"/>
	<path class="st60" d="M-20.93-13.14c-1.85,0.73-3.55,1.43-5.19,2.12c0.73,0.99,1.45,1.95,2.19,2.97c-0.26,0.46-0.54,0.87-0.81,1.3
		c2.03,0.62,4.15,1.17,6.47,1.58c53.8-4.93,97.27,5.43,130.33,48.93c0.73-1.4,1.48-2.73,2.25-3.97
		C82.35-12.71,36.46-24.09-20.93-13.14z"/>
	<path class="st2" d="M252.54,411.11c0.02,0.04,0.04,0.08,0.05,0.12c0.03,0.01,0.06,0.02,0.09,0.03
		C252.64,411.21,252.58,411.16,252.54,411.11z"/>
	<path class="st2" d="M335.4,325.86c1.03-1.84,2.1-3.42,3.23-4.86c-4.92-8.5-6.55-17.06-10.66-27.52c-0.77-0.58-1.31-1-1.71-1.31
		c-1.89,1.29-3.61,2.78-5.26,4.33c0,18.8-5.48,34.66-32.54,25.9c-9.13-2.95-24.35-1.95-21.46-14.52
		c6.72-29.16,32.59-11.65,53.87-16.59c0.06,1.31,0.1,2.62,0.12,3.92c1.3-0.88,2.59-1.86,3.88-2.95c0.24-0.21,0.46-0.43,0.69-0.64
		c-0.37-0.3-0.4-0.35-0.43-0.37c1.57-8.86,3.19-17.67,7.53-28.53c1.12,0.53,2.17,1.12,3.19,1.74c-0.03-0.1-0.06-0.19-0.08-0.29
		c-0.4-5.27-0.4-7.04-0.36-11.48c0.76-1.12,1.56-2.03,2.4-2.81c-2.33-0.8-2.42-5.05-2.43-7.31c0.91-0.12,1.82-0.21,2.73-0.26
		c-2.75-2.22-7.46-2.3-9.82-2.28c-1.52-0.37-2.82-0.81-4-1.32c-0.83,1.39-2.7,1.46-6.5,1.53c-1.25,0.01-1.94-0.01-2.34-0.04
		c-0.02,0.02-0.04,0.04-0.06,0.06c0-0.02,0.01-0.04,0.02-0.06c-0.43-0.04-0.49-0.09-0.53-0.12c-0.06-0.06,0-5.18,0.04-7.74
		c0.58-0.13,1.15-0.13,1.74-0.05c-0.1-0.13-0.2-0.24-0.3-0.37c-1.4-2.13-1.43-2.02-1.35-2.02c0.83-0.61,1.64-1.23,2.44-1.85
		c-20.17-15.2-40.2-3.88-57.75-2.96c-20.11,1.06-33.67-10.88-30.28-23.09c15.92-57.32-11.12-73.36-64.7-73.05
		c-0.65-1.17-1.14-2.28-1.55-3.37c-16.04,17.93-31.04,12.39-49.34,4.08c-1.33-1.07-2.41-2.12-3.33-3.17
		c-9.25,48.45-37.38,30.93-65.9,22.32c-0.93,5.68-1.56,7.91-4.03,13.13c-1.13,0.83-2.21,1.62-3.29,2.41
		c1.38,5.71,1.36,12.19,1.35,20.8c0.99,2.19,1.66,4.23,2.11,6.16c11.96-2.27,23.69-2.11,29.06,9.01
		c6.86,14.21,34.61-1.09,31.57,23.14c-2.12,16.87-21.32,13.79-30.44,22.31c-24.41,22.8-21.15-17.08-39.21-15.44
		c-1.05-0.71-1.73-1.38-2.21-2.1c-1.06,1.64-1.09,1.68-1.09,1.69c-0.69,1.29-1.46,2.47-2.27,3.6c3.28,13.65-1.51,28.85,19.58,36.76
		c1.1,1.72,2.26,3.36,3.47,4.92c0.04-0.23,0.05-0.44,0.1-0.68c8.23,0.01,16.24,4.86,27.63-2.61c2.87,0.24,5.16,0.64,7.02,1.18
		c21.83-7.43,45.98-52.47,66.22,1.51c0.29-0.04,0.57-0.1,0.86-0.14c8.1-0.93,12.76-0.54,20.73,1.8c7.37,4.26,10.81,7.72,15.34,15.03
		c5.02,16.31,2.39,27.93-8.63,40.83c-1.56,0.91-3.06,1.83-4.54,2.76c1.06,0.48,2.09,1.49,2.95,2.65c0.29,0.38-1.18,2.08-3.56,4.05
		c-0.59,0.31-0.97-0.11-1.21-0.88c-4.12,3.09-6.63,5.05-9.58,9.57c-1.19,1.43-2.23,2.64-3.23,3.79c0.84,2.18-1.08,4.77-5.86,7.78
		c-0.15-0.25-0.25-0.51-0.32-0.77c-0.07,0.07-0.12,0.14-0.19,0.22c-4.3,8.19-9,14.2-16.15,17.9c-0.54,1.54-1.05,3.12-1.53,4.74
		c-2.34,7.71-3.72,12.11-6.07,19.83c1.34,10.49,1.27,20.46,0.25,30.09c6.03,4.21,15.11,5.38,28.92,1.95
		c-0.63,1.72-1.01,3.4-1.19,5.06c0.18-0.08,0.36-0.17,0.54-0.25c0.5-1.03,1.03-2.06,1.62-3.11c2.8-17.53,3.55-32.24,4.39-48.52
		c34.94,23.51,34.94,23.51,38.68-22.05c26.05-9.93,7.25,34.03,37.86,26.78c1.74,1.09,3.16,2.25,4.37,3.49
		c5.39,2.09,10.99,6.78,17.61,13.87c13.02-33.54,43.53-42.33,71.29-59.2c1.41-0.17,2.81-0.37,4.22-0.62
		c0.04-0.35,0.07-0.69,0.12-1.05C335.44,343.13,335.43,335.98,335.4,325.86z M313.49,240.72
		C313.76,240.64,313.62,240.68,313.49,240.72C313.23,240.8,313.36,240.76,313.49,240.72z M299.28,265.21
		C299.86,264.88,298.7,265.55,299.28,265.21L299.28,265.21z M202.2,363.11c-4.49-1.26-8.84-2.68-13.18-4.09
		c3.33-6.9,7.14-3.37,12.25,1.55C202.6,362.62,202.35,362.96,202.2,363.11z"/>
	<path class="st2" d="M262.25,411.05c0.12,0.13,0.23,0.24,0.35,0.36c0.33,0.74,0.17,1.29-0.26,1.7c0.24,0.17,0.45,0.31,0.61,0.43
		c0.42,0.08,0.84,0.15,1.28,0.23c27.99-14.11,40.85-43.87,74.01-36.15c-0.89-7.86-1.75-15.76-0.48-26.4
		c-1.41,0.25-2.81,0.46-4.22,0.62C305.78,368.72,275.28,377.51,262.25,411.05z"/>
	<path class="st2" d="M129.45,433.85c1.02-9.64,1.09-19.61-0.25-30.09c2.36-7.72,3.73-12.12,6.07-19.83
		c0.48-1.63,0.99-3.2,1.53-4.74c-3.57,1.85-7.75,3.13-12.82,3.8c0.05-0.09,0.1-0.18,0.16-0.27c-1.18,1.21-2.34,2.5-3.47,3.94
		c-0.09,8.06-0.13,12.67-2.34,20.78c-0.05,1-0.09,1.98-0.12,2.94C119.72,420.55,122.66,429.12,129.45,433.85z"/>
	<path class="st2" d="M173.92,334.88c1.48-0.93,2.99-1.85,4.54-2.76c11.01-12.9,13.65-24.52,8.63-40.83
		c-4.53-7.32-7.97-10.77-15.34-15.03c-7.97-2.34-12.63-2.72-20.73-1.8c-0.3,0.03-0.57,0.1-0.86,0.14c0.12,0.32,0.24,0.65,0.35,0.97
		c1.41,1.64,2.82,3.47,4.22,5.53c7.87-0.02,12.37-0.03,18.61,1.72c0.25,0.25,0.47,0.48,0.71,0.72c1.64,0.58,3.92,2.5,6.82,5.8
		c-0.53,0.27-1.09,0.36-1.68,0.28c0.98,1.54,1.85,3.3,2.7,5.61c-3.23,13.77-6.41,24.45-9.33,38.68c0.1,0.22,0.18,0.46,0.27,0.7
		C173.21,334.63,173.57,334.72,173.92,334.88z"/>
	<path class="st2" d="M40.57,161.92c2.47-5.22,3.1-7.46,4.03-13.13c-0.81-0.24-1.62-0.49-2.43-0.71c-0.1-0.09-0.19-0.17-0.29-0.26
		c-1.09,0.8-2.16,1.69-3.18,2.74c0.01,2.48,0.02,7.45-2.36,10.38c-0.02,0.04-0.03,0.07-0.05,0.1c0.39,1.07,0.72,2.16,0.99,3.28
		C38.36,163.55,39.44,162.75,40.57,161.92z"/>
	<path class="st67" d="M569.96,222.35c1.96-0.87,3.92-1.87,5.88-2.93c-0.57,0.11-1.14,0.23-1.71,0.34
		c-6.54-28.44,18.12-39.98,34.37-60c0.36,0,0.7,0,1.06,0c-5.97-9.54-6.62-16.8-3.65-27.78c1.21-1.63,2.44-3.07,3.7-4.37
		c-34.05-3.51-43.05-27.42-49.15-57.53c-0.35-1.72-0.57-3.31-0.72-4.84c-2.11,1-5.07,1.01-6.81,1c-3.23-1.59-5.76-3.02-8.47-4.71
		c-11.11,0.17-26.14,30.57-35.16-2.5c-0.57-2.42-1.14-4.12-1.44-5.68c-2.47-0.33-4.91-2.22-8.16-5.61c0.17-0.44,0.4-0.78,0.67-1.07
		c-17.41-28.99-37.74-57.57,17.24-69.74c1.76-0.16,3.47-0.37,5.18-0.56c-0.18-0.17-0.35-0.32-0.53-0.49
		c-2.61-6.16-2.63-10.72-2.68-18.68c0.42-0.95,0.85-1.78,1.29-2.54c-10.35-7.41-18.42-13.19-29.1-20.03
		c-0.52-0.37-1.04-0.74-1.55-1.1c-2.84,12.52,3.37,27.73-19.88,22.35c-1.43-1.39-2.73-2.68-4-3.89
		c-6.89,4.56-14.93,11.37-18.09-5.81c0.81-0.47,1.64-1.01,2.48-1.57c-3.7-4.49-5.65-7.17-10.65-10.35c-0.97-1.41-1.8-2.75-2.58-4.05
		c-4.56,2.9-9.21,2.94-17.22,2.9c-0.04-0.92,0.01-1.84,0.11-2.76c-0.22,0.21-0.39,0.41-0.62,0.61c-12.34,2.9-20.3,5.54-22.51,19.68
		c-1.05,1.32-2.11,2.44-3.19,3.43c16.37,16.76,51.83,8.12,50.01,42.07c-0.36,6.83,1.55,14.85-7.61,13.69
		c-5.19-0.66-9.54-7.95-16.82-13.88c-2.29-1.03-4.53-1.76-6.75-2.3c-15.92,13.13-21.88,27.37-7.15,45.09
		c17.72,21.31-1.59,27.77-12.77,39.61c-15.18-15.36,4.93-42.13-23.18-52.81c-1.06-0.25-1.78-0.83-2.3-1.56
		c-2.76,22.23-19.11,33.24-29.36,50.6c-0.3-0.07-0.62-0.23-0.95-0.44c-1.81,2.69-1.86,7.47-1.88,9.9c-0.8,1.44-1.57,2.8-2.35,4.12
		c2.39,3.15,2.49,7.43,2.6,14.71c1.37,2.17,2.8,4.07,4.27,5.87c9.31-0.47,17.82,4.2,24.83,15.95c-0.47,0.48-1,0.87-1.54,1.22
		c9.76,16.59,21.15,22.99,40.52,21.83c0.94,0.98,1.75,1.97,2.49,2.96c22.13-18.37,19.26,0.03,21.47,14.75
		c0.04,1.28,0.05,2.78,0.05,4.28c0.28,0.14,0.56,0.27,0.84,0.39c31.44-13.87,48-40.11,69.18-67.61c0.62,12.21,1.03,20.3,1.45,31.78
		c1.29,2.8,3.1,4.87,5.27,6.43c21.98-2.39,54.16-17.02,46.2,34.02c-0.43-2.15-1.1-3.97-1.94-5.57c0.07,2.08,0.01,4.33-0.22,6.84
		c12.72,11.08,1.42,19.38,2.01,30.61c-1.05,1.7-2.06,3.38-3.06,5.03c2.88,12.72,2.9,26.74,2.87,44.87c-1.3-0.28-2.6-0.69-3.9-1.17
		c0.57,0.9,1.14,1.8,1.74,2.7c1.32,2.53,2.41,4.44,3.61,6.07c6.78-4.1,10.88-6.33,18.15-9.83c0.83-0.27,1.64-0.51,2.46-0.78
		C568.19,244.05,562.28,234.46,569.96,222.35z M360.36,71.73c-0.04-0.06-0.07-0.12-0.1-0.15c-0.03-0.05-0.02-0.03,0,0
		C360.28,71.6,360.31,71.65,360.36,71.73c0.04,0.06,0.06,0.09,0.07,0.12c0.04,0.07,0.06,0.09,0,0
		C360.42,71.81,360.39,71.77,360.36,71.73z M435.17,51.17c-2.5-1.6-3.77-9.63-2.03-12.57c7.35-12.42,17.07-14.57,28.71-0.21
		C456.62,53.38,447.75,59.23,435.17,51.17z"/>
	<path class="st67" d="M423.54,250.25c-0.12-21.34,3.41-39.09,15.95-59.51c1.79-1.71,3.5-3.33,5.18-4.9
		c-4.79-1.44-8.89-3.55-14.28-6.2c-1.5-1.06-2.59-1.95-3.33-2.89c-4.85,4.76-9.84,7.44-17.29,11.12c-0.52-0.62-1.03-1.25-1.54-1.88
		c-14.23,27.85-1.61,52.45-1.17,80.96c-1.2,1.42-2.45,2.63-3.73,3.67c-10.86,14.9-11.54,38.83-33.82,50.86
		c-1.14-0.64-2.08-1.31-2.87-1.99c-6.59,1.84-12.44,2.36-19.5,2.49c-0.33,10.65-2.64,18.04-9.17,27.47
		c-0.03,0.25-0.05,0.48-0.08,0.73c0.11,0.32,0.25,0.63,0.37,0.95C381.66,343.16,423.81,296.86,423.54,250.25z"/>
	<path class="st67" d="M439.49,190.74c-12.53,20.42-16.07,38.16-15.95,59.51c0.26,46.61-41.89,92.91-85.28,100.88
		c0.25,0.65,0.48,1.31,0.78,1.97c31.89,18.9,41.15,18.86,63.52-18.36c28.55-47.5,32.71-96.23,43.69-148.45
		c-0.53-0.14-1.06-0.29-1.58-0.44C442.99,187.42,441.28,189.03,439.49,190.74z"/>
	<path class="st67" d="M338.63,321.01c-1.13,1.44-2.2,3.02-3.23,4.86c0.03,10.12,0.04,17.27,2.48,24.32
		c0.03-0.25,0.05-0.48,0.08-0.73c6.54-9.43,8.84-16.82,9.17-27.47c-2.47,0.05-5.08,0.05-7.94,0.05
		C339,321.69,338.83,321.35,338.63,321.01z"/>
	<path class="st37" d="M517.76,239.89c1.57-0.55,3.03-0.94,4.41-1.22c-1.21-12.31,6.25-17.78,15.99-23.07
		c1.39-13.65,6.33-23.94,4.2-37.99c0.11-7.03-0.96-12.36-2.9-16.48c-12.52-5.35-31.58-2.97-39.37-19.17
		c-0.06-0.02-0.13-0.04-0.19-0.06c-10.44-10.29-2.61-21.24-6.44-28.34c-4.72,30.56-24.64,48.55-57.1,58.7
		c-2.96-0.32-5.5-1.12-7.82-2.17c-0.28,0.12-0.56,0.25-0.84,0.38c0,1.42,0,2.79,0.01,3.95c7.51,0.63,12.91,3.36,18.23,10.26
		c29.82-27.84,40.96-32.23,50.77-10.23c2.06,2.54,3.44,6.38,5.31,9.26c-0.51,0.32-0.94,0.62-1.42,0.93
		c2.03,6.04,4.11,13.21,6.39,21.6C509.67,216.19,513.75,226.65,517.76,239.89z M524.14,204.78
		C524.24,204.95,524.35,205.12,524.14,204.78C524.03,204.61,523.93,204.44,524.14,204.78z"/>
	<path class="st37" d="M517.76,239.89c-4.01-13.24-8.09-23.71-10.79-33.66c-2.28-8.38-4.35-15.55-6.39-21.6
		c-35.74,23.25,11.32,35.41,11.5,56.1c1.65-0.62,3.72-0.65,5.08-0.66C517.37,240.01,517.55,239.97,517.76,239.89z"/>
	<path class="st37" d="M445.91,184.68c0.18,0.23,0.35,0.44,0.53,0.68c-0.07,0.31-0.13,0.62-0.19,0.92c1.52,0.4,3.11,0.74,4.86,1
		c15.14-10.08,25.66-24.02,43.18-14.9c0.91,0.47,1.69,1.19,2.39,2.06C486.87,152.45,475.73,156.85,445.91,184.68z"/>
	<path class="st37" d="M504.41,140.7c-2.17-1.56-3.97-3.63-5.27-6.43c-0.42-11.48-0.83-19.57-1.45-31.78
		c-21.18,27.5-37.74,53.74-69.18,67.61c2.33,1.05,4.87,1.85,7.82,2.17c32.46-10.15,52.38-28.15,57.1-58.7
		c3.83,7.09-4,18.05,6.44,28.34c0.06,0.02,0.13,0.04,0.19,0.06c-0.15-0.32-0.32-0.62-0.47-0.96
		C501.13,141,502.75,140.88,504.41,140.7z"/>
	<path class="st37" d="M427.05,176.75c0.74,0.94,1.83,1.83,3.33,2.89c5.4,2.65,9.49,4.76,14.28,6.2c0.42-0.39,0.83-0.78,1.24-1.16
		c-5.32-6.89-10.72-9.63-18.23-10.26c0,0.64,0.01,1.23,0.02,1.71C427.48,176.35,427.27,176.54,427.05,176.75z"/>
	<path class="st37" d="M445.91,184.68c-0.41,0.38-0.82,0.77-1.24,1.16c0.52,0.16,1.04,0.3,1.58,0.44c0.06-0.31,0.13-0.62,0.19-0.92
		C446.26,185.13,446.09,184.91,445.91,184.68z"/>
	<path class="st68" d="M491.74,293.75c-9.32,18.51-28.84,31.81-29.03,57.97c-0.9,2.33-3.18,5.35-3.18,5.35s3.69,0.39,4.19-1.98
		c6.72-20.32,18.36-34.99,31.44-52.68c2.04-0.77,3.95-1.67,5.82-2.63c-1.27-1.58-1.46-4.3-1.48-5.93c0.54-0.53,0.99-1.07,1.47-1.61
		c-0.4-0.78-0.86-1.63-1.38-2.64C497.37,287.72,494.96,287.34,491.74,293.75z"/>
	<path class="st68" d="M500.98,299.78c-1.87,0.95-3.78,1.85-5.82,2.63c-13.08,17.69-24.73,32.36-31.44,52.68
		c-0.49,2.37-4.19,1.98-4.19,1.98s2.28-3.01,3.18-5.35c0.2-26.16,19.71-39.46,29.03-57.97c3.23-6.41,5.63-6.03,7.85-4.14
		c-0.23-0.46-0.47-0.93-0.72-1.46c-4.06-15.18-16.47-21.48-23.16-16c-16.8,13.78,17.68,15.4,9.39,17.43
		c-42.91,10.51-25.02,48.74-33.69,74.94c3.11-1.49,7.28-1.5,13.66-1.39c0.22,0.39,0.46,0.79,0.71,1.19c1.37-1.08,2.71-2.5,4.1-4.31
		c8.17-22.51,32.7-32.87,32.41-59.21C501.74,300.6,501.33,300.22,500.98,299.78z"/>
	<path class="st53" d="M500.96,292.25c-0.48,0.54-0.94,1.08-1.47,1.61c0.02,1.63,0.22,4.35,1.48,5.93c0.42-0.21,0.84-0.42,1.25-0.64
		c-0.01-0.22-0.01-0.42-0.02-0.64C502.62,295.9,502.04,294.34,500.96,292.25z"/>
	<path class="st38" d="M436.44,480.5c-2.72-0.46-4.65-0.17-5.24,2.84c-0.38,1.96,0.94,3.31,3.08,4.74
		C433.97,485.21,434.68,482.71,436.44,480.5z"/>
	<path class="st38" d="M431.2,483.34c0.59-3.01,2.52-3.3,5.24-2.84c1.8-2.26,4.66-4.21,8.64-5.95c0.47,0.13,0.93,0.25,1.38,0.35
		c0.15-0.62,0.31-1.24,0.43-1.9c-17.32-9.19-37.61-12.92-41.22,4.44c-4.2,20.23,15.4,18.29,30.02,15.64
		c-0.78-1.79-1.24-3.45-1.41-5.01C432.14,486.65,430.82,485.29,431.2,483.34z"/>
	<path class="st38" d="M434.28,488.08c1.29,0.86,2.89,1.75,4.6,2.81c1.79-3.32,3.48-6.12,4.88-8.9c-2.73-0.36-5.25-1.14-7.32-1.49
		C434.68,482.71,433.97,485.21,434.28,488.08z"/>
	<path class="st38" d="M438.88,490.89c-1.71-1.06-3.3-1.95-4.6-2.81c0.17,1.56,0.63,3.23,1.41,5.01c0.76-0.14,1.5-0.28,2.23-0.41
		C438.25,492.05,438.56,491.48,438.88,490.89z"/>
	<path class="st38" d="M436.44,480.5c2.07,0.35,4.58,1.12,7.32,1.49c1.13-2.25,2.06-4.52,2.7-7.08c-0.45-0.11-0.91-0.22-1.38-0.35
		C441.1,476.28,438.24,478.24,436.44,480.5z"/>
	<path class="st53" d="M325.43,493.93c0.99,6.18,1.95,9.32,3.23,12.32c0.11,0.25,3.38-0.19,3.5-0.7
		c3.17-13.52,16.17-18.02,25.8-26.18C338.96,464.27,329.79,471.35,325.43,493.93z"/>
	<path class="st2" d="M314.89,421.41c-4.77,0.41-13.32,7.85-12.76,10.53c2.45,11.61,13.36,11.91,23.02,9.7
		C323.89,431.32,327.25,420.35,314.89,421.41z"/>
	<path class="st43" d="M451.21,365.17c0.07-0.21,0.13-0.43,0.2-0.64c-0.77,0.37-1.49,0.8-2.14,1.37c7.3,10.01,9.26,26.3,20.18,22.19
		c13.18-4.97,1.64-15.27-3.67-23.76C461.81,367.44,457.58,367.57,451.21,365.17z"/>
	<path class="st43" d="M451.4,364.53c-0.07,0.21-0.13,0.43-0.2,0.64c6.38,2.41,10.6,2.27,14.57-0.84c-0.25-0.4-0.49-0.8-0.71-1.19
		C458.68,363.03,454.51,363.04,451.4,364.53z"/>
	<path class="st31" d="M480.83,476.85c8.59,2.33,15.9,5.38,25.66,8.52c0.06,0.01,0.14,0.02,0.2,0.03c0.42-0.48,0.84-0.99,1.27-1.56
		c-0.61-0.59-1.23-1.15-1.86-1.7c-1.58-1.15-3.09-2.39-4.55-3.61c-3.91-2.74-8.06-4.91-12.34-6.85
		C486.57,471.72,483.83,473.16,480.83,476.85z"/>
	<path class="st31" d="M489.22,471.67c4.28,1.94,8.43,4.1,12.34,6.85C497.27,474.94,493.36,471.6,489.22,471.67z"/>
	<path class="st31" d="M504,487.95c-5.54-1.36-10.47-3.09-16.18-4.07C493.32,488.4,498.22,492.23,504,487.95z"/>
	<path class="st31" d="M487.82,483.88c5.7,0.97,10.63,2.7,16.18,4.07c0.88-0.65,1.78-1.49,2.7-2.55c-0.07-0.01-0.14-0.02-0.2-0.03
		c-9.76-3.14-17.07-6.19-25.66-8.52c-0.31,0.38-0.62,0.78-0.93,1.21C482.75,479.68,485.35,481.85,487.82,483.88z"/>
	<path class="st38" d="M377.24,460.36c8.56-1.29,8.72-8.7,9.45-15.44c-0.1-0.11-0.31-0.31-3.23,0.05
		c-6.18,3.58-9.44,6.8-12.71,10.02C372.93,456.88,375.39,460.63,377.24,460.36z"/>
	<path class="st53" d="M245.49,436.16c3.6-1.35,7.53-1.41,13.36-1.35c-1.19-6.91-0.82-11.51,1.6-18.63
		c0.26-0.83,0.54-1.63,0.82-2.43c-1.47,0.54-3.69,0.62-5.12,0.72c-1.07-0.88-2.03-1.77-2.94-2.68c-0.13,0.04-0.26,0.06-0.39,0.11
		c-1.95,7.69-4.66,12.59-8.42,20.08C244.67,433.67,245.11,434.96,245.49,436.16z"/>
	<path class="st53" d="M261.26,413.74c-0.28,0.8-0.56,1.6-0.82,2.43c-2.43,7.12-2.79,11.72-1.6,18.63c0.45,0,0.87,0.01,1.33,0.01
		c0.19,0.73,0.32,1.46,0.44,2.18c1.09-0.62,2.08-1.39,3.04-2.3c0.11-0.11,0.34-0.34,0.29-3.71c-0.1-7.86-0.15-12.36-0.18-16.87
		c0.01-0.01,0.01,0-0.8-0.57c-0.31-0.06-0.64-0.11-0.95-0.17C261.79,413.52,261.55,413.64,261.26,413.74z"/>
	<path class="st53" d="M262.01,413.38c0.31,0.06,0.63,0.11,0.95,0.17c-0.17-0.12-0.37-0.26-0.61-0.43
		C262.25,413.21,262.14,413.3,262.01,413.38z"/>
	<path class="st38" d="M466.08,477.7c0.06-0.71,0-1.48-0.17-2.26c-5.32,0.07-7.45,0.18-8.21,2.12c0.01,0.01,0.01,0.01,0.02,0.01
		C460.24,478.72,462.71,478.92,466.08,477.7z"/>
	<path class="st38" d="M466.08,477.7c-3.37,1.22-5.83,1.03-8.36-0.13C463.29,482.52,465.81,480.73,466.08,477.7z"/>
	<path class="st2" d="M328.87,449.14c-1.23-1.45-2.46-2.89-3.69-4.34c0,0-0.01,0.01,0.53,1.42
		C327.13,448.13,328,448.63,328.87,449.14z"/>
	<path class="st18" d="M214.34,472.67c1.44-4.98,2.31-7.28,5.99-13.13c-0.71-1.48,0.19-2.34,1.96-2.92
		c5.53-6.65,7.37-8.21,14.7-12.38c2.57-0.93,4.79-1.3,6.82-1.44c-0.49-1.54-0.52-3.16-0.51-5.65c0.65-0.36,1.31-0.65,1.97-0.91
		c-6.03-7.35-3.64-13.58,2.67-21.79c1.91-1.2,3.43-2.05,4.88-2.56c0.01-0.03,0.02-0.06,0.03-0.09c-0.09-0.19-0.16-0.37-0.25-0.56
		c-5.82-1.6-10.32-3.37-16.21-5.16c-11.27-3.4-20.39-6.87-23.98-15.05c0.11,27.17-38.74,22.82-47.54,45.89
		c-2.48,1.4-4.85,2.62-7.13,3.69c-0.22,0.46-0.42,0.92-0.62,1.37c-1.35,22.41,33.08,40.56,15.82,68.91
		c0.18,0.37,0.37,0.74,0.54,1.11c12.97-8.57,25.22-11.98,41.03-11.16c2.35,0.92,4.04,1.82,5.32,2.76c0.18-0.09,0.36-0.18,0.55-0.26
		c-0.16-0.04-0.3-0.09-0.46-0.13C212.99,493.34,212.85,484.81,214.34,472.67z"/>
	<path class="st18" d="M209.82,377.45c0.37,1.11,0.68,2.16,0.97,3.2c0.06-1.05,0.16-2.15,0.33-3.31
		C210.92,375.71,209.57,375.45,209.82,377.45z"/>
	<path class="st18" d="M220.33,459.54c-3.68,5.85-4.55,8.15-5.99,13.13c-1.49,12.14-1.35,20.67,5.56,30.52
		c0.16,0.05,0.3,0.09,0.46,0.13c0.83-0.4,1.66-0.77,2.48-1.2c0.06-15.04,0.03-25.87,0.49-39.28
		C221.68,461.47,220.74,460.4,220.33,459.54z"/>
	<path class="st18" d="M236.99,444.24c-7.34,4.17-9.17,5.73-14.7,12.38c2.04-0.67,5.23-0.99,8.46-1.5c0.19,0.48,0.29,0.95,0.34,1.41
		c0.69-0.49,1.35-0.97,2-1.48c-0.02-0.01-0.01,0.03,1.65-1.72c0.09-0.09,0.16-0.16,0.24-0.24c-0.49-2.13,1.52-4.54,6.03-7.2
		c0.17,0.29,0.28,0.58,0.35,0.88c0.67-0.66,1.31-1.3,1.94-1.93c0-0.02,0.04-0.02,0.94-0.88c-0.19-0.38-0.33-0.76-0.46-1.14
		C241.78,442.94,239.56,443.31,236.99,444.24z"/>
	<path class="st18" d="M243.69,396.81c0.31,0.1,0.63,0.25,0.95,0.37c-1.22-1.24-2.63-2.4-4.37-3.49
		c-30.6,7.25-11.81-36.7-37.86-26.78c-3.74,45.56-3.74,45.56-38.68,22.05c-0.84,16.28-1.6,30.99-4.39,48.52
		c-0.58,1.05-1.12,2.08-1.62,3.11c2.28-1.08,4.65-2.29,7.13-3.69c8.81-23.06,47.66-18.72,47.54-45.89
		c-1.24-2.83-1.83-6.21-1.61-10.36c-0.29-1.04-0.59-2.09-0.97-3.2c-0.25-2,1.1-1.74,1.29-0.1c-0.16,1.15-0.27,2.25-0.33,3.31
		c1.08,3.9,1.59,7.33,1.61,10.36c3.59,8.19,12.72,11.65,23.98,15.05c5.9,1.8,10.39,3.56,16.21,5.16c-0.02-0.04-0.04-0.08-0.05-0.12
		C248.88,407.28,246.34,402.96,243.69,396.81z"/>
	<path class="st18" d="M212.39,391.02c-0.01-3.03-0.53-6.47-1.61-10.36C210.56,384.81,211.15,388.19,212.39,391.02z"/>
	<path class="st18" d="M244.39,431.97c3.76-7.49,6.47-12.4,8.42-20.08c-1.45,0.51-2.97,1.36-4.88,2.56
		c-6.31,8.21-8.7,14.44-2.67,21.79c0.07-0.03,0.15-0.05,0.23-0.08C245.11,434.96,244.67,433.67,244.39,431.97z"/>
	<path class="st11" d="M172.91,510.88c-10.68-21.59-28.19-41.54-15.82-68.91c0.02-0.37,0.04-0.74,0.08-1.12
		c-12.97,6.03-22.6,6.82-29.05,2.56c-4.74,27.71-16.48,52.98-24.03,80.08c2.86-6.05,8.27-9.47,15.5-9.34
		c16.01,0.29,9.92,13.38,10.92,25.04c0.18,0.06,0.35,0.12,0.54,0.18c6.84,3.72,9.68,7.02,10.92,14.32c-0.05,0.7-0.1,1.36-0.14,2.03
		c0.05,0.06,0.1,0.12,0.15,0.17c5.39-3.37,11.94-3.68,19.24-5.1c-6.78-4.11-11.58-9.37-12.22-17.9c-0.11-1.51,8.77-3.69,17.05-5.64
		c-0.04-0.45-0.08-0.89-0.11-1.35c0.85-5.29,1.6-7.36,4.6-11.92c0.4-0.29,0.8-0.55,1.2-0.83c0-0.14,0-0.26,0.01-0.41
		C172.18,512.11,172.54,511.5,172.91,510.88z"/>
	<path class="st11" d="M104.09,523.49c7.55-27.11,19.29-52.37,24.03-80.08c-7.23-4.78-10.45-15.9-9.92-33.04
		c-0.2-1.32-0.37-2.67-0.52-4.04c-6.58,34.93,7.68,72.83-30.47,95.1c6.82,10.66-14.41,31.39,14.61,34.1
		C101.75,530.82,102.54,526.77,104.09,523.49z"/>
	<path class="st11" d="M129.45,433.85c-0.34,3.22-0.78,6.41-1.32,9.56c6.45,4.26,16.08,3.47,29.05-2.56
		c0.19-1.66,0.57-3.34,1.19-5.06C144.55,439.23,135.48,438.06,129.45,433.85z"/>
	<path class="st11" d="M128.12,443.41c0.54-3.15,0.98-6.34,1.32-9.56c-6.78-4.73-9.73-13.3-11.24-23.48
		C117.67,427.51,120.9,438.63,128.12,443.41z"/>
	<path class="st11" d="M172.91,510.88c17.26-28.34-17.17-46.49-15.82-68.91C144.72,469.34,162.24,489.29,172.91,510.88z"/>
	<path class="st50" d="M247.12,438.29c-0.53-0.52-1.01-1.04-1.45-1.55c0.49,1.64,0.8,3.2,0.33,5.53c-0.18,0.17-0.31,0.3-0.47,0.45
		c5.52-0.08,9.57,1.02,15.09-4.26c-0.33-0.33-0.64-0.67-0.98-0.99C256.6,438.89,252.79,439.25,247.12,438.29z"/>
	<path class="st50" d="M260.61,438.47c0.06-0.06,0.12-0.11,0.19-0.17c-0.05-0.43-0.11-0.86-0.18-1.3c-0.31,0.18-0.65,0.32-0.98,0.48
		C259.97,437.8,260.28,438.14,260.61,438.47z"/>
	<path class="st50" d="M245.53,442.72c-0.54,0.53-0.96,0.93-1.27,1.22c0.36,0.73,0.83,1.49,1.5,2.35c6.02,4.43,9.65,7.4,13.28,10.37
		c1.23-5.99,2.44-11.98,1.8-17.97c-0.08-0.08-0.15-0.15-0.23-0.23C255.1,443.75,251.04,442.64,245.53,442.72z"/>
	<path class="st50" d="M260.61,438.47c0.08,0.08,0.15,0.15,0.23,0.23c-0.01-0.13-0.02-0.27-0.04-0.4
		C260.74,438.36,260.68,438.41,260.61,438.47z"/>
	<path class="st50" d="M245.49,436.16c0.06,0.2,0.12,0.39,0.18,0.58c0.44,0.51,0.92,1.03,1.45,1.55c5.67,0.96,9.48,0.6,12.52-0.82
		c-0.13-0.12-0.24-0.25-0.37-0.38c-0.16-0.8-0.29-1.55-0.42-2.29C253.02,434.75,249.09,434.81,245.49,436.16z"/>
	<path class="st50" d="M258.84,434.8c0.13,0.74,0.26,1.49,0.42,2.29c0.13,0.12,0.24,0.25,0.37,0.38c0.33-0.15,0.67-0.3,0.98-0.48
		c-0.12-0.73-0.25-1.46-0.44-2.18C259.71,434.81,259.29,434.81,258.84,434.8z"/>
	<path class="st50" d="M245.67,436.74c-0.15-0.17-0.27-0.34-0.4-0.51c-0.66,0.26-1.32,0.55-1.97,0.91c0,2.49,0.02,4.11,0.51,5.65
		c0.59-0.04,1.16-0.07,1.72-0.07c0.15-0.15,0.29-0.28,0.47-0.45C246.47,439.95,246.16,438.38,245.67,436.74z"/>
	<path class="st50" d="M243.81,442.8c0.12,0.38,0.27,0.76,0.46,1.14c0.31-0.29,0.72-0.69,1.27-1.22
		C244.97,442.73,244.4,442.76,243.81,442.8z"/>
	<path class="st50" d="M245.49,436.16c-0.08,0.03-0.15,0.05-0.23,0.08c0.14,0.17,0.26,0.34,0.4,0.51
		C245.61,436.55,245.55,436.36,245.49,436.16z"/>
	<path class="st50" d="M223.33,462.84c0.51,0.43,1.1,0.88,1.75,1.36c4.29-2.7,6.31-5.04,6.02-7.68c-2.28,1.62-4.79,3.31-7.77,6.21
		C223.33,462.77,223.33,462.8,223.33,462.84z"/>
	<path class="st50" d="M220.33,459.54c0.48-0.76,0.99-1.56,1.57-2.45c0.14-0.17,0.26-0.3,0.39-0.47
		C220.52,457.2,219.62,458.06,220.33,459.54z"/>
	<path class="st50" d="M222.29,456.62c-0.14,0.17-0.25,0.3-0.39,0.47c-0.58,0.89-1.09,1.69-1.57,2.45c0.41,0.87,1.35,1.94,3,3.3
		c0-0.04,0-0.07,0-0.11c2.98-2.9,5.49-4.58,7.77-6.21c-0.05-0.46-0.15-0.93-0.34-1.41C227.52,455.63,224.33,455.95,222.29,456.62z"
		/>
	<path class="st50" d="M235.37,454.01c4.5-2.71,6.51-5.13,6.01-7.26c-1.7,1.68-3.64,3.59-6.38,6.32
		C235.06,453.4,235.19,453.71,235.37,454.01z"/>
	<path class="st50" d="M234.99,453.08c2.74-2.73,4.69-4.64,6.38-6.32c-0.07-0.3-0.19-0.59-0.35-0.88
		C236.51,448.54,234.51,450.95,234.99,453.08z"/>
	<path class="st35" d="M64.68,304.91c-7.3-5.79-14.95-11.23-15.92-21.8c-1.37-0.3-2.76-0.62-4.19-1.01
		C24.5,274.37,18,261.77,19.92,240.91c0.12-0.36,0.23-0.66,0.34-0.99c-16.65,14.2-44.42,13.54-58.29,35.54
		c0.87,1.59,1.7,3.25,2.48,5.08c-17.12,29.07,11.14,37.71,19.13,57.03c-0.75,3.75-1.91,6.41-3.12,8.6c0.07,0.85,0.08,1.72,0.02,2.62
		c32.01-4.98,45.1-37.97,77.21-43.19C60.62,305.18,62.64,304.96,64.68,304.91z M-27.36,296c-0.02-0.04-0.05-0.08-0.07-0.11
		c-0.05-0.08-0.04-0.06,0,0C-27.41,295.91-27.4,295.94-27.36,296c0.02,0.04,0.05,0.08,0.07,0.11c0.05,0.08,0.04,0.06,0,0
		C-27.31,296.08-27.33,296.05-27.36,296z"/>
	<path class="st35" d="M57.7,305.61c-32.12,5.21-45.21,38.21-77.21,43.19c-0.06,0.9-0.17,1.82-0.38,2.77
		c40.63,7.04,55.21-37.01,89.13-42.82c-1.46-1.33-2.99-2.6-4.55-3.84C62.64,304.96,60.62,305.18,57.7,305.61z"/>
	<path class="st35" d="M49.19,275.2c-1.2-1.57-2.37-3.2-3.47-4.92c-21.09-7.92-16.3-23.12-19.58-36.76
		c-1.74,2.44-3.71,4.56-5.88,6.41c-0.11,0.33-0.22,0.63-0.34,0.99C18,261.77,24.5,274.37,44.58,282.1c1.43,0.39,2.82,0.72,4.19,1.01
		C48.55,280.75,48.65,278.14,49.19,275.2z"/>
	<path class="st35" d="M89.93,277.01c3.83,7.09-10.06,19.64-5.03,27.87c1.01,1.07,2.1,2.12,3.3,3.14c1.4-1.23,2.93-2.33,5.15-3.86
		c20.74-8.44,32.96-26.24,56.36-29.5C130.67,253.61,111.13,268.96,89.93,277.01z"/>
	<path class="st35" d="M93.35,304.16c-2.22,1.52-3.75,2.63-5.15,3.86c0.02,0.01,0.03,0.03,0.05,0.04c0.42,0.26,0.86,0.52,1.35,0.76
		c0,0.13,0.01,0.22,0.02,0.34c1.14,0.91,2.33,1.81,3.62,2.7c29.59,3.74,36.41-26.69,58-34.33c-0.24-0.68-0.47-1.32-0.71-1.97
		c-0.27-0.31-0.54-0.6-0.81-0.9C126.31,277.92,114.08,295.73,93.35,304.16z"/>
	<path class="st35" d="M83.94,273.09c3.25,0.93,5.1,2.28,5.99,3.92c21.2-8.05,40.75-23.4,59.78-2.34c0.15-0.02,0.3-0.05,0.46-0.07
		C129.92,220.61,105.77,265.66,83.94,273.09z"/>
	<path class="st35" d="M149.7,274.67c0.27,0.3,0.54,0.58,0.81,0.9c-0.12-0.32-0.24-0.66-0.35-0.97
		C150.01,274.62,149.86,274.65,149.7,274.67z"/>
	<path class="st22" d="M-0.86,240.7c19.38,5.56,13.74-11.51,25.67-11.39c0.16,0.4,0.31,0.8,0.45,1.21c0.55-0.67,1.14-1.36,1.85-2.14
		c0.66-0.35,1.32-0.65,1.98-0.92c-0.6-1.37-0.61-3.02-0.61-5.55c0.42-1.77,0.83-3.45,1.26-5.1c-0.12-0.26-0.24-0.53-0.37-0.8
		c-29.68-16.62-48.21,24.46-77.75,14.29c-1.66,1.7-3.33,3.24-5.02,4.65c0.04,0.75,0.04,1.6,0.03,2.59
		c-2.63,5.86-5.2,10.11-7.87,15.51c1.18,0.68,2.38,1.39,3.67,2.17c7.58,5.35,13.21,10.13,17.69,17.07
		C-32.9,251.02-18.64,235.6-0.86,240.7z M-52.89,241.61c-0.59-1.46-0.57-1.48-0.55-1.5c1.32,1.47,2.63,2.95,3.94,4.44
		C-50.44,244.06-51.37,243.57-52.89,241.61z"/>
	<path class="st22" d="M27.11,228.38c-0.7,0.77-1.3,1.47-1.85,2.14c0.34,0.99,0.63,1.98,0.88,2.99c0.81-1.13,1.58-2.32,2.27-3.6
		c0-0.01,0.03-0.05,1.09-1.69c-0.16-0.24-0.3-0.49-0.41-0.75C28.43,227.73,27.77,228.03,27.11,228.38z"/>
	<path class="st22" d="M24.81,229.31c-11.94-0.13-6.29,16.94-25.67,11.39c-17.78-5.1-32.04,10.32-39.03,31.6
		c0.64,1,1.26,2.07,1.86,3.17c13.87-22,41.64-21.34,58.29-35.54c1.44-4.17,2.57-6.45,5-9.4C25.12,230.12,24.98,229.71,24.81,229.31z
		"/>
	<path class="st22" d="M26.14,233.51c-0.24-1.01-0.53-2-0.88-2.99c-2.43,2.96-3.56,5.23-5,9.4
		C22.43,238.07,24.4,235.95,26.14,233.51z"/>
	<path class="st38" d="M-38.83,513.24c7.39,1.84,9.19,2.58,13.71,4.67c25.91,12.77,42.6-12.04,66.18-12.16
		c-0.06-0.57-0.14-1.15-0.25-1.74c-1.67,0.11-3.36,0.38-5.1,0.91c-10.89-3.22-19.33-21.63-25.98-7.13
		c-17.46,38.1-28.59,7.78-43.79,0.01c-0.31,0.28-0.59,0.54-0.88,0.8c-0.67,1.65-2.63,3.84-5.88,6.61c-0.08-0.4-0.02-0.85,0.16-1.36
		c-0.9,0.83-1.72,1.61-2.53,2.39c-0.02-0.03,0.04,0.06,0.09,2.32c1.56,1.49,2.84,3.02,3.88,4.59
		C-39.09,513.18-38.98,513.21-38.83,513.24z"/>
	<path class="st24" d="M84.89,304.88c-6.12-6.46-8.69-13.82-6.91-23.22c-7.07,2.32-13.8,3.26-21.1,2.67
		c5.4,6.2,10.48,12.34,13.06,20.8c0.37,0.03,0.72,0.06,1.12,0.1c6.55,2.25,9.41,4.9,11.86,6.74c0.5-0.07,1.04-0.12,1.58-0.15
		c1.37-1.57,2.5-2.74,3.69-3.79C86.65,307.08,85.59,306.02,84.89,304.88z"/>
	<path class="st24" d="M82.91,311.98c-2.44-1.84-5.3-4.48-11.86-6.74c-0.4-0.04-0.75-0.07-1.12-0.1c0.33,1.08,0.63,2.19,0.87,3.35
		c-0.53,0.07-1.04,0.18-1.56,0.27c1.06,0.97,2.1,1.97,3.04,3.04c2.02-0.01,5.69,0.03,8.37,0.98
		C80.97,312.36,81.84,312.12,82.91,311.98z"/>
	<path class="st24" d="M89.84,311.71c0,0-0.01,0-0.01,0.01C89.83,311.72,89.83,311.72,89.84,311.71z"/>
	<path class="st24" d="M88.18,308.03c-1.2,1.05-2.32,2.22-3.69,3.79c1.01-0.06,2.04-0.08,2.82-0.1c0.1,0.45,0.16,0.89,0.18,1.33
		c0.91-0.37,1.63-0.85,2.34-1.33c-0.03-0.02-0.12-0.36-0.22-2.55c-0.46-0.37-0.93-0.73-1.37-1.11
		C88.22,308.05,88.2,308.04,88.18,308.03z"/>
	<path class="st24" d="M77.98,281.66c0.46-2.42,1.17-4.97,2.22-7.68c1.24-0.15,2.49-0.46,3.74-0.89c-1.86-0.53-4.15-0.94-7.02-1.18
		c-11.39,7.47-19.4,2.63-27.63,2.61c-0.05,0.24-0.06,0.44-0.1,0.68c2.48,3.23,5.12,6.19,7.69,9.13
		C64.18,284.92,70.91,283.98,77.98,281.66z"/>
	<path class="st24" d="M48.77,283.11c0.97,10.57,8.62,16.01,15.92,21.8c1.57-0.03,3.2,0.04,5.25,0.22
		c-2.58-8.46-7.65-14.61-13.06-20.8C54.26,284.12,51.57,283.72,48.77,283.11z"/>
	<path class="st24" d="M69.93,305.14c-2.05-0.18-3.67-0.26-5.25-0.22c1.56,1.24,3.1,2.51,4.55,3.84c0.52-0.09,1.03-0.2,1.56-0.27
		C70.56,307.32,70.26,306.22,69.93,305.14z"/>
	<path class="st24" d="M49.19,275.2c-0.53,2.94-0.64,5.55-0.42,7.91c2.8,0.61,5.5,1.01,8.11,1.22
		C54.3,281.39,51.66,278.43,49.19,275.2z"/>
	<path class="st24" d="M77.98,281.66c-1.77,9.4,0.8,16.76,6.91,23.22c-5.03-8.23,8.86-20.78,5.03-27.87
		c-0.93,0.35-1.85,0.69-2.79,1.01C83.98,279.48,80.95,280.69,77.98,281.66z"/>
	<path class="st24" d="M88.24,308.07c0.44,0.37,0.91,0.74,1.37,1.11c0-0.12-0.01-0.21-0.02-0.34
		C89.1,308.59,88.66,308.33,88.24,308.07z"/>
	<path class="st24" d="M77.98,281.66c2.97-0.98,6-2.18,9.16-3.64c0.93-0.32,1.86-0.66,2.79-1.01c-0.89-1.64-2.73-2.99-5.99-3.92
		c-1.26,0.43-2.5,0.74-3.74,0.89C79.15,276.69,78.43,279.24,77.98,281.66z"/>
	<path class="st11" d="M56.88,505.61c-0.02-0.31-0.04-0.59-0.07-0.91c-1.04-5.98-2.18-10.85-4.19-10.96
		c-5.29-0.31-6.77,4.49-10.27,10.22C47.28,503.91,51.98,505.14,56.88,505.61z"/>
	<path class="st11" d="M52.62,493.73c2.01,0.12,3.14,4.99,4.19,10.96c0.03,0.32,0.05,0.61,0.07,0.91c3.02,0.29,6.12,0.28,9.4-0.52
		c1.01-0.75,2.01-1.54,3.01-2.35c-1.14-18.93-3.55-37.2-23.17-33.2c-21.61,4.41-7.71,21.29-5.32,34.48
		c0.52-0.04,1.03-0.06,1.55-0.06C45.86,498.23,47.33,493.43,52.62,493.73z"/>
	<path class="st73" d="M171.71,336.3c-0.43,0.28-0.88,0.57-1.3,0.85c0.52-0.08,0.95-0.18,1.31-0.32
		C171.71,336.66,171.71,336.48,171.71,336.3z"/>
	<path class="st73" d="M140.67,365.55c3.83-5.59,6.16-8.64,10.12-13.96c3.72-5.25,6.16-7.91,11.19-11.45
		c4.2-2.44,6.75-2.73,8.42-2.99c0.43-0.29,0.87-0.57,1.3-0.85c0-0.54,0.01-1.06,0.01-1.49c0.24-0.11,0.48-0.17,0.72-0.2
		c0.05-0.24,0.1-0.47,0.14-0.7c-0.26-0.6-0.55-1.13-0.86-1.66c-0.04-0.01-0.05-0.1-3.72-0.03c-35.79,1.8-33.55,33.01-43.87,50.48
		C129.67,377.04,135.62,373.33,140.67,365.55z"/>
	<path class="st73" d="M152.94,361.28c0.07-0.08,0.12-0.14,0.19-0.22c-0.58-2.13,1.4-4.62,5.99-7.47c0.09,0.15,0.13,0.31,0.19,0.47
		c1-1.15,2.03-2.36,3.23-3.79c2.95-4.52,5.45-6.48,9.58-9.57c-0.3-0.95-0.38-2.46-0.4-3.86c-0.36,0.14-0.79,0.23-1.31,0.32
		c-15.96,10.7-27.04,23.26-33.61,42.02C143.95,375.48,148.64,369.47,152.94,361.28z"/>
	<path class="st73" d="M136.79,379.18c6.57-18.76,17.65-31.32,33.61-42.02c-1.66,0.26-4.22,0.55-8.42,2.99
		c-5.04,3.54-7.48,6.2-11.19,11.45c-3.96,5.32-6.29,8.37-10.12,13.96c-5.05,7.78-11.01,11.48-16.54,17.15
		c-0.05,0.09-0.1,0.18-0.16,0.27C129.05,382.31,133.22,381.03,136.79,379.18z"/>
	<path class="st73" d="M172.85,334.61c-0.08-0.25-0.17-0.48-0.27-0.7c-0.05,0.23-0.1,0.47-0.14,0.7
		C172.58,334.59,172.71,334.6,172.85,334.61z"/>
	<path class="st7" d="M45.49,363.41c-17.07,7.13-27.59,16.89-31.73,31.78c-0.36,1.29,7.59,7.4,10.6,6.69
		c17.43-4.11,20.26-19.61,24.18-33.93C48.97,366.38,48.83,364.65,45.49,363.41z"/>
	<path class="st7" d="M50.36,362.44c0.42-0.23-0.56,0.09-1.51,0.46C48.88,362.93,48.96,362.99,50.36,362.44z"/>
	<path class="st35" d="M172.71,283.37c2.45,3.91,4.61,5.99,6.49,6.24c-1.39-2.19-3.02-3.93-5.15-6.08
		C173.55,283.35,173.1,283.29,172.71,283.37z"/>
	<path class="st35" d="M180.88,289.33c-2.9-3.3-5.18-5.22-6.82-5.8c2.12,2.15,3.76,3.89,5.15,6.08
		C179.79,289.69,180.35,289.61,180.88,289.33z"/>
	<path class="st35" d="M82.25,313.52c-0.46-0.31-1.02-0.54-1.61-0.75c-0.16,0.21-0.2,0.45-0.03,0.75c5.07,4.76,7,2.52,6.88-0.47
		C86.26,313.54,84.68,313.81,82.25,313.52z"/>
	<path class="st35" d="M83.79,312.62c0.24-0.29,0.46-0.53,0.69-0.8c-0.54,0.03-1.08,0.08-1.58,0.15
		C83.21,312.2,83.5,312.42,83.79,312.62z"/>
	<path class="st35" d="M87.31,311.73c-0.78,0.02-1.81,0.04-2.82,0.1c-0.23,0.26-0.45,0.51-0.69,0.8c-0.29-0.2-0.59-0.42-0.89-0.64
		c-1.06,0.15-1.94,0.39-2.27,0.79c0.59,0.21,1.15,0.44,1.61,0.75c2.43,0.29,4.01,0.02,5.23-0.47
		C87.47,312.62,87.41,312.17,87.31,311.73z"/>
	<path class="st34" d="M37.36,191.98c0.15-0.03,0.3-0.06,0.46-0.1c-1.02-1-2.01-2.05-2.97-3.17c-3.57-8.21-4.16-14.45-1.49-21.55
		c-36.43,26.03-41.97,21.49-58.69-26.47c-12.03-34.53-14.46-35.21-37.47-6.92c0.18,1.97,0.38,3.94,0.59,5.9
		c41.57-1.44,46.36,17.08,23.53,75.33c-2.64,5.24-3.88,7.46-6.82,11.99c22.44-11.19,39.97-43.67,73.73-13.16
		c0.43,0.8,0.79,1.51,1.13,2.19c0.17,0.09,0.34,0.2,0.5,0.29C31.97,208.14,34.24,201.05,37.36,191.98z"/>
	<path class="st34" d="M-62.79,133.76c23.01-28.29,25.44-27.61,37.47,6.92c16.71,47.97,22.26,52.51,58.69,26.47
		c0.74-1.95,1.68-3.96,2.93-6.11c-0.3-0.83-0.63-1.66-1.02-2.47c-31.74,23.04-47.92,19.32-47.83-19.89
		c0.06-26.81-13.44-48.85-38.97-48.5c-27.89,0.38-21.24,28.29-18.6,47.89c1.89,0.54,3.7,1.1,5.46,1.68c0.84-0.04,1.66-0.08,2.47-0.1
		C-62.41,137.7-62.61,135.74-62.79,133.76z"/>
	<path class="st34" d="M34.85,188.71c0.96,1.12,1.95,2.17,2.97,3.17c0.97-0.21,1.94-0.41,2.92-0.59c-0.45-1.94-1.12-3.97-2.11-6.16
		c0.02-8.61,0.04-15.1-1.35-20.8c-1.34,0.98-2.65,1.92-3.92,2.83C30.69,174.26,31.29,180.5,34.85,188.71z"/>
	<path class="st34" d="M37.28,164.33c-0.27-1.12-0.6-2.21-0.99-3.28c-1.25,2.15-2.19,4.16-2.93,6.11
		C34.63,166.25,35.94,165.31,37.28,164.33z"/>
	<path class="st34" d="M-45.5,226.98c-0.17,0.26-0.32,0.49-0.5,0.76c-0.8,0.89-1.6,1.74-2.39,2.55
		c29.54,10.18,48.07-30.91,77.75-14.29c-0.33-0.68-0.69-1.4-1.13-2.19C-5.52,183.31-23.06,215.79-45.5,226.98z"/>
	<path class="st12" d="M76.78,86.73c17.61-21.07,42.02-11.22,51.95-2.08c21.39,19.7-21,19.51-17.95,40.44
		c-0.02,0.11-0.04,0.2-0.06,0.31c16.56-4.34,31.62,0.18,49.18-3.49c0.76,0,1.47,0,2.21,0c-0.66-3.28-0.68-6.73-0.67-11.35
		c1.36-1.13,2.49-2.33,3.51-3.57c-1.31-31.89-26.15-39.47-51.11-50.47c-0.61-0.37-1.09-0.73-1.51-1.09
		c-12.64,11.74-25.59,11.89-38.14,7.29C43.09,51.35,56.01,73.27,56.1,89.15c-0.36,2.28-0.78,4.5-1.23,6.69
		C64.07,93.14,72.59,91.74,76.78,86.73z"/>
	<path class="st12" d="M56.1,89.15c-0.09-15.89-13.01-37.8,18.07-26.43c12.55,4.59,25.51,4.45,38.14-7.29
		c-0.31-0.27-0.59-0.54-0.82-0.81c-1.72,0.42-3.48,0.87-5.3,1.43C78.33,62.3,58.96,30.37,43.65,38.96
		c-28.32,15.87,8.81,35.79,8.16,57.84c1.02-0.34,2.04-0.65,3.06-0.95C55.32,93.66,55.74,91.44,56.1,89.15z"/>
	<path class="st12" d="M159.89,121.91c-17.55,3.66-32.61-0.86-49.18,3.49c-0.07,0.37-0.14,0.71-0.21,1.07
		c0.92,1.05,2,2.11,3.33,3.17c18.3,8.32,33.3,13.85,49.34-4.08c-0.47-1.22-0.82-2.44-1.07-3.66
		C161.35,121.91,160.65,121.91,159.89,121.91z"/>
	<path class="st47" d="M106.11,126.81c1.24-0.45,2.47-0.83,3.69-1.18c-9.2-11.79,4.57-22.79,0.75-33.95
		c-20.28-9.33-34.66,15.78-56.58,8.24c-3.62,15.54-8.82,29.37-9.31,46.16C63.35,136.12,90.15,154.23,106.11,126.81z"/>
	<path class="st47" d="M53.97,99.92c-0.78-0.27-1.56-0.57-2.35-0.92c0.11-0.74,0.17-1.47,0.19-2.21c-1.87,0.61-3.76,1.29-5.63,2.1
		c-4.7,17.62-24.61,31.4-4.3,48.93c0.9-0.66,1.83-1.24,2.78-1.74C45.15,129.29,50.35,115.46,53.97,99.92z"/>
	<path class="st47" d="M106.11,126.81c-15.95,27.42-42.76,9.32-61.45,19.27c-0.03,0.9-0.06,1.79-0.06,2.7c0,0,0,0.01,0,0.01
		c28.52,8.61,56.65,26.13,65.9-22.32c-0.24-0.28-0.48-0.56-0.7-0.84C108.57,125.97,107.35,126.36,106.11,126.81z"/>
	<path class="st47" d="M44.6,148.79c0,0,0-0.01,0-0.01c0-0.91,0.03-1.81,0.06-2.7c-0.95,0.5-1.88,1.09-2.78,1.74
		c0.1,0.09,0.18,0.17,0.29,0.26C42.98,148.31,43.79,148.55,44.6,148.79z"/>
	<path class="st47" d="M110.55,91.68c3.81,11.16-9.96,22.16-0.75,33.95c0.31-0.09,0.61-0.15,0.92-0.23c0.02-0.11,0.04-0.2,0.06-0.31
		c-3.05-20.93,39.35-20.74,17.95-40.44c-9.93-9.14-34.34-18.99-51.95,2.08c-4.19,5.01-12.7,6.41-21.91,9.11
		c-0.28,1.37-0.58,2.73-0.9,4.08C75.89,107.46,90.27,82.35,110.55,91.68z"/>
	<path class="st47" d="M51.62,99c0.79,0.35,1.58,0.65,2.35,0.92c0.31-1.34,0.61-2.7,0.9-4.08c-1.01,0.3-2.03,0.61-3.06,0.95
		C51.79,97.53,51.73,98.26,51.62,99z"/>
	<path class="st47" d="M109.79,125.63c0.22,0.28,0.46,0.56,0.7,0.84c0.07-0.36,0.15-0.7,0.21-1.07
		C110.4,125.48,110.1,125.54,109.79,125.63z"/>
	<path class="st29" d="M170.76,95.74c2.7-8.59,3.38-17.96,9.27-26.09c0.88,2.42,1.87,4.62,2.95,6.64c0.13-2.38,0.33-4.83,0.65-7.42
		c-2.44-2.33-7.19-2.52-9.57-2.62c-1.37-1.3-2.6-2.61-3.69-3.95c-13.94,2.62-19.38-5.83-19.07-22.63
		c-12.32,2.42-23.56,2.68-36.36,5.24c0.05,3.01-0.32,5.38-1.38,9.21C147.49,46.83,161.02,66.77,170.76,95.74z"/>
	<path class="st29" d="M114.94,44.92c-0.58,0.12-1.14,0.2-1.72,0.33c-0.38-0.51-0.77-0.99-1.15-1.49c-0.7,1.35-1.39,2.75-2.06,4.24
		c0.08,3.2,0.14,5.03,1.47,6.62c0.69-0.17,1.39-0.35,2.07-0.49C114.62,50.29,114.99,47.93,114.94,44.92z"/>
	<path class="st29" d="M151.3,38.99c0.49-0.73,0.99-1.39,1.49-2.04c-1.39-0.99-2.87-1.93-4.49-2.79
		c-16.68-10.34-26.57-6.19-33.97,5.62c0.1,0.17,0.21,0.33,0.32,0.5c0.18,1.81,0.28,3.28,0.3,4.63c12.8-2.56,24.04-2.82,36.36-5.24
		C151.3,39.45,151.3,39.23,151.3,38.99z"/>
	<path class="st29" d="M114.94,44.92c-0.02-1.35-0.12-2.82-0.3-4.63c-0.1-0.17-0.21-0.33-0.32-0.5c-0.78,1.24-1.53,2.56-2.25,3.97
		c0.38,0.5,0.77,0.98,1.15,1.49C113.8,45.12,114.36,45.03,114.94,44.92z"/>
	<path class="st29" d="M164.93,106.99c2.85-3.45,4.57-7.26,5.82-11.25c-9.74-28.97-23.26-48.91-57.2-41.62
		c-0.02,0.07-0.03,0.12-0.05,0.19c-0.4,0.4-0.8,0.74-1.2,1.11c0.42,0.36,0.9,0.72,1.51,1.09C138.79,67.52,163.63,75.1,164.93,106.99
		z"/>
	<path class="st29" d="M112.31,55.43c0.4-0.37,0.8-0.72,1.2-1.11c0.02-0.07,0.03-0.12,0.05-0.19c-0.68,0.15-1.38,0.32-2.07,0.49
		C111.72,54.89,112,55.16,112.31,55.43z"/>
	<path class="st34" d="M6.82,132.59c0.13-2.49-2.53-5.12-3.94-7.69c-1.4,2.57-2.81,5.14-3.83,10.04
		C6.77,143.58,6.63,136.22,6.82,132.59z"/>
	<path class="st11" d="M315.33,18.42c0.15-2.44,0.32-4.72,0.52-6.86c-0.07,0.12-0.14,0.21-0.22,0.33
		c-21.17-27.8-1.86-43.7,26.5-57.9c0.47,0.79,0.79,1.64,1.02,2.52c0,0,0-0.01,0.01-0.01c6.49-0.93,12.64,2.78,17.23,0.48
		c-27.12-6.31-39.65-23.47-46.38-48.72c-7.57,5.35-14.98,7.76-21.78,11.3c-50.82,26.42-52.12,27.18-66.11-30.29
		c-2.28,6.47-7.37,11.13-15.15,15.48c-6.58-0.36-12.23-0.01-17.1,0.95C179.75-78.48,185.1-52.61,166-38.86
		c-0.15,4.26-0.95,7.59-3.04,11.99c-5.03,2.47-6.46,3.93-5.89,6.58c0.5,2.33,2.12,2.16,7.81-0.02
		c16.24,9.24,17.37,22.14,14.03,39.52c-2.6,5.36-5.48,9.02-9.1,12.03c1.35,7.03,1.7,14.48,1.81,23.32c1.55,1.25,3.21,2.45,5.06,3.56
		c4.21,3.64,5.76,5.3,8.39,10.28c0.18,3.95,0.15,7.67-0.15,11.17c15.91,24.21,48.3,16.49,75.53,26.02c2.5-0.19,4.15-0.73,5.66-1.14
		c-1.76-8.61-11.65-19.44-1.15-22.98c8.3-2.8,7.92,11.26,8.64,22.25c-0.01,0.68-0.27,1.19-0.63,1.62c3.04,1.68,4.96,1.77,8.8,1.87
		c1.48-0.42,2.92-0.82,4.32-1.22c-0.15-19.33,12.83-10.98,25.5-9.16c-0.31,0.96-0.68,1.86-1.09,2.73c0.53-0.13,1.04-0.26,1.59-0.39
		c5.48-3.45,9.67-5.85,14.49-8.37c0.21-5.97,0.54-8.37,1.91-14.23c1.27-2.89,2.56-5.68,3.88-8.4
		C324.59,55.02,314.76,25.83,315.33,18.42z M203.82,22.62c-2.56,7.87-1.36,22.68-15.9,16.44c-8.53-3.66-4.62-13.94,0.76-23.92
		C203.6,4.77,208.57,8.02,203.82,22.62z M206.1-13c0.56-2.21,1.12-4.42,2.92-5.45C208.88-15.84,207.49-14.42,206.1-13z M211.17-56.1
		C210.68-55.93,211.67-56.27,211.17-56.1L211.17-56.1z M214.05-57.17c-1.39,0.57-1.44,0.53-1.45,0.51
		C213.53-57.03,214.49-57.38,214.05-57.17z M232.55-37.69c0.57,1.47,0.53,1.52,0.5,1.54c-1.31-1.48-2.6-2.99-3.88-4.49
		C230.11-40.15,231.05-39.65,232.55-37.69z M269.42,60.69C269.33,60.55,269.24,60.4,269.42,60.69c0.04,0.06,0.06,0.1,0.08,0.13
		c0.03,0.04,0.03,0.06,0,0C269.48,60.79,269.45,60.74,269.42,60.69z M233.09-31.97c35.53-11.02,21.06,32.05,49.13,35.9
		C235.4,28.09,231.92,3.05,233.09-31.97z"/>
	<path class="st11" d="M178.91,19.2c3.34-17.38,2.21-30.28-14.03-39.52c-5.69,2.17-7.31,2.34-7.81,0.02
		c-0.57-2.65,0.87-4.11,5.89-6.58c2.09-4.4,2.9-7.73,3.04-11.99c-0.44,0.31-0.86,0.64-1.33,0.94c-0.9-0.82-1.69-1.64-2.5-2.46
		c-0.54,2.12-1.11,4.23-1.76,6.33c-2.83,4.58-5.28,6.6-9.82,9.82c0.9,1,0.88,2.8,0.88,6.09c-0.17,0.26-0.33,0.47-0.5,0.7
		c0.95,0.88,2.31,1.67,4.18,2.56c22.08,8.8,14.77,25.33,13.85,42.48c0.3,1.21,0.57,2.42,0.81,3.65
		C173.43,28.22,176.31,24.56,178.91,19.2z"/>
	<path class="st11" d="M332.38,68.15c-1.32,2.72-2.61,5.51-3.88,8.4c-1.37,5.85-1.71,8.26-1.91,14.23c1.88-0.99,3.86-2,6.05-3.1
		c0.13,0.15,0.22,0.31,0.33,0.46c0.78-1.32,1.55-2.68,2.35-4.12c0.02-2.43,0.07-7.21,1.88-9.9
		C335.79,73.24,334.14,71.11,332.38,68.15z"/>
	<path class="st11" d="M185.08,68.39c-2.63-4.97-4.18-6.64-8.39-10.28c-1.86-1.11-3.51-2.31-5.06-3.56c0.03,2.4,0.05,4.88,0.06,7.51
		c-0.46,0.11-0.88,0.16-1.32,0.25c1.1,1.33,2.32,2.65,3.69,3.95c2.38,0.09,7.13,0.28,9.57,2.62c-0.32,2.6-0.51,5.04-0.65,7.42
		c0.62,1.15,1.27,2.23,1.95,3.26C185.23,76.05,185.25,72.33,185.08,68.39z"/>
	<path class="st35" d="M166.91,33.41c-2.3,1.56-4.85,3-7.82,4.48c-1.31,0.36-2.58,0.64-3.86,0.94c3.3,2.71,6.08,5.71,8.95,8.71
		C163.92,43.26,164.81,38.6,166.91,33.41z"/>
	<path class="st35" d="M159.09,37.89c2.97-1.48,5.52-2.92,7.82-4.48c0.59-1.46,1.25-2.95,2.04-4.5c0.01-0.44,0.04-0.88,0.06-1.32
		c-0.18-0.73-0.34-1.46-0.55-2.18c-6.92,3.11-11.43,6.05-15.66,11.55c0.85,0.61,1.65,1.23,2.43,1.88
		C156.51,38.53,157.78,38.25,159.09,37.89z"/>
	<path class="st35" d="M155.23,38.83c-1.32,0.31-2.63,0.6-3.93,0.85c-0.31,16.8,5.13,25.25,19.07,22.63
		c-3.74-4.56-5.87-9.37-6.2-14.78C161.3,44.54,158.53,41.54,155.23,38.83z"/>
	<path class="st35" d="M152.79,36.95c-0.5,0.65-1,1.31-1.49,2.04c-0.01,0.24,0,0.45,0,0.69c1.29-0.25,2.61-0.54,3.93-0.85
		C154.45,38.19,153.64,37.56,152.79,36.95z"/>
	<path class="st35" d="M166.91,33.41c-2.1,5.19-2.99,9.85-2.74,14.12c2.3,2.4,4.69,4.79,7.45,7.02c-0.11-8.84-0.46-16.29-1.81-23.32
		C168.9,31.99,167.93,32.72,166.91,33.41z"/>
	<path class="st35" d="M166.91,33.41c1.02-0.69,1.99-1.42,2.9-2.18c-0.24-1.22-0.51-2.44-0.81-3.65c-0.02,0.44-0.05,0.88-0.06,1.32
		C168.16,30.46,167.5,31.95,166.91,33.41z"/>
	<path class="st35" d="M171.63,54.55c-2.77-2.23-5.15-4.61-7.45-7.02c0.33,5.41,2.46,10.22,6.2,14.78c0.44-0.08,0.86-0.14,1.32-0.25
		C171.68,59.43,171.66,56.96,171.63,54.55z"/>
	<path class="st18" d="M124.97-2.35c1.12-1.7-0.76-7.97-2.2-8.32c-10.83-2.67-19.21,1.45-22.52,12.86
		C110.88,4.76,119.57,5.87,124.97-2.35z"/>
	<path class="st35" d="M345.9,132.35c0.81-1.94,1.69-3.52,2.65-4.77c-3.67-3.27-6.14-6.69-8.38-10.87c-2.13-2-4.33-4.03-6.69-6.16
		c-3.49-5.33-5.13-9.25-6.14-14.58c-2.27,2.47-5.02,4.74-8.75,6.85c-3.84,0.87-7.39,1-10.8,1.01c-4.46,5.23-11.72,7.42-21.57,5.35
		c-0.02-0.26-0.02-0.49-0.04-0.75c-3.73,1.69-5.68,2.01-9.83,1.77c-1.31-2.08-2.5-3.56-3.62-4.57c-1.5,1.35-4.59,1.42-6.36,1.42
		c0.02-0.62-0.04-1.25-0.14-1.9c-1.57,1.09-3.26,2.93-5.25,5.37c-16.21,2.11-29.42-1.27-42.66,0.06
		c-22.84,2.29-32.86-5.74-35.03-21.99c-1.87,6.22-5.34,11.43-11.31,15.53c-0.7,6.97-2.33,11.77-6.14,17.81
		c60.67-0.04,61.71,1.76,78.13,64.82c9.25,35.51,38.44,19.02,64.37,28.94c6.23,5.7,7.57,7.61,9.44,12.13
		C348.19,204.17,358.91,174,345.9,132.35z M228.46,111.87c-0.03-0.04-0.05-0.08-0.07-0.11c-0.04-0.07-0.03-0.05,0,0
		C228.41,111.79,228.43,111.82,228.46,111.87c0.03,0.06,0.05,0.09,0.07,0.11c0.03,0.05,0.04,0.07,0,0
		C228.51,111.95,228.49,111.92,228.46,111.87z"/>
	<path class="st35" d="M308.34,215.66c-25.93-9.92-55.12,6.58-64.37-28.94c-16.42-63.05-17.46-64.85-78.13-64.82
		c-0.49,0.77-0.98,1.54-1.54,2.36c-0.38,0.45-0.76,0.88-1.14,1.3c0.42,1.09,0.91,2.2,1.55,3.37c53.59-0.3,80.62,15.74,64.7,73.05
		c-3.39,12.21,10.17,24.15,30.28,23.09c17.55-0.93,37.58-12.24,57.75,2.96c0.11-0.08,0.22-0.17,0.33-0.25
		C315.91,223.26,314.57,221.36,308.34,215.66z"/>
	<path class="st35" d="M333.48,110.54c2.36,2.13,4.57,4.16,6.69,6.16c-1.22-2.28-2.39-4.77-3.65-7.63c1.12-0.2,2.23-0.31,3.33-0.36
		c-1.47-1.79-2.9-3.69-4.27-5.87c-0.12-7.27-0.21-11.56-2.6-14.71c-1.68,2.84-3.43,5.43-5.63,7.82
		C328.35,101.29,330,105.21,333.48,110.54z"/>
	<path class="st35" d="M164.98,107.93c-0.01-0.32-0.03-0.62-0.05-0.94c-1.02,1.24-2.16,2.44-3.51,3.57c0,4.62,0.01,8.07,0.67,11.35
		c1.26,0,2.54,0,3.75,0c3.81-6.04,5.44-10.84,6.14-17.81C169.94,105.5,167.64,106.79,164.98,107.93z"/>
	<path class="st35" d="M165.85,121.9c-1.21,0-2.49,0-3.75,0c0.25,1.22,0.6,2.44,1.07,3.66c0.38-0.43,0.76-0.85,1.14-1.3
		C164.87,123.45,165.36,122.67,165.85,121.9z"/>
	<path class="st35" d="M171.99,104.1c5.96-4.1,9.44-9.31,11.31-15.53c-0.49-3.67-0.56-7.79-0.31-12.28
		c-1.08-2.02-2.07-4.22-2.95-6.64c-5.89,8.12-6.57,17.5-9.27,26.09c0.51,1.52,1.02,3.06,1.51,4.63
		C172.2,101.69,172.1,102.92,171.99,104.1z"/>
	<path class="st35" d="M171.99,104.1c0.12-1.18,0.21-2.41,0.28-3.72c-0.49-1.57-1-3.11-1.51-4.63c-1.25,3.99-2.97,7.8-5.82,11.25
		c0.01,0.32,0.04,0.62,0.05,0.94C167.64,106.79,169.94,105.5,171.99,104.1z"/>
	<path class="st35" d="M260.46,105.57c-27.23-9.53-59.62-1.81-75.53-26.02c-0.27,3.2-0.79,6.21-1.64,9.02
		c2.18,16.25,12.19,24.28,35.03,21.99c13.24-1.33,26.45,2.05,42.66-0.06c1.99-2.44,3.68-4.28,5.25-5.37
		c-0.04-0.23-0.07-0.46-0.12-0.7C264.61,104.84,262.96,105.38,260.46,105.57z"/>
	<path class="st35" d="M310.52,99.54c-0.75,1.59-1.65,3.02-2.73,4.28c3.41-0.02,6.96-0.14,10.8-1.01c3.73-2.1,6.48-4.37,8.75-6.85
		c-0.3-1.57-0.54-3.24-0.75-5.14c0-0.02,0-0.03,0-0.04c-4.81,2.53-9.01,4.92-14.49,8.37C311.56,99.29,311.05,99.41,310.52,99.54z"/>
	<path class="st35" d="M281.78,107.18c-3.85-0.09-5.76-0.18-8.8-1.87c-0.08,0.1-0.15,0.21-0.24,0.3c1.12,1.01,2.3,2.5,3.62,4.57
		c4.15,0.25,6.1-0.08,9.83-1.77c-0.05-0.87-0.08-1.68-0.08-2.46C284.7,106.36,283.27,106.76,281.78,107.18z"/>
	<path class="st35" d="M326.59,90.78c0,0.02,0,0.03,0,0.04c0.21,1.89,0.46,3.57,0.75,5.14c2.2-2.39,3.95-4.98,5.63-7.82
		c-0.11-0.15-0.21-0.31-0.33-0.46C330.45,88.78,328.48,89.79,326.59,90.78z"/>
	<path class="st35" d="M183.29,88.57c0.84-2.81,1.36-5.82,1.64-9.02c-0.68-1.03-1.33-2.11-1.95-3.26
		C182.73,80.78,182.8,84.9,183.29,88.57z"/>
	<path class="st38" d="M402.17,157.32c-16.91,0.06-28.85-4.58-40.72-17.26c-2.28-2.97-4.5-5.7-6.72-8.28
		c11.83,41.3,15.33,77.27-35.8,97.4c-0.32-0.26-0.64-0.5-0.96-0.74c-0.14,1.48-0.33,2.8-0.53,4c1.47,0.41,3.03,1.43,4.83,3.04
		c1-0.36,2.12-0.67,3.5-0.99c5.17,0.63,7.18,1.35,11.47,4.37c0.92,1.3,1.62,2.39,2.2,3.43c5.54-0.13,11.09,0.88,16.64,1.99
		c0.41-0.13,0.82-0.26,1.23-0.42c0.65-0.51,1.18-1.18,1.51-2.08c1.79-4.82,5.96,0.57,0.03,1.4c-0.51,0.26-1.02,0.48-1.54,0.68
		c-0.24,0.19-0.5,0.36-0.79,0.5c0.29,0.06,0.58,0.12,0.87,0.17c-4.49,1.59-8.99,3.17-15.47,4.74c0.09,0.4,0.18,0.8,0.27,1.25
		c0.07,5.48-0.17,7.68-1.25,13.1c-0.4,1.21-0.78,2.38-1.17,3.52c4.43,3.38,8.44,7.57,13.57,12.44c1.92,0.13,3.67,0.32,5.31,0.55
		c3.77-26.6,17.57-18.46,32.7-12.85c0.07-0.13,0.13-0.27,0.19-0.4c3.33-26.18-7.91-49.96,6.89-75.35c2.43-3.57,4.79-6.41,7.38-8.77
		C400.64,175.36,397.71,167.19,402.17,157.32z"/>
	<path class="st38" d="M357.3,243.86c-0.41,0.16-0.82,0.29-1.23,0.42c0.15,0.03,0.29,0.06,0.44,0.09
		C356.8,244.22,357.06,244.05,357.3,243.86z"/>
	<path class="st38" d="M337.24,238.85c-4.28-3.02-6.29-3.74-11.47-4.37c-1.38,0.32-2.5,0.63-3.5,0.99c0.76,0.67,1.55,1.43,2.4,2.3
		c-0.09,0.37-0.22,0.66-0.37,0.92c1.18,0.52,2.48,0.95,4,1.32c2.36-0.01,7.06,0.06,9.82,2.28c0.44-0.03,0.88-0.02,1.32-0.03
		C338.85,241.24,338.16,240.16,337.24,238.85z"/>
	<path class="st38" d="M340.95,263.63c1.07-5.43,1.32-7.62,1.25-13.1c-0.09-0.45-0.18-0.84-0.27-1.25
		c-1.06,0.26-2.16,0.51-3.33,0.77c-0.29,0-0.53-0.09-0.78-0.17c-0.84,0.77-1.64,1.69-2.4,2.81c-0.05,4.43-0.04,6.21,0.36,11.48
		c0.03,0.1,0.05,0.19,0.08,0.29c1.37,0.83,2.67,1.73,3.93,2.7C340.17,266.01,340.55,264.84,340.95,263.63z"/>
	<path class="st38" d="M317.97,228.44c-0.17-0.13-0.35-0.27-0.52-0.4c-0.8,0.62-1.61,1.24-2.44,1.85c-0.07,0-0.05-0.11,1.35,2.02
		c0.1,0.13,0.2,0.24,0.3,0.37c0.25,0.03,0.51,0.08,0.77,0.16C317.64,231.24,317.83,229.92,317.97,228.44z"/>
	<path class="st38" d="M354.73,131.79c2.22,2.58,4.44,5.31,6.72,8.28c11.87,12.68,23.8,17.32,40.72,17.26
		c0.96-2.12,2.22-4.31,3.91-6.6c0.02-0.02,0.04-0.03,0.06-0.05c-0.74-0.99-1.54-1.98-2.49-2.96c-19.37,1.16-30.76-5.24-40.52-21.83
		c-2.28,1.46-5.29,1.9-9.5,2.15C354.01,129.29,354.37,130.54,354.73,131.79z"/>
	<path class="st38" d="M398.45,191.55c-14.8,25.39-3.56,49.17-6.89,75.35c-0.07,0.13-0.13,0.27-0.19,0.4
		c3.97,1.47,8.04,2.77,12.04,3.22c-0.03,0.04-0.05,0.08-0.07,0.11c1.28-1.04,2.53-2.25,3.73-3.67
		c-0.44-28.51-13.06-53.11,1.17-80.96c-0.84-1.06-1.64-2.13-2.4-3.22C403.24,185.14,400.88,187.98,398.45,191.55z"/>
	<path class="st38" d="M354.73,131.79c-1.07-1.25-2.15-2.46-3.23-3.65c-0.71,0.03-1.44,0.07-2.22,0.1
		c-0.26-0.22-0.48-0.44-0.73-0.67c-0.97,1.25-1.84,2.83-2.65,4.77c13,41.65,2.29,71.83-28.12,95.44c0.07,0.17,0.13,0.31,0.2,0.48
		c-0.01,0.06-0.01,0.11-0.02,0.17c0.32,0.25,0.64,0.48,0.96,0.74C370.06,209.06,366.56,173.08,354.73,131.79z"/>
	<path class="st38" d="M317.99,228.27c-0.07-0.17-0.13-0.32-0.2-0.48c-0.11,0.09-0.22,0.17-0.33,0.25c0.17,0.13,0.35,0.27,0.52,0.4
		C317.97,228.38,317.98,228.33,317.99,228.27z"/>
	<path class="st38" d="M354.73,131.79c-0.36-1.25-0.72-2.5-1.09-3.76c-0.68,0.04-1.39,0.08-2.13,0.11
		C352.58,129.33,353.66,130.54,354.73,131.79z"/>
	<path class="st28" d="M30.4,226.82c-0.05,0.08-0.09,0.13-0.14,0.21c17.22-5.74,32.02,16.18,48.41-2.66
		c-7.88-14.02-24.11-18.24-37.35-29.32c0.6,8.35-3.76,14.7-9.96,22.13c-0.51-0.33-1.01-0.59-1.51-0.88
		c-0.04,0.17-0.09,0.34-0.13,0.51C31.24,220.19,31.44,222.56,30.4,226.82z"/>
	<path class="st28" d="M78.67,224.38c-16.4,18.84-31.19-3.09-48.41,2.66c-0.3,0.47-0.55,0.86-0.76,1.19
		c0.48,0.72,1.16,1.39,2.21,2.1c18.06-1.64,14.8,38.25,39.21,15.44c9.12-8.52,28.32-5.44,30.44-22.31
		c3.04-24.23-24.71-8.93-31.57-23.14c-5.37-11.12-17.1-11.28-29.06-9.01c0.3,1.3,0.5,2.55,0.59,3.76
		C54.56,206.14,70.8,210.36,78.67,224.38z"/>
	<path class="st28" d="M30.4,226.82c1.04-4.26,0.84-6.64-0.67-10.01c-0.42,1.65-0.84,3.33-1.26,5.1c0,2.53,0.01,4.18,0.61,5.55
		c0.39-0.16,0.79-0.3,1.18-0.43C30.31,226.96,30.35,226.9,30.4,226.82z"/>
	<path class="st28" d="M29.09,227.47c0.11,0.26,0.25,0.51,0.41,0.75c0.21-0.33,0.46-0.71,0.76-1.19
		C29.87,227.16,29.48,227.31,29.09,227.47z"/>
	<path class="st28" d="M29.86,216.31c0.5,0.29,1,0.55,1.51,0.88c6.2-7.43,10.55-13.78,9.96-22.13c-1.19-1-2.37-2.04-3.5-3.17
		c-0.15,0.03-0.3,0.06-0.46,0.1C34.24,201.05,31.97,208.14,29.86,216.31z"/>
	<path class="st28" d="M41.33,195.05c-0.09-1.21-0.29-2.46-0.59-3.76c-0.97,0.18-1.94,0.38-2.92,0.59
		C38.96,193.01,40.13,194.05,41.33,195.05z"/>
	<path class="st35" d="M287.82,307.54c18.48,5.73,25.03-3.38,33.18-11.03c0-0.43,0-0.86,0-1.29
		C311.84,301.46,302.25,303.08,287.82,307.54z"/>
	<path class="st35" d="M287.82,307.54c14.43-4.45,24.02-6.08,33.18-12.32c-0.02-1.3-0.06-2.6-0.12-3.92
		c-21.29,4.94-47.15-12.57-53.87,16.59c-2.9,12.57,12.33,11.57,21.46,14.52c27.06,8.75,32.54-7.1,32.54-25.9
		C312.85,304.15,306.3,313.27,287.82,307.54z"/>
	<path class="st35" d="M346.39,314.14c2.7-1.6,5.79-2.9,9.47-4.14c3.17-0.84,5.95-1.93,8.45-3.21c2.65-8.29,8.49-17.22-4.81-24.06
		c-0.14,0.08-0.28,0.15-0.42,0.23c-11.5,1.02-17.24-3.11-20.83-11.39c-2.76,7.57-5.97,13.86-12.68,20.04
		c0.16,0.13,0.39,0.31,0.7,0.55c0.65-0.44,1.31-0.87,2-1.26C340.48,294.22,344.09,302.31,346.39,314.14z"/>
	<path class="st35" d="M346.39,314.14c-2.29-11.83-5.91-19.92-18.12-23.22c-0.69,0.39-1.36,0.81-2,1.26
		c0.4,0.31,0.94,0.73,1.71,1.31c4.1,10.46,5.74,19.02,10.66,27.52C340.88,318.13,343.37,315.93,346.39,314.14z"/>
	<path class="st35" d="M338.24,271.58c-0.92-2.11-1.7-4.49-2.39-7.13c-1.02-0.62-2.07-1.2-3.19-1.74
		c-4.34,10.86-5.96,19.67-7.53,28.53c0.03,0.03,0.06,0.07,0.43,0.37C332.28,285.45,335.49,279.15,338.24,271.58z"/>
	<path class="st35" d="M364.3,306.8c-2.5,1.28-5.27,2.37-8.45,3.21c-3.68,1.24-6.77,2.54-9.47,4.14c0.29,1.49,0.56,3.02,0.82,4.63
		c0,1.12-0.03,2.16-0.06,3.21c7.06-0.13,12.91-0.65,19.5-2.49C362.36,315.76,362.84,311.38,364.3,306.8z"/>
	<path class="st35" d="M346.39,314.14c-3.01,1.79-5.51,3.99-7.76,6.87c0.2,0.34,0.37,0.68,0.58,1.03c2.85,0,5.47-0.01,7.94-0.05
		c0.03-1.05,0.07-2.09,0.06-3.21C346.95,317.16,346.68,315.63,346.39,314.14z"/>
	<path class="st35" d="M358.66,280.14c-1.64-0.23-3.39-0.42-5.31-0.55c-5.14-4.87-9.15-9.06-13.57-12.44
		c-0.51,1.53-1.02,3.01-1.54,4.43c3.59,8.28,9.33,12.4,20.83,11.39c0.14-0.08,0.28-0.15,0.42-0.23c-0.37-0.19-0.71-0.38-1.11-0.57
		C358.47,281.46,358.57,280.81,358.66,280.14z"/>
	<path class="st35" d="M339.78,267.15c-1.26-0.96-2.56-1.87-3.93-2.7c0.69,2.64,1.48,5.02,2.39,7.13
		C338.77,270.16,339.27,268.68,339.78,267.15z"/>
	<path class="st73" d="M252.68,411.26c0.17,0.17,0.35,0.35,0.52,0.52c0.23-0.07,0.46-0.14,0.69-0.19
		C253.48,411.48,253.08,411.37,252.68,411.26z"/>
	<path class="st73" d="M252.54,411.11c0.05,0.05,0.1,0.1,0.15,0.15c0.4,0.11,0.8,0.22,1.21,0.33c2.01-0.49,4.02-0.34,6.88,0.43
		c0.33,0.23,0.61,0.43,0.87,0.61c0.2-0.54,0.41-1.05,0.61-1.58c-6.62-7.08-12.23-11.78-17.61-13.87
		C248.29,400.92,250.04,405.42,252.54,411.11z"/>
	<path class="st73" d="M262.34,413.12c0.43-0.41,0.58-0.96,0.26-1.7c-0.12-0.13-0.23-0.24-0.35-0.36c-0.2,0.53-0.42,1.04-0.61,1.58
		C261.91,412.82,262.14,412.98,262.34,413.12z"/>
	<path class="st73" d="M253.89,411.59c-0.23,0.05-0.46,0.12-0.69,0.19c0.91,0.91,1.87,1.8,2.94,2.68c1.42-0.09,3.64-0.18,5.12-0.72
		c0.05-0.16,0.11-0.32,0.16-0.48C258.61,412.74,256.14,412.17,253.89,411.59z"/>
	<path class="st73" d="M261.26,413.74c0.28-0.1,0.53-0.23,0.75-0.36c-0.2-0.04-0.39-0.07-0.59-0.11
		C261.37,413.42,261.32,413.59,261.26,413.74z"/>
	<path class="st73" d="M261.64,412.63c-0.26-0.18-0.54-0.38-0.87-0.61c-2.86-0.77-4.87-0.92-6.88-0.43
		c2.25,0.59,4.72,1.15,7.53,1.68C261.5,413.06,261.57,412.84,261.64,412.63z"/>
	<path class="st73" d="M261.42,413.27c0.2,0.04,0.39,0.08,0.59,0.11c0.13-0.08,0.24-0.17,0.33-0.26c-0.2-0.14-0.43-0.3-0.7-0.49
		C261.57,412.84,261.5,413.06,261.42,413.27z"/>
	<path class="st73" d="M252.54,411.11c-2.49-5.7-4.24-10.19-7.9-13.92c-0.31-0.12-0.63-0.27-0.95-0.37
		C246.34,402.96,248.88,407.28,252.54,411.11z"/>
	<path class="st35" d="M339.67,242.7c0.8,1.5,1.34,2.94,1.81,4.76c3.37-1.54,7.08-1.74,10.74-2.33
		C348.68,245.04,344.19,243.84,339.67,242.7z"/>
	<path class="st35" d="M341.48,247.46c-0.48-1.82-1.02-3.26-1.81-4.76c-0.51-0.13-1.03-0.26-1.54-0.38c0,0-0.01,0-0.01-0.01
		c-0.91,0.05-1.82,0.14-2.73,0.26c0.01,2.25,0.09,6.5,2.43,7.31C338.97,248.81,340.2,248.04,341.48,247.46z"/>
	<path class="st35" d="M356.52,244.36c-1.15,0.59-2.61,0.81-4.29,0.77c-3.66,0.59-7.37,0.79-10.74,2.33
		c0.15,0.56,0.29,1.17,0.44,1.82c6.47-1.57,10.98-3.16,15.47-4.74C357.1,244.48,356.81,244.42,356.52,244.36z"/>
	<path class="st35" d="M356.52,244.36c-0.15-0.03-0.29-0.06-0.44-0.09c-1.27,0.39-2.56,0.65-3.85,0.86
		C353.9,245.17,355.36,244.95,356.52,244.36z"/>
	<path class="st35" d="M356.07,244.27c-5.55-1.11-11.1-2.12-16.64-1.99c0.08,0.14,0.16,0.28,0.23,0.42
		c4.53,1.14,9.02,2.34,12.56,2.43C353.52,244.92,354.81,244.66,356.07,244.27z"/>
	<path class="st35" d="M339.67,242.7c-0.07-0.14-0.15-0.28-0.23-0.42c-0.44,0.01-0.88,0-1.32,0.03c0,0,0.01,0,0.01,0.01
		C338.64,242.44,339.15,242.57,339.67,242.7z"/>
	<path class="st35" d="M341.92,249.28c-0.15-0.65-0.29-1.26-0.44-1.82c-1.28,0.58-2.51,1.35-3.67,2.42
		c0.24,0.08,0.48,0.17,0.78,0.17C339.76,249.79,340.86,249.53,341.92,249.28z"/>
	<path class="st18" d="M189.01,359.02c4.34,1.41,8.69,2.83,13.18,4.09c0.15-0.15,0.4-0.49-0.94-2.54
		C196.15,355.65,192.35,352.12,189.01,359.02z"/>
	<path class="st18" d="M153.45,361.84c4.77-3.01,6.7-5.6,5.86-7.78c-1.96,2.26-3.76,4.25-6.18,7
		C153.2,361.33,153.3,361.59,153.45,361.84z"/>
	<path class="st18" d="M153.13,361.06c2.41-2.76,4.21-4.75,6.18-7c-0.06-0.16-0.1-0.32-0.19-0.47
		C154.53,356.45,152.55,358.94,153.13,361.06z"/>
	<path class="st35" d="M299.28,265.21C298.7,265.55,299.86,264.88,299.28,265.21L299.28,265.21z"/>
	<path class="st35" d="M313.49,240.72C313.62,240.68,313.76,240.64,313.49,240.72L313.49,240.72z"/>
	<path class="st35" d="M313.49,240.72C313.36,240.76,313.23,240.8,313.49,240.72L313.49,240.72z"/>
	<path class="st35" d="M317.32,233.1c-0.74,3.92-1.69,6.22-1.91,7.1c0.01,0,0.03,0,0.04,0c1.89-1.88,3.3-3.05,4.94-3.9
		C319.36,235.42,318.36,234.36,317.32,233.1z"/>
	<path class="st35" d="M315.46,240.19c0.4,0.03,1.09,0.05,2.34,0.04c3.81-0.07,5.68-0.14,6.5-1.53c-1.45-0.64-2.71-1.41-3.9-2.41
		C318.76,237.15,317.35,238.32,315.46,240.19z"/>
	<path class="st35" d="M316.66,232.28c-0.58-0.08-1.16-0.08-1.74,0.05c-0.04,2.56-0.1,7.67-0.04,7.74c0.03,0.03,0.1,0.08,0.53,0.12
		c0.21-0.87,1.17-3.17,1.91-7.1C317.1,232.83,316.89,232.56,316.66,232.28z"/>
	<path class="st35" d="M317.32,233.1c1.04,1.26,2.04,2.32,3.08,3.19c0.58-0.3,1.2-0.57,1.87-0.81c-1.8-1.61-3.36-2.63-4.83-3.04
		C317.4,232.66,317.36,232.89,317.32,233.1z"/>
	<path class="st35" d="M322.27,235.48c-0.67,0.24-1.29,0.51-1.87,0.81c1.19,1,2.45,1.78,3.9,2.41c0.16-0.26,0.29-0.56,0.37-0.92
		C323.81,236.9,323.02,236.15,322.27,235.48z"/>
	<path class="st35" d="M317.43,232.44c-0.26-0.07-0.52-0.12-0.77-0.16c0.22,0.28,0.44,0.55,0.66,0.81
		C317.36,232.89,317.4,232.66,317.43,232.44z"/>
	<path class="st18" d="M173.13,339.93c-0.36,0.27-0.68,0.51-1.02,0.76c0.24,0.77,0.61,1.18,1.21,0.88c2.38-1.98,3.84-3.67,3.56-4.05
		c-0.86-1.15-1.89-2.17-2.95-2.65c-0.29,0.18-0.57,0.37-0.85,0.55C173.32,336.56,173.39,337.97,173.13,339.93z"/>
	<path class="st18" d="M173.92,334.88c-0.36-0.16-0.71-0.25-1.08-0.27c0.08,0.26,0.16,0.53,0.22,0.82
		C173.36,335.24,173.63,335.06,173.92,334.88z"/>
	<path class="st18" d="M171.71,336.84c0.1-0.04,0.21-0.07,0.29-0.11c0.05-0.24,0.1-0.46,0.14-0.71c-0.15,0.1-0.3,0.19-0.44,0.28
		C171.71,336.48,171.71,336.66,171.71,336.84z"/>
	<path class="st18" d="M172.44,334.61c-0.24,0.03-0.48,0.09-0.72,0.2c-0.01,0.44-0.01,0.95-0.01,1.49c0.15-0.1,0.3-0.19,0.44-0.28
		C172.25,335.54,172.34,335.08,172.44,334.61z"/>
	<path class="st18" d="M173.07,335.43c-0.31,0.2-0.61,0.39-0.92,0.59c-0.05,0.24-0.1,0.46-0.14,0.71c-0.09,0.05-0.2,0.08-0.29,0.11
		c0.02,1.4,0.1,2.9,0.4,3.86c0.34-0.25,0.66-0.5,1.02-0.76C173.39,337.97,173.32,336.56,173.07,335.43z"/>
	<path class="st18" d="M173.07,335.43c-0.06-0.29-0.14-0.56-0.22-0.82c-0.14-0.01-0.27-0.02-0.41,0c-0.1,0.47-0.19,0.93-0.29,1.41
		C172.46,335.82,172.76,335.62,173.07,335.43z"/>
	<path class="st2" d="M584.2-30.02c-2.93-1.58-5.54-3.22-7.99-4.91c-14.07,14.66-26.76,34.4-50.88,13.6
		c-2.41,5.84-5.38,9.95-9.78,10.73c-33.56,5.93-18.3,24.72-10.41,44.37c2.45,5.08,4.11,8.51,6.09,12.69
		c2.06-0.62,4.13-0.59,5.36-0.58c1.15-0.07,2.24-0.08,3.3-0.07c-0.98-5.58-0.63-9.9-0.22-16.81c1.01-1.95,2.08-3.47,3.25-4.64
		c-0.7-5.24,0.38-12.42,4.15-14.36c6.43-3.3,10.55,2.91,12.55,12.51c-0.83,0.6-1.69,1.06-2.57,1.44c2.86,9.52,2.86,16.94,2.7,27.89
		c-1.09,0.39-2.18,0.6-3.27,0.74c0.32,0.29,0.64,0.53,0.97,0.84c1.28,1.07,2.41,1.99,3.46,2.85c2.47-0.32,4.97-0.13,7.5,1.07
		c4.94,1.2,7.19,1.99,11.12,4.16c0.05-12.29,7.29-17.76,17.84-19.6c9.53-1.66,14.99,2.98,18.91,11.98c0.63-2.96,1.71-6,3.31-9.39
		c4.81-6.97,7.94-10.68,13.77-16.94c3.96-3.68,5.96-5.3,10.02-7.72C614.11-0.99,630.41,2.64,643,0.07
		c-10.95-13.18-35.22-7.62-33.85-31.1c-0.13-0.29-0.26-0.58-0.37-0.9C601.1-27.93,594.08-27.8,584.2-30.02z"/>
	<path class="st2" d="M507.96,45.57c0.77,0.51,1.28,1,1.64,1.53c0.54-0.28,1.09-0.48,1.64-0.65c-1.98-4.18-3.64-7.61-6.09-12.69
		c-7.89-19.65-23.14-38.43,10.41-44.37c4.39-0.78,7.36-4.89,9.78-10.73c-0.83-0.72-1.68-1.49-2.54-2.3
		c-1.72,0.19-3.43,0.4-5.18,0.56c-54.99,12.17-34.66,40.75-17.24,69.74C501.51,45.46,503.69,45.44,507.96,45.57z"/>
	<path class="st65" d="M366.3,17.89c-1.34-2.24-2.45-4.4-3.33-6.56c-13.3-3.4-24.2-26.63-41.16-7.81c0.2,2.81,0.6,5.76,1.19,8.88
		c6.69,18.7,1.69,37.92,9.95,54.58c8.15-16.56,17.55-30.25,31.29-43.9c0.88-0.21,1.72-0.39,2.55-0.56
		C366.27,20.94,366.28,19.1,366.3,17.89z"/>
	<path class="st65" d="M364.25,23.09c-13.74,13.64-23.14,27.33-31.29,43.9c1.17,2.36,2.61,4.67,4.38,6.92
		c-0.05,0.07-0.09,0.15-0.13,0.22c0.33,0.21,0.65,0.37,0.95,0.44c10.25-17.35,26.61-28.37,29.36-50.6
		c-0.31-0.43-0.55-0.91-0.72-1.43C365.97,22.69,365.12,22.88,364.25,23.09z"/>
	<path class="st65" d="M321.81,3.52c-1.91,2.12-3.89,4.77-5.97,8.04c-0.19,2.14-0.36,4.42-0.52,6.86
		c-0.57,7.41,9.26,36.61,17.05,49.73c0.19-0.39,0.38-0.78,0.57-1.17c-8.26-16.66-3.27-35.87-9.95-54.58
		C322.41,9.28,322.01,6.33,321.81,3.52z"/>
	<path class="st65" d="M332.96,66.98c-0.19,0.39-0.38,0.78-0.57,1.17c1.76,2.96,3.41,5.09,4.82,5.97c0.05-0.07,0.08-0.16,0.13-0.22
		C335.56,71.65,334.13,69.34,332.96,66.98z"/>
	<path class="st6" d="M422.49-19.1c3.14,1.96,9.99,6.06-0.16,8.21c-2.18,0.46-4.57,0.22-7.97,0.56c0.45,0.55,0.9,1.12,1.35,1.73
		c-0.97,0.74-1.9,1.49-2.8,2.24c2.22,0.54,4.46,1.28,6.75,2.3c7.28,5.94,11.63,13.22,16.82,13.88c9.16,1.16,7.24-6.85,7.61-13.69
		c1.81-33.95-33.64-25.31-50.01-42.07c-0.82,0.75-1.65,1.41-2.5,1.99C398.5-28.81,411.84-25.75,422.49-19.1z"/>
	<path class="st27" d="M364.88-4.69c0.62,3.78,0.93,7.87,1.17,12.64c2.05,4.37,2.52,7.22,1.8,12.77c-0.03,0.57-0.12,1.11-0.17,1.67
		c24.49-4.36,25.08,13.4,29.82,28.66c-3.65-19.93-16.7-41.67,8.42-58.47C392.49-8.3,379.73-3.13,364.88-4.69z"/>
	<path class="st27" d="M397.5,51.04c-4.75-15.26-5.33-33.02-29.82-28.66c-0.05,0.53-0.1,1.06-0.16,1.58
		c0.52,0.73,1.24,1.31,2.3,1.56c28.11,10.67,8,37.45,23.18,52.81c11.18-11.84,30.49-18.29,12.77-39.61
		c-14.73-17.72-8.77-31.96,7.15-45.09c-2.36-0.57-4.68-0.91-6.99-1.06C380.8,9.37,393.85,31.11,397.5,51.04z"/>
	<path class="st27" d="M366.04,7.95c0.06,1.22,0.12,2.48,0.18,3.8c-1.1,0.02-2.19-0.14-3.25-0.41c0.88,2.16,2,4.32,3.33,6.56
		c-0.02,1.21-0.03,3.05,0.49,4.64c0.3-0.06,0.59-0.1,0.88-0.15c0.05-0.56,0.14-1.09,0.17-1.67
		C368.56,15.17,368.09,12.32,366.04,7.95z"/>
	<path class="st27" d="M366.79,22.53c0.17,0.52,0.41,1,0.72,1.43c0.06-0.52,0.11-1.05,0.16-1.58
		C367.38,22.43,367.1,22.47,366.79,22.53z"/>
	<path class="st40" d="M548.68,169.16c-0.93-29.49-30.16-18.27-44.27-28.46c-1.66,0.18-3.28,0.3-4.8,0.31
		c0.15,0.34,0.31,0.64,0.47,0.96c15.47,5.19,32.66,4.9,39.37,19.17C543.34,162.8,546.59,165.21,548.68,169.16z"/>
	<path class="st50" d="M410.3,159.15c1.67,6.33,0.76,13.1-0.73,20.69c3.25-2.23,6.96-3.98,11.64-5.52c1.67-0.06,3.24-0.06,4.73,0
		c-0.17-0.87-0.17-1.85,0-3.07c0.6-0.24,1.15-0.52,1.74-0.78c0-0.26,0-0.51,0-0.77C421.46,166.66,416.8,161.82,410.3,159.15z"/>
	<path class="st50" d="M427.67,169.7c0-1.5-0.02-3-0.05-4.28c-2.21-14.72,0.66-33.12-21.47-14.75c2.06,2.76,3.38,5.57,4.15,8.48
		C416.8,161.82,421.46,166.66,427.67,169.7z"/>
	<path class="st50" d="M421.2,174.32c-4.68,1.54-8.38,3.29-11.64,5.52c-0.37,1.9-0.78,3.84-1.19,5.84c-0.05,0.1-0.1,0.21-0.15,0.31
		c0.5,0.63,1.02,1.26,1.54,1.88c7.44-3.68,12.44-6.37,17.29-11.12c-0.59-0.74-0.95-1.53-1.12-2.44
		C424.44,174.26,422.88,174.26,421.2,174.32z"/>
	<path class="st50" d="M425.93,174.32c0.59,0.02,1.18,0.06,1.75,0.11c-0.01-1.17,0-2.54-0.01-3.95c-0.59,0.25-1.14,0.53-1.74,0.78
		C425.76,172.46,425.77,173.45,425.93,174.32z"/>
	<path class="st50" d="M427.05,176.75c0.21-0.21,0.43-0.4,0.65-0.62c-0.01-0.48-0.01-1.07-0.02-1.71c-0.57-0.05-1.15-0.08-1.75-0.11
		C426.11,175.23,426.46,176.01,427.05,176.75z"/>
	<path class="st50" d="M402.17,157.32c-4.46,9.87-1.53,18.03,3.66,25.45c1.18-1.08,2.43-2.04,3.74-2.93
		c1.49-7.59,2.4-14.36,0.73-20.69c-2.24-0.92-4.68-1.58-7.5-1.82C402.59,157.33,402.38,157.32,402.17,157.32z"/>
	<path class="st50" d="M402.17,157.32c0.21,0,0.42,0.01,0.63,0c2.81,0.24,5.26,0.9,7.5,1.82c-0.77-2.91-2.09-5.72-4.15-8.48
		c-0.02,0.02-0.04,0.03-0.06,0.05C404.39,153.01,403.13,155.2,402.17,157.32z"/>
	<path class="st50" d="M409.57,179.84c-1.31,0.89-2.56,1.85-3.74,2.93c0.76,1.09,1.56,2.16,2.4,3.22c0.05-0.1,0.1-0.21,0.15-0.31
		C408.79,183.68,409.19,181.74,409.57,179.84z"/>
	<path class="st27" d="M433.14,38.6c-1.74,2.95-0.48,10.97,2.03,12.57c12.58,8.06,21.45,2.21,26.69-12.78
		C450.21,24.03,440.49,26.18,433.14,38.6z"/>
	<path class="st20" d="M362.86,125.42c0.09,0.16,0.19,0.3,0.28,0.45c0.55-0.35,1.07-0.74,1.54-1.22
		c-7.01-11.75-15.52-16.42-24.83-15.95c4.08,4.98,8.43,9.12,12.35,15.89C354.92,123.42,358.32,123.76,362.86,125.42z"/>
	<path class="st20" d="M348.56,127.57c0.38-0.49,0.77-0.93,1.18-1.32c-3.04-3.24-6.18-6.36-9.56-9.55
		C342.41,120.88,344.89,124.3,348.56,127.57z"/>
	<path class="st20" d="M340.17,116.7c3.38,3.19,6.52,6.31,9.56,9.55c0.76-0.72,1.57-1.27,2.46-1.65
		c-3.92-6.77-8.26-10.91-12.35-15.89c-1.1,0.06-2.21,0.17-3.33,0.36C337.79,111.93,338.95,114.42,340.17,116.7z"/>
	<path class="st20" d="M352.19,124.6c0.3,0.53,0.61,1.06,0.91,1.62c0.18,0.6,0.35,1.2,0.53,1.81c4.21-0.25,7.22-0.7,9.5-2.15
		c-0.09-0.16-0.19-0.3-0.28-0.45C358.32,123.76,354.92,123.42,352.19,124.6z"/>
	<path class="st20" d="M348.56,127.57c0.25,0.22,0.47,0.45,0.73,0.67c0.78-0.03,1.5-0.07,2.22-0.1c-0.58-0.64-1.18-1.26-1.77-1.89
		C349.32,126.64,348.93,127.08,348.56,127.57z"/>
	<path class="st20" d="M353.63,128.03c-0.18-0.6-0.35-1.2-0.53-1.81c-0.3-0.56-0.6-1.09-0.91-1.62c-0.89,0.38-1.7,0.93-2.46,1.65
		c0.59,0.63,1.18,1.25,1.77,1.89C352.25,128.11,352.95,128.07,353.63,128.03z"/>
	<path class="st65" d="M360.44,71.85c-0.02-0.03-0.04-0.06-0.07-0.12C360.39,71.77,360.42,71.81,360.44,71.85z"/>
	<path class="st65" d="M360.36,71.73c-0.05-0.08-0.08-0.12-0.1-0.15C360.29,71.61,360.32,71.66,360.36,71.73z"/>
	<path class="st65" d="M360.44,71.85C360.49,71.94,360.48,71.92,360.44,71.85L360.44,71.85z"/>
	<path class="st65" d="M360.27,71.57C360.25,71.54,360.24,71.53,360.27,71.57L360.27,71.57z"/>
	<path class="st65" d="M507.77,50.15c-2.36-0.56-4.16-1.29-7.02-2.87c-0.12-0.21-0.25-0.41-0.37-0.62c-0.27,0.29-0.5,0.63-0.67,1.07
		c3.25,3.39,5.68,5.28,8.16,5.61C507.66,52.27,507.6,51.26,507.77,50.15z"/>
	<path class="st50" d="M376.14,296.99c4.63-5.87,7.69-12.92,10.9-20.27c-7.68,0.97-15.87,0.86-23.91,4.23
		C374.94,283.68,377.41,289.59,376.14,296.99z"/>
	<path class="st50" d="M376.14,296.99c-1.14,6.61-5.22,14.4-8.29,22.17c-0.41,0.12-0.8,0.21-1.21,0.33
		c0.79,0.69,1.73,1.35,2.87,1.99c22.28-12.03,22.96-35.96,33.82-50.86c-4.95,4-10.48,5.37-16.3,6.1
		C383.83,284.07,380.77,291.13,376.14,296.99z"/>
	<path class="st50" d="M358.66,280.14c1.62,0.23,3.1,0.5,4.46,0.81c8.04-3.37,16.23-3.26,23.91-4.23c1.36-3.12,2.77-6.29,4.33-9.43
		C376.23,261.68,362.44,253.55,358.66,280.14z"/>
	<path class="st50" d="M391.37,267.29c-1.57,3.14-2.97,6.31-4.33,9.43c5.82-0.74,11.35-2.1,16.3-6.1c0.03-0.04,0.05-0.08,0.07-0.11
		C399.41,270.07,395.34,268.77,391.37,267.29z"/>
	<path class="st50" d="M363.13,280.96c-1.21,0.51-2.43,1.1-3.63,1.78c13.29,6.84,7.46,15.77,4.81,24.06
		c4.99-2.55,8.77-5.91,11.84-9.8C377.41,289.59,374.94,283.68,363.13,280.96z"/>
	<path class="st50" d="M376.14,296.99c-3.07,3.89-6.84,7.25-11.84,9.8c-1.46,4.58-1.94,8.96,2.34,12.69c0.41-0.11,0.8-0.2,1.21-0.33
		C370.92,311.39,375,303.6,376.14,296.99z"/>
	<path class="st50" d="M358.66,280.14c-0.09,0.67-0.19,1.32-0.28,2.03c0.4,0.19,0.74,0.38,1.11,0.57c1.21-0.69,2.42-1.27,3.63-1.78
		C361.77,280.64,360.28,280.37,358.66,280.14z"/>
	<path class="st37" d="M322.89-10.58c6.12-4.57,17.19,0.25,37.98,13.27c-0.22-2.52-0.09-5.19,0.42-8.09
		c-15.34-4-28.64-7.99-26.98-20.32C328.32-21.94,324.64-16.9,322.89-10.58z"/>
	<path class="st37" d="M322.89-10.58c1.75-6.32,5.43-11.36,11.43-15.14c0.62-4.61,3.32-10.38,8.82-17.78
		c-0.23-0.88-0.55-1.73-1.02-2.52c-28.36,14.19-47.66,30.1-26.5,57.9c0.07-0.12,0.14-0.21,0.22-0.33
		C316.92-0.27,318.8-7.52,322.89-10.58z"/>
	<path class="st37" d="M322.89-10.58c-1.15,4.15-1.47,8.85-1.09,14.1c16.96-18.82,27.86,4.42,41.16,7.81
		c-1.15-2.81-1.84-5.64-2.09-8.64C340.09-10.33,329.02-15.14,322.89-10.58z"/>
	<path class="st37" d="M322.89-10.58c-4.09,3.06-5.98,10.3-7.05,22.13c2.07-3.27,4.06-5.92,5.97-8.04
		C321.43-1.73,321.75-6.43,322.89-10.58z"/>
	<path class="st37" d="M361.3-5.4c-0.5,2.9-0.63,5.57-0.42,8.09c1.21,0.76,2.45,1.54,3.73,2.35c0.56,1.06,1.02,2,1.44,2.9
		c-0.24-4.77-0.55-8.86-1.17-12.64c-0.46-0.05-0.91-0.07-1.37-0.13C362.77-5.02,362.03-5.21,361.3-5.4z"/>
	<path class="st37" d="M360.88,2.69c0.26,3,0.95,5.84,2.09,8.64c1.07,0.27,2.15,0.43,3.25,0.41c-0.06-1.32-0.12-2.57-0.18-3.8
		c-0.42-0.9-0.88-1.84-1.44-2.9C363.33,4.23,362.09,3.45,360.88,2.69z"/>
	<path class="st65" d="M233.09-31.97c-1.17,35.03,2.3,60.07,49.13,35.9C254.15,0.08,268.62-42.99,233.09-31.97z"/>
	<path class="st35" d="M188.68,15.14c-5.38,9.98-9.29,20.26-0.76,23.92c14.55,6.24,13.34-8.56,15.9-16.44
		C208.57,8.02,203.6,4.77,188.68,15.14z"/>
	<path class="st20" d="M311.61,96.81c-12.67-1.82-25.66-10.18-25.5,9.16c8.34-2.34,15.53-4.26,24.42-6.42
		C310.93,98.67,311.3,97.77,311.61,96.81z"/>
	<path class="st20" d="M286.18,108.42c0.01,0.25,0.02,0.49,0.04,0.75c9.85,2.07,17.11-0.12,21.57-5.35
		c-7.03,0.03-13.46-0.41-20.66,4.17C286.8,108.15,286.5,108.28,286.18,108.42z"/>
	<path class="st20" d="M286.1,105.97c0.01,0.77,0.03,1.59,0.08,2.46c0.31-0.14,0.61-0.27,0.95-0.44c7.19-4.57,13.63-4.13,20.66-4.17
		c1.07-1.26,1.98-2.69,2.73-4.28C301.63,101.7,294.45,103.63,286.1,105.97z"/>
	<path class="st12" d="M271.13,104.2c0.68,0.45,1.28,0.8,1.85,1.12c0.36-0.43,0.62-0.94,0.63-1.62
		c-0.72-10.98-0.34-25.05-8.64-22.25c-10.5,3.54-0.61,14.38,1.15,22.98C267.68,104.02,269.09,103.76,271.13,104.2z"/>
	<path class="st12" d="M266.24,105.13c0.1,0.65,0.15,1.29,0.14,1.9c1.77,0,4.86-0.07,6.36-1.42
		C270.48,103.58,268.49,103.57,266.24,105.13z"/>
	<path class="st12" d="M272.98,105.32c-0.57-0.32-1.18-0.67-1.85-1.12c-2.03-0.44-3.44-0.18-5.01,0.24c0.05,0.23,0.08,0.47,0.12,0.7
		c2.24-1.56,4.24-1.55,6.5,0.48C272.83,105.53,272.9,105.42,272.98,105.32z"/>
	<path class="st12" d="M269.42,60.69C269.24,60.4,269.33,60.55,269.42,60.69L269.42,60.69z"/>
	<path class="st12" d="M269.5,60.82c-0.02-0.03-0.04-0.06-0.08-0.13C269.45,60.74,269.48,60.79,269.5,60.82z"/>
	<path class="st12" d="M269.5,60.82C269.53,60.88,269.52,60.86,269.5,60.82L269.5,60.82z"/>
	<path class="st11" d="M228.53,111.99c-0.02-0.03-0.03-0.05-0.07-0.11C228.49,111.92,228.51,111.95,228.53,111.99z"/>
	<path class="st11" d="M228.46,111.87c-0.03-0.06-0.05-0.09-0.07-0.11C228.42,111.79,228.44,111.83,228.46,111.87z"/>
	<path class="st11" d="M228.53,111.99C228.57,112.05,228.56,112.04,228.53,111.99L228.53,111.99z"/>
	<path class="st11" d="M228.4,111.76C228.37,111.71,228.36,111.7,228.4,111.76L228.4,111.76z"/>
</g>
</svg>
