<?xml version="1.0" encoding="utf-8"?>
<!-- Generator: Adobe Illustrator 26.5.0, SVG Export Plug-In . SVG Version: 6.00 Build 0)  -->
<svg version="1.1" id="Laag_1" xmlns="http://www.w3.org/2000/svg" xmlns:xlink="http://www.w3.org/1999/xlink" x="0px" y="0px"
	 viewBox="0 0 2000 2000" style="enable-background:new 0 0 2000 2000;" xml:space="preserve">
<style type="text/css">
	.st0{fill:none;}
	.st1{fill:#95BB38;}
	.st2{fill:#94B945;}
	.st3{fill:#92B73D;}
	.st4{fill:#81A829;}
	.st5{fill:#96B748;}
	.st6{fill:#7FA433;}
	.st7{fill:#82A83A;}
	.st8{fill:#A1BF46;}
	.st9{fill:#82A92D;}
	.st10{fill:#87AB30;}
	.st11{fill:#8CB23F;}
	.st12{fill:#81A830;}
	.st13{fill:#82AB31;}
	.st14{fill:#89B03C;}
	.st15{fill:#8DB13D;}
	.st16{fill:#86AC3A;}
	.st17{fill:#8EB547;}
	.st18{fill:#99BC49;}
	.st19{fill:#93B941;}
	.st20{fill:#799F2E;}
	.st21{fill:#89AF42;}
	.st22{fill:#96BC4A;}
	.st23{fill:#94B63E;}
	.st24{fill:#9CC04E;}
	.st25{fill:#7AA029;}
	.st26{fill:#9CBE48;}
	.st27{fill:#759D2A;}
	.st28{fill:#88AD3A;}
	.st29{fill:#96BA4B;}
	.st30{fill:#7FA629;}
	.st31{fill:#90B644;}
	.st32{fill:#7BA32C;}
	.st33{fill:#9ABD4D;}
	.st34{fill:#87AD34;}
	.st35{fill:#87AD37;}
	.st36{fill:#A5C44F;}
	.st37{fill:#92B84D;}
	.st38{fill:#9BC053;}
	.st39{fill:none;stroke:#86A92C;stroke-miterlimit:10;}
	.st40{fill:#A4C45A;}
	.st41{fill:#89AF36;}
	.st42{fill:#8FB53F;}
	.st43{fill:#97BB46;}
	.st44{fill:#80A634;}
	.st45{fill:#86A92C;}
	.st46{fill:#85AC2C;}
	.st47{fill:#89AF38;}
	.st48{fill:#93B944;}
	.st49{fill:#88AE34;}
	.st50{fill:#8BB13A;}
	.st51{fill:#81A834;}
	.st52{fill:#82AA33;}
	.st53{fill:#99BB4D;}
	.st54{fill:#96BB43;}
	.st55{fill:#78A02B;}
	.st56{fill:#7CA428;}
	.st57{fill:#709624;}
	.st58{fill:#8EB43B;}
	.st59{fill:#9ABD42;}
	.st60{fill:#86AA34;}
	.st61{fill:#7FA62C;}
	.st62{fill:#80A737;}
	.st63{fill:#789F22;}
	.st64{fill:#8CB040;}
	.st65{fill:#7DA331;}
	.st66{fill:#92B743;}
	.st67{fill:#88AE3F;}
	.st68{fill:#82A72E;}
	.st69{fill:#8BB33D;}
	.st70{fill:#9FBE4C;}
	.st71{fill:#8BAF33;}
	.st72{fill:#89B137;}
	.st73{fill:#8DB234;}
</style>
<path class="st39" d="M1553.96,1411.28c0.68-0.12,1.36-0.29,2.03-0.42c-0.49-1.29-1.09-2.59-1.54-3.89
	C1554.27,1408.44,1554.13,1409.84,1553.96,1411.28z"/>
<path class="st39" d="M812.35,1783.76c0.85-1.88,1.64-3.74,2.56-5.64c-0.75,0.35-1.49,0.7-2.23,1.04
	C812.5,1780.7,812.44,1782.23,812.35,1783.76z"/>
<path class="st39" d="M1204.73,1657.69c-0.13-0.04-0.26-0.07-0.39-0.1c0.35,0.79,0.66,1.52,1.01,2.31c-0.03,0.13-0.07,0.24-0.1,0.37
	c0.54-0.19,1.08-0.29,1.62-0.45C1206.15,1659.11,1205.42,1658.41,1204.73,1657.69z"/>
<path class="st39" d="M515.98,1221.03c2.87,4.69,7.22,9.04,13.5,12.93c0.02-0.01,0.03-0.03,0.05-0.04
	C524.6,1229.72,520.12,1225.42,515.98,1221.03z"/>
<path class="st39" d="M1640.37,961.99c-1.37,3.7-3.53,6.45-6.21,8.55c2.13-0.82,4.24-1.74,6.33-2.79
	C1664.85,964.35,1647.71,942.2,1640.37,961.99z"/>
<path class="st39" d="M288.03,856.25c0.55,1.13,1.04,2.22,1.52,3.29c0.18-0.7,0.36-1.39,0.54-2.09
	C289.4,857.06,288.71,856.64,288.03,856.25z"/>
<path class="st39" d="M87.34,1390.54c-5.2,9.44-10.58,16.73-14.36,24.59c-0.57,1.19-1.06,2.12-1.54,3.04
	c2.57-0.93,2.69-0.84,2.74-0.77c-0.99,0.38-1.99,0.75-2.89,1.08c-0.32,0.61-0.6,1.12-0.88,1.62c2.63-1.27,6.65-0.38,11.27,8.88
	c2.89,5.78,2.27-0.44,2.97-27.22c0.94-0.13,1.84-0.33,2.77-0.48C87.67,1397.61,87.61,1394.04,87.34,1390.54z"/>
<path class="st39" d="M1923.02,669.32c1.17-0.5,2.3-1.03,3.46-1.54c-1.16-0.53-2.32-1.06-3.46-1.62
	C1923.02,667.22,1923.02,668.27,1923.02,669.32z"/>
<path class="st39" d="M1462.15,955.75c0.09-0.09,0.16-0.15,0.24-0.24c-0.05,0-0.12-0.01-0.17-0.01
	C1462.2,955.57,1462.16,955.68,1462.15,955.75z"/>
<path class="st39" d="M1501.05,1169.24c-5.31,4.48-10.6,8.48-15.93,12.11c0.02,1.77,0.02,3.53,0.02,5.29
	c6.77-6.36,13.83-12.46,21.6-17.76c-1.26-0.98-2.22-1.74-2.87-2.26C1502.93,1167.49,1502.04,1168.37,1501.05,1169.24z"/>
<path class="st31" d="M2684.1,2985.11c-6.46-5.7-12.83-11.16-18.81-16.5c-87.34,51.61-94.73-89.08-183.47-80.01
	c-13.31-19.6-13.43-38.26-13.39-71.1c31.58-14.23,63-14.28,110.12-14.34c5.91,2.38,11.95,4.64,18.03,6.84
	c0.61-0.62,1.22-1.26,1.83-1.91c-4.03-26.87-4.03-44.99-3.97-74.52c-2.35-10.59-4.51-20.59-6.58-30.3
	c-110.75,8.02-143.31-102.73-177.34-168.15c-27.61-53.09,12.89-174.49,128.76-198.93c28.24-5.95,50.08-42.26,86.83-73.2
	c6.48-8.4,11.61-16.83,15.97-25.3c-4.45-11.3-4.73-27.05-5.04-50.19c-5.95-10.58-12.64-18-20.07-23.76
	c-15.33-1.48-34.54-9.16-57.69-23.14c2.54-0.48,5.28-0.63,8.11-0.63c-1.8-0.76-3.63-1.54-5.48-2.37
	c-9.37-39.17-9.36-70.56-9.28-117.67c4.35-2.03,8.7-3.74,13.08-5.24c-0.37-0.21-0.71-0.35-1.08-0.56
	c-32.62-60.57-53.31-111.23-84.89-170.15c-3.64-2.76-5.98-6.84-7.57-11.36c-86.85,78.68-118.54,37.52-131.19-65.32
	c-5.07-7.62-9.27-15.85-12.99-24.35c-40.89,9.71-82.07,10.1-136.69,10.33c-3.63-4.02-6.91-8.01-10-11.99
	c-38.54,12.12-70.47,12.36-118.33,12.94c-8.85,2.07-16.74,3.12-24.17,3.67c8.85,20.59,9.41,38.14,10.14,65.92
	c-5.26-2.43-10.56-4.67-15.9-6.75c2.42,2.8,4.86,5.48,7.26,8.49c103.09,13.24,201.39,3.71,257.64,123.04
	c-1.67,6.68-3.65,11.53-6.22,15.37c78.45,8.78,124.14,69.62,71.24,104.07c-115.21,75.01-189.71,242.24-384.26,190.07
	c-6.34-4.01-11.4-8.12-15.55-12.44c-23.87,46.61-48.09,80.41-77.58,125.15c-3.53,4.46-7,8.17-10.49,11.53
	c0.38,0.72,0.73,1.51,1.13,2.2c20.32,4.95,30.16,13.49,41.52,31.63c-44.76,14.19-70.35,30.73-30.75,80.03
	c30.64,38.15,46.22,78.25,4.12,131.79c-5.64-0.67-11.26-1.34-16.86-2.02c6.12,17.45,6.33,24.84,6.77,42.22
	c0.13,4.64-3.49,7.5-8.36,9.36c103.24,228.6,106.28,225.97,379.02-30.11c39.01,51.01-50.31,88.82-20.13,120.59
	c218.21,229.72-3.01,230.13-120.24,283.01h640.96C2730.62,3031.25,2708.24,3009.95,2684.1,2985.11z M1924.52,2431.59
	c-2.24-6-2.14-6.13-2.08-6.18c5.23,6.13,10.39,12.3,15.55,18.48C1934.24,2441.79,1930.5,2439.69,1924.52,2431.59z M2066.87,2524.87
	c-5.63-27.49-3.09-46.7-0.55-65.9c15.82,8.45,40.1,13.18,45.76,26.08C2125.59,2515.83,2115.52,2538.74,2066.87,2524.87z
	 M2320.14,2780.36C2319.54,2780.72,2318.94,2781.08,2320.14,2780.36c0.2-0.12,0.37-0.22,0.5-0.3c0.24-0.14,0.19-0.11,0,0
	C2320.53,2780.13,2320.4,2780.21,2320.14,2780.36z M2382.7,2239.01c-26.94-41.6,8.27-72.58,55.57-98.99
	c78.1,20.76,83.44,61.43,36.58,101.97C2451.03,2262.59,2402.8,2270.05,2382.7,2239.01z M2466.23,2797.46
	c2.36,5.86,2.21,6.05,2.11,6.13c-5.29-5.95-10.48-11.99-15.67-18.02C2456.41,2787.58,2460.14,2789.59,2466.23,2797.46z
	 M2420,2931.47c5.93-2.34,6.44-1.94,6.64-1.7C2422.58,2931.28,2418.32,2932.54,2420,2931.47z M2435.69,2925.08
	c-5.87-9.87,2.09-20.83,23.52-33.13c7.76-3.54,8.98-4.24,9.14-4.43c0.01-0.03,0.02-0.05,0.03-0.08c0.01,0.01,0.01,0.04-0.03,0.08
	C2464.61,2901.3,2456.98,2912.51,2435.69,2925.08z"/>
<path class="st50" d="M2469.08,1806.17c2.93-3.73,5.99-7.07,9.1-10.23c-17.44-0.24-24.67,0.46-29.37-2.6
	c-10.31-6.71-18.94-16.01-28.26-24.24c48-22.24,96-44.49,156.83-72.67c-170.47-41.26-68.15-197.75-142.96-271.22
	c89.14,78.98,132.72-140.3,237.33-32.95c40.86,41.92,73.09,2,78.68-84.62c3.78-58.51-94.68-139.36,43.06-179.82
	c4.63,1,8.91,2.25,12.96,3.68c7.95-32.63,12.24-62.53,28.05-71.15c25.3-13.8,43.22,10.17,52.77,48.57
	c-1.56,5.67-3.2,10.9-4.88,15.98c12.77-3.38,29.01-2.87,37.79-2.21c4.49,2.35,8.53,4.7,12.34,7.06
	c26.34-29.9,49.84-50.09,77.67-79.94c2.03-4.55,4.33-8.29,6.16-10.99c-1.47,0.17-1.59,0.24-1.4,0.08c0.15-1.18,0.32-2.35,0.48-3.53
	c-67.38,3.59-110.83-85.75-198.26-39.29c-7.1-3.55-12.8-7.39-17.51-11.69c-85.3,27.1-170.78,41.13-272.44,55.05
	c-1.38-5.8-3.3-11.56-5.5-17.31c-0.76,2.66-1.51,5.31-2.38,7.99c-13.47,23.02-21.68,34.06-42.95,46.93
	c-10.03,3.82-18.81,5.95-26.87,6.11c-61.01,44.49-116.89,108.92-215.34,122.08c-1.83-0.03-3.46-0.36-4.9-0.93
	c1.17,108.14-99.5,150.65-133.04,243.05c-5.69,7.44-11.2,13.27-16.83,17.69c21.81,34.84,69.19,77.15,15.08,97.54
	c-44.84,16.89-52.88-49.97-82.83-91.07c2.68-2.35,5.63-4.13,8.78-5.64c35.56-107.58-37.84-264.47,138.28-307.63
	c34.06-8.35-107.5-14.99-38.53-71.57c27.46-22.52,78.38,3.33,95.06,65.66c1.03,2.18,2.01,4.13,2.98,6.01
	c2.75,2.34,5.44,5.24,8.13,8.12c48.31-56.51,26.5-121.69,32.66-195.04c0.1-7.52,4.66-11.48,10.5-13.66
	c-0.75-84.93-193.92-134.82-47.22-230.28c-5.34-15.88-10.62-29.83-15.99-41.84c-2.88-3.56-6.08-6.5-9.81-8.44
	c-71.95-37.45-115.1,19.79-177.26,61.16c-7.2-1.08-13.72-2.5-19.96-4.12c-45.09,214.32-62.15,414.34-179.35,609.33
	c-91.82,152.77-129.84,152.96-260.72,75.36c-1.21-2.7-2.17-5.38-3.19-8.07c-0.68,0.12-1.36,0.3-2.03,0.42
	c-5.19,43.68-1.66,76.09,1.98,108.35c-136.11-31.71-188.91,90.47-303.8,148.37c-1.81-0.3-3.5-0.62-5.24-0.92
	c3.34,2.31,3.35,2.29,3.3,2.34c0.12,18.52,0.32,36.97,0.74,69.25c0.22,13.82-0.74,14.77-1.19,15.23c-3.91,3.74-8,6.89-12.47,9.45
	c0.3,1.77,0.54,3.54,0.76,5.32c0.26-0.25,0.5-0.44,0.76-0.7c77.17,87.45,253.69,133.99,170,314.9
	c-13.24,28.63,61.34,42.33,100.3,55.1c77.82,25.51,127.21,63.91,45.2,154.32c-9.13,2.25-17.17,3.74-24.93,4.79
	c-82.89,192.92,161.5,62.69,172.41,165.2c5.93,6,11.79,11.79,17.64,17.54c35.56-16.64,65.13-29.22,75.01-83.15
	c2.83-1.88,5.64-3.45,8.44-4.85c-182.35-22.17-86.86-155.61-127.69-241.13c97.35,8.81,176.03,15.92,271.1,23.11
	c3.71,4.07,6.52,8.16,8.82,12.37c70.57-55.53,47.41-105.56,14.32-168.67c-5.8-8.52-10.25-16.45-13.49-23.9
	c-60.01,10.87-140.48,18.84-123.23-64.2c14.8-71.28,98.06-55.97,169.18-18.24c-0.48,2.72-1.13,5.25-1.76,7.8
	c14.68,3.47,26.85,3.72,33.28,3.57c4.55,2.99,8.77,5.47,12.93,7.37c-0.03-0.02-0.05-0.04-0.07-0.06c3.12-7.95,11.85-8.41,33.69-8.69
	c0.71,3.18,0.96,6.36,0.7,9.27c1.64-0.59,3.23-1.12,4.98-1.88c7.43-7.21,26.31-6.83,35.75-6.58c6.87,1.53,13.42,3.22,19.85,4.97
	c12.31-15.12,23.56-21.03,34.43-21.23c-44.12-19.99-91.52-33.99-134.7-63.9c-4.64-9.25-7.84-17.5-9.96-25.45
	c-75.76-28.94-160-24.63-259.59-21.09c-1.95-85.08-114.87-66.83-127.41-140.48c93.16-42.84,185.7-85.4,289.23-133.02
	c57.79,63.81-0.29,174.79,100.57,225.78c1.22,2.26,2.21,4.41,3.23,6.58c34.1-34.05,64.51-44.2,112.41-51.83
	c3.17-0.23,6.13-0.33,9.2-0.51c-22.57-60.61,8.94-119.14,43.46-188.35c49.59,77.42,187.43,75.9,139.61,225.3
	c40.23,32.41,66.01,78.97,127.79,81.43C2468.98,1814.85,2469.02,1809.83,2469.08,1806.17z M1741.51,1796.03
	c11.99-1.48,12.85-0.64,13.28-0.2c-2.97,27.69-3.64,58.09-38.78,63.39c-7.6,1.15-17.7-14.26-26.65-22.04
	C1702.74,1823.95,1716.13,1810.73,1741.51,1796.03z M1407.69,1742.56c-2.32-10.98,32.78-41.54,52.36-43.21
	c50.74-4.33,36.96,40.67,42.14,83.03C1462.55,1791.44,1417.75,1790.2,1407.69,1742.56z M1517.46,1813.17
	c-3.58-2.06-7.17-4.12-12.96-11.98c-2.21-5.8-2.19-5.82-2.17-5.83C1507.38,1801.28,1512.42,1807.23,1517.46,1813.17z
	 M1530.93,2044.76c-0.49,2.1-13.92,3.89-14.36,2.87c-5.25-12.33-9.18-25.21-13.24-50.59c17.89-92.68,55.53-121.74,133.52-59.75
	C1597.31,1970.78,1543.93,1989.27,1530.93,2044.76z"/>
<path class="st51" d="M2236.31,1972.47c-23.71,17.6-43.84,1.86-66.4-16.69c-7.75-1.32-15.74-2.4-24.44-2.84
	c-20.66,1.69-28.98,2.69-49.94,4.74c-21.14,1.01-29.64,0.98-51.05-0.38c-21.6-2.94-30.28-4.55-51.35-8.81
	c-1.38-0.12-2.73-0.3-4.08-0.48c-5.74,11.4-12.67,22.9-20.03,36.54c5.26,3.25,10.76,6.87,16.2,11.17
	c54.26,60.61,67.49,115.32,19.51,186.19c-14.88,10.19-29.13,17.9-42.94,23.6c1.69,9.06,2.2,19.41,2.53,31.8
	c0.36-0.22,0.7-0.44,1.06-0.66c145.26-44.65,290.85-65.56,313.51-249.85c-2.45-3.58-5.06-6.79-7.62-10.1
	c-1.7,0.51-3.4,1.01-5.32,1.51C2255.32,1976.8,2245.61,1974.76,2236.31,1972.47z"/>
<path class="st51" d="M2271.27,1976.71c2.56,3.3,5.17,6.51,7.62,10.1c-22.66,184.29-168.25,205.2-313.51,249.85
	c-0.36,0.22-0.7,0.44-1.06,0.66c0.05,1.93,0.11,3.76,0.16,5.79c-0.45,0.88-0.9,1.68-1.34,2.55c4.15,4.33,9.22,8.44,15.55,12.44
	c194.55,52.17,269.05-115.06,384.26-190.07c52.9-34.45,7.21-95.29-71.24-104.07C2287.4,1970.38,2281.19,1973.75,2271.27,1976.71z"/>
<path class="st51" d="M1993.13,1948.49c21.07,4.26,29.75,5.87,51.35,8.81c21.41,1.36,29.9,1.39,51.05,0.38
	c20.97-2.04,29.28-3.04,49.94-4.74c8.7,0.44,16.7,1.52,24.44,2.84c-10.16-8.35-20.81-17.26-32.52-23.93
	c1.29-1.75,2.56-3.39,3.83-4.95c-6.43-1.75-12.98-3.43-19.85-4.97c-9.44-0.25-28.31-0.63-35.75,6.58c-1.75,0.76-3.34,1.29-4.98,1.88
	c-1.1,12.44-11.45,19.77-34.32-0.52c-4.16-1.9-8.38-4.37-12.93-7.37c-6.44,0.16-18.6-0.1-33.28-3.57
	c-2.61,10.5-6.43,19.84-11.07,29.07C1990.4,1948.19,1991.75,1948.36,1993.13,1948.49z"/>
<path class="st51" d="M2004.73,2181.91c47.98-70.88,34.74-125.59-19.51-186.19c-5.45-4.29-10.95-7.91-16.2-11.17
	c-1.3,2.41-2.6,4.78-3.92,7.34c-2.98,0.57-6.05,1.13-9.16,1.7c3.24,7.45,7.7,15.38,13.49,23.9
	c33.09,63.11,56.25,113.13-14.32,168.67c3.29,6,5.38,12.34,6.68,19.35C1975.6,2199.81,1989.84,2192.1,2004.73,2181.91z"/>
<path class="st38" d="M2033.8,1747.52c-100.86-50.99-42.78-161.97-100.57-225.78c-103.53,47.61-196.07,90.17-289.23,133.02
	c12.54,73.65,125.46,55.4,127.41,140.48c99.58-3.54,183.83-7.85,259.59,21.09c-0.21-0.77-0.38-1.54-0.56-2.31
	c-4.21-17.64-2.35-34.05,4.91-55.84c0.4-1.21,0.7-2.32,1.14-3.57c0.19-0.19,0.37-0.33,0.56-0.52
	C2036.02,1751.93,2035.02,1749.78,2033.8,1747.52z"/>
<path class="st53" d="M929.26,2680.78c53.04-29.37,109.24-65.75,151.83,28.88c0.53,5.42,0.9,12.16,1.15,18.83
	c77.78-32.28,142.06-90.99,238.65-47.39c6.74,4.06,12.12,8.2,16.39,12.56c22.4-19.83,44.79-28.43,73.18-46.77
	c-1.58-10.3-2.02-18.89-0.71-26.16c-116.53-64.22-222.98-142.55-154.37-302.75c46.78-109.23,98.51-99.43,149.8,10.14
	c11.79-16.54,24.36-28.02,44.98-41.85c23.36-7.87,39.91-9.79,58.69-4.83c10.14-23.67,17.12-43.9,9.82-47.79
	c-180.38-96.08-144.56-325.11-280.48-463.31c2.61,24.58-2.32,49.18-7.39,73.78c-14.89-12.2-29.78-24.4-54.51-42.58
	c-2.74-3.56-4.69-6.66-6.15-9.66c-3.71,3.52-3.88,3.54-3.87,3.6c-2.6,2.6-5.22,5.21-7.97,7.93c2.05,8.75-6.17,18.65-24.66,29.79
	c-0.75-1.25-1.25-2.53-1.54-3.83c-0.34,0.34-0.65,0.65-1,1c-6.81,7.18-6.85,7.03-6.77,7.07c-2.67,2.09-5.41,4.08-8.23,6.09
	c1.2,10.81-7.08,20.42-24.7,31.52c-2.69-1.99-5.07-3.85-7.19-5.6c-1.87,55.02-1.74,99.48-1.99,161.22c-3.4,1.76-6.8,3.28-10.2,4.93
	c18.33,5.25,24.74,8.6,21.47,12.93c29.24,1.39,68.89-13.98,70.8,23.12c1.21,23.44-44.47,11.97-75.2-13.84
	c-1.18-1.59-2.09-2.86-2.9-4.01c-0.68,0.37-1.36,0.74-2.12,1.13c-2.73-6.87-6.74-12.72-14.3-18.25
	c-55.81,26.75-112.23,39.68-182.06,52.58c-2.56-6.07-5.32-12.1-8.21-18.09c-2.33,1.54-4.67,3.17-7.02,4.79
	c-0.3,20.78-0.36,27.99-0.32,45.03c-4.57,5.67-8.19,11.19-11.12,16.62c15.61,39.97,114.5,62.53,22.63,119.04
	c-5.61-2.35-11.11-4.69-16.52-7.06c-27.42,56.98-62.79,36.65-108.78,11.37c-2.96-3.43-5.58-6.53-8.09-9.5
	c-0.23,0.15-0.46,0.31-0.69,0.46c-2.83,40.32-3.13,71.08-3.43,115.4c-4.14,4.02-8.31,7.38-12.5,10.45
	c50.53,10.23,106.09-6.47,115.07,40.74c12.57,66.03-96.66,39-100.45,119.2c-4.87,3.32-9.64,5.79-14.49,7.73
	c9.51,41.3,11.53,77.49,11.92,120.15c0.96,1.06,1.84,2.14,2.84,3.18c15.32,14.56,21.36,21.06,32.66,38.06
	c22.71-33.92,53-48.24,98.97-52.07c7.57,12.77,16.04,22.28,25.17,29.52c6.92-1.36,13.99-2.66,21.5-3.84
	C927.69,2680.49,928.44,2680.66,929.26,2680.78z M1016.42,2374.91c54.41,39.77,113,73.83,119.04,158.6
	C977.68,2561.42,977.68,2561.42,1016.42,2374.91z"/>
<path class="st53" d="M1529.37,2297.07c7.77-1.05,15.8-2.54,24.93-4.79c82.01-90.41,32.63-128.81-45.2-154.32
	c-38.96-12.77-113.54-26.47-100.3-55.1c83.68-180.91-92.84-227.45-170-314.9c-0.26,0.26-0.5,0.45-0.76,0.7
	c0.07,0.55,0.11,1.1,0.16,1.65c135.93,138.21,100.1,367.23,280.48,463.31c7.3,3.89,0.32,24.13-9.82,47.79
	c7.28,1.92,14.87,4.78,23.36,8.88C1531.15,2292.68,1530.35,2294.79,1529.37,2297.07z"/>
<path class="st18" d="M529.72,1234.1c-0.07-0.06-0.13-0.12-0.2-0.18c-0.02,0.01-0.03,0.03-0.05,0.04
	C529.55,1234.01,529.64,1234.06,529.72,1234.1z"/>
<path class="st18" d="M498.41,2587.64c-37.61,2.37-69.93-6.83-86.61-62.04c-6.72-11.97-11.72-22.24-14.68-32.37
	c-68.44-23.04-133.86-78.64-216.76-2.69c-17.75-68.49,21.61-111.85,38.96-166.96c57.62,31.63,111.59,61.26,178.05,96.69
	c2.89,5.69,5.05,11.07,6.76,16.39c80.99-56.18,11.78-160.2,84.95-202.79c66.12,9.62-2.69,99.8,78.66,106.5
	c3.32,5.95,7.11,11.51,11.23,16.79c0.14-0.81,0.21-1.57,0.38-2.4c44.6-2.85,89.11,6.21,145.08,20.67
	c-11.02-27.84-12.65-51.64-6.79-85.38c8.99-18.67,19.75-30.35,31.96-38.17c0.03-0.39,0.06-0.78,0.08-1.18
	c-10.53-12.43-18.53-21.54-34.04-32.3c-7.3-5.12-13.8-11.13-19.99-17.32c-33.09,4.88-67.51-1.5-109.23-17.2
	c-0.62-5.59-0.87-10.92-0.96-16.13c-119.13-11.12-32-96.22-59.98-139.96c156.58-91.4,98.07-246.95,125.07-390.34
	c0.63,5.63,1.34,11.16,2.15,16.59c0.12-3.96,0.27-7.96,0.49-12.07c9.09-33.31,9.23-52.23,9.61-85.32
	c4.63-5.93,9.4-11.23,14.24-16.18c42.35-71.73,33.16-199.82,180.08-207.22c15.07-0.28,15.11,0.09,15.26,0.14
	c1.26,2.16,2.48,4.36,3.54,6.81c11.95-58.4,25.03-102.27,38.28-158.78c-3.51-9.48-7.08-16.72-11.09-23.03
	c-7.74-1.04-16.6-9.57-26.66-25.63c1.58-0.32,3.44-0.07,5.53,0.67c-0.97-0.98-1.89-1.91-2.91-2.94
	c-25.61-7.16-44.08-7.12-76.41-7.05c-5.77-8.47-11.54-15.99-17.33-22.72c0.98,2.67,1.95,5.31,2.92,8.09
	c-88.61,31.34-116.61,156.26-238.08,140.92c-5.28-3.64-10.16-7.33-14.85-11.07c0.38,8.97,0.76,10.39,0.89,10.46
	c0.01-0.01,0.03-0.02,0.04-0.03c-0.01,0.03-0.02,0.04-0.04,0.03c-2.9,1.98-5.87,3.96-9.61,5.46c0.51,12.27-7.42,21.44-28.22,1.92
	c-0.67-1.23-0.54-2.23,0.13-3.08c-10.99-3.87-26.04-4.04-34.34-4.01c-3.87-4.39-8.1-8.49-12.47-12.49
	c-139.24,23.81-199.06,204.65-365.84,175.75c0.84-3.9,1.29-7.67,1.54-11.38c-0.93,0.15-1.83,0.34-2.77,0.48
	c-0.69,26.78-0.08,33-2.97,27.22c-4.62-9.25-8.64-10.15-11.27-8.88c-4.71,8.37-3.89,1.88,0,0c0.28-0.5,0.56-1.01,0.88-1.62
	c-2.74,1-4.67,1.64-3.27,0.98c1.47-0.57,2.58-0.98,3.43-1.29c0.48-0.92,0.97-1.86,1.54-3.04c3.78-7.86,9.16-15.15,14.36-24.59
	c-6.78-86.73-166.51-126.52-96.55-251.44c1.5-8.42,3.3-16.72,5.31-24.9c-31.57-13.66-54.49-34.22-83.18-63.87
	c-7.11-8.1-12.43-15.67-16.44-23.16c-18.17-1.93-37.09-11.56-63.89-23.72c0.59-3.87,1.38-7.59,2.26-11.24
	c-0.49,0.17-0.96,0.33-1.46,0.5c-92.19,0.35-36.19-61.6-53.08-107.01c2.13-6.27,4.6-12.42,7.26-18.49
	c-43.61-9.68-76.01-22.91-120.53-37.32c-4.59-8.39-11.68-13.97-20.33-17.75c0.7,1.7,1.25,3.48,1.58,5.37
	c-82.88,74.06-168.07,153.2-279.82,50.23c-50.4-46.43,8.46-63.96,25.77-103.19c-3.82-6.97-7.55-14.34-11.19-22.2
	c-29.61,2.73-56.11,2.77-91.34,2.77c-7.51-2.73-13.05-5.5-17.5-8.83c-166.05,155.59-165.5,156.37,26.84,225.35
	c82.37,29.54,37.91,79.14,13.09,113.91c-40.2,56.28-96.44,102.62-91.54,210.94c-0.46,0.34-0.92,0.62-1.38,0.95
	c2,3.68,4.11,7.39,6.39,11.14c0.28,0.2,0.5,0.4,0.78,0.6c4.49-6.74,5.37-7.64,5.88-8.15c139.41-11.78,127.45,85.54,127.06,191.56
	c-2.73,6.73-5.51,10.86-8.94,13.49c29.71,81.84,22.35,154.72,3.15,241.09c-4.11-0.71-7.88-1.5-11.66-2.29
	c0.96,2.31,1.83,4.61,2.9,6.92c15.73,10.12,23.91,10.63,43.28,11.25c16.5-13.54,24.6-24.58,45.75-37.51
	c6.62-9.87,13.3-18.86,20.16-27c-8.78-43.81-32.01-102.33,25.53-122.66c52.99-18.72,103.02,17.96,128.9,89.52
	c-3.53,1.91-7.11,3.59-10.67,5.34c12.11,9.83,13.42,27.75,13.96,49.18c47.46,5.35,96.68,17.21,106.09,69.2
	c10.26,56.66-39.86,54.08-92.06,58.81c-5.85-3.73-10.71-7.6-14.85-11.61c0.41,15.22,0.3,33.19,0.67,42.56
	c-1.65,0.88-3.4,1.75-5.21,2.62c69.66,10.6,130.03,13.47,202.22,11.69c13.97-6.39,25.23-9.68,36.67-8.32
	c59.24-52.42-96.8-202.9,85.05-205.34c-2.35,6.13-4.31,12.38-6.31,18.62c2.05-2.77,3.97-5.53,6.18-8.32
	c48.56,13.85,82.73,38.05,128.21,67.94c7.58,5.75,12.6,10.26,15.72,15.18c13.4-1.55,26.21,4.82,4.95,27.83
	c-1.85,0.84-3.32,0.21-4.5-1.36c-2.88,5.05-2.91,5.65-3.22,5.77c-2.75,2.7-5.46,5.43-8.26,8.3c2.58,9.27-5.49,19.3-24.08,30.45
	c-0.43-1.46-0.38-3.15-0.05-4.97c-0.77,0.82-1.48,1.58-2.29,2.44c-40.96,31.45-74.8,55.94-120.55,85.25
	c-11.91,4.82-11.99,4.75-12.02,4.72c-1.82-4.04-3.51-8.08-5.17-12.12c-1.11,1.86-2.16,3.8-3.21,5.74
	c20.99,46.83,31.07,78.63,45.28,120.42c-0.52,0.4-1.04,0.7-1.56,1.08c7,3.58,12.49,7.37,18.46,12.89c4.9-1.84,11.1-1.82,19.92-1.75
	c3.93,3.12,7.45,6.29,10.78,9.48c-0.2-9.29-0.45-9.65-0.36-9.54c3.34-3.19,6.72-6.38,10.4-9.8c2.4-6.88,10.46-16.24,24.41-27.98
	c0.39,1.86,0.04,4.03-0.94,6.45c1.19-1.09,2.34-2.13,3.61-3.29c62.42,31.87,108.11,156.35,179.77-0.05
	c27.27-59.52,61.95,16.06,106.63,29.28c7.16-2.18,14.11-3.27,20.95-3.73c-9.8-54.14-66.87-123.44,21.85-141.53
	c80.53-16.42,90.44,58.56,95.1,136.28c-4.12,3.34-8.24,6.58-12.38,9.67c0.01,0,0.03-0.01,0.04-0.01
	c12.43,23.6,12.39,41.74,12.38,73.48c-4.91,9.21-10.23,15.97-16.15,20.92c-8.01,29.5-18.07,90.14-67.65,5.03
	c1.29-0.81,2.6-1.45,3.9-2.15c-127.06-6.01-242.4-1.1-356.67,62.63c1.45,4.98,2.88,9.93,4.5,15.07
	c-14.71,246.15,53.57,316.8,419.67,440.04c6.94,7.59,11.49,13.58,14.39,19.77c0.43-0.04,0.86-0.09,1.29-0.14
	C463.8,2643.64,479.05,2617.83,498.41,2587.64z M-440.77,1404.5c0.64,0.8,1.27,1.57,1.92,2.4c-33.27,60.67-85.68,68.98-131.88,27.18
	c-23.22-21.01,3.83-46.13,45.97-55.89c7.68-3.89,14.53-6.43,20.79-7.89c-5.74-25.4-3.79-51.59,22.82-49.39
	c35.13,2.89,43.16,39.7,49.87,83.71C-434.41,1404.92-437.57,1404.81-440.77,1404.5z M-266.98,1406.64
	c-85.03-14.24-111.06-63.19-97.2-130.09c2.1-10.13,51.65-23.51,69.35-14.94C-233.9,1291.11-195.84,1334.98-266.98,1406.64z
	 M366.76,1479.93c-16.1,58.75-27.73,122.41-99.26,139.26c-12.35,2.91-44.97-22.18-43.5-27.47c17-61.14,60.17-101.2,130.24-130.46
	C367.96,1466.37,368.53,1473.47,366.76,1479.93z M374.25,1457.29c-5.78,2.28-6.1,2.03-6.22,1.87
	C371.95,1457.68,375.99,1456.35,374.25,1457.29z"/>
<path class="st18" d="M70.41,1420.1C66.52,1421.98,65.7,1428.47,70.41,1420.1L70.41,1420.1z"/>
<path class="st23" d="M-486.02,609.54c22.3-12.07,90.33,24.98,63.17,46.36c-166.33,130.96,4.57,105.73,57.2,141.97
	c3.08-2.15,6.16-4.3,9.29-6.58c54.77-1.07,90.56,12.28,132.74,45.72c6.19,6.82,11.22,13.73,15.59,20.68
	c48.41-99.96,155.27-176.89,67.92-311.09c14.95-1.55,28.95-2.64,42.17-3.32c-7.22-2.38-14.64-4.7-22.41-6.91
	c-10.83-80.46-38.14-195.04,76.35-196.59c104.81-1.42,160.22,89.04,159.97,199.07c-0.36,160.92,66.03,176.22,196.33,81.64
	c1.59,3.34,2.94,6.72,4.18,10.14c0.08-0.15,0.14-0.28,0.22-0.42c9.75-12.02,9.71-32.41,9.67-42.61c4.19-4.32,8.56-7.99,13.04-11.26
	c-83.36-71.97-1.64-128.52,17.66-200.84c7.67-3.3,15.41-6.09,23.11-8.61c2.67-90.51-149.74-172.26-33.51-237.41
	c62.88-35.25,142.38,95.82,256.72,70.14c7.5-2.27,14.7-4.15,21.77-5.86c-5.46-6.53-5.71-14.05-6.05-27.19
	c2.73-6.12,5.56-11.85,8.44-17.41C491.84-29.4,313.42-71.94,92.58-51.69c-9.51-1.68-18.23-3.93-26.57-6.47
	C52.14-36.29,32.88-23.97,2.81-11.15c-8.19,0.36-15.9,0.87-23.45,1.44c-14.73,49.72-41.59,79.5-106.42,44.53
	c-4.91-1.86-7.37-6.89-8.67-12.73c-73.6,18.19-123.77,142.87-207.74,23.85c4.43-2.16,8.9-4.12,13.35-6.15
	c-0.97-0.27-1.89-0.42-2.86-0.71c-45.28-94.89-131.81,63.42-171.65-44.27c-4.81-4.34-8.71-8.57-12.13-12.83
	c-5.86,6.92-20.48,6.89-28.72,6.94c-0.33-3.19-1.56-6.65-3.4-10.29c-0.03,0.05-0.06,0.09-0.09,0.14c-6.9,10.21-6.99,10.34-7.06,10.4
	c-3.72,3.59-7.64,6.61-11.82,9.1c8.13,36.33-1.73,64.38-61.78,36.67c-0.64-0.24-1.12-0.72-1.69-1.08
	c-21.46,38.21-47.12,61.65-82.41,91c-4.08,1.68-8.02,3.12-11.91,4.46c1.07,5.53,1.08,11.48,1.04,15.63
	c-3.14,5.69-6.16,10.56-9.25,15.16c1.32,6.66-6.13,18.33-22.83,34.65c-0.41-1.52-0.27-3.32,0.28-5.34c-0.82,1.01-1.6,1.96-2.46,3.03
	c-6.01,5.8-7.03,20.4-7.21,31.15c0.77,0.65,1.45,1.32,2.24,1.96c48.11,136.17-117.76,137.95-131.49,248.33
	c-9.72,22.29-17.08,37.55-26.98,55.22v11.98c70.23-28.38,149.73-29.06,196.17-117.01c4.87-7.68,10.05-14.8,15.46-21.22
	c-53.19-144.02,95.72-83.46,148.6-127.26c1.73,4.68,3.3,9.18,4.74,13.54c10.35-5.59,24.49-5.6,32.46-5.56
	c7.03-1.4,12.91-3.25,17.99-5.48c2.36-25.59,9.97-46.4,25.16-72.04c2.09,1.42,4.23,2.9,6.38,4.41
	c52.25-29.13,93.51-74.5,132.98,13.41c47.49,105.74-59.06,148.09-73.87,227.26c-5.15,27.55-85.33,66.9-121.24,58.43
	c-167.31-39.45-127.38,100.76-174.76,183.81c-3.24-0.37-6.31-0.9-9.32-1.47c-0.7,7.21-1.16,12.82-1.46,17.79
	c32.57-6.14,59.08-4.24,94.67,5.93c3.7,9.41,7.5,18.31,11.39,26.7c5.32-0.49,10.75-1.07,16.34-1.75
	C-586.87,667.89-534.93,636-486.02,609.54z M179.35,482.26c5.79,10.54,16.69,21.35,16.17,31.57c-0.77,14.9-0.22,45.12-31.88,9.63
	C167.82,503.38,173.58,492.82,179.35,482.26z"/>
<path class="st60" d="M1082.52-546.42c-5.52-7.69-11.27-14.83-17.15-21.68c-93.31,11.87-188.56,12.36-300.5,13.99
	c2.82-4.79,6.12-9.63,9.66-14.51c-6.19,2.12-12.47,4.28-18.83,6.63c-9.46,9.32-9.38,27.2-9.24,36.13
	c-3.12,6.23-6.33,10.69-10.43,13.69c1.23,13.19-6.87,24.37-29.95,3.68c0.36-0.88,0.79-1.64,1.29-2.33
	c-11.27-4.49-25.79-4.31-33.66-4.16c-5.85-3.92-11.57-7.02-17.26-9.77c-11.5,9.58-30.01,9.66-61.64,9.11
	c-94.3,346.58-363.5,259.69-607.87,245.17c-2.46-7.08-5.03-13.86-7.67-20.51c-10.83,18.5-20.47,34.88-30.57,57.28
	c-1.13,9.1-2.71,17.01-4.63,24.1c41.23,36.91,76.78,80.55,116.25,133.9c3,4.05,5.96,8.02,9,12.18c-1.05,1.89-2.2,3.59-3.32,5.35
	c8.33,2.54,17.05,4.79,26.57,6.47C313.42-71.94,491.84-29.4,627.55,149.16c2.98-5.75,6.06-11.19,9.25-16.28
	c30.4-48.49,70.99-65.5,139.44-23.08c6.68,3.54,12.76,7.39,18.45,11.45c17.37-22.58,35.89-34.65,64.28-47.41
	c0.86,2.97,1.52,5.97,2.27,8.96c3.76-70.41,33.78-138.26-56.86-174.37c-7.67-3.63-13.27-6.9-17.16-10.49
	c-9.31,12.98-18.75,17.36-28.2,21.63c4.23-16.11,8.45-32.21,21.61-52.59c2.19,0.73,3.82,1.72,5.03,3.08
	c18.64-13.19,28.71-21.5,40.32-40.3c2.65-8.61,5-17.29,7.21-25.98c-72.37-73.6-58.01-146.49,18.86-212.49
	c40.66-34.91,56.01-147.15,144.68-35.85c-9.26,5.28-17.26,11.21-24.3,17.64c3.55-1.37,7.17-2.71,10.94-3.98
	c39.79-21.13,64.41-42.04,94.11-74.26c3.5-2.88,6.77-4.9,9.78-6.33C1082.66-523.18,1082.55-538.18,1082.52-546.42z M680.47-40.1
	c-22.14,33.78-57.8,29.21-101.45,18.64c13.57-46.87,47.96-63.77,92.43-52.8C677.35-72.81,685.05-47.08,680.47-40.1z"/>
<path class="st2" d="M1204.12,1657.08c0.07,0.17,0.14,0.33,0.22,0.5c0.13,0.04,0.26,0.07,0.39,0.1
	C1204.53,1657.49,1204.31,1657.29,1204.12,1657.08z"/>
<path class="st2" d="M1244.01,1656.84c0.48,0.51,0.94,0.97,1.42,1.49c1.34,3.05,0.71,5.3-1.05,6.99c0.99,0.69,1.84,1.28,2.52,1.76
	c1.74,0.31,3.43,0.62,5.24,0.92c114.89-57.91,167.69-180.08,303.8-148.37c-3.64-32.26-7.18-64.67-1.98-108.35
	c-5.77,1.02-11.55,1.88-17.33,2.56C1422.67,1483.08,1297.46,1519.17,1244.01,1656.84z"/>
<path class="st2" d="M1557.52,1287.22c-20.19-34.88-26.91-70.02-43.75-112.96c-3.15-2.39-5.36-4.09-7.02-5.38
	c-7.77,5.31-14.83,11.4-21.6,17.76c0.01,77.17-22.5,142.26-133.56,106.32c-37.46-12.12-99.96-8.01-88.07-59.6
	c27.59-119.69,133.76-47.83,221.13-68.09c0.24,5.39,0.41,10.76,0.48,16.08c5.33-3.63,10.62-7.64,15.93-12.11
	c0.99-0.87,1.88-1.75,2.83-2.62c-1.52-1.23-1.66-1.42-1.77-1.53c6.44-36.37,13.1-72.53,30.9-117.12c4.58,2.19,8.9,4.6,13.09,7.13
	c-0.11-0.41-0.23-0.79-0.33-1.21c-1.63-21.63-1.66-28.91-1.47-47.11c3.11-4.58,6.41-8.35,9.85-11.52
	c-9.58-3.3-9.92-20.75-9.96-29.99c3.74-0.51,7.47-0.86,11.21-1.08c-11.31-9.12-30.63-9.43-40.31-9.37
	c-6.26-1.54-11.59-3.31-16.42-5.43c-3.39,5.72-11.07,6-26.7,6.29c-5.14,0.05-7.96-0.03-9.59-0.16c-0.09,0.09-0.16,0.15-0.24,0.24
	c0.01-0.06,0.05-0.18,0.07-0.25c-1.77-0.15-2.02-0.36-2.16-0.5c-0.27-0.27,0-21.26,0.16-31.76c2.37-0.53,4.74-0.52,7.14-0.21
	c-0.42-0.53-0.81-0.99-1.24-1.54c-5.75-8.76-5.85-8.28-5.56-8.29c3.41-2.51,6.72-5.04,10.02-7.59
	c-82.78-62.4-165-15.94-237.04-12.14c-82.55,4.36-138.21-44.65-124.29-94.78c65.34-235.27-45.63-301.11-265.59-299.86
	c-2.65-4.8-4.66-9.34-6.38-13.83c-65.85,73.59-127.43,50.87-202.53,16.73c-5.44-4.37-9.9-8.71-13.66-13.03
	c-37.98,198.89-153.43,126.95-270.5,91.62c-3.8,23.3-6.42,32.48-16.54,53.9c-4.62,3.4-9.08,6.66-13.49,9.87
	c5.66,23.43,5.6,50.03,5.52,85.39c4.04,9,6.81,17.35,8.66,25.3c49.08-9.3,97.24-8.65,119.27,36.99
	c28.16,58.34,142.06-4.46,129.58,95c-8.69,69.27-87.52,56.62-124.95,91.59c-100.21,93.61-86.81-70.13-160.95-63.39
	c-4.3-2.9-7.11-5.65-9.07-8.62c-4.35,6.75-4.46,6.9-4.48,6.94c-2.85,5.28-6.01,10.13-9.32,14.78
	c13.46,56.01-6.21,118.41,80.38,150.91c4.51,7.08,9.29,13.77,14.24,20.21c0.17-0.95,0.21-1.8,0.4-2.78
	c33.77,0.04,66.65,19.95,113.42-10.73c11.79,0.98,21.19,2.65,28.83,4.84c89.6-30.49,188.75-215.39,271.82,6.19
	c1.21-0.16,2.33-0.42,3.55-0.56c33.23-3.8,52.36-2.24,85.08,7.38c30.26,17.49,44.36,31.68,62.97,61.71
	c20.63,66.95,9.8,114.63-35.42,167.59c-6.39,3.72-12.57,7.5-18.64,11.31c4.37,1.95,8.58,6.13,12.12,10.86
	c1.17,1.56-4.86,8.53-14.61,16.63c-2.43,1.25-3.96-0.45-4.95-3.6c-16.93,12.68-27.2,20.73-39.32,39.3
	c-4.9,5.88-9.16,10.85-13.25,15.56c3.46,8.94-4.45,19.56-24.05,31.92c-0.62-1.03-1.01-2.1-1.3-3.18c-0.27,0.31-0.51,0.57-0.78,0.89
	c-17.66,33.61-36.93,58.28-66.28,73.47c-14.67,7.59-31.81,12.85-52.61,15.58c0.22-0.37,0.42-0.76,0.64-1.12
	c-4.84,4.95-9.61,10.25-14.24,16.18c-0.38,33.09-0.51,52-9.61,85.32c-0.22,4.12-0.37,8.11-0.49,12.07
	c6.21,41.79,18.29,76.96,46.14,96.38c24.77,17.28,62.01,22.1,118.71,7.99c-2.58,7.04-4.13,13.95-4.9,20.76
	c0.74-0.34,1.48-0.69,2.23-1.04c2.04-4.21,4.24-8.47,6.63-12.77c11.48-71.94,14.59-132.35,18.03-199.16
	c143.42,96.51,143.42,96.51,158.79-90.52c106.93-40.74,29.77,139.68,155.39,109.91c7.14,4.48,12.96,9.25,17.95,14.35
	c22.11,8.56,45.12,27.85,72.3,56.92c53.45-137.67,178.66-173.76,292.62-243c5.78-0.68,11.55-1.54,17.33-2.56
	c0.17-1.44,0.31-2.84,0.5-4.31c-10.03-28.92-10.06-58.29-10.19-99.83C1548.48,1299.6,1552.9,1293.13,1557.52,1287.22z
	 M1454.33,957.67C1455.41,957.35,1454.87,957.51,1454.33,957.67L1454.33,957.67z M1396.01,1058.21c0.43-0.25,0.62-0.36,0.67-0.39
	C1396.45,1057.95,1394.22,1059.26,1396.01,1058.21z M997.49,1460.05c-18.44-5.18-36.28-10.99-54.11-16.79
	c13.68-28.31,29.29-13.84,50.27,6.37C999.13,1458.02,998.1,1459.42,997.49,1460.05z"/>
<path class="st2" d="M881.43,1344.16c6.07-3.81,12.25-7.59,18.64-11.31c45.21-52.96,56.04-100.64,35.42-167.59
	c-18.61-30.03-32.7-44.22-62.97-61.71c-32.72-9.62-51.84-11.18-85.08-7.38c-1.22,0.14-2.34,0.4-3.55,0.56
	c0.49,1.3,0.97,2.66,1.45,3.99c5.79,6.73,11.56,14.24,17.33,22.72c32.32-0.07,50.8-0.11,76.41,7.05c1.02,1.03,1.94,1.96,2.91,2.94
	c6.74,2.39,16.08,10.28,28,23.81c-2.18,1.13-4.48,1.47-6.88,1.15c4.01,6.32,7.59,13.56,11.09,23.03
	c-13.25,56.5-26.33,100.38-38.28,158.78c0.39,0.91,0.76,1.88,1.09,2.89C878.5,1343.14,879.97,1343.51,881.43,1344.16z"/>
<path class="st2" d="M334.04,634.23c10.13-21.42,12.74-30.61,16.54-53.9c-3.33-1-6.66-1.99-9.99-2.93c-0.42-0.35-0.77-0.7-1.18-1.06
	c-4.48,3.27-8.85,6.94-13.04,11.26c0.04,10.19,0.08,30.59-9.67,42.61c-0.09,0.15-0.14,0.28-0.22,0.42c1.6,4.39,2.95,8.87,4.07,13.47
	C324.96,640.89,329.42,637.63,334.04,634.23z"/>
<path class="st67" d="M2507.06,882.25c8.05-3.56,16.1-7.66,24.15-12.03c-2.33,0.46-4.66,0.93-7,1.38
	c-26.84-116.74,74.39-164.11,141.08-246.28c1.49-0.01,2.87,0,4.33,0c-24.5-39.17-27.17-68.96-14.97-114.02
	c4.96-6.7,10.03-12.6,15.2-17.94c-139.75-14.43-176.7-112.53-201.77-236.13c-1.45-7.04-2.34-13.57-2.98-19.85
	c-8.64,4.09-20.79,4.13-27.96,4.12c-13.26-6.53-23.62-12.41-34.79-19.35c-45.59,0.68-107.29,125.47-144.32-10.28
	c-2.36-9.92-4.7-16.92-5.91-23.33c-10.15-1.34-20.15-9.12-33.48-23.02c0.68-1.82,1.63-3.21,2.75-4.4
	c-71.47-119.01-154.92-236.3,70.78-286.27c7.22-0.67,14.22-1.51,21.28-2.3c-0.73-0.7-1.44-1.3-2.18-2.01
	c-10.7-25.28-10.81-43.98-11-76.69c1.72-3.91,3.5-7.29,5.3-10.41c-42.5-30.41-75.6-54.14-119.46-82.23
	c-2.15-1.52-4.28-3.03-6.38-4.53c-11.64,51.41,13.84,113.82-81.61,91.75c-5.87-5.69-11.2-11.02-16.42-15.95
	c-28.28,18.73-61.27,46.66-74.25-23.87c3.31-1.95,6.73-4.16,10.2-6.44c-15.2-18.43-23.19-29.43-43.74-42.48
	c-3.98-5.8-7.41-11.28-10.58-16.61c-18.73,11.92-37.81,12.05-70.67,11.91c-0.17-3.79,0.04-7.56,0.43-11.34
	c-0.89,0.85-1.61,1.66-2.54,2.52c-50.65,11.89-83.32,22.74-92.38,80.8c-4.3,5.4-8.67,10.01-13.11,14.06
	c67.21,68.79,212.73,33.32,205.3,172.7c-1.5,28.05,6.36,60.95-31.23,56.18c-21.31-2.7-39.16-32.62-69.04-56.99
	c-9.4-4.21-18.61-7.24-27.71-9.46c-65.33,53.88-89.82,112.36-29.35,185.07c72.75,87.48-6.51,113.97-52.41,162.57
	c-62.3-63.03,20.26-172.94-95.14-216.75c-4.37-1.04-7.31-3.43-9.45-6.41c-11.31,91.23-78.46,136.46-120.53,207.69
	c-1.23-0.27-2.54-0.94-3.88-1.79c-7.43,11.02-7.64,30.65-7.7,40.62c-3.28,5.9-6.46,11.48-9.66,16.91
	c9.81,12.92,10.21,30.51,10.69,60.36c5.62,8.92,11.51,16.72,17.54,24.08c38.24-1.95,73.16,17.24,101.94,65.45
	c-1.94,1.97-4.09,3.57-6.34,5c40.07,68.1,86.83,94.36,166.33,89.61c3.87,4.02,7.17,8.08,10.21,12.16
	c90.85-75.4,79.07,0.14,88.14,60.55c0.15,5.26,0.2,11.42,0.22,17.58c1.14,0.56,2.3,1.09,3.46,1.62
	c129.05-56.93,197.02-164.65,283.97-277.52c2.54,50.11,4.23,83.35,5.94,130.45c5.31,11.5,12.73,19.99,21.62,26.41
	c90.23-9.8,222.31-69.88,189.66,139.66c-1.76-8.82-4.49-16.31-7.96-22.86c0.27,8.53,0.03,17.79-0.92,28.07
	c52.22,45.48,5.84,79.54,8.25,125.63c-4.3,6.99-8.46,13.86-12.58,20.64c11.82,52.2,11.9,109.77,11.76,184.2
	c-5.32-1.14-10.66-2.84-16.02-4.79c2.32,3.67,4.68,7.37,7.13,11.08c5.4,10.38,9.91,18.24,14.8,24.91
	c27.85-16.84,44.68-26,74.52-40.36c3.42-1.12,6.72-2.11,10.11-3.2C2499.78,971.32,2475.56,931.96,2507.06,882.25z M1646.72,263.99
	c-0.16-0.26-0.3-0.49-0.39-0.63c-0.12-0.19-0.09-0.14,0,0C1646.4,263.48,1646.52,263.67,1646.72,263.99
	c0.16,0.25,0.23,0.37,0.31,0.49c0.18,0.29,0.23,0.37,0,0C1646.93,264.34,1646.83,264.17,1646.72,263.99z M1953.78,179.62
	c-10.27-6.57-15.47-39.52-8.31-51.61c30.16-50.97,70.05-59.79,117.85-0.86C2041.85,188.68,2005.41,212.69,1953.78,179.62z"/>
<path class="st67" d="M1992.77,732.41c-19.68-5.92-36.47-14.56-58.63-25.45c-6.17-4.33-10.63-8-13.68-11.86
	c-19.9,19.54-40.4,30.54-70.96,45.67c-2.14-2.56-4.25-5.14-6.31-7.73c-58.41,114.32-6.61,215.29-4.79,332.31
	c-4.93,5.84-10.04,10.81-15.3,15.06c-44.59,61.15-47.38,159.37-138.83,208.76c-4.66-2.63-8.54-5.36-11.78-8.18
	c-27.06,7.56-51.06,9.68-80.05,10.23c-1.36,43.71-10.82,74.05-37.65,112.76c-0.14,1.04-0.21,1.98-0.35,3
	c0.45,1.3,1.05,2.59,1.54,3.89c1.02,2.69,1.98,5.37,3.19,8.07c130.89,77.6,168.9,77.4,260.72-75.36
	c117.2-194.99,134.26-395.01,179.35-609.33C1997.06,733.66,1994.89,733.05,1992.77,732.41z"/>
<path class="st67" d="M1557.52,1287.22c-4.62,5.91-9.04,12.38-13.25,19.93c0.13,41.54,0.16,70.9,10.19,99.83
	c0.13-1.02,0.2-1.97,0.35-3c26.83-38.72,36.29-69.05,37.65-112.76c-10.13,0.19-20.86,0.21-32.58,0.22
	C1559.02,1290.03,1558.33,1288.62,1557.52,1287.22z"/>
<path class="st37" d="M2292.79,954.28c6.46-2.27,12.45-3.88,18.1-5c-4.98-50.55,25.66-72.97,65.62-94.69
	c5.71-56.04,25.98-98.25,17.24-155.92c0.43-28.87-3.96-50.74-11.92-67.66c-51.41-21.94-129.65-12.17-161.62-78.7
	c-0.26-0.09-0.52-0.17-0.78-0.25c-42.85-42.24-10.71-87.19-26.44-116.31c-19.37,125.43-101.15,199.3-234.4,240.96
	c-12.13-1.32-22.57-4.61-32.12-8.93c-1.16,0.51-2.29,1.04-3.46,1.54c0.01,5.82,0,11.43,0.02,16.23
	c30.82,2.59,52.98,13.81,74.83,42.1c122.42-114.26,168.12-132.3,208.41-42.01c8.44,10.42,14.1,26.18,21.8,38.02
	c-2.09,1.29-3.85,2.54-5.82,3.82c8.35,24.81,16.87,54.23,26.22,88.65C2259.59,856.97,2276.33,899.93,2292.79,954.28z
	 M2318.98,810.16C2319.42,810.86,2319.85,811.56,2318.98,810.16C2318.54,809.46,2318.1,808.76,2318.98,810.16z"/>
<path class="st37" d="M1997.87,727.65c0.72,0.94,1.45,1.81,2.17,2.79c-0.27,1.27-0.52,2.53-0.79,3.8
	c6.24,1.63,12.76,3.04,19.96,4.12c62.16-41.37,105.31-98.61,177.26-61.16c3.72,1.94,6.92,4.88,9.81,8.44
	C2165.99,595.35,2120.29,613.4,1997.87,727.65z"/>
<path class="st37" d="M2238.01,547.12c-8.89-6.42-16.31-14.92-21.62-26.41c-1.71-47.1-3.4-80.34-5.94-130.45
	c-86.95,112.86-154.92,220.58-283.97,277.52c9.55,4.32,19.99,7.6,32.12,8.93c133.25-41.66,215.03-115.53,234.4-240.96
	c15.73,29.12-16.42,74.07,26.44,116.31c0.26,0.09,0.52,0.17,0.78,0.25c-0.63-1.32-1.32-2.55-1.92-3.93
	C2224.55,548.35,2231.17,547.86,2238.01,547.12z"/>
<path class="st37" d="M1920.46,695.11c3.06,3.86,7.51,7.53,13.68,11.86c22.15,10.89,38.95,19.53,58.63,25.45
	c1.72-1.62,3.4-3.18,5.1-4.76c-21.85-28.29-44.02-39.51-74.83-42.1c0.01,2.61,0.03,5.04,0.07,7
	C1922.23,693.45,1921.34,694.24,1920.46,695.11z"/>
<path class="st37" d="M1997.87,727.65c-1.69,1.58-3.38,3.15-5.1,4.76c2.12,0.64,4.29,1.25,6.48,1.82c0.27-1.27,0.52-2.53,0.79-3.8
	C1999.32,729.46,1998.6,728.59,1997.87,727.65z"/>
<path class="st38" d="M1832.7,1929.38c-17.24,83.04,63.22,75.07,123.23,64.2c3.11-0.56,6.18-1.13,9.16-1.7
	c1.32-2.57,2.62-4.93,3.92-7.34c7.37-13.64,14.29-25.13,20.03-36.54c4.65-9.23,8.47-18.57,11.07-29.07c0.63-2.55,1.28-5.09,1.76-7.8
	C1930.76,1873.42,1847.5,1858.11,1832.7,1929.38z"/>
<path class="st53" d="M1503.33,1997.04c4.06,25.37,7.99,38.26,13.24,50.59c0.44,1.03,13.86-0.77,14.36-2.87
	c13.01-55.49,66.38-73.98,105.92-107.47C1558.86,1875.3,1521.22,1904.36,1503.33,1997.04z"/>
<path class="st2" d="M1460.05,1699.35c-19.58,1.67-54.68,32.22-52.36,43.21c10.06,47.64,54.86,48.88,94.5,39.82
	C1497.02,1740.02,1510.79,1695.02,1460.05,1699.35z"/>
<path class="st38" d="M1716.01,1859.22c35.14-5.3,35.81-35.7,38.78-63.39c-0.42-0.43-1.28-1.28-13.28,0.2
	c-25.38,14.7-38.77,27.92-52.16,41.14C1698.31,1844.95,1708.41,1860.36,1716.01,1859.22z"/>
<path class="st53" d="M1175.19,1759.89c14.76-5.54,30.91-5.77,54.82-5.56c-4.87-28.38-3.38-47.25,6.58-76.48
	c1.06-3.4,2.21-6.67,3.35-9.96c-6.05,2.2-15.16,2.56-21,2.94c-4.39-3.61-8.33-7.28-12.08-11.01c-0.54,0.17-1.07,0.26-1.62,0.45
	c-8,31.55-19.13,51.7-34.55,82.44C1171.84,1749.66,1173.63,1754.96,1175.19,1759.89z"/>
<path class="st53" d="M1239.94,1667.89c-1.14,3.29-2.29,6.56-3.35,9.96c-9.96,29.24-11.46,48.11-6.58,76.48
	c1.83,0.02,3.55,0.03,5.47,0.05c0.76,2.99,1.3,5.98,1.8,8.96c4.47-2.55,8.56-5.71,12.47-9.45c0.46-0.46,1.41-1.41,1.19-15.23
	c-0.42-32.28-0.62-50.73-0.74-69.25c0.05-0.04,0.03-0.02-3.3-2.34c-1.29-0.23-2.63-0.45-3.89-0.69
	C1242.12,1666.97,1241.1,1667.47,1239.94,1667.89z"/>
<path class="st53" d="M1243.01,1666.4c1.26,0.23,2.6,0.46,3.89,0.69c-0.68-0.47-1.53-1.07-2.52-1.76
	C1243.97,1665.71,1243.52,1666.07,1243.01,1666.4z"/>
<path class="st2" d="M1517.46,1813.17c-5.04-5.94-10.08-11.88-15.14-17.81c-0.01,0.01-0.04,0.04,2.17,5.83
	C1510.3,1809.05,1513.88,1811.11,1517.46,1813.17z"/>
<path class="st18" d="M1071.92,1855.86c-15.09,24.01-18.68,33.44-24.58,53.9c-6.11,49.84-5.56,84.85,22.8,125.27
	c0.67,0.19,1.25,0.36,1.89,0.54c3.4-1.65,6.8-3.17,10.2-4.93c0.25-61.74,0.13-106.21,1.99-161.22
	C1077.45,1863.81,1073.61,1859.41,1071.92,1855.86z"/>
<path class="st18" d="M1140.31,1793.07c-30.11,17.12-37.65,23.52-60.35,50.81c8.39-2.76,21.47-4.07,34.75-6.17
	c0.8,1.98,1.2,3.9,1.41,5.79c2.82-2.01,5.56-4,8.23-6.09c-0.08-0.04-0.05,0.11,6.77-7.07c0.35-0.35,0.66-0.65,1-1
	c-1.99-8.75,6.23-18.62,24.76-29.55c0.69,1.17,1.16,2.37,1.45,3.59c2.76-2.73,5.38-5.33,7.97-7.93c-0.01-0.06,0.16-0.08,3.87-3.6
	c-0.76-1.57-1.37-3.14-1.87-4.7C1159.98,1787.73,1150.85,1789.24,1140.31,1793.07z"/>
<path class="st18" d="M1204.34,1657.59c-0.07-0.17-0.14-0.33-0.22-0.5c-15.02-15.73-25.44-33.47-36.3-58.69
	c1.29,0.43,2.59,1.03,3.88,1.53c-4.99-5.09-10.81-9.86-17.95-14.35c-125.62,29.77-48.47-150.65-155.39-109.91
	c-15.37,187.03-15.37,187.03-158.79,90.52c-3.44,66.81-6.56,127.21-18.03,199.16c-2.4,4.3-4.59,8.55-6.63,12.77
	c-0.92,1.9-1.71,3.76-2.56,5.64c-5.53,92.01,135.79,166.49,64.94,282.84c0.75,1.51,1.5,3.02,2.23,4.54
	c53.23-35.19,103.5-49.19,168.43-45.81c9.64,3.76,16.58,7.46,21.85,11.32c0.75-0.36,1.49-0.72,2.24-1.08
	c-0.64-0.18-1.22-0.36-1.89-0.54c-28.36-40.42-28.92-75.43-22.8-125.27c5.9-20.45,9.49-29.89,24.58-53.9
	c-2.9-6.08,0.78-9.59,8.04-11.98c22.71-27.29,30.24-33.69,60.35-50.81c10.54-3.83,19.67-5.34,27.97-5.91
	c-2.02-6.34-2.12-12.98-2.1-23.21c2.68-1.47,5.36-2.66,8.08-3.73c-24.75-30.15-14.96-55.72,10.94-89.44
	c7.83-4.94,14.1-8.41,20.04-10.51c0.03-0.13,0.07-0.24,0.1-0.37C1204.99,1659.1,1204.68,1658.37,1204.34,1657.59z"/>
<path class="st18" d="M1170.7,1742.71c15.42-30.74,26.54-50.89,34.55-82.44c-5.94,2.1-12.21,5.57-20.04,10.51
	c-25.9,33.71-35.69,59.29-10.94,89.44c0.31-0.12,0.62-0.21,0.93-0.32C1173.63,1754.96,1171.84,1749.66,1170.7,1742.71z"/>
<path class="st11" d="M812.35,1783.76c0.09-1.53,0.15-3.06,0.33-4.6c0.78-6.82,2.32-13.72,4.9-20.76
	c-56.71,14.11-93.94,9.29-118.71-7.99c-27.85-19.42-39.93-54.59-46.14-96.38c-0.81-5.43-1.52-10.96-2.15-16.59
	c-27.01,143.39,31.51,298.95-125.07,390.34c27.98,43.74-59.15,128.83,59.98,139.96c-0.32-19.28,2.95-35.91,9.31-49.36
	c11.75-24.84,33.96-38.86,63.63-38.33c65.72,1.19,40.72,54.91,44.84,102.78c0.75,0.26,1.45,0.49,2.21,0.76
	c28.08,15.27,39.73,28.82,44.81,58.76c-0.22,2.88-0.4,5.57-0.59,8.34c0.2,0.24,0.41,0.48,0.61,0.72c22.13-13.85,49-15.1,78.98-20.93
	c-27.81-16.86-47.54-38.44-50.14-73.48c-0.46-6.2,35.99-15.15,69.99-23.17c-0.17-1.84-0.34-3.67-0.44-5.55
	c3.49-21.71,6.57-30.21,18.88-48.95c1.65-1.18,3.29-2.27,4.93-3.4c0.01-0.59,0.02-1.08,0.02-1.69c1.75-2.58,3.22-5.1,4.76-7.63
	C948.14,1950.26,806.81,1875.77,812.35,1783.76z"/>
<path class="st50" d="M1237.27,1769.36c0.31,0.32,0.62,0.63,0.93,0.95c-0.06-0.55-0.1-1.1-0.16-1.65
	C1237.78,1768.91,1237.53,1769.12,1237.27,1769.36z"/>
<path class="st50" d="M1238.2,1770.31c-0.31-0.32-0.62-0.63-0.93-0.95c0.26-0.25,0.51-0.45,0.77-0.7c-0.21-1.77-0.46-3.54-0.76-5.32
	c-0.5-2.99-1.03-5.98-1.8-8.96c-1.92-0.02-3.65-0.03-5.47-0.05c-23.91-0.21-40.06,0.02-54.82,5.56c-0.31,0.12-0.62,0.2-0.93,0.32
	c-2.71,1.06-5.4,2.26-8.08,3.73c-0.02,10.23,0.08,16.87,2.1,23.21c0.5,1.56,1.11,3.12,1.87,4.7c1.46,3,3.41,6.1,6.15,9.66
	c24.73,18.17,39.62,30.37,54.51,42.58C1235.88,1819.49,1240.82,1794.9,1238.2,1770.31z"/>
<path class="st50" d="M1116.12,1843.5c-0.21-1.89-0.62-3.81-1.41-5.79c-13.27,2.09-26.35,3.4-34.75,6.17
	c-7.26,2.39-10.93,5.9-8.04,11.98c1.69,3.55,5.53,7.95,12.31,13.56c2.11,1.75,4.5,3.61,7.19,5.6
	C1109.03,1863.92,1117.31,1854.31,1116.12,1843.5z"/>
<path class="st50" d="M1158.31,1803.39c-0.29-1.22-0.76-2.42-1.45-3.59c-18.53,10.93-26.75,20.8-24.76,29.55
	c0.3,1.3,0.8,2.58,1.54,3.83C1152.14,1822.04,1160.36,1812.14,1158.31,1803.39z"/>
<path class="st35" d="M433.03,1221.16c-29.95-23.75-61.35-46.09-65.34-89.48c-5.62-1.21-11.32-2.55-17.19-4.16
	c-82.42-31.72-109.11-83.46-101.22-169.05c0.49-1.46,0.94-2.71,1.41-4.07c-68.35,58.29-182.34,55.57-239.28,145.89
	c3.55,6.51,6.99,13.32,10.2,20.85c-70.28,119.34,45.74,154.78,78.54,234.08c-3.07,15.39-7.85,26.33-12.81,35.32
	c0.27,3.5,0.33,7.07,0.08,10.74c131.37-20.44,185.11-155.88,316.93-177.27C416.36,1222.26,424.63,1221.34,433.03,1221.16z
	 M55.2,1184.56c-0.1-0.16-0.19-0.32-0.27-0.45c-0.19-0.32-0.15-0.26,0,0C55,1184.23,55.06,1184.34,55.2,1184.56
	c0.1,0.17,0.19,0.32,0.27,0.45c0.19,0.32,0.15,0.26,0,0C55.4,1184.9,55.34,1184.79,55.2,1184.56z"/>
<path class="st35" d="M404.35,1224.01c-131.83,21.4-185.56,156.83-316.93,177.27c-0.25,3.71-0.7,7.48-1.54,11.38
	c166.79,28.9,226.61-151.93,365.84-175.75c-5.98-5.46-12.27-10.66-18.69-15.75C424.63,1221.34,416.36,1222.26,404.35,1224.01z"/>
<path class="st35" d="M21.6,1121.14c-3.21-7.53-6.65-14.34-10.2-20.85c-3.29,5.22-6.45,10.64-9.34,16.51
	c-2.06-0.81-3.97-1.73-5.96-2.59c-2.01,8.18-3.81,16.48-5.31,24.9c-69.96,124.92,89.77,164.71,96.55,251.44
	c4.95-8.99,9.74-19.93,12.81-35.32C67.34,1275.92-48.68,1240.47,21.6,1121.14z"/>
<path class="st35" d="M369.43,1099.2c-4.94-6.44-9.72-13.13-14.24-20.21c-86.59-32.49-66.92-94.9-80.38-150.91
	c-7.13,10.02-15.21,18.72-24.12,26.32c-0.47,1.36-0.92,2.6-1.41,4.07c-7.89,85.6,18.8,137.34,101.22,169.05
	c5.87,1.61,11.57,2.95,17.19,4.16C366.8,1121.99,367.23,1111.27,369.43,1099.2z"/>
<path class="st70" d="M-65.56,913.67c2.95,1.28,5.18,2.64,7.02,4.11c6.6-4.96,6.67-4.52,6.4-4.54c5.03-1.08,9.96-2.6,14.85-4.31
	c-13.84-46.36-12.54-92.03,18.5-131.78C70.88,662.33,36.82,590.99-87.38,546.9c13.85,127.4,36.23,246.19-115.22,320.13
	c18.44,34.5,21.54,70.04,44.58,103.88c0.09,0.04,0.16,0.07,0.25,0.11C-143.28,940.58-114.21,920.59-65.56,913.67z"/>
<path class="st35" d="M785.35,1100.7c-1.11-1.29-2.22-2.46-3.34-3.69c0.64-0.09,1.24-0.21,1.88-0.29
	c-83.07-221.58-182.22-36.68-271.82-6.19c13.36,3.83,20.93,9.36,24.57,16.1c15.71,29.1-41.31,80.63-20.67,114.4
	c4.15,4.38,8.62,8.68,13.54,12.89c0.07,0.06,0.13,0.12,0.2,0.18c1.74,1.07,3.52,2.14,5.56,3.14c0.02,0.53,0.04,0.92,0.06,1.41
	c4.68,3.73,9.57,7.43,14.85,11.07c121.47,15.35,149.47-109.57,238.08-140.92C787.3,1106.02,786.32,1103.37,785.35,1100.7z"/>
<path class="st35" d="M782.01,1097.01c1.11,1.23,2.23,2.4,3.34,3.69c-0.48-1.32-0.97-2.69-1.45-3.99
	C783.25,1096.8,782.65,1096.92,782.01,1097.01z"/>
<path class="st22" d="M284.4,880.48c1.7-7.26,3.42-14.16,5.15-20.94c-0.48-1.07-0.98-2.16-1.52-3.29
	C166.21,788.02,90.15,956.67-31.1,914.9c-6.81,6.97-13.66,13.29-20.6,19.08c0.16,3.08,0.16,6.55,0.12,10.65
	c-10.8,24.04-21.35,41.51-32.29,63.67c-2.96,6-5.94,12.26-8.97,19.18c-3.56,0.26-7.11,0.07-10.68-0.31
	c4,7.49,9.33,15.06,16.44,23.16c28.7,29.65,51.61,50.21,83.18,63.87c1.99,0.86,3.9,1.79,5.96,2.59c2.89-5.87,6.05-11.29,9.34-16.51
	c56.94-90.32,170.93-87.6,239.28-145.89c8.91-7.6,17-16.3,24.12-26.32c3.31-4.65,6.47-9.5,9.32-14.78c0.01-0.04,0.13-0.19,4.48-6.94
	c-0.66-0.99-1.23-2.03-1.69-3.09C284.45,897.64,284.4,890.86,284.4,880.48z M-51.84,955.2c5.43,6.03,10.8,12.12,16.17,18.21
	c-3.83-2.03-7.66-4.05-13.9-12.07C-51.99,955.35-51.9,955.25-51.84,955.2z"/>
<path class="st38" d="M8.13,2076.3c30.33,7.55,37.72,10.6,56.27,19.16c106.37,52.4,174.85-49.44,271.66-49.91
	c-0.23-2.34-0.59-4.72-1.03-7.12c-6.84,0.46-13.79,1.55-20.95,3.73c-44.68-13.22-79.36-88.79-106.63-29.28
	c-71.66,156.4-117.34,31.92-179.77,0.05c-1.27,1.15-2.42,2.2-3.61,3.29c-2.75,6.78-10.81,15.77-24.13,27.13
	c-0.32-1.62-0.06-3.51,0.67-5.6c-3.67,3.42-7.06,6.61-10.4,9.8c-0.09-0.11,0.16,0.25,0.36,9.54c6.38,6.12,11.65,12.39,15.93,18.83
	C7.08,2076.05,7.53,2076.16,8.13,2076.3z"/>
<path class="st15" d="M74.27,1783.92c-0.48-1.79-0.9-3.72-1.2-5.8c-0.74-5.04-1.02-10.53-1.12-14.5c1.36-0.32,2.76-0.54,4.15-0.7
	c-3.12-4.92-8.14-9.43-15.72-15.18c-45.49-29.89-79.66-54.09-128.21-67.94c-2.21,2.79-4.12,5.55-6.17,8.32
	c-8.14,25.47-13.46,52.04-16.64,80.14c-4.57,40.36-4.92,83.97-3.05,132.52c0.05,1.4,0.07,2.71,0.13,4.11
	c-1.04,0.27-2.09,0.33-3.13,0.53c-0.81,1.27-1.63,2.51-2.41,3.81c1.66,4.04,3.35,8.08,5.17,12.12c0.03,0.04,0.11,0.1,12.02-4.72
	c45.75-29.31,79.6-53.8,120.55-85.25c0.8-0.86,1.52-1.62,2.29-2.44c1.32-7.23,8.6-17.19,22.23-29.69c0.9,1.39,1.51,2.79,1.91,4.22
	c2.8-2.88,5.51-5.61,8.26-8.3c0.31-0.13,0.34-0.72,3.22-5.77C75.59,1788.12,74.87,1786.15,74.27,1783.92z"/>
<path class="st24" d="M536.28,1249.07c-0.01,0.01-0.03,0.02-0.04,0.03C536.25,1249.12,536.27,1249.1,536.28,1249.07z"/>
<path class="st24" d="M535.28,1237.24c-2.04-1-3.82-2.06-5.56-3.14c-0.08-0.05-0.17-0.09-0.25-0.14
	c-6.28-3.89-10.63-8.24-13.5-12.93c-20.64-33.77,36.38-85.3,20.67-114.4c-3.64-6.74-11.22-12.28-24.57-16.1
	c-7.64-2.19-17.04-3.86-28.83-4.84c-46.76,30.68-79.64,10.78-113.42,10.73c-0.19,0.97-0.23,1.82-0.4,2.78
	c-2.19,12.07-2.63,22.79-1.74,32.48c3.99,43.39,35.39,65.73,65.34,89.48c6.42,5.09,12.72,10.29,18.69,15.75
	c4.37,3.99,8.61,8.09,12.47,12.49c8.3-0.03,23.35,0.14,34.34,4.01c1.34-1.68,4.94-2.66,9.31-3.26c2.05-0.28,4.25-0.48,6.48-0.62
	c4.16-0.26,8.36-0.33,11.57-0.41c0.41,1.83,0.66,3.67,0.73,5.44c3.73-1.5,6.7-3.48,9.61-5.46c-0.13-0.07-0.51-1.49-0.89-10.46
	C535.33,1238.16,535.3,1237.77,535.28,1237.24z"/>
<path class="st11" d="M356.87,1896.89c-88.72,18.1-31.64,87.4-21.85,141.53c2.13-0.14,4.24-0.23,6.35-0.25
	c20.22-0.18,39.51,4.89,59.63,6.8c12.4,1.18,25.13,1.16,38.6-2.14c4.13-3.09,8.25-6.33,12.38-9.67
	C447.31,1955.45,437.4,1880.46,356.87,1896.89z"/>
<path class="st73" d="M872.34,1350.01c-1.78,1.17-3.6,2.32-5.35,3.5c2.12-0.33,3.88-0.72,5.37-1.3
	C872.35,1351.46,872.34,1350.73,872.34,1350.01z"/>
<path class="st73" d="M872.4,1343.89c0.97-0.45,1.96-0.7,2.94-0.83c0.2-0.97,0.39-1.92,0.59-2.88c-1.06-2.45-2.28-4.64-3.54-6.81
	c-0.15-0.05-0.2-0.42-15.26-0.14c-146.91,7.41-137.72,135.49-180.08,207.22c-0.22,0.37-0.42,0.76-0.64,1.12
	c20.8-2.73,37.94-7.99,52.61-15.58c29.35-15.18,48.62-39.86,66.28-73.47c0.27-0.31,0.51-0.58,0.78-0.89
	c-2.38-8.73,5.76-18.95,24.57-30.68c0.37,0.63,0.53,1.29,0.78,1.94c4.09-4.7,8.35-9.67,13.25-15.56
	c12.12-18.56,22.39-26.61,39.32-39.3c-1.22-3.92-1.58-10.09-1.64-15.84c-1.48,0.57-3.25,0.96-5.37,1.3c1.75-1.18,3.57-2.33,5.35-3.5
	C872.34,1347.78,872.37,1345.68,872.4,1343.89z"/>
<path class="st73" d="M877.02,1343.07c-0.33-1.01-0.69-1.97-1.09-2.89c-0.2,0.96-0.39,1.91-0.59,2.88
	C875.9,1342.99,876.46,1343.04,877.02,1343.07z"/>
<path class="st7" d="M354.24,1461.27C284.16,1490.53,241,1530.59,224,1591.73c-1.47,5.28,31.15,30.38,43.5,27.47
	c71.53-16.85,83.16-80.51,99.26-139.26C368.53,1473.47,367.96,1466.37,354.24,1461.27z"/>
<path class="st40" d="M65.06,1803.46c-0.4-1.42-1-2.83-1.91-4.22c-13.63,12.51-20.91,22.46-22.23,29.69
	c-0.33,1.82-0.38,3.51,0.05,4.97C59.57,1822.77,67.64,1812.73,65.06,1803.46z"/>
<path class="st7" d="M374.25,1457.29c1.74-0.94-2.3,0.39-6.22,1.87C368.16,1459.32,368.47,1459.57,374.25,1457.29z"/>
<path class="st40" d="M76.09,1762.91c-1.39,0.16-2.78,0.38-4.15,0.7c0.1,3.97,0.39,9.46,1.12,14.5c0.3,2.09,0.72,4.02,1.2,5.8
	c0.6,2.23,1.32,4.2,2.27,5.47c1.18,1.56,2.65,2.2,4.5,1.36C102.29,1767.73,89.49,1761.36,76.09,1762.91z"/>
<path class="st35" d="M876.46,1132.74c10.06,16.06,18.92,24.59,26.66,25.63c-5.71-8.99-12.41-16.15-21.13-24.96
	C879.91,1132.67,878.05,1132.42,876.46,1132.74z"/>
<path class="st35" d="M910,1157.22c-11.92-13.53-21.26-21.42-28-23.81c8.72,8.81,15.42,15.97,21.13,24.96
	C905.52,1158.69,907.81,1158.35,910,1157.22z"/>
<path class="st35" d="M71.45,1418.18c-0.05,0.09-0.11,0.22-0.15,0.31c0.91-0.33,1.9-0.7,2.89-1.08
	C74.13,1417.34,74.01,1417.25,71.45,1418.18z"/>
<path class="st35" d="M68.02,1419.47c-1.4,0.65,0.54,0.01,3.27-0.98c0.05-0.09,0.11-0.21,0.15-0.31
	C70.6,1418.48,69.49,1418.9,68.02,1419.47z"/>
<path class="st35" d="M526.62,1254.57c-0.07-1.78-0.32-3.61-0.73-5.44c-3.21,0.08-7.41,0.15-11.57,0.41
	c-2.23,0.14-4.43,0.34-6.48,0.62c-4.37,0.6-7.97,1.58-9.31,3.26c-0.67,0.84-0.8,1.85-0.13,3.08
	C519.21,1276.01,527.13,1266.84,526.62,1254.57z"/>
<path class="st34" d="M326.07,729.49c0.08-35.36,0.14-61.96-5.52-85.39c-1.11-4.6-2.47-9.08-4.07-13.47
	c-1.24-3.42-2.6-6.8-4.18-10.14c-130.29,94.59-196.69,79.29-196.33-81.64C116.22,428.82,60.81,338.35-44,339.78
	c-114.49,1.56-87.19,116.13-76.35,196.59c7.77,2.22,15.2,4.53,22.41,6.91c3.44-0.18,6.8-0.32,10.12-0.43
	c0.14,1.35,0.29,2.7,0.44,4.05C36.82,590.99,70.88,662.33-18.79,777.15c-31.05,39.75-32.34,85.42-18.5,131.78
	c6.12-2.14,12.13-4.7,18.06-7.66c-0.69,1.05-1.3,2.02-2.04,3.14c-3.27,3.67-6.55,7.12-9.83,10.48
	c121.25,41.78,197.31-126.88,319.13-58.64c0.68,0.38,1.38,0.8,2.06,1.2c8.64-33.52,17.97-62.62,30.8-99.84
	c0.62-0.14,1.25-0.26,1.88-0.4c3.99-0.87,7.98-1.67,11.97-2.43C332.88,746.84,330.12,738.49,326.07,729.49z"/>
<path class="st12" d="M482.66,325.57c72.3-86.48,172.48-46.07,213.24-8.54c87.81,80.85-86.2,80.1-73.7,165.99
	c-0.08,0.44-0.17,0.83-0.25,1.27c67.98-17.83,129.8,0.72,201.85-14.31c3.12,0,6.03-0.01,9.08-0.01c-2.72-13.45-2.79-27.63-2.77-46.6
	c5.56-4.64,10.21-9.57,14.41-14.65c-5.36-130.9-107.33-162.01-209.8-207.17c-2.5-1.51-4.46-2.98-6.2-4.46
	c-51.87,48.2-105.04,48.8-156.56,29.94c-127.57-46.68-74.55,43.28-74.19,108.49c-1.46,9.36-3.19,18.48-5.05,27.46
	C430.52,351.89,465.47,346.14,482.66,325.57z"/>
<path class="st12" d="M397.78,335.53c-0.36-65.2-53.39-155.17,74.19-108.49c51.53,18.86,104.7,18.26,156.56-29.94
	c-1.29-1.09-2.42-2.21-3.36-3.34c-7.07,1.71-14.28,3.59-21.77,5.86C489.05,225.3,409.55,94.23,346.67,129.48
	c-116.23,65.15,36.17,146.9,33.51,237.41c4.2-1.38,8.39-2.68,12.55-3.9C394.59,354.01,396.32,344.89,397.78,335.53z"/>
<path class="st12" d="M823.81,469.99c-72.05,15.03-133.88-3.52-201.85,14.31c-0.28,1.52-0.59,2.91-0.88,4.4
	c3.77,4.32,8.22,8.66,13.66,13.03c75.1,34.14,136.68,56.87,202.53-16.73c-1.92-5.02-3.37-10-4.39-15.02
	C829.84,469.98,826.93,469.98,823.81,469.99z"/>
<path class="st47" d="M695.91,317.03c-40.76-37.53-140.94-77.94-213.24,8.54c-17.2,20.57-52.14,26.32-89.94,37.41
	c-4.15,1.22-8.34,2.52-12.55,3.9c-7.7,2.52-15.43,5.31-23.11,8.61c-19.3,72.32-101.02,128.87-17.66,200.84
	c0.41,0.35,0.76,0.7,1.18,1.06c3.33,0.94,6.66,1.93,9.99,2.93c117.07,35.32,232.52,107.27,270.5-91.62c-1-1.15-1.98-2.3-2.88-3.45
	c1.26-0.35,2.5-0.62,3.76-0.95c0.08-0.44,0.17-0.83,0.25-1.27C609.71,397.13,783.71,397.88,695.91,317.03z"/>
<path class="st47" d="M618.2,485.25c0.9,1.15,1.87,2.3,2.88,3.45c0.28-1.49,0.6-2.88,0.88-4.4
	C620.7,484.63,619.46,484.89,618.2,485.25z"/>
<path class="st7" d="M-62.23-192.02c-27.89,58.62-95.01,19.37-150.2,29.45c-6.01-2.75-11.43-5.61-16.58-8.55
	c-10.4,32.79-23.25,58.86-68.75,44.16c-6.15-7.44-12.5-13.04-19.03-17.42c-19.69,8.21-45,9.3-80.14,9.71
	c-15.93,32.29-34.78,49.96-70.05,64.27c-18.49,4.87-33.81,8.74-47.16,15.69c0.14,6.18,0.16,12.72,0.11,19.9
	c6.07-0.04,12.65,0.29,21.21,0.9c59.18,12.16,108.8-7.43,164.21,27.97c16.25,14.12,31.74,22.15,47.07,26.21
	c41.99-14.7,85.92-25.06,134.32-33.5c5.25,3.79,9.21,7.09,12.1,10.48c27.77-48.62,62.14-57.05,109.28-24.32
	c2.06-1.9,4.12-3.78,6.19-5.87c22.3-14.72,40.72-25,61.17-34.49C-11.12-92.06-37.71-137.26-62.23-192.02z"/>
<path class="st29" d="M882,241.53c-5.61-5.33-10.65-10.72-15.15-16.2c-57.22,10.77-79.55-23.94-78.29-92.89
	c0.02-0.96-0.01-1.85,0.02-2.82c2.03-2.98,4.07-5.71,6.12-8.37c-5.69-4.06-11.77-7.91-18.45-11.45
	C707.8,67.38,667.2,84.39,636.8,132.88c-3.19,5.09-6.26,10.53-9.25,16.28c-2.88,5.56-5.71,11.29-8.44,17.41
	c0.34,13.15,0.59,20.66,6.05,27.19c2.84-0.69,5.72-1.42,8.5-2.02c-0.08,0.28-0.13,0.51-0.21,0.79c-1.64,1.62-3.28,3.05-4.92,4.57
	c1.74,1.48,3.7,2.95,6.2,4.46c102.48,45.16,204.45,76.28,209.8,207.17c11.7-14.15,18.76-29.79,23.91-46.17
	c11.08-35.27,13.88-73.74,38.05-107.09c3.61,9.95,7.68,18.96,12.12,27.26c0.55-9.76,1.35-19.81,2.66-30.46
	C911.26,242.69,891.76,241.91,882,241.53z"/>
<path class="st29" d="M628.53,197.1c1.64-1.53,3.29-2.95,4.92-4.57c0.08-0.28,0.13-0.51,0.21-0.79c-2.78,0.6-5.66,1.33-8.5,2.02
	C626.11,194.89,627.24,196,628.53,197.1z"/>
<path class="st34" d="M195.52,513.83c0.53-10.22-10.38-21.03-16.17-31.57c-5.77,10.56-11.53,21.12-15.72,41.2
	C195.3,558.95,194.75,528.73,195.52,513.83z"/>
<path class="st11" d="M1461.86,45.17c0.62-10.02,1.32-19.38,2.11-28.16c-0.3,0.47-0.59,0.87-0.89,1.35
	c-86.88-114.1-7.63-179.4,108.76-237.66c1.94,3.24,3.26,6.72,4.18,10.34c0.01-0.01,0.02-0.02,0.02-0.03
	c26.63-3.81,51.9,11.43,70.71,1.99c-111.33-25.9-162.73-96.33-190.39-200c-31.07,21.95-61.48,31.85-89.42,46.38
	C1158.37-252.16,1153-249.07,1095.57-484.94c-9.36,26.54-30.25,45.68-62.18,63.54c-27.03-1.49-50.22-0.05-70.21,3.9
	c-57.83,64.91-35.88,171.11-114.27,227.53c-0.6,17.47-3.91,31.13-12.48,49.2c-20.63,10.14-26.54,16.14-24.19,27.01
	c2.07,9.55,8.7,8.85,32.05-0.07c66.66,37.93,71.31,90.89,57.6,162.21c-10.66,22.01-22.49,37.02-37.33,49.38
	c5.56,28.86,7,59.42,7.44,95.71c6.36,5.12,13.17,10.04,20.78,14.61c17.27,14.94,23.64,21.77,34.43,42.18
	c0.72,16.21,0.61,31.47-0.61,45.84c65.32,99.38,198.24,67.68,310.03,106.81c10.28-0.79,17.05-3.01,23.24-4.66
	c-7.24-35.33-47.82-79.79-4.73-94.34c34.08-11.51,32.5,46.24,35.46,91.32c-0.05,2.77-1.09,4.87-2.57,6.64
	c12.47,6.91,20.35,7.28,36.13,7.66c6.1-1.73,11.97-3.38,17.73-5c-0.62-79.35,52.66-45.06,104.69-37.58
	c-1.26,3.95-2.8,7.64-4.47,11.21c2.18-0.53,4.27-1.05,6.51-1.59c22.48-14.17,39.7-24,59.46-34.37c0.85-24.52,2.22-34.37,7.86-58.4
	c5.2-11.87,10.5-23.33,15.91-34.5C1499.87,195.43,1459.51,75.58,1461.86,45.17z M1004.16,62.43c-10.51,32.32-5.56,93.09-65.27,67.47
	c-35-15.02-18.98-57.21,3.11-98.18C1003.26-10.85,1023.64,2.5,1004.16,62.43z M1013.52-83.81c2.3-9.07,4.61-18.15,12-22.35
	C1024.92-95.47,1019.22-89.64,1013.52-83.81z M1034.34-260.7C1032.3-260.01,1036.37-261.39,1034.34-260.7L1034.34-260.7z
	 M1046.14-265.1c-5.71,2.32-5.9,2.18-5.97,2.08C1044.02-264.54,1047.94-265.98,1046.14-265.1z M1122.1-185.13
	c2.33,6.02,2.16,6.23,2.06,6.31c-5.38-6.09-10.65-12.26-15.93-18.43C1112.07-195.22,1115.92-193.19,1122.1-185.13z M1273.43,218.7
	C1273.06,218.1,1272.69,217.49,1273.43,218.7c0.16,0.26,0.24,0.4,0.31,0.51c0.11,0.18,0.14,0.24,0,0
	C1273.66,219.08,1273.55,218.91,1273.43,218.7z M1124.31-161.68c145.85-45.22,86.45,131.56,201.69,147.35
	C1133.76,84.89,1119.51-17.9,1124.31-161.68z"/>
<path class="st11" d="M901.9,48.39c13.7-71.32,9.05-124.28-57.6-162.21c-23.35,8.92-29.99,9.62-32.05,0.07
	c-2.35-10.86,3.56-16.87,24.19-27.01c8.58-18.07,11.89-31.73,12.48-49.2c-1.8,1.29-3.55,2.61-5.45,3.85
	c-3.68-3.37-6.94-6.74-10.25-10.11c-2.21,8.7-4.57,17.38-7.21,25.98c-11.61,18.8-21.68,27.11-40.32,40.3c3.67,4.09,3.59,11.5,3.6,25
	c-0.68,1.05-1.37,1.93-2.05,2.89c3.89,3.59,9.49,6.87,17.16,10.49c90.64,36.11,60.62,103.96,56.86,174.37
	c1.24,4.95,2.35,9.95,3.32,14.97C879.41,85.41,891.24,70.4,901.9,48.39z"/>
<path class="st11" d="M1531.86,249.31c-5.41,11.17-10.7,22.63-15.91,34.5c-5.64,24.03-7.01,33.89-7.86,58.4
	c7.74-4.06,15.83-8.2,24.83-12.72c0.51,0.6,0.89,1.26,1.36,1.88c3.21-5.43,6.38-11.01,9.66-16.91c0.07-9.97,0.27-29.6,7.7-40.62
	C1545.87,270.19,1539.09,261.48,1531.86,249.31z"/>
<path class="st11" d="M927.22,250.28c-10.79-20.41-17.16-27.24-34.43-42.18c-7.62-4.57-14.42-9.5-20.78-14.61
	c0.12,9.87,0.2,20.02,0.26,30.84c-1.88,0.43-3.6,0.67-5.41,1.01c4.5,5.48,9.54,10.86,15.15,16.2c9.75,0.38,29.26,1.16,39.27,10.74
	c-1.31,10.66-2.11,20.71-2.66,30.46c2.53,4.72,5.21,9.15,8,13.38C927.84,281.74,927.94,266.49,927.22,250.28z"/>
<path class="st35" d="M872.01,193.49c-0.45-36.29-1.89-66.85-7.44-95.71c-0.97-5.02-2.08-10.02-3.32-14.97
	c-0.75-2.99-1.41-5.99-2.27-8.96c-28.39,12.76-46.91,24.82-64.28,47.41c-2.05,2.67-4.09,5.39-6.12,8.37c-0.03,0.97,0,1.86-0.02,2.82
	c-1.26,68.95,21.08,103.65,78.29,92.89c1.81-0.34,3.53-0.58,5.41-1.01C872.21,213.5,872.13,203.36,872.01,193.49z"/>
<path class="st35" d="M1587.37,512.81c3.34-7.98,6.93-14.44,10.89-19.58c-15.06-13.44-25.22-27.46-34.41-44.62
	c-5.02-9.36-9.8-19.6-14.98-31.31c4.6-0.81,9.14-1.26,13.65-1.49c-6.03-7.35-11.92-15.16-17.54-24.08
	c-0.47-29.85-0.88-47.44-10.69-60.36c-0.47-0.62-0.85-1.28-1.36-1.88c-9,4.52-17.09,8.66-24.83,12.72
	c-19.76,10.37-36.98,20.19-59.46,34.37c-2.24,0.54-4.33,1.06-6.51,1.59c-3.06,6.53-6.79,12.41-11.19,17.57
	c-18.32,21.47-48.1,30.45-88.54,21.95c-0.07-1.07-0.1-2.03-0.16-3.06c-0.2-3.55-0.31-6.91-0.34-10.09c-5.76,1.61-11.63,3.27-17.73,5
	c-15.79-0.38-23.66-0.74-36.13-7.66c-0.34,0.4-0.6,0.87-1,1.23c-6.15,5.54-18.82,5.82-26.11,5.82c0.07-2.53-0.14-5.14-0.55-7.81
	c-0.15-0.95-0.3-1.9-0.49-2.86c-6.19,1.65-12.97,3.88-23.24,4.66c-111.78-39.12-244.71-7.43-310.03-106.81
	c-2.78-4.23-5.47-8.65-8-13.38c-4.44-8.3-8.52-17.31-12.12-27.26c-24.18,33.35-26.98,71.83-38.05,107.09
	c-5.14,16.38-12.2,32.02-23.91,46.17c-4.2,5.08-8.85,10.01-14.41,14.65c-0.02,18.96,0.05,33.14,2.77,46.6
	c1.02,5.03,2.46,10,4.39,15.02c1.72,4.48,3.72,9.03,6.38,13.83c219.96-1.24,330.93,64.6,265.59,299.86
	c-13.92,50.14,41.74,99.14,124.29,94.78c72.04-3.8,154.26-50.25,237.04,12.14c0.45-0.35,0.92-0.69,1.37-1.04
	C1596.76,807.65,1640.74,683.79,1587.37,512.81z"/>
<path class="st38" d="M1634.16,970.54c-1.67,0.64-3.36,1.19-5.05,1.71c0.61,0.12,1.21,0.24,1.82,0.36
	C1632.09,972.02,1633.16,971.33,1634.16,970.54z"/>
<path class="st38" d="M1843.2,733.04c-3.46-4.35-6.73-8.76-9.86-13.23c-21.31-30.44-33.31-63.95-15.01-104.46
	c3.93-8.71,9.1-17.71,16.06-27.11c0.09-0.08,0.17-0.14,0.26-0.21c-3.04-4.08-6.34-8.13-10.21-12.16
	c-79.5,4.75-126.27-21.52-166.33-89.61c-9.36,5.97-21.71,7.8-39.01,8.83c-2.79,0.17-5.69,0.33-8.75,0.47
	c-2.93,0.14-5.9,0.27-9.1,0.41c-1.06-0.9-1.97-1.83-2.99-2.73c-3.96,5.14-7.55,11.6-10.89,19.58
	c53.37,170.98,9.39,294.83-115.43,391.76c-0.45,0.35-0.92,0.69-1.37,1.04c-3.3,2.54-6.61,5.08-10.02,7.59
	c-0.3,0.01-0.19-0.46,5.56,8.29c0.42,0.55,0.82,1,1.24,1.54c1.04,0.14,2.1,0.34,3.16,0.64c6.03,1.68,12.44,5.88,19.84,12.47
	c3.11,2.77,6.35,5.86,9.87,9.46c-0.35,1.51-0.9,2.71-1.54,3.79c4.83,2.12,10.16,3.89,16.42,5.43c9.67-0.06,29,0.25,40.31,9.37
	c1.8-0.1,3.61-0.08,5.41-0.12c22.75-0.53,45.52,3.61,68.3,8.18c1.69-0.52,3.38-1.07,5.05-1.71c2.68-2.11,4.84-4.85,6.21-8.55
	c7.34-19.79,24.48,2.36,0.12,5.76c-2.09,1.06-4.2,1.98-6.33,2.79c-1,0.78-2.07,1.48-3.23,2.07c1.19,0.24,2.38,0.47,3.57,0.72
	c-18.43,6.51-36.92,13.02-63.48,19.46c-4.35,1.06-8.86,2.11-13.68,3.16c-1.2-0.01-2.2-0.35-3.19-0.7
	c-3.44,3.18-6.74,6.94-9.85,11.52c-0.19,18.2-0.17,25.48,1.47,47.11c0.11,0.42,0.23,0.8,0.33,1.21c5.62,3.39,10.95,7.11,16.14,11.07
	c18.17,13.87,34.62,31.07,55.72,51.06c7.88,0.55,15.06,1.33,21.78,2.27c15.49-109.18,72.11-75.77,134.24-52.74
	c16.32,6.05,33,11.38,49.43,13.2c-0.11,0.15-0.2,0.31-0.31,0.46c5.26-4.25,10.37-9.22,15.3-15.06
	C1836.59,948.33,1784.78,847.36,1843.2,733.04z"/>
<path class="st28" d="M454,791.78c-22.03-45.64-70.19-46.29-119.27-36.99c1.24,5.33,2.07,10.48,2.42,15.43
	c2.45,34.26-15.42,60.35-40.87,90.84c-2.09-1.33-4.13-2.41-6.19-3.61c-0.18,0.7-0.36,1.39-0.54,2.09
	c-1.73,6.78-3.45,13.68-5.15,20.94c0,10.38,0.05,17.16,2.51,22.78c1.62-0.66,3.22-1.24,4.83-1.78c-1.25,1.94-2.27,3.52-3.13,4.87
	c1.97,2.96,4.77,5.71,9.07,8.62c74.15-6.73,60.74,157,160.95,63.39c37.43-34.97,116.26-22.32,124.95-91.59
	C596.07,787.31,482.17,850.12,454,791.78z"/>
<path class="st28" d="M286.91,903.27c0.46,1.06,1.04,2.1,1.69,3.09c0.87-1.35,1.89-2.93,3.13-4.87
	C290.13,902.03,288.53,902.61,286.91,903.27z"/>
<path class="st28" d="M290.09,857.46c2.06,1.2,4.1,2.27,6.19,3.61c25.45-30.49,43.31-56.58,40.87-90.84c-4.9-4.1-9.72-8.39-14.39-13
	c-0.62,0.14-1.25,0.26-1.88,0.4C308.06,794.83,298.74,823.93,290.09,857.46z"/>
<path class="st28" d="M337.15,770.22c-0.35-4.95-1.17-10.1-2.42-15.43c-3.99,0.76-7.98,1.56-11.97,2.43
	C327.43,761.83,332.25,766.11,337.15,770.22z"/>
<path class="st35" d="M1485.13,1181.35c-0.07-5.32-0.24-10.69-0.48-16.08c-87.38,20.27-193.54-51.6-221.13,68.09
	c-11.89,51.58,50.62,47.48,88.07,59.6c111.06,35.93,133.57-29.16,133.56-106.32C1485.15,1184.88,1485.15,1183.12,1485.13,1181.35z"
	/>
<path class="st35" d="M1662.89,1228.9c10.88-34.03,34.84-70.68-19.73-98.75c-1.51-0.78-2.92-1.56-4.55-2.33
	c0.34-2.92,0.75-5.59,1.13-8.33c-6.72-0.94-13.91-1.72-21.78-2.27c-21.1-20-37.55-37.19-55.72-51.06
	c-5.19-3.96-10.52-7.68-16.14-11.07c-4.19-2.53-8.51-4.93-13.09-7.13c-17.8,44.59-24.46,80.75-30.9,117.12
	c0.11,0.11,0.25,0.3,1.77,1.53c0.65,0.52,1.61,1.29,2.87,2.26c1.66,1.29,3.87,3,7.02,5.38c16.84,42.93,23.56,78.08,43.75,112.96
	c0.81,1.4,1.5,2.81,2.36,4.21c11.71-0.01,22.45-0.03,32.58-0.22c28.98-0.55,52.98-2.66,80.05-10.23
	C1654.92,1265.69,1656.88,1247.69,1662.89,1228.9z"/>
<path class="st73" d="M1245.43,1658.33c-0.48-0.52-0.94-0.98-1.42-1.49c-27.18-29.07-50.2-48.35-72.3-56.92
	c-1.29-0.5-2.59-1.11-3.88-1.53c10.85,25.22,21.27,42.96,36.3,58.69c0.2,0.2,0.41,0.4,0.61,0.61c0.69,0.72,1.42,1.42,2.13,2.13
	c3.75,3.73,7.69,7.4,12.08,11.01c5.84-0.38,14.95-0.74,21-2.94c1.16-0.42,2.18-0.93,3.07-1.49c0.51-0.33,0.97-0.69,1.37-1.07
	C1246.14,1663.63,1246.76,1661.38,1245.43,1658.33z"/>
<path class="st35" d="M1561.76,965.79c3.27,6.15,5.48,12.07,7.45,19.52c13.84-6.32,29.05-7.15,44.09-9.55
	C1598.77,975.39,1580.35,970.47,1561.76,965.79z"/>
<path class="st35" d="M1569.21,985.32c-1.97-7.45-4.18-13.38-7.45-19.52c-2.11-0.53-4.22-1.06-6.32-1.58
	c-0.01-0.01-0.03-0.02-0.04-0.03c-3.74,0.22-7.48,0.57-11.21,1.08c0.05,9.24,0.38,26.69,9.96,29.99
	C1558.91,990.86,1563.97,987.71,1569.21,985.32z"/>
<path class="st35" d="M1630.93,972.61c-4.74,2.42-10.72,3.32-17.62,3.15c-15.04,2.4-30.25,3.23-44.09,9.55
	c0.61,2.3,1.21,4.81,1.8,7.48c26.57-6.45,45.05-12.96,63.48-19.46C1633.31,973.09,1632.12,972.85,1630.93,972.61z"/>
<path class="st35" d="M1630.93,972.61c-0.61-0.12-1.21-0.24-1.82-0.36c-5.2,1.59-10.49,2.66-15.81,3.51
	C1620.21,975.94,1626.19,975.03,1630.93,972.61z"/>
<path class="st35" d="M1629.11,972.25c-22.78-4.58-45.55-8.71-68.3-8.18c0.32,0.58,0.65,1.16,0.95,1.73
	c18.59,4.68,37.01,9.6,51.54,9.97C1618.62,974.91,1623.91,973.84,1629.11,972.25z"/>
<path class="st35" d="M1561.76,965.79c-0.3-0.57-0.63-1.15-0.95-1.73c-1.8,0.04-3.61,0.02-5.41,0.12c0.01,0.01,0.03,0.02,0.04,0.03
	C1557.55,964.73,1559.66,965.26,1561.76,965.79z"/>
<path class="st35" d="M1571.02,992.79c-0.6-2.67-1.2-5.17-1.8-7.48c-5.24,2.39-10.3,5.54-15.06,9.94c0.99,0.34,1.98,0.69,3.19,0.7
	C1562.16,994.9,1566.67,993.85,1571.02,992.79z"/>
<path class="st18" d="M943.38,1443.25c17.83,5.81,35.67,11.61,54.11,16.79c0.61-0.63,1.65-2.03-3.84-10.42
	C972.67,1429.41,957.05,1414.94,943.38,1443.25z"/>
<path class="st18" d="M821.43,1422.91c-0.25-0.65-0.41-1.31-0.78-1.94c-18.81,11.73-26.95,21.95-24.57,30.68
	c0.29,1.08,0.68,2.14,1.3,3.18C816.98,1442.47,824.9,1431.84,821.43,1422.91z"/>
<path class="st35" d="M1396.01,1058.21C1393.63,1059.6,1398.39,1056.82,1396.01,1058.21L1396.01,1058.21z"/>
<path class="st35" d="M1454.33,957.67C1454.87,957.51,1455.41,957.35,1454.33,957.67L1454.33,957.67z"/>
<path class="st35" d="M1454.33,957.67C1453.78,957.82,1453.24,957.98,1454.33,957.67L1454.33,957.67z"/>
<path class="st35" d="M1490.35,936.14c-7.4-6.59-13.81-10.8-19.84-12.47c-1.06-0.3-2.12-0.5-3.16-0.64
	c-2.4-0.32-4.77-0.33-7.14,0.21c-0.15,10.5-0.42,31.5-0.16,31.76c0.14,0.14,0.39,0.35,2.16,0.5c0.05,0,0.12,0.01,0.17,0.01
	c1.64,0.13,4.46,0.22,9.59,0.16c15.63-0.29,23.31-0.57,26.7-6.29c0.64-1.08,1.18-2.28,1.54-3.79
	C1496.7,942,1493.45,938.91,1490.35,936.14z"/>
<path class="st18" d="M893.56,1355.02c-3.55-4.73-7.76-8.91-12.12-10.86c-1.46-0.65-2.93-1.02-4.41-1.09
	c-0.56-0.03-1.12-0.07-1.68-0.01c-0.99,0.12-1.97,0.37-2.94,0.83c-0.03,1.79-0.06,3.9-0.05,6.12c0,0.72,0,1.45,0.01,2.2
	c0.06,5.75,0.42,11.92,1.64,15.84c0.98,3.15,2.52,4.85,4.95,3.6C888.7,1363.54,894.73,1356.58,893.56,1355.02z"/>
<path class="st65" d="M1673.11,62.05c-2.16-6.54-2.09-14.1-2.02-19.05c-5.48-9.19-10.05-18.05-13.67-26.92
	c-54.61-13.94-99.33-109.32-168.96-32.07c-7.83,8.69-15.98,19.57-24.49,33c-0.8,8.78-1.5,18.14-2.11,28.16
	c-2.34,30.41,38.01,150.26,70.01,204.13c0.78-1.61,1.57-3.2,2.36-4.8c4.81,9.69,10.7,19.17,17.98,28.4
	c-0.21,0.28-0.35,0.63-0.55,0.92c1.34,0.85,2.65,1.52,3.88,1.79c42.08-71.23,109.22-116.46,120.53-207.69
	C1674.79,66.16,1673.82,64.18,1673.11,62.05z"/>
<path class="st65" d="M1534.22,244.51c-0.79,1.6-1.58,3.18-2.36,4.8c7.23,12.17,14.01,20.88,19.79,24.53
	c0.2-0.29,0.34-0.64,0.55-0.92C1544.92,263.68,1539.03,254.2,1534.22,244.51z"/>
<path class="st6" d="M1901.76-108.82c12.89,8.06,41.02,24.88-0.66,33.68c-8.93,1.89-18.77,0.9-32.7,2.3
	c1.85,2.26,3.69,4.58,5.53,7.1c-3.98,3.05-7.78,6.11-11.51,9.18c9.1,2.22,18.31,5.25,27.71,9.46
	c29.88,24.37,47.73,54.28,69.04,56.99c37.59,4.77,29.73-28.13,31.23-56.18c7.44-139.37-138.09-103.91-205.3-172.7
	c-3.37,3.08-6.79,5.8-10.26,8.18C1803.28-148.68,1858.04-136.14,1901.76-108.82z"/>
<path class="st27" d="M1833.07,128.52c-60.48-72.72-35.98-131.2,29.35-185.07c-9.68-2.36-19.22-3.74-28.68-4.36
	c-55.14-3.6-107.53,17.65-168.49,11.22c2.54,15.5,3.81,32.3,4.79,51.88c0.25,5.03,0.49,10.18,0.74,15.59
	c-4.53,0.06-8.97-0.57-13.36-1.69c3.62,8.87,8.19,17.73,13.67,26.92c-0.07,4.95-0.14,12.5,2.02,19.05c1.25-0.24,2.41-0.41,3.63-0.62
	c-0.2,2.18-0.41,4.37-0.67,6.5c2.14,2.98,5.08,5.37,9.45,6.41c115.4,43.82,32.84,153.72,95.14,216.75
	C1826.56,242.49,1905.82,215.99,1833.07,128.52z"/>
<path class="st27" d="M1673.11,62.05c0.7,2.13,1.68,4.1,2.96,5.88c0.26-2.13,0.47-4.32,0.67-6.5
	C1675.52,61.65,1674.36,61.81,1673.11,62.05z"/>
<path class="st50" d="M1851.69,622.84c6.85,25.99,3.12,53.77-3,84.94c13.36-9.15,28.57-16.34,47.76-22.67
	c6.86-0.26,13.29-0.26,19.42,0c-0.68-3.58-0.71-7.61,0-12.6c2.45-1,4.73-2.15,7.14-3.19c0-1.05,0-2.1,0-3.16
	C1897.51,653.66,1878.38,633.79,1851.69,622.84z"/>
<path class="st50" d="M1923.01,666.16c-0.02-6.16-0.07-12.32-0.22-17.58c-9.08-60.41,2.7-135.96-88.14-60.55
	c8.45,11.32,13.89,22.88,17.04,34.81C1878.38,633.79,1897.51,653.66,1923.01,666.16z"/>
<path class="st50" d="M1896.45,685.11c-19.19,6.33-34.41,13.52-47.76,22.67c-1.53,7.78-3.19,15.76-4.87,23.99
	c-0.22,0.43-0.41,0.85-0.62,1.27c2.06,2.59,4.17,5.17,6.31,7.73c30.56-15.12,51.06-26.13,70.96-45.67c-2.42-3.05-3.88-6.27-4.59-10
	C1909.74,684.85,1903.32,684.85,1896.45,685.11z"/>
<path class="st50" d="M1915.87,685.11c2.44,0.1,4.83,0.25,7.17,0.44c-0.02-4.8-0.01-10.41-0.02-16.23
	c-2.41,1.04-4.69,2.19-7.14,3.19C1915.16,677.5,1915.19,681.53,1915.87,685.11z"/>
<path class="st50" d="M1920.46,695.11c0.88-0.86,1.77-1.65,2.65-2.55c-0.04-1.96-0.06-4.39-0.07-7c-2.33-0.2-4.73-0.34-7.17-0.44
	C1916.58,688.83,1918.05,692.06,1920.46,695.11z"/>
<path class="st50" d="M1818.33,615.35c-18.29,40.51-6.3,74.03,15.01,104.46c4.85-4.43,9.98-8.36,15.35-12.03
	c6.12-31.17,9.85-58.96,3-84.94c-9.18-3.77-19.22-6.5-30.78-7.47C1820.03,615.38,1819.2,615.35,1818.33,615.35z"/>
<path class="st50" d="M1818.33,615.35c0.87,0,1.7,0.03,2.58,0.02c11.55,0.97,21.6,3.7,30.78,7.47
	c-3.15-11.93-8.59-23.48-17.04-34.81c-0.09,0.07-0.17,0.14-0.26,0.21C1827.43,597.64,1822.26,606.64,1818.33,615.35z"/>
<path class="st50" d="M1848.69,707.78c-5.36,3.67-10.5,7.6-15.35,12.03c3.13,4.47,6.4,8.88,9.86,13.23c0.22-0.43,0.4-0.85,0.62-1.27
	C1845.5,723.54,1847.16,715.56,1848.69,707.78z"/>
<path class="st27" d="M1945.47,128.01c-7.16,12.09-1.95,45.04,8.31,51.61c51.63,33.07,88.06,9.06,109.54-52.47
	C2015.52,68.22,1975.63,77.04,1945.47,128.01z"/>
<path class="st20" d="M1562.51,415.81c-4.51,0.23-9.05,0.69-13.65,1.49c5.18,11.71,9.97,21.95,14.98,31.31
	c9.19,17.16,19.36,31.18,34.41,44.62c1.02,0.91,1.92,1.83,2.99,2.73c3.2-0.14,6.16-0.27,9.1-0.41c3.07-0.14,5.96-0.3,8.75-0.47
	c17.3-1.02,29.65-2.85,39.01-8.83c2.25-1.44,4.4-3.03,6.34-5C1635.67,433.05,1600.75,413.86,1562.51,415.81z"/>
<path class="st65" d="M1647.02,264.49c-0.08-0.12-0.15-0.24-0.31-0.49C1646.83,264.17,1646.93,264.34,1647.02,264.49z"/>
<path class="st65" d="M1646.72,263.99c-0.2-0.32-0.32-0.51-0.39-0.63C1646.41,263.5,1646.55,263.73,1646.72,263.99z"/>
<path class="st65" d="M1647.02,264.49C1647.25,264.85,1647.2,264.78,1647.02,264.49L1647.02,264.49z"/>
<path class="st65" d="M1646.32,263.36C1646.24,263.22,1646.21,263.17,1646.32,263.36L1646.32,263.36z"/>
<path class="st50" d="M1773.99,1066.75c-62.13-23.03-118.75-56.44-134.24,52.74c-0.39,2.74-0.8,5.41-1.13,8.33
	c1.63,0.76,3.04,1.55,4.55,2.33c54.57,28.07,30.61,64.72,19.73,98.75c-6.01,18.8-7.97,36.79,9.61,52.09
	c3.24,2.82,7.11,5.55,11.78,8.18c91.45-49.39,94.23-147.61,138.83-208.76c0.11-0.15,0.2-0.31,0.31-0.46
	C1806.99,1078.13,1790.3,1072.8,1773.99,1066.75z"/>
<path class="st22" d="M55.47,1185.01c-0.08-0.13-0.17-0.28-0.27-0.45C55.34,1184.79,55.4,1184.9,55.47,1185.01z"/>
<path class="st22" d="M54.93,1184.11C54.78,1183.86,54.74,1183.79,54.93,1184.11L54.93,1184.11z"/>
<path class="st22" d="M55.47,1185.01C55.62,1185.27,55.66,1185.34,55.47,1185.01L55.47,1185.01z"/>
<path class="st22" d="M55.2,1184.56c-0.14-0.23-0.2-0.34-0.27-0.45C55.01,1184.24,55.1,1184.4,55.2,1184.56z"/>
<path class="st37" d="M1492.92-73.84c7.18-25.95,22.28-46.64,46.9-62.14c2.55-18.94,13.64-42.63,36.21-72.97
	c-0.93-3.62-2.24-7.1-4.18-10.34c-116.39,58.26-195.65,123.56-108.76,237.66c0.3-0.48,0.59-0.88,0.89-1.35
	C1468.39-31.55,1476.12-61.3,1492.92-73.84z"/>
<path class="st37" d="M1492.92-73.84c-4.71,17.03-6.03,36.32-4.45,57.86c69.63-77.25,114.35,18.13,168.96,32.07
	c-4.7-11.52-7.54-23.15-8.59-35.47C1563.49-72.83,1518.05-92.6,1492.92-73.84z"/>
<path class="st37" d="M1492.92-73.84c-16.8,12.54-24.53,42.29-28.95,90.86c8.51-13.42,16.66-24.31,24.49-33
	C1486.89-37.52,1488.21-56.81,1492.92-73.84z"/>
<path class="st37" d="M1650.55-52.59c-2.07,11.9-2.6,22.86-1.72,33.21c4.96,3.11,10.06,6.33,15.29,9.66
	c2.3,4.37,4.19,8.23,5.92,11.91c-0.98-19.58-2.25-36.38-4.79-51.88c-1.88-0.2-3.72-0.28-5.62-0.54
	C1656.59-51.02,1653.56-51.81,1650.55-52.59z"/>
<path class="st37" d="M1648.83-19.39c1.05,12.32,3.89,23.95,8.59,35.47c4.38,1.12,8.83,1.75,13.36,1.69
	c-0.24-5.41-0.49-10.56-0.74-15.59c-1.73-3.68-3.62-7.54-5.92-11.91C1658.89-13.06,1653.79-16.28,1648.83-19.39z"/>
<path class="st65" d="M1124.31-161.68c-4.8,143.77,9.45,246.57,201.69,147.35C1210.76-30.12,1270.15-206.9,1124.31-161.68z"/>
<path class="st35" d="M942,31.72c-22.1,40.97-38.11,83.16-3.11,98.18c59.7,25.62,54.76-35.14,65.27-67.47
	C1023.64,2.5,1003.26-10.85,942,31.72z"/>
<path class="st20" d="M1341.9,404.54c0.02,3.18,0.13,6.54,0.34,10.09c0.06,1.03,0.08,2,0.16,3.06c40.45,8.5,70.22-0.49,88.54-21.95
	c4.4-5.15,8.13-11.03,11.19-17.57c1.67-3.57,3.2-7.26,4.47-11.21C1394.57,359.47,1341.28,325.19,1341.9,404.54z"/>
<path class="st12" d="M1280.43,397.28c2.78,1.83,5.25,3.29,7.61,4.6c1.48-1.76,2.52-3.87,2.57-6.64
	c-2.96-45.08-1.38-102.83-35.46-91.32c-43.09,14.55-2.51,59.01,4.73,94.34C1266.3,396.55,1272.08,395.46,1280.43,397.28z"/>
<path class="st12" d="M1260.38,401.11c0.41,2.67,0.63,5.28,0.55,7.81c7.28,0,19.95-0.28,26.11-5.82
	C1277.77,394.74,1269.59,394.7,1260.38,401.11z"/>
<path class="st12" d="M1288.04,401.87c-2.36-1.31-4.83-2.77-7.61-4.6c-8.35-1.82-14.13-0.73-20.55,0.98
	c0.2,0.96,0.35,1.91,0.49,2.86c9.21-6.41,17.4-6.37,26.66,1.99C1287.44,402.74,1287.7,402.28,1288.04,401.87z"/>
<path class="st12" d="M1273.43,218.7C1272.69,217.49,1273.06,218.1,1273.43,218.7L1273.43,218.7z"/>
<path class="st12" d="M1273.74,219.22c-0.07-0.11-0.15-0.25-0.31-0.51C1273.55,218.91,1273.66,219.08,1273.74,219.22z"/>
<path class="st12" d="M1273.74,219.22C1273.88,219.45,1273.85,219.4,1273.74,219.22L1273.74,219.22z"/>
<path class="st11" d="M1105.58,429.24c-0.06-0.11-0.13-0.23-0.27-0.46C1105.41,428.96,1105.5,429.11,1105.58,429.24z"/>
<path class="st11" d="M1105.31,428.78c-0.14-0.23-0.21-0.35-0.27-0.46C1105.11,428.45,1105.2,428.61,1105.31,428.78z"/>
<path class="st11" d="M1105.58,429.24C1105.74,429.51,1105.7,429.45,1105.58,429.24L1105.58,429.24z"/>
<path class="st11" d="M1105.04,428.33C1104.91,428.11,1104.88,428.06,1105.04,428.33L1105.04,428.33z"/>
</svg>
