<?xml version="1.0" encoding="UTF-8"?><svg id="Laag_1" xmlns="http://www.w3.org/2000/svg" viewBox="0 0 231.13 411.6"><defs><style>.cls-1{fill:#fff;}.cls-2{fill:#6d4318;}.cls-3{fill:#ffd24c;}.cls-4{fill:#cecccd;}.cls-5{fill:#edcbb2;}.cls-6{fill:#85c7ee;}.cls-7{fill:#b27a36;}.cls-8{fill:#a62421;}.cls-9{fill:#f0d0bc;}.cls-10{fill:#a87248;}.cls-11{fill:#63401f;}.cls-12{fill:#a5a4a4;}.cls-13{fill:#59a3da;}.cls-14{fill:#fde0cc;}.cls-15{fill:#e1e0e0;}.cls-16{fill:#e5b83a;}.cls-17{fill:#5d3b22;}.cls-18{fill:#814e19;}.cls-19{fill:#ca8b45;}.cls-20{fill:#e27f7f;}</style></defs><path class="cls-13" d="M137.34,235.84c.09,1.86,.25,3.72,.25,5.57,.01,42.19,.02,84.38,0,126.57,0,1.84-.28,3.68-1.18,5.84-5.33,.33-9.9,.31-14.47,.35-5.92,.04-11.85,.13-17.77,.2-3.31-.83-3.39-.83-3.5-3.82-.37-10.32-.69-20.63-1.01-30.95-.37-12.01-.72-24.02-1.09-36.03-.28-8.79-.56-17.59-.89-26.38-.2-5.24-.47-10.48-.75-15.71-.04-.83-.19-1.69-.5-2.46-.4-.99-1.2-1.68-2.34-1.6-1.12,.08-1.92,.81-2.17,1.85-.27,1.14-.35,2.34-.38,3.51-.38,14.21-.73,28.43-1.1,42.64-.36,13.87-.71,27.75-1.1,41.62-.21,7.61-.49,15.22-.74,22.83-.05,1.51,.14,3.1-2.21,4.28-11.41,.19-21.97,.24-32.53,.28-1.53-.28-2.4-1.21-2.52-2.74-.09-1.18-.06-2.37-.06-3.55,0-41.82-.02-83.64,.03-125.47,0-3.03,.42-6.06,1.07-9.51,2.77-.66,5.11-1.04,7.45-1.1,2.88-.07,4.74-1.55,6.1-3.86,1.39-2.38,2-5.04,2.07-7.74,.08-3.07-1.07-5.52-4.12-6.91-2.76-1.26-5.37-2.83-8.06-4.23q-4.34-2.27-4.72-7.71c.13-6.1,.11-11.75,.22-17.39,.03-1.8,.4-3.59,.93-5.53,1.07-.82,1.78-1.54,2.57-2.17,5-4.01,6.98-9.34,6.96-15.59-.04-19.08-.06-38.17-.09-57.25,2.48-.45,4.96-.9,8.05-1.03,1.74,2.3,2.88,4.28,3.93,6.71-.06,11.1-.05,21.75,0,32.4,0,.29,.27,.58,.6,1.23,3.28,.48,6.81,.16,10.31,.22,3.38,.05,6.76,.01,10.15,.01,3.55,0,7.1,.06,10.65-.02,3.49-.07,7.01,.37,10.3-.31,.23-.71,.43-1.02,.43-1.33-.05-10.65-.12-21.29-.07-32.28,1.43-2.55,2.75-4.77,4.07-6.99,2.42,.38,4.85,.75,7.63,1.73,.34,18.47,.32,36.34,.3,54.22,0,1.85,.07,3.71,.07,5.56,0,5.23,2.04,9.48,6.12,12.75,1.05,.84,2.14,1.62,3.21,2.43,.06,1.18,.18,2.36,.18,3.54,0,15.06-.03,30.13-.41,45.52-1.77-1.13-3.24-2.53-4.57-4.04-3.33-3.79-6.57-7.66-9.9-11.46-.97-1.1-2.19-1.28-3.18-.7-1.14,.67-1.75,2.26-1.25,3.53,.24,.61,.61,1.21,1.05,1.7,3.49,3.89,7.02,7.74,10.5,11.63,1.35,1.5,2.63,3.06,3.9,4.63,.97,1.2,1.9,2.4,3.61,2.51m-29.01-85.51c-10.16,0-20.33,.1-30.49-.05-4.12-.06-6.66,2.21-6.54,6.48,.16,5.58,.12,11.18,0,16.77-.05,2.29,.9,3.85,2.54,5.24,1.3,1.1,2.81,1.01,4.33,1.01,11.35,0,22.7,0,34.04,0,.85,0,1.71,.03,2.53-.11,2.36-.4,3.91-2,4.28-4.39,.13-.83,.09-1.69,.09-2.54,0-5.08,0-10.16,0-15.24,0-.85,.04-1.7-.08-2.54-.38-2.65-1.97-4.27-4.66-4.55-1.68-.17-3.38-.07-6.05-.09Z"/><path class="cls-8" d="M61.29,103.63c.42,19.13,.44,38.21,.48,57.29,.01,6.26-1.96,11.59-6.96,15.59-.79,.63-1.51,1.35-2.66,1.7-.43-7.45-.44-14.57-.48-21.69,0-1.18,.03-2.39-.18-3.54-.2-1.11-1.07-1.62-2.22-1.68-1.29-.07-2.34,.4-3.12,1.39-.62,.8-1.13,1.68-1.67,2.54-3.25,5.16-6.5,10.32-10.13,15.49-.87-.09-1.43-.07-1.84-.3-6.54-3.73-13.09-7.45-19.56-11.3-1.24-.74-2.17-2.01-3.24-3.04,4.7-10.13,9.39-20.27,14.12-30.39,2.09-4.47,4.65-8.64,7.99-12.31,3.66-4.02,8.13-6.62,13.5-7.49,5.18-.84,10.38-1.54,15.96-2.25Z"/><path class="cls-12" d="M176.38,97.87c3.37,.02,6.74,.03,10.12,.08,1.35,.02,2.7,.21,4.05,.22,11.51,.01,23.01,0,35.01,.49,.49,11.86,.42,23.21,.54,34.56,.03,3.02-.64,5.75-2.29,8.16-2.69,3.94-6.26,6.78-11.23,6.88-7.45,.16-14.91,.12-22.37,0-3.9-.06-7.27-1.78-9.74-4.73-2.88-3.45-4.43-7.47-4.37-12.13,.12-10,.03-20,.05-29.99,0-1.18,.16-2.36,.25-3.54Z"/><path class="cls-14" d="M117.13,69.05c-.11,7.29,1.31,7.5-5.68,14.25-.94,.91-1.58,2.12-2.77,3.58-1.12,.81-1.94,1.12-2.51,1.68-2.18,2.15-4.77,2.9-7.77,2.76-2.67-.12-5.36-.13-8.03,0-3.17,.15-5.92-.55-8.25-2.85-.65-.64-1.74-.83-2.63-1.23-.53-1.01-1-2.06-1.61-3.03-.35-.56-.93-.97-1.4-1.45q-5.17-5.25-5.18-13.78c-.05-5.2-.12-9.47-.19-14.19,.07-6.12,.15-11.8,.7-17.5,15.46,0,30.45,.04,45.45,.54-.02,5.88-.06,11.29-.12,17.18-.02,5,0,9.51,0,14.03Z"/><path class="cls-8" d="M137.45,178.89c-1.11-.73-2.2-1.51-3.24-2.35-4.08-3.27-6.12-7.51-6.12-12.75,0-1.85-.07-3.71-.07-5.56,.01-17.87,.04-35.75,.07-54.08,5.7,.34,11.43,.89,17.05,2,9.82,1.94,15.67,8.61,16.55,18.53,1.18,13.31,2.26,26.62,3.09,40.54-6.63,2.95-12.95,5.31-19.3,7.59-1.24,.45-2.6,.56-3.94,.39q-1.22-19.1-2.71-21.66c-.27,.18-.76,.34-.79,.56-1.06,8.91-.33,17.84-.4,26.77,0,0-.16-.05-.2,.02Z"/><path class="cls-10" d="M205.8,226.61c0,58.43,.02,116.86,.02,175.29,0,1.02,.03,2.04-.09,3.04-.28,2.31-1.78,3.75-3.95,3.92-2.38,.19-4.38-1.19-4.95-3.46-.16-.65-.18-1.34-.19-2.02-.03-1.35-.02-2.71-.02-4.06,0-56.4,0-112.8,0-169.2,0-2.2-.04-4.4-.06-7.53,0-4.36,0-7.79,.29-11.38,1.42-.74,2.56-1.31,3.64-1.47-.19,1.07-.41,1.73-.45,2.39-.17,2.83-.45,5.67-.37,8.5,.09,2.95,1.52,5.1,4.64,5.73,.49,.1,.99,.17,1.49,.25Z"/><path class="cls-14" d="M50.99,202.06q.48,5,4.82,7.26c2.69,1.41,5.31,2.97,8.06,4.23,3.05,1.4,4.19,3.85,4.12,6.91-.07,2.7-.67,5.36-2.07,7.74-1.35,2.31-3.22,3.78-6.1,3.86-2.35,.06-4.68,.44-7.46,.65-2.91-.44-5.55-.46-7.84-1.36-3.48-1.37-6.78-3.32-6.84-7.85-.03-1.94-1.45-3-2.68-4.11-2.75-2.48-5.51-4.97-8.41-7.28-5-4.01-9.9-8.11-14.51-12.58-2.42-2.34-5.11-4.39-7.57-6.7C1.4,189.91-.02,186.32,0,181.97c.02-3.65,.32-7.08,3.44-10.14,1.74,.37,2.83,.84,3.85,1.43,4.97,2.88,9.89,5.85,14.9,8.67,2.04,1.15,4.25,1.99,6.43,3.33,4.28,6.58,8.5,12.8,12.76,19,.25,.37,.82,.52,1.49,.93,2.36-1.75,4.89-3.45,8.12-3.12Z"/><path class="cls-16" d="M61.05,27.16c.57-13.38,10.99-24.75,24.2-26.57,6.76-.93,13.5-.71,20.21,.23,11.19,1.57,19.39,9.93,20.93,21.07,.21,1.51,.41,3.01,.17,4.91-22.14,.38-43.82,.37-65.51,.36Z"/><path class="cls-4" d="M175.99,97.77c.3,1.28,.14,2.46,.14,3.64-.02,10,.07,20-.05,29.99-.06,4.66,1.49,8.68,4.37,12.13,2.47,2.95,5.84,4.67,9.74,4.73,7.45,.12,14.91,.15,22.37,0,4.98-.1,8.55-2.95,11.23-6.88,1.65-2.41,2.32-5.14,2.29-8.16-.12-11.35-.05-22.71-.06-34.56,.87-1.3,1.94-1.36,2.76-.67,.87,.73,1.68,1.68,2.11,2.71,.37,.88,.19,2,.19,3.01,0,12.87-.05,25.75,.02,38.62,.04,7.83-4.03,12.98-10.44,16.71-1.79,1.04-3.72,1.55-5.82,1.5-2.71-.06-5.42,0-9.06-.01-3.71-.03-6.49-.04-9.27-.05-2.71,.02-5.42,0-8.13,.07-1.9,.04-3.63-.44-5.4-1.15-8.59-3.47-11.41-10.56-11.82-18.99-.27-5.58-.05-11.17-.05-16.76,0-5.93,0-11.85,0-17.78,0-1.02-.03-2.03,.02-3.05,.14-2.87,1.34-4.86,4.85-5.05Z"/><path class="cls-3" d="M60.59,27.22c22.15-.05,43.84-.04,65.99-.01,3.34,.07,6.23-.02,9.09,.2,2.69,.21,5.39,.58,8.01,1.19,1.62,.38,3.16,1.23,4.62,2.06,1.53,.87,2.66,2.15,2.41,4.12-.18,1.43-1.53,2.32-4,2.35-5.08,.08-10.17,.02-15.26,.04-2.37,0-4.74,.06-8.01,.04-2.66,.01-4.42,.08-6.19,.15-14.99-.03-29.98-.06-45.89-.15-2.74,0-4.56,.05-6.39,.1-7.27-.05-14.53-.08-21.8-.16-1.33-.02-2.72-.08-3.98-.46-2.04-.61-2.69-2.95-1.14-4.42,1.31-1.24,2.92-2.33,4.58-3.01,2.97-1.21,6.13-1.86,9.38-1.89,2.7-.02,5.41-.06,8.57-.15Z"/><path class="cls-14" d="M196.57,211.38c0,3.43,0,6.86-.1,10.75-3.59-1.15-7.27-2.47-10.56-4.44-11.1-6.63-22.38-12.98-32.97-20.45-2.49-1.76-4.82-3.64-6.03-6.94,4.02-2.09,7.76-3.68,11.54-5.15,4.1-1.59,8.23-3.07,12.35-4.59,1.86,3.25,4.41,5.93,7.01,8.59,4.23,4.35,8.93,8.27,12.43,14.16,.14,1.75,.07,2.77,.17,3.77,.26,2.57,1.46,3.79,4.14,4.24,.66,.11,1.35,.04,2.02,.05Z"/><path class="cls-20" d="M73.74,108.9c-1.14-1.98-2.27-3.96-3.6-6.28,.95-1.7,2.12-3.05,3.24-4.44,1.39-1.73,3.2-2.09,5.8-1.41,5.69,5.79,10.16,11.89,16.33,16.88,5.3-5.56,10.4-10.9,15.5-16.25,3.27-1.45,3.3-1.47,5.46,.73,1.14,1.16,2.2,2.39,3.46,3.86-1.15,2.49-2.47,4.7-4.17,7.45-.87,1.22-1.4,1.88-1.84,2.6-2.94,4.75-5.87,9.51-8.79,14.26-.55,.9-1.12,1.73-2.74,1.24-1.07-1.78-2.29-3.79-3.49-5.81-1.26-2.11-2.04-4.52-3.93-6.76-.82,1.36-1.45,2.33-1.99,3.34-1.28,2.39-2.47,4.83-3.8,7.19-.55,.98-1.07,2.18-2.97,2.1-.81-1.15-1.81-2.48-2.72-3.86-3.26-4.94-6.49-9.9-9.73-14.86Z"/><path class="cls-7" d="M53.87,374.79c10.56-.41,21.12-.46,32.15-.46,.59,1.21,.4,2.54,.91,3.5,1.56,2.98,1.59,6.13,1.53,9.33-.04,2.18-.04,4.37-.51,7.03-3.26,.79-5.47,2.3-7.65,3.95-2.71,2.06-5.58,3.81-8.99,4.07,.21-3.57-1.51-5.78-3.65-7.81-2.26-2.14-4.85-3.65-7.99-3.93-1.84-.16-3.71,.05-5.55-.12-.74-.07-1.43-.7-1.87-1.34,4.01-1.73,7.81-1.93,11.7-.89,1.62,.43,3.3,.7,4.96,.92,.37,.05,1.02-.31,1.17-.64,.17-.37,.08-1.22-.18-1.37-1.15-.65-2.38-1.54-3.61-1.6-4.39-.2-8.81-.21-13.2-.05-2.47,.09-2.95,.94-3.36,4.38-2.64,1.02-4.91,2.02-6.7,3.93-.41,.43-1.19,.51-1.81,.76,.19-3.5,2.16-5.95,4.78-7.95,2.01-1.54,4.13-2.92,6.63-4.06,.79,1.44,1.58,2.12,2.69,1.64,2.26-.97,4.61-.87,6.96-.84,3.52,.03,7.08-.35,10.49,.93,.14,.05,.35,.02,.5-.04,.3-.14,.75-.28,.81-.51,.13-.45,.22-1.25,0-1.39-1.09-.71-2.27-1.73-3.45-1.78-5.69-.25-11.43-.91-17.06,.71,.11-.77,.22-1.53,.76-2.5,1.07-.07,1.82,.35,2.31,.14,5.4-2.29,10.81-1.9,16.27-.29,.61,.18,1.25,.28,1.75,.39,.96-.87,.92-1.66,.2-2.3-1.32-1.19-2.97-1.51-4.69-1.51-3.37,0-6.74,.06-10.11-.05-2.35-.08-4.25,.75-5.92,2.3-.08-.73-.16-1.46-.25-2.55Z"/><path class="cls-7" d="M104.16,374.79c5.93-.49,11.86-.58,17.78-.62,4.57-.03,9.14-.02,14.21-.01,.51,.79,.54,1.57,.11,2.51-1.65-.4-2.83-1.4-4.05-1.45-4.38-.18-8.78-.13-13.17,.03-1.1,.04-2.24,.69-3.21,1.3-.4,.25-.51,1.15-.5,1.74,0,.21,.78,.55,1.21,.56,.47,.02,.95-.31,1.44-.43,4.98-1.2,9.95-1.68,14.99-.26,1.09,.31,2.34,.04,3.51,.04,.26,.85,.52,1.71,.38,2.82-1.03,0-1.64-.45-2.27-.47-4.68-.11-9.37-.24-14.05-.13-1.25,.03-2.55,.77-3.7,1.41-.36,.2-.46,1.16-.39,1.73,.03,.25,.83,.63,1.23,.58,1.98-.23,3.94-.8,5.92-.86,4.32-.12,8.68-.48,13.06,1.1,.38-.96,.67-1.71,.97-2.45,2.53,1.68,5.09,3.31,7.57,5.06,2.01,1.41,3.27,3.39,3.6,6.04-2.69-1-5.42-1.64-7.31-4.14-.24-.99-.3-1.86-.74-2.15-.96-.62-2.1-1.31-3.18-1.34-4.55-.12-9.1-.07-13.65,.06-.94,.03-1.96,.54-2.78,1.08-.94,.62-1.3,1.55-.08,2.58,2.19-.44,4.47-1.02,6.78-1.33,4.02-.53,8.03-.63,11.38,1.95-2.48,.42-4.65,.57-6.83,.68-3.15,.17-5.85,1.17-8.14,3.49-2.43,2.47-4.32,5.16-5.4,8.59-3.55-.81-6.11-2.79-8.75-4.58-2.24-1.53-4.48-3-7.25-3.36-.08-4.02-.23-8.04-.18-12.05,.01-1.3,.56-2.59,.83-3.89,.24-1.13,.44-2.28,.68-3.84Z"/><path class="cls-20" d="M28.57,184.9c-2.13-.98-4.34-1.83-6.38-2.98-5.01-2.82-9.92-5.79-14.9-8.67-1.02-.59-2.11-1.05-3.51-1.61-1.09-.91-1.83-1.8-2.67-2.78,1.67-3.93,3.73-7.55,6.03-11.03,.43-.65,1.28-1.02,2.25-1.64,1.38,.91,2.31,2.18,3.55,2.92,6.47,3.85,13.02,7.57,19.56,11.3,.41,.24,.97,.22,1.99,.65,1.55,1.65,1.89,3.02,.84,4.48-2.25,3.12-4.51,6.23-6.76,9.35Z"/><path class="cls-20" d="M171.06,180.32c-4.37,1.77-8.51,3.25-12.61,4.84-3.78,1.47-7.52,3.06-11.59,4.81-2.18,.2-3.55-.44-4.19-2.38-.9-2.73-1.93-5.42-3.06-8.84-.9-2.9,.79-3.88,1.99-5.11,1.3-.27,2.66-.39,3.9-.83,6.35-2.28,12.67-4.64,19.35-7.13,1.42-.23,2.52-.09,2.92,1.01,1.4,3.81,2.72,7.65,3.97,11.51,.17,.53-.27,1.25-.68,2.12Z"/><path class="cls-17" d="M102.72,394.94c2.88,0,5.12,1.46,7.36,2.99,2.64,1.8,5.2,3.77,9.16,4.69,2.6,.4,4.41,.93,6.23,.94,8.06,.05,16.13-.06,24.19-.11,0,1.86,.06,3.72-.02,5.58-.06,1.36-.97,2.18-2.25,2.37-1.16,.17-2.36,.14-3.55,.15-6.1,.01-12.2-.1-18.29,.04-5.26,.12-10.06-1.28-14.49-3.95-1.91-1.15-3.72-2.13-6.07-2.09-1.69,.03-2.39-.87-2.43-2.61-.07-2.54,.02-5.08,.16-7.99Z"/><path class="cls-17" d="M71.3,402.61c3.42-.64,6.29-2.4,9-4.46,2.17-1.65,4.39-3.16,7.55-3.48,.44,2.52,.61,5.05,.57,7.57-.04,2.28-.8,3.31-2.92,3.32-2.18,0-3.81,.88-5.58,1.95-4.56,2.75-9.5,4.22-14.92,4.08-5.91-.15-11.82-.03-17.74-.04-1.18,0-2.37,.03-3.54-.08-1.59-.15-2.52-.98-2.7-2.53-.17-1.5-.12-3.03,.35-4.97,8.19-.4,15.86-.31,23.54-.4,2.13-.03,4.26-.62,6.39-.95Z"/><path class="cls-19" d="M71.31,402.22c-2.14,.73-4.26,1.32-6.4,1.35-7.67,.1-15.35,0-23.49-.04-.47-2.74-.47-5.46-.34-8.62,.74-.69,1.53-.77,1.94-1.2,1.79-1.91,4.06-2.9,7.04-3.96,1.02-.34,1.47-.39,1.92-.44,.71,.37,1.4,1,2.14,1.07,1.84,.17,3.71-.05,5.55,.12,3.13,.28,5.73,1.78,7.99,3.93,2.14,2.03,3.86,4.25,3.65,7.81Z"/><path class="cls-19" d="M149.74,403.03c-8.14,.47-16.21,.57-24.27,.53-1.82-.01-3.63-.54-5.86-.94,.3-3.54,2.19-6.22,4.62-8.69,2.29-2.32,5-3.33,8.14-3.49,2.18-.12,4.36-.26,7.17-.7,1.07-.35,1.52-.4,1.96-.45,1.88,2.1,4.61,2.75,7.36,4.13,.58,3.13,.78,6.16,.9,9.61Z"/><path class="cls-14" d="M110.72,97.2c-4.82,5.56-9.92,10.9-15.22,16.46-6.16-4.99-10.64-11.09-15.93-16.84-.12-1.44-.11-2.58,.29-4.08,4.64,2.6,9.17,4.08,14.52,3.77,4.57-.26,9.06-.14,13.03-2.88,.38-.26,.97-.21,1.47-.3,1.53,.79,.68,2.59,1.84,3.87Z"/><path class="cls-14" d="M206.15,226.58c-.85-.06-1.35-.12-1.84-.22-3.12-.63-4.55-2.78-4.64-5.73-.09-2.83,.2-5.66,.37-8.5,.04-.66,.26-1.31,.81-2.35,2.69,.25,3.74,2.39,5.45,3.72,1.75,1.36,2.77,1.03,4.15-1.5-1.65-2.47-3.37-4.97-5-7.53-.43-.68-.58-1.55-.71-2.54,.46-.39,.77-.56,1.08-.74,3.39-.37,6.35,.52,8.55,3.19,.7,.84,1.29,2.03,1.36,3.09,.43,5.92-1.86,11.13-4.7,16.12-.95,1.68-2.8,2.32-4.89,2.99Z"/><path class="cls-12" d="M196.54,160.96c2.76-.47,5.54-.45,8.79-.46,.44,8.51,.41,17.03-.13,26.02-3.11,.51-5.71,.56-8.31,.6-.1-3.35-.25-6.7-.28-10.06-.06-5.21-.03-10.42-.06-16.1Z"/><path class="cls-9" d="M204.59,202.15c.28,.78,.43,1.64,.86,2.32,1.63,2.56,3.34,5.06,5,7.53-1.39,2.53-2.4,2.86-4.15,1.5-1.71-1.33-2.76-3.47-5.4-4.14-1.49,.54-2.63,1.12-4.05,1.86-.96,.15-1.65,.21-2.31,.1-2.67-.44-3.88-1.66-4.14-4.24-.1-1-.02-2.02-.03-3.46,1.85-1.42,3.7-2.41,6.28-3.39,3.13,.64,5.53,1.28,7.94,1.92Z"/><path class="cls-5" d="M108.92,92.89c-.53,.53-1.13,.48-1.51,.74-3.97,2.73-8.46,2.61-13.03,2.88-5.35,.31-9.89-1.17-14.48-4.19-.39-1.45-.43-2.85-.44-4.66,.91-.02,2.01,.17,2.66,.81,2.33,2.3,5.08,3,8.25,2.85,2.67-.13,5.36-.13,8.03,0,3,.14,5.59-.61,7.77-2.76,.57-.56,1.39-.86,2.47-1.33,.35,1.71,.34,3.47,.28,5.66Z"/><path class="cls-6" d="M137.43,235.39c-1.8,.33-2.73-.87-3.7-2.07-1.27-1.57-2.55-3.13-3.9-4.63-3.48-3.89-7.01-7.74-10.5-11.63-.44-.49-.81-1.09-1.05-1.7-.5-1.27,.11-2.87,1.25-3.53,.99-.58,2.21-.4,3.18,.7,3.33,3.79,6.57,7.66,9.9,11.46,1.33,1.52,2.8,2.92,4.51,4.52,.33,2.25,.36,4.35,.3,6.9Z"/><path class="cls-10" d="M204.75,201.93c-2.56-.42-4.96-1.06-7.73-1.74-.35-4.09-.33-8.13-.23-12.62,2.69-.49,5.29-.53,8.33-.57,.53,4.42,.62,8.83,.7,13.72-.31,.65-.62,.82-1.08,1.21Z"/><path class="cls-2" d="M117.25,37.85c1.76-.55,3.52-.62,5.71-.59,0,4.95-.3,9.83-2.01,15.06-1.32,1.45-1.96,3.04-3.79,2.23,.03-5.41,.06-10.82,.09-16.7Z"/><path class="cls-18" d="M65.01,37.77c1.78-.5,3.6-.56,5.87-.53,.37,5.76,.29,11.44-.09,17.56-.95,0-1.63-.41-2.25-.89-.5-.39-.94-.85-1.4-1.28-.7-4.8-1.39-9.61-2.13-14.86Z"/><path class="cls-15" d="M141.55,173.2c-1.16,1.67-2.85,2.65-2.11,5.21-.41,.41-.8,.44-1.5,.46-.23-8.93-.96-17.87,.1-26.77,.03-.21,.52-.37,.79-.56q1.49,2.56,2.71,21.66Z"/><path class="cls-5" d="M117.13,55.03c1.87,.33,2.51-1.26,3.8-2.31,.88,.21,1.73,.42,1.89,.88,.32,.91,.49,2,.33,2.94-.57,3.29-1.28,6.56-2,9.82-.37,1.68-1.52,2.54-3.63,2.66-.4-4.48-.41-9-.39-13.99Z"/><path class="cls-5" d="M66.76,52.7c.84,.36,1.28,.83,1.78,1.21,.62,.48,1.3,.9,2.26,1.34,.37,4.27,.44,8.54,.5,13.3-2.33,.5-3.71-.48-4.12-2.92-.46-2.78-1.31-5.5-1.76-8.28-.25-1.56-.78-3.36,1.34-4.65Z"/><path class="cls-11" d="M53.4,381.25c5.78-1.72,11.52-1.06,17.21-.8,1.18,.05,2.36,1.07,3.45,1.78,.23,.15,.13,.95,0,1.39-.06,.23-.52,.37-.81,.51-.14,.07-.35,.1-.5,.04-3.41-1.28-6.97-.9-10.49-.93-2.35-.02-4.7-.13-6.96,.84-1.11,.48-1.91-.2-2.34-1.73-.03-.65,.09-.85,.43-1.1Z"/><path class="cls-11" d="M137.58,381.79c-.24,.9-.54,1.64-.92,2.6-4.38-1.58-8.74-1.22-13.06-1.1-1.98,.06-3.94,.63-5.92,.86-.4,.05-1.2-.32-1.23-.58-.07-.57,.03-1.53,.39-1.73,1.15-.64,2.44-1.38,3.7-1.41,4.68-.11,9.37,.01,14.05,.13,.63,.02,1.24,.47,2.28,.8,.41,.08,.66,.28,.71,.43Z"/><path class="cls-17" d="M54.06,377.54c1.72-1.75,3.62-2.57,5.97-2.5,3.37,.11,6.74,.04,10.11,.05,1.73,0,3.38,.32,4.69,1.51,.72,.65,.76,1.43-.2,2.3-.5-.11-1.13-.21-1.75-.39-5.45-1.61-10.87-2.01-16.27,.29-.49,.21-1.24-.21-2.19-.51-.31-.17-.42-.56-.37-.76Z"/><path class="cls-17" d="M136.54,377.96c-1.23,.24-2.48,.5-3.56,.2-5.05-1.41-10.02-.94-14.99,.26-.49,.12-.97,.44-1.44,.43-.43-.01-1.2-.35-1.21-.56-.02-.6,.1-1.49,.5-1.74,.97-.61,2.12-1.26,3.21-1.3,4.39-.16,8.79-.21,13.17-.03,1.22,.05,2.4,1.05,3.94,1.82,.34,.21,.44,.69,.39,.93Z"/><path class="cls-6" d="M108.82,150.33c2.18,.02,3.89-.09,5.56,.09,2.69,.28,4.29,1.9,4.66,4.55,.12,.83,.08,1.69,.08,2.54,0,5.08,0,10.16,0,15.24,0,.85,.04,1.7-.09,2.54-.37,2.39-1.92,3.99-4.28,4.39-.83,.14-1.69,.11-2.53,.11-11.35,0-22.7,0-34.04,0-1.52,0-3.04,.09-4.33-1.01-1.64-1.39-2.59-2.95-2.54-5.24,.12-5.59,.16-11.18,0-16.77-.12-4.27,2.42-6.54,6.54-6.48,10.16,.15,20.32,.05,30.97,.05Z"/><path class="cls-8" d="M73.66,109.35c3.32,4.51,6.55,9.47,9.81,14.41,.91,1.38,1.91,2.71,2.72,3.86,1.89,.08,2.42-1.12,2.97-2.1,1.33-2.36,2.52-4.8,3.8-7.19,.54-1.01,1.18-1.98,1.99-3.34,1.88,2.24,2.67,4.64,3.93,6.76,1.2,2.02,2.42,4.03,3.49,5.81,1.61,.49,2.18-.34,2.74-1.24,2.93-4.76,5.85-9.51,8.79-14.26,.44-.71,.97-1.38,1.73-2.26,.34,10.45,.41,21.1,.46,31.75,0,.31-.19,.62-.43,1.33-3.29,.68-6.82,.23-10.3,.31-3.55,.08-7.1,.02-10.65,.02s-6.76,.04-10.15-.01c-3.5-.06-7.03,.27-10.31-.22-.32-.65-.6-.94-.6-1.23-.04-10.65-.05-21.3,0-32.4Z"/><path class="cls-1" d="M28.62,185.25c2.21-3.47,4.47-6.58,6.72-9.71,1.05-1.46,.7-2.83-.46-4.49,3.1-5.51,6.35-10.67,9.6-15.82,.54-.86,1.05-1.75,1.67-2.54,.77-.98,1.82-1.46,3.12-1.39,1.15,.06,2.02,.57,2.22,1.68,.21,1.15,.17,2.36,.18,3.54,.04,7.12,.05,14.23,.16,21.82-.13,2.27-.49,4.06-.53,5.86-.11,5.65-.09,11.29-.22,17.39-3.33,.13-5.86,1.82-8.22,3.58-.67-.4-1.24-.56-1.49-.93-4.26-6.2-8.49-12.43-12.76-19Z"/><path class="cls-11" d="M52.24,389.02c-.71,.33-1.17,.38-1.96,.46-.15-3.14,.32-3.99,2.8-4.08,4.4-.16,8.81-.15,13.2,.05,1.23,.06,2.47,.94,3.61,1.6,.26,.15,.35,.99,.18,1.37-.15,.34-.8,.69-1.17,.64-1.67-.22-3.34-.49-4.96-.92-3.9-1.04-7.69-.84-11.7,.89Z"/><path class="cls-11" d="M141.49,388.9c-.44,.44-.88,.48-1.66,.55-3.98-2.27-7.98-2.18-12.01-1.64-2.31,.31-4.58,.89-6.78,1.33-1.21-1.03-.86-1.96,.08-2.58,.82-.54,1.84-1.06,2.78-1.08,4.55-.13,9.1-.18,13.65-.06,1.08,.03,2.23,.72,3.18,1.34,.44,.29,.5,1.15,.74,2.15Z"/></svg>