<svg version="1.1" id="Layer_1" xmlns="http://www.w3.org/2000/svg" xmlns:xlink="http://www.w3.org/1999/xlink" x="0px" y="0px"
	 width="100%" viewBox="0 0 512 512" enable-background="new 0 0 512 512" xml:space="preserve">
<path fill="#010101" opacity="1.000000" stroke="none" 
	d="
M102.000000,1.000000 
	C111.687561,1.000000 121.375122,1.000000 131.646988,1.367001 
	C142.649261,4.503432 151.801926,9.762850 158.943481,17.655308 
	C169.431107,29.245653 174.877762,43.028431 174.043793,58.955173 
	C173.970810,60.348751 174.051819,62.085136 174.802002,63.130978 
	C178.713791,68.584419 182.865265,73.865929 186.823059,79.062477 
	C190.049530,74.991707 193.103317,71.247734 196.026489,67.404411 
	C197.470825,65.505417 199.401215,63.562832 199.818268,61.391541 
	C200.461670,58.041729 199.830719,54.469280 200.027161,51.007538 
	C200.751846,38.236176 206.036270,27.417322 214.480392,18.009655 
	C221.985764,9.647864 231.602051,4.688523 242.000000,1.000000 
	C251.687561,1.000000 261.375122,1.000000 271.649292,1.369005 
	C281.591736,3.878234 289.672516,8.450782 296.506897,15.070732 
	C308.401398,26.592093 314.692535,40.531670 314.023712,57.323605 
	C313.951874,59.126793 313.503540,61.425037 314.388794,62.668686 
	C318.381531,68.277908 322.791779,73.589928 327.118317,79.094002 
	C330.806152,74.278282 334.612885,69.680603 337.946198,64.762100 
	C339.196564,62.917133 339.634521,60.364140 339.935516,58.067463 
	C340.487335,53.856453 340.316833,49.534813 341.055603,45.367092 
	C343.931458,29.143339 352.829224,16.827963 366.630432,8.182639 
	C371.386932,5.203074 376.856293,3.361439 382.000000,0.999997 
	C391.687561,1.000000 401.375122,1.000000 411.652161,1.371406 
	C426.196777,4.738339 436.722504,13.003649 444.586395,24.357813 
	C452.169067,35.305996 456.020935,47.653065 454.274841,61.280670 
	C454.174500,62.063633 454.761688,63.076370 455.299866,63.772797 
	C456.894653,65.836548 458.701050,67.737076 460.291016,69.804245 
	C477.366577,92.004387 481.796234,116.636040 474.101959,143.441437 
	C469.801697,158.422760 461.332062,170.791641 449.562897,180.958038 
	C438.450012,190.557632 425.781525,196.779770 411.207123,199.103622 
	C410.023926,199.292252 408.151520,200.891571 408.141144,201.852036 
	C407.954285,219.123917 408.005219,236.398376 408.005219,253.998077 
	C417.589844,253.998077 426.717682,253.983963 435.845490,254.003067 
	C441.935547,254.015808 445.635345,257.088104 447.009003,263.091736 
	C451.387390,282.227661 455.732361,301.371552 460.204163,320.485687 
	C465.407623,342.727020 470.741058,364.937897 476.000244,387.166229 
	C481.333649,409.708099 486.668243,432.249725 491.958130,454.801819 
	C495.339386,469.216705 498.753326,483.625549 501.935303,498.084900 
	C503.839874,506.739655 499.355835,512.001831 490.518921,512.001831 
	C334.728119,512.001892 178.937317,512.001831 23.146526,512.001831 
	C22.146799,512.001831 21.094170,512.202454 20.159452,511.955902 
	C18.670267,511.563171 17.129980,511.079956 15.838232,510.272125 
	C10.320245,506.821442 11.396339,501.239685 12.375249,496.433716 
	C15.263189,482.255310 18.748611,468.198212 22.023113,454.098969 
	C28.721138,425.258789 35.391773,396.412201 42.154602,367.587189 
	C47.371925,345.349487 52.719006,323.142212 57.996136,300.918518 
	C61.003822,288.252136 63.785854,275.527710 67.058502,262.930481 
	C68.940598,255.685867 71.749031,253.999741 79.322731,253.998428 
	C88.101990,253.996902 96.881248,253.998077 105.996971,253.998077 
	C105.996971,236.428162 106.038864,219.304703 105.896034,202.182785 
	C105.887184,201.121841 104.503136,199.228500 103.627907,199.148071 
	C93.938713,198.257675 85.248375,194.480209 76.892700,189.943787 
	C61.540577,181.608856 50.262295,169.080978 43.299732,153.312439 
	C37.376900,139.898651 34.695225,125.718941 36.811790,110.644264 
	C38.907955,95.714882 43.950455,82.367607 53.022617,70.414345 
	C55.217445,67.522491 57.797348,64.563354 58.796013,61.216202 
	C59.986191,57.227192 59.512573,52.768585 60.027012,48.545982 
	C61.413944,37.161728 66.348816,27.390354 73.745262,18.722982 
	C81.325874,9.839783 91.251465,4.785744 102.000000,1.000000 
M257.688477,37.938225 
	C264.539948,39.690670 266.938293,42.700081 266.954376,50.046173 
	C267.002167,71.875900 266.966614,93.705811 266.982758,115.535637 
	C266.983887,117.085709 267.140015,118.635674 267.308807,121.747345 
	C272.149933,116.619896 275.903351,112.399651 279.930695,108.459366 
	C282.947693,105.507591 287.142914,104.589767 290.516754,106.734924 
	C293.132538,108.398094 295.930145,111.866898 296.115265,114.698555 
	C296.317993,117.799583 294.302704,121.722527 292.048401,124.182289 
	C284.849640,132.037079 277.073639,139.361481 269.571381,146.941025 
	C268.564636,147.958145 267.138306,149.248947 267.112640,150.439026 
	C266.909821,159.838943 266.999908,169.245148 266.999908,179.946869 
	C274.410095,176.901871 281.281281,175.044006 287.142914,171.511108 
	C322.096710,150.443832 327.245636,104.856750 298.069733,76.294304 
	C294.002472,72.312546 292.477234,68.059326 293.334717,62.411270 
	C296.739685,39.983078 279.775543,20.415136 256.128448,20.070930 
	C232.058319,22.070312 217.383392,40.019192 220.650192,63.675011 
	C221.333496,68.623085 219.731537,72.293739 216.271255,75.725693 
	C189.921555,101.859619 190.260468,139.159103 217.251129,164.655548 
	C225.446884,172.397598 235.400955,177.039520 246.967865,178.784653 
	C246.967865,169.516479 247.076782,160.692886 246.865845,151.876953 
	C246.828552,150.319061 245.786118,148.471451 244.647461,147.304367 
	C236.969833,139.434753 229.088867,131.763931 221.379776,123.924454 
	C216.241776,118.699547 215.916412,112.708664 220.306030,108.488365 
	C224.460770,104.493881 230.452393,104.932510 235.400391,109.764221 
	C239.027420,113.306023 242.488785,117.017471 246.969101,121.625336 
	C246.969101,118.445030 246.969070,116.833664 246.969101,115.222290 
	C246.969406,93.397156 246.938995,71.571960 246.987000,49.746933 
	C247.003357,42.304928 249.604263,39.285885 257.688477,37.938225 
M397.716003,37.931530 
	C404.593414,39.457611 407.031342,42.478199 407.047394,49.870712 
	C407.089722,69.347572 407.062073,88.824585 407.062286,108.301537 
	C407.062317,112.225525 407.062286,116.149513 407.062286,121.561279 
	C411.464386,117.068436 414.763611,113.397850 418.406464,110.107712 
	C420.306671,108.391495 422.659332,106.727478 425.077026,106.130173 
	C429.552795,105.024399 433.295929,106.832954 435.525452,110.988960 
	C437.997101,115.596313 436.748291,119.753113 433.295898,123.265015 
	C425.477295,131.218399 417.528961,139.044052 409.681244,146.969055 
	C408.673309,147.986908 407.233582,149.270737 407.207794,150.457703 
	C407.003845,159.848068 407.094391,169.244812 407.094391,178.822144 
	C418.519501,176.991028 428.124207,172.520340 436.162994,165.272873 
	C463.547729,140.583786 464.363525,101.888702 438.135223,76.036537 
	C434.240143,72.197289 432.787628,68.250381 433.591583,62.677414 
	C436.889526,39.815666 419.904083,20.326571 396.129425,20.081614 
	C372.708466,21.128666 358.090515,41.264832 360.494141,60.333794 
	C361.429504,67.754379 359.447632,72.707458 354.346069,78.032318 
	C337.600739,95.510712 332.600555,116.369469 340.535614,139.284378 
	C348.086334,161.089615 363.998779,174.085419 387.068787,179.013992 
	C387.068787,176.657822 387.075684,174.679672 387.067566,172.701569 
	C387.036224,165.043823 389.116364,156.497559 386.377899,149.975159 
	C383.570099,143.287598 376.026917,138.598999 370.593445,132.999405 
	C366.774139,129.063309 362.742432,125.287476 359.319000,121.027473 
	C356.570221,117.606956 356.881836,113.554749 359.401642,109.910355 
	C361.984863,106.174278 365.818481,104.957390 369.929352,106.236664 
	C372.322937,106.981529 374.480316,108.884903 376.409241,110.635811 
	C379.852356,113.761154 383.041992,117.165741 387.069000,121.183235 
	C387.069000,96.684166 387.045898,73.544037 387.081757,50.403999 
	C387.093964,42.515839 389.578186,39.427898 397.716003,37.931530 
M117.661499,37.944389 
	C124.503601,39.791435 126.825706,42.901699 126.842072,50.701889 
	C126.886826,72.033981 126.857681,93.366219 126.857796,114.698402 
	C126.857803,116.382172 126.857803,118.065941 126.857803,120.712639 
	C132.064499,115.817993 136.138702,111.645576 140.584702,107.916466 
	C144.157440,104.919800 148.269638,105.022049 152.152237,107.636383 
	C155.954407,110.196556 157.093582,114.046303 155.847778,118.159805 
	C155.120743,120.560410 153.339371,122.831085 151.542145,124.685013 
	C144.235168,132.222488 136.704865,139.543030 129.349060,147.034042 
	C128.267548,148.135437 127.008873,149.708893 126.976974,151.090347 
	C126.766029,160.226639 126.867905,169.370132 126.867905,178.430969 
	C127.614906,178.568329 127.954941,178.734131 128.242798,178.669083 
	C150.650360,173.605545 166.255737,160.409882 173.525970,138.646683 
	C181.302811,115.366951 175.867264,94.544083 158.664719,77.164635 
	C154.070679,72.523354 152.256912,67.874763 153.196442,61.583618 
	C156.526398,39.286175 138.032501,19.889544 116.111702,20.069525 
	C92.228889,21.789074 77.374962,39.675995 80.343124,63.491417 
	C80.959564,68.437492 79.716927,72.147232 76.212509,75.582787 
	C58.009502,93.428062 52.010902,114.784149 60.125252,138.990265 
	C67.531258,161.083313 83.619469,174.076965 106.844810,179.057175 
	C106.844810,170.262329 107.047150,161.943893 106.714890,153.646866 
	C106.621727,151.320480 105.506821,148.535416 103.916275,146.854095 
	C96.595634,139.115646 88.689598,131.920532 81.550568,124.026749 
	C79.237503,121.469131 77.343040,117.268318 77.620804,114.021332 
	C77.854614,111.288139 81.040123,107.951508 83.777237,106.496567 
	C87.530060,104.501701 91.559288,106.104568 94.665016,109.170616 
	C98.481346,112.938187 102.274742,116.728981 106.845490,121.272606 
	C106.845490,96.643501 106.820686,73.358795 106.859268,50.074192 
	C106.872330,42.193146 109.334213,39.270279 117.661499,37.944389 
M265.499969,274.379730 
	C252.082092,274.379730 238.664230,274.379730 225.071320,274.379730 
	C221.998383,347.291260 218.957504,419.442657 215.913971,491.656738 
	C226.596252,491.656738 236.648209,491.656738 246.968475,491.656738 
	C246.968475,489.504791 246.968491,487.690735 246.968491,485.876648 
	C246.968521,438.057220 246.967529,390.237793 246.969421,342.418365 
	C246.969803,332.994415 250.520889,328.001801 257.105957,328.145325 
	C263.534210,328.285431 266.967529,333.184479 266.968079,342.253174 
	C266.971008,390.239227 266.969513,438.225250 266.969574,486.211304 
	C266.969574,487.994690 266.969574,489.778107 266.969574,491.694641 
	C277.523376,491.694641 287.576630,491.694641 297.968475,491.694641 
	C294.911163,419.230713 291.867371,347.087158 288.799805,274.380096 
	C281.087677,274.380096 273.793793,274.380096 265.499969,274.379730 
M389.550140,370.979309 
	C395.786865,411.221191 402.023560,451.463104 408.276550,491.809998 
	C416.826019,491.809998 424.945007,491.809998 433.450531,491.809998 
	C433.112366,489.796448 432.872528,488.010101 432.507721,486.249634 
	C425.925568,454.486633 419.316498,422.729187 412.743317,390.964355 
	C411.270966,383.849121 414.066620,378.617432 419.949341,377.233398 
	C425.696777,375.881165 430.580414,379.562012 432.137573,386.780426 
	C435.504944,402.390045 438.729431,418.030548 441.996552,433.661743 
	C446.040802,453.010956 450.069061,472.363495 454.124542,491.812073 
	C462.534882,491.812073 470.658630,491.812073 479.240753,491.812073 
	C462.343689,419.216003 445.512146,346.901489 428.699219,274.666840 
	C410.465546,274.666840 392.857086,274.666840 374.634491,274.666840 
	C379.572693,306.722412 384.456665,338.426086 389.550140,370.979309 
M94.203255,410.750824 
	C88.633377,437.685120 83.063507,464.619415 77.463776,491.698059 
	C87.263390,491.698059 96.351723,491.698059 105.617218,491.698059 
	C116.853912,419.241333 128.048813,347.054077 139.286514,274.590912 
	C120.785110,274.590912 103.165756,274.590912 85.189095,274.590912 
	C68.344612,346.972839 51.524410,419.250427 34.633556,491.831604 
	C42.402874,491.831604 49.526176,491.831604 56.781799,491.831604 
	C57.203091,490.106812 57.640442,488.519684 57.976288,486.911346 
	C64.976761,453.386749 71.935318,419.853363 78.982468,386.338562 
	C80.401138,379.591614 85.429817,375.944519 91.042725,377.217804 
	C96.779678,378.519196 99.818535,383.840332 98.491318,390.407196 
	C97.174057,396.924805 95.778099,403.426514 94.203255,410.750824 
M354.258148,275.300446 
	C350.578735,274.911407 346.899292,274.522369 342.537079,274.061096 
	C343.224854,281.872437 343.798279,288.792511 344.450073,295.705170 
	C345.918884,311.282837 347.536499,326.847412 348.867249,342.436676 
	C349.445801,349.214569 345.437653,354.014526 339.572876,354.324493 
	C333.779510,354.630707 329.630035,350.705444 328.990234,344.096771 
	C327.578705,329.516754 326.269470,314.926849 324.879395,300.344727 
	C324.063507,291.785583 323.172577,283.233551 322.313904,274.663330 
	C317.616211,274.663330 313.506317,274.663330 308.815338,274.663330 
	C311.882996,347.186615 314.939789,419.452881 317.999237,491.781494 
	C341.627014,491.781494 364.719177,491.781494 388.019623,491.781494 
	C376.850433,419.719452 365.719391,347.903656 354.258148,275.300446 
M194.028473,274.435516 
	C190.509476,274.310699 191.239563,277.031128 191.052155,279.012177 
	C188.998566,300.722290 187.020493,322.439636 184.929764,344.146149 
	C184.466675,348.953979 182.358780,352.780487 177.224686,353.981750 
	C170.241013,355.615723 164.522858,350.689697 165.063843,342.900116 
	C165.940094,330.283081 167.351501,317.703339 168.522964,305.106598 
	C169.458237,295.049713 170.372726,284.990875 171.342499,274.431427 
	C168.078445,274.431427 165.368774,274.060638 162.839813,274.576202 
	C161.416672,274.866364 159.380829,276.467682 159.169922,277.735901 
	C156.277527,295.128174 153.670990,312.567780 150.963776,329.991058 
	C144.451065,371.906006 137.915771,413.817413 131.404083,455.732513 
	C129.548691,467.675415 127.742996,479.626007 125.884514,491.769104 
	C149.377121,491.769104 172.455475,491.769104 195.878784,491.769104 
	C198.932907,419.297211 201.977844,347.043091 205.037857,274.431183 
	C201.209045,274.431183 198.065323,274.431183 194.028473,274.435516 
M273.973724,198.535660 
	C267.001923,199.614594 267.001892,199.614594 267.001892,207.066620 
	C267.001862,217.553772 267.001892,228.040924 267.001892,238.528076 
	C267.001892,243.619629 267.001892,248.711182 267.001892,253.750931 
	C307.292206,253.750931 346.996002,253.750931 386.997681,253.750931 
	C386.997681,236.559097 387.070465,219.611755 386.846985,202.668320 
	C386.830688,201.434219 384.812592,199.364777 383.477722,199.137512 
	C358.694092,194.918030 340.443848,181.365723 327.952362,161.399933 
	C320.350525,169.050247 313.060425,177.485016 304.630981,184.562881 
	C296.105774,191.721130 285.961853,196.427048 273.973724,198.535660 
M199.497101,176.000015 
	C195.086990,170.791672 190.676880,165.583313 186.267487,160.375809 
	C185.155014,162.363129 184.171173,164.782898 182.629807,166.770248 
	C169.430176,183.789093 152.741653,195.356400 131.161224,198.937149 
	C127.929520,199.473358 126.875534,200.702271 126.925606,203.999634 
	C127.115318,216.491852 127.001938,228.988663 127.001938,241.483765 
	C127.001930,245.586517 127.001938,249.689255 127.001938,253.726349 
	C166.961151,253.726349 206.355179,253.726349 245.997543,253.726349 
	C245.997543,236.488632 246.057526,219.520828 245.869400,202.555786 
	C245.856155,201.361404 244.155807,199.327347 242.996994,199.133057 
	C226.145187,196.307632 211.856186,188.750656 199.497101,176.000015 
z"/>
<path fill="#FFFFFF" opacity="1.000000" stroke="none" 
	d="
M101.531342,1.000000 
	C91.251465,4.785744 81.325874,9.839783 73.745262,18.722982 
	C66.348816,27.390354 61.413944,37.161728 60.027012,48.545982 
	C59.512573,52.768585 59.986191,57.227192 58.796013,61.216202 
	C57.797348,64.563354 55.217445,67.522491 53.022617,70.414345 
	C43.950455,82.367607 38.907955,95.714882 36.811790,110.644264 
	C34.695225,125.718941 37.376900,139.898651 43.299732,153.312439 
	C50.262295,169.080978 61.540577,181.608856 76.892700,189.943787 
	C85.248375,194.480209 93.938713,198.257675 103.627907,199.148071 
	C104.503136,199.228500 105.887184,201.121841 105.896034,202.182785 
	C106.038864,219.304703 105.996971,236.428162 105.996971,253.998077 
	C96.881248,253.998077 88.101990,253.996902 79.322731,253.998428 
	C71.749031,253.999741 68.940598,255.685867 67.058502,262.930481 
	C63.785854,275.527710 61.003822,288.252136 57.996136,300.918518 
	C52.719006,323.142212 47.371925,345.349487 42.154602,367.587189 
	C35.391773,396.412201 28.721138,425.258789 22.023113,454.098969 
	C18.748611,468.198212 15.263189,482.255310 12.375249,496.433716 
	C11.396339,501.239685 10.320245,506.821442 15.838232,510.272125 
	C17.129980,511.079956 18.670267,511.563171 20.159452,511.955902 
	C21.094170,512.202454 22.146799,512.001831 23.146526,512.001831 
	C178.937317,512.001831 334.728119,512.001892 490.518921,512.001831 
	C499.355835,512.001831 503.839874,506.739655 501.935303,498.084900 
	C498.753326,483.625549 495.339386,469.216705 491.958130,454.801819 
	C486.668243,432.249725 481.333649,409.708099 476.000244,387.166229 
	C470.741058,364.937897 465.407623,342.727020 460.204163,320.485687 
	C455.732361,301.371552 451.387390,282.227661 447.009003,263.091736 
	C445.635345,257.088104 441.935547,254.015808 435.845490,254.003067 
	C426.717682,253.983963 417.589844,253.998077 408.005219,253.998077 
	C408.005219,236.398376 407.954285,219.123917 408.141144,201.852036 
	C408.151520,200.891571 410.023926,199.292252 411.207123,199.103622 
	C425.781525,196.779770 438.450012,190.557632 449.562897,180.958038 
	C461.332062,170.791641 469.801697,158.422760 474.101959,143.441437 
	C481.796234,116.636040 477.366577,92.004387 460.291016,69.804245 
	C458.701050,67.737076 456.894653,65.836548 455.299866,63.772797 
	C454.761688,63.076370 454.174500,62.063633 454.274841,61.280670 
	C456.020935,47.653065 452.169067,35.305996 444.586395,24.357813 
	C436.722504,13.003649 426.196777,4.738339 412.120789,1.371406 
	C445.658173,1.000000 479.316376,1.000000 512.980957,0.999999 
	C512.987305,171.615189 512.987305,342.230377 512.987305,512.922791 
	C342.427826,512.922791 171.855606,512.922791 1.141688,512.922791 
	C1.141688,342.333405 1.141688,171.666718 1.141688,1.000000 
	C34.412582,1.000000 67.737633,1.000000 101.531342,1.000000 
z"/>
<path fill="#FFFFFF" opacity="1.000000" stroke="none" 
	d="
M381.531342,0.999997 
	C376.856293,3.361439 371.386932,5.203074 366.630432,8.182639 
	C352.829224,16.827963 343.931458,29.143339 341.055603,45.367092 
	C340.316833,49.534813 340.487335,53.856453 339.935516,58.067463 
	C339.634521,60.364140 339.196564,62.917133 337.946198,64.762100 
	C334.612885,69.680603 330.806152,74.278282 327.118317,79.094002 
	C322.791779,73.589928 318.381531,68.277908 314.388794,62.668686 
	C313.503540,61.425037 313.951874,59.126793 314.023712,57.323605 
	C314.692535,40.531670 308.401398,26.592093 296.506897,15.070732 
	C289.672516,8.450782 281.591736,3.878234 272.117920,1.369005 
	C308.354218,1.000000 344.708466,1.000000 381.531342,0.999997 
z"/>
<path fill="#FFFFFF" opacity="1.000000" stroke="none" 
	d="
M241.531342,1.000000 
	C231.602051,4.688523 221.985764,9.647864 214.480392,18.009655 
	C206.036270,27.417322 200.751846,38.236176 200.027161,51.007538 
	C199.830719,54.469280 200.461670,58.041729 199.818268,61.391541 
	C199.401215,63.562832 197.470825,65.505417 196.026489,67.404411 
	C193.103317,71.247734 190.049530,74.991707 186.823059,79.062477 
	C182.865265,73.865929 178.713791,68.584419 174.802002,63.130978 
	C174.051819,62.085136 173.970810,60.348751 174.043793,58.955173 
	C174.877762,43.028431 169.431107,29.245653 158.943481,17.655308 
	C151.801926,9.762850 142.649261,4.503432 132.115646,1.367001 
	C168.354233,1.000000 204.708450,1.000000 241.531342,1.000000 
z"/>
<path fill="#D18959" opacity="1.000000" stroke="none" 
	d="
M265.999939,274.379913 
	C273.793793,274.380096 281.087677,274.380096 288.799805,274.380096 
	C291.867371,347.087158 294.911163,419.230713 297.968475,491.694641 
	C287.576630,491.694641 277.523376,491.694641 266.969574,491.694641 
	C266.969574,489.778107 266.969574,487.994690 266.969574,486.211304 
	C266.969513,438.225250 266.971008,390.239227 266.968079,342.253174 
	C266.967529,333.184479 263.534210,328.285431 257.105957,328.145325 
	C250.520889,328.001801 246.969803,332.994415 246.969421,342.418365 
	C246.967529,390.237793 246.968521,438.057220 246.968491,485.876648 
	C246.968491,487.690735 246.968475,489.504791 246.968475,491.656738 
	C236.648209,491.656738 226.596252,491.656738 215.913971,491.656738 
	C218.957504,419.442657 221.998383,347.291260 225.071320,274.379730 
	C238.664230,274.379730 252.082092,274.379730 265.999939,274.379913 
M247.702942,294.602753 
	C246.155411,301.274506 248.854935,306.514893 254.531677,307.858948 
	C260.079224,309.172394 265.118378,305.973328 266.568970,300.217102 
	C267.667877,295.856323 265.301056,291.062775 261.088501,289.117493 
	C256.288757,286.901062 251.817627,288.525299 247.702942,294.602753 
z"/>
<path fill="#D9986F" opacity="1.000000" stroke="none" 
	d="
M389.445374,370.554504 
	C384.456665,338.426086 379.572693,306.722412 374.634491,274.666840 
	C392.857086,274.666840 410.465546,274.666840 428.699219,274.666840 
	C445.512146,346.901489 462.343689,419.216003 479.240753,491.812073 
	C470.658630,491.812073 462.534882,491.812073 454.124542,491.812073 
	C450.069061,472.363495 446.040802,453.010956 441.996552,433.661743 
	C438.729431,418.030548 435.504944,402.390045 432.137573,386.780426 
	C430.580414,379.562012 425.696777,375.881165 419.949341,377.233398 
	C414.066620,378.617432 411.270966,383.849121 412.743317,390.964355 
	C419.316498,422.729187 425.925568,454.486633 432.507721,486.249634 
	C432.872528,488.010101 433.112366,489.796448 433.450531,491.809998 
	C424.945007,491.809998 416.826019,491.809998 408.276550,491.809998 
	C402.023560,451.463104 395.786865,411.221191 389.445374,370.554504 
z"/>
<path fill="#D9986F" opacity="1.000000" stroke="none" 
	d="
M94.309952,410.343018 
	C95.778099,403.426514 97.174057,396.924805 98.491318,390.407196 
	C99.818535,383.840332 96.779678,378.519196 91.042725,377.217804 
	C85.429817,375.944519 80.401138,379.591614 78.982468,386.338562 
	C71.935318,419.853363 64.976761,453.386749 57.976288,486.911346 
	C57.640442,488.519684 57.203091,490.106812 56.781799,491.831604 
	C49.526176,491.831604 42.402874,491.831604 34.633556,491.831604 
	C51.524410,419.250427 68.344612,346.972839 85.189095,274.590912 
	C103.165756,274.590912 120.785110,274.590912 139.286514,274.590912 
	C128.048813,347.054077 116.853912,419.241333 105.617218,491.698059 
	C96.351723,491.698059 87.263390,491.698059 77.463776,491.698059 
	C83.063507,464.619415 88.633377,437.685120 94.309952,410.343018 
z"/>
<path fill="#FAC394" opacity="1.000000" stroke="none" 
	d="
M354.423248,275.694153 
	C365.719391,347.903656 376.850433,419.719452 388.019623,491.781494 
	C364.719177,491.781494 341.627014,491.781494 317.999237,491.781494 
	C314.939789,419.452881 311.882996,347.186615 308.815338,274.663330 
	C313.506317,274.663330 317.616211,274.663330 322.313904,274.663330 
	C323.172577,283.233551 324.063507,291.785583 324.879395,300.344727 
	C326.269470,314.926849 327.578705,329.516754 328.990234,344.096771 
	C329.630035,350.705444 333.779510,354.630707 339.572876,354.324493 
	C345.437653,354.014526 349.445801,349.214569 348.867249,342.436676 
	C347.536499,326.847412 345.918884,311.282837 344.450073,295.705170 
	C343.798279,288.792511 343.224854,281.872437 342.537079,274.061096 
	C346.899292,274.522369 350.578735,274.911407 354.423248,275.694153 
z"/>
<path fill="#FAC394" opacity="1.000000" stroke="none" 
	d="
M194.475037,274.433350 
	C198.065323,274.431183 201.209045,274.431183 205.037857,274.431183 
	C201.977844,347.043091 198.932907,419.297211 195.878784,491.769104 
	C172.455475,491.769104 149.377121,491.769104 125.884514,491.769104 
	C127.742996,479.626007 129.548691,467.675415 131.404083,455.732513 
	C137.915771,413.817413 144.451065,371.906006 150.963776,329.991058 
	C153.670990,312.567780 156.277527,295.128174 159.169922,277.735901 
	C159.380829,276.467682 161.416672,274.866364 162.839813,274.576202 
	C165.368774,274.060638 168.078445,274.431427 171.342499,274.431427 
	C170.372726,284.990875 169.458237,295.049713 168.522964,305.106598 
	C167.351501,317.703339 165.940094,330.283081 165.063843,342.900116 
	C164.522858,350.689697 170.241013,355.615723 177.224686,353.981750 
	C182.358780,352.780487 184.466675,348.953979 184.929764,344.146149 
	C187.020493,322.439636 188.998566,300.722290 191.052155,279.012177 
	C191.239563,277.031128 190.509476,274.310699 194.475037,274.433350 
z"/>
<path fill="#FFFFFF" opacity="1.000000" stroke="none" 
	d="
M274.328979,198.289246 
	C285.961853,196.427048 296.105774,191.721130 304.630981,184.562881 
	C313.060425,177.485016 320.350525,169.050247 327.952362,161.399933 
	C340.443848,181.365723 358.694092,194.918030 383.477722,199.137512 
	C384.812592,199.364777 386.830688,201.434219 386.846985,202.668320 
	C387.070465,219.611755 386.997681,236.559097 386.997681,253.750931 
	C346.996002,253.750931 307.292206,253.750931 267.001892,253.750931 
	C267.001892,248.711182 267.001892,243.619629 267.001892,238.528076 
	C267.001892,228.040924 267.001862,217.553772 267.001892,207.066620 
	C267.001892,199.614594 267.001923,199.614594 274.328979,198.289246 
z"/>
<path fill="#FFFFFF" opacity="1.000000" stroke="none" 
	d="
M199.748444,176.251373 
	C211.856186,188.750656 226.145187,196.307632 242.996994,199.133057 
	C244.155807,199.327347 245.856155,201.361404 245.869400,202.555786 
	C246.057526,219.520828 245.997543,236.488632 245.997543,253.726349 
	C206.355179,253.726349 166.961151,253.726349 127.001938,253.726349 
	C127.001938,249.689255 127.001930,245.586517 127.001938,241.483765 
	C127.001938,228.988663 127.115318,216.491852 126.925606,203.999634 
	C126.875534,200.702271 127.929520,199.473358 131.161224,198.937149 
	C152.741653,195.356400 169.430176,183.789093 182.629807,166.770248 
	C184.171173,164.782898 185.155014,162.363129 186.267487,160.375809 
	C190.676880,165.583313 195.086990,170.791672 199.748444,176.251373 
z"/>
<path fill="#4BDD9F" opacity="1.000000" stroke="none" 
	d="
M116.929924,37.733700 
	C109.334213,39.270279 106.872330,42.193146 106.859268,50.074192 
	C106.820686,73.358795 106.845490,96.643501 106.845490,121.272606 
	C102.274742,116.728981 98.481346,112.938187 94.665016,109.170616 
	C91.559288,106.104568 87.530060,104.501701 83.777237,106.496567 
	C81.040123,107.951508 77.854614,111.288139 77.620804,114.021332 
	C77.343040,117.268318 79.237503,121.469131 81.550568,124.026749 
	C88.689598,131.920532 96.595634,139.115646 103.916275,146.854095 
	C105.506821,148.535416 106.621727,151.320480 106.714890,153.646866 
	C107.047150,161.943893 106.844810,170.262329 106.844810,179.057175 
	C83.619469,174.076965 67.531258,161.083313 60.125252,138.990265 
	C52.010902,114.784149 58.009502,93.428062 76.212509,75.582787 
	C79.716927,72.147232 80.959564,68.437492 80.343124,63.491417 
	C77.374962,39.675995 92.228889,21.789074 116.543861,20.586418 
	C116.960655,26.646772 116.945290,32.190235 116.929924,37.733700 
z"/>
<path fill="#18B97C" opacity="1.000000" stroke="none" 
	d="
M396.957947,20.181528 
	C419.904083,20.326571 436.889526,39.815666 433.591583,62.677414 
	C432.787628,68.250381 434.240143,72.197289 438.135223,76.036537 
	C464.363525,101.888702 463.547729,140.583786 436.162994,165.272873 
	C428.124207,172.520340 418.519501,176.991028 407.094391,178.822144 
	C407.094391,169.244812 407.003845,159.848068 407.207794,150.457703 
	C407.233582,149.270737 408.673309,147.986908 409.681244,146.969055 
	C417.528961,139.044052 425.477295,131.218399 433.295898,123.265015 
	C436.748291,119.753113 437.997101,115.596313 435.525452,110.988960 
	C433.295929,106.832954 429.552795,105.024399 425.077026,106.130173 
	C422.659332,106.727478 420.306671,108.391495 418.406464,110.107712 
	C414.763611,113.397850 411.464386,117.068436 407.062286,121.561279 
	C407.062286,116.149513 407.062317,112.225525 407.062286,108.301537 
	C407.062073,88.824585 407.089722,69.347572 407.047394,49.870712 
	C407.031342,42.478199 404.593414,39.457611 397.348663,37.397751 
	C396.973541,31.303154 396.965729,25.742342 396.957947,20.181528 
z"/>
<path fill="#4BDE9F" opacity="1.000000" stroke="none" 
	d="
M256.942719,37.754997 
	C249.604263,39.285885 247.003357,42.304928 246.987000,49.746933 
	C246.938995,71.571960 246.969406,93.397156 246.969101,115.222290 
	C246.969070,116.833664 246.969101,118.445030 246.969101,121.625336 
	C242.488785,117.017471 239.027420,113.306023 235.400391,109.764221 
	C230.452393,104.932510 224.460770,104.493881 220.306030,108.488365 
	C215.916412,112.708664 216.241776,118.699547 221.379776,123.924454 
	C229.088867,131.763931 236.969833,139.434753 244.647461,147.304367 
	C245.786118,148.471451 246.828552,150.319061 246.865845,151.876953 
	C247.076782,160.692886 246.967865,169.516479 246.967865,178.784653 
	C235.400955,177.039520 225.446884,172.397598 217.251129,164.655548 
	C190.260468,139.159103 189.921555,101.859619 216.271255,75.725693 
	C219.731537,72.293739 221.333496,68.623085 220.650192,63.675011 
	C217.383392,40.019192 232.058319,22.070312 256.555115,20.583710 
	C256.968750,26.649324 256.955750,32.202160 256.942719,37.754997 
z"/>
<path fill="#18BA7C" opacity="1.000000" stroke="none" 
	d="
M257.315613,37.846611 
	C256.955750,32.202160 256.968750,26.649324 256.968567,20.641514 
	C279.775543,20.415136 296.739685,39.983078 293.334717,62.411270 
	C292.477234,68.059326 294.002472,72.312546 298.069733,76.294304 
	C327.245636,104.856750 322.096710,150.443832 287.142914,171.511108 
	C281.281281,175.044006 274.410095,176.901871 266.999908,179.946869 
	C266.999908,169.245148 266.909821,159.838943 267.112640,150.439026 
	C267.138306,149.248947 268.564636,147.958145 269.571381,146.941025 
	C277.073639,139.361481 284.849640,132.037079 292.048401,124.182289 
	C294.302704,121.722527 296.317993,117.799583 296.115265,114.698555 
	C295.930145,111.866898 293.132538,108.398094 290.516754,106.734924 
	C287.142914,104.589767 282.947693,105.507591 279.930695,108.459366 
	C275.903351,112.399651 272.149933,116.619896 267.308807,121.747345 
	C267.140015,118.635674 266.983887,117.085709 266.982758,115.535637 
	C266.966614,93.705811 267.002167,71.875900 266.954376,50.046173 
	C266.938293,42.700081 264.539948,39.690670 257.315613,37.846611 
z"/>
<path fill="#4BDEA0" opacity="1.000000" stroke="none" 
	d="
M396.543701,20.131571 
	C396.965729,25.742342 396.973541,31.303154 396.969299,37.315853 
	C389.578186,39.427898 387.093964,42.515839 387.081757,50.403999 
	C387.045898,73.544037 387.069000,96.684166 387.069000,121.183235 
	C383.041992,117.165741 379.852356,113.761154 376.409241,110.635811 
	C374.480316,108.884903 372.322937,106.981529 369.929352,106.236664 
	C365.818481,104.957390 361.984863,106.174278 359.401642,109.910355 
	C356.881836,113.554749 356.570221,117.606956 359.319000,121.027473 
	C362.742432,125.287476 366.774139,129.063309 370.593445,132.999405 
	C376.026917,138.598999 383.570099,143.287598 386.377899,149.975159 
	C389.116364,156.497559 387.036224,165.043823 387.067566,172.701569 
	C387.075684,174.679672 387.068787,176.657822 387.068787,179.013992 
	C363.998779,174.085419 348.086334,161.089615 340.535614,139.284378 
	C332.600555,116.369469 337.600739,95.510712 354.346069,78.032318 
	C359.447632,72.707458 361.429504,67.754379 360.494141,60.333794 
	C358.090515,41.264832 372.708466,21.128666 396.543701,20.131571 
z"/>
<path fill="#18BA7C" opacity="1.000000" stroke="none" 
	d="
M117.295715,37.839043 
	C116.945290,32.190235 116.960655,26.646772 116.961746,20.648859 
	C138.032501,19.889544 156.526398,39.286175 153.196442,61.583618 
	C152.256912,67.874763 154.070679,72.523354 158.664719,77.164635 
	C175.867264,94.544083 181.302811,115.366951 173.525970,138.646683 
	C166.255737,160.409882 150.650360,173.605545 128.242798,178.669083 
	C127.954941,178.734131 127.614906,178.568329 126.867905,178.430969 
	C126.867905,169.370132 126.766029,160.226639 126.976974,151.090347 
	C127.008873,149.708893 128.267548,148.135437 129.349060,147.034042 
	C136.704865,139.543030 144.235168,132.222488 151.542145,124.685013 
	C153.339371,122.831085 155.120743,120.560410 155.847778,118.159805 
	C157.093582,114.046303 155.954407,110.196556 152.152237,107.636383 
	C148.269638,105.022049 144.157440,104.919800 140.584702,107.916466 
	C136.138702,111.645576 132.064499,115.817993 126.857803,120.712639 
	C126.857803,118.065941 126.857803,116.382172 126.857796,114.698402 
	C126.857681,93.366219 126.886826,72.033981 126.842072,50.701889 
	C126.825706,42.901699 124.503601,39.791435 117.295715,37.839043 
z"/>
<path fill="#050302" opacity="1.000000" stroke="none" 
	d="
M247.848999,294.238342 
	C251.817627,288.525299 256.288757,286.901062 261.088501,289.117493 
	C265.301056,291.062775 267.667877,295.856323 266.568970,300.217102 
	C265.118378,305.973328 260.079224,309.172394 254.531677,307.858948 
	C248.854935,306.514893 246.155411,301.274506 247.848999,294.238342 
z"/>
</svg>