<?xml version="1.0" encoding="utf-8"?>
<!-- Generator: Adobe Illustrator 26.5.0, SVG Export Plug-In . SVG Version: 6.00 Build 0)  -->
<svg version="1.1" id="Layer_1" xmlns="http://www.w3.org/2000/svg" xmlns:xlink="http://www.w3.org/1999/xlink" x="0px" y="0px"
	 viewBox="0 0 500 512" style="enable-background:new 0 0 500 512;" xml:space="preserve">
<style type="text/css">
	.st0{fill:#FFC247;}
	.st1{fill:#A5E887;}
	.st2{fill:#FF475A;}
	.st3{fill:#87CA83;}
	.st4{fill:#A6E786;}
	.st5{fill:#98BA5C;}
	.st6{fill:#FE8205;}
	.st7{fill:#7B9F51;}
	.st8{fill:#FFA527;}
	.st9{fill:#FFA427;}
	.st10{fill:#F0324A;}
	.st11{fill:#FE8306;}
	.st12{fill:#FFA426;}
	.st13{fill:#FF9500;}
	.st14{fill:#F5E1A4;}
	.st15{fill:#99BA5C;}
	.st16{fill:#F3E3A6;}
	.st17{fill:#F03149;}
	.st18{fill:#F03349;}
	.st19{fill:#F5E3A7;}
</style>
<path class="st0" d="M358.5,329.3c-0.9,1.8-1.8,3.6-2.8,5.6c17.2,0.6,31.1,7.7,42.9,19.4c0.9,0.9,1.4,2.1,2.5,3.6
	c6.5,9.5,11.7,18.9,12.7,30.3c-4.2,8.4-7.1,17.2-12.3,24.4c-9.9,13.7-23.9,21.5-41.1,22.6c0.7-5-1.1-7.1-5.8-6.4
	c-0.9,0.1-1.9,0-2.9,0c-6.8,0-6.8,0-7.4,6.8c-5.8-0.6-11.3-1.2-16.7-1.9c-9.9-1.3-19.8-2.6-29.7-3.9c0,0-0.1,0.1-0.1-0.4
	c0-4.7,0.1-8.9,0-13.1c-0.3-12.6,2.3-10.6-11.1-10.9c-3.3-0.1-4.6,1-4.5,4.5c0.2,6,0,12-0.4,18c-10.5-1.1-20.7-2.1-30.8-3.4
	c-7.5-0.9-15-2.2-22-3.4c3.9,0,7.3,0.3,10.6-0.2c1.3-0.2,3.2-2,3.4-3.3c1.3-11.8-0.2-13.3-12-12c-1.3,0.1-3.2,2.1-3.3,3.4
	c-0.4,4,0,8.1-0.4,12.1c-10.6-1-20.8-2-30.9-3c0,0-0.1,0.1-0.1-0.4c0-3.4,0-6.3,0-9.2c0-11.9,0-12-12.1-10.7
	c-1.3,0.1-3.2,2.1-3.3,3.3c-0.4,5-0.2,10-0.2,15c0,0-0.1,0-0.5-0.1c-8.6-1-16.8-2-25-2.8c-7.4-0.8-14.1-3.1-20.4-7.2
	c-7.2-4.8-11-12.1-14.9-19.6c4.8-14.7,14.4-24.1,29.1-26.8c13.7-2.5,27.6-3.4,41.9-5c4.4-0.9,8.3-1.9,12.6-2.7
	c2.3,0.3,4.2,0.6,6.1,0.5c5.9-0.5,11.8-1.2,17.8-1.4c0.1,9.7,0.1,19,0.2,28.3c0.2,12.2-2,10.2,10.6,10.6c4.3,0.1,5.2-1.6,5.1-5.4
	c-0.2-11.9-0.1-23.8,0.2-35.9c7-1.1,13.7-1.8,20.3-2.7c6.8-0.9,13.6-1.9,20.8-2.8c9.9-0.9,19.4-1.9,28.9-2.4c0,10.7-0.1,20.9,0,31.1
	c0.1,12-2,10,10.7,10.4c3.8,0.1,5.1-1.1,5-5c-0.2-13-0.1-25.9,0.3-38.9c6.2-1.7,12-3.2,17.7-5C351,332,354.7,330.6,358.5,329.3
	 M345.1,412.2c4.4,0.3,9.5,2.1,13.1,0.6c4.7-2,1.4-7.7,1.9-11.8c0.1-1-2.1-3.2-3.3-3.2c-14.8,0-11.7-2.1-12.1,11.1
	C344.7,409.7,344.8,410.5,345.1,412.2z"/>
<path class="st1" d="M402.3,332.3c-5.1-3-10.2-6.1-15.7-9.7c-2.2-3-4.9-5.1-5.9-7.9c-2.9-7.9-8.4-11.1-16.6-11
	c-0.4-0.4-0.6-0.5-1.3-0.6c-1.1-0.1-1.8-0.1-2.7-0.4c-14.3-7.7-23.6-18.4-24.4-35c0-1-1-2.3-1.9-2.9c-4.7-3.3-9.6-6.5-14.6-10
	c-2.1-2-3.9-3.8-5.8-5.5c0,0,0.1,0,0.1-0.3c-2.2-5.4-4.6-10.4-6.9-15.8c-0.4-5.4-0.9-10.3-1.3-15.6c0.9-4.6,1.7-8.8,2.7-13.2
	c4.2-6.6,8.2-13,12.2-19.3c10.4-8.4,22.1-12.9,35.6-11.8c2.9,0.2,4.5-0.6,5.7-3.5c3.5-8.2,9.8-13.8,18-17.8c3.3,2.5,6.2,4.5,8.7,7
	c2.1,2.2,4.1,2.2,6.9,1.6c17.4-3.5,32.4,0.6,42.8,15.7c6.9,10,9,21,5.6,33c-0.5,1.8-0.1,4.7,1.1,5.9c18.2,18.6,14.3,49.6-8.3,62.3
	c-4.8,2.7-6.1,5.6-6,10.7c0.2,12.9-4.2,24.3-13.8,33.2C412.3,325.2,407.2,328.6,402.3,332.3z"/>
<path class="st2" d="M190.4,354.6c-13.8,1.6-27.8,2.5-41.4,5c-14.7,2.7-24.3,12.2-29.3,27.1c-0.7,4.1-1.2,7.5-1.7,10.9
	c-13.6,0-27.3,0-40.9,0c-23.5,0-41.6-10.6-55.5-28.9c-7.5-9.9-11.7-21.3-12.6-34.5c3-17.7,10.6-31.9,23.2-43.6
	c13-12.1,17.4-13.2,31.1-6c-2.2,3.5-4.3,6.7-7,10.8c4.7-1.3,8.4-2.4,11.9-3.1c-3.8,6.1-7.4,11.8-11,17.5c2.6,0.4,4.3,0,5.9-0.5
	c11.9-3.9,23.7-8.1,35.7-11.8c2.6-0.8,5.8-0.8,8.4,0c12,3.7,23.8,7.8,35.7,11.8c1.5,0.5,3,0.8,5.7,1.6c-4.3-7-8-13-11.3-19
	c3.8,1.1,7.2,2.1,11.5,3.4c-2.7-4.3-4.8-7.7-6.7-11.2c3.2-1.6,6-3.3,9.1-4.4c1.6-0.6,4-0.8,5.4-0.1c15.1,7.4,26.5,18.7,33.2,34.2
	c2.6,5.9,4.3,12.1,6.5,18.6c-0.6,4.6-1.2,8.7-2,13.2C192.8,348.9,191.6,351.7,190.4,354.6z"/>
<path class="st3" d="M402.5,332.6c4.7-4,9.8-7.4,14.3-11.6c9.6-8.9,13.9-20.3,13.8-33.2c-0.1-5.1,1.2-8,6-10.7
	c22.6-12.7,26.5-43.7,8.3-62.3c-1.2-1.2-1.6-4.1-1.1-5.9c3.4-11.9,1.3-23-5.6-33c-10.4-15.2-25.4-19.2-42.8-15.7
	c-2.9,0.6-4.8,0.5-6.9-1.6c-2.5-2.5-5.5-4.5-8.4-7c10.6-6.9,33.6-5.7,43.8,5.3c2.8,3,5,3.7,9.3,2.6c21-5.5,45.1,8.2,48.5,31.8
	c0.9,6.3,1.1,12.2-0.9,18.3c-0.5,1.5,0.1,4.2,1.3,5.2c18.3,17,14.9,52.6-10.7,64.3c-3.1,1.4-3.7,3.2-3.5,6.2
	c0.9,14.7-3.8,27.5-14.6,37.5c-13.7,12.7-29.8,16.3-47.8,11C404.5,333.5,403.6,333.2,402.5,332.6z"/>
<path class="st1" d="M414,387.9c-1.3-11.1-6.4-20.5-12.7-29.8c20.3-5.5,40.6-10.6,61-15.7c2.4,7.5,4.3,14.2,6.8,20.6
	c1.2,3.1,0.3,4.2-2.3,5.4c-8.7,4.2-17.2,8.6-25.6,13.5c17.1,0,34.3,0,51.7,0c0,10.5,0,20.6,0,31.1c-17.2,0-34.4,0-51.6,0
	c-0.1,0.3-0.2,0.6-0.3,0.9c7.4,3.7,14.8,7.4,22.1,11c7.1,3.5,7.1,3.5,4.7,11c-1.7,5.3-3.4,10.5-5.5,16.7c-4.5-1.1-9.2-2.1-13.9-3.3
	c-15.5-3.9-30.9-7.8-46.7-12.1c1-2.3,2.3-4.1,3.5-6C413.4,417.8,417.1,403.5,414,387.9z"/>
<path class="st4" d="M68.3,292c-3.7,1-7.3,2.1-12.1,3.4c2.7-4.1,4.8-7.3,7.3-11c2.8-4.2,5.3-8,8.2-12.4c-7.8-3.3-14.9-6.4-22-9.4
	c-3.2-1.8-6.5-3.6-10.6-5.9c17.4-6.7,34.3-12,52.4-15c1.2,4.8,1.9,9.4,2.7,14c1.5,9.1,1.6,8.9,11.1,9.1c4.1,0.1,5.5-1.4,5.1-5.4
	c-0.7-6.1-1.3-12.2-1.9-18.2c9.5,1.9,19,3.8,29.1,6c9.6,3.4,18.5,6.5,27.5,9.6c0,0.1,0,0.5-0.3,0.6c-3.7,1.8-7,3.5-10.7,5.2
	c-7,3.2-13.6,6.5-20.6,9.8c3.1,4.4,5.7,8.1,8.3,11.8c2.1,3.4,4.2,6.7,7,11c-4.3-1.3-7.7-2.3-11.7-3.6c-10.7-3.6-20.8-7-31-10.3
	c-1.5-0.5-3.3-1.1-4.7-0.7C90.2,284.3,79.3,288.2,68.3,292z"/>
<path class="st5" d="M258.8,128.9c-4.1,4.4-8.1,8.7-11.8,12.7c2.6,6.8,5.2,13.8,8,21.6c0.7,2.8,1.3,4.8,1.9,7.2
	c0.6,4.6,1.4,8.7,1.8,12.9c1,11.3,1,11.3-10,11.2c-0.3,0-0.7,0-1,0c-3.3,0.4-4.4-0.9-4.6-4.3c-0.4-6.4-1.5-12.8-2.3-19.6
	c-0.9-2.7-1.8-5.1-2.6-7.4c-4.9-13.4-12.9-24.2-25.6-31.1c-7.6-4.2-15.8-6.7-24.5-6.9c-7.3-0.1-7.3,0-7.3-7.5c0-2,0.2-3.9,0-5.8
	c-0.3-3.6,1.5-4.9,4.7-4.2c9,1.8,18.3,2.9,26.8,6.1c7.2,2.6,13.6,7.5,20,11.8c2.4,1.7,3.7,1.9,5.6-0.3c2.6-2.9,5.5-5.5,8.7-8.7
	c4.4-4.2,8.4-8.1,12.7-12.1c8.8-8.6,17.3-17.1,25.9-25.5c8.6-8.4,6-8.6,15-0.1c2.9,2.8,2.9,4.7,0,7.5c-7.1,6.9-13.9,14.1-21.1,21.3
	c-4.3,4.1-8.4,8-12.3,12.1C263.8,122.7,261.4,125.9,258.8,128.9z"/>
<path class="st6" d="M237.7,163.2c1.3,2.3,2.1,4.7,2.6,7.5c-26.1,10.8-46.3,27.6-59.8,51.8c-4.6,8.2-7.2,17.6-11.1,26.5
	c-3.4-0.3-4.9,0.8-4.4,4c0.2,1.2,0,2.5,0,3.8c-9-3.1-17.9-6.1-27.1-9.4c3.5-9.3,6.4-18.7,11.1-27.2c9.1-16.5,22.3-29.5,38.2-39.5
	c13.8-8.6,28.7-14.5,45-16.6C233.9,164,235.6,163.5,237.7,163.2z"/>
<path class="st7" d="M360.4,302.9c0.7,0,1.4,0.1,2.6,0.3c0.7,0.4,1,0.5,1.3,0.6c8-0.2,13.5,3,16.4,10.9c1,2.7,3.7,4.9,5.7,7.6
	c-9,2.5-18.2,4.6-27.7,6.9c-4.1,1.4-7.8,2.8-11.6,4c-5.7,1.7-11.5,3.3-18.1,4.9c-5.7,0.7-10.7,1.4-15.6,2c-9.5,1-19,1.9-29,2.6
	c-4-3.1-7.5-6-11.3-9.1c5.3-5,9.1-8.6,13.3-12.2c9.6-1,18.9-1.7,27.9-3.3c5.6-1,11.1-3.2,16.6-5c7.1-2.4,14.1-4.9,21.2-7.4
	C354.9,304.7,357.7,303.8,360.4,302.9z"/>
<path class="st8" d="M196.4,418.1c10.1,1,20.3,2,31.1,3c0.7,0,1.1,0,1.1,0c7.5,1.1,14.9,2.4,22.4,3.3c10.1,1.3,20.2,2.3,30.8,3.7
	c0.5,0.4,0.5,0.6,0.5,1.2c0,7.9,0,15.4,0,22.8c-12.1-1.6-24.3-3.2-36.4-4.7c-9.7-1.1-19.4-1.9-29.1-3c-6.6-0.8-13.2-1.9-20.2-3.4
	C196.3,433,196.3,425.5,196.4,418.1z"/>
<path class="st1" d="M279.2,107.6c6.9-7.1,13.7-14.2,20.8-21.1c2.9-2.8,3-4.7,0-7.5c-9-8.5-6.4-8.4-15,0.1
	c-8.6,8.4-17.1,16.9-26.1,25.3c-5-4.8-9.4-9.6-13.8-14.4c1.8-6.5,6-11.5,11.2-15.2c13-9.2,26.7-17.5,42.7-20.3
	c6.8-1.2,14.5-3,20.2,3.6c0.2,0.2,0.2,0.6,0,1.4c-0.8,1.3-1.4,2.1-1.7,3c-4.1,12.4-10.6,23.5-18.7,33.7
	C293.6,102.4,287.5,107,279.2,107.6z"/>
<path class="st9" d="M118.1,398.1c0.4-3.8,0.9-7.2,1.5-11c4.2,6.9,8,14.2,15.2,18.9c6.3,4.1,13,6.4,20.4,7.2
	c8.2,0.9,16.4,1.9,25,3.3c0.4,8,0.5,15.4,0.5,22.9c-7.8-0.7-15.6-1.3-23.3-2.3c-5.3-0.7-10.9-1-15.7-3.2
	C126.4,427.3,118,415.6,118.1,398.1z"/>
<path class="st8" d="M413.8,388.1c3.4,15.4-0.4,29.7-8.5,43.1c-1.2,1.9-2.5,3.8-3.9,6c-6.7,9.2-15.7,15.1-25.9,19
	c-4.6,1.8-9.6,2.7-14.8,3.5c-0.4-8-0.4-15.4-0.4-23.2c0.1-0.4,0.1-0.6,0.1-0.8c17.1-1.5,31.1-9.4,41-23.1
	C406.7,405.4,409.6,396.5,413.8,388.1z"/>
<path class="st3" d="M278.9,107.8c8.7-0.7,14.7-5.3,19.7-11.6c8.1-10.2,14.6-21.3,18.7-33.7c0.3-0.9,1-1.6,1.8-2.6
	c3.8,5.8,2.6,12.2,1.1,18.3c-4,16.7-12.3,31.4-23.3,44.6c-8.2,9.9-26.5,12.3-37.8,6.3c2.2-3.1,4.7-6.3,7.4-9.1
	C270.5,115.8,274.6,111.9,278.9,107.8z"/>
<path class="st8" d="M297.9,429.8c9.9,1.3,19.8,2.6,29.7,3.9c5.4,0.7,10.9,1.3,16.7,2.2c0.5,0.4,0.5,0.6,0.5,1.2
	c0,7.9,0,15.4,0,22.8c-11.4-1.6-22.8-3.2-34.2-4.6c-4.6-0.6-9.2-0.8-14-1.4c0.3-2,1.1-3.6,1.1-5.2
	C298,442.4,297.9,436.1,297.9,429.8z"/>
<path class="st10" d="M49.5,262.8c7.4,2.9,14.5,5.9,22.3,9.2c-2.9,4.4-5.4,8.1-8.1,12c-14-6.7-18.4-5.7-31.4,6.5
	c-12.6,11.7-20.2,26-23.1,43.2C6.7,301.5,20.3,278,49.5,262.8z"/>
<path class="st5" d="M108.4,240.9c0.6,6.5,1.2,12.6,1.9,18.7c0.5,3.9-1,5.4-5.1,5.4c-9.5-0.1-9.5,0.1-11.1-9.1
	c-0.8-4.6-1.4-9.2-2.3-14.2c-1.4-9.7-5.2-17.9-10.7-25.4c4-3.8,7.9-7.6,12.1-11.5C101.9,214.6,107,226.7,108.4,240.9z"/>
<path class="st0" d="M256.9,170c-0.6-2-1.2-4-1.8-6.4c22.7-0.4,43.2,6.7,61.9,19.2c0.9,0.6,1.8,1.2,3.1,1.9
	c-3.7,6.5-7.7,12.9-12,19.1c-5.3-5.1-9.9-10.5-15.4-15C282,180.3,270.4,173.3,256.9,170z"/>
<path class="st11" d="M181,439.6c-0.4-7.7-0.4-15.1-0.4-23.1c0-0.5,0-0.4,0.5-0.4c5.4,0.7,10.3,1.3,15.2,2c0,0,0,0,0.1-0.1
	c0,7.5,0,14.9-0.1,22.9C191.3,440.9,186.3,440.3,181,439.6z"/>
<path class="st6" d="M297.9,429.8c0,6.3,0.1,12.6-0.1,18.8c0,1.6-0.8,3.3-1.5,5.2c-4.5-0.3-8.8-0.9-13.5-1.6c-0.4-7.5-0.4-15,0-22.9
	C288,429.2,292.9,429.5,297.9,429.8C297.8,429.9,297.8,429.8,297.9,429.8z"/>
<path class="st11" d="M345.3,460c-0.5-7.5-0.5-15,0-22.9c5.3-0.5,10.2-0.5,15-0.5c0,7.5,0,14.9,0,22.8
	C355.4,460,350.6,460,345.3,460z"/>
<path class="st3" d="M244.7,90.1c4.8,4.6,9.2,9.4,13.9,14.4c-3.7,4-7.7,7.9-12,11.8C242.2,107.9,242.3,99.2,244.7,90.1z"/>
<path class="st12" d="M256.8,170.4c13.5,2.9,25.1,9.9,35.7,18.5c5.5,4.4,10.1,9.9,15.2,15.2c-0.7,4.5-1.5,8.7-2.8,13.3
	c-2.5,0.4-4.6,0.4-6.8,0.4c0,5.5,0,10.3,0,15.6c3,0,5.8,0,8.5,0c2.3,5,4.7,10,6.5,15.3c-5.3,0.3-10.1,0.3-14.9,0.3
	c0,5.6,0,10.4,0,15.3c5.2,0,9.9,0,15.2,0c0-5.3,0-10.3,0-15.3c1.9,1.8,3.8,3.5,5.7,5.9c-0.2,1.6-0.5,2.5-0.7,3.4
	c-4.4,22.9-11.2,44.6-30.1,60.3c-0.9,0.7-1.5,1.7-2.2,2.5c-3.8,3.6-7.6,7.3-12.9,12.3c3.8,3.1,7.2,5.9,10.8,9
	c-6.6,1.2-13.4,2.2-20.2,3.1c-6.7,0.9-13.3,1.7-20.8,2.7c-4.1,0.5-7.5,0.8-10.8,0.7c-0.3-0.7-0.6-1.2-1-1.3
	c-13.9-4.1-25.1-12.3-34.9-23.1c-0.6-4.7-0.8-9.2-1.8-13.4c-4-17.9-14.3-31.7-28.7-43c0.1-1.4,0.1-2.5,0.5-3.6
	c4.9-0.1,9.4-0.1,13.9-0.1c0-5.6,0-10.4,0-15.9c-3.7,0-7.1,0-10.4,0c3.5-8.8,6.1-18.2,10.7-26.4c13.5-24.2,33.7-41.1,59.9-51.5
	c1.2,6.3,2.3,12.6,2.6,19.1c0.2,3.4,1.2,4.8,4.6,4.3c0.3,0,0.6,0,1,0c11,0.1,11.1,0.1,10-11.2C258.2,179.1,257.4,175,256.8,170.4z"
	/>
<path class="st13" d="M313.5,340.6c4.9-1.1,9.9-1.8,15.2-2.4c0.4,13,0.3,26,0.5,38.9c0.1,3.8-1.2,5.1-5,5
	c-12.7-0.4-10.5,1.6-10.7-10.4C313.4,361.4,313.5,351.2,313.5,340.6z"/>
<path class="st13" d="M232.2,349.6c3.4-0.3,6.7-0.6,10.5-0.8c0.4,11.9,0.3,23.8,0.5,35.7c0.1,3.8-0.8,5.6-5.1,5.4
	c-12.6-0.4-10.4,1.6-10.6-10.6c-0.1-9.3-0.1-18.6,0.1-28.5C229.3,349.9,230.8,349.8,232.2,349.6z"/>
<path class="st14" d="M232.2,349.3c-1.4,0.5-2.9,0.6-4.6,1c-6.2,0.9-12.1,1.6-18,2.1c-1.9,0.2-3.8-0.2-6.3-0.7
	c-3.4-2.3-6.1-4.3-8.8-6.3c0.6-4.2,1.2-8.3,1.8-13.3c0.1-2.8,0.1-4.8,0.2-6.9c9.7,10.5,20.9,18.6,34.8,22.7
	C231.6,348.1,231.9,348.6,232.2,349.3z"/>
<path class="st13" d="M297.8,429.4c-4.9,0.1-9.8-0.2-15-0.6c-0.5-0.2-0.5-0.3-0.5-0.8c0-6.3,0.2-12.3,0-18.3
	c-0.1-3.4,1.2-4.5,4.5-4.5c13.4,0.3,10.9-1.7,11.1,10.9C297.9,420.5,297.8,424.7,297.8,429.4z"/>
<path class="st13" d="M196.3,417.7c-4.9-0.2-9.8-0.8-15.2-1.5c-0.4-5-0.6-10.1-0.3-15.1c0.1-1.2,2-3.2,3.3-3.3
	c12.1-1.3,12.1-1.2,12.1,10.7C196.3,411.4,196.3,414.3,196.3,417.7z"/>
<path class="st13" d="M345,411.7c-0.2-1.2-0.3-2-0.3-2.8c0.4-13.2-2.8-11.2,12.1-11.1c1.2,0,3.4,2.2,3.3,3.2
	c-0.5,4,2.8,9.8-1.9,11.8C354.6,414.3,349.6,412.5,345,411.7z"/>
<path class="st13" d="M229,421.1c-0.5,0-0.9,0-1.1,0c-0.3-4-0.6-8.1-0.2-12.1c0.1-1.3,2-3.2,3.3-3.4c11.8-1.3,13.3,0.2,12,12
	c-0.1,1.2-2.1,3.1-3.4,3.3C236.3,421.3,232.9,421,229,421.1z"/>
<path class="st13" d="M360.3,436.4c-4.9,0.3-9.7,0.2-15,0.2c-0.5-0.2-0.5-0.3-0.5-0.8c0.1-7,0.1-7,6.9-7c1,0,2,0.1,2.9,0
	c4.8-0.8,6.5,1.4,5.8,6.4C360.4,435.8,360.3,436,360.3,436.4z"/>
<path class="st8" d="M194.2,345.7c2.9,1.7,5.7,3.7,8.7,5.9c-3.7,1.1-7.6,2.1-12,3C191.6,351.7,192.8,348.9,194.2,345.7z"/>
<path class="st15" d="M286.5,321.4c0.3-0.9,1-1.8,1.8-2.5c18.9-15.7,25.7-37.4,30.1-60.3c0.2-0.9,0.4-1.9,0.8-3.2
	c5,2.9,9.9,6,14.6,9.3c0.9,0.6,1.9,1.9,1.9,2.9c0.8,16.7,10.1,27.4,24.4,35c-2.5,1.2-5.3,2.1-8,3c-7.1,2.5-14.1,5-21.2,7.4
	c-5.5,1.8-10.9,4-16.6,5C305.4,319.7,296.1,320.4,286.5,321.4z"/>
<path class="st16" d="M306.7,233.1c-2.7,0.4-5.4,0.4-8.5,0.4c0-5.3,0-10.1,0-15.6c2.2,0,4.3,0,6.8,0
	C305.8,222.8,306.2,227.7,306.7,233.1z"/>
<path class="st15" d="M364.2,303.6c-0.1,0.1-0.4,0-0.8-0.4C363.5,303.2,363.8,303.3,364.2,303.6z"/>
<path class="st17" d="M68.2,292.3c11.1-4.1,22-8,33-11.6c1.3-0.4,3.2,0.2,4.7,0.7c10.1,3.3,20.2,6.7,30.6,10.3
	c4,6.2,7.6,12.2,12,19.2c-2.7-0.8-4.3-1.1-5.7-1.6c-11.9-3.9-23.7-8.1-35.7-11.8c-2.6-0.8-5.8-0.8-8.4,0c-12,3.7-23.8,7.8-35.7,11.8
	c-1.6,0.5-3.3,1-5.9,0.5C60.8,304.1,64.4,298.4,68.2,292.3z"/>
<path class="st18" d="M196.4,324.8c0,2.4-0.1,4.4-0.2,6.9c-2.2-5.7-4-11.9-6.5-17.8c-6.7-15.5-18.1-26.8-33.2-34.2
	c-1.5-0.7-3.8-0.5-5.4,0.1c-3,1.1-5.9,2.8-9.1,4.4c-2.9-3.5-5.5-7.2-8.6-11.6c6.9-3.4,13.6-6.6,20.9-9.6c4.3,2.1,8,4,11.6,6
	c14.5,10.9,24.7,24.7,28.7,42.6C195.5,315.7,195.8,320.1,196.4,324.8z"/>
<path class="st19" d="M169.4,249c3.8-0.1,7.1-0.1,10.9-0.1c0,5.5,0,10.2,0,15.9c-4.5,0-9,0-14.2-0.2c-0.9-2.6-1-4.9-1.1-7.2
	c0,0-0.1-0.4,0-0.5c0-1.4,0.2-2.6,0-3.9C164.6,249.8,166.1,248.8,169.4,249z"/>
<path class="st6" d="M164.6,257.5c0.5,2.3,0.6,4.6,1,7.2c0.3,1.3,0.3,2.4,0.2,3.8c-3.7-1.6-7.4-3.5-11.3-5.6
	C157.6,261,160.9,259.2,164.6,257.5z"/>
<path class="st19" d="M313.4,249.2c0,5,0,9.9,0,15.3c-5.3,0-10,0-15.2,0c0-4.9,0-9.7,0-15.3c4.8,0,9.6,0,14.8,0
	C313.5,249.2,313.4,249.2,313.4,249.2z"/>
</svg>
