<svg xmlns="http://www.w3.org/2000/svg" width="64" height="64" enable-background="new 0 0 64 64" viewBox="0 0 64 64"><path fill="#CCD1D9" d="M28.498,54h-6.004l1.001,2h5.003c0.553,0,1-0.447,1-1S29.051,54,28.498,54z"/><rect width="3" height="16" x="39.505" y="47" fill="#E6E9ED"/><path fill="#CCD1D9" d="M39.505,47v16h-3c-4.42,0-8-3.58-8-8s3.58-8,8-8H39.505z"/><polygon fill="#E6E9ED" points="25.495 37 25.495 56.001 23.496 56.001 22.495 55 22.495 37"/><path fill="#965353" d="M26.505,3.5V37h-1.01h-3h-0.99V3.5h-0.01c0-1.38,1.12-2.5,2.51-2.5C25.385,1,26.505,2.12,26.505,3.5z"/><path fill="#965353" d="M25.502,38h-2.997c-0.553,0-1-0.447-1-1s0.447-1,1-1h2.997c0.553,0,1,0.447,1,1S26.055,38,25.502,38z"/><circle cx="23.495" cy="55" r="1" fill="#E6E9ED"/></svg>