<?xml version="1.0" encoding="iso-8859-1"?>
<!-- Generator: Adobe Illustrator 19.1.0, SVG Export Plug-In . SVG Version: 6.00 Build 0)  -->
<svg version="1.1" id="Capa_1" xmlns="http://www.w3.org/2000/svg" xmlns:xlink="http://www.w3.org/1999/xlink" x="0px" y="0px"
	 viewBox="0 0 297.877 297.877" style="enable-background:new 0 0 297.877 297.877;" xml:space="preserve">
<g>
	<polygon style="fill:#A05200;" points="140.301,80.093 122.228,96.987 140.301,113.208 	"/>
	<polygon style="fill:#A05200;" points="185.918,106.917 171.164,120.806 200.776,120.806 	"/>
	<polygon style="fill:#A05200;" points="110.826,107.956 97.08,120.806 125.144,120.806 	"/>
	<rect x="24.301" y="261.806" style="fill:#A05200;" width="17" height="19"/>
	<path style="fill:#A05200;" d="M228.424,146.65l-10.531-9.845h-61.592v61h25.333c4.418,0,7.667,3.582,7.667,8v40h83v-96.486
		l-0.343-0.514h-38.071C231.859,148.806,229.905,148.035,228.424,146.65z M254.301,213.806c0,4.418-3.582,8-8,8h-32
		c-4.418,0-8-3.582-8-8v-32c0-4.418,3.582-8,8-8h32c4.418,0,8,3.582,8,8V213.806z"/>
	<rect x="255.301" y="261.806" style="fill:#A05200;" width="17" height="19"/>
	<path style="fill:#A05200;" d="M107.301,245.806v-40c0-4.418,3.915-8,8.333-8h24.667v-61H79.963l-10.531,9.845
		c-1.481,1.385-3.435,2.155-5.463,2.155H25.342l-1.041,0.533v96.467H107.301z M90.301,213.806c0,4.418-3.582,8-8,8h-32
		c-4.418,0-8-3.582-8-8v-32c0-4.418,3.582-8,8-8h32c4.418,0,8,3.582,8,8V213.806z"/>
	<polygon style="fill:#A05200;" points="156.301,79.543 156.301,112.51 173.872,95.969 	"/>
	<rect x="90.301" y="261.806" style="fill:#A05200;" width="17" height="19"/>
	<rect x="57.301" y="261.806" style="fill:#A05200;" width="17" height="19"/>
	<rect x="222.301" y="261.806" style="fill:#A05200;" width="17" height="19"/>
	<rect x="189.301" y="261.806" style="fill:#A05200;" width="17" height="19"/>
	<polygon style="fill:#FFC3AA;" points="156.301,57.641 237.044,132.806 269.584,132.806 156.301,27.225 	"/>
	<polygon style="fill:#FFC3AA;" points="60.812,132.806 140.301,58.19 140.301,27.775 28.274,132.806 	"/>
	<path d="M294.987,134.649L154.391,3.226c-3.074-2.873-7.852-2.873-10.926,0L2.537,134.961c-2.399,2.243-3.184,5.726-1.978,8.781
		c1.205,3.056,4.156,5.063,7.441,5.063h0.301v148h280v-148h1.557c0.008-0.001,0.014-0.001,0.02,0c4.419,0,8-3.582,8-8
		C297.877,138.33,296.753,136.117,294.987,134.649z M272.301,149.319v96.486h-83v-40c0-4.418-3.249-8-7.667-8h-25.333v-61h61.592
		l10.531,9.845c1.481,1.385,3.435,2.155,5.463,2.155h38.071L272.301,149.319z M272.301,280.806h-17v-19h17V280.806z M24.301,261.806
		h17v19h-17V261.806z M269.584,132.806h-32.54l-80.743-75.165V27.225L269.584,132.806z M28.274,132.806l112.027-105.03V58.19
		l-79.489,74.615H28.274z M140.301,80.093v33.115l-18.073-16.221L140.301,80.093z M156.301,79.543l17.571,16.426l-17.571,16.541
		V79.543z M110.826,107.956l14.317,12.85H97.08L110.826,107.956z M185.918,106.917l14.857,13.889h-29.611L185.918,106.917z
		 M25.342,148.806h38.627c2.028,0,3.981-0.77,5.463-2.155l10.531-9.845h60.338v61h-24.667c-4.418,0-8.333,3.582-8.333,8v40h-83
		v-96.467L25.342,148.806z M123.301,245.806v-32h50v32H123.301z M57.301,261.806h17v19h-17V261.806z M90.301,261.806h17v19h-17
		V261.806z M123.301,261.806h17v19h-17V261.806z M156.301,261.806h17v19h-17V261.806z M189.301,261.806h17v19h-17V261.806z
		 M222.301,261.806h17v19h-17V261.806z"/>
	<rect x="123.301" y="213.806" style="fill:#FFC3AA;" width="50" height="32"/>
	<rect x="123.301" y="261.806" style="fill:#FFC3AA;" width="17" height="19"/>
	<rect x="156.301" y="261.806" style="fill:#FFC3AA;" width="17" height="19"/>
	<rect x="58.301" y="189.806" style="fill:#FFB929;" width="16" height="16"/>
	<path d="M90.301,181.806c0-4.418-3.582-8-8-8h-32c-4.418,0-8,3.582-8,8v32c0,4.418,3.582,8,8,8h32c4.418,0,8-3.582,8-8V181.806z
		 M58.301,189.806h16v16h-16V189.806z"/>
	<rect x="222.301" y="189.806" style="fill:#FFB929;" width="16" height="16"/>
	<path d="M254.301,181.806c0-4.418-3.582-8-8-8h-32c-4.418,0-8,3.582-8,8v32c0,4.418,3.582,8,8,8h32c4.418,0,8-3.582,8-8V181.806z
		 M238.301,205.806h-16v-16h16V205.806z"/>
</g>
<g>
</g>
<g>
</g>
<g>
</g>
<g>
</g>
<g>
</g>
<g>
</g>
<g>
</g>
<g>
</g>
<g>
</g>
<g>
</g>
<g>
</g>
<g>
</g>
<g>
</g>
<g>
</g>
<g>
</g>
</svg>
