<?xml version="1.0" encoding="utf-8"?>
<!-- Generator: Adobe Illustrator 26.5.0, SVG Export Plug-In . SVG Version: 6.00 Build 0)  -->
<svg version="1.1" id="Layer_1" xmlns="http://www.w3.org/2000/svg" xmlns:xlink="http://www.w3.org/1999/xlink" x="0px" y="0px"
	 viewBox="0 0 595.3 1600" style="enable-background:new 0 0 595.3 1600;" xml:space="preserve">
<style type="text/css">
	.st0{fill:#967A44;}
	.st1{fill:#704E34;}
	.st2{fill:#F5CE85;}
	.st3{fill:#B08159;}
	.st4{fill:#F4CD85;}
</style>
<path class="st0" d="M565.5,747.9c-2.2,12.6-8.5,22.6-19,30.1c12.4,9.4,19.4,21.4,19.4,37.2c0,15.8-7,27.9-19.3,37.2
	c27.4,19.9,24.4,57.5-0.1,74.4c12.4,9.3,19.4,21.4,19.4,37.2c0,15.8-6.9,27.9-19.3,37.2c2.3,2,4.7,3.9,6.8,6.1
	c6.7,7,10.9,15.3,12.1,24.9c1.1,8.9,0.1,17.4-3.8,25.5c-4,8.4-10,14.9-18.1,19.6c-7,4-14.4,5.9-22.5,5.9c-44.5-0.1-89-0.1-133.7-0.2
	c-0.2-5-0.1-9.9,0-14.7c33.4,0,66.7,0,100.1,0c-14.8-19.9-14.8-39.7,0-59.5c-0.9,0-1.6,0-2.2,0c-28.5,0-56.9,0-85.4,0
	c-4.2,0-8.4,0-12.7-0.1c0-5,0-9.9,0.2-14.8c33.4,0,66.7,0,100.1,0c-14.8-19.9-14.8-39.7,0-59.5c-0.9,0-1.6,0-2.2,0
	c-28.5,0-56.9,0-85.4,0c-4.2,0-8.4,0-12.7-0.1c0-5,0-9.9,0.2-14.8c33.4,0,66.7,0,100.1,0c-14.8-19.9-14.8-39.7,0-59.5
	c-0.9,0-1.6,0-2.2,0c-28.3,0-56.7,0-85,0c-4.3,0-8.7,0-13-0.1c0-5,0-9.9,0.2-14.8c33.4,0,66.7,0,100.4,0
	c-7.4-8.8-11.3-18.6-11.3-29.8c0-11.2,4-20.9,11.2-29.6c-126.6,0-252.9,0-379.2,0c14.5,19.8,14.5,39.5-0.1,59.4c0.7,0,1.4,0,2,0
	c25.2,0,50.5,0,75.7,0c7.5,0,15,0,22.5,0.1c0,5,0,9.9-0.2,14.8c-33.4,0-66.7,0-100,0c14.6,19.9,14.6,39.7,0,59.5c0.8,0,1.5,0,2.2,0
	c28.5,0,56.9,0,85.4,0c4.2,0,8.4,0,12.7,0.1c0,5,0,9.9-0.2,14.8c-33.4,0-66.7,0-100,0c14.6,19.9,14.6,39.7,0,59.5c0.8,0,1.5,0,2.2,0
	c28.5,0,56.9,0,85.4,0c4.2,0,8.4,0,12.7,0.1c0,5,0,9.9-0.2,14.8c-33.4,0-66.7,0-100,0c14.6,19.9,14.6,39.7,0,59.5c0.8,0,1.5,0,2.2,0
	c28.5,0,56.9,0,85.4,0c4.2,0,8.4,0,12.7,0.1c0,5,0,9.9,0,14.7c-0.7,0-1.5,0.1-2.2,0.1c-44.6,0-89.3,0-133.9,0
	c-5.3,0-10.3-1.3-15.2-3.3c-5.9-2.4-11-6-15.4-10.7c-5.7-6.2-9.7-13.4-11-21.8c-0.7-4.4-0.9-8.9-0.7-13.4c0.1-4.4,1.5-8.7,3.2-12.8
	c2.5-5.9,6-11,10.6-15.4c1.7-1.6,3.5-3,5.4-4.5c-12.3-9.3-19.3-21.4-19.3-37.2c0-15.8,6.9-27.9,19.3-37.2
	c-27.6-20.1-24.2-57.7,0.1-74.4c-12.4-9.3-19.4-21.4-19.4-37.2c0-15.8,6.9-27.9,19.3-37.2c-2.4-2.1-4.9-4.1-7.1-6.5
	c-5.9-6.2-9.7-13.6-11.4-22c-0.1-0.5-0.2-0.9-0.3-1.7c1.3-1.1,2.6-2,3.9-2.7c3.5-1.9,7-3.7,10.5-5.4c0.1,2,0.1,3.9,0.4,5.7
	c2.5,15.8,17.7,27.3,33.7,24.7c9.1-1.5,16.1-6.1,21-13.9c3.4-5.5,4.6-11.4,4.1-17.8c-0.3-3.7-1.1-7.2-2.7-10.5
	c-2.6-5.4-6.6-9.5-11.5-12.9c3.6-2,7.1-3.9,10.7-5.9c4.9-2.7,9.8-5.4,14.8-8.1c3.1-1.7,6.3-3.3,9.7-5c115.2,0,230.3,0,345.3,0
	c0.1,0,0.2,0,0.5,0c0.7,0.3,1.2,0.6,1.8,0.9c9.5,5.1,19,10.3,28.5,15.4c1.6,0.9,3.1,1.9,4.6,2.9c-10.5,6.3-16.1,18.7-14,30.4
	c1.1,6.3,3.9,11.8,8.5,16.2c7.2,6.8,15.8,9.8,25.7,8.2c6.6-1.1,12.2-4.1,16.9-9c5.7-6,8-13.3,8.3-21.5c3.6,1.9,7.1,3.8,10.6,5.7
	C563.1,746.2,564.3,747.1,565.5,747.9 M433.6,770.6c18,0,35.9,0,54,0c-14.9-19.9-14.8-39.7-0.1-59.4c-126.4,0-252.7,0-379,0
	c14.5,19.8,14.5,39.5-0.1,59.4C216.8,770.6,325,770.6,433.6,770.6 M48.1,977.2c5.9,11.7,18.4,18.1,30.9,16.3
	c16.1-2.3,27.4-17.3,25.3-33.5c-2.1-15.8-17.3-27.8-33.6-25.4C50.8,937.5,39.2,958.9,48.1,977.2 M546.3,1022.5
	c-7.3-10.7-17.6-15.3-30.2-13.3c-16.1,2.5-27,18.2-24.2,34.2c2.7,15.7,17.8,26.9,33.6,24.5c14-2.1,25.5-14.1,25.5-29.9
	C551,1032.5,549.4,1027.4,546.3,1022.5 M491.5,890.6c0.1,1.3,0.2,2.7,0.4,4c2.7,15.8,17.9,26.9,33.5,24.5
	c16.4-2.5,28-17.4,25.1-34.6c-2.8-16.7-18.5-27.1-35.1-24C502.3,862.9,491.1,875.3,491.5,890.6 M101.2,1024.9
	c-7-12.6-18.8-17.7-31.5-15.7c-15.9,2.5-27.1,18-24.3,34.2c3.2,18.5,22.9,30.3,41.2,22.4c10.3-4.4,19-15.5,17.7-29.6
	C103.9,1032.2,103,1028.6,101.2,1024.9 M497.8,945.7c-5.3,7-7.4,14.7-5.9,23.4c2.7,16,18.1,26.8,33.5,24.4
	c16.2-2.4,28.1-17.2,25.1-34.5c-2.8-16.9-18.4-27-34.7-24.2C508.5,936.1,502.7,939.9,497.8,945.7 M99.9,873.7
	c-5.6-8-12.9-12.9-22.9-13.5c-5.2-0.3-10.1,0.4-14.7,2.5c-12.2,5.7-19.9,19.5-16.4,33.8c3,12.5,13.3,21.6,26.2,22.9
	c9,0.9,17-2.1,23.5-8.5c6-5.9,8.9-13.1,8.9-21.5C104.5,883.9,103.1,878.6,99.9,873.7 M497.2,832.7c7.2,9.1,16.4,13.4,28.1,11.9
	c16.1-2.1,28.1-16.9,25.2-34.4c-2.4-14.9-15.3-25-29.9-24.7c-5.3,0.1-10.4,1.4-14.9,4.4c-8.2,5.3-13,12.8-14.1,22.5
	C490.7,819.7,492.7,826.5,497.2,832.7 M46.1,823.2c3.8,14.2,18.4,23.7,32.8,21.5c16.3-2.5,28-17.4,25.1-34.5
	c-2.8-16.7-18.2-27-34.6-24.1C52.6,788.9,41.4,806.2,46.1,823.2z"/>
<path class="st1" d="M125.1,696.2c-3.2,1.6-6.4,3.3-9.5,4.9c-4.9,2.7-9.9,5.4-14.8,8.1c-3.5,1.9-7.1,3.8-10.8,5.9
	c-10.3,5.6-20.3,11-30.4,16.5c-4.9,2.7-9.7,5.4-14.6,8.1c-3.5,1.9-7,3.7-10.5,5.6c-1.3,0.7-2.6,1.6-3.9,2.5
	c-2.5,1.3-4.9,2.5-7.3,3.8c-2.6,1.4-5.2,2.8-8,4.3c0-1,0-1.6,0-2.2c0-23.7,0-47.4,0-71.1c0-1.3,0.4-2,1.6-2.6
	c5.8-3.2,11.4-6.6,17.1-9.9c5.2-3,10.3-6,15.5-9c6.7-3.9,13.4-7.8,20-11.6c5.1-2.9,10.1-5.9,15.2-8.8c5.8-3.4,11.7-6.8,17.5-10.2
	c5.1-2.9,10.2-5.9,15.2-8.8c6.7-3.9,13.4-7.8,20.1-11.6c5.1-3,10.3-5.9,15.4-8.9c6.6-3.8,13.2-7.6,19.8-11.4c5.2-3,10.3-6,15.5-9
	c6.7-3.9,13.4-7.8,20.1-11.6c5.1-3,10.3-5.9,15.4-8.9c6.6-3.8,13.2-7.6,19.8-11.4c5.2-3,10.3-6,15.5-9c6.7-3.9,13.4-7.8,20.1-11.6
	c5.1-3,10.5-5.6,15.3-8.9c3.2-2.2,5.4-1.2,8.1,0.5c5,3.1,10.2,6,15.3,8.9c5.8,3.3,11.5,6.7,17.2,10c5.2,3,10.3,6,15.5,9
	c6.6,3.8,13.2,7.6,19.8,11.4c5.2,3,10.3,6,15.5,9c6.7,3.9,13.4,7.8,20.1,11.6c5.1,3,10.3,5.9,15.4,8.8c6,3.4,11.9,6.9,17.9,10.3
	c5.2,3,10.3,6,15.5,9c5.7,3.3,11.5,6.6,17.3,10c5.2,3,10.3,6,15.5,9c6.7,3.9,13.4,7.8,20,11.7c5.1,3,10.3,5.9,15.4,8.8
	c6.6,3.8,13.3,7.7,19.9,11.6c5.1,3,10.3,5.9,15.4,8.9c6.6,3.8,13.1,7.8,19.8,11.3c2.6,1.4,2.9,3.1,2.9,5.6
	c-0.1,22.9-0.1,45.8-0.1,68.6c0,0.7,0,1.4,0,2.4c-5.1-2.7-10-5.4-15.1-8c-1.4-0.8-2.6-1.7-3.9-2.5c-3.5-1.9-7-3.8-10.7-5.8
	c-13.1-7.1-25.9-14.1-38.8-21.1c-2.1-1.1-4.2-2.1-6.3-3.1c-1.6-1-3.1-2-4.7-2.8c-9.5-5.2-19-10.3-28.5-15.4c-0.5-0.3-1.1-0.6-1.8-1
	c-9-4.9-17.8-9.7-26.6-14.5c-25-13.6-49.9-27.2-74.9-40.7c-2.8-1.5-5.7-2.9-8.6-4.4c-0.4-0.4-0.7-0.7-1.1-0.9
	c-5.2-2.9-10.5-5.8-15.8-8.6c-3.3-1.8-6.7-3.5-10-5.3c-11.6-6.4-23.2-12.7-34.8-19c-0.7-0.4-1.8-0.3-2.5,0
	c-8.3,4.4-16.5,8.9-24.7,13.4c-3.4,1.9-6.8,3.8-10.3,5.7c-8.2,4.3-16.2,8.7-24.2,13c-0.9,0.5-1.7,1.2-2.6,1.8
	c-0.7,0.2-1.3,0.4-1.8,0.7c-32,17.4-64.1,34.8-96.1,52.2C133,691.7,129,694,125.1,696.2 M405.8,597.2c-5.4-3.1-10.7-6.2-16.1-9.3
	c-9.8-5.7-19.6-11.4-29.4-17c-9.9-5.7-19.8-11.5-29.7-17.2c-10.3-6-20.7-12-31-18c-1.1-0.6-2-0.7-3.1,0c-3.7,2.2-7.5,4.4-11.2,6.5
	c-17,9.8-34,19.6-51,29.4c-16,9.3-32,18.6-48,27.9c-16.1,9.3-32.3,18.6-48.4,28c-17.5,10.1-34.9,20.3-52.3,30.4
	c-18,10.4-36,20.9-54,31.2c-1.1,0.6-1.5,1.2-1.5,2.5c0,12.4,0,24.8,0,37.2c0,0.5,0.1,1,0.2,1.8c1.2-0.6,2.2-1.1,3.2-1.6
	c11.7-6.4,23.5-12.8,35.2-19.2c9.5-5.1,19-10.2,28.4-15.4c13.2-7.2,26.3-14.4,39.4-21.5c9.4-5.1,18.9-10.2,28.3-15.3
	c16.1-8.8,32.2-17.6,48.3-26.3c10.5-5.7,21.1-11.4,31.7-17.2c17.3-9.4,34.7-18.9,52-28.3c0.6-0.3,1.7-0.3,2.3,0.1
	c12.3,6.6,24.5,13.2,36.8,19.9c8.6,4.7,17.2,9.3,25.8,14c13.7,7.5,27.4,14.9,41.1,22.4c7.6,4.1,15.1,8.2,22.7,12.3
	c13.6,7.4,27.2,14.8,40.8,22.2c9.2,5,18.4,10,27.6,14.9c13.8,7.5,27.5,15,41.3,22.5c9.1,5,18.2,10,27.4,15c1,0.6,2.1,1,3.3,1.6
	c0.1-0.5,0.2-0.6,0.2-0.8c0-12.8,0-25.7,0-38.5c0-0.6-0.6-1.5-1.2-1.8c-10.5-6.2-21-12.3-31.6-18.4c-19.3-11.2-38.7-22.3-58-33.5
	c-15.4-8.9-30.8-17.9-46.3-26.8C421.2,606.1,413.6,601.7,405.8,597.2z"/>
<path class="st1" d="M208.9,1083.1c-0.2-4.9-0.2-9.7-0.2-14.9c0-20,0-39.7,0-59.4c0-4.9,0-9.7,0-15c0-20,0-39.7,0-59.4
	c0-4.9,0-9.7,0-15c0-20,0-39.7,0-59.4c0-4.9,0-9.7,0-15c0-10.1,0-19.9,0-29.6c59.7,0,119,0,178.6,0c0,9.9,0,19.8,0,29.6
	c0,4.9,0,9.7,0,15c0,20,0,39.7,0,59.4c0,4.9,0,9.7,0,15c0,20,0,39.7,0,59.4c0,4.9,0,9.7,0,15c0,20,0,39.7,0,59.4c0,4.8,0,9.7,0,14.7
	c-0.4,0.2-0.7,0.2-1.1,0.2C327.1,1083.1,268.1,1083.1,208.9,1083.1 M372.4,923.3c0-31,0-62.1,0-93c-49.8,0-99.2,0-148.7,0
	c0,79.4,0,158.6,0,237.8c49.6,0,99,0,148.7,0C372.4,1019.9,372.4,971.8,372.4,923.3z"/>
<path class="st2" d="M433.4,770.6c-108.4,0-216.6,0-325,0c14.6-19.9,14.6-39.6,0.1-59.4c126.3,0,252.6,0,379,0
	c-14.7,19.7-14.8,39.5,0.1,59.4C469.5,770.6,451.6,770.6,433.4,770.6z"/>
<path class="st2" d="M387.5,845c-0.2-9.9-0.2-19.7-0.2-29.6c-59.6,0-119,0-178.6,0c0,9.8,0,19.5,0,29.4c-7.5,0.2-15,0.2-22.5,0.2
	c-25.2,0-50.5,0-75.7,0c-0.7,0-1.3,0-2,0c14.6-19.9,14.6-39.6,0.1-59.4c126.3,0,252.6,0,379.2,0c-7.2,8.7-11.2,18.4-11.2,29.6
	c0,11.2,3.9,21,11.3,29.8C454.2,845,420.9,845,387.5,845z"/>
<path class="st2" d="M360.9,636.6c2.9,1.4,5.8,2.8,8.6,4.3c25,13.6,49.9,27.1,74.9,40.7c8.8,4.8,17.6,9.6,26.5,14.5
	c-0.1,0.1-0.2,0.1-0.3,0.1c-115.1,0-230.1,0-345.3,0c3.8-2.2,7.8-4.5,11.8-6.7c32-17.4,64.1-34.8,96.1-52.2c0.5-0.3,1.1-0.4,2-0.6
	c0.6,0,0.9,0,1.2,0c41,0,81.9,0,122.9,0C359.8,636.7,360.4,636.6,360.9,636.6z"/>
<path class="st2" d="M208.5,1008.7c0.2,19.7,0.2,39.4,0.2,59.3c-4.2,0.2-8.4,0.2-12.7,0.2c-28.5,0-56.9,0-85.4,0c-0.7,0-1.4,0-2.2,0
	c14.6-19.8,14.6-39.6,0-59.5C141.8,1008.7,175.1,1008.7,208.5,1008.7z"/>
<path class="st2" d="M208.5,859.9c0.2,19.7,0.2,39.4,0.2,59.3c-4.2,0.2-8.4,0.2-12.7,0.2c-28.5,0-56.9,0-85.4,0c-0.7,0-1.4,0-2.2,0
	c14.6-19.8,14.6-39.6,0-59.5C141.8,859.9,175.1,859.9,208.5,859.9z"/>
<path class="st2" d="M208.5,934.3c0.2,19.7,0.2,39.4,0.2,59.3c-4.2,0.2-8.4,0.2-12.7,0.2c-28.5,0-56.9,0-85.4,0c-0.7,0-1.4,0-2.2,0
	c14.6-19.8,14.6-39.6,0-59.5C141.8,934.3,175.1,934.3,208.5,934.3z"/>
<path class="st2" d="M387.5,1068.2c-0.2-19.7-0.2-39.4-0.2-59.3c4.2-0.2,8.4-0.2,12.7-0.2c28.5,0,56.9,0,85.4,0c0.7,0,1.4,0,2.2,0
	c-14.8,19.8-14.8,39.6,0,59.5C454.2,1068.2,420.9,1068.2,387.5,1068.2z"/>
<path class="st2" d="M387.5,993.8c-0.2-19.7-0.2-39.4-0.2-59.3c4.2-0.2,8.4-0.2,12.7-0.2c28.5,0,56.9,0,85.4,0c0.7,0,1.4,0,2.2,0
	c-14.8,19.8-14.8,39.6,0,59.5C454.2,993.8,420.9,993.8,387.5,993.8z"/>
<path class="st2" d="M387.5,919.4c-0.2-19.7-0.2-39.4-0.2-59.3c4.4-0.2,8.7-0.2,13-0.2c28.3,0,56.7,0,85,0c0.7,0,1.4,0,2.2,0
	c-14.8,19.8-14.8,39.6,0,59.5C454.2,919.4,420.9,919.4,387.5,919.4z"/>
<path class="st2" d="M48,977.1c-8.8-18.1,2.8-39.6,22.7-42.4c16.3-2.4,31.5,9.6,33.6,25.4c2.1,16.2-9.2,31.2-25.3,33.5
	C66.5,995.3,54,988.9,48,977.1z"/>
<path class="st2" d="M546.4,1022.6c3,4.8,4.6,9.9,4.6,15.4c0.1,15.8-11.5,27.8-25.5,29.9c-15.8,2.4-30.9-8.8-33.6-24.5
	c-2.8-16,8.1-31.7,24.2-34.2C528.8,1007.3,539,1011.8,546.4,1022.6z"/>
<path class="st2" d="M491.5,890.4c-0.4-15.1,10.9-27.4,23.9-29.9c16.6-3.1,32.3,7.3,35.1,24c2.9,17.2-8.7,32-25.1,34.6
	c-15.6,2.4-30.9-8.7-33.5-24.5C491.7,893.3,491.6,891.9,491.5,890.4z"/>
<path class="st2" d="M101.3,1025c1.7,3.6,2.6,7.2,3,11.2c1.3,14.1-7.4,25.2-17.7,29.6c-18.3,7.9-38-3.9-41.2-22.4
	c-2.8-16.1,8.4-31.7,24.3-34.2C82.5,1007.2,94.3,1012.3,101.3,1025z"/>
<path class="st2" d="M497.9,945.6c4.8-5.7,10.6-9.5,17.9-10.8c16.3-2.8,31.9,7.3,34.7,24.2c2.9,17.3-8.9,32.1-25.1,34.5
	c-15.4,2.3-30.7-8.5-33.5-24.4C490.4,960.4,492.6,952.7,497.9,945.6z"/>
<path class="st2" d="M99.9,873.8c3.2,4.8,4.5,10.1,4.5,15.6c0,8.3-2.9,15.6-8.9,21.5c-6.6,6.4-14.5,9.3-23.5,8.5
	c-13-1.3-23.2-10.3-26.2-22.9c-3.5-14.3,4.2-28.1,16.4-33.8c4.6-2.2,9.5-2.9,14.7-2.5C87,860.8,94.3,865.7,99.9,873.8z"/>
<path class="st2" d="M497.1,832.6c-4.4-6.1-6.4-12.9-5.6-20.2c1.1-9.6,5.9-17.2,14.1-22.5c4.6-2.9,9.6-4.3,14.9-4.4
	c14.6-0.3,27.5,9.8,29.9,24.7c2.8,17.5-9.1,32.3-25.2,34.4C513.7,846.2,504.4,841.9,497.1,832.6z"/>
<path class="st2" d="M46.1,823.1c-4.7-16.8,6.5-34.2,23.4-37.1c16.4-2.8,31.7,7.5,34.6,24.1c2.9,17.2-8.7,32-25.1,34.5
	C64.5,846.9,50,837.4,46.1,823.1z"/>
<path class="st2" d="M505.9,715.4c2.2,1,4.3,2,6.4,3.1c12.9,7,25.7,14,38.7,21.1c0,8.2-2.3,15.5-8.1,21.6c-4.6,4.9-10.2,7.9-16.9,9
	c-9.9,1.6-18.5-1.4-25.7-8.2c-4.6-4.4-7.3-9.9-8.5-16.2C489.8,734.1,495.4,721.7,505.9,715.4z"/>
<path class="st2" d="M45,739.9c4.9-2.9,9.7-5.6,14.6-8.3c10.1-5.5,20.1-10.9,30.3-16.4c5.1,3.2,9.1,7.3,11.7,12.8
	c1.6,3.3,2.4,6.8,2.7,10.5c0.5,6.5-0.7,12.4-4.1,17.8c-4.9,7.8-11.9,12.4-21,13.9c-16,2.6-31.3-8.9-33.7-24.7
	C45.1,743.8,45.1,741.9,45,739.9z"/>
<path class="st3" d="M405.9,597.2c7.7,4.5,15.3,8.9,22.9,13.3c15.4,8.9,30.8,17.9,46.3,26.8c19.3,11.2,38.7,22.3,58,33.5
	c10.6,6.1,21.1,12.2,31.6,18.4c0.6,0.3,1.2,1.2,1.2,1.8c0.1,12.8,0,25.7,0,38.5c0,0.2-0.1,0.4-0.2,0.8c-1.1-0.6-2.2-1-3.3-1.6
	c-9.1-5-18.3-10-27.4-15c-13.8-7.5-27.5-15-41.3-22.5c-9.2-5-18.4-10-27.6-14.9c-13.6-7.4-27.2-14.8-40.8-22.2
	c-7.6-4.1-15.1-8.2-22.7-12.3c-13.7-7.5-27.4-14.9-41.1-22.4c-8.6-4.7-17.2-9.4-25.8-14c-12.2-6.6-24.5-13.3-36.8-19.9
	c-0.6-0.3-1.7-0.4-2.3-0.1c-17.4,9.4-34.7,18.9-52,28.3c-10.5,5.7-21.1,11.4-31.7,17.2c-16.1,8.8-32.2,17.6-48.3,26.3
	c-9.4,5.1-18.9,10.2-28.3,15.3c-13.2,7.2-26.3,14.4-39.4,21.5c-9.5,5.1-19,10.2-28.4,15.4c-11.7,6.4-23.5,12.8-35.2,19.2
	c-1,0.5-2,1-3.2,1.6c-0.1-0.7-0.2-1.3-0.2-1.8c0-12.4,0-24.8,0-37.2c0-1.2,0.4-1.8,1.5-2.5c18-10.4,36-20.8,54-31.2
	c17.4-10.1,34.9-20.3,52.3-30.4c16.1-9.3,32.3-18.6,48.4-28c16-9.3,32-18.6,48-27.9c17-9.8,34-19.6,51-29.4
	c3.8-2.2,7.5-4.3,11.2-6.5c1.1-0.7,2-0.6,3.1,0c10.3,6,20.6,12,31,18c9.9,5.7,19.8,11.5,29.7,17.2c9.8,5.7,19.6,11.4,29.4,17
	C395,591,400.4,594.1,405.9,597.2z"/>
<path class="st0" d="M360.9,636.4c-0.5,0.2-1.1,0.2-1.6,0.2c-41,0-81.9,0-122.9,0c-0.3,0-0.6,0-1.1-0.1c0.7-0.6,1.4-1.3,2.3-1.8
	c8-4.4,16-8.7,24.4-13c24.2,0,48.2,0,72.1,0c3.3,1.7,6.7,3.4,10,5.2c5.3,2.8,10.5,5.7,15.8,8.6C360.2,635.8,360.5,636.1,360.9,636.4
	z"/>
<path class="st4" d="M334,621.7c-23.9,0.1-47.8,0.1-71.9,0.1c3.2-1.9,6.6-3.9,10-5.7c8.2-4.5,16.4-9,24.7-13.4
	c0.7-0.4,1.8-0.4,2.5,0C310.8,608.9,322.4,615.3,334,621.7z"/>
<path class="st3" d="M372.4,923.5c0,48.3,0,96.4,0,144.6c-49.7,0-99.1,0-148.7,0c0-79.3,0-158.5,0-237.8c49.4,0,98.9,0,148.7,0
	C372.4,861.3,372.4,892.3,372.4,923.5 M357.5,940.8c0-2.1,0-4.3,0-6.4c-5.1,0-9.9,0-14.7,0c0,14.9,0,29.6,0,44.4c4.9,0,9.7,0,14.7,0
	C357.5,966.2,357.5,953.7,357.5,940.8z"/>
<path class="st1" d="M357.5,941c0,12.7,0,25.2,0,37.8c-5,0-9.8,0-14.7,0c0-14.8,0-29.5,0-44.4c4.8,0,9.6,0,14.7,0
	C357.5,936.5,357.5,938.7,357.5,941z"/>
</svg>
