<?xml version="1.0" encoding="iso-8859-1"?>
<!-- Generator: Adobe Illustrator 19.0.0, SVG Export Plug-In . SVG Version: 6.00 Build 0)  -->
<svg version="1.1" id="Layer_1" xmlns="http://www.w3.org/2000/svg" xmlns:xlink="http://www.w3.org/1999/xlink" x="0px" y="0px"
	 viewBox="0 0 512 512" style="enable-background:new 0 0 512 512;" xml:space="preserve">
<g>
	<rect x="88.327" y="95.813" style="fill:#F8F8F9;" width="35.93" height="83.836"/>
	<polygon style="fill:#F8F8F9;" points="423.673,503.02 88.327,503.02 88.327,227.558 256,47.909 423.673,227.558 	"/>
</g>
<polygon style="fill:#EDEDED;" points="423.673,227.556 256,47.906 256,503.018 423.673,503.018 "/>
<rect x="220.07" y="431.158" style="fill:#BFA993;" width="71.86" height="71.86"/>
<rect x="256" y="431.158" style="fill:#B29A7E;" width="35.93" height="71.86"/>
<path style="fill:#95D5A7;" d="M142.222,503.018c9.921,0,17.965-8.045,17.965-17.965c0-6.366-3.319-11.944-8.311-15.136
	c1.472-2.606,2.322-5.611,2.322-8.817c0-9.921-8.043-17.965-17.965-17.965c-4.609,0-8.797,1.75-11.977,4.603
	c-3.18-2.853-7.368-4.603-11.977-4.603s-8.797,1.75-11.977,4.603c-3.18-2.853-7.368-4.603-11.977-4.603
	c-9.921,0-17.965,8.043-17.965,17.965c0,3.207,0.85,6.211,2.322,8.817c-4.992,3.192-8.311,8.769-8.311,15.136
	c0,9.92,8.043,17.965,17.965,17.965H142.222z"/>
<path style="fill:#80CB93;" d="M429.661,503.018c9.921,0,17.965-8.045,17.965-17.965c0-6.366-3.32-11.944-8.312-15.136
	c1.473-2.606,2.323-5.611,2.323-8.817c0-9.921-8.043-17.965-17.965-17.965c-4.609,0-8.797,1.75-11.977,4.603
	c-3.18-2.853-7.368-4.603-11.977-4.603s-8.797,1.75-11.977,4.603c-3.18-2.853-7.368-4.603-11.977-4.603
	c-9.921,0-17.965,8.043-17.965,17.965c0,3.207,0.85,6.211,2.323,8.817c-4.992,3.192-8.312,8.769-8.312,15.136
	c0,9.92,8.043,17.965,17.965,17.965H429.661z"/>
<path style="fill:#88888F;" d="M256,512c-4.962,0-8.982-4.021-8.982-8.982v-35.93c0-4.962,4.021-8.982,8.982-8.982
	s8.982,4.021,8.982,8.982v35.93C264.982,507.979,260.962,512,256,512z"/>
<polygon style="fill:#D38D94;" points="459.602,203.602 256,0 52.398,203.602 82.339,233.544 256,59.883 429.661,233.544 "/>
<g>
	<circle style="fill:#D1E5F5;" cx="256" cy="173.661" r="17.965"/>
	<rect x="143.42" y="239.532" style="fill:#D1E5F5;" width="35.93" height="47.906"/>
</g>
<polygon style="fill:#C18089;" points="256,0 256,59.883 429.661,233.544 459.602,203.602 "/>
<g>
	<path style="fill:#B4D8F1;" d="M243.298,186.363c3.25,3.252,7.742,5.263,12.702,5.263c9.921,0,17.965-8.044,17.965-17.965
		c0-4.962-2.011-9.453-5.263-12.702L243.298,186.363z"/>
	<polygon style="fill:#B4D8F1;" points="143.42,287.439 179.35,287.439 179.35,251.509 	"/>
</g>
<path style="fill:#DBDBDB;" d="M184.14,296.421h-45.511c-4.962,0-8.982-4.021-8.982-8.982s4.021-8.982,8.982-8.982h45.511
	c4.962,0,8.982,4.021,8.982,8.982S189.102,296.421,184.14,296.421z"/>
<rect x="238.035" y="239.532" style="fill:#D1E5F5;" width="35.93" height="47.906"/>
<polygon style="fill:#B4D8F1;" points="238.035,287.439 273.965,287.439 273.965,251.509 "/>
<path style="fill:#DBDBDB;" d="M278.756,296.421h-45.511c-4.962,0-8.982-4.021-8.982-8.982s4.021-8.982,8.982-8.982h45.511
	c4.962,0,8.982,4.021,8.982,8.982S283.717,296.421,278.756,296.421z"/>
<rect x="333.848" y="239.532" style="fill:#D1E5F5;" width="35.93" height="47.906"/>
<polygon style="fill:#B4D8F1;" points="333.848,287.439 369.778,287.439 369.778,251.509 "/>
<path style="fill:#DBDBDB;" d="M374.568,296.421h-45.511c-4.962,0-8.982-4.021-8.982-8.982s4.021-8.982,8.982-8.982h45.511
	c4.962,0,8.982,4.021,8.982,8.982S379.53,296.421,374.568,296.421z"/>
<rect x="143.42" y="335.345" style="fill:#D1E5F5;" width="35.93" height="47.906"/>
<polygon style="fill:#B4D8F1;" points="143.42,383.251 179.35,383.251 179.35,347.322 "/>
<path style="fill:#DBDBDB;" d="M184.14,392.234h-45.511c-4.962,0-8.982-4.021-8.982-8.982s4.021-8.982,8.982-8.982h45.511
	c4.962,0,8.982,4.021,8.982,8.982S189.102,392.234,184.14,392.234z"/>
<rect x="238.035" y="335.345" style="fill:#D1E5F5;" width="35.93" height="47.906"/>
<polygon style="fill:#B4D8F1;" points="238.035,383.251 273.965,383.251 273.965,347.322 "/>
<path style="fill:#DBDBDB;" d="M278.756,392.234h-45.511c-4.962,0-8.982-4.021-8.982-8.982s4.021-8.982,8.982-8.982h45.511
	c4.962,0,8.982,4.021,8.982,8.982S283.717,392.234,278.756,392.234z"/>
<rect x="333.848" y="335.345" style="fill:#D1E5F5;" width="35.93" height="47.906"/>
<polygon style="fill:#B4D8F1;" points="333.848,383.251 369.778,383.251 369.778,347.322 "/>
<path style="fill:#DBDBDB;" d="M374.568,392.234h-45.511c-4.962,0-8.982-4.021-8.982-8.982s4.021-8.982,8.982-8.982h45.511
	c4.962,0,8.982,4.021,8.982,8.982S379.53,392.234,374.568,392.234z"/>
<path style="fill:#88888F;" d="M459.602,512H52.398c-4.962,0-8.982-4.021-8.982-8.982s4.021-8.982,8.982-8.982h407.205
	c4.962,0,8.982,4.021,8.982,8.982S464.564,512,459.602,512z"/>
<path style="fill:#797781;" d="M459.602,494.035H256V512h203.602c4.962,0,8.982-4.021,8.982-8.982S464.564,494.035,459.602,494.035z
	"/>
<g>
</g>
<g>
</g>
<g>
</g>
<g>
</g>
<g>
</g>
<g>
</g>
<g>
</g>
<g>
</g>
<g>
</g>
<g>
</g>
<g>
</g>
<g>
</g>
<g>
</g>
<g>
</g>
<g>
</g>
</svg>
