<?xml version="1.0" encoding="UTF-8"?><svg id="Laag_1" xmlns="http://www.w3.org/2000/svg" viewBox="0 0 500.45 499.97"><defs><style>.cls-1{fill:#f5cd85;}.cls-2{fill:#b08159;}.cls-3{fill:#704f35;}.cls-4{fill:#f6cf85;}.cls-5{fill:#967b45;}</style></defs><path class="cls-5" d="M486.82,203.3c-1.95,11.15-7.52,20-16.81,26.63,10.97,8.32,17.17,18.93,17.17,32.91s-6.19,24.69-17.08,32.91c24.24,17.61,21.59,50.88-.09,65.83,10.97,8.23,17.17,18.93,17.17,32.91s-6.11,24.69-17.08,32.91c2.04,1.77,4.16,3.45,6.02,5.4,5.93,6.19,9.64,13.54,10.71,22.03,.97,7.87,.09,15.4-3.36,22.56-3.54,7.43-8.85,13.18-16.01,17.34-6.19,3.54-12.74,5.22-19.91,5.22-39.37-.09-78.75-.09-118.3-.18-.18-4.42-.09-8.76,0-13.01h88.57c-13.1-17.61-13.1-35.13,0-52.65h-77.51c-3.72,0-7.43,0-11.24-.09,0-4.42,0-8.76,.18-13.1h88.57c-13.1-17.61-13.1-35.13,0-52.65h-77.51c-3.72,0-7.43,0-11.24-.09,0-4.42,0-8.76,.18-13.1h88.57c-13.1-17.61-13.1-35.13,0-52.65h-77.15c-3.8,0-7.7,0-11.5-.09,0-4.42,0-8.76,.18-13.1h88.83c-6.55-7.79-10-16.46-10-26.37s3.54-18.49,9.91-26.19H82.55c12.83,17.52,12.83,34.95-.09,52.56h68.75c6.64,0,13.27,0,19.91,.09,0,4.42,0,8.76-.18,13.1H82.46c12.92,17.61,12.92,35.13,0,52.65h77.51c3.72,0,7.43,0,11.24,.09,0,4.42,0,8.76-.18,13.1H82.55c12.92,17.61,12.92,35.13,0,52.65h77.51c3.72,0,7.43,0,11.24,.09,0,4.42,0,8.76-.18,13.1H82.64c12.92,17.61,12.92,35.13,0,52.65h77.51c3.72,0,7.43,0,11.24,.09v13.01c-.62,0-1.33,.09-1.95,.09H50.96c-4.69,0-9.11-1.15-13.45-2.92-5.22-2.12-9.73-5.31-13.63-9.47-5.04-5.49-8.58-11.86-9.73-19.29-.62-3.89-.8-7.87-.62-11.86,.09-3.89,1.33-7.7,2.83-11.33,2.21-5.22,5.31-9.73,9.38-13.63,1.5-1.42,3.1-2.65,4.78-3.98-10.88-8.23-17.08-18.93-17.08-32.91s6.11-24.69,17.08-32.91c-24.42-17.78-21.41-51.05,.09-65.83-10.97-8.23-17.17-18.93-17.17-32.91s6.11-24.69,17.08-32.91c-2.12-1.86-4.34-3.63-6.28-5.75-5.22-5.49-8.58-12.03-10.09-19.47-.09-.44-.18-.8-.27-1.5,1.15-.97,2.3-1.77,3.45-2.39,3.1-1.68,6.19-3.27,9.29-4.78,.09,1.77,.09,3.45,.35,5.04,2.21,13.98,15.66,24.16,29.82,21.85,8.05-1.33,14.25-5.4,18.58-12.3,3.01-4.87,4.07-10.09,3.63-15.75-.27-3.27-.97-6.37-2.39-9.29-2.3-4.78-5.84-8.41-10.18-11.41,3.19-1.77,6.28-3.45,9.47-5.22,4.34-2.39,8.67-4.78,13.1-7.17,2.74-1.5,5.57-2.92,8.58-4.42H403.56c.62,.27,1.06,.53,1.59,.8,8.41,4.51,16.81,9.11,25.22,13.63,1.42,.8,2.74,1.68,4.07,2.57-9.29,5.57-14.25,16.55-12.39,26.9,.97,5.57,3.45,10.44,7.52,14.33,6.37,6.02,13.98,8.67,22.74,7.26,5.84-.97,10.79-3.63,14.95-7.96,5.04-5.31,7.08-11.77,7.34-19.02,3.19,1.68,6.28,3.36,9.38,5.04,.71,.8,1.77,1.59,2.83,2.3m-116.71,20.09h47.78c-13.18-17.61-13.1-35.13-.09-52.56H82.46c12.83,17.52,12.83,34.95-.09,52.56H370.11M29.02,406.18c5.22,10.35,16.28,16.01,27.34,14.42,14.25-2.04,24.24-15.31,22.39-29.64-1.86-13.98-15.31-24.6-29.73-22.47-17.61,2.57-27.87,21.5-20,37.69m440.81,40.08c-6.46-9.47-15.57-13.54-26.72-11.77-14.25,2.21-23.89,16.1-21.41,30.26,2.39,13.89,15.75,23.8,29.73,21.68,12.39-1.86,22.56-12.48,22.56-26.46,0-4.87-1.42-9.38-4.16-13.71m-48.49-116.71c.09,1.15,.18,2.39,.35,3.54,2.39,13.98,15.84,23.8,29.64,21.68,14.51-2.21,24.77-15.4,22.21-30.61-2.48-14.78-16.37-23.98-31.06-21.24-11.59,2.12-21.5,13.1-21.15,26.63M76,448.39c-6.19-11.15-16.63-15.66-27.87-13.89-14.07,2.21-23.98,15.93-21.5,30.26,2.83,16.37,20.26,26.81,36.45,19.82,9.11-3.89,16.81-13.71,15.66-26.19-.35-3.54-1.15-6.72-2.74-10m350.91-70.08c-4.69,6.19-6.55,13.01-5.22,20.7,2.39,14.16,16.01,23.71,29.64,21.59,14.33-2.12,24.86-15.22,22.21-30.53-2.48-14.95-16.28-23.89-30.7-21.41-6.46,1.15-11.59,4.51-15.93,9.64m-352.06-63.71c-4.95-7.08-11.41-11.41-20.26-11.94-4.6-.27-8.94,.35-13.01,2.21-10.79,5.04-17.61,17.25-14.51,29.91,2.65,11.06,11.77,19.11,23.18,20.26,7.96,.8,15.04-1.86,20.79-7.52,5.31-5.22,7.87-11.59,7.87-19.02,0-4.87-1.24-9.56-4.07-13.89m351.53-36.28c6.37,8.05,14.51,11.86,24.86,10.53,14.25-1.86,24.86-14.95,22.3-30.44-2.12-13.18-13.54-22.12-26.46-21.85-4.69,.09-9.2,1.24-13.18,3.89-7.26,4.69-11.5,11.33-12.48,19.91-.8,6.46,.97,12.48,4.95,17.96m-399.14-8.41c3.36,12.56,16.28,20.97,29.02,19.02,14.42-2.21,24.77-15.4,22.21-30.53-2.48-14.78-16.1-23.89-30.61-21.32-14.86,2.48-24.77,17.78-20.62,32.83Z"/><path class="cls-3" d="M97.15,157.55c-2.83,1.42-5.66,2.92-8.41,4.34-4.34,2.39-8.76,4.78-13.1,7.17-3.1,1.68-6.28,3.36-9.56,5.22-9.11,4.95-17.96,9.73-26.9,14.6-4.34,2.39-8.58,4.78-12.92,7.17-3.1,1.68-6.19,3.27-9.29,4.95-1.15,.62-2.3,1.42-3.45,2.21-2.21,1.15-4.34,2.21-6.46,3.36-2.3,1.24-4.6,2.48-7.08,3.8v-64.86c0-1.15,.35-1.77,1.42-2.3,5.13-2.83,10.09-5.84,15.13-8.76,4.6-2.65,9.11-5.31,13.71-7.96,5.93-3.45,11.86-6.9,17.7-10.26,4.51-2.57,8.94-5.22,13.45-7.79,5.13-3.01,10.35-6.02,15.48-9.03,4.51-2.57,9.03-5.22,13.45-7.79,5.93-3.45,11.86-6.9,17.78-10.26,4.51-2.65,9.11-5.22,13.63-7.87,5.84-3.36,11.68-6.72,17.52-10.09,4.6-2.65,9.11-5.31,13.71-7.96,5.93-3.45,11.86-6.9,17.78-10.26,4.51-2.65,9.11-5.22,13.63-7.87,5.84-3.36,11.68-6.72,17.52-10.09,4.6-2.65,9.11-5.31,13.71-7.96,5.93-3.45,11.86-6.9,17.78-10.26,4.51-2.65,9.29-4.95,13.54-7.87,2.83-1.95,4.78-1.06,7.17,.44,4.42,2.74,9.03,5.31,13.54,7.87,5.13,2.92,10.18,5.93,15.22,8.85,4.6,2.65,9.11,5.31,13.71,7.96,5.84,3.36,11.68,6.72,17.52,10.09,4.6,2.65,9.11,5.31,13.71,7.96,5.93,3.45,11.86,6.9,17.78,10.26,4.51,2.65,9.11,5.22,13.63,7.79,5.31,3.01,10.53,6.11,15.84,9.11,4.6,2.65,9.11,5.31,13.71,7.96,5.04,2.92,10.18,5.84,15.31,8.85,4.6,2.65,9.11,5.31,13.71,7.96,5.93,3.45,11.86,6.9,17.7,10.35,4.51,2.65,9.11,5.22,13.63,7.79,5.84,3.36,11.77,6.81,17.61,10.26,4.51,2.65,9.11,5.22,13.63,7.87,5.84,3.36,11.59,6.9,17.52,10,2.3,1.24,2.57,2.74,2.57,4.95-.09,20.26-.09,40.52-.09,60.7v2.12c-4.51-2.39-8.85-4.78-13.36-7.08-1.24-.71-2.3-1.5-3.45-2.21-3.1-1.68-6.19-3.36-9.47-5.13-11.59-6.28-22.92-12.48-34.33-18.67-1.86-.97-3.72-1.86-5.57-2.74-1.42-.88-2.74-1.77-4.16-2.48-8.41-4.6-16.81-9.11-25.22-13.63-.44-.27-.97-.53-1.59-.88-7.96-4.34-15.75-8.58-23.54-12.83-22.12-12.03-44.15-24.07-66.27-36.01-2.48-1.33-5.04-2.57-7.61-3.89-.35-.35-.62-.62-.97-.8-4.6-2.57-9.29-5.13-13.98-7.61-2.92-1.59-5.93-3.1-8.85-4.69-10.26-5.66-20.53-11.24-30.79-16.81-.62-.35-1.59-.27-2.21,0-7.34,3.89-14.6,7.87-21.85,11.86-3.01,1.68-6.02,3.36-9.11,5.04-7.26,3.8-14.33,7.7-21.41,11.5-.8,.44-1.5,1.06-2.3,1.59-.62,.18-1.15,.35-1.59,.62-28.31,15.4-56.72,30.79-85.03,46.19-3.54,1.95-7.08,3.98-10.53,5.93m248.36-87.6c-4.78-2.74-9.47-5.49-14.25-8.23-8.67-5.04-17.34-10.09-26.01-15.04-8.76-5.04-17.52-10.18-26.28-15.22-9.11-5.31-18.32-10.62-27.43-15.93-.97-.53-1.77-.62-2.74,0-3.27,1.95-6.64,3.89-9.91,5.75-15.04,8.67-30.08,17.34-45.13,26.01-14.16,8.23-28.31,16.46-42.47,24.69-14.25,8.23-28.58,16.46-42.82,24.77-15.48,8.94-30.88,17.96-46.28,26.9-15.93,9.2-31.85,18.49-47.78,27.61-.97,.53-1.33,1.06-1.33,2.21v32.91c0,.44,.09,.88,.18,1.59,1.06-.53,1.95-.97,2.83-1.42,10.35-5.66,20.79-11.33,31.15-16.99,8.41-4.51,16.81-9.03,25.13-13.63,11.68-6.37,23.27-12.74,34.86-19.02,8.32-4.51,16.72-9.03,25.04-13.54,14.25-7.79,28.49-15.57,42.74-23.27,9.29-5.04,18.67-10.09,28.05-15.22,15.31-8.32,30.7-16.72,46.01-25.04,.53-.27,1.5-.27,2.04,.09,10.88,5.84,21.68,11.68,32.56,17.61,7.61,4.16,15.22,8.23,22.83,12.39,12.12,6.64,24.24,13.18,36.37,19.82,6.72,3.63,13.36,7.26,20.09,10.88,12.03,6.55,24.07,13.1,36.1,19.64,8.14,4.42,16.28,8.85,24.42,13.18,12.21,6.64,24.33,13.27,36.54,19.91,8.05,4.42,16.1,8.85,24.24,13.27,.88,.53,1.86,.88,2.92,1.42,.09-.44,.18-.53,.18-.71v-34.06c0-.53-.53-1.33-1.06-1.59-9.29-5.49-18.58-10.88-27.96-16.28-17.08-9.91-34.24-19.73-51.32-29.64-13.63-7.87-27.25-15.84-40.97-23.71-6.9-4.25-13.63-8.14-20.53-12.12Z"/><path class="cls-3" d="M171.3,499.88c-.18-4.34-.18-8.58-.18-13.18v-223.68h158.03v236.69c-.35,.18-.62,.18-.97,.18-52.29,0-104.5,0-156.88,0m144.67-141.39v-82.29H184.39v210.41h131.57v-128.12Z"/><path class="cls-4" d="M369.94,223.38H82.38c12.92-17.61,12.92-35.04,.09-52.56H417.8c-13.01,17.43-13.1,34.95,.09,52.56h-47.96Z"/><path class="cls-4" d="M329.32,289.21c-.18-8.76-.18-17.43-.18-26.19H171.12v26.01c-6.64,.18-13.27,.18-19.91,.18H82.46c12.92-17.61,12.92-35.04,.09-52.56H418.07c-6.37,7.7-9.91,16.28-9.91,26.19s3.45,18.58,10,26.37h-88.83Z"/><path class="cls-4" d="M305.79,104.82c2.57,1.24,5.13,2.48,7.61,3.8,22.12,12.03,44.15,23.98,66.27,36.01,7.79,4.25,15.57,8.49,23.45,12.83-.09,.09-.18,.09-.27,.09H97.33c3.36-1.95,6.9-3.98,10.44-5.93,28.31-15.4,56.72-30.79,85.03-46.19,.44-.27,.97-.35,1.77-.53h109.8c.44,0,.97-.09,1.42-.09Z"/><path class="cls-4" d="M170.94,434.05c.18,17.43,.18,34.86,.18,52.47-3.72,.18-7.43,.18-11.24,.18H82.38c12.92-17.52,12.92-35.04,0-52.65,29.55,0,59.02,0,88.57,0Z"/><path class="cls-4" d="M170.94,302.39c.18,17.43,.18,34.86,.18,52.47-3.72,.18-7.43,.18-11.24,.18H82.38c12.92-17.52,12.92-35.04,0-52.65h88.57Z"/><path class="cls-4" d="M170.94,368.22c.18,17.43,.18,34.86,.18,52.47-3.72,.18-7.43,.18-11.24,.18H82.38c12.92-17.52,12.92-35.04,0-52.65h88.57Z"/><path class="cls-4" d="M329.32,486.7c-.18-17.43-.18-34.86-.18-52.47,3.72-.18,7.43-.18,11.24-.18h77.51c-13.1,17.52-13.1,35.04,0,52.65h-88.57Z"/><path class="cls-4" d="M329.32,420.87c-.18-17.43-.18-34.86-.18-52.47,3.72-.18,7.43-.18,11.24-.18h77.51c-13.1,17.52-13.1,35.04,0,52.65h-88.57Z"/><path class="cls-4" d="M329.32,355.04c-.18-17.43-.18-34.86-.18-52.47,3.89-.18,7.7-.18,11.5-.18h77.15c-13.1,17.52-13.1,35.04,0,52.65h-88.48Z"/><path class="cls-4" d="M28.93,406.09c-7.79-16.01,2.48-35.04,20.09-37.52,14.42-2.12,27.87,8.49,29.73,22.47,1.86,14.33-8.14,27.61-22.39,29.64-11.06,1.5-22.12-4.16-27.43-14.6Z"/><path class="cls-4" d="M469.92,446.35c2.65,4.25,4.07,8.76,4.07,13.63,.09,13.98-10.18,24.6-22.56,26.46-13.98,2.12-27.34-7.79-29.73-21.68-2.48-14.16,7.17-28.05,21.41-30.26,11.24-1.68,20.26,2.3,26.81,11.86Z"/><path class="cls-4" d="M421.34,329.38c-.35-13.36,9.64-24.24,21.15-26.46,14.69-2.74,28.58,6.46,31.06,21.24,2.57,15.22-7.7,28.31-22.21,30.61-13.8,2.12-27.34-7.7-29.64-21.68-.18-1.15-.27-2.39-.35-3.72Z"/><path class="cls-4" d="M76.09,448.48c1.5,3.19,2.3,6.37,2.65,9.91,1.15,12.48-6.55,22.3-15.66,26.19-16.19,6.99-33.62-3.45-36.45-19.82-2.48-14.25,7.43-28.05,21.5-30.26,11.33-1.77,21.77,2.74,27.96,13.98Z"/><path class="cls-4" d="M427.01,378.22c4.25-5.04,9.38-8.41,15.84-9.56,14.42-2.48,28.23,6.46,30.7,21.41,2.57,15.31-7.87,28.4-22.21,30.53-13.63,2.04-27.16-7.52-29.64-21.59-1.33-7.7,.62-14.51,5.31-20.79Z"/><path class="cls-4" d="M74.85,314.69c2.83,4.25,3.98,8.94,3.98,13.8,0,7.34-2.57,13.8-7.87,19.02-5.84,5.66-12.83,8.23-20.79,7.52-11.5-1.15-20.53-9.11-23.18-20.26-3.1-12.65,3.72-24.86,14.51-29.91,4.07-1.95,8.41-2.57,13.01-2.21,8.94,.53,15.4,4.87,20.35,12.03Z"/><path class="cls-4" d="M426.3,278.24c-3.89-5.4-5.66-11.41-4.95-17.87,.97-8.49,5.22-15.22,12.48-19.91,4.07-2.57,8.49-3.8,13.18-3.89,12.92-.27,24.33,8.67,26.46,21.85,2.48,15.48-8.05,28.58-22.3,30.44-10.18,1.42-18.4-2.39-24.86-10.62Z"/><path class="cls-4" d="M27.25,269.83c-4.16-14.86,5.75-30.26,20.7-32.83,14.51-2.48,28.05,6.64,30.61,21.32,2.57,15.22-7.7,28.31-22.21,30.53-12.83,2.04-25.66-6.37-29.11-19.02Z"/><path class="cls-4" d="M434.09,174.54c1.95,.88,3.8,1.77,5.66,2.74,11.41,6.19,22.74,12.39,34.24,18.67,0,7.26-2.04,13.71-7.17,19.11-4.07,4.34-9.03,6.99-14.95,7.96-8.76,1.42-16.37-1.24-22.74-7.26-4.07-3.89-6.46-8.76-7.52-14.33-1.77-10.35,3.19-21.32,12.48-26.9Z"/><path class="cls-4" d="M26.28,196.22c4.34-2.57,8.58-4.95,12.92-7.34,8.94-4.87,17.78-9.64,26.81-14.51,4.51,2.83,8.05,6.46,10.35,11.33,1.42,2.92,2.12,6.02,2.39,9.29,.44,5.75-.62,10.97-3.63,15.75-4.34,6.9-10.53,10.97-18.58,12.3-14.16,2.3-27.69-7.87-29.82-21.85-.35-1.5-.35-3.19-.44-4.95Z"/><path class="cls-2" d="M345.6,69.96c6.81,3.98,13.54,7.87,20.26,11.77,13.63,7.87,27.25,15.84,40.97,23.71,17.08,9.91,34.24,19.73,51.32,29.64,9.38,5.4,18.67,10.79,27.96,16.28,.53,.27,1.06,1.06,1.06,1.59,.09,11.33,0,22.74,0,34.06,0,.18-.09,.35-.18,.71-.97-.53-1.95-.88-2.92-1.42-8.05-4.42-16.19-8.85-24.24-13.27-12.21-6.64-24.33-13.27-36.54-19.91-8.14-4.42-16.28-8.85-24.42-13.18-12.03-6.55-24.07-13.1-36.1-19.64-6.72-3.63-13.36-7.26-20.09-10.88-12.12-6.64-24.24-13.18-36.37-19.82-7.61-4.16-15.22-8.32-22.83-12.39-10.79-5.84-21.68-11.77-32.56-17.61-.53-.27-1.5-.35-2.04-.09-15.4,8.32-30.7,16.72-46.01,25.04-9.29,5.04-18.67,10.09-28.05,15.22-14.25,7.79-28.49,15.57-42.74,23.27-8.32,4.51-16.72,9.03-25.04,13.54-11.68,6.37-23.27,12.74-34.86,19.02-8.41,4.51-16.81,9.03-25.13,13.63-10.35,5.66-20.79,11.33-31.15,16.99-.88,.44-1.77,.88-2.83,1.42-.09-.62-.18-1.15-.18-1.59v-32.91c0-1.06,.35-1.59,1.33-2.21,15.93-9.2,31.85-18.4,47.78-27.61,15.4-8.94,30.88-17.96,46.28-26.9,14.25-8.23,28.58-16.46,42.82-24.77,14.16-8.23,28.31-16.46,42.47-24.69,15.04-8.67,30.08-17.34,45.13-26.01,3.36-1.95,6.64-3.8,9.91-5.75,.97-.62,1.77-.53,2.74,0,9.11,5.31,18.23,10.62,27.43,15.93,8.76,5.04,17.52,10.18,26.28,15.22,8.67,5.04,17.34,10.09,26.01,15.04,4.87,3.1,9.64,5.84,14.51,8.58Z"/><path class="cls-5" d="M305.79,104.64c-.44,.18-.97,.18-1.42,.18h-108.74c-.27,0-.53,0-.97-.09,.62-.53,1.24-1.15,2.04-1.59,7.08-3.89,14.16-7.7,21.59-11.5h63.79c2.92,1.5,5.93,3.01,8.85,4.6,4.69,2.48,9.29,5.04,13.98,7.61,.27,.27,.53,.53,.88,.8Z"/><path class="cls-1" d="M281.99,91.63c-21.15,.09-42.29,.09-63.62,.09,2.83-1.68,5.84-3.45,8.85-5.04,7.26-3.98,14.51-7.96,21.85-11.86,.62-.35,1.59-.35,2.21,0,10.18,5.49,20.44,11.15,30.7,16.81Z"/><path class="cls-2" d="M315.96,358.67v127.94H184.39v-210.41h131.57v82.46m-13.18,15.31v-5.66h-13.01v39.29h13.01v-33.62Z"/><path class="cls-3" d="M302.78,374.15v33.45h-13.01v-39.29h13.01v5.84Z"/></svg>