<?xml version="1.0" encoding="UTF-8"?><svg id="Laag_1" xmlns="http://www.w3.org/2000/svg" viewBox="0 0 254.67 410.89"><defs><style>.cls-1{fill:#fff;}.cls-2{fill:#6d4318;}.cls-3{fill:#9b7053;}.cls-4{fill:#916139;}.cls-5{fill:#edcbb2;}.cls-6{fill:#d3be0f;}.cls-7{fill:#422f20;}.cls-8{fill:#9d8b18;}.cls-9{fill:#6787c4;}.cls-10{fill:#cbb995;}.cls-11{fill:#f0d0bc;}.cls-12{fill:#a87248;}.cls-13{fill:#63401f;}.cls-14{fill:#dbbf52;}.cls-15{fill:#cba33c;}.cls-16{fill:#828186;}.cls-17{fill:#a7bee4;}.cls-18{fill:#a15f2b;}.cls-19{fill:#9a6f52;}.cls-20{fill:#264860;}.cls-21{fill:#e1e0e0;}.cls-22{fill:#e5b83a;}.cls-23{fill:#5d3b22;}.cls-24{fill:#49709c;}.cls-25{fill:#b1b1af;}.cls-26{fill:#7f9fd3;}.cls-27{fill:#c29879;}</style></defs><path class="cls-20" d="M85.72,372.95c-1.65-.49-2.49-1.56-2.46-3.33,.03-1.51,0-3.02,0-4.53,0-49.46,0-98.93,.45-148.88,3.51-.54,6.56-.59,10.06-.61,2.54,0,4.64-.03,7.19-.03,4.73,.09,9.01,.14,13.46,.58,.85,.81,1.48,1.48,2.21,1.6,1.31,.21,2.67,.11,4.01,.11,5.53,0,11.06-.01,16.6,0,1.61,0,3.03-.25,3.99-2.12,4.13-.08,7.81-.13,11.93-.15,2.78-.02,5.12-.06,7.91-.07,3.76,.11,7.06,.16,10.36,.22,.04,1.67,.12,3.34,.12,5.02,.04,48.55,.08,97.09,.08,145.64,0,1.8-.33,3.61-1.19,5.79-6.67,.42-12.65,.47-18.63,.52-4.81,.04-9.63,.1-14.44,.15-3.65-.95-3.69-.95-3.8-4.11-.27-7.37-.52-14.73-.74-22.1-.51-17.25-.98-34.5-1.48-51.76-.34-11.72-.69-23.45-1.12-35.17-.07-1.8-.46-3.63-.98-5.37-.29-.99-1.36-1.62-2.42-1.31-.73,.2-1.65,.8-1.88,1.43-.44,1.23-.58,2.6-.62,3.92-.37,12.73-.69,25.46-1.03,38.19-.64,23.95-1.28,47.9-1.92,71.85-.04,1.5,.17,3.07-2.2,4.18-5.16,.16-9.5,.19-14.31,.15-5.53-.02-10.6,.04-16.01,.04-1.28,0-2.21,.06-3.14,.12Z"/><path class="cls-9" d="M94.2,95.25c3.06-.45,6.12-.91,9.61-.93,.45,3.76,2.15,6.43,4.73,8,3.49,2.11,4.25,5.3,4.85,8.78,.14,.82,.23,1.66,.43,2.46,3.93,15.88,7.87,31.77,11.85,47.64,.2,.81,.8,1.52,1.55,2.89,1.06-4.12,1.96-7.5,2.78-10.89,2.27-9.41,4.49-18.83,6.77-28.24,1.34-5.52,2.7-11.03,4.16-16.52,.55-2.07,1.07-4.21,3.26-5.4,3.56-1.93,4.88-5.32,5.95-9.09,2.73,.32,5.07,.66,7.47,1.47,.09,2.43,.11,4.4,.14,6.37,.07,5.41,.14,10.83,.13,16.69-.03,3.49,.01,6.54,0,10.05-.08,24.33-.1,48.18-.55,72.06-1.9,.07-3.36,.12-5.27,.16-4.07-.03-7.68-.05-11.44-.46-.85-1.91-2.23-1.84-3.56-1.84-6.16,0-12.31,0-18.47,0-.67,0-1.33,.01-1.99,.06-1.37,.09-2.02,.99-2.81,2.2-4.69,.05-8.92,.1-13.63,.08-2.02-.12-3.58-.17-5.11-.69,.04-22.87,.06-45.27,.03-67.67,0-1.46-.39-2.92-.58-4.83-.02-3.15-.05-5.85,.14-8.9,.61-7.88,.68-15.4-.53-23.01,.05-.13,.09-.41,.09-.41Z"/><path class="cls-9" d="M51.17,222.74c.24-2.5,.53-4.99,.72-7.5,.63-8.35,1.23-16.7,1.82-25.06,.39-5.51,.78-11.03,1.13-16.55,.46-7.19,.81-14.39,1.33-21.57,.86-12.03,1.81-24.05,2.72-36.07,.66-8.67,5.29-14.32,13.4-16.99,3.31-1.09,6.86-1.45,10.32-2.1,1.64-.31,3.31-.51,5.37-.28,.4,5.64,.36,10.8,.41,15.96,.02,2.15,.23,4.3,.24,6.89-.06,3.12,0,5.81-.07,8.96-.16,2.47-.23,4.47-.23,6.48-.02,21.9-.02,43.8-.44,65.74-1.8,.01-3.19,0-4.57-.02-1.37-4.01-1.91-8.11-1.84-12.35,.11-6.37,.04-12.74,0-19.12,0-1.65-.18-3.29-.78-4.95-.14,.59-.35,1.18-.42,1.78-1.33,12.32-2.65,24.64-3.97,36.97-.68,6.33-1.36,12.65-2.53,19.38-7.86,.4-15.22,.41-22.59,.42Z"/><path class="cls-25" d="M4.68,89.76c-.58-1.74,.05-3.28,.72-4.84,1.66-3.84,3.28-7.7,4.94-11.54,4.39-10.14,8.79-20.27,13.19-30.4,.47-1.08,.99-2.13,1.46-3.2,2.08-4.67,4.3-4.77,8.49-4.19,1.64,.23,3.2,.96,4.81,1.41,3.06,.86,6.13,1.67,9.19,2.53,1.8,.5,3.5,1.24,4.7,2.74,1.19,1.49,1.75,3.1,1.36,5.12-.64,3.27-1.01,6.59-1.56,10.73-1.16,3.9-1.16,7.06-.92,10.24-.32,.56-.84,1.1-.93,1.69-1.14,7.83-2.2,15.67-3.34,23.5-.33,2.28-.86,4.53-1.96,6.97-1.77-.17-2.88-.55-4-.88-10.09-2.92-20.18-5.87-30.29-8.73-1.91-.54-3.9-.78-5.86-1.17Z"/><path class="cls-9" d="M182.98,164.3c-2.44-7.47-4.83-14.95-7.35-22.38-.56-1.65-.69-3.57-2.15-4.93-.95,.93-.54,1.94-.55,2.83-.03,17.07-.05,34.15,0,51.22,0,3.04-.27,6.01-1.81,9.28-2.76,.32-4.97,.27-7.21-.26-.04-22.48-.05-44.49-.07-66.5,0-1.83-.08-3.66-.07-5.95,.01-3.5-.03-6.55-.02-10.06,.14-7.5,.21-14.53,.7-21.56,4.15,.58,7.88,1.35,11.65,1.69,3.47,.31,6.26,1.87,9.02,3.75,2.94,2,4.84,4.94,7.18,7.91,2.55,4.48,4.42,8.85,4.75,13.78-.89,.75-1.68,1.3-1.89,2.02-1.04,3.52-1.99,7.07-2.81,10.65-.16,.69,.43,1.55,.63,2.7-3.31,8.37-7.73,15.98-8.4,24.88-.03,.36-1.04,.64-1.59,.95Z"/><path class="cls-5" d="M155.03,41.86c1.65,1.73,2,3.87,1.63,6.08-.5,2.95-1.23,5.87-1.84,8.8-.37,1.79-1.5,2.94-3.48,3.39-.47-2.49-.5-4.62-.55-7.54-1.63,2.02-2.68,3.46-3.89,4.75-1.21,1.3-2.23,2.89-4.18,3.52-3.4-3.5-7.56-4.31-12.09-4.08-2.51,.12-5.04,.12-7.55,0-4.26-.2-7.94,.97-10.95,4.09-.18,.19-.61,.15-1.13,.26-2.59-2.58-5.41-5.11-7.57-9.54-.16,3.76-.27,6.38-.39,9.01-2.19-.34-3-2.07-3.47-3.84-.85-3.21-1.49-6.47-2.13-9.73-.31-1.57,.43-2.92,1.87-4.16,1.37,1.14,1.71,2.9,4.02,2.37,0-1.29,0-2.43,0-3.58,0-3.51,.03-7.02,0-10.53-.03-3.31,.87-6.26,3.12-8.75,.44-.48,.75-1.08,1.05-1.53-.46-1.94-.88-3.71-1.17-5.59,.13-.11,.39-.32,.7-.13,1.49,1.56,2.67,2.94,3.78,4.23,.92,0,1.59,0,2.26,0,10.55-.03,21.11-.1,31.66-.07,4.72,.01,5.97,1.31,6.12,5.91,.05,1.51,.01,3.02,.01,4.52,0,4.69,0,9.38,.04,14.07,0,.56,.35,1.11,.56,1.7,2.15-.58,2.6-2.36,3.58-3.64Z"/><path class="cls-7" d="M103.12,61.06c.03-3.08,.14-5.71,.3-9.47,2.17,4.44,4.98,6.96,7.57,9.54,.53-.11,.95-.07,1.13-.26,3-3.11,6.69-4.29,10.95-4.09,2.51,.12,5.04,.12,7.55,0,4.54-.22,8.7,.58,12.09,4.08,1.94-.63,2.97-2.22,4.18-3.52,1.21-1.29,2.25-2.74,3.89-4.75,.05,2.92,.08,5.04,.21,7.59,.02,6.34-.03,12.27-.14,18.2-.04,2.14-.22,4.27-.64,7.08-1.85,2.76-3.39,4.85-5.21,7.11-1.58,1.49-2.89,2.79-4.16,4.13-2.57,2.7-5.71,4.03-9.44,3.99-2.85-.03-5.71-.04-8.56,0-3.74,.06-6.86-1.26-9.44-3.96-1.61-1.69-3.31-3.28-4.98-4.92-2.13-2.44-4.3-4.85-5.15-8.94-.11-4.15-.14-7.49-.17-10.83,.04-3.5,.07-7.01,.03-10.97m13.62,4.33c.16,.42,.21,1.12,.49,1.23,1.23,.47,2.51,1.04,3.79,1.09,4.01,.14,8.02,.08,12.03,.04,1.84-.02,3.58-.45,5.13-2.05-.45-.6-.72-1.34-1.22-1.54-1.36-.55-2.8-1.16-4.24-1.24-3.5-.17-7.02-.07-10.53-.05-1.89,0-3.64,.44-5.45,2.52Z"/><path class="cls-7" d="M155.14,41.46c-1.1,1.68-1.54,3.46-3.69,4.04-.2-.59-.55-1.14-.56-1.7-.05-4.69-.04-9.38-.04-14.07,0-1.51,.04-3.02-.01-4.52-.15-4.61-1.4-5.9-6.12-5.91-10.55-.03-21.11,.04-31.66,.07-.67,0-1.34,0-2.26,0-1.11-1.29-2.29-2.67-3.86-4.5-.69-.64-.99-.84-1.28-1.04-.03,.3-.14,.62-.05,.88,.09,.26,.39,.44,.6,.66,.42,1.77,.84,3.54,1.3,5.48-.3,.45-.61,1.04-1.05,1.53-2.25,2.5-3.15,5.44-3.12,8.75,.03,3.51,0,7.02,0,10.53,0,1.15,0,2.3,0,3.58-2.31,.53-2.64-1.23-3.71-2.58-1.13-5.88-2.04-11.51-2.8-17.15-.38-2.82-.72-5.68-.64-8.51,.18-6.42,3.32-11.12,9-14.1C109.11,.83,113.36,.01,117.79,.02c9.4,.02,18.8,0,28.2,0,1.85,0,3.7-.07,5.54,.02,3.78,.19,5.93,2.11,6.18,5.91,.2,3,0,6.04-.2,9.05-.52,7.7-1.13,15.4-1.73,23.09-.08,.99-.35,1.97-.65,3.36Z"/><path class="cls-26" d="M182.97,164.68c.56-.7,1.57-.98,1.59-1.33,.68-8.9,5.1-16.51,8.83-24.87,2.92-.02,5.38,.31,7.82,.67,4.9,.72,9.8,1.43,14.69,2.22,.58,.09,1.08,.7,1.62,1.07-.92,7.65-2.87,15.07-4.81,22.5-.85,3.25-2.31,6.26-4.36,8.96-3.01,3.97-7.05,6.08-11.96,6.42-5.24,.36-8.84-2.08-10.73-7.19-.98-2.66-1.81-5.38-2.7-8.45Z"/><path class="cls-11" d="M225.34,118.26c-.46,2.71-1.11,5.35-3.7,7.69-2.92,.13-5.24,.14-7.51-.15-4.05-.52-8.09-1.19-12.11-1.86-.95-.16-1.85-.6-2.85-1.33-1.38-4.15-1.38-7.98-.6-11.85,2.51-.63,2.96-1.01,2.55-2.43-.79-2.74-1.1-5.51-1.1-8.34,1.93-3.28,5.18-3.61,8.29-2.99,5.49,1.09,10.98,2.36,15.7,5.72,2.05,1.46,3.93,3.01,5.14,5.97-.3,2.42-.77,4.23-2.49,4.77-1.51,.47-3.25,.28-4.88,.21-.8-.04-1.57-.5-2.37-.76-.95-.31-1.88-.77-2.85-.87-2.06-.21-4.22-.65-6.11,.84,.8,1.6,2.19,1.71,3.41,2.06,3.83,1.12,7.66,2.22,11.49,3.33Z"/><path class="cls-6" d="M137.37,373.29c4.81-.45,9.62-.51,14.43-.55,5.98-.06,11.96-.1,18.4-.19,.49,.67,.53,1.38,.09,2.34-1.2-.14-1.9-.76-2.68-.88-5.31-.81-10.65-.72-15.98-.06-.78,.1-1.57,.58-2.24,1.05-.33,.23-.59,.88-.51,1.27,.06,.31,.64,.66,1.04,.74,.46,.09,.99-.06,1.47-.17,5.45-1.24,10.87-1.46,16.33,.04,.84,.23,1.89-.27,2.85-.44,.13,.93,.26,1.86-.08,3.1-1.25,.03-2.03-.49-2.81-.5-4.49-.09-8.98-.16-13.47-.02-1.26,.04-2.55,.72-3.71,1.32-.42,.22-.79,1.16-.66,1.62,.11,.4,1.11,.96,1.47,.81,2.72-1.07,5.54-1.03,8.37-1.01,1.83,.01,3.67-.1,5.49,.05,1.76,.15,3.5,.57,5.48,.91,.18-.8,.32-1.4,.46-2.01,6.56,2.66,10.48,6.31,12.15,11.92-3.82-2.16-7.48-3.92-11.85-3.69-1.32,.07-2.65-.01-3.98,.02-7.8,.21-12.91,4.89-14.3,12.78-4.23-.59-7.22-2.92-10.25-5.15-2.14-1.58-4.33-2.99-7.16-2.74-.05-4.16-.18-8.32-.12-12.48,.02-1.29,.55-2.57,.85-3.86,.3-1.28,.61-2.55,.91-4.23m18.9,14.38c1.81-.29,3.61-.81,5.42-.82,4.16-.02,8.38-.57,12.44,.95,.29,.11,1-.31,1.16-.66,.16-.34,.03-1.04-.24-1.33-1.35-1.4-3.12-1.96-5.01-1.97-3.52-.03-7.05,0-10.57,.08-1.88,.04-3.66,.54-5.09,1.83-.31,.28-.59,1.1-.43,1.28,.36,.42,1,.59,2.33,.65Z"/><path class="cls-6" d="M105.34,372.86c4.34-.03,8.68-.07,13.47-.04,.63,1.36,.52,2.8,1.06,3.94,1.18,2.51,1.38,5.1,1.33,7.79-.05,2.83-.04,5.66-.51,8.93-3.55,.31-5.73,2.24-8.02,3.85-2.59,1.82-5.13,3.7-8.46,3.81-.36-1.17-.6-1.98-.93-2.74-2.39-5.53-6.61-8.78-12.58-9.37-8.01-.8-9.42-.37-16.73,3.64-.29,.16-.6,.3-.89,.46-.08-3.59,2.12-5.89,4.66-7.9,2.23-1.77,4.61-3.35,7.27-4.73,.81,2.3,1.12,2.63,2.32,2.26,5.6-1.72,11.24-1.23,16.87-.28,.98,.17,1.93,.73,2.75-.2,.55-.64-.38-1.93-1.85-2.5-.93-.36-1.91-.79-2.88-.81-5.66-.1-11.38-.91-16.92,1.06,.19-.92,.37-1.83,1.12-2.91,1.38-.19,2.24-.06,3.01-.27,5.29-1.45,10.54-1.17,15.8,.11,.48,.12,.96,.51,1.41,.46,.56-.06,1.42-.34,1.54-.72,.14-.46-.21-1.28-.62-1.64-.6-.54-1.43-.82-2.19-1.45-.02-.24,0-.72,0-.72m-21.72,11.51c-.57,.33-1.28,.55-1.68,1.03-.36,.43-.66,1.29-.46,1.7,.19,.4,1.21,.81,1.61,.64,2.88-1.26,5.89-.9,8.87-.93,2.99-.03,6-.23,8.86,1.02,.28,.12,.7,.15,.97,.04,.4-.17,.96-.44,1.05-.78,.1-.38-.1-1.01-.4-1.3-1.39-1.33-3.16-1.85-5.03-1.86-4.32,0-8.64,.1-13.78,.44Z"/><path class="cls-11" d="M73.9,237.78c.06,5.35,.12,10.69,.17,16.04,.01,1.45-.64,2.56-1.77,3.43-1.47,1.13-3.63,.53-4-1.25-.26-1.29-.16-2.65-.25-3.98-.12-1.8,.42-3.67-.44-5.35-1.36-.68-2.05,.11-2.3,1.11-.28,1.11-.23,2.31-.3,3.48-.33,5.49-.59,10.98-1.02,16.46-.33,4.16-4.73,6.07-8.25,3.55-2.98-2.13-4.97-4.93-4.84-8.85,.15-4.66-.16-9.31,.78-13.97,.62-3.07,.24-6.33,.77-10.01,7.45-.55,14.44-.6,21.43-.65Z"/><path class="cls-5" d="M108.25,92.05c1.82,1.39,3.52,2.99,5.13,4.67,2.58,2.71,5.71,4.02,9.44,3.96,2.85-.04,5.71-.03,8.56,0,3.73,.04,6.87-1.29,9.44-3.99,1.27-1.34,2.58-2.63,4.46-3.92,.93,.35,1.28,.67,1.58,1.36-.48,3.67-3.09,5.37-5.36,7.15-1.54,1.21-2.4,2.55-2.86,4.37-.56,2.19-.65,4.53-2.34,6.41-1.24-.04-2.12,0-3.28,.04,1.04,1.47,2.36,1.71,3.49,2.52-.32,1.04-.62,1.78-1.33,2.46-1.48-.11-2.55-.16-3.71-.54-.53-.69-.99-1.06-1.62-1.58-.19,2-.37,3.6-.46,5.2-.01,.22,.37,.46,.58,.7,1.45-.29,1.61-1.41,1.96-2.76,1.36,.13,2.42,.42,3.43,1.05-.33,.97-.6,1.61-1.19,2.18-1.69,.13-1.77,1.25-2.23,2.36-.68,.29-1.1,.51-2.09,1,1.27,.16,1.99,.25,2.75,.77-.01,2.14-.08,3.86-.52,5.55-1.46-.27-2.86,.45-3.47-1.08,.05,0-.01,.05-.43,.17-1.77,.14-1.6,1.35-1.97,2.22-.21,.49-.73,.84-1.76,1.96,.19-2.51,.31-4.06,.45-5.81-1.12,.19-2.08,.35-2.83,.2,.2-1.21,.2-2.1,.2-3-.14-.02-.27-.03-.41-.05-.27,.88-.54,1.75-1.02,2.33-.98-2.64-1.83-4.97-1.32-7.77,1.14-.59,2.01-.91,2.86-.89-.29,1.64-1.57,3.06,.67,4.34,.47-1.44,.9-2.74,1.41-4.29-.87-.14-1.48-.24-2.3-.64-1.39-1.08-2.54-.74-3.84-.55-1.54-5.48-2.92-10.58-4.32-15.76-4.15-1.55-6.35-4.75-7.73-8.65,.6-.48,1.19-.95,1.94-1.67m16.21,22.19c-.32-1.37-1.14-2.35-2.42-2.9-.99-.43-1.93-.53-2.17,.97,1.53,.88,3.07,1.76,4.68,3.37,.58,1.17,.38,3.03,2.54,2.95,.31-1.67,.67-3.24,.82-4.83,.02-.23-1.15-.91-1.37-.77-.79,.5-1.4,1.27-2.1,1.22m1.06,9c-.12,.85-.57,1.81,1.18,2.45-.29-1.19-.5-2.02-1.18-2.45m5.12,3.8c.12,.51,.23,1.02,.35,1.52,.13-.53,.27-1.06,.37-1.6,.02-.09-.19-.22-.71,.07m-2.87-.53l.25,.1s-.06-.21-.25-.1Z"/><path class="cls-21" d="M4.32,89.81c2.32,.33,4.31,.58,6.22,1.12,10.11,2.87,20.2,5.81,30.29,8.73,1.12,.33,2.23,.71,3.72,1.15,.19,3.24,.8,6.48-.68,9.48-.22,.44-.48,.86-.7,1.26-3.88-.42-38.82-10.5-43.17-12.43,.23-2.9,1.8-6.57,4.32-9.31Z"/><path class="cls-22" d="M102.7,71.95c.42,3.42,.45,6.76,.44,10.59-4.23-.62-8.44-1.66-12.61-2.85-9.31-2.64-18.6-5.36-28.19-8.58,.47-3.5,1.23-6.47,2-9.43,4.49,1.16,9,2.24,13.47,3.48,7.05,1.95,14.06,4.01,21.1,6,1.11,.31,2.27,.48,3.8,.8Z"/><path class="cls-17" d="M135.6,117.15c.3-.74,.6-1.48,1.09-2.71,.12-1.09,.05-1.69-.02-2.29,1.34-1.95,1.43-4.3,1.98-6.48,.46-1.82,1.32-3.16,2.86-4.37,2.27-1.79,4.88-3.48,5.71-7.18,1.11-.31,1.82-.23,2.54-.15-.69,3.74-2,7.13-5.56,9.06-2.19,1.19-2.71,3.33-3.26,5.4-1.46,5.49-2.82,11-4.16,16.52-2.28,9.41-4.5,18.83-6.77,28.24-.82,3.4-1.73,6.77-2.78,10.89-.75-1.37-1.35-2.09-1.55-2.89-3.98-15.87-7.91-31.75-11.85-47.64-.2-.81-.29-1.64-.43-2.46-.6-3.48-1.36-6.66-4.85-8.78-2.58-1.56-4.29-4.24-4.32-7.94,.45-.46,.91-.55,1.73-.64,1.74,3.9,3.93,7.1,8.08,8.65,1.4,5.18,2.77,10.28,4.29,16.04,.42,1.11,.69,1.57,.97,2.02-.25,2.54,.6,4.87,1.66,7.67,.29,.46,.5,.76,.49,1.13-.03,2.1-.39,3.64,.59,5.51,1.35,2.58,1.85,5.68,2.35,8.62,.47,2.8,1.43,5.36,2.71,8.48,1.89-7.32,3.64-14.06,5.38-20.8,.07-1.72,.14-3.43,.14-5.57-.07-.43-.07-.41,.2-.49,.46-.41,.64-.74,.91-1.32,.31-.93,.54-1.59,.77-2.26,.27-.63,.55-1.26,.92-2.51,.12-.99,.16-1.36,.19-1.73Z"/><path class="cls-23" d="M104.28,401.51c3.25-.49,5.79-2.37,8.38-4.19,2.29-1.61,4.47-3.54,7.92-3.39,.44,2.51,.61,5.01,.57,7.51-.03,2.21-.84,3.34-2.86,3.34-2.51,.01-4.41,1.14-6.43,2.3-4.41,2.54-9.15,3.91-14.32,3.8-6.17-.13-12.35-.03-18.53-.03-1.17,0-2.34,.04-3.5-.07-1.85-.17-2.64-.94-2.82-2.88-.15-1.66-.06-3.33,.4-5.31,2.12-.09,3.75,.29,5.39,.31,5,.08,10.01-.03,15.01,.05,3.69,.06,7.27-.46,10.8-1.45Z"/><path class="cls-17" d="M199.24,123.04c.92,.31,1.83,.75,2.78,.91,4.03,.68,8.06,1.35,12.11,1.86,2.28,.29,4.59,.28,7.3,.46,.84,5.09-.59,9.84-1.8,14.62-.13,.51-.95,.85-1.78,1.41-.87-.23-1.36-.84-1.95-.93-4.89-.79-9.79-1.5-14.69-2.22-2.45-.36-4.9-.69-7.78-1.04-.67-.79-1.25-1.65-1.1-2.34,.82-3.58,1.77-7.13,2.81-10.65,.21-.72,1-1.26,2.19-2.02,1.08-.11,1.49-.08,1.9-.05Z"/><path class="cls-23" d="M135.66,394.31c2.91-.71,5.09,.7,7.24,2.28,3.03,2.23,6.02,4.56,10.68,5.29,3.54,.87,6.35,1.14,9.23,1.08,4.7-.09,9.4-.08,14.09,0,2.38,.04,4.68-.2,6.92-.96,.05,2,.2,4,.11,6-.08,1.82-1,2.62-2.9,2.8-.99,.1-2,.06-3,.06-6.35,0-12.7-.09-19.05,.03-5.18,.1-9.93-1.27-14.3-3.89-2.05-1.22-3.98-2.31-6.47-2.21-.73,.03-1.5-.62-2.55-1.1-.02-2.95-.04-5.93,.01-9.38Z"/><path class="cls-17" d="M73.99,237.37c-7.08,.46-14.07,.5-21.53,.6-2.11-.17-3.38-.89-3.4-2.73-.04-3.65-.02-7.3,.1-10.95,.02-.49,.75-.96,1.58-1.5,7.79-.07,15.15-.07,22.99-.06,.79,.56,1.35,1.1,1.36,1.65,.05,4.22,.3,8.46-1.11,12.98Z"/><path class="cls-8" d="M104.2,401.13c-3.45,1.37-7.03,1.89-10.72,1.83-5-.08-10.01,.03-15.01-.05-1.64-.03-3.27-.41-5.26-.72-.41-2.86-.45-5.63-.32-8.74,.48-.49,.78-.64,1.08-.8,7.31-4.01,8.72-4.44,16.73-3.64,5.96,.6,10.18,3.84,12.58,9.37,.33,.76,.57,1.57,.93,2.74Z"/><path class="cls-15" d="M150.15,93.94c-1.1-.05-1.81-.13-2.88-.19-.7-.3-1.05-.62-1.7-1.14,1.25-2.29,2.79-4.38,4.57-6.67,8.22,2.13,16.18,4.49,24.16,6.8,8.3,2.4,16.62,4.74,25.32,7.19,.39,2.9,.69,5.68,1.49,8.41,.41,1.42-.04,1.8-2.82,2.2-2.49-.67-4.31-1.1-6.14-1.53-2.22-2.65-4.12-5.59-7.06-7.59-2.76-1.88-5.54-3.44-9.02-3.75-3.77-.33-7.5-1.11-12.07-1.74-2.7-.36-4.58-.66-6.47-.97-2.34-.35-4.68-.7-7.41-1.01Z"/><path class="cls-8" d="M183.9,401.56c-2.33,1.2-4.63,1.45-7.01,1.4-4.7-.08-9.4-.09-14.09,0-2.87,.06-5.68-.21-8.88-1.11,.62-8.01,5.72-12.69,13.53-12.9,1.33-.04,2.66,.05,3.98-.02,4.37-.24,8.04,1.53,11.82,4.04,.47,2.77,.6,5.45,.65,8.58Z"/><path class="cls-22" d="M225.7,118.28c-4.19-1.13-8.02-2.23-11.85-3.35-1.22-.36-2.61-.46-3.41-2.06,1.9-1.49,4.05-1.05,6.11-.84,.97,.1,1.91,.56,2.85,.87,.79,.26,1.57,.72,2.37,.76,1.63,.08,3.37,.26,4.88-.21,1.72-.54,2.19-2.35,2.54-4.44,7.14,1.56,14.23,3.49,21.3,5.47,1.67,.47,3.02,1.46,3.74,3.1,1.63,3.72-1.41,7.68-5.52,7.16-1.15-.15-2.28-.52-3.4-.85-6.42-1.86-12.83-3.73-19.6-5.62Z"/><path class="cls-19" d="M163.93,200.52c2.21,.06,4.42,.12,7.03,.21,.63,.81,1.05,1.6,1.05,2.38,0,3.93-.11,7.87-.38,12.24-3.5,.38-6.8,.32-10.55-.23-.52-5.1-.59-9.7-.22-14.37,1.32-.12,2.2-.17,3.08-.22Z"/><path class="cls-4" d="M83,200.93c1.69-.3,3.07-.28,5.31-.3,2.34,.01,3.82,.06,5.22,.56-.13,5.1-.17,9.74-.21,14.39-3.05,.05-6.11,.1-9.61,.17-.85-.47-1.58-.96-1.58-1.46-.07-4.08,0-8.15,.05-12.23,0-.27,.34-.54,.82-1.13Z"/><path class="cls-12" d="M88.72,119.03c-.12-2.15-.33-4.3-.35-6.45-.05-5.16,0-10.32,0-15.92,1.27-.65,2.53-.86,4.46-.98,.85,.09,1.04,.1,1.23,.1,1.26,7.47,1.19,14.99,.16,22.86-2.26,.35-3.88,.37-5.51,.38Z"/><path class="cls-16" d="M63.99,61.48c-.42,3.15-1.18,6.12-2.01,9.44-3.43-.55-6.81-1.47-10.55-2.47-.61-3.27-.61-6.43,.52-9.94,3.92,.63,7.81,1.7,12.04,2.96Z"/><path class="cls-2" d="M171.06,380.57c-.07,.74-.2,1.35-.39,2.15-1.97-.34-3.71-.76-5.48-.91-1.82-.15-3.66-.04-5.49-.05-2.83-.02-5.65-.05-8.37,1.01-.36,.14-1.36-.41-1.47-.81-.13-.46,.24-1.4,.66-1.62,1.16-.6,2.45-1.28,3.71-1.32,4.48-.14,8.98-.07,13.47,.02,.79,.02,1.56,.53,2.75,.97,.41,.15,.55,.43,.62,.57Z"/><path class="cls-13" d="M105.35,373.83c.73,.39,1.57,.67,2.17,1.21,.41,.37,.76,1.19,.62,1.64-.11,.37-.98,.66-1.54,.72-.45,.05-.92-.34-1.41-.46-5.26-1.27-10.51-1.56-15.8-.11-.77,.21-1.63,.08-2.87-.06-.42-.17-.49-.46-.21-.82,1.14-.96,2-1.57,3.34-2.15,5.55,.02,10.63,.02,15.7,.02Z"/><path class="cls-23" d="M170.61,376.3c-.98,.29-2.03,.8-2.87,.57-5.46-1.51-10.88-1.28-16.33-.04-.48,.11-1.01,.26-1.47,.17-.4-.08-.98-.42-1.04-.74-.08-.39,.18-1.03,.51-1.27,.67-.47,1.45-.96,2.24-1.05,5.32-.66,10.66-.75,15.98,.06,.78,.12,1.48,.74,2.57,1.4,.43,.43,.46,.59,.42,.89Z"/><path class="cls-6" d="M89.18,373.78c-.86,.6-1.72,1.21-2.83,2.03-.39-.61-.53-1.42-.66-2.55,.95-.36,1.88-.42,3.17-.2,.36,.27,.32,.72,.32,.72Z"/><path class="cls-3" d="M94.11,95.66c-.23,.13-.42,.12-.89,.08-.09-.31,.17-.48,.75-.51,.24,.02,.19,.3,.15,.43Z"/><path class="cls-14" d="M114.24,200.68c.34-1.21,.99-2.11,2.36-2.2,.66-.04,1.33-.06,1.99-.06,6.16,0,12.31,0,18.47,0,1.33,0,2.71-.06,3.51,2.3,.12,5.6,.16,10.33,.2,15.07-.51,1.83-1.93,2.09-3.54,2.09-5.53-.01-11.06,0-16.6,0-1.34,0-2.7,.1-4.01-.11-.73-.12-1.36-.8-2.15-2.08-.15-5.57-.19-10.29-.23-15.01m5.66,11.82c.59,.29,1.17,.82,1.76,.83,3.99,.1,7.99,.16,11.99,.08,1.88-.04,2.56-.88,2.67-2.91,.08-1.49,.09-3,0-4.5-.13-2.46-.8-3.13-3.45-3.18-3.66-.07-7.33-.05-10.99,.03-.75,.02-1.5,.44-2.4,.71,0,2.84,0,5.48,.41,8.93Z"/><path class="cls-4" d="M113.79,200.68c.49,4.72,.53,9.44,.51,14.64-4.33,.42-8.61,.36-13.38-.18-.42-5.1-.35-9.7-.29-14.31,4.24-.05,8.47-.1,13.16-.15Z"/><path class="cls-4" d="M141.23,215.77c-.49-4.71-.53-9.45-.51-14.64,3.67-.44,7.28-.43,11.41,.05,.54,5.11,.56,9.76,.58,14.4-3.68,.05-7.36,.1-11.49,.19Z"/><path class="cls-24" d="M153.16,215.62c-.46-4.68-.49-9.32-.57-14.41,1.39-.51,2.85-.56,5.08-.6,1.43,.08,2.09,.14,2.75,.2,.07,4.6,.14,9.2,.2,14.25-2.35,.5-4.69,.55-7.46,.56Z"/><path class="cls-24" d="M100.17,200.75c.4,4.68,.34,9.29,.3,14.35-2.07,.49-4.17,.52-6.71,.52-.4-4.68-.36-9.32,0-14.45,.63-.56,.94-.61,1.26-.64,1.56,.05,3.11,.1,5.14,.22Z"/><path class="cls-8" d="M89.65,373.8c-.47-.02-.44-.47-.44-.7,5.06-.28,10.13-.33,15.66-.32,.47,.07,.44,.55,.46,.79-5.06,.24-10.13,.24-15.68,.22Z"/><path class="cls-3" d="M95.06,200.06c-.35,.49-.66,.54-1.21,.65-1.72-.02-3.2-.07-5.13-.11-.43-21.9-.43-43.8-.41-65.7,0-2,.07-4.01,.63-6.45,2.2-.44,3.87-.44,5.55-.45,.21,1.46,.59,2.92,.6,4.38,.03,22.4,.01,44.8-.03,67.67Z"/><path class="cls-12" d="M160.86,200.73c-1.1,.01-1.76-.05-2.75-.14-.32-23.89-.3-47.75,.19-72.07,2.12-.46,3.77-.46,5.41-.46,.04,1.83,.13,3.66,.13,5.5,.02,22.01,.03,44.02,.07,66.5-.85,.51-1.73,.56-3.04,.68Z"/><path class="cls-12" d="M157.62,95.41c1.82-.15,3.7,.15,6,.51,.34,7.09,.26,14.12-.29,21.61-2.1,.47-3.73,.48-5.36,.48-.07-5.41-.14-10.83-.21-16.24-.03-1.97-.05-3.94-.14-6.37Z"/><path class="cls-4" d="M157.89,118.46c1.71-.45,3.34-.46,5.38-.46,.46,3.05,.5,6.1,.49,9.6-1.71,.45-3.35,.45-5.4,.45-.45-3.05-.5-6.09-.47-9.59Z"/><path class="cls-18" d="M94.51,127.56c-1.69,.45-3.36,.46-5.44,.43-.46-2.72-.51-5.4-.46-8.52,1.74-.45,3.36-.47,5.4-.47,.45,2.71,.48,5.41,.49,8.56Z"/><path class="cls-1" d="M192.29,109.32c1.7,.11,3.53,.54,5.62,1.21-.11,4.1-.12,7.93,1.27,12.08-.34,.39-.75,.37-1.46,.35-1-4.8-2.87-9.16-5.42-13.64Z"/><path class="cls-10" d="M116.96,65.05c1.59-1.75,3.34-2.18,5.24-2.19,3.51-.01,7.03-.12,10.53,.05,1.44,.07,2.88,.68,4.24,1.24,.49,.2,.77,.94,1.22,1.54-1.55,1.61-3.28,2.03-5.13,2.05-4.01,.04-8.03,.1-12.03-.04-1.28-.04-2.56-.62-3.79-1.09-.28-.11-.33-.8-.28-1.56Z"/><path class="cls-5" d="M106.32,15.26c-.33-.11-.63-.3-.72-.56-.09-.25,.03-.58,.05-.88,.3,.2,.6,.4,.98,.86,.08,.26-.18,.47-.31,.58Z"/><path class="cls-2" d="M155.88,387.78c-.93-.16-1.56-.34-1.92-.76-.16-.18,.12-1,.43-1.28,1.43-1.29,3.21-1.79,5.09-1.83,3.52-.07,7.05-.11,10.57-.08,1.89,.02,3.66,.57,5.01,1.97,.27,.28,.4,.99,.24,1.33-.16,.34-.88,.77-1.16,.66-4.06-1.51-8.28-.97-12.44-.95-1.81,0-3.62,.53-5.82,.93Z"/><path class="cls-2" d="M84.02,384.23c4.73-.2,9.05-.31,13.37-.3,1.86,0,3.64,.53,5.03,1.86,.3,.29,.51,.92,.4,1.3-.09,.34-.64,.61-1.05,.78-.28,.11-.69,.09-.97-.04-2.85-1.25-5.87-1.05-8.86-1.02-2.98,.03-5.99-.33-8.87,.93-.4,.18-1.41-.24-1.61-.64-.2-.41,.1-1.27,.46-1.7,.39-.48,1.1-.7,2.09-1.17Z"/><path class="cls-2" d="M85.24,379.96c5.58-1.92,11.3-1.11,16.96-1.01,.97,.02,1.95,.45,2.88,.81,1.48,.57,2.41,1.87,1.85,2.5-.81,.94-1.77,.37-2.75,.2-5.63-.95-11.27-1.44-16.87,.28-1.19,.37-1.51,.04-1.99-2.38-.02-.4-.13-.46-.09-.41Z"/><path class="cls-27" d="M132.11,131.02c-1.38,6.76-3.12,13.5-5.01,20.83-1.27-3.11-2.23-5.67-2.71-8.48-.5-2.94-1-6.04-2.35-8.62-.98-1.87-.62-3.41-.48-5.51,.13-.37,.34-.27,.34-.27,.95-.16,1.91-.32,3.03-.51-.14,1.75-.26,3.3-.45,5.81,1.03-1.12,1.55-1.47,1.76-1.96,.37-.87,.2-2.08,1.94-2.21,.33-.04,.34-.1,.34-.1,.73,1.45,2.12,.74,3.59,1.01Z"/><path class="cls-27" d="M124.47,114.97c.68-.67,1.3-1.44,2.08-1.94,.22-.14,1.39,.54,1.37,.77-.16,1.59-.51,3.16-.82,4.83-2.16,.08-1.96-1.78-2.58-3.31-.04-.36-.05-.35-.05-.35Z"/><path class="cls-19" d="M131.65,118.27c-.05,1.19-.21,2.3-1.66,2.6-.21-.24-.59-.48-.58-.7,.1-1.6,.27-3.2,.46-5.2,.64,.52,1.09,.88,1.63,1.93,.11,.91,.13,1.14,.15,1.37Z"/><path class="cls-27" d="M124.48,114.96c-1.53-.88-3.07-1.77-4.61-2.64,.24-1.5,1.17-1.4,2.17-.97,1.27,.55,2.1,1.53,2.42,3.26,0,.36,.01,.35,.02,.35Z"/><path class="cls-27" d="M122.39,118.99c.61,.1,1.23,.2,2.1,.34-.51,1.56-.94,2.85-1.41,4.29-2.24-1.28-.96-2.7-.67-4.31,.04-.31-.02-.32-.02-.32Z"/><path class="cls-3" d="M136.31,112.07c.42,.68,.49,1.28,.4,2.07-1.32-.32-2.64-.56-3.68-2.03,1.16-.05,2.05-.08,3.28-.04Z"/><path class="cls-3" d="M119.55,120.17c-.53-.19-.81-.65-1.06-1.38,1.16-.85,2.31-1.19,3.7-.11,.2,.3,.26,.31,.26,.28-.88,.29-1.76,.62-2.9,1.21Z"/><path class="cls-3" d="M134.19,121.33c.08,.73-.15,1.4-.72,2.4-.52,.34-.69,.35-.97,.25-.1-.12-.28-.36-.28-.36,.2-1.03,.28-2.15,1.97-2.28Z"/><path class="cls-3" d="M131.95,118.11c-.32-.07-.34-.3-.37-.89,1.07-.3,2.14-.24,3.62-.13,.37,.43,.34,.8,.27,1.45-1.1-.01-2.16-.3-3.52-.43Z"/><path class="cls-3" d="M122.1,128.67c-.2,.31-.41,.21-.53,.21-.12,0-.33-.3-.41-.46,.19-1.04,.46-1.91,.73-2.79,.14,.02,.27,.03,.41,.05,0,.9,0,1.79-.2,3Z"/><path class="cls-3" d="M125.76,123.04c.44,.63,.65,1.46,.94,2.65-1.75-.64-1.29-1.61-.94-2.65Z"/><path class="cls-3" d="M130.85,126.84c.31-.09,.52,.04,.5,.13-.09,.54-.24,1.06-.37,1.6-.12-.51-.23-1.02-.14-1.73Z"/><path class="cls-3" d="M132.56,125.04c-.7-.09-1.42-.18-2.69-.34,.99-.5,1.41-.71,2.09-1,.26-.08,.44,.16,.5,.52,.06,.36,.08,.85,.08,.85,0,0,0-.02,.02-.02Z"/><path class="cls-3" d="M127.87,126.45c.1-.06,.16,.16,.16,.16,0,0-.25-.1-.16-.16Z"/><path class="cls-3" d="M128.54,130.06c.09-.07,.16-.13,.1-.12-.12,.07-.13,.13-.1,.12Z"/><path class="cls-5" d="M132.82,124.97c-.27,.08-.3-.4-.26-.64,.22-.25,.39-.26,.83-.35,.07,.26-.11,.58-.57,.99Z"/><path class="cls-4" d="M119.7,212.09c-.2-3.05-.2-5.69-.2-8.53,.9-.28,1.64-.7,2.4-.71,3.66-.08,7.33-.1,10.99-.03,2.65,.05,3.33,.72,3.45,3.18,.08,1.5,.07,3,0,4.5-.11,2.03-.8,2.87-2.67,2.91-3.99,.08-7.99,.02-11.99-.08-.59-.01-1.18-.54-1.97-1.24Z"/></svg>