<?xml version="1.0" encoding="utf-8"?>
<!-- Generator: Adobe Illustrator 26.5.0, SVG Export Plug-In . SVG Version: 6.00 Build 0)  -->
<svg version="1.1" id="Layer_1" xmlns="http://www.w3.org/2000/svg" xmlns:xlink="http://www.w3.org/1999/xlink" x="0px" y="0px"
	 viewBox="0 0 500 512" style="enable-background:new 0 0 500 512;" xml:space="preserve">
<style type="text/css">
	.st0{fill:#70D65B;}
	.st1{fill:#58B741;}
	.st2{fill:#FFE239;}
	.st3{fill:#FFB93B;}
	.st4{fill:#8D541F;}
	.st5{fill:#AD7136;}
	.st6{fill:#8C541F;}
	.st7{fill:#FFE338;}
	.st8{fill:#FFE238;}
	.st9{fill:#8E5620;}
	.st10{fill:#FFE139;}
	.st11{fill:#384649;}
	.st12{fill:#FEE139;}
	.st13{fill:#FEB73B;}
	.st14{fill:#674D85;}
	.st15{fill:#664C86;}
	.st16{fill:#674D86;}
</style>
<path class="st0" d="M385.1,471.1c10.4,0.3,20.8,0.3,31.2,1.1c10.8,0.8,17,9.6,17.6,19.6c0.4,6.4,0.1,12.9,0.1,19.9
	c-97.7,0.5-195.4,0.5-293.5,0c-0.5-4.9-0.3-9.4-0.5-13.9c-0.4-12.2,4.1-21.2,16.5-25.6c7.8-0.1,15.1-0.2,22.9-0.3
	c35.1,0,69.8,0,104.9,0c15.9,0,31.3,0,47.2,0c16.7,0.1,33,0.1,49.3,0.1C382.2,471.9,383.7,471.4,385.1,471.1z"/>
<path class="st1" d="M156,472.2c-12,4.3-16.5,13.3-16,25.5c0.2,4.5,0,8.9,0,13.9c-23.4,0.5-46.7,0.5-70.5,0.5
	c-0.5-6.5-0.5-12.9-0.5-19.4c0-11.4,6.8-19.5,18.2-20.5c9.8-0.9,19.8-0.7,30.5-0.8C130.9,471.8,143.5,472,156,472.2z"/>
<path class="st2" d="M365.5,0c1.5,1,2.6,2,3.9,3.4c-10.1,10.7-20.4,21-30.7,31.4c-1.9,1.9-3.6,3-5.8,0.6c-5.6-5.9-11.3-11.7-17-17.5
	c6.2-8.2,14.7-13.1,23.4-17.6C347.7,0,356.3,0,365.5,0z"/>
<path class="st3" d="M44.1,92c1.9-3.1,3.8-6.2,6.2-9.6c1.9,0.9,3.4,1.9,4.7,3.2c9.7,9.6,19.3,19.2,28.9,28.9
	c2.2,2.2,3.7,2.8,6.1,0.2c3.6-3.9,7.6-7.4,11.1-11.4c0.8-0.9,0.9-3.6,0.1-4.4c-11.3-11.4-22.8-22.7-34.3-34c2.5-2.6,4.9-5.1,8-7.7
	c1.9,1.3,3.3,2.5,4.6,3.8c9.5,9.5,19,19,28.5,28.5c1.9,1.9,3.6,3.6,6.2,0.9c5.6-5.9,11.3-11.6,16.9-17.5c2.9,2.8,5.8,5.6,8.6,8.9
	c-5.7,6-11.3,11.5-16.9,16.9c-1.9,1.9-2,3.6-0.1,5.5c9.4,9.4,18.8,18.9,28.4,28.1c0.9,0.9,4,0.9,4.9,0c5.9-5.6,11.5-11.5,17.1-17.4
	c0.4,0.3,0.9,0.7,1.6,1.5c2.4,2.8,4.4,5.1,6.2,7.7c-5.8,5.6-11.5,11-16.8,16.6c-0.8,0.8-1,3.6-0.2,4.4c11.3,11.4,22.7,22.7,34,34.2
	c-1,1.4-1.9,2.5-3.1,3.8c-2.1,1.7-3.9,3.3-5.7,4.5c-11.2-11.7-22.4-23.2-33.6-34.5c-0.6-0.6-3.1-0.5-3.8,0.2c-4.2,3.8-8.2,7.8-12,12
	c-0.8,0.9-0.7,3.7,0.1,4.6c11.1,11.2,22.4,22.3,33.5,33.7c-3.8,2.4-7.4,4.5-11.2,6.3c-8.5-8.7-16.7-17.1-25.1-25.5
	c-8.3-8.4-8.3-8.3-16.8,0c-3.9,3.8-8.1,7.1-12.2,10.7c-2.2-2.1-4.4-4.2-6.6-6.9c5.4-6.1,10.6-11.7,16.2-17c2.6-2.5,2.4-4.1-0.1-6.5
	c-9.1-8.8-18.1-17.7-26.8-26.9c-2.9-3-4.6-2.5-7.2,0.2c-5.3,5.5-11,10.7-16.5,16c-2.5-2.4-5.1-4.8-7.6-7.9
	c5.5-6.2,10.9-11.8,16.5-17.3c1.8-1.8,2.6-3.2,0.4-5.3C65.4,113.1,54.8,102.5,44.1,92 M110,140.5c5.3,5.3,10.7,10.5,15.9,15.9
	c2.1,2.2,3.7,2.8,6.1,0.2c3.5-3.8,7.2-7.4,10.9-11c2-1.9,2.1-3.3,0.1-5.3c-9.5-9.3-18.9-18.8-28.2-28.2c-2-2-3.4-2.1-5.4,0
	c-3.5,3.7-7.2,7.4-11,10.9c-2.5,2.3-2.2,3.9,0.1,6.1C102.3,132.6,105.8,136.4,110,140.5z"/>
<path class="st3" d="M114.9,329.9c2.5-2.6,4.9-5.2,7.8-7.6c5.8,5.6,11.2,11,16.6,16.5c1.6,1.7,3,2.4,5,0.4
	c9.6-9.7,19.3-19.3,28.8-29c0.8-0.8,0.8-3.6,0-4.4c-5.5-5.8-11.3-11.2-16.9-17.1c3-3.1,5.9-5.8,8.9-8.3c4.9,5.1,9.9,9.8,14.4,14.9
	c3.1,3.5,5.2,3.7,8.6,0.2c10.4-10.7,21.2-21,32.2-31.4c2.7,2.7,5.2,5.2,7.5,8.1c-10.5,10.7-20.6,21.3-31.2,31.4
	c-3.8,3.7-3.6,5.9,0.2,9c3.1,2.5,5.9,5.4,8.5,8.5c2.6,3,4.4,3,7.2,0.1c9.4-9.7,19-19.1,28.5-28.7c1.2-1.2,2-2.9,3.3-4.2
	c2.5,4,4.7,7.8,6.5,11.7c-0.8,0.3-1.4,0.4-1.7,0.7c-9.9,9.8-19.8,19.6-29.7,29.4c-2.4,2.4-1,4,0.8,5.8c5.3,5.4,10.6,11,15.7,16.8
	c-2.6,2.7-5.2,5.1-8,7.3c-5.5-5.3-10.9-10.3-15.9-15.5c-2.6-2.6-4.4-2.6-7,0c-8.7,8.9-17.5,17.7-26.4,26.4c-2.8,2.7-2.8,4.6,0,7.4
	c5.3,5.2,10.4,10.7,15.4,16.4c-2.7,2.7-5.3,5.2-8,7.3c-5.7-5.8-11.2-11.4-16.6-17c-1.8-1.9-3.2-1.7-5,0.1
	c-10.4,10.7-20.9,21.2-31.8,31.9c-3.1-1.4-5.8-2.7-8.5-4c-0.4-0.4-0.8-0.8-1.1-1.8c0.8-1.4,1.6-2.3,2.4-3.2
	c9.9-9.9,19.6-19.8,29.7-29.6c3-2.9,3.1-5,0-7.7c-3.5-3.1-6.5-6.7-10-9.7c-1.1-0.9-4.1-1.3-4.9-0.5c-11.6,11.4-23,23.1-34.4,34.6
	c-2.9-2.8-5.9-5.6-8.6-8.9c11.3-11.5,22.5-22.7,33.7-33.7c2.4-2.3,1.9-4.1-0.2-6.2C125.4,340.9,120.2,335.4,114.9,329.9 M196.5,329
	c-3.3-3.3-6.7-6.5-9.9-9.9c-1.9-2.1-3.4-1.9-5.4,0c-9.4,9.5-18.8,18.9-28.2,28.2c-2.1,2-1.9,3.5,0.1,5.4c3.6,3.4,7.2,6.9,10.6,10.6
	c2.3,2.5,3.9,2.7,6.4,0.1c8.9-9.2,18-18.3,27.2-27.2C200.2,333.5,199.7,331.6,196.5,329z"/>
<path class="st3" d="M315.6,18c6,5.7,11.7,11.5,17.3,17.3c2.3,2.4,4,1.3,5.8-0.6c10.3-10.4,20.6-20.7,31.1-31.3
	c3.5,1.8,6.7,3.8,9.8,6.3c-11.3,11.5-22.3,22.6-33.5,33.5c-2.3,2.3-1.8,3.8,0.3,5.7c3.5,3.3,7,6.7,10.2,10.2c2.8,3.1,4.8,2.9,7.7,0
	c9.5-9.8,19.2-19.4,28.9-29c1.4-1.3,3.2-2.2,4.8-3.3c2.2,2.1,4.5,4.2,6.7,6.9c-11,11.7-21.9,22.8-33,33.7c-2.7,2.6-2.6,4.2,0,6.8
	c5.6,5.4,10.8,11.1,16.2,16.7c-2.1,2.2-4.2,4.5-7,6.7c-7.3-6.1-13.9-12.2-19.7-17.5c-11.3,11-22.4,21.8-33.5,32.7
	c6,6.3,12.1,12.8,18,19.5c-3.1,3-5.9,5.7-8.9,8.1c-6-6.7-12-13.1-17.3-18.8c-12.6,12.1-24.7,23.6-37.1,35.1
	c-3.1-3.1-5.9-5.9-8.4-8.9c11.7-11.2,23.2-22.3,34.4-33.5c0.6-0.6,0.3-2.9-0.4-3.7c-3.9-4.3-8-8.5-12.4-12.3c-0.9-0.8-4-0.7-4.9,0.2
	c-11.1,10.9-22,22.1-33.3,33c-2.4-3.7-4.4-7.3-6.2-10.9c0.8-0.3,1.3-0.4,1.6-0.7c10-9.9,20-19.9,30-29.8c2.3-2.3,1-3.6-0.6-5.3
	c-5.6-5.7-11.1-11.4-16.6-17.1c2.4-2.6,4.9-5.1,7.9-7.6c6.1,5.4,11.6,10.7,16.9,16.2c2.5,2.6,4.1,2.3,6.5-0.1
	c8.8-9.1,17.7-18.1,26.9-26.8c3-2.9,2.6-4.6-0.2-7.2c-5.5-5.3-10.7-10.9-16-16.4C310.4,23.3,312.8,20.7,315.6,18 M303.2,88.2
	c4.5,4.7,9,9.3,13.4,14c1.9,2.1,3.3,1.3,5-0.4c9.4-9.4,18.7-18.9,28.2-28.2c2.3-2.3,1.8-3.8-0.3-5.7c-3.6-3.4-7.2-6.9-10.6-10.6
	c-2.5-2.7-4.4-2.6-7,0c-8.8,9-17.8,17.9-26.7,26.8C304.4,85.2,303.8,86.4,303.2,88.2z"/>
<path class="st4" d="M165,280.1c-2.9,2.8-5.8,5.5-9,8.8c-6.9,6.8-13.3,13-19.8,19.2c0.7-7.5,1.2-15,2.1-22.5
	c1.1-10.1,2.5-20.2,3.7-30.3c1.3-10.7,2.6-21.5,3.8-32.2c0.3-2.8,0.5-5.5,1.3-8.8c5.4-1.7,10.2-3,15-4.2c3.6-2.1,7.2-4.2,11.3-6.7
	c5.5-5.5,10.6-10.5,15.6-15.5c1.8-1.6,3.6-3.1,5.7-4.4c-1.1,23.7-2.4,47-3.9,70.7C182,263,173.5,271.6,165,280.1z"/>
<path class="st5" d="M251.2,121c2.1,3.6,4.1,7.1,6.7,11.1c5.7,5.6,10.9,10.8,16.1,16c2.8,2.9,5.6,5.8,8.9,9.1c1.1,1.2,1.7,2,2,2.9
	c-7.8,7.8-15.4,15.4-23.4,23c-7.4-1.8-14.4-2.1-21.3,0.4c-7.7-8.1-15.3-15.8-23.1-23.9c-7.1-7.4-14.1-14.5-20.7-21.8
	c0.8-2.1,1.5-3.9,1.7-5.8c0.5-5.3,0.8-10.6,1.1-15.9c16.3,0,32.6-0.1,49.7,0.1C250,118,250.6,119.5,251.2,121z"/>
<path class="st6" d="M124.1,413.3c2.8,0.9,5.5,2.2,8.9,3.8c19,7.3,34.9,3.2,49.1-9.8c0.4,0.8,0.7,1.2,0.6,1.7
	c-1.3,20.9-2.5,41.9-3.8,62.8c-7.3,0.1-14.7,0.2-22.5,0.3c-13-0.1-25.5-0.3-38.4-0.7C119.8,452,121.9,432.8,124.1,413.3z"/>
<path class="st2" d="M130.9,72.6c-5.5,6.1-11.2,11.9-16.8,17.8c-2.6,2.7-4.3,1-6.2-0.9c-9.5-9.5-19-19-28.5-28.5
	c-1.3-1.3-2.7-2.5-4.3-3.9c6.6-6.6,13.4-13.1,20.7-20C107.2,48.5,119,60.4,130.9,72.6z"/>
<path class="st2" d="M114.6,330c5.6,5.3,10.8,10.9,16.2,16.3c2.2,2.2,2.6,3.9,0.2,6.2c-11.2,11-22.4,22.1-33.8,33.4
	c-6.4-6.3-12.6-12.8-19-19.6C89.9,354.5,102.1,342.4,114.6,330z"/>
<path class="st7" d="M67,154.3c5.4-5.6,11-10.8,16.3-16.3c2.6-2.7,4.3-3.2,7.2-0.2c8.8,9.1,17.8,18,26.8,26.9c2.5,2.4,2.7,4,0.1,6.5
	c-5.5,5.3-10.8,10.9-16.3,16.7C89.7,177,78.4,165.8,67,154.3z"/>
<path class="st2" d="M307.6,26c5.6,5.4,10.8,11,16.3,16.3c2.7,2.6,3.1,4.3,0.2,7.2c-9.1,8.8-18,17.8-26.9,26.8
	c-2.4,2.4-4,2.7-6.5,0.1c-5.3-5.5-10.9-10.8-16.6-16.3C285,48.7,296.1,37.4,307.6,26z"/>
<path class="st2" d="M172.9,114.6c-5.5,6.1-11.1,12.1-17,17.7c-0.9,0.8-4,0.8-4.9,0c-9.6-9.2-18.9-18.7-28.4-28.1
	c-2-2-1.9-3.6,0.1-5.5c5.6-5.4,11.1-11,17-16.6C151,92.7,161.9,103.5,172.9,114.6z"/>
<path class="st2" d="M136,308.5c6.7-6.5,13.1-12.8,19.9-19.2c6,5.3,11.8,10.8,17.3,16.6c0.8,0.8,0.7,3.6,0,4.4
	c-9.5,9.8-19.2,19.4-28.8,29c-2,2-3.4,1.2-5-0.4c-5.3-5.5-10.7-10.9-16.3-16.7C127.2,317.5,131.5,313.1,136,308.5z"/>
<path class="st2" d="M106,395.4c11.3-11.9,22.6-23.5,34.2-35c0.8-0.8,3.8-0.4,4.9,0.5c3.5,3,6.5,6.6,10,9.7c3.1,2.7,3,4.8,0,7.7
	c-10,9.7-19.8,19.7-29.7,29.6c-0.8,0.8-1.6,1.7-2.5,2.9C117.3,406,111.8,400.8,106,395.4z"/>
<path class="st2" d="M66.6,65c11.8,11.2,23.3,22.4,34.6,33.9c0.7,0.7,0.6,3.5-0.1,4.4c-3.5,4-7.5,7.5-11.1,11.4
	c-2.3,2.5-3.9,2-6.1-0.2c-9.5-9.7-19.2-19.3-28.9-28.9c-1.3-1.3-2.8-2.3-4.5-3.5C55.5,76.4,60.9,70.8,66.6,65z"/>
<path class="st2" d="M251.5,120.9c-0.9-1.4-1.5-2.9-2.4-4.7c-4-13.6-1.4-25.9,6.3-37.1c2.8-4,6.6-7.4,10.2-11.2
	c5.8,5.6,11.4,11.3,16.9,17c1.7,1.7,2.9,3.1,0.6,5.3c-10.1,9.9-20,19.9-30,29.8C252.8,120.5,252.3,120.6,251.5,120.9z"/>
<path class="st8" d="M161.9,209.8c-4.6,1.6-9.4,2.8-14.6,4.2c-16.7,1.1-28.6-7.3-39.3-18.7c4-3.9,8.2-7.2,12.1-11
	c8.5-8.3,8.5-8.4,16.8,0C145.2,192.7,153.5,201.1,161.9,209.8z"/>
<path class="st2" d="M44,92.4c10.8,10.2,21.4,20.7,32.1,31.2c2.2,2.1,1.4,3.6-0.4,5.3c-5.5,5.5-11,11.1-16.6,17
	c-8.3-7.2-15.5-15.4-17.4-26.7C40.2,110.3,39.9,101.3,44,92.4z"/>
<path class="st9" d="M198.5,116.1c0.1,5.4-0.2,10.7-0.6,15.9c-0.2,1.9-0.9,3.7-1.9,5.6c-5.3-4.6-10.1-9.2-14.8-13.8
	c-2-2.3-4.1-4.7-6.2-7.4C182.6,116.1,190.3,116.1,198.5,116.1z"/>
<path class="st5" d="M179.4,471.8c0.8-21,2.1-41.9,3.4-62.9c0-0.5-0.3-0.9-0.5-2c1.2-2,2.5-3.4,3.8-4.8c2.6-2.4,5.1-4.9,8.1-7.8
	c11.6-11.8,22.8-23,34-34.3c2.5-2.4,5.1-4.8,8-7.7c3-3.1,5.7-5.6,8.1-8.3c10.6-11.9,13.5-30.5,6.8-44.3c-2.2-3.8-4.4-7.6-7.1-11.9
	c-5.7-5.6-10.9-10.8-16.1-16c-2.5-2.5-4.9-5.1-7.8-8.1c-1.1-1.3-1.7-2.1-2.2-3.2c7.8-7.8,15.5-15.3,23.5-22.8c7,0,13.5,0,20.4,0.2
	c4.7,4.4,8.9,8.7,13.4,12.9c3.4,3.2,7,6.3,10.6,9.7c12,12.4,24,24.5,36.1,36.9c2.7,2.7,5.2,5.2,8,7.9c11.4,11.4,22.6,22.6,34,34
	c2.4,2.4,4.6,4.5,6.8,6.9c0.1,0.7,0.1,1.2,0.1,1.9c0.4,0.8,0.8,1.2,1.2,1.5c-0.1-0.1,0.2-0.2,0.2-0.2c0.2,5.8,0.2,11.5,0.8,17.2
	c1.1,11.1,2.5,22.2,3.9,33.3c1.6,13,3.3,26.1,4.8,39.1c1.2,10.3,2.1,20.6,3.2,31.4c-1.4,0.7-2.8,1.3-4.2,1.3
	c-16.3,0-32.6,0-49.3-0.5c-0.5-21.7-1.1-42.9-0.2-64c0.8-19.4-7.9-27.8-26.8-26.7c-13,0.8-20.6,7.9-20.7,21.1c0,23.3,0,46.7,0,70
	C249.2,471.8,214.5,471.9,179.4,471.8z"/>
<path class="st3" d="M329.8,305.2c-2.5-2.5-5.1-4.9-7.6-8c5.2-5.9,10.4-11.3,15.7-16.6c2-2,2.5-3.7,0.2-5.9
	c-11.2-10.9-22.3-21.9-33.3-33.2c2.7-2.7,5.2-5.2,8.1-7.5c11.1,10.8,21.9,21.4,32.6,32.2c2.6,2.6,4.3,2.9,6.8,0
	c2.7-3.1,5.6-6.2,8.8-8.8c4.2-3.3,3.5-5.5-0.1-9c-10.6-10.3-20.8-21-31-31.9c3.7-2.3,7.3-4.4,10.9-6.1c1.2,1.7,2.2,3.3,3.5,4.5
	c7.7,7.8,15.4,15.6,23.3,23.3c7.2,7.1,5.1,7,12.4,0.2c4.5-4.3,9.3-8.3,13.9-12.5c2.1,2,4.2,3.9,6.5,6.4c-4.7,5.8-9.6,11.2-14.8,16.3
	c-2.9,2.8-3.1,4.8-0.1,7.7c8.1,7.8,16,16,24,23.9c7.2,7.1,5.1,7,12.3,0.2c4.5-4.3,9.3-8.3,14-12.5c2.1,2,4.2,3.9,6.5,6.4
	c-5.8,7-11.9,13.5-19.1,21.2c1.7,1.1,3.5,2,4.9,3.4c9.9,10,19.8,20.1,29.7,30.1c-1.8,3.2-3.5,6.4-5.9,9.6
	c-12.6-11.8-24.5-23.6-36.1-35.1c-5.5,5.6-10.8,10.9-17.1,17.4c1.4,0.9,3.4,1.9,4.9,3.4c10.5,10.5,20.8,21.1,31.2,31.7
	c-2.4,2.6-4.9,5.1-7.8,7.6c-10.1-9.9-19.7-19.5-29.3-29.2c-6.9-7-6.8-6.8-13.8-0.2c-4.3,4.1-8.8,7.9-13.3,11.8
	c-2.2-2.1-4.4-4.2-6.6-6.9c5.2-6,10.5-11.3,15.8-16.6c1.7-1.8,2.6-3.4,0.5-5.5c-9.8-9.8-19.5-19.6-29.4-29.2c-0.7-0.7-3.3-0.7-4,0
	C341.1,293.4,335.5,299.3,329.8,305.2 M390.6,310.6c5.1-4.7,10.2-9.3,15.1-14.1c0.5-0.5,0.1-2.9-0.6-3.7c-9.5-9.7-19.2-19.3-28.8-29
	c-1.9-1.9-3.6-2.1-5.5-0.1c-3.6,3.7-7.2,7.3-10.9,10.9c-2.2,2.1-2,3.8,0.1,5.9C370,290.4,380,300.4,390.6,310.6z"/>
<path class="st5" d="M312.6,233.9c-2.5,2.4-5.1,4.9-8,7.8c-1.2,1.1-2,1.7-3.1,2.2c-7.7-7.9-15.2-15.5-22.7-23.6c0-7,0-13.5,0.2-20.4
	c2.5-2.8,5-5.2,7.3-7.8c5-5.3,10.1-10.7,15.4-16.2c12-11.7,23.7-23.3,35.4-34.9c2.9-2.7,5.7-5.5,9.1-8.5c0.4-0.3,0.9-0.3,0.9-0.3
	c0.6,7.2,1.2,14.4,2,21.6c0.8,7.2,2,14.3,2.8,21.4c1.1,10,2.1,19.9,2.9,30.6c-4.7,1.9-9.3,3.1-13.8,4.3c-3.6,2-7.1,4.1-11.2,6.6
	C323.8,222.7,318.2,228.3,312.6,233.9z"/>
<path class="st2" d="M388.3,91c-5.7-5.5-11-11.2-16.5-16.6c-2.7-2.6-2.7-4.2,0-6.8c11.1-10.9,22-22.1,33.1-33.4
	c6.6,6.6,13.1,13.4,19.9,20.6C413.1,66.5,400.8,78.7,388.3,91z"/>
<path class="st2" d="M370.9,346.4c4.4-4.2,9-8,13.2-12.1c6.9-6.7,6.9-6.8,13.8,0.2c9.6,9.7,19.2,19.4,29,29.3
	c-6.6,6.7-13.3,13-20.5,19.8c-10.7-10.9-22-22.4-33.7-33.9c-0.3,0-0.6,0.1-0.3-0.1c-0.3-0.6-0.8-1.1-1.4-1.5
	C371,347.6,370.9,347.1,370.9,346.4z"/>
<path class="st8" d="M436,267.6c-4.6,4.5-9.4,8.5-13.9,12.8c-7.3,6.9-5.1,7-12.3-0.2c-8-7.9-15.9-16.1-24-23.9
	c-3-2.9-2.8-4.9,0.1-7.7c5.2-5.1,10-10.5,15.1-16.1c7.5,6.8,15,13.9,22.3,21.2C427.5,258.1,431.7,262.7,436,267.6z"/>
<path class="st2" d="M347.3,132c-0.3,0.2-0.8,0.2-1,0.2c-6.4-6.4-12.5-12.9-18.5-19.2c11.1-10.9,22.2-21.7,33.5-32.7
	c5.8,5.3,12.4,11.4,19.4,17.6C369.9,109.3,358.8,120.6,347.3,132z"/>
<path class="st10" d="M397.9,26.6c-1.5,1.4-3.3,2.3-4.7,3.6c-9.7,9.6-19.4,19.2-28.9,29c-2.9,2.9-4.9,3.2-7.7,0
	c-3.2-3.6-6.7-6.9-10.2-10.2c-2.1-1.9-2.6-3.4-0.3-5.7c11.2-10.9,22.2-22,33.6-33.2C386,15.4,391.9,20.9,397.9,26.6z"/>
<path class="st2" d="M435.3,356c-10.7-10.4-21-21-31.5-31.5c-1.5-1.5-3.6-2.5-4.9-3.4c6.3-6.4,11.5-11.7,17.1-17.4
	c11.6,11.5,23.6,23.3,35.8,35.2C446.6,344.6,441.1,350.2,435.3,356z"/>
<path class="st2" d="M458.3,328.9c-10.2-9.9-20.1-20-30-30c-1.4-1.4-3.2-2.3-4.9-3.4c7.2-7.7,13.3-14.3,19.4-21.1
	C460,287.9,466.9,308.2,458.3,328.9z"/>
<path class="st8" d="M341,210.5c4.5-1.5,9-2.7,13.7-4.2c16.2,0,29.3,6.3,39.2,19.3c-4.6,4.5-9.4,8.6-13.9,12.9
	c-7.2,6.9-5.1,6.9-12.4-0.2c-7.8-7.7-15.5-15.5-23.3-23.3C343.2,213.7,342.2,212.2,341,210.5z"/>
<path class="st11" d="M284.3,471.8c-0.5-23.4-0.5-46.7-0.5-70c0-13.2,7.6-20.3,20.7-21.1c18.9-1.1,27.6,7.3,26.8,26.7
	c-0.9,21.1-0.2,42.3-0.2,63.9C315.7,471.8,300.2,471.9,284.3,471.8z"/>
<path class="st5" d="M190.9,253.9c1.4-23.4,2.7-46.7,4.1-70.5c0.9-1.6,1.8-2.7,3.1-4.2c1.2-1.1,2-1.7,3-2.1
	c5.6,5.4,10.8,10.7,16.2,15.9c2.3,2.2,5,4.2,7.4,6.6c-3,7.3-2.2,14.3-0.9,21.6c-7.8,8-15.4,15.9-23.2,23.8
	C197.2,248,194,251,190.9,253.9z"/>
<path class="st12" d="M200.8,176.9c-0.8,0.6-1.6,1.2-2.6,2c-11.7-11.1-23.1-22.4-34.4-33.8c-0.7-0.7-0.6-3.5,0.2-4.4
	c5.4-5.6,11-11,16.8-16.6c5,4.4,9.8,9.1,14.8,13.9c7.2,7.3,14.2,14.4,21.1,22C211.4,165.9,206.1,171.4,200.8,176.9z"/>
<path class="st12" d="M188.9,187.6c-5,5.4-10,10.4-15.4,15.6c-11.6-11-22.9-22-34-33.3c-0.8-0.8-0.9-3.7-0.1-4.6
	c3.7-4.2,7.8-8.2,12-12c0.8-0.7,3.2-0.8,3.8-0.2C166.6,164.4,177.7,175.8,188.9,187.6z"/>
<path class="st2" d="M109.7,140.3c-3.9-3.9-7.5-7.6-11.2-11.2c-2.3-2.2-2.6-3.8-0.1-6.1c3.8-3.5,7.4-7.2,11-10.9
	c1.9-2.1,3.4-2,5.4,0c9.3,9.5,18.8,18.9,28.2,28.2c2,2,1.9,3.4-0.1,5.3c-3.7,3.5-7.5,7.2-10.9,11c-2.3,2.6-3.9,2-6.1-0.2
	C120.6,151,115.2,145.8,109.7,140.3z"/>
<path class="st2" d="M190.7,254.2c3.3-3.2,6.5-6.2,10.2-9.1c6,5.3,11.5,10.6,16.9,15.8c0.6,0.8,1.3,1.7,2.1,2.8
	c-10.5,10.7-21.3,21.1-31.7,31.8c-3.5,3.6-5.5,3.4-8.6-0.2c-4.5-5.1-9.5-9.8-14.4-14.9C173.5,271.6,182,263,190.7,254.2z"/>
<path class="st2" d="M227.9,359.9c-10.9,11.4-22.1,22.7-33.6,34.2c-5.4-5.2-10.5-10.7-15.8-15.9c-2.8-2.7-2.8-4.6,0-7.4
	c8.9-8.7,17.7-17.5,26.4-26.4c2.6-2.6,4.4-2.6,7,0C217.1,349.7,222.4,354.7,227.9,359.9z"/>
<path class="st2" d="M227.9,272.2c5.4,4.9,10.6,10,16,15.5c-0.8,1.8-1.6,3.5-2.9,4.7c-9.5,9.6-19.1,19-28.5,28.7
	c-2.8,2.9-4.6,2.9-7.2-0.1c-2.6-3-5.4-5.9-8.5-8.5c-3.8-3.1-4-5.3-0.2-9C207.3,293.5,217.4,282.9,227.9,272.2z"/>
<path class="st2" d="M196.7,329.2c3,2.4,3.5,4.2,0.6,7c-9.2,8.9-18.3,18-27.2,27.2c-2.5,2.6-4.1,2.4-6.4-0.1
	c-3.4-3.7-6.9-7.2-10.6-10.6c-2-1.9-2.2-3.3-0.1-5.4c9.5-9.3,18.9-18.8,28.2-28.2c1.9-2,3.4-2.1,5.4,0
	C189.8,322.5,193.2,325.7,196.7,329.2z"/>
<path class="st12" d="M186,401.9c-1.1,1.7-2.4,3.1-3.9,4.8c-14.1,13.6-30.1,17.6-48.7,10.4c10.2-10.8,20.7-21.4,31.1-32
	c1.8-1.8,3.1-2,5-0.1C174.8,390.5,180.3,396,186,401.9z"/>
<path class="st12" d="M250.9,299.9c7,13.8,4.1,32.3-6.5,44.2c-2.4,2.7-5.1,5.2-8,8c-5.6-5.3-10.8-10.8-16.1-16.3
	c-1.8-1.8-3.1-3.5-0.8-5.8c9.9-9.8,19.8-19.6,29.7-29.4C249.5,300.3,250,300.2,250.9,299.9z"/>
<path class="st12" d="M337,140.7c-11.6,11.9-23.3,23.5-35.5,34.9c-5.8-5.4-11.1-10.5-16.4-15.7c-0.6-0.8-1.2-1.5-2-2.6
	c11.9-11.8,24.1-23.4,36.7-35.5C325,127.6,331,133.9,337,140.7z"/>
<path class="st10" d="M274.2,148c-5.5-5.1-10.7-10.3-16.1-15.7c10.8-11.4,21.7-22.6,32.8-33.5c0.9-0.9,4-1,4.9-0.2
	c4.4,3.8,8.4,8,12.4,12.3c0.7,0.8,1,3.1,0.4,3.7C297.4,125.8,286,136.8,274.2,148z"/>
<path class="st10" d="M303.2,87.9c0.7-1.4,1.2-2.7,2.1-3.6c8.9-9,17.9-17.8,26.7-26.8c2.6-2.6,4.5-2.7,7,0
	c3.4,3.7,6.9,7.2,10.6,10.6c2.1,1.9,2.6,3.4,0.3,5.7c-9.5,9.3-18.8,18.7-28.2,28.2c-1.6,1.7-3,2.4-5,0.4
	C312.2,97.5,307.7,92.9,303.2,87.9z"/>
<path class="st13" d="M224.1,220.8c-1.5-7-2.4-14,0.8-21.7c3.4-7.4,8.4-12.3,15.2-15.3c6.9-2.8,13.8-2.6,21.5-0.5
	c8.5,3.5,13.2,9.8,17.2,16.8c0,6.5,0,13.1-0.3,20.3c-3.7,8.3-9.8,13.4-16.9,17.4c-6.5,0-13.1,0-20.3-0.3
	C233.1,233.9,227.8,228.2,224.1,220.8z"/>
<path class="st14" d="M279,199.8c-4.1-6.7-8.9-13-16.9-16.4c7.3-7.9,14.9-15.5,22.8-23.3c5.6,5,10.9,10.1,16.4,15.6
	c-4.8,5.7-9.8,11-14.9,16.4C283.9,194.6,281.5,197,279,199.8z"/>
<path class="st15" d="M240,183.5c-6.8,3.3-11.7,8.2-15.1,15.2c-2.6-1.7-5.3-3.7-7.6-5.9c-5.4-5.1-10.6-10.4-16.2-15.9
	c5-5.6,10.3-11.1,15.7-16.8C224.7,167.7,232.3,175.4,240,183.5z"/>
<path class="st2" d="M301.8,244c0.8-0.6,1.6-1.3,2.7-2c11.4,10.8,22.5,21.8,33.7,32.7c2.2,2.2,1.8,3.9-0.2,5.9
	c-5.3,5.3-10.5,10.7-15.9,16.3c-12.1-11.8-24.1-23.9-35.8-36.5C291.5,254.5,296.6,249.3,301.8,244z"/>
<path class="st10" d="M330,305.4c5.5-6.1,11.1-12,17-17.7c0.7-0.7,3.3-0.7,4,0c9.9,9.6,19.6,19.5,29.4,29.2c2.1,2.1,1.2,3.7-0.5,5.5
	c-5.3,5.3-10.5,10.7-15.9,16.4C352.6,328,341.4,316.9,330,305.4z"/>
<path class="st14" d="M223.8,221c4,7.1,9.2,12.9,17.1,16.5c-7.4,7.8-15.1,15.3-22.9,23.1c-5.6-5-11.1-10.2-16.8-15.7
	C208.5,236.9,216,229.1,223.8,221z"/>
<path class="st16" d="M301.5,243.8c-4.9,5.4-10,10.7-15.4,16.2c-3.8-2.9-7.4-5.9-10.8-9.2c-4.4-4.2-8.7-8.5-13.4-12.9
	c6.8-4.2,12.9-9.3,16.6-17.2C286.3,228.3,293.8,236,301.5,243.8z"/>
<path d="M371,348.3c0.6,0.1,1.1,0.6,1.5,1.3C371.8,349.5,371.4,349.1,371,348.3z"/>
<path class="st2" d="M312.9,234c5.2-5.7,10.8-11.3,16.7-17c10.7,10.4,20.9,21.1,31.5,31.4c3.5,3.4,4.2,5.7,0.1,9
	c-3.2,2.6-6.1,5.7-8.8,8.8c-2.5,2.9-4.2,2.6-6.8,0C334.9,255.4,324,244.8,312.9,234z"/>
<path class="st2" d="M390.3,310.4c-10.3-10.1-20.3-20-30.4-29.9c-2.1-2.1-2.2-3.8-0.1-5.9c3.7-3.6,7.3-7.2,10.9-10.9
	c1.9-2,3.6-1.8,5.5,0.1c9.6,9.7,19.3,19.2,28.8,29c0.7,0.8,1.2,3.1,0.6,3.7C400.8,301.3,395.7,305.9,390.3,310.4z"/>
</svg>
