<?xml version="1.0" encoding="UTF-8"?><svg id="Laag_1" xmlns="http://www.w3.org/2000/svg" viewBox="0 0 254.54 500.02"><defs><style>.cls-1{fill:#806f5e;}.cls-2{fill:#fff;}.cls-3{fill:#516084;}.cls-4{fill:#6d4318;}.cls-5{fill:#9b7053;}.cls-6{fill:#b4b399;}.cls-7{fill:#676a3a;}.cls-8{fill:#a5a5a4;}.cls-9{fill:#edcbb2;}.cls-10{fill:#5482b7;}.cls-11{fill:#422f20;}.cls-12{fill:#4e4e2d;}.cls-13{fill:#cbb995;}.cls-14{fill:#3c494a;}.cls-15{fill:#5c5a35;}.cls-16{fill:#a5a4a4;}.cls-17{fill:#dbbf52;}.cls-18{fill:#cba33c;}.cls-19{fill:#828186;}.cls-20{fill:#ccb292;}.cls-21{fill:#797e42;}.cls-22{fill:#fde0cc;}.cls-23{fill:#ca8b45;}.cls-24{fill:#c29879;}</style></defs><rect class="cls-12" x="65.33" y="231.25" width="68.67" height="27.92"/><path class="cls-11" d="M110.35,245.91c4.14-.21,7.96-.03,12.16,.18,.24,1.72,.58,3.13,.59,4.54,0,2.04-.23,4.08-.36,5.99-6.84,1.21-19.38,1.33-28.36,.3-.2-1.09-.42-2.28-.64-4.04,5.42-2.57,10.85-4.57,16.61-6.97h0Z"/><rect class="cls-12" x="96.08" y="205.44" width="18.69" height="22.44"/><rect class="cls-21" x="59.16" y="251.42" width="32.35" height="50.24"/><rect class="cls-12" x="58.29" y="171.51" width="75.58" height="24.26" transform="translate(-105.97 137.5) rotate(-49.52)"/><rect class="cls-12" x="49.77" y="174.4" width="55.85" height="19.66" transform="translate(-122.21 180.66) rotate(-66.11)"/><path class="cls-21" d="M59.52,423.39c-.36-.49-.95-.94-1.04-1.47-.21-1.23-.24-2.49-.24-3.74,0-31.64,.03-63.28,.63-95.41,2.2-.12,3.8,.52,5.42,.57,4.6,.15,9.21,.13,13.81,.03,4.86-.11,7.63-2.93,7.69-7.89,.08-7.12,.04-14.23-.02-21.35,0-.98-.36-1.97-.6-3.15-4.59-.81-8.97-.26-13.26-.89,1.81-3.71,3.52-7.01,5.34-10.24,3.24-5.76,6.56-11.47,10.39-17.17,3.07,.02,5.6,0,8.4,.43,1.32,1.01,2.36,2.06,3.43,2.08,8.33,.14,16.66,.07,24.99,.1,1.98,0,3.03-1.09,4.16-2.74,2.62,.12,4.71,.24,6.79,.18,2.23-.06,4.56,.43,7.05-.86,.56-5.57,.08-11.18,.86-16.78,3.14-.02,5.73-.03,8.3,.55-.02,3.33-.14,6.06,0,8.79,.14,2.64-.81,5.46,1.24,8.27h12.39c.1,8.85,.21,17.7-.25,27.18-7.9,.64-15.24,.63-22.58,.7-1.4,.01-2.79,.36-3.85,.5-.4,.59-.61,.76-.61,.93-.12,8.38-.23,16.75-.32,25.13-.02,1.59,.82,2.8,1.99,3.77,1.82,1.5,3.85,2.5,6.29,2.49,3.36-.01,6.71-.07,10.07,.03,3.17,.09,6.26-.16,9.25-1.31,.09,1.46,.25,2.93,.25,4.39,.05,30.25,.1,60.49,.11,90.74,0,1.87-.27,3.74-.94,5.48-1.02-2.71-2.81-3.39-5.15-3.38-2.16,0-3.68,.97-4.34,2.96-.59,1.76-.84,3.63-1.28,5.45-.23,.98-.43,2.05-1.85,1.87-.63-2.43-1.22-4.85-1.88-7.24-.5-1.82-1.76-2.91-3.63-2.95-7.5-.14-15.03-.48-22.41,1.91-.25,1.15-.47,2.16-.68,3.17-2.41-.29-3.81-1.46-3.88-4.07-.06-2.31-.4-4.61-.49-6.92-.58-15.35-1.09-30.69-1.7-46.04-.7-17.65-1.47-35.31-2.22-52.96-.04-1.05-.1-2.11-.28-3.14-.36-1.99-1.68-3.29-3.24-3.32-1.54-.03-3,1.28-3.17,3.32-.38,4.4-.63,8.81-.81,13.22-.2,5.05-.23,10.1-.4,15.14-.8,23.76-1.63,47.51-2.44,71.27-.11,3.15-.14,6.31-.21,9.47-.03,1.58-.56,2.87-2.73,3.17-1-1.76-1.76-2.58-3.13-2.97-6.78-1.93-13.71-1.22-20.6-1.23-1.87,0-3.05,1.17-3.63,2.95-.32,.99-.67,1.98-1.07,2.95-.37,.88-.2,2.18-2.06,2.28-1.33-3.19-1.41-7.38-5.67-9.15-1.38,.42-2.96,.9-4.3,1.31-.73,1.41-1.31,2.5-1.88,3.6h0Z"/><path class="cls-22" d="M140.15,73.44c1.01,7.21-1.1,13.17-7.01,17.65-1.19,.9-1.97,2.17-2.12,4.35-.28,.55-.89,.64-1.36,.65-.86,.15-1.39,.16-1.63,.43-3.75,4.11-8.51,5.08-13.79,4.56-1.04-.1-2.1-.07-3.15,0-5.54,.32-10.92-.05-15.67-3.4-.48-.34-1.2-.32-2-.72-.55-.49-.91-.71-1.27-.93-.35-3.07-2.4-5.28-4.35-7.27-4.03-4.1-5.73-8.92-5.44-15.43,.38-6.69,.43-12.47,.45-18.73-.07-5.3-.15-10.12-.11-14.94,.02-1.88,.21-3.77,.47-5.63,.73-5.2,5.95-10.52,11.81-10.11,3.55,.24,7.12,0,10.68,.08,1.2,.03,2.39,.37,3.72,.6,.46,2.43,.88,4.63,1.37,7.23,1.63-.32,3.06-.42,4.35-.89,4.53-1.64,9.01-3.41,13.51-5.11,1.57-.59,3.12-1.26,4.73-1.7,4.01-1.09,6.46,.68,6.91,4.89,.09,.83,.06,1.67,.06,2.51-.03,7.96-.06,15.92-.14,24.48-.04,6.21-.03,11.83-.02,17.44h0Z"/><path class="cls-12" d="M5.89,187c.71-1.74,1.33-3.53,2.14-5.22,6.6-13.83,13.2-27.67,19.89-41.46,1.74-3.58,3.62-7.12,5.76-10.47,3.56-5.55,8.61-9.16,15.21-10.27,5.59-.94,11.2-1.73,17.43-2.14,9.39,14.92,18.5,29.17,28.19,43.33-2.06,2.48,1.16,3.51,.94,5.03-1.17,1.95-2.66,3.56-3.17,5.45-1.08,3.97-3.08,7.11-6.46,8.83-.13-4.96,.23-9.37-.24-13.37-1.75-1.82-3.48-2.42-5.45-2.42-4.21,0-8.42,0-12.62,0-2.21,0-4.12,.67-5.69,2.92,0,5.14-.09,10.6,.03,16.06,.1,4.59,2.89,7.27,7.53,7.46,1.68,.07,3.37,0,4.87,.4-3.79,5.08-7.62,9.58-11.84,13.75-.28,.28-.41,.7-1.06,1-2.18-.59-3.87-1.19-4.83-3.49,.61-18.47,.39-25.68-.97-29.14-1.44,1.33-2.81,2.57-4.15,3.85-4.83,4.6-9.66,9.21-15.01,13.77-2.13-.36-3.82-.45-5.32-1.03-7.34-2.87-14.68-5.43-22.71-2.91-.76,.24-1.64,.06-2.47,.08h0Z"/><path class="cls-12" d="M153.77,115.78c4.47,.97,9.22,1.7,13.35,2.94,15.19,4.55,23.36,11.38,24.68,20.06,2.07,13.61,3.74,27.23,5.54,40.85,.9,6.81,1.75,13.62,1.44,20.93-5.82-1.17-10.87-2.64-15.03-4.57-10.95-5.07-23.77-8.43-37.43-11.36-7.25-1.55-15.84-1.87-21.57-5.65-.65-5.75,1.52-10.98-1.78-16.48-14-.09-27.6-.18-40.64-.61,4.86-1.21,10.19-1.56,10.76-5,7.71-4.12,11.12-8.98,15.58-13.52,5.53-5.62,11.69-10.92,21.43-15.05,1.68-.71,3.23-1.56,4.42-2.48,5.13-3.97,11.92-7.13,19.26-10.05h0Z"/><path class="cls-3" d="M59.72,423.85c.37-1.55,.94-2.65,1.68-4.06,1.34-.41,2.91-.89,4.3-1.31,4.26,1.77,4.35,5.96,5.67,9.15,1.86-.1,1.7-1.41,2.06-2.28,.4-.96,.75-1.95,1.07-2.95,.58-1.78,1.76-2.96,3.63-2.95,6.89,.01,13.82-.69,20.6,1.23,1.37,.39,2.13,1.21,2.61,3.09,.06,10.76-.05,20.97-.11,31.17,0,.82-.03,1.78,.36,2.44,2.41,4.03,1.88,8.45,1.91,12.8,.02,2.5-.02,5-.6,8.08-1.75,.92-3.06,1.04-4.1,1.63-2.9,1.63-5.73,3.39-8.51,5.21-2.12,1.39-4.22,2.71-7.09,2.22-.51-.95-.87-1.48-1.1-2.06-3.79-9.63-14.9-14.78-24.76-11.92-.79,.23-1.65,.32-2.48,.36-2.65,.13-4.78,1.33-6.76,2.98-.95,.79-2.03,1.44-3.05,2.15-.2-4.19,2.15-7.07,5.11-9.53,2.08-1.73,4.3-3.3,6.56-4.8,2.84-1.88,4.22-4.17,3.96-7.81-.36-4.97-.06-10,.37-15.3,1.81,.75,3.54,.62,5.2-.39,5.69,0,10.81,.03,16.16,.4,1.77,1.09,3.06,.88,3.96-.66,.62-1.05,.35-2.05-.48-2.8-1.27-1.15-2.57-1.26-4.29,.29-5.71,.03-10.83,.02-16.14-.31-1.19-.77-2.15-1.13-2.39,.45,0-.03,.04-.04-.35-.15-.89,.13-1.38,.37-1.87,.62-.1-3.25-.15-6.51-.32-9.76-.08-1.59-.38-3.18-.79-5.22m22.79,37.88c1.83,1.06,3.13,.31,4.08-1.29,.72-1.21,.35-2.35-.58-3.33-1.13-1.19-1.69-1.15-5.33,.23-4.42,0-8.84-.02-13.26,0-1.49,0-2.98,.16-3.65,1.85,.67,1.7,2.16,1.83,3.66,1.84,4.84,.02,9.68,0,15.09,.69m-1.78-14.49c-5.99,.18-12.01-.51-17.92,.45-.38,3.2,.17,3.99,2.26,3.89,5.59-.25,11.18-.44,17.35,.06,1.78,1.07,3.13,.44,4.12-1.16,.74-1.2,.5-2.41-.5-3.32-.56-.51-1.4-1-2.11-.98-.69,.02-1.37,.69-3.21,1.05h0Z"/><path class="cls-3" d="M123.45,425.1c.21-1.61,.42-2.62,.67-3.77,7.38-2.39,14.91-2.05,22.41-1.91,1.87,.04,3.13,1.13,3.63,2.95,.66,2.4,1.25,4.82,1.88,7.24,1.42,.18,1.62-.89,1.85-1.87,.43-1.81,.69-3.68,1.28-5.45,.66-1.99,2.18-2.95,4.34-2.96,2.34,0,4.13,.67,4.72,3.75-.02,4.76-.13,9.03-.74,13.71-1.84,.17-3.15,.04-4.72,1.37-5.69,.08-10.78,.1-16.08-.22-1.26-.89-2.23-1.16-2.57,.4,0-.03,.06-.03-.34,.06-1,1.17-1.23,2.13,.37,2.47-.03,0-.03-.06,.02,.32,1.24,1.26,2.31,1.09,3.87-.09,5.51-.04,10.4-.01,15.55,.31,1.26,.41,2.28,.52,3.42,.84,.33,.49,.6,.67,.94,.73,.02,.72,.05,1.43-.38,2.64-1.8,.45-3.18,.28-4.85,1.48-5.51,.11-10.41,.17-15.63,0-1.87-1.29-3.05-.61-3.89,.71-.82,1.28-.46,3.01,.74,3.79,1.22,.8,2.3,.35,3.75-.67,5.56,.07,10.56,.13,15.86,.49,1.65,.39,3,.5,4.36,.6,.04,1.06,.08,2.13-.34,3.66-1.71,.85-2.97,1.22-4.84,1.61-5.47,.04-10.32,.07-15.52-.12-1.9-1.38-3.13-.78-4,.64-.73,1.19-.51,2.41,.54,3.4,1.14,1.07,2.21,.96,3.8-.18,5.81,.02,11.06,.04,16.57,.35,1.64,1.24,2.73,.13,3.93-.22,2.7,2.2,5.34,4.49,8.13,6.56,2.33,1.73,4.68,3.39,5.83,6.86-1.16,1.57-2.1,1.19-3.07,.72-7.18-3.52-14.39-3.32-21.86-.69-3.65,1.28-5.83,3.98-8.18,6.57-1.9,2.1-2.54,4.77-2.64,7.59-4.57-1.56-8.4-3.53-11.88-6.31-2.57-2.05-5.47-3.87-9.06-3.66-.07-4.82-.18-9.65-.18-14.47,0-1.24,.03-2.67,.62-3.68,2.02-3.5,1.72-7.27,1.73-11.03,0-7.98,0-15.96-.03-24.53h-.01Z"/><path class="cls-12" d="M151.63,245.04c-2.59,0-5.17,.02-8.9,.02-5.62,.03-10.09,.05-14.74-.44-.48-2.5-1.73-3.27-3.64-3.26-4.34,.03-8.68,.04-13.47-.03-.77-.15-1.08-.2-1.37-.75,.22-1.71,.44-2.93,.64-4.15,.97-6.12,.16-7.8-5.31-11.12-.87-.53-1.67-1.16-2.23-1.74,.27,0,.81-.05,1.28-.03,3.93,.19,5.23-2.86,7.42-4.61,2.43-1.95,2.67-4.59,2.16-7.31-.51-2.74-2.41-4.2-5.08-5,2.82-4.21,5.26-8.24,9.52-10.93,3.84,2.3,7.6,3.44,11.5,4.27,2.65,.56,5.26,1.38,8.05,.82,.37,2.3,1.6,3.27,3.15,4.08,6.76,3.55,13.51,7.15,20.23,10.79,2.35,1.27,4.61,2.72,6.91,4.08-.06,4.33-.16,8.65-.16,12.98,0,3.53-.45,6.97-2.49,10.71-3.31,.39-5.77,.24-8.19,.44-1.78,.15-3.52,.76-5.27,1.16v.02Z"/><path class="cls-4" d="M140.22,55.4c.03-7.96,.07-15.92,.09-23.88,0-.84,.03-1.68-.06-2.51-.45-4.21-2.91-5.98-6.91-4.89-1.61,.44-3.16,1.1-4.73,1.7-4.5,1.71-8.98,3.48-13.51,5.11-1.29,.47-2.72,.57-4.35,.89-.49-2.6-.91-4.79-1.37-7.23-1.33-.22-2.52-.57-3.72-.6-3.56-.08-7.14,.17-10.68-.08-5.87-.41-11.09,4.91-11.81,10.11-.26,1.86-.46,3.75-.47,5.63-.04,4.82,.04,9.64-.28,15.07-1.02,.34-1.84,.22-2.32-.25-.83-.81-1.44-1.84-2.15-2.77-1.3-8.3-2.69-16.59-3.86-24.91-.35-2.47-.31-5.04-.05-7.53,.77-7.28,4.69-12.42,11.17-15.7,4.4-2.23,9.11-3.31,13.98-3.41C107.6,0,116.02-.09,124.42,.15c7.17,.2,13.5,2.98,18.82,7.8,3.56,3.22,6.03,7.25,5.69,12.17-.71,10.26-1.2,20.55-3.7,31.46-.97,1.61-1.6,2.41-2.24,3.2-.76,.93-1.72,.95-2.77,.61h0Z"/><path class="cls-15" d="M168.24,219.73c-2.8-1.34-5.06-2.78-7.41-4.06-6.72-3.64-13.46-7.23-20.23-10.79-1.55-.81-2.77-1.78-3.07-4.5,3.21-6.3,6.47-11.67,9.6-17.12,.92-1.6,1.5-3.41,2.72-5.12,1.7,.19,2.9,.36,4.1,.58,3.39,.63,6.61,2.2,10.17,1.93,2.69,3,6.71,3.3,10.11,4.78,6.4,2.78,12.41,5.98,17.54,10.79,1.95,1.83,4.32,3.22,6.99,4.96,.69,3.88,1.11,7.61,1.02,11.34-.13,5.18-3.02,8.46-7.93,10-5.83,1.83-11.55,.83-17.21-.77-2-.56-3.93-1.35-6.39-2.02h-.01Z"/><path class="cls-6" d="M94.66,160.4c-9.84-13.78-18.95-28.03-27.78-42.98,1.09-4.09,4.35-5.93,7.4-8.32,1.05,.26,1.5,.5,1.82,.39,4.69-1.67,9.34-2.68,13.97,.26,.43,.28,1.2,.03,1.86,.53,.62,2.45,.89,4.56,1.84,6.31,1.74,3.21,1.85,7.19,4.67,10.37,1.13,7.05,3.13,13.37,5,19.72,.89,3.05,1.54,6.02,.89,9.51-2.04,2.01-3.44,4.02-6.46,2.93-.81-.29-2.13,.81-3.21,1.27h0Z"/><path class="cls-6" d="M150.33,109.8c2.4,1.51,4.25,3.48,5.22,7.1-2.67,7.1-6.87,12.28-11.23,17.38-3.65,4.27-7.11,8.71-11.04,13.34-2.29,3.18-3.25,6.64-6.06,9.06-2.64,2.27-4.03,5.84-7.45,7.65-2.24-.98-5.01-.98-5.9-4.37,2.23-2.6,3.84-5.83,7.86-6.54,.73-.13,1.25-1.43,1.95-2.3-1.41-1.66-2.6-3.07-3.78-4.99,1.71-6.92,3.4-13.33,5.28-20.16,2.27-5.69,4.35-10.96,6.88-16.27,4.95-2.93,9.44-2.37,13.96-.08,.92,.46,1.88,.92,2.88,1.09,.42,.07,.96-.59,1.45-.92h-.02Z"/><path class="cls-7" d="M71.87,290.53c4.34,.18,8.73-.36,13.32,.45,.24,1.19,.59,2.17,.6,3.15,.05,7.12,.1,14.23,.02,21.35-.06,4.97-2.82,7.78-7.69,7.89-4.6,.1-9.21,.12-13.81-.03-1.62-.05-3.22-.69-5.32-1.15-2.62-2.57-3.44-5.38-3.32-8.69,.21-5.59,.04-11.2,.06-16.8,0-2.61-.5-5.33,2.25-7.22,.56-.38,.29-1.96,.92-3.43,1.93,.76,3.52,1.81,4.72,3.19,2.46,2.83,5.13,3.3,8.26,1.29h0Z"/><path class="cls-7" d="M165.46,321.68c-3.21,1.58-6.31,1.83-9.48,1.74-3.35-.09-6.71-.04-10.07-.03-2.44,0-4.47-.99-6.29-2.49-1.17-.96-2-2.18-1.99-3.77,.09-8.38,.2-16.75,.32-25.13,0-.17,.21-.34,.61-.93,1.06-.14,2.45-.49,3.85-.5,7.34-.07,14.68-.06,22.63-.12,1.68,.16,2.69,.53,2.7,1.83,.04,7.95,.02,15.9,.05,23.85,0,2.03-1.01,3.57-2.34,5.55h0Z"/><path class="cls-14" d="M83.4,487.71c2.66,.09,4.76-1.22,6.88-2.61,2.78-1.83,5.61-3.59,8.51-5.21,1.05-.59,2.35-.71,4-1.04,.56,3.36,.74,6.71,.72,10.07-.01,2.14-1,3.62-2.8,3.5-3.7-.25-6.32,1.83-9.25,3.41-5.07,2.73-10.44,4.28-16.3,4.18-7.78-.13-15.56-.03-23.35-.04-1.26,0-2.53,.04-3.78-.08-2.02-.2-3.17-1.17-3.39-3.1-.22-1.87-.15-3.77,.42-6.21,10.03-.56,19.43-.56,28.83-.56,3.35,0,6.68-.09,9.51-2.28v-.03Z"/><path class="cls-14" d="M121.2,479.38c3.71-.77,6.61,1.05,9.18,3.1,3.48,2.78,7.31,4.75,12.39,6.42,3.03,.46,5.09,1.01,7.15,1.04,8.19,.1,16.38,.09,24.57,.01,1.87-.02,3.73-.44,5.59-.68,.03,2.1,.21,4.21,.06,6.3-.23,3.06-1.37,4.12-4.32,4.34-1.26,.09-2.52,.03-3.79,.04-7.36,0-14.73-.13-22.09,.04-6.52,.15-12.5-1.55-18-4.87-2.38-1.44-4.61-2.64-7.54-2.62-2.34,.01-3.26-1.25-3.34-3.73-.1-2.94,0-5.89,.14-9.39h0Z"/><path class="cls-10" d="M180.18,488.86c-1.97,.65-3.83,1.07-5.7,1.09-8.19,.07-16.38,.09-24.57-.01-2.07-.03-4.12-.58-6.69-1.01-.87-2.97-.23-5.64,1.67-7.73,2.35-2.6,4.53-5.29,8.18-6.57,7.47-2.63,14.68-2.83,21.86,.69,.97,.48,1.91,.86,3.18-.3,1.86,1.73,1.99,4.19,2.05,6.65,.06,2.26,.08,4.52,0,7.19h0Z"/><path class="cls-10" d="M83.19,487.31c-2.61,2.58-5.94,2.68-9.29,2.68-9.4,0-18.8,0-28.76,.02-.58-3.44-.59-6.9-.35-10.78,1.28-1.13,2.35-1.77,3.31-2.57,1.98-1.65,4.12-2.85,6.76-2.98,.83-.04,1.68-.13,2.48-.36,9.86-2.86,20.97,2.29,24.76,11.92,.23,.58,.59,1.11,1.1,2.06h0Z"/><path class="cls-11" d="M151.61,245.63c1.77-1,3.51-1.61,5.29-1.75,2.43-.2,4.88-.05,7.89-.06,.91,1.19,1.59,2.41,1.55,3.6-.15,4.79,.88,9.63-.84,14.82-4.43,.46-8.62,.46-12.64,.46-2.05-2.81-1.1-5.63-1.24-8.27-.14-2.73-.03-5.47,0-8.79h0Z"/><path class="cls-19" d="M150.11,109.45c-.26,.68-.81,1.35-1.22,1.28-.99-.18-1.96-.63-2.88-1.09-4.52-2.29-9.02-2.85-14.1-.38-.99-2.6-1.39-4.79-1.75-7.5,0-2.24,0-3.96-.03-5.69,0,0,.61-.09,.9-.19,7.29,3.2,13.46,7.67,19.08,13.57h0Z"/><path class="cls-19" d="M91.89,109.78c-.61,0-1.38,.25-1.81-.03-4.63-2.94-9.28-1.93-13.97-.26-.32,.11-.77-.13-1.43-.54,4.57-5.53,10.52-9.18,17.1-12.71,.74,0,1.1,.22,1.53,1.18,.07,1.71,.07,2.68-.02,4.16-.34,3.1,.02,5.8-1.41,8.2h.01Z"/><path class="cls-9" d="M140.18,56c1.09-.27,2.06-.28,2.81-1.21,.64-.79,1.27-1.6,2.21-2.72,2.16,.79,2.6,2.56,2.5,4.54-.26,4.81-1.32,9.48-2.73,14.07-.55,1.79-1.99,2.6-4.32,2.72-.49-5.57-.5-11.19-.46-17.4h0Z"/><path class="cls-13" d="M77.58,52c1.07,.64,1.68,1.67,2.51,2.48,.48,.47,1.3,.59,2.36,.74,.34,5.65,.28,11.42-.1,17.59-1.91,.26-3.19-.48-3.64-1.99-1.51-4.93-2.87-9.91-2.75-15.12,.02-1.14,.82-2.26,1.62-3.69h0Z"/><path class="cls-24" d="M159.31,447.05c1.06-1.14,2.44-.97,4.19-.88,.46,1.67,.52,3.3,.48,5.39-1.45,.37-2.8,.27-4.2-.41,.56-1.02,1.17-1.46,1.83-1.94-.89-.83-1.6-1.5-2.31-2.16h0Z"/><path class="cls-18" d="M162.86,442.05c-1.01-.11-2.03-.22-2.89-.72,.6-.75,1.38-1.06,1.43-1.46,.18-1.44-1.14-1.4-2.04-1.74,.96-1.28,2.27-1.15,3.99-.73,.43,1.29,.5,2.42,.28,4.03-.28,.49-.76,.62-.76,.62h-.01Z"/><path class="cls-24" d="M164.06,460.69c-1.23,.85-2.32,1.96-3.6,.57,.63-.93,1.17-1.41,1.77-1.95-1.09-.76-2-1.39-2.9-2.02,1.26-.37,2.51-.75,4.17-1.06,.47,1.36,.53,2.66,.56,4.46Z"/><path class="cls-18" d="M65.65,441.01c-1.27,.99-2.78,.91-4.52-.25-.48-.66-.53-1.02-.39-1.67,.58-.51,1.07-.75,2.04-.47,.55,2.08,1.76,2.17,2.87,2.39Z"/><path class="cls-24" d="M162.99,442.26c-.13-.21,.35-.35,.59-.4s.46,.53,.4,.83c-.4,.24-.67,.06-1-.43h.01Z"/><path class="cls-17" d="M95.85,251.37c2.35-.69,3.81,.85,5.72,2.96,.52,1.98,.67,3.18,.81,4.27,6.25,1.03,15,.91,19.76-.3,.09-1.91,.25-3.95,.25-5.99,0-1.41-.24-2.82-.41-4.54-2.93-.21-5.59-.39-8.25-.58-.74-1.67-1.48-3.33-2.31-5.38,4.25-.4,8.59-.41,12.93-.44,1.9,0,3.16,.76,3.51,3.83,.1,6.48,.16,11.87,.23,17.27-.6,1.72-1.64,2.82-3.63,2.81-8.33-.03-16.66,.04-24.99-.1-1.06-.02-2.11-1.07-3.35-2.64-.22-4.39-.24-7.78-.26-11.17h-.01Z"/><path class="cls-11" d="M128.62,262.54c-.6-5.47-.66-10.87-.59-16.83,4.6-.59,9.08-.62,14.15-.63,.36,5.59,.84,11.2,.28,16.78-2.49,1.29-4.82,.8-7.05,.86-2.08,.06-4.17-.06-6.79-.18Z"/><path class="cls-11" d="M95.41,251.42c.46,3.34,.49,6.73,.44,10.68-2.6,.57-5.13,.59-8.2,.57,.36-3.47,2.62-6.19,4.39-9.15,.56-.93,1.93-1.38,3.37-2.1h0Z"/><path class="cls-9" d="M93.38,101.08c0-.97,0-1.95,.11-3.39,.73-.33,1.46-.35,1.93-.01,4.75,3.35,10.13,3.73,15.67,3.4,1.05-.06,2.11-.1,3.15,0,5.28,.51,10.03-.46,13.79-4.56,.25-.27,.77-.28,1.63-.43,.48,1.71,.5,3.43,.08,5.87-4.63,4.24-9.36,6.01-14.93,5.47-2.29-.22-4.62-.2-6.91,0-4.5,.38-8.13-1.5-11.56-4.05-1-.74-1.97-1.53-2.96-2.3h0Z"/><path class="cls-7" d="M81.67,185.05c-2.09,1.87-4.36,3.55-6.92,5.5-2.05,.19-3.73,.24-5.4,.17-4.62-.19-7.4-2.87-7.5-7.46-.11-5.46-.03-10.92-.03-16.06,1.56-2.25,3.47-2.92,5.66-2.92,4.19,0,8.38,0,12.57,0,1.97,0,3.69,.6,5.43,2.42,.48,4-2.34,17.03-3.82,18.35h.01Z"/><path class="cls-2" d="M56.52,202.39c-.96,.25-2.02,.09-2.91-.39-5.08-2.79-10.13-5.64-15.15-8.54-.63-.36-1.03-1.13-1.54-2.14,4.82-5.03,9.64-9.64,14.47-14.23,1.34-1.28,2.71-2.52,4.15-3.85,1.36,3.47,1.58,10.67,.97,29.14h0Z"/><path class="cls-12" d="M80.78,215.21c0,.47-.43,.84-.71,.89-3.1-.37-5.12-2.02-6.84-4.65,2.53-3.66,4.89-7.13,7.78-10.07,3.28-3.34,5.97-6.9,7.44-11.39,.33-1.02,1.31-1.83,2.33-3.2,1.33,2.96,2.38,5.31,3.62,8.07-3.19,3.77-6.43,7.78-9.87,11.61-2.16,2.4-3.98,4.84-3.76,8.73h.01Z"/><path class="cls-7" d="M141.34,168.64c.77-1.27,1.53-2.54,2.47-4.14,6.55-.26,12.93-.17,19.49-.08,1.55,5.23,.53,10.19,.83,15.65-3.57,.86-6.78-.71-10.17-1.34-1.2-.22-2.4-.39-4.36-.94-2.55-3.89-5.19-6.7-8.26-9.14h0Z"/><path class="cls-14" d="M81.85,450.94c-5.59,.21-11.18,.39-16.77,.65-2.1,.09-2.64-.69-2.26-3.89,5.91-.96,11.93-.27,18.71-.15,1.62,1.03,1.86,2.01,.73,2.94-.16,.13-.27,.31-.4,.46h-.01Z"/><path class="cls-14" d="M81.95,461.05c-4.84,0-9.68,.01-14.52-.01-1.5,0-2.98-.14-3.66-1.84,.67-1.69,2.15-1.84,3.65-1.85,4.42-.03,8.84,0,14.05,.29,1.65,1.01,1.94,1.98,.85,2.93-.15,.13-.25,.32-.37,.48Z"/><path class="cls-14" d="M66.23,440.98c-1.69-.18-2.89-.28-3.05-2.25-.08-.42-.13-.4,.3-.34,1.01-.01,1.58-.08,2.15-.15,5.12,0,10.23,0,16.33,.07,1.42,.63,1.86,1.19,2.29,1.75-.7,.33-1.41,.65-2.11,.98-5.11-.03-10.23-.06-15.92-.06h0Z"/><path class="cls-5" d="M82.14,451.29c-.16-.51-.04-.69,.11-.81,1.13-.93,1.08-1.9-.15-2.92,.48-.67,1.15-1.35,1.84-1.37,.7-.02,1.54,.47,2.11,.98,1,.9,1.24,2.12,.5,3.32-.99,1.6-2.34,2.23-4.41,.81h0Z"/><path class="cls-5" d="M82.23,461.39c-.16-.5-.06-.69,.09-.82,1.08-.95,.99-1.92-.28-2.91,2.27-1.69,2.84-1.73,3.97-.54,.93,.98,1.3,2.11,.58,3.33-.95,1.59-2.25,2.35-4.36,.95h0Z"/><path class="cls-18" d="M82.39,441.39c.46-.67,1.17-1,1.87-1.32-.44-.56-.87-1.12-1.7-1.78,.74-1.61,2.04-1.5,3.31-.35,.83,.75,1.11,1.75,.48,2.8-.91,1.53-2.19,1.74-3.96,.66h0Z"/><path class="cls-18" d="M65.44,437.91c-.38,.4-.95,.47-1.95,.51-.19-1.64,.77-1.28,1.95-.51Z"/><path class="cls-14" d="M158.72,457.31c1.51,.62,2.42,1.24,3.51,2-.6,.54-1.13,1.02-2.03,1.66-5.6,.13-10.85,.11-16.95-.14-2.54-1.65-2.54-1.63-.61-2.64,.34-.18,.6-.51,.9-.77,4.86-.03,9.71-.06,15.18-.1h0Z"/><path class="cls-14" d="M158.7,447.11c1.32,.6,2.03,1.26,2.92,2.1-.66,.48-1.27,.92-2.13,1.65-5.26,.22-10.26,.16-16.13-.13-1.44-.64-2.02-1.05-2.71-1.54,1.13-.77,1.93-1.31,2.74-1.86,4.9-.05,9.8-.11,15.3-.22h.01Z"/><path class="cls-14" d="M158.76,438.17c1.5,.29,2.83,.25,2.64,1.69-.05,.4-.84,.72-1.68,1.16-5.3,.07-10.19,.04-16.1,0-1.85-.08-2.68-.14-3.51-.2,0,0,0,.06,.12-.36,.06-.99,0-1.56-.06-2.13,0,0-.06,0,.4,.1,1.08,.03,1.7-.05,2.32-.13,5.09-.02,10.17-.05,15.87-.12h0Z"/><path class="cls-23" d="M143.07,447.12c-.48,.76-1.28,1.31-2.41,2.07,.69,.49,1.26,.91,2.15,1.54-.59,1.24-1.67,1.7-2.89,.89-1.19-.79-1.55-2.51-.74-3.79,.84-1.32,2.01-2,3.89-.71h0Z"/><path class="cls-23" d="M143.2,457.19c.04,.48-.22,.82-.56,.99-1.93,1-1.93,.99,.04,2.64-.73,1.37-1.81,1.49-2.95,.41-1.05-.99-1.27-2.22-.54-3.4,.87-1.42,2.1-2.02,4-.64h0Z"/><path class="cls-18" d="M140.16,441.2c.78-.32,1.61-.26,2.85-.12-.54,1.21-1.6,1.38-2.85,.12Z"/><path class="cls-18" d="M139.77,438.42c.46,.48,.52,1.05,.49,2.04-1.72,.09-1.5-.87-.49-2.04Z"/><path class="cls-18" d="M142.68,437.96c-.41,.42-1.03,.5-2.11,.51-.11-1.67,.85-1.39,2.11-.51Z"/><path class="cls-22" d="M93.29,101.58c1.08,.27,2.05,1.06,3.05,1.8,3.43,2.55,7.06,4.43,11.56,4.05,2.29-.19,4.63-.22,6.91,0,5.56,.54,10.29-1.23,14.89-4.96,.81,2,1.21,4.19,1.75,6.83-1.94,5.72-4.02,10.99-6.83,16.68-6.07,1.48-11.48,1.83-16.9,1.52-3.1-.18-6.19-.68-9.28-1.04-2.82-2.68-2.93-6.66-4.67-9.87-.95-1.75-1.21-3.86-1.84-6.31,1.37-2.9,1.01-5.61,1.35-8.7h.01Z"/><path class="cls-16" d="M98.45,126.96c3.09-.15,6.18,.35,9.28,.53,5.43,.32,10.83-.03,16.71-1.1-1.15,6.41-2.84,12.82-4.55,19.74-1.23-.26-2.43-1.04-3.61-1.79-2.14,.23-2.49,1.65-2.88,3.41-.79,3.6-4.3,7.17-8.28,8.28-.14-3.34-.79-6.31-1.68-9.36-1.86-6.35-3.86-12.67-5-19.72h.01Z"/><path class="cls-11" d="M113.51,247.58c2.89-.21,5.55-.03,8.48,.18,.16,1.72,.41,3.13,.41,4.54,0,2.04-.16,4.08-.25,5.99-4.77,1.21-13.51,1.33-19.76,.3-.14-1.09-.29-2.28-.45-4.04,3.78-2.57,7.56-4.57,11.57-6.97h0Z"/><path class="cls-21" d="M79.46,261.51c-3.43,.47-5.03-2.24-7.14-4.09-1.99-1.75-1.55-4.08-1.66-6.81,1.21-2.29,2.44-4.08,3.74-6.26,1.6,.59,3.13,1.59,4.88,3.49,.21,5.16,.19,9.42,.18,13.68h0Z"/><path class="cls-11" d="M79.48,261.83c0-4.57,0-8.83,.02-13.67,2.71,.04,5.41,.66,8.49,1.54-1.08,2.78-2.45,5.34-4.01,7.79-1.1,1.73-2.46,3.29-4.1,5.1-.39,.18-.39-.45-.41-.77h.01Z"/><path class="cls-21" d="M60.68,264.56c4.5-.57,6.65,1.97,7.42,6.54-3.69-.37-5.85-2.9-7.42-6.54Z"/><path class="cls-16" d="M112.08,168.07c1.37,.38,2.3,.74,3.55,1.23-1.02,2.89-3.05,4.45-5.25,6.31-1.18-1-2.21-1.88-3.31-2.82,.78-2.57,2.16-4.13,5.02-4.71h-.01Z"/><path class="cls-12" d="M96.88,179.19c.88-.31,1.44-.36,2.01-.41,.03,.56,.16,1.13,.05,1.66-.07,.36-.45,.69-.75,.97-.73,.7-1.69,1.84-2.57,1.05-1.37-1.24,.29-2.09,1.25-3.28h0Z"/><path class="cls-20" d="M217.31,75.69c-.3,.43-.54,.87-.86,1.27-20.74,26.33-61.18,76.9-71.51,89.54-1.45,1.78-2.31,2.8-2.43,2.91-1.18,.16-2.3,.23-3.59,.23-2.53-.67-5.13-7.29-5.22-8.67,.54-2.08,1.66-3.6,2.86-5.08,23.29-29.51,46.56-59.02,69.85-88.56,.32-.41,.65-.79,1.14-1.21,.3,.06,.45,.11,.59,.24,2.91,2.86,5.85,5.73,8.77,8.62,.16,.16,.28,.45,.42,.72h-.02Z"/><path class="cls-8" d="M176.65,32.85c1.35,.14,2.58,.36,3.83,.45,4.02,.34,7.91,1.34,11.74,2.59,5.96,1.96,11.64,4.58,17.03,7.79,2.53,1.5,4.95,3.19,7.49,4.92-.03,.28-.09,.48-.21,.63-2.59,2.97-5.21,5.92-7.83,8.86-.19,.19-.45,.3-.69,.47-1.69-1.26-3.3-2.67-5.08-3.78-5.04-3.06-10.08-6.17-15.27-8.94-5.96-3.2-12.3-5.56-18.96-6.87-3.27-.66-6.58-1.1-9.84-1.61,2.85-2.02,6.2-3.25,9.86-3.88,2.64-.29,5.24-.46,7.93-.63h0Z"/><path class="cls-8" d="M233.45,63.19c1.8,2.15,3.6,4.24,5.35,6.42,3.4,4.21,6.39,8.71,8.78,13.55,1.39,2.77,2.74,5.59,3.77,8.5,1.06,2.99,1.7,6.13,2.62,9.22,.24,2.64,.4,5.21,.57,7.91-.22,1.68-.32,3.25-.69,4.76-.49,1.99-1.19,3.92-1.88,6.08-.99-3.44-1.78-6.57-2.79-9.61-1.72-5.21-4.21-10.06-7.07-14.75-3.3-5.38-6.99-10.46-11.14-15.21-2.01-2.31-4.11-4.53-6.25-6.93,.03-.3,.09-.48,.21-.63,2.57-2.94,5.14-5.86,7.74-8.78,.21-.21,.53-.33,.79-.52h-.01Z"/><path class="cls-1" d="M233.47,63.11c-.28,.24-.6,.39-.81,.6-2.6,2.92-5.17,5.84-7.74,8.78-.12,.13-.18,.33-.29,.59-1.19,1.19-2.22,2.65-4.04,2.52-1.1-.08-2.15-.61-3.29-.96-.24-.26-.33-.53-.54-.71-2.89-2.57-5.79-5.12-8.71-7.67-.11-.09-.28-.16-.49-.24-2.19-2.39-2.06-4.64,.37-7.45,.26-.22,.55-.33,.71-.54,2.62-2.95,5.24-5.89,7.83-8.86,.12-.13,.18-.33,.29-.59,1.17-1.07,2.24-2.23,3.54-2.98,1.51-.87,3.13-.4,4.41,.69,3.33,2.84,6.6,5.77,9.89,8.69,1.92,1.72,1.94,4.37,.08,6.7-.37,.5-.79,.92-1.22,1.44h0Z"/><polyline class="cls-20" points="143.32 154.57 154.47 156.35 148.4 163.8 120.96 193.07"/><path class="cls-11" d="M61.89,247.07c1.77-1,3.51-1.61,5.29-1.75,2.43-.2,4.88-.05,7.89-.06,.91,1.19,1.59,2.41,1.55,3.6-.15,4.79,.88,9.63-.84,14.82-4.43,.46-8.62,.46-12.64,.46-2.05-2.81-1.1-5.63-1.24-8.27-.14-2.73-.03-5.47,0-8.79h-.01Z"/><polyline class="cls-7" points="83.66 179.79 85.04 190.07 85.61 166.95 83.66 179.79 85.08 190.33 74.69 190.55 81.73 166.46"/><polyline class="cls-20" points="122.04 194.1 159.54 149.96 41.99 290.45 31.66 278.44 171.55 114.59"/><rect class="cls-16" x="105.67" y="143.78" width="15.69" height="10.56" rx="1.65" ry="1.65" transform="translate(-58.63 223.02) rotate(-75.96)"/><rect class="cls-6" x="119.91" y="146.08" width="4.92" height="8.08"/><rect class="cls-6" x="114.27" y="149.49" width="10.83" height="2.24" transform="translate(-55.46 230.18) rotate(-75.96)"/><path class="cls-22" d="M80.78,215.68c1.32,0,2.65-.03,4.86,.15,3.6,1.43,6.31,2.66,9.33,4.18,2.66,1.38,5.01,2.47,7.36,3.57,.83,.58,1.63,1.22,2.5,1.74,5.47,3.32,6.28,5,5.31,11.12-.19,1.22-.41,2.44-.64,4.15-.5,1.39-1.05,2.27-1.46,3.21-1.98,4.58-5.5,6.63-10.41,6.41-2.71-.12-5.42-.25-9.07-.57-3.65-.82-6.35-1.44-9.28-2.39-1.76-1.32-3.29-2.32-4.82-3.31-.54-.81-1.07-1.62-1.9-2.65-.08-1.66-.06-3.15,.38-4.51,2.14-6.59,4.4-13.14,7.01-20.22,.4-.51,.84-.88,.84-.88h-.01Z"/><path class="cls-15" d="M5.56,187.28c1.15-.3,2.04-.12,2.79-.36,8.03-2.52,15.37,.05,22.71,2.91,1.5,.58,3.19,.67,5.33,1.45,1.04,1.04,1.44,1.81,2.07,2.18,5.02,2.9,10.07,5.74,15.15,8.54,.88,.49,1.94,.64,2.92,.95,.94,1.74,2.63,2.34,5.06,3.28,4.01,2.63,7.1,5.4,11.63,5.22,1.72,2.63,3.74,4.27,6.44,5.16-2.33,7.02-4.59,13.57-6.73,20.16-.44,1.36-.46,2.86-1.06,4.35-.65,.1-.91,.13-1.37-.22-3.13-2.4-3.62-2.49-5.46-.89-1.24,1.08-2.38,2.27-3.53,3.44-1.07,1.08-2.31,1.68-3.87,1.5,.97-3.29-1.4-5.98-1.27-9.29-5.26-1.53-10.27-2.96-15.26-4.44-8.25-2.44-16.41-5.15-24.15-8.94-3.75-1.83-7.35-4.03-10.8-6.39-4.73-3.25-6.59-8-6.08-13.66,.3-3.36,1.04-6.62,2.61-9.65,.87-1.67,1.7-3.36,2.88-5.32v.02Z"/><path class="cls-22" d="M140.87,168.7c3.53,2.39,6.17,5.19,8.23,9.08-.47,2.07-1.05,3.88-1.97,5.48-3.13,5.45-6.39,10.83-9.67,16.64-2.78,1.45-5.39,.63-8.05,.07-3.9-.83-7.66-1.98-11.68-4.67-3.16-3.52-3.28-7.34-4.23-10.87,.92-3.63,1.76-7.29,2.8-10.88,.4-1.38,1.16-2.7,1.95-3.91,2.93-4.47,7.57-5.22,11.86-1.97,.83,.63,1.5,1.45,2.28,2.14,.76,.67,1.56,1.27,2.3,1.87,2.07-1.06,3.89-2,6.18-2.99h0Z"/></svg>