<?xml version="1.0" encoding="UTF-8"?>
<svg xmlns="http://www.w3.org/2000/svg" xmlns:xlink="http://www.w3.org/1999/xlink" width="76px" height="150px" viewBox="0 0 76 149" version="1.1">
<g id="surface1">
<path style=" stroke:none;fill-rule:nonzero;fill:rgb(30.588235%,30.588235%,17.647059%);fill-opacity:1;" d="M 19.539062 68.910156 L 40.003906 68.910156 L 40.003906 77.230469 L 19.539062 77.230469 Z M 19.539062 68.910156 "/>
<path style=" stroke:none;fill-rule:nonzero;fill:rgb(25.882353%,18.431373%,12.54902%);fill-opacity:1;" d="M 32.957031 73.277344 C 34.191406 73.214844 35.328125 73.269531 36.582031 73.332031 C 36.652344 73.84375 36.753906 74.265625 36.757812 74.683594 C 36.757812 75.292969 36.6875 75.902344 36.648438 76.46875 C 34.613281 76.832031 30.875 76.867188 28.199219 76.558594 C 28.136719 76.234375 28.074219 75.878906 28.007812 75.355469 C 29.621094 74.589844 31.242188 73.992188 32.957031 73.277344 Z M 32.957031 73.277344 "/>
<path style=" stroke:none;fill-rule:nonzero;fill:rgb(30.588235%,30.588235%,17.647059%);fill-opacity:1;" d="M 28.703125 61.21875 L 34.273438 61.21875 L 34.273438 67.90625 L 28.703125 67.90625 Z M 28.703125 61.21875 "/>
<path style=" stroke:none;fill-rule:nonzero;fill:rgb(47.45098%,49.411765%,25.882353%);fill-opacity:1;" d="M 17.703125 74.921875 L 27.34375 74.921875 L 27.34375 89.890625 L 17.703125 89.890625 Z M 17.703125 74.921875 "/>
<path style=" stroke:none;fill-rule:nonzero;fill:rgb(30.588235%,30.588235%,17.647059%);fill-opacity:1;" d="M 18.644531 60.941406 L 33.269531 43.808594 L 38.765625 48.5 L 24.144531 65.632812 Z M 18.644531 60.941406 "/>
<path style=" stroke:none;fill-rule:nonzero;fill:rgb(30.588235%,30.588235%,17.647059%);fill-opacity:1;" d="M 17.179688 61.320312 L 23.917969 46.105469 L 29.277344 48.476562 L 22.535156 63.695312 Z M 17.179688 61.320312 "/>
<path style=" stroke:none;fill-rule:nonzero;fill:rgb(47.45098%,49.411765%,25.882353%);fill-opacity:1;" d="M 17.808594 126.164062 C 17.703125 126.019531 17.527344 125.886719 17.5 125.726562 C 17.4375 125.359375 17.425781 124.984375 17.425781 124.613281 C 17.425781 115.183594 17.4375 105.757812 17.613281 96.179688 C 18.269531 96.144531 18.746094 96.335938 19.230469 96.351562 C 20.601562 96.394531 21.976562 96.390625 23.347656 96.359375 C 24.792969 96.328125 25.621094 95.488281 25.636719 94.007812 C 25.660156 91.886719 25.648438 89.769531 25.632812 87.648438 C 25.632812 87.355469 25.523438 87.058594 25.453125 86.707031 C 24.085938 86.46875 22.78125 86.632812 21.5 86.445312 C 22.039062 85.335938 22.550781 84.355469 23.09375 83.390625 C 24.058594 81.675781 25.046875 79.972656 26.1875 78.277344 C 27.105469 78.28125 27.859375 78.277344 28.691406 78.402344 C 29.085938 78.703125 29.394531 79.015625 29.714844 79.023438 C 32.199219 79.066406 34.679688 79.042969 37.164062 79.054688 C 37.753906 79.054688 38.066406 78.726562 38.402344 78.238281 C 39.183594 78.273438 39.804688 78.308594 40.425781 78.289062 C 41.089844 78.273438 41.785156 78.417969 42.527344 78.035156 C 42.695312 76.375 42.550781 74.703125 42.785156 73.035156 C 43.71875 73.027344 44.492188 73.023438 45.257812 73.199219 C 45.25 74.191406 45.214844 75.003906 45.257812 75.816406 C 45.296875 76.605469 45.015625 77.445312 45.625 78.28125 L 49.320312 78.28125 C 49.347656 80.917969 49.382812 83.554688 49.246094 86.378906 C 46.890625 86.570312 44.703125 86.570312 42.515625 86.589844 C 42.097656 86.59375 41.683594 86.695312 41.367188 86.738281 C 41.25 86.914062 41.1875 86.964844 41.1875 87.015625 C 41.148438 89.511719 41.117188 92.007812 41.089844 94.503906 C 41.085938 94.976562 41.335938 95.339844 41.683594 95.628906 C 42.226562 96.074219 42.832031 96.371094 43.558594 96.371094 C 44.558594 96.367188 45.558594 96.347656 46.558594 96.378906 C 47.503906 96.40625 48.425781 96.332031 49.316406 95.988281 C 49.34375 96.421875 49.390625 96.859375 49.390625 97.296875 C 49.40625 106.308594 49.421875 115.320312 49.421875 124.335938 C 49.421875 124.894531 49.34375 125.449219 49.144531 125.96875 C 48.839844 125.160156 48.304688 124.957031 47.609375 124.960938 C 46.964844 124.960938 46.511719 125.25 46.316406 125.84375 C 46.140625 126.367188 46.066406 126.925781 45.933594 127.46875 C 45.863281 127.757812 45.804688 128.078125 45.382812 128.023438 C 45.195312 127.300781 45.019531 126.578125 44.820312 125.867188 C 44.671875 125.324219 44.296875 125 43.738281 124.988281 C 41.503906 124.945312 39.261719 124.84375 37.0625 125.558594 C 36.988281 125.898438 36.921875 126.199219 36.859375 126.5 C 36.140625 126.414062 35.722656 126.066406 35.703125 125.289062 C 35.683594 124.601562 35.582031 123.914062 35.554688 123.226562 C 35.382812 118.652344 35.230469 114.082031 35.050781 109.507812 C 34.839844 104.25 34.613281 98.984375 34.386719 93.726562 C 34.375 93.414062 34.359375 93.097656 34.304688 92.789062 C 34.195312 92.199219 33.804688 91.808594 33.339844 91.800781 C 32.878906 91.792969 32.445312 92.183594 32.394531 92.789062 C 32.28125 94.101562 32.207031 95.414062 32.152344 96.730469 C 32.09375 98.234375 32.085938 99.738281 32.035156 101.242188 C 31.796875 108.320312 31.546875 115.398438 31.304688 122.480469 C 31.273438 123.417969 31.265625 124.359375 31.242188 125.300781 C 31.234375 125.773438 31.078125 126.15625 30.429688 126.246094 C 30.132812 125.722656 29.90625 125.476562 29.496094 125.359375 C 27.476562 124.785156 25.410156 124.996094 23.359375 124.992188 C 22.800781 124.992188 22.449219 125.34375 22.277344 125.875 C 22.179688 126.167969 22.078125 126.464844 21.957031 126.753906 C 21.847656 127.015625 21.898438 127.402344 21.34375 127.429688 C 20.945312 126.480469 20.921875 125.234375 19.652344 124.703125 C 19.242188 124.832031 18.769531 124.972656 18.371094 125.09375 C 18.15625 125.515625 17.980469 125.839844 17.8125 126.167969 Z M 17.808594 126.164062 "/>
<path style=" stroke:none;fill-rule:nonzero;fill:rgb(99.215686%,87.843137%,80%);fill-opacity:1;" d="M 41.839844 21.882812 C 42.140625 24.03125 41.511719 25.808594 39.75 27.144531 C 39.394531 27.410156 39.164062 27.789062 39.117188 28.441406 C 39.035156 28.605469 38.851562 28.628906 38.710938 28.632812 C 38.457031 28.679688 38.296875 28.679688 38.226562 28.761719 C 37.109375 29.988281 35.691406 30.277344 34.117188 30.121094 C 33.808594 30.089844 33.492188 30.101562 33.179688 30.121094 C 31.527344 30.214844 29.921875 30.105469 28.507812 29.109375 C 28.363281 29.007812 28.148438 29.011719 27.910156 28.894531 C 27.746094 28.746094 27.640625 28.679688 27.535156 28.617188 C 27.429688 27.699219 26.816406 27.042969 26.238281 26.449219 C 25.035156 25.226562 24.527344 23.792969 24.617188 21.851562 C 24.730469 19.859375 24.742188 18.136719 24.75 16.269531 C 24.730469 14.691406 24.703125 13.253906 24.71875 11.816406 C 24.722656 11.257812 24.78125 10.695312 24.855469 10.140625 C 25.074219 8.589844 26.628906 7.003906 28.375 7.128906 C 29.433594 7.199219 30.5 7.128906 31.558594 7.152344 C 31.917969 7.160156 32.273438 7.261719 32.667969 7.332031 C 32.804688 8.054688 32.929688 8.710938 33.078125 9.484375 C 33.5625 9.390625 33.988281 9.359375 34.371094 9.21875 C 35.722656 8.730469 37.058594 8.203125 38.398438 7.695312 C 38.867188 7.519531 39.328125 7.320312 39.808594 7.191406 C 41.003906 6.867188 41.734375 7.394531 41.867188 8.648438 C 41.894531 8.894531 41.886719 9.144531 41.886719 9.394531 C 41.878906 11.765625 41.867188 14.140625 41.84375 16.691406 C 41.832031 18.539062 41.835938 20.214844 41.839844 21.886719 Z M 41.839844 21.882812 "/>
<path style=" stroke:none;fill-rule:nonzero;fill:rgb(30.588235%,30.588235%,17.647059%);fill-opacity:1;" d="M 1.824219 55.722656 C 2.035156 55.207031 2.222656 54.671875 2.464844 54.167969 C 4.429688 50.046875 6.398438 45.921875 8.390625 41.8125 C 8.910156 40.746094 9.46875 39.691406 10.109375 38.695312 C 11.167969 37.039062 12.671875 35.964844 14.640625 35.632812 C 16.304688 35.351562 17.980469 35.117188 19.835938 34.996094 C 22.632812 39.441406 25.347656 43.6875 28.238281 47.90625 C 27.621094 48.648438 28.582031 48.953125 28.515625 49.40625 C 28.167969 49.988281 27.722656 50.46875 27.570312 51.03125 C 27.25 52.214844 26.652344 53.148438 25.648438 53.660156 C 25.609375 52.183594 25.714844 50.871094 25.574219 49.675781 C 25.054688 49.136719 24.539062 48.957031 23.949219 48.957031 C 22.695312 48.957031 21.441406 48.957031 20.191406 48.957031 C 19.53125 48.957031 18.960938 49.15625 18.492188 49.828125 C 18.492188 51.359375 18.46875 52.984375 18.503906 54.613281 C 18.53125 55.980469 19.363281 56.777344 20.746094 56.835938 C 21.246094 56.855469 21.75 56.835938 22.199219 56.953125 C 21.070312 58.46875 19.925781 59.808594 18.671875 61.050781 C 18.585938 61.136719 18.546875 61.261719 18.355469 61.351562 C 17.703125 61.175781 17.199219 60.996094 16.914062 60.308594 C 17.097656 54.804688 17.03125 52.65625 16.625 51.625 C 16.195312 52.023438 15.789062 52.390625 15.386719 52.773438 C 13.949219 54.144531 12.507812 55.519531 10.914062 56.878906 C 10.28125 56.769531 9.777344 56.742188 9.328125 56.570312 C 7.140625 55.714844 4.953125 54.953125 2.5625 55.703125 C 2.335938 55.773438 2.074219 55.722656 1.824219 55.726562 Z M 1.824219 55.722656 "/>
<path style=" stroke:none;fill-rule:nonzero;fill:rgb(30.588235%,30.588235%,17.647059%);fill-opacity:1;" d="M 45.898438 34.5 C 47.230469 34.789062 48.644531 35.007812 49.875 35.378906 C 54.402344 36.734375 56.839844 38.769531 57.230469 41.355469 C 57.847656 45.410156 58.347656 49.46875 58.882812 53.527344 C 59.152344 55.558594 59.40625 57.585938 59.3125 59.765625 C 57.578125 59.414062 56.074219 58.976562 54.832031 58.402344 C 51.570312 56.890625 47.75 55.890625 43.675781 55.015625 C 41.515625 54.554688 38.957031 54.460938 37.25 53.332031 C 37.054688 51.621094 37.703125 50.0625 36.71875 48.421875 C 32.546875 48.394531 28.492188 48.371094 24.605469 48.242188 C 26.054688 47.878906 27.644531 47.777344 27.8125 46.75 C 30.109375 45.523438 31.128906 44.074219 32.457031 42.722656 C 34.105469 41.046875 35.941406 39.46875 38.84375 38.238281 C 39.34375 38.027344 39.804688 37.773438 40.160156 37.5 C 41.691406 36.316406 43.714844 35.375 45.902344 34.503906 Z M 45.898438 34.5 "/>
<path style=" stroke:none;fill-rule:nonzero;fill:rgb(31.764706%,37.647059%,51.764706%);fill-opacity:1;" d="M 17.867188 126.300781 C 17.980469 125.839844 18.148438 125.511719 18.367188 125.09375 C 18.769531 124.96875 19.234375 124.828125 19.652344 124.703125 C 20.921875 125.230469 20.945312 126.476562 21.339844 127.429688 C 21.894531 127.398438 21.847656 127.007812 21.953125 126.75 C 22.074219 126.464844 22.175781 126.167969 22.273438 125.871094 C 22.445312 125.339844 22.796875 124.988281 23.355469 124.992188 C 25.410156 124.992188 27.472656 124.785156 29.496094 125.359375 C 29.902344 125.472656 30.128906 125.71875 30.273438 126.277344 C 30.289062 129.484375 30.257812 132.527344 30.238281 135.566406 C 30.238281 135.8125 30.230469 136.097656 30.347656 136.292969 C 31.066406 137.496094 30.90625 138.8125 30.914062 140.109375 C 30.921875 140.851562 30.910156 141.597656 30.738281 142.515625 C 30.214844 142.789062 29.824219 142.824219 29.515625 143 C 28.652344 143.488281 27.808594 144.011719 26.980469 144.554688 C 26.347656 144.96875 25.722656 145.363281 24.867188 145.214844 C 24.714844 144.933594 24.605469 144.773438 24.539062 144.601562 C 23.410156 141.730469 20.097656 140.199219 17.160156 141.050781 C 16.921875 141.117188 16.667969 141.144531 16.417969 141.15625 C 15.628906 141.195312 14.996094 141.554688 14.40625 142.046875 C 14.121094 142.28125 13.800781 142.472656 13.496094 142.6875 C 13.4375 141.4375 14.136719 140.578125 15.019531 139.847656 C 15.640625 139.332031 16.300781 138.863281 16.972656 138.414062 C 17.820312 137.855469 18.230469 137.171875 18.15625 136.089844 C 18.046875 134.605469 18.136719 133.109375 18.265625 131.527344 C 18.804688 131.753906 19.320312 131.714844 19.8125 131.414062 C 21.511719 131.414062 23.035156 131.421875 24.628906 131.53125 C 25.15625 131.855469 25.542969 131.792969 25.8125 131.335938 C 25.996094 131.023438 25.914062 130.722656 25.667969 130.5 C 25.289062 130.160156 24.902344 130.125 24.390625 130.585938 C 22.6875 130.597656 21.160156 130.59375 19.578125 130.496094 C 19.222656 130.265625 18.9375 130.160156 18.867188 130.628906 C 18.867188 130.621094 18.878906 130.617188 18.761719 130.585938 C 18.496094 130.625 18.351562 130.695312 18.203125 130.769531 C 18.175781 129.800781 18.160156 128.828125 18.109375 127.859375 C 18.085938 127.386719 17.996094 126.914062 17.875 126.304688 M 24.667969 137.59375 C 25.210938 137.910156 25.597656 137.683594 25.882812 137.207031 C 26.097656 136.847656 25.988281 136.507812 25.710938 136.214844 C 25.371094 135.863281 25.207031 135.875 24.121094 136.285156 C 22.804688 136.285156 21.484375 136.277344 20.167969 136.285156 C 19.726562 136.285156 19.28125 136.332031 19.082031 136.835938 C 19.28125 137.34375 19.726562 137.382812 20.171875 137.382812 C 21.613281 137.390625 23.058594 137.382812 24.667969 137.589844 M 24.140625 133.273438 C 22.355469 133.324219 20.558594 133.121094 18.796875 133.40625 C 18.683594 134.359375 18.847656 134.59375 19.472656 134.566406 C 21.136719 134.492188 22.804688 134.433594 24.640625 134.582031 C 25.171875 134.902344 25.574219 134.714844 25.871094 134.238281 C 26.089844 133.878906 26.019531 133.519531 25.722656 133.25 C 25.554688 133.097656 25.304688 132.949219 25.09375 132.957031 C 24.886719 132.960938 24.683594 133.160156 24.136719 133.269531 Z M 24.140625 133.273438 "/>
<path style=" stroke:none;fill-rule:nonzero;fill:rgb(31.764706%,37.647059%,51.764706%);fill-opacity:1;" d="M 36.863281 126.675781 C 36.925781 126.195312 36.988281 125.894531 37.0625 125.550781 C 39.261719 124.839844 41.503906 124.941406 43.738281 124.980469 C 44.296875 124.992188 44.671875 125.320312 44.820312 125.859375 C 45.019531 126.578125 45.195312 127.296875 45.382812 128.019531 C 45.804688 128.074219 45.863281 127.753906 45.933594 127.460938 C 46.0625 126.921875 46.140625 126.363281 46.316406 125.835938 C 46.511719 125.246094 46.964844 124.957031 47.609375 124.957031 C 48.304688 124.957031 48.839844 125.15625 49.015625 126.074219 C 49.007812 127.492188 48.976562 128.761719 48.792969 130.160156 C 48.246094 130.207031 47.855469 130.171875 47.386719 130.566406 C 45.691406 130.589844 44.175781 130.597656 42.59375 130.5 C 42.21875 130.234375 41.929688 130.15625 41.828125 130.621094 C 41.828125 130.609375 41.847656 130.609375 41.726562 130.636719 C 41.429688 130.988281 41.363281 131.273438 41.839844 131.375 C 41.828125 131.375 41.828125 131.355469 41.84375 131.46875 C 42.214844 131.84375 42.53125 131.792969 42.996094 131.441406 C 44.640625 131.429688 46.097656 131.441406 47.632812 131.535156 C 48.007812 131.65625 48.3125 131.691406 48.652344 131.785156 C 48.75 131.929688 48.832031 131.984375 48.933594 132.003906 C 48.9375 132.21875 48.945312 132.429688 48.820312 132.789062 C 48.28125 132.921875 47.871094 132.871094 47.371094 133.230469 C 45.730469 133.261719 44.269531 133.28125 42.714844 133.230469 C 42.15625 132.847656 41.804688 133.046875 41.554688 133.441406 C 41.3125 133.824219 41.417969 134.339844 41.777344 134.570312 C 42.140625 134.808594 42.460938 134.675781 42.894531 134.371094 C 44.550781 134.394531 46.039062 134.410156 47.621094 134.519531 C 48.113281 134.632812 48.515625 134.667969 48.917969 134.695312 C 48.933594 135.011719 48.945312 135.332031 48.820312 135.789062 C 48.308594 136.039062 47.933594 136.152344 47.375 136.265625 C 45.746094 136.277344 44.300781 136.289062 42.75 136.230469 C 42.183594 135.820312 41.816406 136 41.558594 136.421875 C 41.339844 136.777344 41.40625 137.140625 41.71875 137.433594 C 42.058594 137.753906 42.378906 137.722656 42.851562 137.382812 C 44.582031 137.386719 46.148438 137.394531 47.789062 137.484375 C 48.277344 137.855469 48.605469 137.523438 48.960938 137.421875 C 49.765625 138.074219 50.554688 138.757812 51.382812 139.375 C 52.078125 139.890625 52.777344 140.386719 53.121094 141.417969 C 52.777344 141.886719 52.496094 141.773438 52.207031 141.632812 C 50.066406 140.585938 47.917969 140.644531 45.691406 141.429688 C 44.605469 141.808594 43.953125 142.613281 43.253906 143.386719 C 42.6875 144.011719 42.496094 144.808594 42.46875 145.648438 C 41.105469 145.183594 39.964844 144.597656 38.925781 143.765625 C 38.160156 143.15625 37.296875 142.613281 36.226562 142.675781 C 36.207031 141.242188 36.171875 139.800781 36.171875 138.363281 C 36.171875 137.996094 36.183594 137.570312 36.359375 137.269531 C 36.960938 136.226562 36.871094 135.101562 36.875 133.980469 C 36.875 131.601562 36.875 129.226562 36.863281 126.671875 Z M 36.863281 126.675781 "/>
<path style=" stroke:none;fill-rule:nonzero;fill:rgb(30.588235%,30.588235%,17.647059%);fill-opacity:1;" d="M 45.261719 73.019531 C 44.488281 73.019531 43.71875 73.023438 42.609375 73.023438 C 40.933594 73.035156 39.601562 73.039062 38.214844 72.894531 C 38.070312 72.148438 37.699219 71.917969 37.128906 71.921875 C 35.835938 71.929688 34.542969 71.933594 33.117188 71.914062 C 32.886719 71.867188 32.792969 71.855469 32.707031 71.691406 C 32.773438 71.179688 32.839844 70.816406 32.898438 70.453125 C 33.1875 68.628906 32.945312 68.128906 31.316406 67.140625 C 31.054688 66.980469 30.816406 66.792969 30.652344 66.621094 C 30.730469 66.621094 30.890625 66.605469 31.03125 66.613281 C 32.203125 66.667969 32.589844 65.761719 33.242188 65.238281 C 33.96875 64.65625 34.039062 63.871094 33.886719 63.058594 C 33.734375 62.242188 33.167969 61.808594 32.375 61.570312 C 33.214844 60.316406 33.941406 59.113281 35.210938 58.3125 C 36.355469 59 37.476562 59.339844 38.636719 59.585938 C 39.425781 59.753906 40.207031 59.996094 41.035156 59.828125 C 41.148438 60.515625 41.515625 60.804688 41.976562 61.046875 C 43.992188 62.105469 46.003906 63.175781 48.003906 64.261719 C 48.707031 64.640625 49.378906 65.070312 50.0625 65.476562 C 50.046875 66.765625 50.015625 68.054688 50.015625 69.34375 C 50.015625 70.398438 49.882812 71.421875 49.273438 72.535156 C 48.289062 72.652344 47.554688 72.609375 46.832031 72.667969 C 46.304688 72.710938 45.785156 72.894531 45.261719 73.011719 Z M 45.261719 73.019531 "/>
<path style=" stroke:none;fill-rule:nonzero;fill:rgb(42.745098%,26.27451%,9.411765%);fill-opacity:1;" d="M 41.859375 16.507812 C 41.867188 14.136719 41.878906 11.765625 41.886719 9.394531 C 41.886719 9.140625 41.894531 8.890625 41.867188 8.644531 C 41.734375 7.390625 41 6.863281 39.808594 7.1875 C 39.328125 7.320312 38.867188 7.515625 38.398438 7.695312 C 37.058594 8.203125 35.722656 8.730469 34.371094 9.214844 C 33.988281 9.355469 33.5625 9.386719 33.078125 9.480469 C 32.929688 8.707031 32.804688 8.054688 32.667969 7.328125 C 32.273438 7.261719 31.917969 7.15625 31.558594 7.148438 C 30.5 7.125 29.433594 7.199219 28.375 7.125 C 26.628906 7.003906 25.070312 8.589844 24.855469 10.136719 C 24.78125 10.691406 24.71875 11.253906 24.71875 11.816406 C 24.703125 13.25 24.730469 14.6875 24.632812 16.304688 C 24.328125 16.40625 24.085938 16.371094 23.941406 16.230469 C 23.695312 15.988281 23.511719 15.683594 23.300781 15.40625 C 22.914062 12.933594 22.5 10.460938 22.152344 7.984375 C 22.046875 7.246094 22.058594 6.480469 22.136719 5.738281 C 22.367188 3.570312 23.535156 2.039062 25.464844 1.0625 C 26.777344 0.394531 28.179688 0.0742188 29.632812 0.0429688 C 32.136719 0 34.648438 -0.0273438 37.152344 0.0429688 C 39.289062 0.105469 41.175781 0.933594 42.757812 2.367188 C 43.820312 3.328125 44.554688 4.53125 44.457031 5.996094 C 44.242188 9.054688 44.097656 12.121094 43.351562 15.371094 C 43.0625 15.851562 42.875 16.089844 42.683594 16.324219 C 42.457031 16.601562 42.171875 16.605469 41.859375 16.503906 Z M 41.859375 16.507812 "/>
<path style=" stroke:none;fill-rule:nonzero;fill:rgb(36.078431%,35.294118%,20.784314%);fill-opacity:1;" d="M 50.210938 65.476562 C 49.375 65.078125 48.703125 64.648438 48 64.265625 C 46 63.183594 43.992188 62.113281 41.972656 61.050781 C 41.511719 60.808594 41.148438 60.519531 41.058594 59.710938 C 42.015625 57.832031 42.984375 56.234375 43.917969 54.609375 C 44.191406 54.132812 44.367188 53.59375 44.730469 53.082031 C 45.234375 53.140625 45.59375 53.191406 45.953125 53.257812 C 46.960938 53.445312 47.921875 53.910156 48.980469 53.832031 C 49.785156 54.726562 50.980469 54.816406 51.996094 55.257812 C 53.902344 56.085938 55.695312 57.039062 57.222656 58.472656 C 57.804688 59.015625 58.511719 59.429688 59.304688 59.949219 C 59.511719 61.105469 59.636719 62.21875 59.609375 63.328125 C 59.570312 64.871094 58.710938 65.847656 57.246094 66.308594 C 55.507812 66.855469 53.804688 66.554688 52.117188 66.078125 C 51.523438 65.910156 50.945312 65.675781 50.214844 65.476562 Z M 50.210938 65.476562 "/>
<path style=" stroke:none;fill-rule:nonzero;fill:rgb(70.588235%,70.196078%,60%);fill-opacity:1;" d="M 28.28125 47.796875 C 25.347656 43.691406 22.632812 39.445312 20.003906 34.988281 C 20.328125 33.769531 21.296875 33.222656 22.207031 32.511719 C 22.519531 32.589844 22.65625 32.660156 22.75 32.625 C 24.148438 32.128906 25.535156 31.828125 26.914062 32.703125 C 27.042969 32.789062 27.269531 32.714844 27.46875 32.863281 C 27.652344 33.59375 27.734375 34.222656 28.015625 34.742188 C 28.535156 35.699219 28.566406 36.886719 29.40625 37.832031 C 29.746094 39.933594 30.339844 41.816406 30.898438 43.707031 C 31.164062 44.617188 31.355469 45.503906 31.164062 46.542969 C 30.554688 47.140625 30.136719 47.742188 29.238281 47.414062 C 28.996094 47.328125 28.601562 47.65625 28.28125 47.792969 Z M 28.28125 47.796875 "/>
<path style=" stroke:none;fill-rule:nonzero;fill:rgb(70.588235%,70.196078%,60%);fill-opacity:1;" d="M 44.871094 32.71875 C 45.585938 33.167969 46.140625 33.757812 46.429688 34.835938 C 45.632812 36.949219 44.378906 38.492188 43.082031 40.015625 C 41.992188 41.285156 40.960938 42.609375 39.792969 43.988281 C 39.109375 44.9375 38.824219 45.96875 37.984375 46.6875 C 37.199219 47.363281 36.785156 48.429688 35.765625 48.96875 C 35.097656 48.675781 34.273438 48.675781 34.007812 47.667969 C 34.671875 46.890625 35.152344 45.929688 36.347656 45.71875 C 36.566406 45.679688 36.722656 45.292969 36.929688 45.03125 C 36.511719 44.539062 36.15625 44.117188 35.804688 43.546875 C 36.3125 41.484375 36.816406 39.574219 37.378906 37.539062 C 38.054688 35.84375 38.671875 34.273438 39.425781 32.6875 C 40.902344 31.816406 42.242188 31.984375 43.589844 32.664062 C 43.863281 32.800781 44.148438 32.941406 44.445312 32.992188 C 44.570312 33.011719 44.734375 32.8125 44.878906 32.714844 L 44.871094 32.714844 Z M 44.871094 32.71875 "/>
<path style=" stroke:none;fill-rule:nonzero;fill:rgb(40.392157%,41.568627%,22.745098%);fill-opacity:1;" d="M 21.488281 86.574219 C 22.78125 86.628906 24.089844 86.46875 25.460938 86.707031 C 25.53125 87.0625 25.636719 87.355469 25.636719 87.648438 C 25.652344 89.769531 25.667969 91.886719 25.644531 94.007812 C 25.625 95.492188 24.804688 96.328125 23.351562 96.359375 C 21.980469 96.390625 20.605469 96.394531 19.234375 96.351562 C 18.753906 96.335938 18.277344 96.144531 17.652344 96.007812 C 16.871094 95.242188 16.625 94.40625 16.660156 93.417969 C 16.722656 91.753906 16.671875 90.082031 16.679688 88.414062 C 16.679688 87.636719 16.53125 86.824219 17.351562 86.261719 C 17.515625 86.148438 17.4375 85.675781 17.625 85.238281 C 18.199219 85.464844 18.671875 85.777344 19.03125 86.191406 C 19.765625 87.035156 20.558594 87.171875 21.492188 86.574219 Z M 21.488281 86.574219 "/>
<path style=" stroke:none;fill-rule:nonzero;fill:rgb(40.392157%,41.568627%,22.745098%);fill-opacity:1;" d="M 49.382812 95.855469 C 48.425781 96.328125 47.5 96.402344 46.554688 96.375 C 45.558594 96.347656 44.554688 96.363281 43.554688 96.367188 C 42.828125 96.367188 42.222656 96.070312 41.679688 95.625 C 41.332031 95.339844 41.085938 94.976562 41.085938 94.5 C 41.113281 92.003906 41.148438 89.507812 41.183594 87.011719 C 41.183594 86.960938 41.246094 86.910156 41.363281 86.734375 C 41.679688 86.695312 42.09375 86.589844 42.511719 86.585938 C 44.699219 86.566406 46.886719 86.570312 49.257812 86.550781 C 49.757812 86.597656 50.058594 86.707031 50.0625 87.097656 C 50.074219 89.464844 50.066406 91.832031 50.074219 94.203125 C 50.074219 94.808594 49.773438 95.265625 49.378906 95.855469 Z M 49.382812 95.855469 "/>
<path style=" stroke:none;fill-rule:nonzero;fill:rgb(23.529412%,28.627451%,29.019608%);fill-opacity:1;" d="M 24.925781 145.332031 C 25.71875 145.359375 26.34375 144.96875 26.976562 144.554688 C 27.804688 144.007812 28.648438 143.484375 29.511719 143 C 29.824219 142.824219 30.210938 142.789062 30.703125 142.691406 C 30.871094 143.691406 30.925781 144.691406 30.917969 145.691406 C 30.914062 146.328125 30.621094 146.769531 30.085938 146.734375 C 28.980469 146.660156 28.199219 147.28125 27.328125 147.75 C 25.816406 148.566406 24.214844 149.027344 22.46875 148.996094 C 20.152344 148.957031 17.832031 148.988281 15.511719 148.984375 C 15.136719 148.984375 14.757812 148.996094 14.382812 148.960938 C 13.78125 148.902344 13.441406 148.613281 13.375 148.039062 C 13.308594 147.480469 13.328125 146.914062 13.5 146.1875 C 16.488281 146.019531 19.289062 146.019531 22.089844 146.019531 C 23.089844 146.019531 24.082031 145.992188 24.925781 145.339844 Z M 24.925781 145.332031 "/>
<path style=" stroke:none;fill-rule:nonzero;fill:rgb(23.529412%,28.627451%,29.019608%);fill-opacity:1;" d="M 36.191406 142.847656 C 37.296875 142.621094 38.160156 143.164062 38.925781 143.773438 C 39.964844 144.601562 41.105469 145.1875 42.621094 145.6875 C 43.523438 145.824219 44.136719 145.988281 44.75 145.996094 C 47.191406 146.027344 49.632812 146.023438 52.074219 146 C 52.628906 145.992188 53.183594 145.867188 53.738281 145.796875 C 53.746094 146.421875 53.800781 147.050781 53.757812 147.675781 C 53.6875 148.585938 53.347656 148.902344 52.46875 148.96875 C 52.09375 148.992188 51.71875 148.976562 51.339844 148.980469 C 49.144531 148.980469 46.949219 148.941406 44.757812 148.992188 C 42.8125 149.035156 41.03125 148.527344 39.390625 147.539062 C 38.683594 147.109375 38.019531 146.753906 37.144531 146.757812 C 36.449219 146.761719 36.171875 146.386719 36.148438 145.648438 C 36.121094 144.773438 36.148438 143.890625 36.191406 142.847656 Z M 36.191406 142.847656 "/>
<path style=" stroke:none;fill-rule:nonzero;fill:rgb(32.941176%,50.980392%,71.764706%);fill-opacity:1;" d="M 53.769531 145.675781 C 53.179688 145.867188 52.628906 145.992188 52.070312 146 C 49.628906 146.019531 47.1875 146.027344 44.746094 145.996094 C 44.128906 145.988281 43.519531 145.824219 42.753906 145.695312 C 42.496094 144.808594 42.683594 144.015625 43.25 143.390625 C 43.953125 142.617188 44.601562 141.816406 45.6875 141.433594 C 47.914062 140.648438 50.0625 140.589844 52.203125 141.640625 C 52.492188 141.78125 52.773438 141.894531 53.152344 141.550781 C 53.707031 142.066406 53.746094 142.800781 53.761719 143.53125 C 53.78125 144.207031 53.785156 144.878906 53.761719 145.675781 Z M 53.769531 145.675781 "/>
<path style=" stroke:none;fill-rule:nonzero;fill:rgb(32.941176%,50.980392%,71.764706%);fill-opacity:1;" d="M 24.863281 145.210938 C 24.085938 145.980469 23.09375 146.011719 22.09375 146.011719 C 19.292969 146.011719 16.492188 146.011719 13.523438 146.015625 C 13.351562 144.992188 13.347656 143.960938 13.417969 142.804688 C 13.800781 142.46875 14.117188 142.277344 14.40625 142.039062 C 14.996094 141.546875 15.632812 141.191406 16.417969 141.152344 C 16.667969 141.140625 16.921875 141.113281 17.160156 141.042969 C 20.097656 140.191406 23.410156 141.726562 24.539062 144.597656 C 24.605469 144.769531 24.714844 144.925781 24.867188 145.210938 Z M 24.863281 145.210938 "/>
<path style=" stroke:none;fill-rule:nonzero;fill:rgb(25.882353%,18.431373%,12.54902%);fill-opacity:1;" d="M 45.253906 73.195312 C 45.78125 72.898438 46.300781 72.714844 46.832031 72.671875 C 47.554688 72.613281 48.285156 72.660156 49.183594 72.65625 C 49.453125 73.011719 49.65625 73.375 49.644531 73.726562 C 49.597656 75.15625 49.90625 76.597656 49.394531 78.144531 C 48.074219 78.28125 46.824219 78.28125 45.625 78.28125 C 45.015625 77.445312 45.296875 76.605469 45.257812 75.816406 C 45.214844 75.003906 45.246094 74.1875 45.257812 73.199219 Z M 45.253906 73.195312 "/>
<path style=" stroke:none;fill-rule:nonzero;fill:rgb(50.980392%,50.588235%,52.54902%);fill-opacity:1;" d="M 44.808594 32.613281 C 44.730469 32.816406 44.566406 33.015625 44.441406 32.996094 C 44.148438 32.941406 43.859375 32.808594 43.585938 32.671875 C 42.238281 31.988281 40.898438 31.820312 39.382812 32.558594 C 39.085938 31.785156 38.96875 31.128906 38.859375 30.324219 C 38.859375 29.65625 38.859375 29.144531 38.851562 28.628906 C 38.851562 28.628906 39.035156 28.601562 39.121094 28.570312 C 41.292969 29.523438 43.132812 30.855469 44.808594 32.613281 Z M 44.808594 32.613281 "/>
<path style=" stroke:none;fill-rule:nonzero;fill:rgb(50.980392%,50.588235%,52.54902%);fill-opacity:1;" d="M 27.457031 32.714844 C 27.273438 32.714844 27.042969 32.789062 26.917969 32.703125 C 25.535156 31.828125 24.152344 32.128906 22.753906 32.625 C 22.65625 32.660156 22.523438 32.589844 22.328125 32.464844 C 23.6875 30.816406 25.460938 29.730469 27.421875 28.679688 C 27.644531 28.679688 27.75 28.742188 27.878906 29.03125 C 27.898438 29.539062 27.898438 29.828125 27.871094 30.269531 C 27.773438 31.195312 27.878906 31.996094 27.453125 32.714844 Z M 27.457031 32.714844 "/>
<path style=" stroke:none;fill-rule:nonzero;fill:rgb(92.941176%,79.607843%,69.803922%);fill-opacity:1;" d="M 41.847656 16.6875 C 42.171875 16.605469 42.460938 16.605469 42.683594 16.328125 C 42.875 16.089844 43.0625 15.851562 43.34375 15.515625 C 43.988281 15.75 44.117188 16.277344 44.089844 16.867188 C 44.011719 18.300781 43.695312 19.695312 43.273438 21.0625 C 43.109375 21.59375 42.683594 21.835938 41.988281 21.871094 C 41.839844 20.210938 41.839844 18.539062 41.851562 16.6875 Z M 41.847656 16.6875 "/>
<path style=" stroke:none;fill-rule:nonzero;fill:rgb(79.607843%,72.54902%,58.431373%);fill-opacity:1;" d="M 23.191406 15.496094 C 23.511719 15.6875 23.691406 15.992188 23.9375 16.234375 C 24.082031 16.375 24.328125 16.410156 24.640625 16.453125 C 24.742188 18.136719 24.726562 19.859375 24.613281 21.695312 C 24.042969 21.773438 23.660156 21.554688 23.527344 21.105469 C 23.078125 19.632812 22.671875 18.152344 22.707031 16.597656 C 22.714844 16.257812 22.953125 15.925781 23.191406 15.5 Z M 23.191406 15.496094 "/>
<path style=" stroke:none;fill-rule:nonzero;fill:rgb(76.078431%,59.607843%,47.45098%);fill-opacity:1;" d="M 47.546875 133.214844 C 47.863281 132.875 48.277344 132.925781 48.796875 132.953125 C 48.933594 133.449219 48.953125 133.9375 48.941406 134.558594 C 48.507812 134.667969 48.105469 134.640625 47.6875 134.4375 C 47.855469 134.132812 48.039062 134.003906 48.234375 133.859375 C 47.96875 133.613281 47.757812 133.414062 47.546875 133.214844 Z M 47.546875 133.214844 "/>
<path style=" stroke:none;fill-rule:nonzero;fill:rgb(79.607843%,63.921569%,23.529412%);fill-opacity:1;" d="M 48.605469 131.726562 C 48.304688 131.691406 48 131.660156 47.746094 131.511719 C 47.925781 131.289062 48.15625 131.195312 48.171875 131.074219 C 48.226562 130.648438 47.832031 130.660156 47.5625 130.558594 C 47.851562 130.175781 48.238281 130.214844 48.753906 130.339844 C 48.882812 130.722656 48.902344 131.0625 48.835938 131.539062 C 48.753906 131.6875 48.609375 131.726562 48.609375 131.726562 Z M 48.605469 131.726562 "/>
<path style=" stroke:none;fill-rule:nonzero;fill:rgb(76.078431%,59.607843%,47.45098%);fill-opacity:1;" d="M 48.964844 137.28125 C 48.597656 137.535156 48.273438 137.863281 47.890625 137.449219 C 48.078125 137.171875 48.238281 137.03125 48.417969 136.867188 C 48.09375 136.640625 47.824219 136.453125 47.554688 136.265625 C 47.929688 136.15625 48.304688 136.042969 48.796875 135.949219 C 48.9375 136.355469 48.957031 136.742188 48.964844 137.28125 Z M 48.964844 137.28125 "/>
<path style=" stroke:none;fill-rule:nonzero;fill:rgb(79.607843%,63.921569%,23.529412%);fill-opacity:1;" d="M 19.636719 131.414062 C 19.257812 131.710938 18.808594 131.6875 18.289062 131.339844 C 18.144531 131.144531 18.128906 131.039062 18.171875 130.84375 C 18.34375 130.691406 18.492188 130.621094 18.78125 130.703125 C 18.945312 131.324219 19.304688 131.351562 19.636719 131.414062 Z M 19.636719 131.414062 "/>
<path style=" stroke:none;fill-rule:nonzero;fill:rgb(76.078431%,59.607843%,47.45098%);fill-opacity:1;" d="M 48.644531 131.789062 C 48.605469 131.726562 48.75 131.683594 48.820312 131.667969 C 48.894531 131.652344 48.957031 131.828125 48.941406 131.917969 C 48.820312 131.988281 48.742188 131.933594 48.640625 131.789062 Z M 48.644531 131.789062 "/>
<path style=" stroke:none;fill-rule:nonzero;fill:rgb(85.882353%,74.901961%,32.156863%);fill-opacity:1;" d="M 28.636719 74.90625 C 29.335938 74.699219 29.769531 75.160156 30.339844 75.789062 C 30.496094 76.378906 30.539062 76.734375 30.582031 77.058594 C 32.445312 77.367188 35.050781 77.332031 36.472656 76.96875 C 36.496094 76.402344 36.546875 75.792969 36.546875 75.183594 C 36.546875 74.765625 36.472656 74.34375 36.421875 73.832031 C 35.550781 73.769531 34.757812 73.714844 33.964844 73.660156 C 33.746094 73.160156 33.523438 72.667969 33.277344 72.054688 C 34.542969 71.9375 35.835938 71.933594 37.128906 71.925781 C 37.695312 71.925781 38.070312 72.152344 38.175781 73.066406 C 38.207031 74.996094 38.222656 76.605469 38.246094 78.214844 C 38.066406 78.726562 37.753906 79.054688 37.164062 79.050781 C 34.679688 79.042969 32.199219 79.0625 29.714844 79.019531 C 29.398438 79.015625 29.085938 78.703125 28.714844 78.234375 C 28.652344 76.925781 28.644531 75.914062 28.640625 74.90625 Z M 28.636719 74.90625 "/>
<path style=" stroke:none;fill-rule:nonzero;fill:rgb(25.882353%,18.431373%,12.54902%);fill-opacity:1;" d="M 38.402344 78.234375 C 38.222656 76.605469 38.207031 74.996094 38.226562 73.21875 C 39.597656 73.042969 40.933594 73.035156 42.445312 73.03125 C 42.550781 74.695312 42.695312 76.367188 42.527344 78.03125 C 41.785156 78.414062 41.089844 78.269531 40.425781 78.289062 C 39.804688 78.304688 39.183594 78.269531 38.402344 78.234375 Z M 38.402344 78.234375 "/>
<path style=" stroke:none;fill-rule:nonzero;fill:rgb(25.882353%,18.431373%,12.54902%);fill-opacity:1;" d="M 28.503906 74.921875 C 28.640625 75.914062 28.652344 76.925781 28.636719 78.101562 C 27.859375 78.273438 27.105469 78.277344 26.191406 78.273438 C 26.300781 77.238281 26.972656 76.429688 27.5 75.546875 C 27.667969 75.269531 28.074219 75.132812 28.503906 74.921875 Z M 28.503906 74.921875 "/>
<path style=" stroke:none;fill-rule:nonzero;fill:rgb(92.941176%,79.607843%,69.803922%);fill-opacity:1;" d="M 27.898438 30.121094 C 27.898438 29.832031 27.898438 29.539062 27.933594 29.109375 C 28.148438 29.011719 28.367188 29.007812 28.507812 29.109375 C 29.921875 30.105469 31.527344 30.21875 33.179688 30.121094 C 33.492188 30.101562 33.808594 30.089844 34.117188 30.121094 C 35.691406 30.273438 37.105469 29.984375 38.226562 28.761719 C 38.300781 28.679688 38.457031 28.679688 38.710938 28.632812 C 38.855469 29.144531 38.859375 29.65625 38.734375 30.382812 C 37.355469 31.644531 35.945312 32.171875 34.285156 32.011719 C 33.605469 31.949219 32.910156 31.953125 32.226562 32.011719 C 30.886719 32.125 29.804688 31.566406 28.78125 30.804688 C 28.484375 30.585938 28.195312 30.351562 27.898438 30.121094 Z M 27.898438 30.121094 "/>
<path style=" stroke:none;fill-rule:nonzero;fill:rgb(40.392157%,41.568627%,22.745098%);fill-opacity:1;" d="M 24.410156 55.144531 C 23.785156 55.699219 23.109375 56.199219 22.347656 56.78125 C 21.738281 56.839844 21.234375 56.851562 20.738281 56.832031 C 19.363281 56.777344 18.53125 55.976562 18.503906 54.609375 C 18.46875 52.980469 18.492188 51.355469 18.492188 49.824219 C 18.960938 49.152344 19.527344 48.953125 20.179688 48.953125 C 21.429688 48.953125 22.679688 48.953125 23.925781 48.953125 C 24.515625 48.953125 25.027344 49.132812 25.546875 49.675781 C 25.6875 50.867188 24.847656 54.75 24.40625 55.144531 Z M 24.410156 55.144531 "/>
<path style=" stroke:none;fill-rule:nonzero;fill:rgb(100%,100%,100%);fill-opacity:1;" d="M 16.914062 60.308594 C 16.628906 60.382812 16.3125 60.335938 16.046875 60.195312 C 14.535156 59.363281 13.027344 58.511719 11.53125 57.648438 C 11.34375 57.542969 11.226562 57.3125 11.074219 57.011719 C 12.507812 55.511719 13.945312 54.136719 15.386719 52.769531 C 15.785156 52.390625 16.191406 52.019531 16.621094 51.625 C 17.027344 52.65625 17.09375 54.804688 16.910156 60.308594 Z M 16.914062 60.308594 "/>
<path style=" stroke:none;fill-rule:nonzero;fill:rgb(30.588235%,30.588235%,17.647059%);fill-opacity:1;" d="M 24.144531 64.128906 C 24.144531 64.269531 24.015625 64.378906 23.933594 64.394531 C 23.007812 64.285156 22.40625 63.792969 21.894531 63.007812 C 22.648438 61.917969 23.351562 60.886719 24.214844 60.007812 C 25.191406 59.011719 25.992188 57.953125 26.429688 56.613281 C 26.527344 56.3125 26.820312 56.070312 27.125 55.660156 C 27.519531 56.542969 27.835938 57.242188 28.203125 58.066406 C 27.253906 59.1875 26.289062 60.382812 25.261719 61.527344 C 24.617188 62.242188 24.074219 62.96875 24.140625 64.128906 Z M 24.144531 64.128906 "/>
<path style=" stroke:none;fill-rule:nonzero;fill:rgb(40.392157%,41.568627%,22.745098%);fill-opacity:1;" d="M 42.191406 50.253906 C 42.421875 49.875 42.648438 49.496094 42.929688 49.019531 C 44.882812 48.941406 46.78125 48.96875 48.738281 48.996094 C 49.199219 50.554688 48.894531 52.03125 48.984375 53.660156 C 47.921875 53.914062 46.964844 53.445312 45.953125 53.257812 C 45.597656 53.195312 45.238281 53.144531 44.65625 52.980469 C 43.894531 51.820312 43.109375 50.984375 42.191406 50.253906 Z M 42.191406 50.253906 "/>
<path style=" stroke:none;fill-rule:nonzero;fill:rgb(23.529412%,28.627451%,29.019608%);fill-opacity:1;" d="M 24.464844 134.375 C 22.796875 134.4375 21.132812 134.492188 19.464844 134.570312 C 18.839844 134.59375 18.679688 134.363281 18.792969 133.410156 C 20.554688 133.125 22.347656 133.328125 24.367188 133.363281 C 24.851562 133.671875 24.921875 133.964844 24.585938 134.242188 C 24.539062 134.28125 24.503906 134.332031 24.464844 134.378906 Z M 24.464844 134.375 "/>
<path style=" stroke:none;fill-rule:nonzero;fill:rgb(23.529412%,28.627451%,29.019608%);fill-opacity:1;" d="M 24.492188 137.386719 C 23.050781 137.386719 21.609375 137.390625 20.167969 137.382812 C 19.71875 137.382812 19.277344 137.34375 19.074219 136.835938 C 19.273438 136.332031 19.714844 136.289062 20.164062 136.285156 C 21.480469 136.277344 22.796875 136.285156 24.351562 136.371094 C 24.84375 136.671875 24.929688 136.960938 24.605469 137.246094 C 24.558594 137.28125 24.527344 137.339844 24.492188 137.386719 Z M 24.492188 137.386719 "/>
<path style=" stroke:none;fill-rule:nonzero;fill:rgb(23.529412%,28.627451%,29.019608%);fill-opacity:1;" d="M 19.808594 131.40625 C 19.304688 131.351562 18.945312 131.324219 18.898438 130.734375 C 18.875 130.609375 18.859375 130.617188 18.988281 130.636719 C 19.289062 130.632812 19.460938 130.609375 19.628906 130.589844 C 21.15625 130.589844 22.679688 130.589844 24.496094 130.609375 C 24.917969 130.800781 25.050781 130.964844 25.179688 131.132812 C 24.96875 131.230469 24.757812 131.328125 24.550781 131.425781 C 23.027344 131.414062 21.5 131.40625 19.804688 131.40625 Z M 19.808594 131.40625 "/>
<path style=" stroke:none;fill-rule:nonzero;fill:rgb(60.784314%,43.921569%,32.54902%);fill-opacity:1;" d="M 24.550781 134.480469 C 24.503906 134.328125 24.539062 134.273438 24.582031 134.238281 C 24.917969 133.960938 24.90625 133.671875 24.539062 133.367188 C 24.679688 133.167969 24.878906 132.964844 25.085938 132.960938 C 25.296875 132.953125 25.546875 133.097656 25.714844 133.25 C 26.011719 133.519531 26.085938 133.882812 25.863281 134.242188 C 25.570312 134.71875 25.167969 134.90625 24.550781 134.480469 Z M 24.550781 134.480469 "/>
<path style=" stroke:none;fill-rule:nonzero;fill:rgb(60.784314%,43.921569%,32.54902%);fill-opacity:1;" d="M 24.578125 137.488281 C 24.527344 137.339844 24.558594 137.28125 24.605469 137.246094 C 24.925781 136.960938 24.898438 136.671875 24.519531 136.378906 C 25.195312 135.875 25.367188 135.863281 25.703125 136.214844 C 25.980469 136.507812 26.089844 136.84375 25.875 137.207031 C 25.59375 137.683594 25.207031 137.910156 24.578125 137.492188 Z M 24.578125 137.488281 "/>
<path style=" stroke:none;fill-rule:nonzero;fill:rgb(79.607843%,63.921569%,23.529412%);fill-opacity:1;" d="M 24.625 131.527344 C 24.761719 131.328125 24.972656 131.230469 25.183594 131.136719 C 25.050781 130.96875 24.921875 130.800781 24.675781 130.605469 C 24.894531 130.125 25.28125 130.160156 25.660156 130.5 C 25.910156 130.722656 25.992188 131.023438 25.804688 131.335938 C 25.535156 131.792969 25.152344 131.855469 24.625 131.53125 Z M 24.625 131.527344 "/>
<path style=" stroke:none;fill-rule:nonzero;fill:rgb(79.607843%,63.921569%,23.529412%);fill-opacity:1;" d="M 19.574219 130.492188 C 19.460938 130.609375 19.289062 130.632812 18.992188 130.644531 C 18.933594 130.15625 19.222656 130.261719 19.574219 130.492188 Z M 19.574219 130.492188 "/>
<path style=" stroke:none;fill-rule:nonzero;fill:rgb(23.529412%,28.627451%,29.019608%);fill-opacity:1;" d="M 47.371094 136.273438 C 47.824219 136.457031 48.09375 136.640625 48.417969 136.867188 C 48.238281 137.03125 48.082031 137.171875 47.8125 137.363281 C 46.144531 137.402344 44.582031 137.394531 42.761719 137.320312 C 42.003906 136.832031 42.003906 136.835938 42.582031 136.535156 C 42.683594 136.480469 42.757812 136.382812 42.847656 136.304688 C 44.296875 136.296875 45.742188 136.289062 47.371094 136.277344 Z M 47.371094 136.273438 "/>
<path style=" stroke:none;fill-rule:nonzero;fill:rgb(23.529412%,28.627451%,29.019608%);fill-opacity:1;" d="M 47.367188 133.234375 C 47.761719 133.414062 47.972656 133.609375 48.238281 133.859375 C 48.039062 134.003906 47.859375 134.132812 47.601562 134.351562 C 46.035156 134.417969 44.542969 134.398438 42.796875 134.3125 C 42.367188 134.121094 42.191406 134 41.988281 133.851562 C 42.324219 133.625 42.5625 133.464844 42.804688 133.300781 C 44.265625 133.285156 45.726562 133.265625 47.363281 133.234375 Z M 47.367188 133.234375 "/>
<path style=" stroke:none;fill-rule:nonzero;fill:rgb(23.529412%,28.627451%,29.019608%);fill-opacity:1;" d="M 47.386719 130.570312 C 47.832031 130.65625 48.226562 130.644531 48.171875 131.074219 C 48.15625 131.191406 47.921875 131.289062 47.671875 131.417969 C 46.089844 131.441406 44.632812 131.429688 42.871094 131.417969 C 42.320312 131.394531 42.074219 131.378906 41.828125 131.359375 C 41.828125 131.359375 41.828125 131.378906 41.863281 131.25 C 41.878906 130.957031 41.863281 130.785156 41.84375 130.617188 C 41.84375 130.617188 41.828125 130.617188 41.964844 130.648438 C 42.285156 130.65625 42.46875 130.632812 42.65625 130.609375 C 44.171875 130.601562 45.6875 130.59375 47.386719 130.574219 Z M 47.386719 130.570312 "/>
<path style=" stroke:none;fill-rule:nonzero;fill:rgb(79.215686%,54.509804%,27.058824%);fill-opacity:1;" d="M 42.707031 133.238281 C 42.566406 133.464844 42.328125 133.625 41.992188 133.851562 C 42.195312 134 42.367188 134.125 42.632812 134.3125 C 42.457031 134.683594 42.132812 134.820312 41.769531 134.578125 C 41.414062 134.34375 41.308594 133.828125 41.550781 133.449219 C 41.800781 133.054688 42.148438 132.851562 42.707031 133.238281 Z M 42.707031 133.238281 "/>
<path style=" stroke:none;fill-rule:nonzero;fill:rgb(79.215686%,54.509804%,27.058824%);fill-opacity:1;" d="M 42.746094 136.238281 C 42.757812 136.378906 42.683594 136.480469 42.582031 136.53125 C 42.003906 136.832031 42.003906 136.828125 42.59375 137.320312 C 42.375 137.726562 42.054688 137.761719 41.714844 137.441406 C 41.402344 137.144531 41.335938 136.78125 41.550781 136.429688 C 41.8125 136.003906 42.179688 135.824219 42.746094 136.238281 Z M 42.746094 136.238281 "/>
<path style=" stroke:none;fill-rule:nonzero;fill:rgb(79.607843%,63.921569%,23.529412%);fill-opacity:1;" d="M 41.839844 131.472656 C 42.074219 131.378906 42.320312 131.394531 42.691406 131.4375 C 42.53125 131.796875 42.214844 131.847656 41.839844 131.472656 Z M 41.839844 131.472656 "/>
<path style=" stroke:none;fill-rule:nonzero;fill:rgb(79.607843%,63.921569%,23.529412%);fill-opacity:1;" d="M 41.726562 130.644531 C 41.863281 130.785156 41.878906 130.957031 41.871094 131.25 C 41.359375 131.277344 41.425781 130.992188 41.726562 130.644531 Z M 41.726562 130.644531 "/>
<path style=" stroke:none;fill-rule:nonzero;fill:rgb(79.607843%,63.921569%,23.529412%);fill-opacity:1;" d="M 42.59375 130.507812 C 42.46875 130.632812 42.285156 130.65625 41.964844 130.660156 C 41.929688 130.160156 42.21875 130.246094 42.59375 130.507812 Z M 42.59375 130.507812 "/>
<path style=" stroke:none;fill-rule:nonzero;fill:rgb(99.215686%,87.843137%,80%);fill-opacity:1;" d="M 27.871094 30.269531 C 28.195312 30.351562 28.484375 30.585938 28.78125 30.804688 C 29.804688 31.566406 30.886719 32.125 32.226562 32.011719 C 32.910156 31.957031 33.605469 31.949219 34.285156 32.011719 C 35.945312 32.171875 37.351562 31.644531 38.722656 30.535156 C 38.964844 31.128906 39.085938 31.785156 39.246094 32.570312 C 38.667969 34.273438 38.046875 35.84375 37.210938 37.539062 C 35.402344 37.980469 33.789062 38.085938 32.171875 37.992188 C 31.25 37.941406 30.328125 37.789062 29.40625 37.683594 C 28.566406 36.886719 28.535156 35.699219 28.015625 34.742188 C 27.734375 34.222656 27.65625 33.59375 27.46875 32.863281 C 27.875 31.996094 27.769531 31.191406 27.871094 30.269531 Z M 27.871094 30.269531 "/>
<path style=" stroke:none;fill-rule:nonzero;fill:rgb(64.705882%,64.313725%,64.313725%);fill-opacity:1;" d="M 29.410156 37.832031 C 30.332031 37.789062 31.253906 37.9375 32.175781 37.992188 C 33.792969 38.085938 35.402344 37.980469 37.15625 37.664062 C 36.8125 39.574219 36.308594 41.484375 35.800781 43.546875 C 35.433594 43.46875 35.078125 43.234375 34.726562 43.011719 C 34.085938 43.082031 33.984375 43.503906 33.867188 44.027344 C 33.632812 45.101562 32.585938 46.164062 31.398438 46.496094 C 31.355469 45.5 31.164062 44.613281 30.898438 43.707031 C 30.34375 41.8125 29.746094 39.929688 29.40625 37.828125 L 29.410156 37.828125 Z M 29.410156 37.832031 "/>
<path style=" stroke:none;fill-rule:nonzero;fill:rgb(25.882353%,18.431373%,12.54902%);fill-opacity:1;" d="M 33.898438 73.777344 C 34.761719 73.714844 35.554688 73.765625 36.425781 73.828125 C 36.472656 74.34375 36.546875 74.761719 36.546875 75.183594 C 36.546875 75.789062 36.5 76.398438 36.472656 76.96875 C 35.050781 77.328125 32.449219 77.363281 30.585938 77.058594 C 30.542969 76.730469 30.5 76.378906 30.449219 75.851562 C 31.578125 75.085938 32.703125 74.492188 33.898438 73.777344 Z M 33.898438 73.777344 "/>
<path style=" stroke:none;fill-rule:nonzero;fill:rgb(47.45098%,49.411765%,25.882353%);fill-opacity:1;" d="M 23.75 77.925781 C 22.730469 78.066406 22.253906 77.257812 21.625 76.707031 C 21.03125 76.1875 21.160156 75.492188 21.128906 74.679688 C 21.488281 73.996094 21.855469 73.464844 22.242188 72.8125 C 22.71875 72.988281 23.175781 73.289062 23.699219 73.851562 C 23.761719 75.390625 23.753906 76.660156 23.75 77.929688 Z M 23.75 77.925781 "/>
<path style=" stroke:none;fill-rule:nonzero;fill:rgb(25.882353%,18.431373%,12.54902%);fill-opacity:1;" d="M 23.757812 78.023438 C 23.757812 76.660156 23.757812 75.390625 23.761719 73.949219 C 24.570312 73.960938 25.375 74.144531 26.292969 74.40625 C 25.972656 75.234375 25.5625 76 25.097656 76.730469 C 24.769531 77.246094 24.367188 77.710938 23.875 78.25 C 23.761719 78.300781 23.761719 78.113281 23.753906 78.019531 L 23.757812 78.019531 Z M 23.757812 78.023438 "/>
<path style=" stroke:none;fill-rule:nonzero;fill:rgb(47.45098%,49.411765%,25.882353%);fill-opacity:1;" d="M 18.15625 78.835938 C 19.496094 78.664062 20.136719 79.421875 20.367188 80.785156 C 19.265625 80.675781 18.621094 79.921875 18.15625 78.835938 Z M 18.15625 78.835938 "/>
<path style=" stroke:none;fill-rule:nonzero;fill:rgb(64.705882%,64.313725%,64.313725%);fill-opacity:1;" d="M 33.472656 50.082031 C 33.882812 50.195312 34.160156 50.304688 34.53125 50.449219 C 34.226562 51.3125 33.621094 51.777344 32.964844 52.328125 C 32.613281 52.03125 32.308594 51.769531 31.980469 51.488281 C 32.210938 50.722656 32.625 50.257812 33.476562 50.085938 L 33.472656 50.085938 Z M 33.472656 50.082031 "/>
<path style=" stroke:none;fill-rule:nonzero;fill:rgb(30.588235%,30.588235%,17.647059%);fill-opacity:1;" d="M 28.941406 53.394531 C 29.207031 53.304688 29.371094 53.289062 29.542969 53.273438 C 29.550781 53.441406 29.589844 53.609375 29.558594 53.769531 C 29.535156 53.875 29.421875 53.972656 29.332031 54.058594 C 29.117188 54.265625 28.828125 54.605469 28.566406 54.371094 C 28.160156 54 28.652344 53.75 28.941406 53.394531 Z M 28.941406 53.394531 "/>
<path style=" stroke:none;fill-rule:nonzero;fill:rgb(80%,69.803922%,57.254902%);fill-opacity:1;" d="M 64.835938 22.554688 C 64.746094 22.683594 64.671875 22.8125 64.578125 22.933594 C 58.398438 30.777344 46.34375 45.847656 43.265625 49.613281 C 42.835938 50.144531 42.578125 50.449219 42.542969 50.480469 C 42.191406 50.53125 41.855469 50.550781 41.472656 50.550781 C 40.71875 50.351562 39.941406 48.378906 39.917969 47.96875 C 40.078125 47.347656 40.410156 46.894531 40.769531 46.453125 C 47.710938 37.660156 54.644531 28.867188 61.585938 20.0625 C 61.679688 19.941406 61.78125 19.828125 61.925781 19.703125 C 62.015625 19.722656 62.058594 19.734375 62.101562 19.773438 C 62.96875 20.625 63.84375 21.480469 64.714844 22.34375 C 64.761719 22.390625 64.796875 22.476562 64.839844 22.558594 L 64.835938 22.558594 Z M 64.835938 22.554688 "/>
<path style=" stroke:none;fill-rule:nonzero;fill:rgb(64.705882%,64.705882%,64.313725%);fill-opacity:1;" d="M 52.714844 9.789062 C 53.117188 9.832031 53.484375 9.894531 53.859375 9.921875 C 55.054688 10.023438 56.214844 10.324219 57.355469 10.695312 C 59.132812 11.277344 60.824219 12.058594 62.433594 13.015625 C 63.1875 13.464844 63.90625 13.964844 64.664062 14.480469 C 64.65625 14.566406 64.636719 14.625 64.601562 14.671875 C 63.828125 15.554688 63.050781 16.433594 62.269531 17.308594 C 62.210938 17.367188 62.132812 17.398438 62.0625 17.449219 C 61.558594 17.074219 61.078125 16.65625 60.546875 16.324219 C 59.046875 15.410156 57.542969 14.484375 55.996094 13.660156 C 54.222656 12.707031 52.332031 12.003906 50.347656 11.613281 C 49.371094 11.414062 48.386719 11.285156 47.414062 11.132812 C 48.265625 10.53125 49.261719 10.164062 50.351562 9.976562 C 51.140625 9.890625 51.914062 9.839844 52.714844 9.789062 Z M 52.714844 9.789062 "/>
<path style=" stroke:none;fill-rule:nonzero;fill:rgb(64.705882%,64.705882%,64.313725%);fill-opacity:1;" d="M 69.644531 18.828125 C 70.179688 19.46875 70.71875 20.09375 71.238281 20.742188 C 72.253906 21.996094 73.144531 23.339844 73.855469 24.78125 C 74.269531 25.605469 74.671875 26.445312 74.980469 27.3125 C 75.296875 28.203125 75.484375 29.140625 75.761719 30.0625 C 75.832031 30.847656 75.878906 31.613281 75.929688 32.417969 C 75.863281 32.917969 75.835938 33.386719 75.722656 33.835938 C 75.578125 34.429688 75.371094 35.003906 75.164062 35.648438 C 74.867188 34.625 74.632812 33.691406 74.332031 32.785156 C 73.820312 31.230469 73.078125 29.785156 72.226562 28.390625 C 71.242188 26.785156 70.140625 25.273438 68.90625 23.855469 C 68.304688 23.167969 67.679688 22.507812 67.042969 21.792969 C 67.050781 21.703125 67.070312 21.648438 67.105469 21.605469 C 67.871094 20.726562 68.636719 19.859375 69.410156 18.988281 C 69.476562 18.925781 69.570312 18.890625 69.648438 18.832031 L 69.644531 18.832031 Z M 69.644531 18.828125 "/>
<path style=" stroke:none;fill-rule:nonzero;fill:rgb(50.196078%,43.529412%,36.862745%);fill-opacity:1;" d="M 69.652344 18.804688 C 69.566406 18.878906 69.472656 18.921875 69.410156 18.984375 C 68.632812 19.855469 67.867188 20.726562 67.101562 21.601562 C 67.066406 21.640625 67.046875 21.699219 67.015625 21.777344 C 66.660156 22.132812 66.355469 22.566406 65.8125 22.527344 C 65.484375 22.503906 65.171875 22.347656 64.832031 22.242188 C 64.761719 22.164062 64.734375 22.082031 64.671875 22.03125 C 63.808594 21.265625 62.945312 20.503906 62.074219 19.746094 C 62.042969 19.71875 61.992188 19.695312 61.929688 19.671875 C 61.277344 18.960938 61.316406 18.289062 62.039062 17.453125 C 62.117188 17.386719 62.203125 17.355469 62.25 17.292969 C 63.03125 16.414062 63.8125 15.535156 64.585938 14.652344 C 64.621094 14.613281 64.636719 14.554688 64.671875 14.476562 C 65.019531 14.15625 65.339844 13.8125 65.726562 13.589844 C 66.175781 13.328125 66.660156 13.46875 67.039062 13.792969 C 68.03125 14.640625 69.007812 15.511719 69.988281 16.382812 C 70.558594 16.894531 70.566406 17.6875 70.011719 18.378906 C 69.902344 18.527344 69.777344 18.652344 69.648438 18.808594 Z M 69.652344 18.804688 "/>
<path style=" stroke:none;fill-rule:nonzero;fill:rgb(80%,69.803922%,57.254902%);fill-opacity:1;" d="M 42.785156 46.058594 L 46.105469 46.589844 L 44.296875 48.808594 L 36.121094 57.53125 "/>
<path style=" stroke:none;fill-rule:nonzero;fill:rgb(25.882353%,18.431373%,12.54902%);fill-opacity:1;" d="M 18.515625 73.625 C 19.042969 73.324219 19.5625 73.144531 20.089844 73.101562 C 20.816406 73.042969 21.546875 73.085938 22.441406 73.085938 C 22.714844 73.4375 22.917969 73.800781 22.90625 74.15625 C 22.859375 75.585938 23.167969 77.027344 22.65625 78.574219 C 21.335938 78.710938 20.085938 78.710938 18.886719 78.710938 C 18.277344 77.875 18.558594 77.03125 18.519531 76.246094 C 18.476562 75.433594 18.507812 74.617188 18.519531 73.625 Z M 18.515625 73.625 "/>
<path style=" stroke:none;fill-rule:nonzero;fill:rgb(40.392157%,41.568627%,22.745098%);fill-opacity:1;" d="M 25.003906 53.574219 L 25.414062 56.636719 L 25.585938 49.75 L 25.003906 53.574219 L 25.425781 56.714844 L 22.328125 56.78125 L 24.429688 49.601562 "/>
<path style=" stroke:none;fill-rule:nonzero;fill:rgb(80%,69.803922%,57.254902%);fill-opacity:1;" d="M 36.441406 57.839844 L 47.617188 44.6875 L 12.585938 86.550781 L 9.503906 82.972656 L 51.195312 34.144531 "/>
<path style=" stroke:none;fill-rule:nonzero;fill:rgb(64.705882%,64.313725%,64.313725%);fill-opacity:1;" d="M 31.925781 45.828125 L 32.820312 42.246094 C 32.886719 41.980469 33.15625 41.820312 33.417969 41.886719 L 35.515625 42.410156 C 35.78125 42.476562 35.941406 42.746094 35.875 43.007812 L 34.980469 46.589844 C 34.914062 46.851562 34.648438 47.011719 34.382812 46.949219 L 32.285156 46.421875 C 32.019531 46.355469 31.859375 46.089844 31.925781 45.828125 Z M 31.925781 45.828125 "/>
<path style=" stroke:none;fill-rule:nonzero;fill:rgb(70.588235%,70.196078%,60%);fill-opacity:1;" d="M 35.804688 43.53125 L 37.273438 43.53125 L 37.273438 45.9375 L 35.804688 45.9375 Z M 35.804688 43.53125 "/>
<path style=" stroke:none;fill-rule:nonzero;fill:rgb(70.588235%,70.196078%,60%);fill-opacity:1;" d="M 35.023438 46.363281 L 35.808594 43.234375 L 36.457031 43.394531 L 35.671875 46.527344 Z M 35.023438 46.363281 "/>
<path style=" stroke:none;fill-rule:nonzero;fill:rgb(99.215686%,87.843137%,80%);fill-opacity:1;" d="M 24.144531 64.269531 C 24.539062 64.269531 24.933594 64.261719 25.59375 64.316406 C 26.667969 64.742188 27.472656 65.105469 28.375 65.558594 C 29.167969 65.972656 29.867188 66.296875 30.566406 66.625 C 30.816406 66.796875 31.054688 66.988281 31.3125 67.144531 C 32.941406 68.132812 33.183594 68.632812 32.894531 70.457031 C 32.839844 70.820312 32.773438 71.183594 32.703125 71.691406 C 32.554688 72.105469 32.390625 72.371094 32.269531 72.648438 C 31.679688 74.015625 30.628906 74.625 29.167969 74.558594 C 28.359375 74.523438 27.550781 74.484375 26.464844 74.390625 C 25.375 74.144531 24.570312 73.960938 23.699219 73.675781 C 23.171875 73.285156 22.71875 72.984375 22.261719 72.691406 C 22.101562 72.449219 21.941406 72.207031 21.695312 71.902344 C 21.671875 71.40625 21.675781 70.960938 21.808594 70.558594 C 22.445312 68.59375 23.121094 66.640625 23.898438 64.53125 C 24.015625 64.378906 24.148438 64.269531 24.148438 64.269531 Z M 24.144531 64.269531 "/>
<path style=" stroke:none;fill-rule:nonzero;fill:rgb(36.078431%,35.294118%,20.784314%);fill-opacity:1;" d="M 1.726562 55.808594 C 2.070312 55.71875 2.335938 55.769531 2.558594 55.699219 C 4.953125 54.949219 7.140625 55.714844 9.328125 56.566406 C 9.773438 56.738281 10.277344 56.765625 10.914062 57 C 11.226562 57.308594 11.34375 57.539062 11.53125 57.648438 C 13.027344 58.511719 14.535156 59.359375 16.046875 60.195312 C 16.308594 60.339844 16.625 60.382812 16.917969 60.476562 C 17.199219 60.996094 17.703125 61.175781 18.425781 61.453125 C 19.621094 62.238281 20.542969 63.0625 21.890625 63.007812 C 22.402344 63.792969 23.007812 64.28125 23.8125 64.546875 C 23.117188 66.640625 22.441406 68.589844 21.804688 70.554688 C 21.675781 70.960938 21.667969 71.40625 21.488281 71.851562 C 21.296875 71.878906 21.21875 71.890625 21.082031 71.785156 C 20.148438 71.070312 20.003906 71.042969 19.453125 71.519531 C 19.085938 71.84375 18.746094 72.195312 18.402344 72.546875 C 18.082031 72.867188 17.714844 73.046875 17.25 72.992188 C 17.539062 72.011719 16.832031 71.210938 16.871094 70.222656 C 15.300781 69.769531 13.808594 69.34375 12.320312 68.902344 C 9.863281 68.171875 7.429688 67.367188 5.125 66.238281 C 4.007812 65.691406 2.933594 65.035156 1.90625 64.332031 C 0.496094 63.363281 -0.0585938 61.949219 0.09375 60.261719 C 0.183594 59.261719 0.402344 58.289062 0.871094 57.386719 C 1.132812 56.890625 1.378906 56.386719 1.730469 55.800781 L 1.730469 55.808594 Z M 1.726562 55.808594 "/>
<path style=" stroke:none;fill-rule:nonzero;fill:rgb(99.215686%,87.843137%,80%);fill-opacity:1;" d="M 42.054688 50.269531 C 43.105469 50.984375 43.890625 51.816406 44.507812 52.976562 C 44.367188 53.59375 44.191406 54.132812 43.917969 54.609375 C 42.984375 56.234375 42.015625 57.835938 41.035156 59.566406 C 40.207031 60 39.429688 59.753906 38.636719 59.589844 C 37.476562 59.339844 36.355469 59 35.15625 58.195312 C 34.214844 57.148438 34.179688 56.011719 33.894531 54.957031 C 34.171875 53.875 34.421875 52.785156 34.730469 51.714844 C 34.851562 51.304688 35.078125 50.910156 35.3125 50.550781 C 36.183594 49.21875 37.566406 48.996094 38.847656 49.964844 C 39.09375 50.152344 39.292969 50.394531 39.527344 50.601562 C 39.753906 50.800781 39.992188 50.980469 40.210938 51.160156 C 40.828125 50.84375 41.371094 50.5625 42.054688 50.269531 Z M 42.054688 50.269531 "/>
</g>
</svg>
