<?xml version="1.0" encoding="utf-8"?>
<!-- Generator: Adobe Illustrator 26.5.0, SVG Export Plug-In . SVG Version: 6.00 Build 0)  -->
<svg version="1.1" id="Laag_1" xmlns="http://www.w3.org/2000/svg" xmlns:xlink="http://www.w3.org/1999/xlink" x="0px" y="0px"
	 viewBox="0 0 254.5 500" style="enable-background:new 0 0 254.5 500;" xml:space="preserve">
<style type="text/css">
	.st0{fill:#4E4E2D;}
	.st1{fill:#422F20;}
	.st2{fill:#797E42;}
	.st3{fill:#FDE0CC;}
	.st4{fill:#516084;}
	.st5{fill:#6D4318;}
	.st6{fill:#5C5A35;}
	.st7{fill:#B4B399;}
	.st8{fill:#676A3A;}
	.st9{fill:#3C494A;}
	.st10{fill:#5482B7;}
	.st11{fill:#828186;}
	.st12{fill:#EDCBB2;}
	.st13{fill:#CBB995;}
	.st14{fill:#C29879;}
	.st15{fill:#CBA33C;}
	.st16{fill:#DBBF52;}
	.st17{fill:#FFFFFF;}
	.st18{fill:#9B7053;}
	.st19{fill:#CA8B45;}
	.st20{fill:#A5A4A4;}
	.st21{fill:#CCB292;}
	.st22{fill:#A5A5A4;}
	.st23{fill:#806F5E;}
</style>
<rect x="65.3" y="231.2" class="st0" width="68.7" height="27.9"/>
<path class="st1" d="M110.3,245.9c4.1-0.2,8,0,12.2,0.2c0.2,1.7,0.6,3.1,0.6,4.5c0,2-0.2,4.1-0.4,6c-6.8,1.2-19.4,1.3-28.4,0.3
	c-0.2-1.1-0.4-2.3-0.6-4C99.2,250.3,104.6,248.3,110.3,245.9L110.3,245.9L110.3,245.9z"/>
<rect x="96.1" y="205.4" class="st0" width="18.7" height="22.4"/>
<rect x="59.2" y="251.4" class="st2" width="32.3" height="50.2"/>
<polygon class="st0" points="62.3,204.5 100.5,150.1 129.8,162.8 80.8,220.3 "/>
<rect x="49.8" y="174.4" transform="matrix(0.405 -0.9143 0.9143 0.405 -122.2137 180.665)" class="st0" width="55.8" height="19.7"/>
<path class="st2" d="M59.5,423.4c-0.4-0.5-1-0.9-1-1.5c-0.2-1.2-0.2-2.5-0.2-3.7c0-31.6,0-63.3,0.6-95.4c2.2-0.1,3.8,0.5,5.4,0.6
	c4.6,0.1,9.2,0.1,13.8,0c4.9-0.1,7.6-2.9,7.7-7.9c0.1-7.1,0-14.2,0-21.4c0-1-0.4-2-0.6-3.1c-4.6-0.8-9-0.3-13.3-0.9
	c1.8-3.7,3.5-7,5.3-10.2c3.2-5.8,6.6-11.5,10.4-17.2c3.1,0,5.6,0,8.4,0.4c1.3,1,2.4,2.1,3.4,2.1c8.3,0.1,16.7,0.1,25,0.1
	c2,0,3-1.1,4.2-2.7c2.6,0.1,4.7,0.2,6.8,0.2c2.2-0.1,4.6,0.4,7.1-0.9c0.6-5.6,0.1-11.2,0.9-16.8c3.1,0,5.7,0,8.3,0.6
	c0,3.3-0.1,6.1,0,8.8c0.1,2.6-0.8,5.5,1.2,8.3h12.4c0.1,8.9,0.2,17.7-0.2,27.2c-7.9,0.6-15.2,0.6-22.6,0.7c-1.4,0-2.8,0.4-3.9,0.5
	c-0.4,0.6-0.6,0.8-0.6,0.9c-0.1,8.4-0.2,16.8-0.3,25.1c0,1.6,0.8,2.8,2,3.8c1.8,1.5,3.9,2.5,6.3,2.5c3.4,0,6.7-0.1,10.1,0
	c3.2,0.1,6.3-0.2,9.2-1.3c0.1,1.5,0.2,2.9,0.2,4.4c0.1,30.2,0.1,60.5,0.1,90.7c0,1.9-0.3,3.7-0.9,5.5c-1-2.7-2.8-3.4-5.1-3.4
	c-2.2,0-3.7,1-4.3,3c-0.6,1.8-0.8,3.6-1.3,5.5c-0.2,1-0.4,2-1.9,1.9c-0.6-2.4-1.2-4.9-1.9-7.2c-0.5-1.8-1.8-2.9-3.6-3
	c-7.5-0.1-15-0.5-22.4,1.9c-0.2,1.1-0.5,2.2-0.7,3.2c-2.4-0.3-3.8-1.5-3.9-4.1c-0.1-2.3-0.4-4.6-0.5-6.9c-0.6-15.4-1.1-30.7-1.7-46
	c-0.7-17.6-1.5-35.3-2.2-53c0-1-0.1-2.1-0.3-3.1c-0.4-2-1.7-3.3-3.2-3.3c-1.5,0-3,1.3-3.2,3.3c-0.4,4.4-0.6,8.8-0.8,13.2
	c-0.2,5-0.2,10.1-0.4,15.1c-0.8,23.8-1.6,47.5-2.4,71.3c-0.1,3.1-0.1,6.3-0.2,9.5c0,1.6-0.6,2.9-2.7,3.2c-1-1.8-1.8-2.6-3.1-3
	c-6.8-1.9-13.7-1.2-20.6-1.2c-1.9,0-3.1,1.2-3.6,3c-0.3,1-0.7,2-1.1,3c-0.4,0.9-0.2,2.2-2.1,2.3c-1.3-3.2-1.4-7.4-5.7-9.1
	c-1.4,0.4-3,0.9-4.3,1.3C60.7,421.2,60.1,422.3,59.5,423.4L59.5,423.4L59.5,423.4z"/>
<path class="st3" d="M140.1,73.4c1,7.2-1.1,13.2-7,17.7c-1.2,0.9-2,2.2-2.1,4.3c-0.3,0.6-0.9,0.6-1.4,0.7c-0.9,0.2-1.4,0.2-1.6,0.4
	c-3.8,4.1-8.5,5.1-13.8,4.6c-1-0.1-2.1-0.1-3.2,0c-5.5,0.3-10.9-0.1-15.7-3.4c-0.5-0.3-1.2-0.3-2-0.7c-0.6-0.5-0.9-0.7-1.3-0.9
	c-0.3-3.1-2.4-5.3-4.3-7.3c-4-4.1-5.7-8.9-5.4-15.4c0.4-6.7,0.4-12.5,0.4-18.7c-0.1-5.3-0.2-10.1-0.1-14.9c0-1.9,0.2-3.8,0.5-5.6
	c0.7-5.2,5.9-10.5,11.8-10.1c3.6,0.2,7.1,0,10.7,0.1c1.2,0,2.4,0.4,3.7,0.6c0.5,2.4,0.9,4.6,1.4,7.2c1.6-0.3,3.1-0.4,4.3-0.9
	c4.5-1.6,9-3.4,13.5-5.1c1.6-0.6,3.1-1.3,4.7-1.7c4-1.1,6.5,0.7,6.9,4.9c0.1,0.8,0.1,1.7,0.1,2.5c0,8-0.1,15.9-0.1,24.5
	C140.1,62.2,140.1,67.8,140.1,73.4L140.1,73.4L140.1,73.4z"/>
<path class="st0" d="M5.9,187c0.7-1.7,1.3-3.5,2.1-5.2c6.6-13.8,13.2-27.7,19.9-41.5c1.7-3.6,3.6-7.1,5.8-10.5
	c3.6-5.6,8.6-9.2,15.2-10.3c5.6-0.9,11.2-1.7,17.4-2.1c9.4,14.9,18.5,29.2,28.2,43.3c-2.1,2.5,1.2,3.5,0.9,5
	c-1.2,1.9-2.7,3.6-3.2,5.4c-1.1,4-3.1,7.1-6.5,8.8c-0.1-5,0.2-9.4-0.2-13.4c-1.8-1.8-3.5-2.4-5.4-2.4c-4.2,0-8.4,0-12.6,0
	c-2.2,0-4.1,0.7-5.7,2.9c0,5.1-0.1,10.6,0,16.1c0.1,4.6,2.9,7.3,7.5,7.5c1.7,0.1,3.4,0,4.9,0.4c-3.8,5.1-7.6,9.6-11.8,13.8
	c-0.3,0.3-0.4,0.7-1.1,1c-2.2-0.6-3.9-1.2-4.8-3.5c0.6-18.5,0.4-25.7-1-29.1c-1.4,1.3-2.8,2.6-4.2,3.9c-4.8,4.6-9.7,9.2-15,13.8
	c-2.1-0.4-3.8-0.4-5.3-1c-7.3-2.9-14.7-5.4-22.7-2.9C7.6,187.2,6.7,187,5.9,187L5.9,187L5.9,187z"/>
<path class="st0" d="M153.8,115.8c4.5,1,9.2,1.7,13.4,2.9c15.2,4.6,23.4,11.4,24.7,20.1c2.1,13.6,3.7,27.2,5.5,40.9
	c0.9,6.8,1.8,13.6,1.4,20.9c-5.8-1.2-10.9-2.6-15-4.6c-10.9-5.1-23.8-8.4-37.4-11.4c-7.2-1.6-15.8-1.9-21.6-5.6
	c-0.7-5.8,1.5-11-1.8-16.5c-14-0.1-27.6-0.2-40.6-0.6c4.9-1.2,10.2-1.6,10.8-5c7.7-4.1,11.1-9,15.6-13.5
	c5.5-5.6,11.7-10.9,21.4-15.1c1.7-0.7,3.2-1.6,4.4-2.5C139.7,121.9,146.4,118.7,153.8,115.8L153.8,115.8L153.8,115.8z"/>
<path class="st4" d="M59.7,423.9c0.4-1.5,0.9-2.6,1.7-4.1c1.3-0.4,2.9-0.9,4.3-1.3c4.3,1.8,4.3,6,5.7,9.1c1.9-0.1,1.7-1.4,2.1-2.3
	c0.4-1,0.8-2,1.1-3c0.6-1.8,1.8-3,3.6-3c6.9,0,13.8-0.7,20.6,1.2c1.4,0.4,2.1,1.2,2.6,3.1c0.1,10.8-0.1,21-0.1,31.2
	c0,0.8,0,1.8,0.4,2.4c2.4,4,1.9,8.5,1.9,12.8c0,2.5,0,5-0.6,8.1c-1.8,0.9-3.1,1-4.1,1.6c-2.9,1.6-5.7,3.4-8.5,5.2
	c-2.1,1.4-4.2,2.7-7.1,2.2c-0.5-1-0.9-1.5-1.1-2.1c-3.8-9.6-14.9-14.8-24.8-11.9c-0.8,0.2-1.7,0.3-2.5,0.4c-2.7,0.1-4.8,1.3-6.8,3
	c-1,0.8-2,1.4-3,2.1c-0.2-4.2,2.2-7.1,5.1-9.5c2.1-1.7,4.3-3.3,6.6-4.8c2.8-1.9,4.2-4.2,4-7.8c-0.4-5-0.1-10,0.4-15.3
	c1.8,0.8,3.5,0.6,5.2-0.4c5.7,0,10.8,0,16.2,0.4c1.8,1.1,3.1,0.9,4-0.7c0.6-1,0.3-2-0.5-2.8c-1.3-1.1-2.6-1.3-4.3,0.3
	c-5.7,0-10.8,0-16.1-0.3c-1.2-0.8-2.2-1.1-2.4,0.5c0,0,0,0-0.3-0.1c-0.9,0.1-1.4,0.4-1.9,0.6c-0.1-3.2-0.2-6.5-0.3-9.8
	C60.5,427.5,60.2,425.9,59.7,423.9 M82.5,461.7c1.8,1.1,3.1,0.3,4.1-1.3c0.7-1.2,0.3-2.4-0.6-3.3c-1.1-1.2-1.7-1.1-5.3,0.2
	c-4.4,0-8.8,0-13.3,0c-1.5,0-3,0.2-3.7,1.9c0.7,1.7,2.2,1.8,3.7,1.8C72.3,461.1,77.1,461,82.5,461.7 M80.8,447.2
	c-6,0.2-12-0.5-17.9,0.5c-0.4,3.2,0.2,4,2.3,3.9c5.6-0.2,11.2-0.4,17.3,0.1c1.8,1.1,3.1,0.4,4.1-1.2c0.7-1.2,0.5-2.4-0.5-3.3
	c-0.6-0.5-1.4-1-2.1-1C83.3,446.2,82.6,446.9,80.8,447.2L80.8,447.2L80.8,447.2z"/>
<path class="st4" d="M123.4,425.1c0.2-1.6,0.4-2.6,0.7-3.8c7.4-2.4,14.9-2,22.4-1.9c1.9,0,3.1,1.1,3.6,3c0.7,2.4,1.2,4.8,1.9,7.2
	c1.4,0.2,1.6-0.9,1.9-1.9c0.4-1.8,0.7-3.7,1.3-5.5c0.7-2,2.2-3,4.3-3c2.3,0,4.1,0.7,4.7,3.8c0,4.8-0.1,9-0.7,13.7
	c-1.8,0.2-3.1,0-4.7,1.4c-5.7,0.1-10.8,0.1-16.1-0.2c-1.3-0.9-2.2-1.2-2.6,0.4c0,0,0.1,0-0.3,0.1c-1,1.2-1.2,2.1,0.4,2.5
	c0,0,0-0.1,0,0.3c1.2,1.3,2.3,1.1,3.9-0.1c5.5,0,10.4,0,15.6,0.3c1.3,0.4,2.3,0.5,3.4,0.8c0.3,0.5,0.6,0.7,0.9,0.7
	c0,0.7,0.1,1.4-0.4,2.6c-1.8,0.5-3.2,0.3-4.9,1.5c-5.5,0.1-10.4,0.2-15.6,0c-1.9-1.3-3.1-0.6-3.9,0.7c-0.8,1.3-0.5,3,0.7,3.8
	c1.2,0.8,2.3,0.4,3.8-0.7c5.6,0.1,10.6,0.1,15.9,0.5c1.6,0.4,3,0.5,4.4,0.6c0,1.1,0.1,2.1-0.3,3.7c-1.7,0.9-3,1.2-4.8,1.6
	c-5.5,0-10.3,0.1-15.5-0.1c-1.9-1.4-3.1-0.8-4,0.6c-0.7,1.2-0.5,2.4,0.5,3.4c1.1,1.1,2.2,1,3.8-0.2c5.8,0,11.1,0,16.6,0.4
	c1.6,1.2,2.7,0.1,3.9-0.2c2.7,2.2,5.3,4.5,8.1,6.6c2.3,1.7,4.7,3.4,5.8,6.9c-1.2,1.6-2.1,1.2-3.1,0.7c-7.2-3.5-14.4-3.3-21.9-0.7
	c-3.6,1.3-5.8,4-8.2,6.6c-1.9,2.1-2.5,4.8-2.6,7.6c-4.6-1.6-8.4-3.5-11.9-6.3c-2.6-2-5.5-3.9-9.1-3.7c-0.1-4.8-0.2-9.6-0.2-14.5
	c0-1.2,0-2.7,0.6-3.7c2-3.5,1.7-7.3,1.7-11C123.5,441.6,123.5,433.7,123.4,425.1L123.4,425.1L123.4,425.1z"/>
<path class="st0" d="M151.6,245c-2.6,0-5.2,0-8.9,0c-5.6,0-10.1,0.1-14.7-0.4c-0.5-2.5-1.7-3.3-3.6-3.3c-4.3,0-8.7,0-13.5,0
	c-0.8-0.1-1.1-0.2-1.4-0.8c0.2-1.7,0.4-2.9,0.6-4.1c1-6.1,0.2-7.8-5.3-11.1c-0.9-0.5-1.7-1.2-2.2-1.7c0.3,0,0.8-0.1,1.3,0
	c3.9,0.2,5.2-2.9,7.4-4.6c2.4-1.9,2.7-4.6,2.2-7.3c-0.5-2.7-2.4-4.2-5.1-5c2.8-4.2,5.3-8.2,9.5-10.9c3.8,2.3,7.6,3.4,11.5,4.3
	c2.6,0.6,5.3,1.4,8.1,0.8c0.4,2.3,1.6,3.3,3.1,4.1c6.8,3.6,13.5,7.1,20.2,10.8c2.4,1.3,4.6,2.7,6.9,4.1c-0.1,4.3-0.2,8.6-0.2,13
	c0,3.5-0.4,7-2.5,10.7c-3.3,0.4-5.8,0.2-8.2,0.4C155.1,244,153.4,244.6,151.6,245L151.6,245L151.6,245z"/>
<path class="st5" d="M140.2,55.4c0-8,0.1-15.9,0.1-23.9c0-0.8,0-1.7-0.1-2.5c-0.4-4.2-2.9-6-6.9-4.9c-1.6,0.4-3.2,1.1-4.7,1.7
	c-4.5,1.7-9,3.5-13.5,5.1c-1.3,0.5-2.7,0.6-4.3,0.9c-0.5-2.6-0.9-4.8-1.4-7.2c-1.3-0.2-2.5-0.6-3.7-0.6c-3.6-0.1-7.1,0.2-10.7-0.1
	c-5.9-0.4-11.1,4.9-11.8,10.1c-0.3,1.9-0.5,3.8-0.5,5.6c0,4.8,0,9.6-0.3,15.1c-1,0.3-1.8,0.2-2.3-0.2c-0.8-0.8-1.4-1.8-2.2-2.8
	c-1.3-8.3-2.7-16.6-3.9-24.9c-0.3-2.5-0.3-5-0.1-7.5C74.8,12,78.7,6.8,85.2,3.6c4.4-2.2,9.1-3.3,14-3.4c8.4-0.2,16.8-0.2,25.2,0
	c7.2,0.2,13.5,3,18.8,7.8c3.6,3.2,6,7.3,5.7,12.2c-0.7,10.3-1.2,20.5-3.7,31.5c-1,1.6-1.6,2.4-2.2,3.2
	C142.2,55.7,141.3,55.7,140.2,55.4L140.2,55.4L140.2,55.4z"/>
<path class="st6" d="M168.2,219.7c-2.8-1.3-5.1-2.8-7.4-4.1c-6.7-3.6-13.5-7.2-20.2-10.8c-1.6-0.8-2.8-1.8-3.1-4.5
	c3.2-6.3,6.5-11.7,9.6-17.1c0.9-1.6,1.5-3.4,2.7-5.1c1.7,0.2,2.9,0.4,4.1,0.6c3.4,0.6,6.6,2.2,10.2,1.9c2.7,3,6.7,3.3,10.1,4.8
	c6.4,2.8,12.4,6,17.5,10.8c1.9,1.8,4.3,3.2,7,5c0.7,3.9,1.1,7.6,1,11.3c-0.1,5.2-3,8.5-7.9,10c-5.8,1.8-11.6,0.8-17.2-0.8
	C172.6,221.2,170.7,220.4,168.2,219.7L168.2,219.7L168.2,219.7z"/>
<path class="st7" d="M94.7,160.4c-9.8-13.8-18.9-28-27.8-43c1.1-4.1,4.3-5.9,7.4-8.3c1.1,0.3,1.5,0.5,1.8,0.4
	c4.7-1.7,9.3-2.7,14,0.3c0.4,0.3,1.2,0,1.9,0.5c0.6,2.4,0.9,4.6,1.8,6.3c1.7,3.2,1.8,7.2,4.7,10.4c1.1,7,3.1,13.4,5,19.7
	c0.9,3,1.5,6,0.9,9.5c-2,2-3.4,4-6.5,2.9C97.1,158.8,95.7,159.9,94.7,160.4L94.7,160.4z"/>
<path class="st7" d="M150.3,109.8c2.4,1.5,4.2,3.5,5.2,7.1c-2.7,7.1-6.9,12.3-11.2,17.4c-3.6,4.3-7.1,8.7-11,13.3
	c-2.3,3.2-3.2,6.6-6.1,9.1c-2.6,2.3-4,5.8-7.4,7.6c-2.2-1-5-1-5.9-4.4c2.2-2.6,3.8-5.8,7.9-6.5c0.7-0.1,1.2-1.4,1.9-2.3
	c-1.4-1.7-2.6-3.1-3.8-5c1.7-6.9,3.4-13.3,5.3-20.2c2.3-5.7,4.3-11,6.9-16.3c4.9-2.9,9.4-2.4,14-0.1c0.9,0.5,1.9,0.9,2.9,1.1
	C149.3,110.8,149.9,110.1,150.3,109.8L150.3,109.8L150.3,109.8z"/>
<path class="st8" d="M71.9,290.5c4.3,0.2,8.7-0.4,13.3,0.5c0.2,1.2,0.6,2.2,0.6,3.1c0.1,7.1,0.1,14.2,0,21.4c-0.1,5-2.8,7.8-7.7,7.9
	c-4.6,0.1-9.2,0.1-13.8,0c-1.6,0-3.2-0.7-5.3-1.1c-2.6-2.6-3.4-5.4-3.3-8.7c0.2-5.6,0-11.2,0.1-16.8c0-2.6-0.5-5.3,2.2-7.2
	c0.6-0.4,0.3-2,0.9-3.4c1.9,0.8,3.5,1.8,4.7,3.2C66.1,292.1,68.8,292.5,71.9,290.5L71.9,290.5L71.9,290.5z"/>
<path class="st8" d="M165.5,321.7c-3.2,1.6-6.3,1.8-9.5,1.7c-3.4-0.1-6.7,0-10.1,0c-2.4,0-4.5-1-6.3-2.5c-1.2-1-2-2.2-2-3.8
	c0.1-8.4,0.2-16.8,0.3-25.1c0-0.2,0.2-0.3,0.6-0.9c1.1-0.1,2.4-0.5,3.9-0.5c7.3-0.1,14.7-0.1,22.6-0.1c1.7,0.2,2.7,0.5,2.7,1.8
	c0,8,0,15.9,0.1,23.9C167.8,318.2,166.8,319.7,165.5,321.7L165.5,321.7L165.5,321.7z"/>
<path class="st9" d="M83.4,487.7c2.7,0.1,4.8-1.2,6.9-2.6c2.8-1.8,5.6-3.6,8.5-5.2c1.1-0.6,2.3-0.7,4-1c0.6,3.4,0.7,6.7,0.7,10.1
	c0,2.1-1,3.6-2.8,3.5c-3.7-0.2-6.3,1.8-9.2,3.4c-5.1,2.7-10.4,4.3-16.3,4.2c-7.8-0.1-15.6,0-23.3,0c-1.3,0-2.5,0-3.8-0.1
	c-2-0.2-3.2-1.2-3.4-3.1c-0.2-1.9-0.2-3.8,0.4-6.2c10-0.6,19.4-0.6,28.8-0.6C77.2,490,80.6,489.9,83.4,487.7L83.4,487.7L83.4,487.7z
	"/>
<path class="st9" d="M121.2,479.4c3.7-0.8,6.6,1,9.2,3.1c3.5,2.8,7.3,4.8,12.4,6.4c3,0.5,5.1,1,7.1,1c8.2,0.1,16.4,0.1,24.6,0
	c1.9,0,3.7-0.4,5.6-0.7c0,2.1,0.2,4.2,0.1,6.3c-0.2,3.1-1.4,4.1-4.3,4.3c-1.3,0.1-2.5,0-3.8,0c-7.4,0-14.7-0.1-22.1,0
	c-6.5,0.1-12.5-1.5-18-4.9c-2.4-1.4-4.6-2.6-7.5-2.6c-2.3,0-3.3-1.2-3.3-3.7C121,485.8,121.1,482.9,121.2,479.4L121.2,479.4
	L121.2,479.4z"/>
<path class="st10" d="M180.2,488.9c-2,0.6-3.8,1.1-5.7,1.1c-8.2,0.1-16.4,0.1-24.6,0c-2.1,0-4.1-0.6-6.7-1c-0.9-3-0.2-5.6,1.7-7.7
	c2.4-2.6,4.5-5.3,8.2-6.6c7.5-2.6,14.7-2.8,21.9,0.7c1,0.5,1.9,0.9,3.2-0.3c1.9,1.7,2,4.2,2.1,6.6
	C180.2,483.9,180.2,486.2,180.2,488.9L180.2,488.9L180.2,488.9z"/>
<path class="st10" d="M83.2,487.3c-2.6,2.6-5.9,2.7-9.3,2.7c-9.4,0-18.8,0-28.8,0c-0.6-3.4-0.6-6.9-0.3-10.8
	c1.3-1.1,2.3-1.8,3.3-2.6c2-1.6,4.1-2.9,6.8-3c0.8,0,1.7-0.1,2.5-0.4c9.9-2.9,21,2.3,24.8,11.9C82.3,485.8,82.7,486.3,83.2,487.3
	L83.2,487.3L83.2,487.3z"/>
<path class="st1" d="M151.6,245.6c1.8-1,3.5-1.6,5.3-1.8c2.4-0.2,4.9-0.1,7.9-0.1c0.9,1.2,1.6,2.4,1.6,3.6
	c-0.1,4.8,0.9,9.6-0.8,14.8c-4.4,0.5-8.6,0.5-12.6,0.5c-2.1-2.8-1.1-5.6-1.2-8.3C151.5,251.7,151.6,249,151.6,245.6L151.6,245.6
	L151.6,245.6z"/>
<path class="st11" d="M150.1,109.4c-0.3,0.7-0.8,1.3-1.2,1.3c-1-0.2-2-0.6-2.9-1.1c-4.5-2.3-9-2.8-14.1-0.4c-1-2.6-1.4-4.8-1.8-7.5
	c0-2.2,0-4,0-5.7c0,0,0.6-0.1,0.9-0.2C138.3,99.1,144.5,103.5,150.1,109.4L150.1,109.4L150.1,109.4z"/>
<path class="st11" d="M91.9,109.8c-0.6,0-1.4,0.2-1.8,0c-4.6-2.9-9.3-1.9-14-0.3c-0.3,0.1-0.8-0.1-1.4-0.5
	c4.6-5.5,10.5-9.2,17.1-12.7c0.7,0,1.1,0.2,1.5,1.2c0.1,1.7,0.1,2.7,0,4.2C93,104.7,93.3,107.4,91.9,109.8L91.9,109.8z"/>
<path class="st12" d="M140.2,56c1.1-0.3,2.1-0.3,2.8-1.2c0.6-0.8,1.3-1.6,2.2-2.7c2.2,0.8,2.6,2.6,2.5,4.5
	c-0.3,4.8-1.3,9.5-2.7,14.1c-0.6,1.8-2,2.6-4.3,2.7C140.2,67.8,140.1,62.2,140.2,56L140.2,56L140.2,56z"/>
<path class="st13" d="M77.6,52c1.1,0.6,1.7,1.7,2.5,2.5c0.5,0.5,1.3,0.6,2.4,0.7c0.3,5.7,0.3,11.4-0.1,17.6c-1.9,0.3-3.2-0.5-3.6-2
	c-1.5-4.9-2.9-9.9-2.8-15.1C76,54.6,76.8,53.4,77.6,52L77.6,52L77.6,52z"/>
<path class="st14" d="M159.3,447c1.1-1.1,2.4-1,4.2-0.9c0.5,1.7,0.5,3.3,0.5,5.4c-1.4,0.4-2.8,0.3-4.2-0.4c0.6-1,1.2-1.5,1.8-1.9
	C160.7,448.4,160,447.7,159.3,447L159.3,447L159.3,447z"/>
<path class="st15" d="M162.9,442c-1-0.1-2-0.2-2.9-0.7c0.6-0.8,1.4-1.1,1.4-1.5c0.2-1.4-1.1-1.4-2-1.7c1-1.3,2.3-1.1,4-0.7
	c0.4,1.3,0.5,2.4,0.3,4C163.4,441.9,162.9,442,162.9,442L162.9,442L162.9,442z"/>
<path class="st14" d="M164.1,460.7c-1.2,0.9-2.3,2-3.6,0.6c0.6-0.9,1.2-1.4,1.8-2c-1.1-0.8-2-1.4-2.9-2c1.3-0.4,2.5-0.8,4.2-1.1
	C164,457.6,164,458.9,164.1,460.7z"/>
<path class="st15" d="M65.7,441c-1.3,1-2.8,0.9-4.5-0.2c-0.5-0.7-0.5-1-0.4-1.7c0.6-0.5,1.1-0.8,2-0.5
	C63.3,440.7,64.5,440.8,65.7,441z"/>
<path class="st14" d="M163,442.3c-0.1-0.2,0.4-0.4,0.6-0.4s0.5,0.5,0.4,0.8C163.6,442.9,163.3,442.8,163,442.3L163,442.3L163,442.3z
	"/>
<path class="st16" d="M95.8,251.4c2.3-0.7,3.8,0.9,5.7,3c0.5,2,0.7,3.2,0.8,4.3c6.2,1,15,0.9,19.8-0.3c0.1-1.9,0.2-4,0.2-6
	c0-1.4-0.2-2.8-0.4-4.5c-2.9-0.2-5.6-0.4-8.2-0.6c-0.7-1.7-1.5-3.3-2.3-5.4c4.2-0.4,8.6-0.4,12.9-0.4c1.9,0,3.2,0.8,3.5,3.8
	c0.1,6.5,0.2,11.9,0.2,17.3c-0.6,1.7-1.6,2.8-3.6,2.8c-8.3,0-16.7,0-25-0.1c-1.1,0-2.1-1.1-3.3-2.6
	C95.9,258.1,95.9,254.8,95.8,251.4L95.8,251.4L95.8,251.4z"/>
<path class="st1" d="M128.6,262.5c-0.6-5.5-0.7-10.9-0.6-16.8c4.6-0.6,9.1-0.6,14.1-0.6c0.4,5.6,0.8,11.2,0.3,16.8
	c-2.5,1.3-4.8,0.8-7.1,0.9C133.3,262.8,131.2,262.7,128.6,262.5z"/>
<path class="st1" d="M95.4,251.4c0.5,3.3,0.5,6.7,0.4,10.7c-2.6,0.6-5.1,0.6-8.2,0.6c0.4-3.5,2.6-6.2,4.4-9.2
	C92.6,252.6,94,252.1,95.4,251.4L95.4,251.4L95.4,251.4z"/>
<path class="st12" d="M93.4,101.1c0-1,0-1.9,0.1-3.4c0.7-0.3,1.5-0.3,1.9,0c4.8,3.3,10.1,3.7,15.7,3.4c1.1-0.1,2.1-0.1,3.2,0
	c5.3,0.5,10-0.5,13.8-4.6c0.2-0.3,0.8-0.3,1.6-0.4c0.5,1.7,0.5,3.4,0.1,5.9c-4.6,4.2-9.4,6-14.9,5.5c-2.3-0.2-4.6-0.2-6.9,0
	c-4.5,0.4-8.1-1.5-11.6-4.1C95.3,102.6,94.4,101.8,93.4,101.1L93.4,101.1L93.4,101.1z"/>
<path class="st8" d="M84.1,189.2c-4.8,2-9.3,1.3-9.3,1.3c-2.1,0.2-3.7,0.2-5.4,0.2c-4.6-0.2-7.4-2.9-7.5-7.5c-0.1-5.5,0-10.9,0-16.1
	c1.6-2.2,3.5-2.9,5.7-2.9c4.2,0,8.4,0,12.6,0c2,0,3.7,0.6,5.4,2.4c0.5,4,0.4,17.2,0.9,18.9C86.7,186.9,84.1,189.2,84.1,189.2z"/>
<path class="st17" d="M56.5,202.4c-1,0.2-2,0.1-2.9-0.4c-5.1-2.8-10.1-5.6-15.2-8.5c-0.6-0.4-1-1.1-1.5-2.1c4.8-5,9.6-9.6,14.5-14.2
	c1.3-1.3,2.7-2.5,4.2-3.9C56.9,176.7,57.1,183.9,56.5,202.4L56.5,202.4L56.5,202.4z"/>
<path class="st0" d="M80.8,215.2c0,0.5-0.4,0.8-0.7,0.9c-3.1-0.4-5.1-2-6.8-4.6c2.5-3.7,4.9-7.1,7.8-10.1c3.3-3.3,6-6.9,7.4-11.4
	c0.3-1,1.3-1.8,2.3-3.2c1.3,3,2.4,5.3,3.6,8.1c-3.2,3.8-6.4,7.8-9.9,11.6C82.4,208.9,80.5,211.3,80.8,215.2L80.8,215.2L80.8,215.2z"
	/>
<path class="st8" d="M141.3,168.6c0.8-1.3,1.5-2.5,2.5-4.1c6.6-0.3,12.9-0.2,19.5-0.1c1.6,5.2,0.5,10.2,0.8,15.6
	c-3.6,0.9-6.8-0.7-10.2-1.3c-1.2-0.2-2.4-0.4-4.4-0.9C147.1,173.9,144.4,171.1,141.3,168.6L141.3,168.6L141.3,168.6z"/>
<path class="st9" d="M81.8,450.9c-5.6,0.2-11.2,0.4-16.8,0.6c-2.1,0.1-2.6-0.7-2.3-3.9c5.9-1,11.9-0.3,18.7-0.1c1.6,1,1.9,2,0.7,2.9
	C82.1,450.6,82,450.8,81.8,450.9L81.8,450.9L81.8,450.9z"/>
<path class="st9" d="M81.9,461c-4.8,0-9.7,0-14.5,0c-1.5,0-3-0.1-3.7-1.8c0.7-1.7,2.1-1.8,3.6-1.9c4.4,0,8.8,0,14.1,0.3
	c1.7,1,1.9,2,0.8,2.9C82.2,460.7,82.1,460.9,81.9,461z"/>
<path class="st9" d="M66.2,441c-1.7-0.2-2.9-0.3-3-2.2c-0.1-0.4-0.1-0.4,0.3-0.3c1,0,1.6-0.1,2.2-0.1c5.1,0,10.2,0,16.3,0.1
	c1.4,0.6,1.9,1.2,2.3,1.8c-0.7,0.3-1.4,0.6-2.1,1C77,441,71.9,441,66.2,441L66.2,441L66.2,441z"/>
<path class="st18" d="M82.1,451.3c-0.2-0.5,0-0.7,0.1-0.8c1.1-0.9,1.1-1.9-0.2-2.9c0.5-0.7,1.2-1.4,1.8-1.4c0.7,0,1.5,0.5,2.1,1
	c1,0.9,1.2,2.1,0.5,3.3C85.6,452.1,84.2,452.7,82.1,451.3L82.1,451.3L82.1,451.3z"/>
<path class="st18" d="M82.2,461.4c-0.2-0.5-0.1-0.7,0.1-0.8c1.1-1,1-1.9-0.3-2.9c2.3-1.7,2.8-1.7,4-0.5c0.9,1,1.3,2.1,0.6,3.3
	C85.6,462,84.3,462.8,82.2,461.4L82.2,461.4L82.2,461.4z"/>
<path class="st15" d="M82.4,441.4c0.5-0.7,1.2-1,1.9-1.3c-0.4-0.6-0.9-1.1-1.7-1.8c0.7-1.6,2-1.5,3.3-0.4c0.8,0.8,1.1,1.8,0.5,2.8
	C85.4,442.3,84.2,442.5,82.4,441.4L82.4,441.4L82.4,441.4z"/>
<path class="st15" d="M65.4,437.9c-0.4,0.4-0.9,0.5-2,0.5C63.3,436.8,64.3,437.1,65.4,437.9z"/>
<path class="st9" d="M158.7,457.3c1.5,0.6,2.4,1.2,3.5,2c-0.6,0.5-1.1,1-2,1.7c-5.6,0.1-10.9,0.1-16.9-0.1c-2.5-1.6-2.5-1.6-0.6-2.6
	c0.3-0.2,0.6-0.5,0.9-0.8C148.4,457.4,153.2,457.4,158.7,457.3L158.7,457.3L158.7,457.3z"/>
<path class="st9" d="M158.7,447.1c1.3,0.6,2,1.3,2.9,2.1c-0.7,0.5-1.3,0.9-2.1,1.6c-5.3,0.2-10.3,0.2-16.1-0.1c-1.4-0.6-2-1-2.7-1.5
	c1.1-0.8,1.9-1.3,2.7-1.9C148.3,447.3,153.2,447.2,158.7,447.1L158.7,447.1L158.7,447.1z"/>
<path class="st9" d="M158.8,438.2c1.5,0.3,2.8,0.2,2.6,1.7c-0.1,0.4-0.8,0.7-1.7,1.2c-5.3,0.1-10.2,0-16.1,0
	c-1.9-0.1-2.7-0.1-3.5-0.2c0,0,0,0.1,0.1-0.4c0.1-1,0-1.6-0.1-2.1c0,0-0.1,0,0.4,0.1c1.1,0,1.7,0,2.3-0.1
	C148,438.3,153.1,438.3,158.8,438.2L158.8,438.2L158.8,438.2z"/>
<path class="st19" d="M143.1,447.1c-0.5,0.8-1.3,1.3-2.4,2.1c0.7,0.5,1.3,0.9,2.1,1.5c-0.6,1.2-1.7,1.7-2.9,0.9
	c-1.2-0.8-1.6-2.5-0.7-3.8C140,446.5,141.2,445.8,143.1,447.1L143.1,447.1L143.1,447.1z"/>
<path class="st19" d="M143.2,457.2c0,0.5-0.2,0.8-0.6,1c-1.9,1-1.9,1,0,2.6c-0.7,1.4-1.8,1.5-2.9,0.4c-1.1-1-1.3-2.2-0.5-3.4
	C140.1,456.4,141.3,455.8,143.2,457.2L143.2,457.2L143.2,457.2z"/>
<path class="st15" d="M140.2,441.2c0.8-0.3,1.6-0.3,2.9-0.1C142.5,442.3,141.4,442.5,140.2,441.2z"/>
<path class="st15" d="M139.8,438.4c0.5,0.5,0.5,1,0.5,2C138.5,440.6,138.8,439.6,139.8,438.4z"/>
<path class="st15" d="M142.7,438c-0.4,0.4-1,0.5-2.1,0.5C140.5,436.8,141.4,437.1,142.7,438z"/>
<path class="st3" d="M93.3,101.6c1.1,0.3,2.1,1.1,3.1,1.8c3.4,2.6,7.1,4.4,11.6,4.1c2.3-0.2,4.6-0.2,6.9,0c5.6,0.5,10.3-1.2,14.9-5
	c0.8,2,1.2,4.2,1.8,6.8c-1.9,5.7-4,11-6.8,16.7c-6.1,1.5-11.5,1.8-16.9,1.5c-3.1-0.2-6.2-0.7-9.3-1c-2.8-2.7-2.9-6.7-4.7-9.9
	c-0.9-1.8-1.2-3.9-1.8-6.3C93.3,107.4,92.9,104.7,93.3,101.6C93.3,101.6,93.3,101.6,93.3,101.6z"/>
<path class="st20" d="M98.4,127c3.1-0.2,6.2,0.3,9.3,0.5c5.4,0.3,10.8,0,16.7-1.1c-1.2,6.4-2.8,12.8-4.6,19.7
	c-1.2-0.3-2.4-1-3.6-1.8c-2.1,0.2-2.5,1.6-2.9,3.4c-0.8,3.6-4.3,7.2-8.3,8.3c-0.1-3.3-0.8-6.3-1.7-9.4
	C101.6,140.3,99.6,134,98.4,127L98.4,127L98.4,127z"/>
<path class="st1" d="M113.5,247.6c2.9-0.2,5.6,0,8.5,0.2c0.2,1.7,0.4,3.1,0.4,4.5c0,2-0.2,4.1-0.2,6c-4.8,1.2-13.5,1.3-19.8,0.3
	c-0.1-1.1-0.3-2.3-0.4-4C105.7,252,109.5,250,113.5,247.6L113.5,247.6L113.5,247.6z"/>
<path class="st2" d="M79.5,261.5c-3.4,0.5-5-2.2-7.1-4.1c-2-1.8-1.6-4.1-1.7-6.8c1.2-2.3,2.4-4.1,3.7-6.3c1.6,0.6,3.1,1.6,4.9,3.5
	C79.5,253,79.5,257.3,79.5,261.5L79.5,261.5L79.5,261.5z"/>
<path class="st1" d="M79.5,261.8c0-4.6,0-8.8,0-13.7c2.7,0,5.4,0.7,8.5,1.5c-1.1,2.8-2.4,5.3-4,7.8c-1.1,1.7-2.5,3.3-4.1,5.1
	C79.5,262.8,79.5,262.1,79.5,261.8L79.5,261.8L79.5,261.8z"/>
<path class="st2" d="M60.7,264.6c4.5-0.6,6.7,2,7.4,6.5C64.4,270.7,62.2,268.2,60.7,264.6z"/>
<path class="st20" d="M112.1,168.1c1.4,0.4,2.3,0.7,3.6,1.2c-1,2.9-3.1,4.4-5.2,6.3c-1.2-1-2.2-1.9-3.3-2.8
	C107.9,170.2,109.2,168.7,112.1,168.1L112.1,168.1L112.1,168.1z"/>
<path class="st0" d="M96.9,179.2c0.9-0.3,1.4-0.4,2-0.4c0,0.6,0.2,1.1,0.1,1.7c-0.1,0.4-0.4,0.7-0.8,1c-0.7,0.7-1.7,1.8-2.6,1.1
	C94.2,181.2,95.9,180.4,96.9,179.2L96.9,179.2L96.9,179.2z"/>
<path class="st21" d="M217.3,75.7c-0.3,0.4-0.5,0.9-0.9,1.3c-20.7,26.3-61.2,76.9-71.5,89.5c-1.4,1.8-2.3,2.8-2.4,2.9
	c-1.2,0.2-2.3,0.2-3.6,0.2c-2.5-0.7-5.1-7.3-5.2-8.7c0.5-2.1,1.7-3.6,2.9-5.1c23.3-29.5,46.6-59,69.8-88.6c0.3-0.4,0.6-0.8,1.1-1.2
	c0.3,0.1,0.4,0.1,0.6,0.2c2.9,2.9,5.9,5.7,8.8,8.6C217.1,75.1,217.2,75.4,217.3,75.7L217.3,75.7L217.3,75.7z"/>
<path class="st22" d="M176.6,32.8c1.4,0.1,2.6,0.4,3.8,0.5c4,0.3,7.9,1.3,11.7,2.6c6,2,11.6,4.6,17,7.8c2.5,1.5,4.9,3.2,7.5,4.9
	c0,0.3-0.1,0.5-0.2,0.6c-2.6,3-5.2,5.9-7.8,8.9c-0.2,0.2-0.4,0.3-0.7,0.5c-1.7-1.3-3.3-2.7-5.1-3.8c-5-3.1-10.1-6.2-15.3-8.9
	c-6-3.2-12.3-5.6-19-6.9c-3.3-0.7-6.6-1.1-9.8-1.6c2.9-2,6.2-3.2,9.9-3.9C171.4,33.2,174,33,176.6,32.8L176.6,32.8L176.6,32.8z"/>
<path class="st22" d="M233.4,63.2c1.8,2.1,3.6,4.2,5.4,6.4c3.4,4.2,6.4,8.7,8.8,13.6c1.4,2.8,2.7,5.6,3.8,8.5c1.1,3,1.7,6.1,2.6,9.2
	c0.2,2.6,0.4,5.2,0.6,7.9c-0.2,1.7-0.3,3.2-0.7,4.8c-0.5,2-1.2,3.9-1.9,6.1c-1-3.4-1.8-6.6-2.8-9.6c-1.7-5.2-4.2-10.1-7.1-14.8
	c-3.3-5.4-7-10.5-11.1-15.2c-2-2.3-4.1-4.5-6.2-6.9c0-0.3,0.1-0.5,0.2-0.6c2.6-2.9,5.1-5.9,7.7-8.8
	C232.9,63.5,233.2,63.4,233.4,63.2L233.4,63.2L233.4,63.2z"/>
<path class="st23" d="M233.5,63.1c-0.3,0.2-0.6,0.4-0.8,0.6c-2.6,2.9-5.2,5.8-7.7,8.8c-0.1,0.1-0.2,0.3-0.3,0.6
	c-1.2,1.2-2.2,2.7-4,2.5c-1.1-0.1-2.1-0.6-3.3-1c-0.2-0.3-0.3-0.5-0.5-0.7c-2.9-2.6-5.8-5.1-8.7-7.7c-0.1-0.1-0.3-0.2-0.5-0.2
	c-2.2-2.4-2.1-4.6,0.4-7.5c0.3-0.2,0.6-0.3,0.7-0.5c2.6-3,5.2-5.9,7.8-8.9c0.1-0.1,0.2-0.3,0.3-0.6c1.2-1.1,2.2-2.2,3.5-3
	c1.5-0.9,3.1-0.4,4.4,0.7c3.3,2.8,6.6,5.8,9.9,8.7c1.9,1.7,1.9,4.4,0.1,6.7C234.3,62.2,233.9,62.6,233.5,63.1L233.5,63.1L233.5,63.1
	z"/>
<polyline class="st21" points="143.3,154.6 154.5,156.3 148.4,163.8 121,193.1 "/>
<path class="st1" d="M61.9,247.1c1.8-1,3.5-1.6,5.3-1.8c2.4-0.2,4.9-0.1,7.9-0.1c0.9,1.2,1.6,2.4,1.6,3.6c-0.2,4.8,0.9,9.6-0.8,14.8
	c-4.4,0.5-8.6,0.5-12.6,0.5c-2-2.8-1.1-5.6-1.2-8.3C61.8,253.1,61.9,250.4,61.9,247.1L61.9,247.1L61.9,247.1z"/>
<polyline class="st21" points="122,194.1 159.5,150 42,290.5 31.7,278.4 171.6,114.6 "/>
<path class="st20" d="M106.9,153.8l3-12c0.2-0.9,1.1-1.4,2-1.2l7,1.8c0.9,0.2,1.4,1.1,1.2,2l-3,12c-0.2,0.9-1.1,1.4-2,1.2l-7-1.8
	C107.2,155.6,106.7,154.7,106.9,153.8z"/>
<rect x="119.9" y="146.1" class="st7" width="4.9" height="8.1"/>
<rect x="114.3" y="149.5" transform="matrix(0.2426 -0.9701 0.9701 0.2426 -55.4586 230.1816)" class="st7" width="10.8" height="2.2"/>
<path class="st3" d="M80.8,215.7c1.3,0,2.7,0,4.9,0.1c3.6,1.4,6.3,2.7,9.3,4.2c2.7,1.4,5,2.5,7.4,3.6c0.8,0.6,1.6,1.2,2.5,1.7
	c5.5,3.3,6.3,5,5.3,11.1c-0.2,1.2-0.4,2.4-0.6,4.1c-0.5,1.4-1.1,2.3-1.5,3.2c-2,4.6-5.5,6.6-10.4,6.4c-2.7-0.1-5.4-0.2-9.1-0.6
	c-3.7-0.8-6.3-1.4-9.3-2.4c-1.8-1.3-3.3-2.3-4.8-3.3c-0.5-0.8-1.1-1.6-1.9-2.6c-0.1-1.7-0.1-3.1,0.4-4.5c2.1-6.6,4.4-13.1,7-20.2
	C80.4,216,80.8,215.7,80.8,215.7L80.8,215.7z"/>
<path class="st6" d="M5.6,187.3c1.2-0.3,2-0.1,2.8-0.4c8-2.5,15.4,0.1,22.7,2.9c1.5,0.6,3.2,0.7,5.3,1.4c1,1,1.4,1.8,2.1,2.2
	c5,2.9,10.1,5.7,15.2,8.5c0.9,0.5,1.9,0.6,2.9,0.9c0.9,1.7,2.6,2.3,5.1,3.3c4,2.6,7.1,5.4,11.6,5.2c1.7,2.6,3.7,4.3,6.4,5.2
	c-2.3,7-4.6,13.6-6.7,20.2c-0.4,1.4-0.5,2.9-1.1,4.4c-0.7,0.1-0.9,0.1-1.4-0.2c-3.1-2.4-3.6-2.5-5.5-0.9c-1.2,1.1-2.4,2.3-3.5,3.4
	c-1.1,1.1-2.3,1.7-3.9,1.5c1-3.3-1.4-6-1.3-9.3c-5.3-1.5-10.3-3-15.3-4.4c-8.2-2.4-16.4-5.1-24.1-8.9c-3.8-1.8-7.4-4-10.8-6.4
	c-4.7-3.2-6.6-8-6.1-13.7c0.3-3.4,1-6.6,2.6-9.6C3.6,190.9,4.4,189.2,5.6,187.3L5.6,187.3L5.6,187.3z"/>
<path class="st3" d="M140.9,168.7c3.5,2.4,6.2,5.2,8.2,9.1c-0.5,2.1-1.1,3.9-2,5.5c-3.1,5.4-6.4,10.8-9.7,16.6
	c-2.8,1.4-5.4,0.6-8.1,0.1c-3.9-0.8-7.7-2-11.7-4.7c-3.2-3.5-3.3-7.3-4.2-10.9c0.9-3.6,1.8-7.3,2.8-10.9c0.4-1.4,1.2-2.7,1.9-3.9
	c2.9-4.5,7.6-5.2,11.9-2c0.8,0.6,1.5,1.4,2.3,2.1c0.8,0.7,1.6,1.3,2.3,1.9C136.8,170.6,138.6,169.7,140.9,168.7L140.9,168.7
	L140.9,168.7z"/>
<path class="st7" d="M93.8,159.4c0,0,5.7,5.7,8.9,3.3s2.3-8.8,2-10.8C104.4,149.9,93.8,159.4,93.8,159.4z"/>
<path class="st12" d="M83.1,56L83.1,56c0,6.2,0,11.8-0.5,17.4c-2.3-0.1-3.8-0.9-4.3-2.7c-1.4-4.6-2.5-9.3-2.7-14.1
	c-0.1-2,0.3-3.8,2.5-4.5c0.9,1.1,1.6,1.9,2.2,2.7C81,55.7,82,55.7,83.1,56L83.1,56z"/>
</svg>
