<?xml version="1.0" encoding="utf-8"?>
<!-- Generator: Adobe Illustrator 26.5.0, SVG Export Plug-In . SVG Version: 6.00 Build 0)  -->
<svg version="1.1" id="Laag_1" xmlns="http://www.w3.org/2000/svg" xmlns:xlink="http://www.w3.org/1999/xlink" x="0px" y="0px"
	 viewBox="0 0 24 24" style="enable-background:new 0 0 24 24;" xml:space="preserve">
<style type="text/css">
	.st0{fill:#B2B1FF;}
</style>
<circle class="st0" cx="9.2" cy="14.8" r="1"/>
<circle class="st0" cx="12" cy="20" r="1"/>
<circle class="st0" cx="14.8" cy="9.2" r="1"/>
<circle class="st0" cx="12" cy="4" r="1"/>
<circle class="st0" cx="4" cy="16" r="1"/>
<circle class="st0" cx="4" cy="20" r="1"/>
<circle class="st0" cx="4" cy="8" r="1"/>
<circle class="st0" cx="4" cy="4" r="1"/>
<circle class="st0" cx="8" cy="4" r="1"/>
<circle class="st0" cx="16" cy="4" r="1"/>
<circle class="st0" cx="8" cy="20" r="1"/>
<circle class="st0" cx="16" cy="20" r="1"/>
<circle class="st0" cx="9.2" cy="9.2" r="1"/>
<circle class="st0" cx="14.8" cy="14.8" r="1"/>
<circle class="st0" cx="20" cy="16" r="1"/>
<circle class="st0" cx="20" cy="20" r="1"/>
<circle class="st0" cx="20" cy="8" r="1"/>
<circle class="st0" cx="12" cy="12" r="1"/>
<circle class="st0" cx="4" cy="12" r="1"/>
<circle class="st0" cx="20" cy="12" r="1"/>
<circle class="st0" cx="20" cy="4" r="1"/>
<rect x="11" y="8" transform="matrix(0.7071 -0.7071 0.7071 0.7071 -4.9706 12)" class="st0" width="2" height="8"/>
<rect x="8" y="11" transform="matrix(0.7071 -0.7071 0.7071 0.7071 -4.9706 12)" class="st0" width="8" height="2"/>
</svg>
