<?xml version="1.0" encoding="utf-8"?>
<!-- Generator: Adobe Illustrator 26.5.0, SVG Export Plug-In . SVG Version: 6.00 Build 0)  -->
<svg version="1.1" id="Layer_1" xmlns="http://www.w3.org/2000/svg" xmlns:xlink="http://www.w3.org/1999/xlink" x="0px" y="0px"
	 viewBox="0 0 500 512" style="enable-background:new 0 0 500 512;" xml:space="preserve">
<style type="text/css">
	.st0{fill:#CBB292;}
	.st1{fill:#A5A5A4;}
	.st2{fill:#FFFFFF;}
	.st3{fill:#7F6E5D;}
</style>
<path class="st0" d="M359.4,185.6c-1.3,1.5-2.4,3-3.8,4.4c-102.9,103-205.9,206-309,308.8c-3.3,3.3-8,5.1-12.3,8
	c-4.8,0.3-9.3,0.3-14.5,0c-10-3-15.2-9.8-18.8-18.3c0-4.6,0-9.2,0-14.2c2.7-7.4,7.6-12.6,12.8-17.7
	c101.3-101.2,202.5-202.4,303.8-303.7c1.4-1.4,2.8-2.7,4.9-4.1c1.2,0.3,1.8,0.5,2.3,1c11,11,22.1,22,33.1,33.1
	C358.5,183.5,358.9,184.6,359.4,185.6z"/>
<path class="st1" d="M206.6,7c5.4,0.9,10.3,2.1,15.3,2.8c16.1,2.4,31.5,7.4,46.6,13.4c23.5,9.4,45.7,21.4,66.6,35.7
	c9.8,6.7,19.1,14.1,28.9,21.7c-0.2,1.1-0.5,1.9-1,2.5c-11.2,11.3-22.5,22.5-33.8,33.7c-0.8,0.7-1.9,1.1-2.9,1.7
	c-6.5-5.5-12.6-11.6-19.5-16.5c-19.5-13.6-39-27.4-59.2-39.9c-23.2-14.4-48.1-25.5-74.6-32.5c-13-3.5-26.2-6.1-39.2-9
	c12-7.4,25.8-11.5,40.7-13.1C185.2,7,195.7,7,206.6,7z"/>
<path class="st1" d="M427.6,143.6c6.7,9.1,13.4,18,19.9,27.2c12.6,17.8,23.5,36.7,31.9,56.8c4.9,11.5,9.6,23.2,13,35.2
	c3.5,12.3,5.3,25.1,8.2,37.8c0.3,10.7,0.3,21.1,0.3,32c-1.3,6.7-2.1,13-4,19c-2.5,7.9-5.8,15.5-9.1,24c-3.1-14.1-5.5-26.9-8.8-39.4
	c-5.6-21.4-14.4-41.6-24.7-61.2c-11.9-22.5-25.5-43.9-41-64.1c-7.5-9.8-15.4-19.3-23.4-29.5c0.2-1.2,0.5-1.9,1-2.5
	c11.1-11.2,22.2-22.3,33.4-33.4C425.2,144.7,426.5,144.3,427.6,143.6z"/>
<path class="st2" d="M1,488.9c3.6,8,8.9,14.8,18.4,17.8C13.4,507,7.3,507,1,507C1,501.1,1,495.2,1,488.9z"/>
<path class="st3" d="M427.7,143.3c-1.2,0.9-2.5,1.4-3.4,2.2c-11.2,11.1-22.3,22.2-33.4,33.4c-0.5,0.5-0.8,1.3-1.3,2.3
	c-5.1,4.5-9.6,10.1-16.9,9.1c-4.4-0.6-8.5-3-13-4.7c-0.9-1.1-1.2-2.2-2-3c-11-11.1-22-22.1-33.1-33.1c-0.4-0.4-1.1-0.7-1.9-1.1
	c-8.2-10.2-7.1-19.2,3.4-29.9c1.1-0.8,2.3-1.2,3-2c11.3-11.2,22.6-22.4,33.8-33.7c0.5-0.5,0.8-1.3,1.3-2.3c5-4,9.6-8.4,15-11.1
	c6.3-3.1,12.7-0.8,17.6,3.9c12.7,12.3,25.1,24.9,37.6,37.5c7.3,7.4,6.7,18.1-1.4,27C431.4,139.7,429.6,141.3,427.7,143.3z"/>
</svg>
