<?xml version="1.0" encoding="utf-8"?>
<!-- Generator: Adobe Illustrator 26.5.0, SVG Export Plug-In . SVG Version: 6.00 Build 0)  -->
<svg version="1.1" id="Layer_1" xmlns="http://www.w3.org/2000/svg" xmlns:xlink="http://www.w3.org/1999/xlink" x="0px" y="0px"
	 viewBox="0 0 500 512" style="enable-background:new 0 0 500 512;" xml:space="preserve">
<style type="text/css">
	.st0{fill:#B3B3B3;}
	.st1{fill:#CCCCCC;}
	.st2{fill:#808080;}
	.st3{fill:#999999;}
</style>
<path class="st0" d="M409.6,166.9c16.9,16.8,34.3,33.2,50.6,50.7c4.5,4.8,6.1,12.4,8.4,18.9c4.4,12.9,9.1,25.8,12.2,39.1
	c3.4,14,5.1,28.4,7.6,42.7c2.4,14.1,4.9,28.1,7.3,42.2c1.1,6.4,2,12.8,3.1,19.9c-118.8,0-236.9,0-355.6-0.6
	c-1-19.8-7.2-37.2-17.8-52.8c20.8,2.6,41.1,5.2,61.4,7.8c23.1,2.9,46.1,5.9,69.2,8.6c4.8,0.6,10.2,1.4,14.7-0.1
	c67.5-22.2,134.9-44.8,202.4-67.3c1.2-0.4,2.4-1,3.5-1.6c-3.5-0.7-6.9-0.7-10.2-0.7c-78.3,0-156.6-0.1-235-0.5
	c-2.5-7.9-5.1-15.5-7.5-23c-3.1-9.8-6.1-19.7-8.8-29.7c12.4-2.2,24.4-4.4,36.4-6.2c24.6-3.7,49.3-7,73.9-10.7
	c9.8-1.5,20.3-2,28.9-6.1C373.4,188.3,391.3,177.1,409.6,166.9z"/>
<path class="st1" d="M231.6,273.5c78.3,0,156.6,0.1,234.9,0.1c3.3,0,6.6,0,10.2,0.7c-1.2,0.5-2.3,1.2-3.5,1.6
	c-67.4,22.5-134.8,45.1-202.4,67.3c-4.4,1.5-9.8,0.6-14.7,0.1c-23.1-2.7-46.1-5.7-69.2-8.6c-20.3-2.6-40.6-5.2-61.6-8
	c-0.8-0.5-1.1-0.7-1.7-1.2c-9.6-9.7-18.9-19.1-28.3-28.5c-13.8-13.8-27.8-27.5-41.6-41.2c7.4-8.3,17.4-12.7,27.4-16.3
	c19.3-6.9,38.9-12.9,58.4-19.2c0.7-0.2,1.5,0,3,0.1c18.2,16.8,36.7,32.2,58.1,43.5C210.3,269,220.3,273.5,231.6,273.5z"/>
<path class="st1" d="M409.5,166.5c-18.2,10.7-36.1,21.8-55,30.9c-8.6,4.1-19.2,4.6-28.9,6.1c-24.6,3.8-49.2,7-73.9,10.7
	c-12,1.8-24,4-36.7,6c-5.7-5-10.7-9.9-15.6-14.9c-13-12.8-25.9-25.6-38.9-38.4c6.1-7,14.8-9.3,23-12.2c24.7-8.5,50-14.2,75.6-19
	c8.3-1.5,16.8-4.6,25-4.1c13.1,0.8,26.1,3.4,38.9,6.5c22.5,5.4,44.8,11.3,67,17.9C396.8,158,402.9,162.7,409.5,166.5z"/>
<path class="st2" d="M53.4,255.9c14.2,13.6,28.1,27.3,42,41.1c9.4,9.4,18.7,18.8,28,28.8c-2.7,1.4-5.3,2.3-8,3
	c-11.5,2.8-23.1,5-34.4,8.2c-26.4,7.6-51.7,17.6-73.1,35.7c-1.9,1.6-4.2,2.8-6.3,4.2c3.7-11,7-22,11.1-32.8c8-20.8,16-41.6,24.9-62
	C41.5,273,47.8,264.8,53.4,255.9z"/>
<path class="st3" d="M1.2,377.2c2.5-1.7,4.8-2.9,6.7-4.5c21.3-18.1,46.7-28.1,73.1-35.7c11.3-3.3,23-5.5,34.4-8.2
	c2.7-0.6,5.3-1.6,8.2-2.7c0.6-0.1,0.9,0.1,1.3,0.6c11.1,15.9,17.4,33.2,17.9,53c-43.2,0.5-86.4,0.6-129.6,0.7c-3.3,0-6.7,0.2-10-0.1
	C2.3,380.1,1.6,378.4,1.2,377.2z"/>
<path class="st3" d="M160.1,167c13.3,12.7,26.3,25.4,39.2,38.3c5,4.9,9.9,9.8,15.2,15c3.4,10.1,6.4,20,9.5,29.8
	c2.4,7.6,5,15.1,7.5,23c-11.2,0.4-21.2-4-30.9-9.2c-21.5-11.3-39.9-26.7-57.7-43.6c-1.2-18.6,4.7-35,14.3-50.3
	C157.9,169,158.9,168.1,160.1,167z"/>
</svg>
