<?xml version="1.0" encoding="utf-8"?>
<!-- Generator: Adobe Illustrator 26.5.0, SVG Export Plug-In . SVG Version: 6.00 Build 0)  -->
<svg version="1.1" id="Layer_1" xmlns="http://www.w3.org/2000/svg" xmlns:xlink="http://www.w3.org/1999/xlink" x="0px" y="0px"
	 viewBox="0 0 500 512" style="enable-background:new 0 0 500 512;" xml:space="preserve">
<style type="text/css">
	.st0{fill:#ABAAB0;}
	.st1{fill:#78777F;}
	.st2{fill:#C5C3CA;}
	.st3{fill:#88868F;}
	.st4{fill:#939299;}
</style>
<path class="st0" d="M501,382.6c-123.1,0.4-246.2,0.4-370,0c-10-0.4-19.2-0.5-28.5-1c2.1-14.4,4.1-28.5,6.4-42.4
	c1.7-10.3,3.7-20.6,5.4-30.9c2.2-13.5,4.2-27,6.4-40.5c2.1-12.7,4.2-25.4,6.3-38.1c1.4-9.4,2.8-18.7,4.3-28.1
	c1-6.3,2.1-12.7,3.5-18.9c0.3-1.5,1.9-3.4,3.3-3.8c23.2-7.3,46.4-14.3,69.6-21.5c14.1-4.4,28.2-8.8,42.4-13.1
	c13.7-4.1,27.4-8.1,41.5-11.8c-2,7.1-4.2,13.8-6.7,20.5c-10.4,27.4-20.8,54.8-31.2,82.2c-4.4,11.6-9,23.3-13.3,34.9
	c-0.4,1,0.5,2.4,1.1,3.9c1.4,0.7,2.6,1.5,3.8,1.6c13.7,1.1,27.4,2,41.1,3c13.1,0.9,26.1,2,39.2,2.9c18.5,1.3,37.1,2.7,55.6,3.9
	c15.6,1.1,31.3,1.9,47,3c6.1,0.4,12.2,1.4,18.3,1.8c5.2,0.3,10.4,0,15.6,0c4.2,9.5,8.4,19,12.6,28.6c7.4,17.2,14.7,34.5,22.1,51.8
	c1.2,2.8,2.5,5.6,4,8.5C501,380.1,501,381.1,501,382.6z"/>
<path class="st1" d="M126.6,229.7c-1.8,12.6-4,25.3-6,38c-2.2,13.5-4.2,27-6.4,40.5c-1.7,10.3-3.7,20.6-5.4,30.9
	c-2.2,14-4.3,28-6.4,42.6c0,0.6,0,1,0,1c-19.4,0.1-38.9,0.2-58.3,0.2c-14.1,0-28.2,0-42.7,0c-0.5-1-0.5-2.1-0.5-3.5
	c3.2-8,6.6-15.5,9.7-23.1c10.2-25.3,20.4-50.6,30.2-76c2.3-5.9,6-9.2,11.3-11.9c23.7-12,47.3-24.3,70.9-36.5
	C124.3,231.4,125.3,230.6,126.6,229.7z"/>
<path class="st2" d="M461.9,289.7c-5.2,0.4-10.4,0.7-15.5,0.4c-6.1-0.3-12.2-1.4-18.3-1.8c-15.6-1.1-31.3-1.9-47-3
	c-18.5-1.2-37.1-2.6-55.6-3.9c-13.1-0.9-26.1-1.9-39.2-2.9c-13.7-1-27.4-1.9-41.1-3c-1.2-0.1-2.4-0.8-3.5-1.7
	c36.7-19.9,73.3-39.3,109.9-58.8c5.7,3.3,11.4,6.5,17,9.9c9.7,6,19.2,12.2,28.8,18.3c19.5,12.4,39.2,24.6,58.6,37.3
	C458.7,282.3,460,286.3,461.9,289.7z"/>
<path class="st3" d="M351.5,214.7c-36.5,19.7-73.1,39.2-110,58.8c-0.6-1.1-1.5-2.5-1.1-3.5c4.3-11.7,8.9-23.3,13.3-34.9
	c10.4-27.4,20.9-54.8,31.2-82.2c2.5-6.6,4.8-13.4,7.1-20.5c0-0.4,0-0.4,0.2-0.4c0.3,0,0.7,0,0.7,0c18.8,26.5,37.7,53.1,56.5,79.6
	C350.2,212.5,350.7,213.4,351.5,214.7z"/>
<path class="st0" d="M292.9,131.8c0.1,0.2-0.4,0.3-0.6,0.3C292.3,131.9,292.6,131.7,292.9,131.8z"/>
<path class="st4" d="M102.9,382.8c-0.5-0.1-0.5-0.4-0.5-0.6c9.2-0.1,18.5,0,28,0.3C121.6,382.8,112.5,382.9,102.9,382.8z"/>
</svg>
