<?xml version="1.0" encoding="utf-8"?>
<!-- Generator: Adobe Illustrator 26.5.0, SVG Export Plug-In . SVG Version: 6.00 Build 0)  -->
<svg version="1.1" id="Layer_1" xmlns="http://www.w3.org/2000/svg" xmlns:xlink="http://www.w3.org/1999/xlink" x="0px" y="0px"
	 viewBox="0 0 500 512" style="enable-background:new 0 0 500 512;" xml:space="preserve">
<style type="text/css">
	.st0{fill:#798795;}
	.st1{fill:#616D77;}
	.st2{fill:#8E99A3;}
	.st3{fill:#505C63;}
	.st4{fill:#747C82;}
	.st5{fill:#7A858D;}
	.st6{fill:#5E6A75;}
	.st7{fill:#75818A;}
	.st8{fill:#414A50;}
	.st9{fill:#93A1AD;}
	.st10{fill:#F1F5FA;}
	.st11{fill:#F0F4F9;}
</style>
<path class="st0" d="M411.2,391.7c-0.1,0.7-0.1,1.4-0.6,2.5c-2.3-0.1-4.2-0.5-6.1-1C344.2,378.1,284,363,223.6,347.6
	c-9.4-12-18.4-23.8-27.7-35.4c-6.9-8.7-14-17.3-21.1-26.2c0-0.4,0.1-0.6,0.4-0.9c0.8-0.2,1.3-0.3,1.7-0.5
	c54.5-23.3,108.9-46.7,163.3-70.1c1.3-0.6,2.3-1.7,3.7-2.5c0.2,0,0.5,0,0.6,0.3c0,0.8,0.1,1.2,0.2,2c21.2,58,42.3,115.7,63.5,173.3
	C408.8,389.2,410.2,390.4,411.2,391.7z"/>
<path class="st1" d="M223.8,347.9c60.2,15.1,120.5,30.2,180.7,45.3c1.9,0.5,3.8,0.9,6.1,1.4c-6,10.9-12.3,21.8-18.8,32.6
	c-9.7,16.2-19.5,32.3-29.4,48.4c-0.9,1.4-2.1,2.6-3.8,3.6c-1.8-1-3-1.8-4.4-2.2c-44.6-13.5-89.1-26.9-133.7-40.8
	C221.7,406.4,222.7,377.2,223.8,347.9z"/>
<path class="st2" d="M344.6,212c0,0-0.4,0-0.7-0.2c-17.2-31.8-33.9-63.4-50.7-94.9c-1.7-3.2-4-6.2-6-9.6c0-0.2,0-0.7,0.2-1.1
	c0.3-15.2,0.4-30,0.5-44.9c0-0.6-0.5-1.2-0.5-2.2c0.4-2.4,0.9-4.5,0.9-6.6c0.1-11.6,0.1-23.2,0.1-34.8c2.7,1.8,5.6,3.5,8,5.6
	C311.2,36,326,48.8,341,61.3c14.6,12.2,29.4,24.1,44,36.3c4,3.4,7.5,7.4,10.9,11.5c-1,1.4-1.9,2.2-2.4,3.1
	C377.2,145.5,360.9,178.7,344.6,212z"/>
<path class="st3" d="M411.5,391.5c-1.4-1.2-2.8-2.4-3.3-3.9C387,330,365.9,272.3,345.1,214.4c18.4,9.4,36.5,19.1,54.6,28.8
	c9.3,4.9,18.6,9.8,27.9,14.7c-1,9.1-1.8,18.2-2.9,27.3c-1.1,9.4-2.5,18.8-3.7,28.1c-1.6,12.9-3.3,25.8-4.8,38.7
	C414.6,365.1,413.3,378.2,411.5,391.5z"/>
<path class="st4" d="M107.4,450.5c-1.6-4.4-3.6-8.7-4.8-13.1c-6.8-24.2-13.4-48.5-20-72.7c-2.5-9.2-5-18.4-7.3-28.4
	c1-1.6,1.7-2.9,2.7-3.4c12.7-6.1,25.4-12.2,38.3-17.9c12.1,43.4,24.1,86.4,35.7,129.5c-8.1,1-15.8,2-23.5,3
	C121.4,448.4,114.4,449.5,107.4,450.5z"/>
<path class="st5" d="M116.2,314.6c-12.7,6.1-25.5,12.1-38.2,18.2c-1.1,0.5-1.8,1.8-2.7,3.1c-0.4-1-1.2-2.4-1-3.7
	c1.8-11.3,3.8-22.6,5.6-33.9c1.8-11.2,3.3-22.4,5.1-33.6c2.2-14.3,4.6-28.6,6.8-42.9c1.7-11.2,3.2-22.4,5-33.6
	c2.2-14.2,4.5-28.3,6.7-42.5c1.2-7.4,2.2-14.8,3.8-22.2c1.8,1.5,3.1,2.9,4.4,4.4c7.7,8.3,15.4,16.5,23.1,25.2
	c-3.4,30.2-6.8,60.1-10.2,89.9c-2.7,23.5-5.5,47.1-8.3,70.9C116.2,314.3,116.2,314.4,116.2,314.6 M107.4,212.5
	c-2.4,14.4-4.8,28.9-7.1,43.3c-0.8,4.8,0.8,7.8,4.5,8.2c4.2,0.5,6.2-1.9,6.9-5.8c3.5-20.8,7-41.7,10.4-62.5c0.6-3.9,0-7.3-4.6-8.2
	c-3.9-0.7-6.2,1.7-7,6.9C109.4,200.1,108.5,205.9,107.4,212.5 M126,170.8c-0.3-3.6-2.4-6.1-5.9-5.4c-2.1,0.4-4.7,2.8-5.5,4.9
	c-1.2,3-1.6,6.8,2.1,9.1c2.9,1.8,6.8,0.6,8.1-2.5C125.5,175.2,125.6,173.3,126,170.8z"/>
<path class="st1" d="M427.6,257.5c-9.3-4.5-18.6-9.4-27.9-14.3c-18.1-9.7-36.2-19.4-54.7-29.1c-0.4-0.5-0.4-1-0.4-1.7
	c16.3-33.6,32.6-66.8,49-100c0.5-1,1.3-1.8,2.3-2.8c3,11.9,5.8,23.9,8.4,35.9c4.1,19.3,7.9,38.5,11.9,57.8
	c3.5,17.2,7.1,34.4,10.7,51.6C427,255.7,427.4,256.4,427.6,257.5z"/>
<path class="st3" d="M220.5,436.5c44.6,13.4,89.1,26.9,133.7,40.4c1.4,0.4,2.6,1.3,4,2.2c-14.3,1.9-28.8,3.7-43.4,5.3
	c-13.4,1.4-26.9,2.6-40.3,4c-10.5,1.1-21,2.5-31.5,3.7c-1.6,0.2-3.2,0-5.4-0.3c-1.5-1-2.3-1.9-3.2-2.4
	c-20.2-11.1-40.5-22.1-60.6-33.4c-6.3-3.5-12.4-7.6-18.1-11.5c2.5-0.4,4.5-0.8,6.6-1.1C181.7,441.2,201.1,438.9,220.5,436.5z"/>
<path class="st6" d="M134.8,152.7c-7.7-8.2-15.4-16.5-23.1-24.7c-1.3-1.4-2.6-2.9-4.1-4.6c9-4.4,18.1-8.5,27.4-12.5
	c18.7-8,37.4-15.9,56.2-23.8c1.8-0.7,3.6-1.4,6.1-1.9c13.5,3.3,26.3,6.5,38.9,9.9c-27.1,15.5-53.9,30.8-80.7,46.1
	c-6.3,3.6-12.4,7.6-18.9,11.4C135.6,152.7,135.2,152.7,134.8,152.7z"/>
<path class="st7" d="M236.2,94.9c-12.8-3.2-25.6-6.4-38.7-9.7c7.9-6.5,15.9-13,24.2-19.1c16.2-12.1,32.5-24.1,48.7-36.1
	c5.6-4.1,11.3-8.1,17.3-12.2c0.3,11.7,0.4,23.3,0.3,34.9c0,2.1-0.5,4.1-1.2,6.7c-10.4,7.5-20.3,14.5-30.2,21.6
	c-6.3,4.5-12.4,9.3-18.9,13.9C237.1,94.9,236.7,94.9,236.2,94.9z"/>
<path class="st8" d="M155.2,444.7c6.2,3.8,12.2,7.9,18.5,11.4c20.2,11.2,40.4,22.2,60.6,33.4c1,0.5,1.8,1.4,2.8,2.4
	c-7.5,1.3-15.1,2.4-22.7,3.4c-2.1,0.3-4.2,0.9-6.2,0.7c-4.7-0.4-10,0-14.1-1.9c-28.9-14-57.6-28.6-86.6-43.3
	c6.8-1.3,13.8-2.4,20.9-3.3c7.7-1,15.4-1.9,23.9-2.9C153.8,444.5,154.5,444.6,155.2,444.7z"/>
<path class="st1" d="M287.1,107.5c2,3.1,4.2,6.1,6,9.3c16.8,31.5,33.6,63.1,50.6,94.9c-1,1.1-2,2.2-3.3,2.8
	c-54.4,23.4-108.9,46.7-163.3,70.1c-0.4,0.2-0.9,0.3-1.8,0.1c0.3-13.3,0.9-26.3,1.5-39.2c0.8-15.7,1.7-31.4,2.9-47.3
	c5.4-4.4,10.5-8.7,15.6-13c21.6-18.2,43.3-36.3,64.9-54.6C269.2,123,278.1,115.2,287.1,107.5z"/>
<path class="st2" d="M155.6,444.6c-1.1,0-1.8,0-2.9-0.2c-12.3-43.1-24.3-86.1-36.5-129.5c-0.1-0.5-0.1-0.7,0.3-1.2
	c13-6.4,25.7-12.5,38.4-18.5c6.6-3.1,13.2-6,19.8-9c7,8.6,14.2,17.2,21.1,25.9c9.2,11.7,18.3,23.4,27.7,35.4
	c-0.9,29.5-1.9,58.8-3,88.5c-19.5,2.8-38.9,5.1-58.3,7.4C160.2,443.8,158.1,444.1,155.6,444.6z"/>
<path class="st9" d="M174.9,286c-6.6,3.3-13.3,6.1-19.9,9.2c-12.7,6-25.4,12.1-38.4,18.3c2.4-23.5,5.2-47,7.9-70.5
	c3.4-29.8,6.8-59.6,10.2-89.9c0.4-0.4,0.8-0.4,1.7-0.1c0.9,1.1,1.3,2,2,2.7c13.6,14.2,27.3,28.5,40.9,42.7
	c-0.9,15.7-1.8,31.4-2.6,47.1c-0.7,13-1.3,25.9-1.9,39.3C174.9,285.4,174.9,285.5,174.9,286z"/>
<path class="st0" d="M179.7,198.2c-13.9-14.1-27.6-28.3-41.2-42.5c-0.7-0.7-1.1-1.6-1.7-2.7c6.1-4.1,12.2-8.1,18.5-11.7
	c26.8-15.4,53.6-30.6,80.7-46.1c0.6-0.2,1.1-0.2,2.1-0.1c16.8,4,32.9,7.8,48.9,11.6c0,0,0,0.5,0,0.7c-9,7.9-17.9,15.7-26.9,23.4
	c-21.6,18.2-43.2,36.4-64.9,54.6C190.2,189.5,185.1,193.8,179.7,198.2z"/>
<path class="st9" d="M287.3,106.2C271,102.8,254.9,99,238.5,95c5.8-4.8,12-9.5,18.3-14.1c9.8-7.1,19.8-14,30-21.2c0.5,0.4,1,1,1,1.6
	C287.7,76.2,287.5,91,287.3,106.2z"/>
<path class="st10" d="M107.5,212.1c1-6.2,2-12,2.9-17.7c0.9-5.2,3.2-7.6,7-6.9c4.7,0.8,5.3,4.3,4.6,8.2
	c-3.4,20.8-6.9,41.7-10.4,62.5c-0.7,3.9-2.6,6.3-6.9,5.8c-3.7-0.4-5.3-3.4-4.5-8.2C102.6,241.4,105,226.9,107.5,212.1z"/>
<path class="st11" d="M126,171.2c-0.4,2.1-0.5,4-1.2,5.6c-1.4,3.2-5.3,4.3-8.1,2.5c-3.7-2.3-3.3-6-2.1-9.1c0.8-2.1,3.4-4.4,5.5-4.9
	C123.6,164.6,125.7,167.2,126,171.2z"/>
</svg>
