<?xml version="1.0" encoding="utf-8"?>
<!-- Generator: Adobe Illustrator 26.5.0, SVG Export Plug-In . SVG Version: 6.00 Build 0)  -->
<svg version="1.1" id="Layer_1" xmlns="http://www.w3.org/2000/svg" xmlns:xlink="http://www.w3.org/1999/xlink" x="0px" y="0px"
	 viewBox="0 0 40 40" style="enable-background:new 0 0 40 40;" xml:space="preserve">
<style type="text/css">
	.st0{fill:#F5CE85;}
	.st1{fill:#967A44;}
	.st2{fill:#F78F8F;}
	.st3{fill:#C74343;}
	.st4{fill:#F7AAAA;}
	.st5{fill:#FFEEA3;}
	.st6{fill:#BA9B48;}
	.st7{fill:#70D65B;}
	.st8{fill:#58B741;}
</style>
<g>
	<rect x="11.1" y="10.1" class="st0" width="18.4" height="26.1"/>
	<path class="st1" d="M29,10.6v25.1H11.6V10.6H29 M30,9.7H10.7v27.1H30V9.7L30,9.7z"/>
</g>
<path class="st1" d="M21.3,18.4h-1.9v-5.8c0-0.5,0.4-1,1-1l0,0c0.5,0,1,0.4,1,1V18.4z"/>
<path class="st1" d="M27.1,18.4h-1.9v-5.8c0-0.5,0.4-1,1-1l0,0c0.5,0,1,0.4,1,1V18.4z"/>
<path class="st1" d="M15.5,18.4h-1.9v-5.8c0-0.5,0.4-1,1-1l0,0c0.5,0,1,0.4,1,1V18.4z"/>
<g>
	<path class="st2" d="M11.1,10.1V9.7c0-4.5,7.8-8.5,9.2-9.1c1.4,0.6,9.2,4.6,9.2,9.1v0.5H11.1z"/>
	<g>
		<path class="st3" d="M20.3,1.1C23.1,2.4,29,6,29,9.7H11.6C11.6,6,17.6,2.4,20.3,1.1 M20.3,0c0,0-9.7,4.3-9.7,9.7c0,0.4,0,1,0,1H30
			v-1C30,4.3,20.3,0,20.3,0L20.3,0z"/>
	</g>
</g>
<g>
	<path class="st4" d="M17.4,9.7h5.8c0-7-2.9-8.6-2.9-8.6S17.4,2.7,17.4,9.7z"/>
</g>
<g>
	<polygon class="st0" points="2.4,36.2 2.4,21.6 20.3,15 38.2,21.6 38.2,36.2 	"/>
	<g>
		<path class="st1" d="M20.3,15.5l17.4,6.4v13.8H2.9V21.9L20.3,15.5 M20.3,14.5L2,21.3v15.5h36.7V21.3L20.3,14.5L20.3,14.5z"/>
	</g>
</g>
<g>
	<path class="st1" d="M32.1,30.2h2.6v-3.9c0-0.7-0.6-1.3-1.3-1.3l0,0c-0.7,0-1.3,0.6-1.3,1.3C32.1,26.2,32.1,30.2,32.1,30.2z"/>
</g>
<g>
	<path class="st1" d="M5.9,30.2h2.6v-3.9c0-0.7-0.6-1.3-1.3-1.3l0,0c-0.7,0-1.3,0.6-1.3,1.3V30.2z"/>
</g>
<g>
	<polygon class="st5" points="11.1,36.2 11.1,18.4 20.3,15 29.5,18.4 29.5,36.2 	"/>
	<g>
		<path class="st6" d="M20.3,15.5l8.7,3.2v17H11.6v-17L20.3,15.5 M20.3,14.5l-9.7,3.6v18.7H30V18.1L20.3,14.5L20.3,14.5z"/>
	</g>
</g>
<g>
	<path class="st1" d="M15.1,36.7h10.5v-7.9c0-2.9-2.3-5.2-5.2-5.2l0,0c-2.9,0-5.2,2.3-5.2,5.2L15.1,36.7L15.1,36.7z"/>
</g>
<g>
	<polygon class="st3" points="20.3,14.5 2,21.3 2,22.4 20.3,15.6 38.7,22.4 38.7,21.3 	"/>
</g>
<path class="st7" d="M34.2,36.6c1.2,0,2.5,0,3.7,0.1c1.3,0.1,2,0.6,2.1,1.3c0,0.4,0,0.8,0,1.3c-11.6,0-23.2,0-34.9,0
	C5,38.9,5,38.6,5,38.3c0-0.8,0.5-1.4,2-1.6c0.9,0,1.8,0,2.7,0c4.2,0,8.3,0,12.5,0c1.9,0,3.7,0,5.6,0c2,0,3.9,0,5.9,0
	C33.8,36.6,34,36.6,34.2,36.6z"/>
<path class="st8" d="M7.2,36.6c-1,0.3-1.3,0.9-1.3,1.6c0,0.3,0,0.6,0,0.9c-1.9,0-3.7,0-5.6,0c0-0.4,0-0.8,0-1.2
	c0-0.7,0.5-1.3,1.5-1.3c0.8-0.1,1.6,0,2.4-0.1C5.2,36.6,6.2,36.6,7.2,36.6z"/>
</svg>
