<?xml version="1.0" encoding="iso-8859-1"?>
<!-- Generator: Adobe Illustrator 19.0.0, SVG Export Plug-In . SVG Version: 6.00 Build 0)  -->
<svg version="1.1" id="Layer_1" xmlns="http://www.w3.org/2000/svg" xmlns:xlink="http://www.w3.org/1999/xlink" x="0px" y="0px"
	 viewBox="0 0 512 512" style="enable-background:new 0 0 512 512;" xml:space="preserve">
<rect x="136.699" y="256" style="fill:#EDEDED;" width="238.602" height="169.01"/>
<rect x="256" y="256" style="fill:#DBDBDB;" width="119.301" height="169.01"/>
<rect x="186.408" y="325.592" style="fill:#F8F8F9;" width="139.184" height="99.417"/>
<rect x="256" y="325.592" style="fill:#EDEDED;" width="69.592" height="99.417"/>
<polygon style="fill:#D38D94;" points="256,275.884 176.466,325.592 335.534,325.592 "/>
<polygon style="fill:#C18089;" points="256,275.884 256,325.592 335.534,325.592 "/>
<rect x="236.117" y="385.243" style="fill:#BFA993;" width="39.767" height="39.767"/>
<rect x="256" y="385.243" style="fill:#B29A7E;" width="19.883" height="39.767"/>
<g>
	<path style="fill:#88888F;" d="M256,432.466c-4.118,0-7.456-3.337-7.456-7.456v-19.883c0-4.119,3.338-7.456,7.456-7.456
		c4.119,0,7.456,3.337,7.456,7.456v19.883C263.456,429.129,260.119,432.466,256,432.466z"/>
	<path style="fill:#88888F;" d="M256,263.456c-4.118,0-7.456-3.337-7.456-7.456v-79.534c0-4.119,3.338-7.456,7.456-7.456
		c4.118,0,7.456,3.337,7.456,7.456V256C263.456,260.119,260.118,263.456,256,263.456z"/>
</g>
<g>
	<path style="fill:#D1E5F5;" d="M226.175,372.816c-4.118,0-7.456-3.337-7.456-7.456v-9.942c0-4.119,3.338-7.456,7.456-7.456
		s7.456,3.337,7.456,7.456v9.942C233.631,369.478,230.293,372.816,226.175,372.816z"/>
	<path style="fill:#D1E5F5;" d="M256,372.816c-4.118,0-7.456-3.337-7.456-7.456v-9.942c0-4.119,3.338-7.456,7.456-7.456
		c4.118,0,7.456,3.337,7.456,7.456v9.942C263.456,369.478,260.118,372.816,256,372.816z"/>
</g>
<path style="fill:#B4D8F1;" d="M285.825,372.816c-4.118,0-7.456-3.337-7.456-7.456v-9.942c0-4.119,3.338-7.456,7.456-7.456
	c4.118,0,7.456,3.337,7.456,7.456v9.942C293.282,369.478,289.943,372.816,285.825,372.816z"/>
<path style="fill:#88888F;" d="M86.99,134.214c-4.118,0-7.456-3.337-7.456-7.456V86.99c0-4.119,3.338-7.456,7.456-7.456
	c4.118,0,7.456,3.337,7.456,7.456v39.767C94.447,130.876,91.108,134.214,86.99,134.214z"/>
<rect x="47.223" y="126.757" style="fill:#EDEDED;" width="79.534" height="39.767"/>
<rect x="27.34" y="156.583" style="fill:#F8F8F9;" width="119.301" height="268.427"/>
<g>
	<path style="fill:#D1E5F5;" d="M116.816,203.806h-59.65c-4.118,0-7.456-3.337-7.456-7.456s3.338-7.456,7.456-7.456h59.65
		c4.118,0,7.456,3.337,7.456,7.456S120.933,203.806,116.816,203.806z"/>
	<path style="fill:#D1E5F5;" d="M116.816,243.573h-59.65c-4.118,0-7.456-3.337-7.456-7.456c0-4.119,3.338-7.456,7.456-7.456h59.65
		c4.118,0,7.456,3.337,7.456,7.456C124.272,240.235,120.933,243.573,116.816,243.573z"/>
	<path style="fill:#D1E5F5;" d="M116.816,283.34h-59.65c-4.118,0-7.456-3.337-7.456-7.456c0-4.119,3.338-7.456,7.456-7.456h59.65
		c4.118,0,7.456,3.337,7.456,7.456C124.272,280.002,120.933,283.34,116.816,283.34z"/>
	<path style="fill:#D1E5F5;" d="M116.816,323.107h-59.65c-4.118,0-7.456-3.337-7.456-7.456c0-4.119,3.338-7.456,7.456-7.456h59.65
		c4.118,0,7.456,3.337,7.456,7.456C124.272,319.769,120.933,323.107,116.816,323.107z"/>
	<path style="fill:#D1E5F5;" d="M116.816,362.874h-59.65c-4.118,0-7.456-3.337-7.456-7.456s3.338-7.456,7.456-7.456h59.65
		c4.118,0,7.456,3.337,7.456,7.456S120.933,362.874,116.816,362.874z"/>
	<path style="fill:#D1E5F5;" d="M116.816,402.641h-59.65c-4.118,0-7.456-3.337-7.456-7.456s3.338-7.456,7.456-7.456h59.65
		c4.118,0,7.456,3.337,7.456,7.456S120.933,402.641,116.816,402.641z"/>
</g>
<path style="fill:#88888F;" d="M425.01,134.214c-4.118,0-7.456-3.337-7.456-7.456V86.99c0-4.119,3.338-7.456,7.456-7.456
	c4.118,0,7.456,3.337,7.456,7.456v39.767C432.466,130.876,429.128,134.214,425.01,134.214z"/>
<rect x="385.243" y="126.757" style="fill:#DBDBDB;" width="79.534" height="39.767"/>
<rect x="365.359" y="156.583" style="fill:#EDEDED;" width="119.301" height="268.427"/>
<g>
	<path style="fill:#B4D8F1;" d="M454.835,203.806h-59.65c-4.118,0-7.456-3.337-7.456-7.456s3.338-7.456,7.456-7.456h59.65
		c4.118,0,7.456,3.337,7.456,7.456S458.953,203.806,454.835,203.806z"/>
	<path style="fill:#B4D8F1;" d="M454.835,243.573h-59.65c-4.118,0-7.456-3.337-7.456-7.456c0-4.119,3.338-7.456,7.456-7.456h59.65
		c4.118,0,7.456,3.337,7.456,7.456C462.291,240.235,458.953,243.573,454.835,243.573z"/>
	<path style="fill:#B4D8F1;" d="M454.835,283.34h-59.65c-4.118,0-7.456-3.337-7.456-7.456c0-4.119,3.338-7.456,7.456-7.456h59.65
		c4.118,0,7.456,3.337,7.456,7.456C462.291,280.002,458.953,283.34,454.835,283.34z"/>
	<path style="fill:#B4D8F1;" d="M454.835,323.107h-59.65c-4.118,0-7.456-3.337-7.456-7.456c0-4.119,3.338-7.456,7.456-7.456h59.65
		c4.118,0,7.456,3.337,7.456,7.456C462.291,319.769,458.953,323.107,454.835,323.107z"/>
	<path style="fill:#B4D8F1;" d="M454.835,362.874h-59.65c-4.118,0-7.456-3.337-7.456-7.456s3.338-7.456,7.456-7.456h59.65
		c4.118,0,7.456,3.337,7.456,7.456S458.953,362.874,454.835,362.874z"/>
	<path style="fill:#B4D8F1;" d="M454.835,402.641h-59.65c-4.118,0-7.456-3.337-7.456-7.456s3.338-7.456,7.456-7.456h59.65
		c4.118,0,7.456,3.337,7.456,7.456S458.953,402.641,454.835,402.641z"/>
</g>
<path style="fill:#95D5A7;" d="M82.019,425.01c8.236,0,14.913-6.677,14.913-14.913c0-5.284-2.756-9.914-6.9-12.563
	c1.223-2.163,1.929-4.658,1.929-7.318c0-8.237-6.677-14.913-14.913-14.913c-3.825,0-7.302,1.451-9.942,3.82
	c-2.64-2.368-6.117-3.82-9.942-3.82s-7.302,1.451-9.942,3.82c-2.64-2.368-6.117-3.82-9.942-3.82
	c-8.236,0-14.913,6.676-14.913,14.913c0,2.661,0.706,5.155,1.928,7.318c-4.144,2.649-6.899,7.279-6.899,12.563
	c0,8.236,6.677,14.913,14.913,14.913H82.019z"/>
<path style="fill:#80CB93;" d="M479.689,425.01c8.236,0,14.913-6.677,14.913-14.913c0-5.284-2.756-9.914-6.9-12.563
	c1.223-2.163,1.929-4.658,1.929-7.318c0-8.237-6.677-14.913-14.913-14.913c-3.825,0-7.302,1.451-9.942,3.82
	c-2.64-2.368-6.117-3.82-9.942-3.82s-7.302,1.451-9.942,3.82c-2.64-2.368-6.117-3.82-9.942-3.82
	c-8.236,0-14.913,6.676-14.913,14.913c0,2.661,0.706,5.155,1.929,7.318c-4.144,2.649-6.9,7.279-6.9,12.563
	c0,8.236,6.677,14.913,14.913,14.913H479.689z"/>
<path style="fill:#B4D8F1;" d="M256,347.961v24.854c4.118,0,7.456-3.337,7.456-7.456v-9.942
	C263.456,351.299,260.118,347.961,256,347.961z"/>
<path style="fill:#88888F;" d="M504.544,432.466H7.456c-4.118,0-7.456-3.337-7.456-7.456c0-4.119,3.338-7.456,7.456-7.456h497.087
	c4.118,0,7.456,3.337,7.456,7.456C512,429.129,508.662,432.466,504.544,432.466z"/>
<path style="fill:#797781;" d="M504.544,417.553H256v14.913h248.544c4.118,0,7.456-3.337,7.456-7.456
	C512,420.891,508.662,417.553,504.544,417.553z"/>
<rect x="256" y="176.466" style="fill:#7AB9E8;" width="49.709" height="29.825"/>
<g>
</g>
<g>
</g>
<g>
</g>
<g>
</g>
<g>
</g>
<g>
</g>
<g>
</g>
<g>
</g>
<g>
</g>
<g>
</g>
<g>
</g>
<g>
</g>
<g>
</g>
<g>
</g>
<g>
</g>
</svg>
