<svg version="1.1" id="Layer_1" xmlns="http://www.w3.org/2000/svg" xmlns:xlink="http://www.w3.org/1999/xlink" x="0px" y="0px"
	 width="100%" viewBox="0 0 80 80" enable-background="new 0 0 80 80" xml:space="preserve">
<path fill="#000000" opacity="1.000000" stroke="none" 
	d="
M42.000000,81.000000 
	C28.000000,81.000000 14.500000,81.000000 1.000000,81.000000 
	C1.000000,54.333332 1.000000,27.666666 1.000000,1.000000 
	C27.666666,1.000000 54.333332,1.000000 81.000000,1.000000 
	C81.000000,27.666666 81.000000,54.333332 81.000000,81.000000 
	C68.166664,81.000000 55.333332,81.000000 42.000000,81.000000 
M61.894478,78.963013 
	C67.460526,78.963013 73.026566,78.963013 78.831001,78.963013 
	C78.831001,68.588715 78.831001,58.853256 78.928497,48.363846 
	C77.814865,47.581192 76.795837,46.576233 75.570961,46.055012 
	C70.695152,43.980217 65.755165,42.056232 60.961845,39.138290 
	C60.918125,34.424015 60.874409,29.709740 60.962566,24.149822 
	C61.047295,15.857207 48.530354,2.736794 40.808571,3.024151 
	C32.365925,3.338334 20.717253,16.371689 21.039150,25.921680 
	C20.995440,30.586275 20.951729,35.250870 20.254093,40.244946 
	C15.474226,42.148220 10.644024,43.938786 5.950323,46.034996 
	C4.794851,46.551029 4.084145,48.062950 3.037811,50.024605 
	C3.037811,59.565086 3.037811,69.105568 3.037811,78.838844 
	C9.496416,78.838844 15.267573,78.838844 21.922947,78.972092 
	C24.603073,78.928467 27.283201,78.884842 30.897820,78.965950 
	C37.944508,78.924118 44.991196,78.882286 52.920456,78.972458 
	C55.600483,78.927933 58.280510,78.883415 61.894478,78.963013 
z"/>
<path fill="#967A44" opacity="1.000000" stroke="none" 
	d="
M52.037888,78.840454 
	C44.991196,78.882286 37.944508,78.924118 30.428200,78.580086 
	C29.943329,77.763168 29.928078,77.332115 29.945740,76.439529 
	C29.986511,71.507858 29.937450,67.036728 30.016144,62.567841 
	C30.122669,56.518219 34.849937,51.879566 40.705338,51.969181 
	C47.244965,52.069263 50.842575,55.890610 51.034668,62.583881 
	C51.174278,67.448250 51.638191,72.303307 51.970757,77.442184 
	C52.001965,78.094719 52.019924,78.467590 52.037888,78.840454 
z"/>
<path fill="#C84444" opacity="1.000000" stroke="none" 
	d="
M21.168776,24.998539 
	C20.717253,16.371689 32.365925,3.338334 40.808571,3.024151 
	C48.530354,2.736794 61.047295,15.857207 60.586636,24.589039 
	C59.798744,25.067347 59.386784,25.106436 58.507576,25.095329 
	C46.367561,25.079445 34.694790,25.113758 22.714111,25.112185 
	C21.993731,25.050379 21.581253,25.024458 21.168776,24.998539 
M37.323738,7.122392 
	C31.259756,10.822076 24.769733,14.143346 23.149082,22.840528 
	C27.538828,22.840528 31.293932,22.840528 35.957500,22.946522 
	C39.622074,22.911064 43.286644,22.875607 47.865818,22.932701 
	C51.374420,22.932701 54.883026,22.932701 59.186966,22.932701 
	C55.868092,14.679283 50.520267,10.335614 43.272373,6.885619 
	C41.520985,6.925876 39.769592,6.966133 37.323738,7.122392 
z"/>
<path fill="#C64744" opacity="1.000000" stroke="none" 
	d="
M60.838943,40.076401 
	C65.755165,42.056232 70.695152,43.980217 75.570961,46.055012 
	C76.795837,46.576233 77.814865,47.581192 78.568649,48.730492 
	C77.794296,49.110847 77.379799,49.124557 76.632477,48.970352 
	C71.212105,46.919838 66.124565,45.037247 60.780571,43.031662 
	C60.014885,42.661949 59.505657,42.415230 58.620270,42.076958 
	C54.876892,40.693821 51.570877,39.196354 48.124268,38.171841 
	C45.027462,37.251301 41.542065,35.800564 38.643818,36.447166 
	C33.266258,37.646912 28.191807,40.205250 22.700792,42.223694 
	C21.905363,42.504997 21.400278,42.760475 20.526554,43.041214 
	C15.051394,45.027679 9.944873,46.988892 4.559847,48.974789 
	C3.910553,49.038666 3.539761,49.077854 3.168970,49.117043 
	C4.084145,48.062950 4.794851,46.551029 5.950323,46.034996 
	C10.644024,43.938786 15.474226,42.148220 20.880722,40.028492 
	C22.038757,39.526142 22.570166,39.240250 23.438936,38.943317 
	C24.836548,38.594231 25.896795,38.256180 27.288776,37.874039 
	C28.791777,37.209064 29.963047,36.588188 31.499586,35.946095 
	C34.943356,34.698212 38.021858,33.471546 40.324707,32.553944 
	C43.816750,33.848003 46.945412,35.007401 50.344101,36.353664 
	C52.087837,36.993034 53.561546,37.445541 55.329170,38.062241 
	C56.452454,38.542908 57.281818,38.859375 58.356087,39.330376 
	C59.346970,39.682072 60.092957,39.879234 60.838943,40.076401 
z"/>
<path fill="#967A44" opacity="1.000000" stroke="none" 
	d="
M3.103391,49.570824 
	C3.539761,49.077854 3.910553,49.038666 4.612668,49.444954 
	C4.962736,56.979824 5.197087,64.077652 4.920207,71.155472 
	C4.751278,75.473747 5.801689,77.608788 10.590970,77.071068 
	C14.011765,76.687004 17.507317,76.968765 20.980888,77.267662 
	C21.007753,78.000885 21.023241,78.419868 21.038731,78.838844 
	C15.267573,78.838844 9.496416,78.838844 3.037811,78.838844 
	C3.037811,69.105568 3.037811,59.565086 3.103391,49.570824 
z"/>
<path fill="#967A44" opacity="1.000000" stroke="none" 
	d="
M76.965302,49.138271 
	C77.379799,49.124557 77.794296,49.110847 78.519897,49.107468 
	C78.831001,58.853256 78.831001,68.588715 78.831001,78.963013 
	C73.026566,78.963013 67.460526,78.963013 61.440193,78.586731 
	C61.000767,77.791397 61.015621,77.372353 61.494495,76.968796 
	C65.447365,76.988129 68.946808,76.824150 72.422035,77.043602 
	C75.813255,77.257744 77.159569,76.117699 77.059464,72.561401 
	C76.839851,64.758987 76.975006,56.946590 76.965302,49.138271 
z"/>
<path fill="#BA9B48" opacity="1.000000" stroke="none" 
	d="
M21.480839,78.905472 
	C21.023241,78.419868 21.007753,78.000885 20.990374,76.801804 
	C20.957386,65.019791 20.926291,54.017872 20.895195,43.015953 
	C21.400278,42.760475 21.905363,42.504997 22.708012,42.675591 
	C23.005577,54.283123 23.005577,65.464584 23.005577,76.901062 
	C25.961344,76.901062 27.937086,76.901062 29.912828,76.901062 
	C29.928078,77.332115 29.943329,77.763168 29.960953,78.517715 
	C27.283201,78.884842 24.603073,78.928467 21.480839,78.905472 
z"/>
<path fill="#BA9B48" opacity="1.000000" stroke="none" 
	d="
M61.030472,76.953300 
	C61.015621,77.372353 61.000767,77.791397 60.973225,78.524673 
	C58.280510,78.883415 55.600483,78.927933 52.479172,78.906456 
	C52.019924,78.467590 52.001965,78.094719 52.410549,77.389511 
	C54.755100,76.929008 56.673107,76.800850 58.996429,76.645599 
	C58.996429,64.777153 58.996429,53.472832 58.996429,42.168510 
	C59.505657,42.415230 60.014885,42.661949 60.772057,43.488758 
	C61.023491,55.030331 61.026985,65.991814 61.030472,76.953300 
z"/>
<path fill="#977A44" opacity="1.000000" stroke="none" 
	d="
M60.900394,39.607346 
	C60.092957,39.879234 59.346970,39.682072 58.633423,39.005676 
	C58.768848,34.066139 58.871834,29.605831 58.974823,25.145523 
	C59.386784,25.106436 59.798744,25.067347 60.520699,25.011860 
	C60.874409,29.709740 60.918125,34.424015 60.900394,39.607346 
z"/>
<path fill="#967A44" opacity="1.000000" stroke="none" 
	d="
M23.101574,38.954357 
	C22.570166,39.240250 22.038757,39.526142 21.207684,39.863754 
	C20.951729,35.250870 20.995440,30.586275 21.103962,25.460110 
	C21.581253,25.024458 21.993731,25.050379 22.707464,25.564346 
	C23.039671,30.353050 23.070623,34.653702 23.101574,38.954357 
z"/>
<path fill="#FFEEA3" opacity="1.000000" stroke="none" 
	d="
M58.620270,42.076958 
	C58.996429,53.472832 58.996429,64.777153 58.996429,76.645599 
	C56.673107,76.800850 54.755100,76.929008 52.397301,77.109848 
	C51.638191,72.303307 51.174278,67.448250 51.034668,62.583881 
	C50.842575,55.890610 47.244965,52.069263 40.705338,51.969181 
	C34.849937,51.879566 30.122669,56.518219 30.016144,62.567841 
	C29.937450,67.036728 29.986511,71.507858 29.945740,76.439529 
	C27.937086,76.901062 25.961344,76.901062 23.005577,76.901062 
	C23.005577,65.464584 23.005577,54.283123 22.998358,42.649769 
	C28.191807,40.205250 33.266258,37.646912 38.643818,36.447166 
	C41.542065,35.800564 45.027462,37.251301 48.124268,38.171841 
	C51.570877,39.196354 54.876892,40.693821 58.620270,42.076958 
z"/>
<path fill="#F5CE85" opacity="1.000000" stroke="none" 
	d="
M23.438936,38.943317 
	C23.070623,34.653702 23.039671,30.353050 23.015369,25.600235 
	C34.694790,25.113758 46.367561,25.079445 58.507576,25.095329 
	C58.871834,29.605831 58.768848,34.066139 58.388523,38.851143 
	C57.281818,38.859375 56.452454,38.542908 55.319946,37.621056 
	C54.986374,28.399632 54.986374,28.399632 51.611839,27.599327 
	C51.098633,30.458591 50.586353,33.312695 50.074070,36.166801 
	C46.945412,35.007401 43.816750,33.848003 40.324707,32.553944 
	C38.021858,33.471546 34.943356,34.698212 31.457104,35.512856 
	C30.299166,32.448559 32.751438,28.379509 26.957045,26.873674 
	C26.957045,31.041626 26.957045,34.479877 26.957045,37.918129 
	C25.896795,38.256180 24.836548,38.594231 23.438936,38.943317 
z"/>
<path fill="#F7A9A9" opacity="1.000000" stroke="none" 
	d="
M46.951218,22.840151 
	C43.286644,22.875607 39.622074,22.911064 35.498074,22.476089 
	C36.031834,17.005903 37.025017,12.006146 38.018204,7.006391 
	C39.769592,6.966133 41.520985,6.925876 43.652618,7.437834 
	C45.005646,12.940084 45.978432,17.890118 46.951218,22.840151 
z"/>
<path fill="#F78F8F" opacity="1.000000" stroke="none" 
	d="
M37.670967,7.064391 
	C37.025017,12.006146 36.031834,17.005903 35.043839,22.423094 
	C31.293932,22.840528 27.538828,22.840528 23.149082,22.840528 
	C24.769733,14.143346 31.259756,10.822076 37.670967,7.064391 
z"/>
<path fill="#F78F8F" opacity="1.000000" stroke="none" 
	d="
M47.408516,22.886425 
	C45.978432,17.890118 45.005646,12.940084 43.962822,7.624936 
	C50.520267,10.335614 55.868092,14.679283 59.186966,22.932701 
	C54.883026,22.932701 51.374420,22.932701 47.408516,22.886425 
z"/>
<path fill="#F5CE85" opacity="1.000000" stroke="none" 
	d="
M20.526556,43.041214 
	C20.926291,54.017872 20.957386,65.019791 20.978996,76.487564 
	C17.507317,76.968765 14.011765,76.687004 10.590970,77.071068 
	C5.801689,77.608788 4.751278,75.473747 4.920207,71.155472 
	C5.197087,64.077652 4.962736,56.979824 4.891172,49.420265 
	C9.944873,46.988892 15.051394,45.027679 20.526556,43.041214 
M12.681969,65.707390 
	C13.777586,64.663734 15.670604,63.710052 15.800657,62.557453 
	C16.060932,60.250771 15.356154,57.835194 15.049820,55.464577 
	C13.749653,56.022694 11.374411,56.516254 11.336349,57.150150 
	C11.175836,59.823448 11.712197,62.538586 12.681969,65.707390 
z"/>
<path fill="#F5CE85" opacity="1.000000" stroke="none" 
	d="
M61.494499,76.968796 
	C61.026985,65.991814 61.023491,55.030331 61.028511,43.611752 
	C66.124565,45.037247 71.212105,46.919838 76.632477,48.970352 
	C76.975006,56.946590 76.839851,64.758987 77.059464,72.561401 
	C77.159569,76.117699 75.813255,77.257744 72.422035,77.043602 
	C68.946808,76.824150 65.447365,76.988129 61.494499,76.968796 
M69.595222,64.622986 
	C69.595222,61.567238 69.595222,58.511494 69.595222,55.346176 
	C63.576317,54.797352 65.219673,59.078827 65.061844,61.940582 
	C64.918541,64.539078 65.474205,66.819092 69.595222,64.622986 
z"/>
<path fill="#987B45" opacity="1.000000" stroke="none" 
	d="
M50.344101,36.353664 
	C50.586353,33.312695 51.098633,30.458591 51.611839,27.599327 
	C54.986374,28.399632 54.986374,28.399632 55.026031,37.456860 
	C53.561546,37.445541 52.087837,36.993034 50.344101,36.353664 
z"/>
<path fill="#977B45" opacity="1.000000" stroke="none" 
	d="
M27.288776,37.874039 
	C26.957045,34.479877 26.957045,31.041626 26.957045,26.873674 
	C32.751438,28.379509 30.299166,32.448559 31.091835,35.534069 
	C29.963047,36.588188 28.791777,37.209064 27.288776,37.874039 
z"/>
<path fill="#977A44" opacity="1.000000" stroke="none" 
	d="
M12.337803,65.472900 
	C11.712197,62.538586 11.175836,59.823448 11.336349,57.150150 
	C11.374411,56.516254 13.749653,56.022694 15.049820,55.464577 
	C15.356154,57.835194 16.060932,60.250771 15.800657,62.557453 
	C15.670604,63.710052 13.777586,64.663734 12.337803,65.472900 
z"/>
<path fill="#967A44" opacity="1.000000" stroke="none" 
	d="
M69.306236,64.925339 
	C65.474205,66.819092 64.918541,64.539078 65.061844,61.940582 
	C65.219673,59.078827 63.576317,54.797352 69.595222,55.346176 
	C69.595222,58.511494 69.595222,61.567238 69.306236,64.925339 
z"/>
</svg>