<?xml version="1.0" encoding="iso-8859-1"?>
<!-- Generator: Adobe Illustrator 20.1.0, SVG Export Plug-In . SVG Version: 6.00 Build 0)  -->
<svg version="1.1" id="Layer_1" xmlns="http://www.w3.org/2000/svg" xmlns:xlink="http://www.w3.org/1999/xlink" x="0px" y="0px"
	 viewBox="0 0 40 40" style="enable-background:new 0 0 40 40;" xml:space="preserve">
<g>
	<rect x="10.5" y="11.5" style="fill:#F5CE85;" width="19" height="27"/>
	<path style="fill:#967A44;" d="M29,12v26H11V12H29 M30,11H10v28h20V11L30,11z"/>
</g>
<path style="fill:#967A44;" d="M21,20h-2v-6c0-0.552,0.448-1,1-1h0c0.552,0,1,0.448,1,1V20z"/>
<path style="fill:#967A44;" d="M27,20h-2v-6c0-0.552,0.448-1,1-1h0c0.552,0,1,0.448,1,1V20z"/>
<path style="fill:#967A44;" d="M15,20h-2v-6c0-0.552,0.448-1,1-1h0c0.552,0,1,0.448,1,1V20z"/>
<g>
	<path style="fill:#F78F8F;" d="M10.5,11.5V11c0-4.693,8.097-8.776,9.5-9.448c1.403,0.672,9.5,4.754,9.5,9.448v0.5H10.5z"/>
	<g>
		<path style="fill:#C74343;" d="M20,2.103c2.852,1.369,9,5.109,9,8.897H11C11,7.219,17.148,3.475,20,2.103 M20,1c0,0-10,4.5-10,10
			c0,0.396,0,1,0,1h20v-1C30,5.5,20,1,20,1L20,1z"/>
	</g>
</g>
<g>
	<path style="fill:#F7AAAA;" d="M17,11h6c0-7.195-3-8.897-3-8.897S17,3.805,17,11z"/>
</g>
<g>
	<polygon style="fill:#F5CE85;" points="1.5,38.5 1.5,23.349 20,16.533 38.5,23.349 38.5,38.5 	"/>
	<g>
		<path style="fill:#967A44;" d="M20,17.066l18,6.632V38H2V23.697L20,17.066 M20,16L1,23v16h38V23L20,16L20,16z"/>
	</g>
</g>
<g>
	<path style="fill:#967A44;" d="M32.214,32.214h2.714v-4.071c0-0.75-0.608-1.357-1.357-1.357h0c-0.75,0-1.357,0.608-1.357,1.357
		V32.214z"/>
</g>
<g>
	<path style="fill:#967A44;" d="M5.071,32.214h2.714v-4.071c0-0.75-0.608-1.357-1.357-1.357h0c-0.75,0-1.357,0.608-1.357,1.357
		V32.214z"/>
</g>
<g>
	<polygon style="fill:#FFEEA3;" points="10.5,38.5 10.5,20.033 20,16.533 29.5,20.033 29.5,38.5 	"/>
	<g>
		<path style="fill:#BA9B48;" d="M20,17.066l9,3.316V38H11V20.381L20,17.066 M20,16l-10,3.684V39h20V19.684L20,16L20,16z"/>
	</g>
</g>
<g>
	<path style="fill:#967A44;" d="M14.571,39h10.857v-8.143c0-2.998-2.43-5.429-5.429-5.429h0c-2.998,0-5.429,2.43-5.429,5.429V39z"/>
</g>
<g>
	<polygon style="fill:#C74343;" points="20,16 1,23 1,24.19 20,17.19 39,24.19 39,23 	"/>
</g>
</svg>
