<?xml version="1.0" encoding="iso-8859-1"?>
<!-- Generator: Adobe Illustrator 19.0.0, SVG Export Plug-In . SVG Version: 6.00 Build 0)  -->
<svg version="1.1" id="Capa_1" xmlns="http://www.w3.org/2000/svg" xmlns:xlink="http://www.w3.org/1999/xlink" x="0px" y="0px"
	 viewBox="0 0 480 480" style="enable-background:new 0 0 480 480;" xml:space="preserve">
<g>
	<path style="fill:#826E77;" d="M229.091,341.164v131.563c0,4.017-3.256,7.273-7.273,7.273h14.545H240V341.818
		C236.307,341.818,232.668,341.592,229.091,341.164z"/>
	<path style="fill:#695A69;" d="M240,480h3.636h14.545c-4.017,0-7.273-3.256-7.273-7.273V341.164
		c-3.577,0.428-7.216,0.654-10.909,0.654V480z"/>
	<path style="fill:#7CDAAF;" d="M279.894,16.591c0.445,0.397,0.883,0.802,1.318,1.211C280.777,17.394,280.34,16.989,279.894,16.591z
		"/>
	<path style="fill:#7CDAAF;" d="M286.006,22.818c0.358,0.417,0.712,0.837,1.059,1.263C286.718,23.655,286.364,23.235,286.006,22.818
		z"/>
	<path style="fill:#7CDAAF;" d="M284.061,20.652c0.386,0.41,0.766,0.827,1.141,1.247C284.826,21.479,284.446,21.063,284.061,20.652z
		"/>
	<path style="fill:#7CDAAF;" d="M282.021,18.575c0.415,0.404,0.823,0.815,1.227,1.229C282.844,19.389,282.436,18.979,282.021,18.575
		z"/>
	<path style="fill:#7CDAAF;" d="M289.607,27.406c0.306,0.427,0.609,0.857,0.905,1.292C290.217,28.263,289.914,27.833,289.607,27.406
		z"/>
	<path style="fill:#7CDAAF;" d="M287.857,25.071c0.332,0.422,0.659,0.847,0.98,1.278C288.516,25.918,288.189,25.493,287.857,25.071z
		"/>
	<path style="fill:#7CDAAF;" d="M291.257,29.823c0.28,0.431,0.559,0.863,0.829,1.301C291.816,30.686,291.537,30.254,291.257,29.823z
		"/>
	<path style="fill:#7CDAAF;" d="M268.04,8.174c0.647,0.359,1.284,0.734,1.917,1.114C269.324,8.907,268.688,8.533,268.04,8.174z"/>
	<path style="fill:#7CDAAF;" d="M273.012,11.228c0.551,0.373,1.093,0.759,1.631,1.148C274.104,11.987,273.563,11.602,273.012,11.228
		z"/>
	<path style="fill:#7CDAAF;" d="M270.561,9.646c0.595,0.365,1.18,0.746,1.763,1.129C271.742,10.392,271.157,10.012,270.561,9.646z"
		/>
	<path style="fill:#7CDAAF;" d="M275.386,12.915c0.512,0.381,1.016,0.774,1.516,1.169C276.401,13.688,275.898,13.296,275.386,12.915
		z"/>
	<path style="fill:#7CDAAF;" d="M277.681,14.704c0.477,0.389,0.946,0.788,1.412,1.19C278.627,15.491,278.158,15.093,277.681,14.704z
		"/>
	<path style="fill:#7CDAAF;" d="M299.649,48.767c0.111,0.422,0.23,0.84,0.333,1.265C299.879,49.607,299.76,49.189,299.649,48.767z"
		/>
	<path style="fill:#7CDAAF;" d="M240.007,0.109c8.984,0.493,17.483,2.802,25.142,6.559C257.49,2.91,248.992,0.603,240.007,0.109z"/>
	<path style="fill:#7CDAAF;" d="M300.362,51.767c0.085,0.401,0.18,0.798,0.258,1.201C300.543,52.564,300.448,52.167,300.362,51.767z
		"/>
	<path style="fill:#7CDAAF;" d="M300.956,54.936c0.055,0.339,0.121,0.674,0.17,1.015C301.077,55.61,301.011,55.275,300.956,54.936z"
		/>
	<path style="fill:#7CDAAF;" d="M298.809,45.849c0.136,0.433,0.278,0.863,0.405,1.299C299.087,46.712,298.945,46.282,298.809,45.849
		z"/>
	<path style="fill:#7CDAAF;" d="M294.232,34.882c0.232,0.438,0.465,0.876,0.687,1.32C294.697,35.758,294.464,35.32,294.232,34.882z"
		/>
	<path style="fill:#7CDAAF;" d="M295.553,37.52c0.208,0.44,0.418,0.879,0.617,1.325C295.971,38.399,295.761,37.96,295.553,37.52z"/>
	<path style="fill:#7CDAAF;" d="M296.758,40.229c0.184,0.44,0.371,0.878,0.546,1.323C297.129,41.106,296.942,40.668,296.758,40.229z
		"/>
	<path style="fill:#7CDAAF;" d="M297.844,43.005c0.16,0.438,0.325,0.874,0.476,1.317C298.169,43.879,298.004,43.443,297.844,43.005z
		"/>
	<path style="fill:#7CDAAF;" d="M292.799,32.316c0.256,0.435,0.511,0.87,0.758,1.312C293.311,33.186,293.055,32.751,292.799,32.316z
		"/>
	<path style="fill:#7CDAAF;" d="M265.45,6.812c0.71,0.353,1.409,0.724,2.104,1.102C266.859,7.536,266.16,7.165,265.45,6.812z"/>
	<path style="fill:#7CDAAF;" d="M240,323.636c-15.062,0-27.273-12.21-27.273-27.272c0-15.063,12.21-27.273,27.273-27.273v-18.182
		c-30.125,0-54.545-24.421-54.545-54.545c0-30.125,24.421-54.546,54.545-54.546V92.727c15.062,0,27.273-12.21,27.273-27.273
		c0-15.063-12.21-27.273-27.273-27.273V0.109C238.795,0.043,237.585,0,236.364,0c-33.964,0-61.88,25.869-65.133,58.978
		C149.408,70.591,134.545,93.556,134.545,120c0,9.009,1.743,17.606,4.879,25.497c-20.54,14.481-33.97,38.371-33.97,65.412
		c0,33.704,20.853,62.52,50.353,74.302c12.227,29.979,39.984,51.968,73.283,55.953c3.577,0.428,7.216,0.654,10.909,0.654V323.636z
		 M176.364,118.182c0-9.037,7.326-16.364,16.364-16.364c9.037,0,16.364,7.326,16.364,16.364s-7.326,16.364-16.364,16.364
		C183.69,134.545,176.364,127.219,176.364,118.182z"/>
	<path style="fill:#65B1A8;" d="M334.68,141.716c2.261-6.831,3.502-14.126,3.502-21.716c0-26.444-14.863-49.409-36.685-61.022
		c-0.1-1.016-0.224-2.025-0.37-3.027c-0.05-0.341-0.116-0.676-0.17-1.015c-0.106-0.658-0.21-1.317-0.336-1.968
		c-0.078-0.403-0.173-0.8-0.258-1.201c-0.123-0.579-0.242-1.161-0.38-1.734c-0.103-0.425-0.222-0.844-0.333-1.265
		c-0.142-0.541-0.28-1.083-0.436-1.619c-0.127-0.437-0.269-0.866-0.405-1.299c-0.16-0.51-0.316-1.022-0.489-1.527
		c-0.151-0.443-0.316-0.879-0.476-1.317c-0.177-0.486-0.352-0.973-0.541-1.454c-0.175-0.445-0.362-0.883-0.546-1.323
		c-0.193-0.463-0.385-0.927-0.588-1.384c-0.199-0.446-0.409-0.885-0.617-1.325c-0.208-0.441-0.416-0.883-0.634-1.318
		c-0.222-0.444-0.455-0.882-0.687-1.32c-0.222-0.42-0.444-0.84-0.675-1.254c-0.246-0.441-0.501-0.876-0.758-1.312
		c-0.235-0.399-0.47-0.798-0.713-1.192c-0.27-0.438-0.549-0.87-0.829-1.301c-0.245-0.377-0.492-0.754-0.745-1.125
		c-0.296-0.435-0.599-0.865-0.905-1.292c-0.254-0.354-0.509-0.707-0.77-1.056c-0.321-0.431-0.649-0.856-0.98-1.278
		c-0.261-0.333-0.524-0.663-0.792-0.99c-0.348-0.426-0.701-0.847-1.059-1.263c-0.265-0.309-0.534-0.615-0.805-0.919
		c-0.375-0.42-0.755-0.836-1.141-1.247c-0.268-0.285-0.54-0.567-0.813-0.848c-0.404-0.415-0.812-0.825-1.227-1.229
		c-0.267-0.26-0.538-0.516-0.809-0.772c-0.434-0.409-0.872-0.814-1.318-1.211c-0.264-0.235-0.533-0.466-0.801-0.698
		c-0.466-0.402-0.935-0.801-1.412-1.19c-0.257-0.209-0.518-0.414-0.779-0.619c-0.501-0.396-1.004-0.788-1.516-1.169
		c-0.245-0.183-0.495-0.359-0.743-0.538c-0.539-0.389-1.08-0.775-1.631-1.148c-0.227-0.154-0.458-0.301-0.688-0.452
		c-0.583-0.384-1.167-0.764-1.763-1.129c-0.199-0.123-0.403-0.239-0.604-0.359c-0.634-0.38-1.27-0.755-1.917-1.114
		c-0.161-0.089-0.325-0.172-0.486-0.26c-0.695-0.377-1.394-0.749-2.104-1.102c-0.099-0.049-0.201-0.095-0.301-0.144
		c-7.659-3.757-16.158-6.066-25.142-6.559c-0.002,0-0.005,0-0.007-0.001v0v38.073c15.062,0,27.273,12.21,27.273,27.273
		c0,15.062-12.21,27.273-27.273,27.273v49.091c-30.125,0-54.545,24.421-54.545,54.546c0,30.125,24.421,54.545,54.545,54.545v18.182
		c-15.062,0-27.273,12.21-27.273,27.273c0,15.062,12.21,27.272,27.273,27.272v18.182c3.693,0,7.332-0.226,10.909-0.654
		c33.299-3.985,61.056-25.974,73.283-55.953c29.5-11.782,50.353-40.598,50.353-74.302
		C374.545,181.358,358.511,155.569,334.68,141.716z M301.818,260c-19.079,0-34.545-15.467-34.545-34.545
		c0-19.079,15.466-34.545,34.545-34.545c19.079,0,34.545,15.466,34.545,34.545C336.364,244.533,320.897,260,301.818,260z"/>
	<circle style="fill:#7CDAAF;" cx="301.818" cy="225.455" r="34.545"/>
	<circle style="fill:#65B1A8;" cx="192.727" cy="118.182" r="16.364"/>
</g>
<g>
</g>
<g>
</g>
<g>
</g>
<g>
</g>
<g>
</g>
<g>
</g>
<g>
</g>
<g>
</g>
<g>
</g>
<g>
</g>
<g>
</g>
<g>
</g>
<g>
</g>
<g>
</g>
<g>
</g>
</svg>
