<?xml version="1.0" encoding="utf-8"?>
<!-- Generator: Adobe Illustrator 18.0.0, SVG Export Plug-In . SVG Version: 6.00 Build 0)  -->
<!DOCTYPE svg PUBLIC "-//W3C//DTD SVG 1.1//EN" "http://www.w3.org/Graphics/SVG/1.1/DTD/svg11.dtd">
<svg version="1.1" id="Icon_Set" xmlns="http://www.w3.org/2000/svg" xmlns:xlink="http://www.w3.org/1999/xlink" x="0px" y="0px"
	 viewBox="0 0 512 512" style="enable-background:new 0 0 512 512;" xml:space="preserve">
<style type="text/css">
	.st0{fill:#4C4372;}
	.st1{fill:#F0C48A;}
	.st2{fill:#FD919E;}
	.st3{fill:#E8677D;}
	.st4{fill:#D3E6F8;}
	.st5{fill:#A4CFF2;}
	.st6{fill:#7BABF1;}
	.st7{fill:#FFFFFF;}
</style>
<g>
	<g>
		<g>
			<g>
				<circle class="st1" cx="256" cy="256" r="207"/>
			</g>
		</g>
	</g>
	<g>
		<g>
			<g>
				<g>
					<path class="st4" d="M256,353.296H79.279c-15.914,0-25.859-17.227-17.902-31.009l88.36-153.044l88.36-153.045
						c7.956-13.781,27.849-13.781,35.805,0l88.36,153.045l88.36,153.044c7.957,13.782-1.989,31.009-17.903,31.009H256z"/>
				</g>
			</g>
			<g>
				<g>
					<path class="st5" d="M240.721,12.591l196.76,340.158c13.026-3.015,20.27-18.116,13.142-30.462l-88.36-153.044l-88.36-153.045
						C266.715,3.75,249.792,2.55,240.721,12.591z"/>
				</g>
			</g>
			<g>
				<g>
					<path class="st0" d="M432.72,359.158H79.279c-9.593,0-18.183-4.96-22.98-13.267c-4.797-8.309-4.797-18.228,0-26.536
						L233.02,13.268C237.816,4.96,246.407,0,256,0c9.593,0,18.184,4.96,22.979,13.268L455.7,319.355
						c4.796,8.308,4.796,18.228,0,26.536C450.903,354.198,442.313,359.158,432.72,359.158z M256,11.726
						c-5.355,0-10.148,2.768-12.826,7.404L66.454,325.219c-2.677,4.637-2.677,10.174,0,14.809c2.677,4.637,7.471,7.405,12.825,7.405
						H432.72c5.353,0,10.148-2.769,12.825-7.405c2.677-4.637,2.677-10.173,0-14.809L268.825,19.13
						C266.148,14.493,261.353,11.726,256,11.726z"/>
				</g>
			</g>
			<g>
				<g>
					<circle class="st0" cx="256.706" cy="32.183" r="9.423"/>
				</g>
			</g>
			<g>
				<g>
					<rect x="231.839" y="353.296" class="st7" width="48.321" height="152.842"/>
				</g>
			</g>
			<g>
				<g>
					<rect x="260.527" y="353.296" class="st4" width="19.633" height="152.842"/>
				</g>
			</g>
			<g>
				<g>
					<circle class="st0" cx="85.96" cy="326.977" r="9.423"/>
				</g>
			</g>
			<g>
				<g>
					<circle class="st0" cx="426.039" cy="326.977" r="9.423"/>
				</g>
			</g>
			<g>
				<g>
					<path class="st0" d="M280.16,512h-48.321c-3.237,0-5.862-2.625-5.862-5.862V353.296c0-3.237,2.625-5.862,5.862-5.862h48.321
						c3.237,0,5.862,2.625,5.862,5.862v152.842C286.022,509.375,283.397,512,280.16,512z M237.702,500.274h36.595V359.158h-36.595
						V500.274z"/>
				</g>
			</g>
		</g>
		<g>
			<g>
				<path class="st2" d="M256,318.445H115.895c-7.212,0-11.72-7.808-8.114-14.054l70.052-121.334l70.052-121.333
					c3.607-6.246,12.622-6.246,16.228,0l70.052,121.333l70.052,121.334c3.606,6.246-0.901,14.054-8.114,14.054H256z"/>
			</g>
		</g>
		<g>
			<g>
				<path class="st3" d="M247.886,61.725l-3.167,5.486l145.703,251.234h5.682c7.213,0,11.721-7.808,8.114-14.054L264.114,61.725
					C260.507,55.479,251.492,55.479,247.886,61.725z"/>
			</g>
		</g>
		<g>
			<g>
				<path class="st0" d="M396.103,324.309H115.895c-5.506,0-10.437-2.848-13.191-7.617c-2.753-4.768-2.753-10.462,0-15.231
					L242.809,58.793c2.754-4.77,7.685-7.615,13.191-7.615c5.506,0,10.438,2.846,13.191,7.615L409.295,301.46
					c2.753,4.77,2.753,10.463,0,15.231C406.542,321.461,401.61,324.309,396.103,324.309z M256,62.902
					c-0.609,0-2.124,0.171-3.037,1.753L112.859,307.322c-0.914,1.583-0.304,2.98,0,3.507c0.305,0.527,1.209,1.754,3.037,1.754
					h280.208c1.828,0,2.732-1.227,3.037-1.754c0.304-0.526,0.914-1.924,0-3.507L259.037,64.655
					C258.123,63.073,256.608,62.902,256,62.902z"/>
			</g>
		</g>
		<g>
			<g>
				<g>
					<path class="st0" d="M217.112,224.53c-0.707,0-1.426-0.129-2.124-0.4c-3.018-1.175-4.512-4.572-3.337-7.59l19.404-49.86
						c1.174-3.018,4.573-4.514,7.589-3.338c3.018,1.175,4.512,4.572,3.337,7.59l-19.403,49.86
						C221.675,223.11,219.459,224.53,217.112,224.53z"/>
				</g>
			</g>
			<g>
				<g>
					<path class="st0" d="M233.912,231.067c-0.707,0-1.426-0.129-2.125-0.4c-3.018-1.175-4.512-4.572-3.337-7.59l19.404-49.859
						c1.174-3.017,4.572-4.511,7.589-3.338c3.018,1.175,4.512,4.572,3.337,7.59l-19.404,49.859
						C238.474,229.648,236.258,231.067,233.912,231.067z"/>
				</g>
			</g>
			<g>
				<g>
					<path class="st0" d="M225.512,227.799c-0.707,0-1.426-0.129-2.124-0.401c-3.018-1.174-4.512-4.572-3.337-7.589l19.403-49.86
						c1.174-3.017,4.573-4.514,7.589-3.338c3.018,1.175,4.512,4.573,3.337,7.59l-19.403,49.86
						C230.075,226.379,227.859,227.799,225.512,227.799z"/>
				</g>
			</g>
		</g>
		<g>
			<g>
				<path class="st0" d="M217.219,297.891c-3.238,0-5.863-2.625-5.863-5.863v-71.329c0-3.237,2.625-5.862,5.863-5.862
					c3.238,0,5.863,2.625,5.863,5.862v71.329C223.082,295.266,220.457,297.891,217.219,297.891z"/>
			</g>
		</g>
		<g>
			<g>
				<path class="st0" d="M248.616,297.891c-3.238,0-5.863-2.625-5.863-5.863v-38.918l-12.897-30.102
					c-1.275-2.977,0.105-6.423,3.08-7.698c2.977-1.273,6.423,0.104,7.698,3.08l13.37,31.208c0.313,0.729,0.474,1.515,0.474,2.309
					v40.121C254.479,295.266,251.854,297.891,248.616,297.891z"/>
			</g>
		</g>
		<g>
			<g>
				<g>
					<path class="st0" d="M233.917,231.065c-1.779,0-3.536-0.806-4.688-2.336l-23.86-31.691c-1.221-1.621-1.516-3.76-0.78-5.651
						l11.831-30.401c1.174-3.018,4.571-4.511,7.59-3.338c3.017,1.175,4.511,4.573,3.337,7.59l-10.646,27.358l21.896,29.082
						c1.947,2.586,1.429,6.261-1.158,8.209C236.383,230.683,235.145,231.065,233.917,231.065z"/>
				</g>
			</g>
			<g>
				<g>
					<path class="st0" d="M259.342,237.867c-0.325,0-0.653-0.026-0.984-0.083c-3.192-0.539-5.343-3.564-4.803-6.758l8.615-50.965
						c0.54-3.193,3.572-5.347,6.758-4.804c3.193,0.539,5.343,3.564,4.804,6.758l-8.615,50.965
						C264.631,235.843,262.15,237.867,259.342,237.867z"/>
				</g>
			</g>
		</g>
		<g>
			<g>
				
					<rect x="220.015" y="169.498" transform="matrix(0.9319 0.3627 -0.3627 0.9319 79.2422 -77.0079)" class="st0" width="49.43" height="6.116"/>
			</g>
			<g>
				<path class="st0" d="M266.652,190.232c-0.708,0-1.427-0.128-2.125-0.4l-46.065-17.927c-3.018-1.175-4.511-4.572-3.337-7.59
					l2.217-5.699c0.564-1.448,1.68-2.613,3.104-3.24c1.424-0.625,3.038-0.661,4.486-0.098l46.065,17.927
					c1.45,0.564,2.615,1.681,3.241,3.105c0.625,1.423,0.66,3.037,0.097,4.485l-2.218,5.699
					C271.214,188.814,268.999,190.232,266.652,190.232z"/>
			</g>
		</g>
		<g>
			<g>
				<circle class="st0" cx="254.516" cy="143.516" r="16.125"/>
			</g>
		</g>
		<g>
			<g>
				<path class="st0" d="M300.145,280.064c-1.483,0-2.968-0.559-4.109-1.681l-68.695-67.522c-2.309-2.27-2.341-5.981-0.071-8.291
					c2.269-2.308,5.982-2.341,8.291-0.071l68.695,67.521c2.309,2.271,2.341,5.983,0.072,8.292
					C303.178,279.478,301.662,280.064,300.145,280.064z"/>
			</g>
		</g>
		<g>
			<g>
				<polygon class="st4" points="320.66,264.199 285.344,264.199 273.768,290.95 332.236,290.95 				"/>
			</g>
		</g>
		<g>
			<g>
				<path class="st0" d="M233.913,234.634h-13.629c-1.893,0-3.669-0.914-4.77-2.453c-1.1-1.54-1.391-3.517-0.778-5.308l1.699-4.967
					c0.812-2.371,3.041-3.965,5.547-3.965h7.737c1.727,0,3.365,0.762,4.48,2.08l4.193,4.967c1.472,1.743,1.798,4.183,0.837,6.252
					C238.269,233.311,236.194,234.634,233.913,234.634z"/>
			</g>
		</g>
		<g>
			<g>
				<polygon class="st5" points="320.66,264.199 332.236,290.95 311.89,290.95 307.509,264.199 				"/>
			</g>
		</g>
		<g>
			<g>
				<path class="st0" d="M332.236,296.814h-58.469c-1.975,0-3.816-0.994-4.9-2.645c-1.084-1.649-1.265-3.734-0.48-5.547
					l11.576-26.752c0.929-2.145,3.042-3.534,5.38-3.534h35.316c2.338,0,4.452,1.39,5.38,3.534l11.576,26.752
					c0.784,1.813,0.603,3.897-0.48,5.547C336.052,295.819,334.21,296.814,332.236,296.814z M282.692,285.088h40.619l-6.502-15.026
					h-27.614L282.692,285.088z"/>
			</g>
		</g>
	</g>
</g>
</svg>
