<?xml version="1.0" encoding="UTF-8"?><svg id="Laag_1" xmlns="http://www.w3.org/2000/svg" viewBox="0 0 311.23 841.89"><defs><style>.cls-1{fill:#ee7473;}.cls-2{fill:#6d4318;}.cls-3{fill:#ffd24c;}.cls-4{fill:#d8a870;}.cls-5{fill:#916139;}.cls-6{fill:#edcbb2;}.cls-7{fill:#5482b7;}.cls-8{fill:#4e4e2d;}.cls-9{fill:#3c494a;}.cls-10{fill:#3f63ac;}.cls-11{fill:#63401f;}.cls-12{fill:#eb5b5b;}.cls-13{fill:#dbbf52;}.cls-14{fill:#cba33c;}.cls-15{fill:#d8504c;}.cls-16{fill:#fde0cc;}.cls-17{fill:#e5b83a;}.cls-18{fill:#5d3b22;}.cls-19{fill:#ca8b45;}.cls-20{fill:#a65219;}</style></defs><path class="cls-7" d="M173.09,718.11c-2.68-.15-4.75-1.28-5.25-4.04-.43-2.36-.49-4.79-.58-7.2-.94-26.88-1.76-53.76-2.81-80.63-1.12-28.93-2.43-57.86-3.73-86.79-.11-2.37-.48-4.81-1.22-7.05-.66-2-2.24-3.48-4.63-3.45-2.38,.02-4.07,1.4-4.53,3.52-.8,3.68-1.45,7.45-1.57,11.21-.46,13.79-.56,27.59-1.01,41.37-1.32,41.35-2.74,82.7-4.13,124.04-.11,3.38,.44,7.09-4.63,8.24-1.83-4.3-4.38-5.52-7.79-5.74-7.16-.47-14.37-.64-21.45-1.65-10.97-1.56-15.74,2.81-17.39,11.25-.31,1.57-.3,3.53-3.04,3.6-1.19-3.4-2.1-7.02-3.69-10.31-2.21-4.58-6.62-5.61-11.31-3.37-3.18,1.51-2.5,4.55-3.23,7.06-1.06-1.24-2.82-2.37-3.05-3.75-.51-3.03-.28-6.19-.28-9.29,0-79.05,0-158.09-.01-237.14,0-3.8-.06-7.59,.82-12.44,6.84-1.42,12.92-.15,19.33-2.15,.08-9.6,.16-18.68,1.13-27.88,5.04-.04,9.2,.05,13.39,1.07,.56,9.61-.96,18.4,1.11,27.51,8.82,.78,17.26,.24,26.02,1.2,1.71,1.65,3.01,3.06,4.47,3.26,3.01,.42,6.11,.21,9.17,.22,10.55,0,21.1-.03,31.66,0,3.3,.01,6.13-.57,8.07-4.27,4.34,0,7.77,.1,11.19-.03,3.66-.13,7.46,.64,11.59-1.23,.85-9.25,.16-18.46,1.35-27.74,5.15-.04,9.4,.05,13.67,1.07,.03,5.39-.11,9.85,.1,14.3,.21,4.32-1.18,8.88,1.7,13.45,6.71,0,13.53,0,20.45,.96,.19,25.9,.27,50.83-.16,76.21-1.94,1.42-3.35,2.42-4.79,3.35-23.32,15.17-34.73,36.67-34.02,64.46,.59,23.3,11.06,41.55,29.24,55.64,3.26,2.53,6.86,4.61,10.31,6.89-.08,14.71-.13,29.41-.28,44.12-.04,3.39-.44,6.77-1.47,10.01-1.95-5.38-6.15-6.36-10.32-5.96-3.74,.36-5.67,3.52-6.43,7.21-.41,2.02-.79,4.09-1.54,6-.6,1.54,.5,3.96-2.46,4.77-.79-3.08-1.54-6.06-2.32-9.03-1.89-7.21-5.37-9.85-12.58-9.33-7.9,.57-15.77,1.46-23.68,1.84-4.76,.22-7.83,2.18-9.36,6.64Z"/><path class="cls-12" d="M102.38,425.64c-4.16-.08-8.32-.17-14.29-.28-7.99-.13-14.18-.23-20.36-.33-2.99-8.66-2.81-17.63-2.75-26.61,.1-14.15,.13-28.29,.19-42.44,.01-3.79,0-7.57-.98-11.46-.86,5.16-1.96,10.28-2.54,15.47-1.7,15.42-3.14,30.87-4.79,46.29-1.68,15.77-3.52,31.52-5.22,47.28-.48,4.46-.71,8.94-2.02,14.32-15.77,.81-30.56,.71-45.36,.62,.89-9.94,1.86-19.87,2.65-29.81,.79-9.95,1.45-19.92,2.1-29.88,1.66-25.43,3.19-50.87,4.95-76.3,1.74-25.08,3.66-50.14,5.59-75.21,1.38-17.87,11.47-30.25,28.73-34.93,5.62-1.52,11.47-2.26,17.25-3.16,12.58-1.96,25.19-3.8,38.8-4.9,1.98,12.67,6.2,23.54,11.3,34.15,8.53,17.74,19.03,34.32,30.04,50.6,3.08,4.55,5.97,9.22,8.89,14.85-.09,35.78-.12,70.55-1.09,105.37-6.39,.06-11.83,.07-17.28,.09-4.06,.01-6.25,2.16-7.88,6-9.27,.07-17.62,.18-25.96,.3Z"/><path class="cls-12" d="M220.67,425.64c-4.25-.09-8.49-.17-14.57-.27-9.29,.02-16.74,.05-24.42-.71-1.15-3.62-3.12-5.15-6.08-5.24-4.29-.13-8.58-.16-12.86-1.22-.04-35.7-.09-70.43,.06-105.83,2.56-4.49,4.89-8.31,7.27-12.1,10.1-16.05,19.27-32.62,27.03-49.94,5.24-11.69,9.34-23.7,9.47-36.73,12.63,1.74,25.26,3.47,37.89,5.22,4.1,.57,8.21,1.06,12.28,1.78,19.09,3.36,32.79,17.07,34.71,34.7,.52,4.8,1.07,9.6,1.38,14.41,1.01,16.17,1.81,32.36,2.9,48.53,1.67,24.76,3.55,49.52,5.29,74.27,.82,11.69,1.53,23.4,2.31,35.09,.87,13.07,1.76,26.14,1.84,40.16-15.5,.98-30.19,1.01-44.84,.1-.26-5.76-.39-10.59-.88-15.39-2.6-25.71-5.22-51.42-7.97-77.12-1.41-13.2-3.12-26.37-4.69-39.56-.77,22.1-.85,44.13-.72,66.16,.05,7.99-.47,15.84-4.06,23.42-7.71,.07-14.52,.16-21.33,.25Z"/><path class="cls-16" d="M202.19,145.76c-.04,6.48,.71,13.13-3.42,18.85-1.99,2.76-4.12,5.41-6.26,8.06-2.34,2.88-5.93,4.78-7.73,9.53-1.78,1.2-2.93,1.4-3.6,2.08-5.2,5.27-11.64,6.9-18.78,6.79-5.16-.08-10.35-.31-15.48,.07-5.46,.4-10.17-1.3-14.67-3.96-2.36-1.39-4.59-2.99-6.88-4.5-2.48-2.85-4.67-6.02-7.48-8.49-8.14-7.14-11.38-16.15-11.08-28.55-.01-10.38-.04-18.91,.21-28.19,.4-10.62,.52-20.49,1.66-30.38,15.71,.25,30.24,3.14,45,2.42,8.2-.4,16.42-.17,24.62-.55,7.83-.37,15.65-1.17,23.53-.78,.07,10.31,.08,19.61,.13,29.84,.11,9.87,.17,18.82,.23,27.77Z"/><path class="cls-10" d="M206.32,212.92c.13,13.71-3.97,25.73-9.21,37.42-7.77,17.31-16.93,33.88-27.03,49.94-2.38,3.79-4.71,7.61-7.85,12.46-3.54,4.51-5.46,1.51-7.59,.15-2.98-4.62-5.88-9.29-8.95-13.84-11.01-16.28-21.5-32.85-30.04-50.6-5.1-10.6-9.32-21.48-10.38-34.2,.33-1.77,.73-2.71,1.19-3.63,3.58-7.16,3.84-7.29,14.03-6.07,8.56,5.14,15.88,9.61,23.15,14.16,7.72,4.83,15.52,5.14,23.31,.35,6.99-4.29,13.86-8.78,20.78-13.18,.97-.21,1.96-.36,2.91-.63,9.32-2.72,10.45-2.22,15.67,7.67Z"/><path class="cls-5" d="M71.23,719.07c.58-3.42-.09-6.46,3.09-7.97,4.7-2.23,9.1-1.21,11.31,3.37,1.59,3.29,2.5,6.91,3.69,10.31,2.74-.07,2.73-2.03,3.04-3.6,1.65-8.44,6.43-12.81,17.39-11.25,7.09,1.01,14.29,1.18,21.45,1.65,3.41,.22,5.95,1.45,6.98,5.93,.07,17.6-.11,34.34-.24,51.08-.01,1.35-.11,2.94,.52,4.02,4.42,7.58,3.31,15.88,3.41,24.03,.04,3.42,0,6.84-.97,11.18-4.85,.49-8.26,1.29-11.48,3.79-3.75,2.92-7.89,5.35-11.86,7.98-3.16,2.09-6.46,3.83-10.47,3.09,.16-7.25-3.64-11.9-7.75-15.84-4.96-4.75-11.1-8-18.21-8.4-11.33-.63-22.6-.75-32.14,7.02-.76,.62-1.84,.85-2.78,1.27,.12-7.27,4.6-11.94,9.82-16.04,3.49-2.75,7.2-5.23,10.87-7.76,3.36-2.32,4.89-5.26,4.82-9.52-.27-17.81-.26-35.62-.5-54.35m36.62,43.38c2.53,1.37,4.55,.69,6.03-1.65,1.06-1.68,.56-3.31-.8-4.52-2.04-1.8-4.15-2.2-7.92,.55q-24.08,.13-28.43,3.65c10.64,1.31,20.56,.21,31.12,1.97m-.02,16.55c3.07,1.47,5.3,.35,6.38-2.59,.35-.94-.32-2.71-1.11-3.52-1.87-1.93-4.03-2.31-7.85,.42-8.63,.14-17.26,.26-25.88,.46-1.52,.04-2.5,.89-1.91,3.12,9.7,1.79,19.72,.38,30.38,2.11m-3.17-38.52c-5.46-.02-10.91-.01-16.37-.05-3.93-.03-7.51,.91-11.05,3.1,3.32,3.01,6.71,3.04,10.15,3.02,6.48-.03,12.96,0,20.28,1.14,3.15,1.67,5.26,.3,6.66-2.48,1.07-2.14,.16-4.07-1.53-5.45-2.23-1.81-4.4-1.47-8.13,.72Z"/><path class="cls-5" d="M173.27,719.02c1.34-5.38,4.42-7.33,9.18-7.55,7.9-.37,15.78-1.27,23.68-1.84,7.2-.52,10.69,2.13,12.58,9.33,.78,2.97,1.53,5.95,2.32,9.03,2.97-.81,1.86-3.23,2.46-4.77,.74-1.91,1.12-3.97,1.54-6,.76-3.69,2.68-6.85,6.43-7.21,4.17-.4,8.37,.58,9.68,6.51-.12,7.39-.38,14.08-1.49,21.55-2.94,.54-4.94,.63-7.4,2.4-9.14,.02-17.32,.04-26.03-.48-3.42-2.34-5.61-1.31-7.23,1.3-1.29,2.09-.71,4.53,1.49,6.14,2.21,1.62,4.32,1.51,6.92-.94,9.31,.05,17.67,.1,26.42,.65,2.44,.95,4.5,1.4,6.56,1.85,.06,1.37,.13,2.73-.52,4.88-2.54,1.41-4.36,2.05-7.18,2.78-9.57,.07-18.14,.05-27.08-.53-2.93-1.86-4.89-1.05-6.33,1.24-1.07,1.71-.45,3.34,.85,4.49,2.01,1.77,4.13,2.18,6.84-.57,9.55,.02,18.12,.09,27.04,.66,2.34,.88,4.32,1.26,6.31,1.65,.06,2.07,.11,4.15-.69,6.95-2.79,.96-5.06,.27-7.12,2.77-9.52,0-18.05-.06-26.95-.66-2.91-1.81-4.89-1.11-6.3,1.26-1.02,1.71-.45,3.33,.88,4.47,2.02,1.73,4.15,2.15,6.87-.56,9.48,0,17.98,.03,26.88,.63,2.63,.73,4.86,.9,7.1,1.07,4.52,3.52,8.95,7.18,13.6,10.53,4.77,3.44,8.93,7.25,9.88,13.82-3.77-.74-6.84-2.18-9.94-3.56-6.88-3.08-14.18-2.03-21.3-1.85-13.23,.33-27.73,10.58-28.28,25.05-7.91-1.54-13.53-6-19.38-9.92-4.52-3.03-9.05-5.83-14.48-6.86-.18-7.86-.39-15.71-.51-23.57-.02-1.35-.02-2.88,.55-4.05,3.49-7.12,2.56-14.71,2.56-22.19,0-12.33-.13-24.66-.39-37.9Z"/><path class="cls-17" d="M94.42,54.35c1.61-10.52,3.2-21.05,4.84-31.56,.53-3.4,1.06-6.8,1.75-10.16,1.89-9.15,5.62-12.03,14.83-12.44,9.46-.42,17.71,2.2,24.49,8.83,4.12,4.03,8.7,6.55,14.62,6.55,5.03,0,9.49-1.3,13.35-4.58,2.36-2,4.69-4.05,7.18-5.88,7.84-5.74,16.86-5.72,25.77-4.31,5.35,.85,7.48,5.8,8.68,10.58,1,3.99,1.44,8.12,1.93,12.22,1.14,9.56,2.16,19.14,2.17,29.68-40.57,1-80.09,1.05-119.61,1.09Z"/><path class="cls-3" d="M201.76,87.15c-7.82,.61-15.63,1.41-23.47,1.78-8.2,.38-16.43,.15-24.62,.55-14.76,.72-29.3-2.18-45.57-2.86-5.03-.91-8.49-1.41-11.95-1.91-8.38-1.87-16.82-3.55-25.13-5.67-7.33-1.87-14.56-4.16-21.77-6.46-3.03-.96-5.56-2.82-6.51-6.12-1.82-6.33,3.05-12.04,9.6-11.02,3.04,.47,5.96,1.71,8.97,2.41,9.71,2.26,19.43,4.44,30.75,6.98,3.93,.83,6.23,1.53,8.59,1.81,8.15,.96,16.34,1.65,24.49,2.68,24.66,3.12,49.25,1.74,73.75-1.48,6.01-.79,12.44-.28,18.06-3.43,10.04-2.14,20.1-4.23,30.12-6.45,3.35-.74,6.57-2.03,9.92-2.74,3.53-.75,6.88,1.12,8.54,4.31,1.79,3.45,1.3,8.2-1.65,10.34-2.44,1.78-5.32,3.1-8.19,4.12-12,4.25-24.4,6.98-36.9,9.32-1.34,.25-2.63,.72-5.42,1.43-5,.32-8.64-.19-11.63,2.42Z"/><path class="cls-16" d="M45.61,495.64c3.65,7.21,1.82,14.87,1.65,22.35-.09,4.07-1.11,8.12-1.62,12.18-.45,3.58-3.91,6.83-6.75,6.22-2.92-.62-5.98-4.86-5.07-7.92,1.2-4.06,1.8-8.03,1.02-12.19-.27-1.46-1.21-1.99-5.18-2.88-.88,7.82-1.96,15.58-2.56,23.37-.4,5.14,.17,10.36-.28,15.49-.26,2.97-1.5,5.92-2.68,8.71-.47,1.11-1.85,2.13-3.04,2.57-6.48,2.43-14.59-.81-17.48-7.11-2.15-4.69-3.83-9.55-3.59-14.89,.3-6.5,.4-12.93,1.49-19.46,1.29-7.72,.48-15.79,1.48-24.84,14.8-1.29,28.71-1.45,42.62-1.61Z"/><path class="cls-20" d="M216.87,63.65c-5.54,3.91-11.97,3.4-17.98,4.19-24.49,3.21-49.09,4.59-73.75,1.48-8.15-1.03-16.33-1.72-24.49-2.68-2.35-.28-4.66-.97-7.76-1.82-.2-3.26,.37-6.18,1.23-9.78,39.81-.73,79.33-.77,119.85-.84,1.61,2.88,2.21,5.79,2.9,9.46Z"/><path class="cls-18" d="M107.19,823.51c3.92-.07,7.22-1.81,10.38-3.91,3.97-2.63,8.11-5.06,11.86-7.98,3.22-2.51,6.62-3.3,11.3-2.84,.89,5.18,1.16,10.33,1.02,15.47-.09,3.38-1.75,5.45-5.01,5.38-5.18-.11-9.08,2.29-13.27,4.72-8.43,4.9-17.45,7.76-27.45,7.52-13.06-.31-26.14-.05-39.21-.1-3.04-.01-6.08-.28-8.65-.41-4.05-4.7-2.75-9.69-1.93-15.21,17.04-.78,33.06-.67,49.07-.76,4.01-.02,8.24,.69,11.89-1.89Z"/><path class="cls-18" d="M170.82,807.65c5.66,.11,10.2,2.91,14.72,5.94,5.85,3.92,11.47,8.38,20.16,10.39,2.85,.8,4.18,1.26,5.52,1.26,18.37-.04,36.74-.14,55.11-.22,.07,3.43,.35,6.87,.16,10.29-.26,4.71-1.79,6.16-6.25,6.45-1.71,.11-3.44,.04-5.16,.04-13.07,0-26.14-.22-39.2,.08-8.88,.2-17.06-1.98-24.71-6.1-6.01-3.23-11.5-7.58-18.71-6.02-3.51-7.53-1.63-14.45-1.64-22.11Z"/><path class="cls-19" d="M107.1,822.69c-3.55,3.4-7.79,2.69-11.79,2.71-16.01,.1-32.03-.02-48.95-.12-.96-5.78-1-11.49-.59-17.87,1.39-1.09,2.47-1.32,3.23-1.94,9.54-7.77,20.81-7.65,32.14-7.02,7.11,.39,13.25,3.65,18.21,8.4,4.12,3.94,7.91,8.6,7.75,15.84Z"/><path class="cls-1" d="M49.03,497.03c-14.2,.95-28.11,1.11-42.98,1.49-3.33-.31-5.91-1.08-5.97-3.89-.17-7.7-.07-15.4,.18-23.09,.03-.98,1.61-1.92,3.23-2.95,15.56,.02,30.36,.12,46.11,.24,1.52,.82,2.66,1.7,2.56,2.42-1.09,8.32-.23,16.86-3.14,25.79m-7.56-8.3c.98-1.31,2.48-2.49,2.84-3.96,.92-3.74-1.42-6.2-5.03-5.34-1.48,.35-3.39,1.48-3.86,2.73-.45,1.18,.43,3.17,1.27,4.44,.68,1.03,2.16,1.54,4.79,2.12Z"/><path class="cls-19" d="M266.48,824.15c-18.53,.96-36.9,1.06-55.27,1.09-1.33,0-2.66-.46-4.78-1.19-.97-15.02,13.53-25.27,26.76-25.6,7.12-.18,14.43-1.23,21.3,1.85,3.09,1.38,6.16,2.82,10.1,4.33,1.25,6.28,1.64,12.46,1.88,19.52Z"/><path class="cls-16" d="M187.42,205.12c-6.61,5.16-13.48,9.65-20.47,13.95-7.79,4.79-15.59,4.48-23.31-.35-7.27-4.55-14.59-9.03-22.35-14.03,1.69-1.98,2.09-4.18,2.18-6.61,.07-1.97,.47-3.92,1.91-6.16,1.99,.38,2.9,.93,3.56,1.7,5.12,5.94,11.79,7.94,19.37,7.82,5.17-.08,10.34,.04,15.51-.03,5.99-.08,11.51-1.42,16.16-5.6,1.45-1.3,3.55-1.88,5.36-2.78,.59,3.78,1.19,7.55,2.1,12.09Z"/><path class="cls-11" d="M66.97,425.56c6.95-.42,13.13-.32,20.24-.07,.85,9.22,.77,18.3,.68,27.9-6.4,2-12.49,.73-19.34,1.2-1.61-.63-2.82-1.3-2.9-2.09-.87-8.82-1.84-17.66,1.31-26.94Z"/><path class="cls-6" d="M185.4,192.19c-1.88,1.75-3.99,2.33-5.43,3.63-4.65,4.18-10.17,5.52-16.16,5.6-5.17,.07-10.34-.05-15.51,.03-7.57,.11-14.24-1.88-19.37-7.82-.66-.77-1.58-1.33-3.04-2.3-.65-2.54-.63-4.76-.58-7.82,2.33,.67,4.57,2.26,6.92,3.66,4.51,2.67,9.22,4.36,14.67,3.96,5.14-.38,10.32-.14,15.48-.07,7.14,.11,13.58-1.53,18.78-6.79,.67-.68,1.82-.88,3.48-1.36,.76,2.77,.79,5.6,.74,9.27Z"/><path class="cls-2" d="M96.19,85.66c3.43-.45,6.89,.05,10.9,.99,.44,10.31,.32,20.17-.61,30.57-2.7-1.34-4.6-3.23-6.49-5.11-1.26-8.5-2.52-17-3.8-26.46Z"/><path class="cls-2" d="M201.83,88.15c2.92-3.61,6.56-3.1,10.84-2.94-.23,8.53,.14,17.11-3.37,26.42-2.63,3.08-3.93,5.93-7.38,5.45,0-9.31-.01-18.62-.08-28.92Z"/><path class="cls-6" d="M201.96,117.99c3.41-.44,4.7-3.29,7.21-5.54,4.83,.88,5.63,4.11,4.96,7.77-1.11,6.05-2.5,12.05-3.86,18.06-.81,3.59-2.87,6.17-7.31,7.35-.82-8.82-.89-17.77-.99-27.64Z"/><path class="cls-6" d="M99.14,112.44c2.74,1.55,4.63,3.44,7.06,5.54,.56,8.75,.59,17.27,.58,26.79-2.49,.59-4.76-.38-5.58-2.84-2.77-8.31-5.1-16.75-4.58-25.64,.07-1.2,1.09-2.35,2.51-3.85Z"/><path class="cls-4" d="M233.18,740.48c1.51-1.77,3.51-1.86,6.38-1.53,1,2.96,1.22,5.83,1.12,9.38-2.38,.22-4.44-.23-6.27-1.36,3.64-2.86,3.48-2.97,.28-5.22-.54-.38-1.01-.85-1.51-1.27Z"/><path class="cls-14" d="M233.47,773.27c1.08-2.46,3.35-1.77,5.88-1.99,.94,2.19,1.28,4.39,1.61,7.41-2.24,.66-4.48,.49-6.48-.39,.94-1.61,1.64-2.51,2.34-3.4-1.12-.54-2.24-1.08-3.36-1.62Z"/><path class="cls-4" d="M233.65,756.56c1.83-.63,3.65-1.27,6.08-2,.81,2.36,1.01,4.82,.89,8.16-2.31,.5-4.29,.11-5.99-.9,3.49-3.24,3.43-3.43-.99-5.25Z"/><path class="cls-13" d="M162.74,419.18c4.29,.07,8.58,.1,12.87,.24,2.96,.09,4.93,1.61,5.96,6.19,.21,10.79,.32,19.84,.43,28.89-1.03,3.7-3.86,4.28-7.16,4.27-10.55-.04-21.1,0-31.66,0-3.06,0-6.16,.2-9.17-.22-1.46-.2-2.75-1.61-4.32-4.23-.27-10.81-.34-19.87-.42-28.93,.69-3.88,2.89-6.03,6.94-6.04,5.44-.01,10.89-.03,18.11-.03,3.99-.04,6.2-.09,8.41-.13m-13.11,10.35c-3.35,.32-6.88-.84-10.5,1.46-1.49,4.77-.94,9.93-.44,14.99,.12,1.26,2.1,3.29,3.29,3.33,8.95,.32,17.92,.35,26.87,.11,1.25-.03,3.39-1.9,3.51-3.08,.54-5.35,1.63-10.86-.97-16.23-6.75-1.17-13.3-.33-21.76-.59Z"/><path class="cls-11" d="M128.34,425.35c1.01,9.1,1.08,18.16,1,28.18-8.56,.8-17,1.34-25.82,.56-2.07-9.11-.54-17.9-1.11-27.51,8.31-1.05,16.65-1.16,25.93-1.23Z"/><path class="cls-11" d="M182.91,454.5c-1.02-9.04-1.13-18.09-1.13-28.09,7.58-.99,15.03-1.02,23.42-.92,.64,9.3,1.33,18.51,.48,27.76-4.12,1.87-7.92,1.09-11.59,1.23-3.42,.13-6.85,.02-11.19,.03Z"/><path class="cls-11" d="M242,425.39c2.93,9,2,18.06,1.22,28.02-7.19,.91-14.01,.91-20.72,.91-2.88-4.58-1.49-9.13-1.7-13.45-.22-4.45-.07-8.91-.1-14.3,6.79-1.02,13.6-1.11,21.31-1.18Z"/><path class="cls-15" d="M162.74,418.2c-2.22,1.03-4.43,1.08-7.48,1.07-.8-34.82-.78-69.6-.69-105.38,2.19,.36,4.1,3.36,7.45-.48,.62,34.36,.67,69.08,.72,104.79Z"/><path class="cls-8" d="M106.83,746.55c-6.48,0-12.96-.03-19.44,0-3.44,.02-6.83,0-10.15-3.02,3.54-2.19,7.12-3.13,11.05-3.1,5.46,.04,10.91,.04,17.71,.54,2.41,1.08,3.48,1.67,4.97,2.5-1.65,1.23-2.9,2.16-4.14,3.08Z"/><path class="cls-8" d="M107.1,777.88c-9.92-.6-19.95,.81-29.65-.98-.59-2.23,.39-3.08,1.91-3.12,8.63-.21,17.26-.32,27.49-.37,4.67,2.74,4.64,2.84,.24,4.47Z"/><path class="cls-9" d="M107.12,761.31c-9.83-.61-19.75,.49-30.39-.82q4.35-3.51,30.01-3.54c2.27,.99,2.95,1.87,3.64,2.76-1.09,.53-2.17,1.07-3.26,1.6Z"/><path class="cls-14" d="M107.25,747.13c.82-1.5,2.07-2.42,3.72-3.65-1.49-.83-2.56-1.42-4.03-2.49,1.45-2.68,3.62-3.03,5.85-1.21,1.69,1.38,2.6,3.31,1.53,5.45-1.39,2.78-3.51,4.15-7.08,1.91Z"/><path class="cls-14" d="M107.47,778.44c4.03-2.2,4.06-2.29,.38-5.11,1.22-2.75,3.37-2.37,5.25-.44,.79,.82,1.46,2.58,1.11,3.52-1.08,2.94-3.3,4.06-6.74,2.02Z"/><path class="cls-14" d="M107.49,761.88c.72-1.11,1.81-1.64,2.89-2.17-.69-.88-1.37-1.77-2.66-2.82,1.21-2.8,3.32-2.4,5.36-.59,1.37,1.21,1.86,2.84,.8,4.52-1.47,2.34-3.49,3.02-6.39,1.07Z"/><path class="cls-8" d="M232.23,740.48c1.45,.42,1.93,.89,2.46,1.27,3.21,2.25,3.36,2.36-.66,4.72-8.98,.13-17.34,.08-27.1-.37-2.34-1.07-3.28-1.75-4.33-2.51,1.64-1.21,2.88-2.13,4.12-3.05,8.19-.02,16.37-.04,25.51-.06Z"/><path class="cls-8" d="M232.49,773.31c2.1,.5,3.22,1.04,4.34,1.58-.7,.9-1.4,1.79-2.73,2.84-9.13,.12-17.64,.08-27.73-.06-4.77-2.67-4.74-2.77-.47-4.47,8.54,.05,17.07,.1,26.59,.11Z"/><path class="cls-8" d="M232.66,756.65c5.41,1.73,5.47,1.92,1.62,4.67-9.22,.06-17.79-.02-27.95-.17-4.66-2.54-4.63-2.64-.38-4.47,8.57,.02,17.15,.05,26.71-.02Z"/><path class="cls-19" d="M206.2,740c-.72,1.46-1.97,2.38-3.61,3.59,1.06,.76,1.99,1.44,3.38,2.51-1.2,2.85-3.3,2.96-5.52,1.34-2.19-1.61-2.78-4.05-1.49-6.14,1.62-2.61,3.81-3.64,7.23-1.3Z"/><path class="cls-14" d="M205.53,772.65c-3.91,2.25-3.93,2.35-.14,5.06-1.13,2.82-3.26,2.39-5.27,.67-1.33-1.14-1.91-2.76-.88-4.47,1.41-2.36,3.39-3.06,6.3-1.26Z"/><path class="cls-14" d="M205.58,756.12c-3.88,2.38-3.91,2.49-.23,5.08-1.11,2.83-3.24,2.42-5.25,.65-1.3-1.15-1.92-2.78-.85-4.49,1.44-2.3,3.4-3.1,6.33-1.24Z"/><path class="cls-7" d="M241.4,505.64c1.5,16.27,2.03,32.95,2.08,49.63,.11,34.94-.02,69.89-.19,106.49-6.48,.68-11.17-2.66-15.68-6.25-19.9-15.85-32.82-34.74-36.11-58.18-5.17-36.88,10.1-66.33,43.74-89.31,1.38-.95,3.3-1.32,6.16-2.38Z"/><path class="cls-15" d="M40.72,488.8c-1.88-.66-3.36-1.16-4.04-2.2-.84-1.28-1.72-3.26-1.27-4.44,.48-1.25,2.38-2.38,3.86-2.73,3.61-.86,5.95,1.6,5.03,5.34-.36,1.46-1.86,2.65-3.59,4.03Z"/><path class="cls-15" d="M271.64,486.81c-1.34,.39-2.09,.65-2.66,.43-3.19-1.16-4.55-2.91-3.93-4.83,.84-2.6,4-3.79,6.69-2.5,2.41,1.15,2.55,2.78-.1,6.9Z"/><path class="cls-2" d="M150.61,429.53c7.48,.26,14.03-.58,20.78,.59,2.6,5.37,1.5,10.88,.97,16.23-.12,1.18-2.26,3.05-3.51,3.08-8.95,.23-17.92,.2-26.87-.11-1.18-.04-3.17-2.07-3.29-3.33-.5-5.06-1.05-10.22,.44-14.99,3.62-2.3,7.16-1.15,11.48-1.46Z"/><path class="cls-16" d="M308.24,497.24c1,9.05,.19,17.12,1.48,24.84,1.09,6.53,1.19,12.96,1.49,19.46,.24,5.34-1.44,10.2-3.59,14.89-2.89,6.3-11,9.54-17.48,7.11-1.19-.45-2.57-1.47-3.04-2.57-1.18-2.79-2.42-5.74-2.68-8.71-.45-5.13,.12-10.35-.28-15.49-.61-7.79-1.68-15.55-2.56-23.37-3.97,.89-4.91,1.43-5.18,2.88-.77,4.15-.18,8.13,1.02,12.19,.91,3.06-2.16,7.3-5.07,7.92-2.85,.61-6.3-2.64-6.75-6.22-.51-4.07-1.53-8.11-1.62-12.18-.17-7.48-1.99-15.14,1.65-22.35,13.91,.16,27.82,.32,42.62,1.61Z"/><path class="cls-1" d="M260.29,468.82c14.69-.03,29.38-.06,45.09-.13,2.88,.3,4.25,1.35,4.27,3.27,.08,7.49,.06,14.97-.03,22.46-.03,2.42-1.75,3.5-5.69,4.01-15.16-.04-28.52-.08-42.38-.83-1.4-8.65-2.42-16.58-3.1-24.54-.12-1.35,1.19-2.83,1.84-4.25m12.02,17.65c1.98-3.78,1.84-5.41-.57-6.56-2.69-1.28-5.85-.1-6.69,2.5-.62,1.93,.74,3.68,3.93,4.83,.58,.21,1.33-.05,3.33-.78Z"/></svg>