<?xml version="1.0" encoding="iso-8859-1"?>
<!-- Generator: Adobe Illustrator 19.0.0, SVG Export Plug-In . SVG Version: 6.00 Build 0)  -->
<svg version="1.1" id="Layer_1" xmlns="http://www.w3.org/2000/svg" xmlns:xlink="http://www.w3.org/1999/xlink" x="0px" y="0px"
	 viewBox="0 0 512 512" style="enable-background:new 0 0 512 512;" xml:space="preserve">
<ellipse transform="matrix(0.4663 -0.8846 0.8846 0.4663 4.4083 292.0738)" style="fill:#FF8D36;" cx="244.269" cy="142.383" rx="106.902" ry="76.063"/>
<path style="opacity:0.2;enable-background:new    ;" d="M294.124,47.823c-4.442-2.342-9.104-4.018-13.914-5.078
	c19.246,26.765,19.502,71.613-2.188,112.758c-24.24,45.985-67.79,71.984-103.22,64.175c5.184,7.21,11.733,13.121,19.619,17.278
	c37.16,19.589,89.602-6.87,117.134-59.097S331.283,67.412,294.124,47.823z"/>
<ellipse transform="matrix(0.4663 -0.8846 0.8846 0.4663 65.0547 410.0027)" style="fill:#69B551;" cx="372.329" cy="151.085" rx="106.902" ry="76.063"/>
<path style="opacity:0.2;enable-background:new    ;" d="M423.01,57.012c15.611,27.141,14.502,68.784-5.751,107.204
	c-27.532,52.227-79.975,78.686-117.135,59.097c-0.283-0.149-0.548-0.321-0.827-0.474c5.61,9.754,13.36,17.652,23.183,22.83
	c37.16,19.589,89.603-6.87,117.135-59.097C466.937,134.743,459.443,77.032,423.01,57.012z"/>
<path style="fill:#8FE673;" d="M96.657,145.148c15.719-40.166-17.451-94.65-45.977-77.789S53.889,139.55,96.657,145.148z"/>
<g>
	<path style="fill:#76CC5B;" d="M96.657,145.148C79.37,105.631,17.389,90.561,9.141,122.654S62.457,171.432,96.657,145.148z"/>
	<path style="fill:#76CC5B;" d="M96.657,145.148c-26.284-34.2-9.598-95.765,22.494-87.516S136.174,127.861,96.657,145.148z"/>
</g>
<path style="fill:#599944;" d="M103.684,149.706c0.22-0.34,0.419-0.692,0.586-1.059c0.026-0.056,0.047-0.114,0.072-0.171
	c0.174-0.404,0.325-0.817,0.435-1.243l13.873-53.972c1.152-4.485-1.548-9.054-6.033-10.206c-4.485-1.155-9.054,1.548-10.206,6.032
	l-8.835,34.372l-18.057-30.55c-2.355-3.986-7.497-5.308-11.482-2.952c-3.986,2.355-5.307,7.497-2.952,11.482l18.058,30.552
	l-34.372-8.835c-4.485-1.155-9.054,1.548-10.206,6.032c-1.152,4.485,1.548,9.054,6.033,10.206l53.949,13.867h0.002l0.022,0.006
	c0.218,0.056,0.437,0.087,0.655,0.125c0.126,0.022,0.249,0.056,0.377,0.072c0.006,0.001,0.012,0.002,0.019,0.003
	c0.35,0.044,0.697,0.066,1.043,0.066l0,0l0,0c0.018,0,0.035-0.004,0.053-0.004c0.4-0.002,0.8-0.04,1.201-0.101
	c0.134-0.02,0.265-0.053,0.397-0.079c0.282-0.057,0.561-0.126,0.838-0.213c0.143-0.045,0.284-0.093,0.425-0.145
	c0.257-0.096,0.51-0.209,0.76-0.332c0.137-0.067,0.275-0.131,0.408-0.206c0.058-0.032,0.118-0.055,0.177-0.089
	c0.278-0.164,0.54-0.345,0.791-0.535c0.013-0.01,0.028-0.017,0.041-0.027c0.03-0.023,0.055-0.053,0.084-0.076
	c0.302-0.237,0.582-0.491,0.844-0.761c0.038-0.039,0.078-0.075,0.115-0.116c0.276-0.296,0.523-0.613,0.75-0.941
	C103.595,149.843,103.64,149.776,103.684,149.706z"/>
<circle style="fill:#FF704D;" cx="123.079" cy="189.051" r="68.889"/>
<path style="opacity:0.2;enable-background:new    ;" d="M123.082,120.165c-5.785,0-11.398,0.722-16.767,2.066
	c29.94,7.489,52.119,34.56,52.119,66.82s-22.179,59.331-52.119,66.82c5.369,1.342,10.982,2.066,16.767,2.066
	c38.045,0,68.886-30.841,68.886-68.886C191.968,151.007,161.127,120.165,123.082,120.165z"/>
<ellipse style="fill:#FFC552;" cx="181.841" cy="231.225" rx="79.977" ry="78.77"/>
<path style="opacity:0.2;enable-background:new    ;" d="M190.075,152.863c22.919,13.853,38.211,38.757,38.211,67.184
	c0,43.508-35.808,78.777-79.98,78.777c-2.781,0-5.527-0.141-8.236-0.414c12.158,7.348,26.459,11.591,41.769,11.591
	c44.171,0,79.98-35.269,79.98-78.777C261.82,190.457,230.376,156.924,190.075,152.863z"/>
<ellipse style="fill:#9773BF;" cx="276.014" cy="215.912" rx="82.593" ry="81.352"/>
<path style="opacity:0.2;enable-background:new    ;" d="M304.083,139.391c13.048,14.386,20.99,33.36,20.99,54.168
	c0,44.929-36.979,81.351-82.594,81.351c-9.857,0-19.306-1.708-28.07-4.827c15.125,16.675,37.115,27.182,61.603,27.182
	c45.616,0,82.594-36.422,82.594-81.351C358.606,180.695,335.878,150.709,304.083,139.391z"/>
<path style="fill:#8FE673;" d="M487.724,225.556c0-16.748-13.577-30.324-30.324-30.324c-5.555,0-10.756,1.501-15.233,4.108
	c-4.031-12.016-15.374-20.678-28.748-20.678c-5.555,0-10.756,1.5-15.234,4.108c-4.031-12.016-15.374-20.678-28.748-20.678
	s-24.718,8.662-28.748,20.678c-4.478-2.608-9.679-4.108-15.234-4.108c-13.373,0-24.718,8.662-28.748,20.678
	c-4.478-2.608-9.679-4.108-15.233-4.108c-16.748,0-30.324,13.577-30.324,30.324v45.571h236.575v-45.571H487.724z"/>
<g style="opacity:0.2;">
	<path d="M457.399,195.233c-3.946,0-7.706,0.769-11.162,2.143c11.206,4.454,19.131,15.39,19.131,28.182v45.571h22.356v-45.571
		C487.724,208.808,474.147,195.233,457.399,195.233z"/>
</g>
<polygon style="fill:#F2AE5D;" points="261.82,259.949 45.205,290.754 45.205,470.638 479.011,470.638 479.011,290.754 "/>
<polygon style="opacity:0.2;enable-background:new    ;" points="45.205,290.754 45.205,324.093 479.011,324.093 479.011,290.754 
	261.82,259.949 "/>
<rect x="20.027" y="229.336" style="fill:#F2AE5D;" width="483.587" height="61.221"/>
<path d="M356.234,51.785c-10.21,5.151-19.883,12.058-28.723,20.387c-6.612-14.057-16.625-24.877-29.475-31.651
	c-23.366-12.318-52.508-9.283-79.953,8.329c-3.897,2.5-5.029,7.686-2.527,11.584c2.502,3.898,7.686,5.028,11.584,2.527
	c22.215-14.255,45.204-17.029,63.079-7.607c11.338,5.977,19.829,16.406,24.739,30.311c0.24,0.68-4.291,5.51-4.812,6.216
	c-5.35,7.261-10.193,15.162-14.224,23.327c-0.459,0.931-5.21,12.246-5.448,12.21c-27.418-4.231-55.781,3.999-76.27,22.795
	c-0.129-0.05-0.259-0.093-0.389-0.142c-8.803-3.389-18.137-5.335-27.558-5.779c-0.098-0.004-0.196-0.015-0.295-0.019
	c-0.013-0.019-0.028-0.037-0.041-0.056c-0.753-1.055-1.534-2.082-2.333-3.092c-0.032-0.041-0.065-0.082-0.097-0.123
	c-2.511-3.158-5.238-6.09-8.158-8.78c2.401-7.248,5.444-14.385,9.078-21.278c5.653-10.723,12.517-20.499,20.405-29.057
	c3.138-3.404,2.922-8.709-0.483-11.846c-3.405-3.139-8.709-2.922-11.846,0.483c-8.872,9.625-16.58,20.594-22.909,32.601
	c-3.219,6.106-6.02,12.39-8.386,18.777c-7.089-4.021-14.813-6.907-22.921-8.514c7.124-15.87,8.73-32.627,3.866-45.08
	c-3.726-9.54-11.147-16.174-20.895-18.679c-2.623-0.675-5.264-1.016-7.847-1.016c-11.11,0-21.032,6.25-28.003,17.216
	c-7.269-6.443-15.39-9.885-23.641-9.885c-5.332,0-10.492,1.451-15.334,4.314C33.97,67.615,29.075,81.35,32.56,97.084
	c-16.274,1.004-27.952,9.664-31.533,23.598c-2.43,9.454-0.529,18.56,5.498,26.332c8.418,10.856,24.431,18.004,42.725,19.368
	c-2.228,7.206-3.433,14.858-3.433,22.786c0,11.143,2.355,21.954,6.884,31.904H20.033c-4.63,0-8.383,3.754-8.383,8.383v61.221
	c0,4.63,3.754,8.383,8.383,8.383h16.505v171.499c0,4.63,3.754,8.383,8.383,8.383h433.805c4.631,0,8.383-3.754,8.383-8.383v-171.5
	h16.506c4.631,0,8.383-3.754,8.383-8.383v-61.221c0-4.63-3.752-8.383-8.383-8.383h-7.786c-2.284-19.181-18.639-34.106-38.425-34.106
	c-3.075,0-6.122,0.386-9.088,1.102c5.826-11.541,10.171-23.575,12.887-35.826c1.002-4.519-1.849-8.997-6.369-10
	c-4.518-0.999-8.998,1.85-10,6.37c-2.142,9.659-5.416,19.186-9.756,28.401c-0.093-0.063-0.191-0.116-0.284-0.178
	c-6.243-4.174-13.873-6.434-21.373-6.438c-3.788,0-7.542,0.558-11.141,1.64c-6.955-11.159-19.264-18.21-32.841-18.21
	c-7.744,0-15.489,2.427-21.882,6.789c-10.659-13.429-24.741-23.404-40.654-29.04c-0.162-0.057,5.44-11.693,5.984-12.71
	c18.018-33.72,63.509-76.869,105.388-54.795c17.616,9.287,28.305,29.476,29.327,55.391c0.182,4.627,4.074,8.227,8.708,8.046
	c4.627-0.183,8.228-4.081,8.046-8.708c-1.265-32.055-15.211-57.408-38.262-69.561C405.659,38.462,380.849,39.368,356.234,51.785z
	 M181.507,160.956c0.113,0,0.225-0.008,0.336-0.008c6.484,0,12.88,0.839,19.136,2.545c0.219,0.059,0.439,0.116,0.658,0.178
	c0.14,0.039,0.276,0.088,0.416,0.129c-5.681,7.8-10.008,16.396-12.881,25.477c-0.036,0.112-0.068,0.225-0.103,0.338
	c-2.992,9.586-4.34,19.666-3.958,29.701c0.011,0.282,0.023,0.562,0.037,0.844c0.015,0.304,0.022,0.608,0.04,0.913h-74.139
	c0.047-0.32,0.089-0.642,0.141-0.96c2.395-14.751,9.722-28.546,20.445-38.931C145.01,168.23,162.712,161.048,181.507,160.956z
	 M160.295,141.446c0.069,0.058,0.129,0.127,0.2,0.183c1.636,1.29,3.189,2.666,4.676,4.106c-25.603,4.814-48.292,21.134-60.94,43.928
	c-5.106,9.2-8.524,19.585-9.936,30.118c-0.05,0.377-0.113,0.75-0.159,1.128c-0.007,0.055-0.017,0.108-0.022,0.163H71.689
	c-5.968-9.573-9.103-20.519-9.103-31.904c0-20.842,11.171-40.663,28.899-51.568c0.091-0.056,0.178-0.116,0.268-0.171
	C112.385,124.965,141.42,125.547,160.295,141.446z M19.776,136.739c-2.812-3.626-3.633-7.514-2.511-11.883
	c2.359-9.176,11.371-11.103,18.517-11.103c2.355,0,4.851,0.219,7.418,0.651c3.085,0.519,6.21-0.728,8.092-3.232
	c1.881-2.505,2.21-5.848,0.852-8.671c-2.298-4.776-8.889-20.897,2.807-27.809c2.256-1.332,4.48-1.981,6.803-1.981
	c6.175,0,13.071,4.706,18.92,12.91c1.818,2.551,4.908,3.876,8.006,3.434c3.1-0.44,5.697-2.572,6.732-5.527
	c3.982-11.363,10.705-18.147,17.985-18.147c1.176,0,2.412,0.164,3.673,0.488c4.575,1.176,7.666,3.969,9.452,8.541
	c3.675,9.41,1.081,24.359-6.27,37.541c-0.236,0.009-0.469,0.028-0.705,0.039c-1.938,0.087-3.874,0.25-5.799,0.483l4.907-19.094
	c1.152-4.485-1.548-9.054-6.032-10.206c-4.486-1.154-9.054,1.548-10.206,6.032l-7.173,27.907c-0.058,0.022-0.115,0.046-0.173,0.068
	c-1.42,0.554-2.832,1.142-4.216,1.781L75.524,93.023c-2.355-3.985-7.496-5.308-11.482-2.951c-3.986,2.355-5.307,7.497-2.952,11.483
	l15.377,26.016c-1.236,0.936-2.442,1.906-3.618,2.915l-28.072-7.215c-4.487-1.154-9.054,1.548-10.206,6.032
	c-1.152,4.485,1.548,9.054,6.032,10.206l19.454,5c-1.052,1.482-2.05,3.003-2.996,4.559c-0.02,0.032-0.04,0.065-0.06,0.097
	c-0.141,0.234-0.291,0.462-0.429,0.696C40.843,150.1,25.989,144.751,19.776,136.739z M495.233,237.837v44.454H114.824
	c-4.63,0-8.383,3.754-8.383,8.383c0,4.63,3.754,8.383,8.383,8.383h355.519v73.09c-13.459-0.11-27.11-0.082-39.937,0.085
	c-4.63,0.06-8.333,3.863-8.272,8.493c0.06,4.592,3.8,8.274,8.38,8.274c0.037,0,0.074,0,0.113,0
	c12.754-0.168,26.332-0.193,39.717-0.084v73.26H53.305v-73.189c114.903-0.189,227.005-0.184,342.397,0.013c0.004,0,0.01,0,0.015,0
	c4.624,0,8.376-3.745,8.383-8.369c0.008-4.63-3.739-8.389-8.369-8.398c-115.4-0.198-227.514-0.202-342.425-0.013v-73.161h30.223
	c4.63,0,8.383-3.754,8.383-8.383s-3.754-8.383-8.383-8.383H44.921H28.416v-44.454L495.233,237.837L495.233,237.837z
	 M343.646,190.732c5.259-1.98,5.677-8.307,8.967-12.248c10.821-12.961,32.275-8.89,37.628,7.068c0.101,0.298,0.217,0.59,0.348,0.873
	c0.92,1.977,2.583,3.531,4.648,4.308c4.755,1.791,9.345-2.236,13.88-3.144c8.114-1.625,16.658,1.621,21.688,8.164
	c0.08,0.104,0.172,0.196,0.256,0.296c3.145,3.712,3.039,9.328,8.156,11.253c2.357,0.886,4.992,0.667,7.171-0.601
	c3.335-1.943,7.146-2.969,11.016-2.969c10.521,0,19.335,7.443,21.455,17.339H260.029c0.329-1.535,0.822-2.995,1.47-4.422
	c5.269-11.609,19.964-16.37,30.992-9.949c2.15,1.251,4.846,1.477,7.171,0.602c2.36-0.888,4.195-2.79,4.996-5.18
	c3.001-8.948,11.361-14.96,20.8-14.96C331.558,187.161,337.693,192.974,343.646,190.732z M334.801,171.541
	c-0.169-0.042-0.342-0.072-0.512-0.112c-2.891-0.677-5.861-1.035-8.831-1.035c-13.577,0-25.886,7.05-32.84,18.209
	c-3.598-1.081-7.353-1.639-11.14-1.639c-18.568,0-35.294,14.265-38.219,32.583c-0.08,0.505-0.156,1.015-0.218,1.522h-41.039
	c-1.639-0.006,1.272-16.976,1.519-18.401c7.117-41.191,50.341-67.201,90.359-57.469C309.904,149.098,324.63,158.617,334.801,171.541
	z"/>
<g>
</g>
<g>
</g>
<g>
</g>
<g>
</g>
<g>
</g>
<g>
</g>
<g>
</g>
<g>
</g>
<g>
</g>
<g>
</g>
<g>
</g>
<g>
</g>
<g>
</g>
<g>
</g>
<g>
</g>
</svg>
