<?xml version="1.0" encoding="utf-8"?>
<!-- Generator: Adobe Illustrator 26.5.0, SVG Export Plug-In . SVG Version: 6.00 Build 0)  -->
<svg version="1.1" id="Layer_1" xmlns="http://www.w3.org/2000/svg" xmlns:xlink="http://www.w3.org/1999/xlink" x="0px" y="0px"
	 viewBox="0 0 500 512" style="enable-background:new 0 0 500 512;" xml:space="preserve">
<style type="text/css">
	.st0{fill:#FFD252;}
	.st1{fill:#757474;}
	.st2{fill:#FF5A5A;}
	.st3{fill:#AF6652;}
	.st4{fill:#AF6752;}
	.st5{fill:#C69128;}
</style>
<path class="st0" d="M39.6,479.4c7.5-12.6,15.1-25.2,22.6-37.8c12.2-20.5,24.5-41,36.5-61.5c13.6-23.2,27-46.6,40.6-69.8
	c13-22.1,26.2-44.1,39.2-66.3c11.1-18.8,21.9-37.8,33-56.6c9.2-15.7,18.6-31.3,27.9-46.9c0.7-1.3,1.3-2.6,2.5-4.4
	c6.8-7.6,11.3-7.5,18.1-0.1c16.1,27.4,32.2,54.9,48.3,82.3c15.6,26.5,31.4,52.9,47,79.4c15.9,27.2,31.6,54.5,47.6,81.7
	c13.4,22.8,27,45.4,40.4,68.1c6.1,10.3,11.9,20.8,18.1,32c-1.3,6.4-2.6,12-4.2,17.5c-2.4,7.9-1.9,9.9,4.2,15
	c-43.1,0-86.2,0.1-129.8-0.2c-0.5-0.3-0.4-0.7-0.1-1c9.8-23.5,19.3-46.7,28.7-70c0.6-1.5,0.2-4.2-0.9-5.4
	c-10.8-12.9-21.8-25.7-32.8-38.5c-17.4-20.3-34.8-40.7-52.4-60.9c-6.8-7.9-14.1-15.4-21.4-23.3c-1.1-0.8-1.9-1.4-3.1-1.8
	c-0.5,0.8-0.7,1.4-1,2c0,0,0,0-0.3,0.1c-1.9,1.7-3.7,3.2-5.1,4.9c-32.9,38.1-65.7,76.2-98.6,114.3c-3.2,3.7-4.1,7-1.8,11.5
	c2.3,4.5,3.8,9.3,5.8,14c7.4,17.8,14.7,35.6,22.2,53.6c0,0.2,0.1,0.6,0.1,0.6c-25.5,0.1-51,0.2-76.4,0.2c-18.4,0-36.7,0-55.4-0.4
	c5.9-4.2,6.8-6.5,5-13.3C42.6,492,41.1,485.7,39.6,479.4z"/>
<path class="st1" d="M331.2,511c0,0-0.1,0.4-0.1,0.6c-18,0.3-36,0.4-54,0.4c-35,0-70,0-105.6-0.1c-0.5-0.1-0.6-0.5-0.5-1
	c21.9-55.4,43.7-110.1,65.4-165c4.3-10.9,8.3-22,12.4-33c0,0-0.1,0,0.3-0.1c0.5-0.8,0.7-1.4,0.9-2c0.9,0.6,1.7,1.2,2.9,2.4
	c0.8,2,1.3,3.5,1.8,4.8C280.2,382.3,305.7,446.6,331.2,511z"/>
<path class="st2" d="M260.1,25.8c26.5,9.8,53,19.5,79.5,29.5c1.6,0.6,3.6,3.2,3.5,4.7c-0.2,1.9-2,4.4-3.7,5.2
	c-6.5,2.9-13.2,5.4-19.8,7.9c-19.1,7.2-38.3,14.3-57.4,21.4c-0.3,0.1-0.7,0-1.6-0.4C260.1,71,260.1,48.4,260.1,25.8z"/>
<path class="st3" d="M260.1,25.3c0,23.1,0,45.7,0,68.8c0,14,0,27.4,0,41.4c-6.9-6.9-11.4-7-17.8,0.4C242,93.9,242,51.7,242,9.6
	c0-7.5,2.3-9.8,9.6-9.6c6.1,0.1,8.3,2.4,8.4,8.5C260.1,13.9,260,19.4,260.1,25.3z"/>
<path class="st3" d="M39.4,479c1.7,6.7,3.2,13,4.8,19.3c1.8,6.8,0.9,9.1-5.5,13.3c-10,0.7-10.2,0.7-13.4-10
	c-7.1-23.4-14.1-46.8-21-70.3c-1.6-5.5,1.1-10.6,6.4-12.4c4.5-1.5,10.3,1.8,12,7.1C28.2,443.5,33.7,461.1,39.4,479z"/>
<path class="st4" d="M461.9,511.9c-6.6-5.2-7-7.2-4.7-15.1c1.6-5.5,3-11.1,4.4-17.1c5.5-17.5,11.2-34.6,16.6-51.7
	c2.1-6.7,6.7-9.9,13.3-8.2c4.3,1.1,7.2,7.6,5.5,13.1c-5.2,16.7-10.6,33.3-16,49.9c-2.1,6.7-4.1,13.4-6.2,20
	C472.1,511.7,471.6,512,461.9,511.9z"/>
<path class="st5" d="M248.5,313c-3.8,10.9-7.7,22-12,32.9C214.7,400.7,193,455.5,171,510.6c-7.6-17.4-15-35.2-22.3-53
	c-1.9-4.7-3.4-9.5-5.8-14c-2.4-4.5-1.4-7.8,1.8-11.5c32.9-38,65.8-76.2,98.6-114.3C244.8,316.2,246.5,314.7,248.5,313z"/>
<path class="st5" d="M331.5,510.7c-25.8-64.1-51.3-128.4-76.8-192.8c-0.5-1.4-1-2.8-1.6-4.6c7,7.3,14.2,14.8,21.1,22.6
	c17.6,20.2,34.9,40.6,52.4,60.9c11,12.8,22,25.6,32.8,38.5c1,1.2,1.5,3.9,0.9,5.4C350.8,464,341.2,487.2,331.5,510.7z"/>
<path class="st5" d="M249.8,310.9c0.1,0.4-0.2,1.1-0.7,1.9C249,312.3,249.2,311.7,249.8,310.9z"/>
</svg>
