<?xml version="1.0" encoding="utf-8"?>
<!-- Generator: Adobe Illustrator 26.5.0, SVG Export Plug-In . SVG Version: 6.00 Build 0)  -->
<svg version="1.1" id="Layer_1" xmlns="http://www.w3.org/2000/svg" xmlns:xlink="http://www.w3.org/1999/xlink" x="0px" y="0px"
	 viewBox="0 0 40 40" style="enable-background:new 0 0 40 40;" xml:space="preserve">
<style type="text/css">
	.st0{fill:#F5CE85;}
	.st1{fill:#967A44;}
	.st2{fill:#F78F8F;}
	.st3{fill:#C74343;}
	.st4{fill:#F7AAAA;}
	.st5{fill:#FFEEA3;}
	.st6{fill:#BA9B48;}
	.st7{fill:#70D65B;}
	.st8{fill:#58B741;}
</style>
<g>
	<rect x="11.2" y="11.5" class="st0" width="17.4" height="24.7"/>
	<path class="st1" d="M28.2,12v23.8H11.7V12H28.2 M29.1,11.1H10.9v25.7h18.3V11.1L29.1,11.1z"/>
</g>
<path class="st1" d="M20.9,19.4h-1.8v-5.5c0-0.5,0.4-0.9,0.9-0.9l0,0c0.5,0,0.9,0.4,0.9,0.9L20.9,19.4L20.9,19.4z"/>
<path class="st1" d="M26.4,19.4h-1.8v-5.5c0-0.5,0.4-0.9,0.9-0.9l0,0c0.5,0,0.9,0.4,0.9,0.9L26.4,19.4L26.4,19.4z"/>
<path class="st1" d="M15.4,19.4h-1.8v-5.5c0-0.5,0.4-0.9,0.9-0.9l0,0c0.5,0,0.9,0.4,0.9,0.9L15.4,19.4L15.4,19.4z"/>
<g>
	<path class="st2" d="M11.2,11.5v-0.4c0-4.3,7.4-8.1,8.7-8.6c1.3,0.6,8.7,4.4,8.7,8.6v0.5L11.2,11.5L11.2,11.5z"/>
	<g>
		<path class="st3" d="M20,3c2.7,1.2,8.2,4.6,8.2,8.2H11.7C11.7,7.6,17.4,4.2,20,3 M20,1.9c0,0-9.2,4.1-9.2,9.2c0,0.4,0,0.9,0,0.9
			h18.4v-0.9C29.1,6,20,1.9,20,1.9L20,1.9z"/>
	</g>
</g>
<g>
	<path class="st4" d="M17.2,11.1h5.5C22.7,4.5,20,3,20,3S17.2,4.5,17.2,11.1z"/>
</g>
<g>
	<polygon class="st0" points="3,36.2 3,22.4 20,16.1 36.9,22.4 36.9,36.2 	"/>
	<g>
		<path class="st1" d="M20,16.6l16.5,6.1v13.1h-33V22.7L20,16.6 M20,15.7L2.6,22.1v14.7h34.8V22.1L20,15.7L20,15.7z"/>
	</g>
</g>
<g>
	<path class="st1" d="M31.1,30.6h2.5v-3.7c0-0.7-0.6-1.2-1.2-1.2l0,0c-0.7,0-1.2,0.6-1.2,1.2C31.1,26.8,31.1,30.6,31.1,30.6z"/>
</g>
<g>
	<path class="st1" d="M6.3,30.6h2.5v-3.7c0-0.7-0.6-1.2-1.2-1.2l0,0c-0.7,0-1.2,0.6-1.2,1.2C6.3,26.9,6.3,30.6,6.3,30.6z"/>
</g>
<g>
	<polygon class="st5" points="11.2,36.2 11.2,19.4 20,16.1 28.7,19.4 28.7,36.2 	"/>
	<g>
		<path class="st6" d="M20,16.6l8.2,3v16.1H11.7V19.7L20,16.6 M20,15.7l-9.2,3.4v17.7h18.4V19.1L20,15.7L20,15.7z"/>
	</g>
</g>
<g>
	<path class="st1" d="M15,36.7h10v-7.5c0-2.7-2.2-4.9-4.9-4.9l0,0c-2.7,0-4.9,2.2-4.9,4.9L15,36.7L15,36.7z"/>
</g>
<g>
	<polygon class="st3" points="20,15.7 2.6,22.1 2.6,23.2 20,16.7 37.4,23.2 37.4,22.1 	"/>
</g>
<path class="st7" d="M34.2,36.6c1.2,0,2.5,0,3.7,0.1c1.3,0.1,2,0.6,2.1,1.3c0,0.4,0,0.8,0,1.3c-11.6,0-23.2,0-34.9,0
	C5,38.9,5,38.6,5,38.3c0-0.8,0.5-1.4,2-1.6c0.9,0,1.8,0,2.7,0c4.2,0,8.3,0,12.5,0c1.9,0,3.7,0,5.6,0c2,0,3.9,0,5.9,0
	C33.8,36.6,34,36.6,34.2,36.6z"/>
<path class="st8" d="M8,36.7c-1.1,0.3-1.4,0.9-1.4,1.7c0,0.3,0,0.6,0,0.9c-2.1,0-4.1,0-6.2,0c0-0.4,0-0.8,0-1.2
	c0-0.7,0.6-1.3,1.7-1.3c0.9-0.1,1.8,0,2.7-0.1C5.8,36.7,6.9,36.7,8,36.7z"/>
</svg>
